<?xml version="1.0" encoding="UTF-8" standalone="no"?>
<!DOCTYPE svg PUBLIC "-//W3C//DTD SVG 1.1//EN" "http://www.w3.org/Graphics/SVG/1.1/DTD/svg11.dtd">
<svg xmlns="http://www.w3.org/2000/svg" xmlns:xlink="http://www.w3.org/1999/xlink" version="1.1" width="309.748pt" height="210.153pt" viewBox="0 0 309.748 210.153">
<g enable-background="new">
<path transform="matrix(1,0,0,-1,56.693,167.235)" stroke-width=".79701" stroke-linecap="butt" stroke-miterlimit="10" stroke-linejoin="miter" fill="none" stroke="#000000" d="M -28.3468 0 L 225.97747 0 "/>
<path transform="matrix(1,0,0,-1,283.06898,167.235)" stroke-width=".79701" stroke-linecap="round" stroke-linejoin="round" fill="none" stroke="#000000" d="M -2.55046 3.11095 C -2.0845 1.24435 -1.04614 .36295 0 0 C -1.04614 -.36295 -2.0845 -1.24435 -2.55046 -3.11095 "/>
<text xml:space="preserve" transform="matrix(1 0 -0 1 0 210.153)" font-size="9.9626" font-family="CMMI10" font-style="italic"><tspan y="-34.91" x="287.183">z</tspan></text>
<path transform="matrix(1,0,0,-1,56.693,167.235)" stroke-width=".79701" stroke-linecap="butt" stroke-miterlimit="10" stroke-linejoin="miter" fill="none" stroke="#000000" d="M -10.63004 -28.3468 L -10.63004 140.93703 "/>
<path transform="matrix(0,-1,-1,-0,46.06296,25.89946)" stroke-width=".79701" stroke-linecap="round" stroke-linejoin="round" fill="none" stroke="#000000" d="M -2.55046 3.11095 C -2.0845 1.24435 -1.04614 .36295 0 0 C -1.04614 -.36295 -2.0845 -1.24435 -2.55046 -3.11095 "/>
<text xml:space="preserve" transform="matrix(1 0 -0 1 0 210.153)" font-size="9.9626" font-family="CMMI10" font-style="italic"><tspan y="-188.369" x="36.65">x</tspan></text>
<clipPath id="cp0">
<path transform="matrix(1,0,0,-1,56.693,167.235)" d="M -42.5202 -28.3468 L -42.5202 141.73404 L 226.77448 141.73404 L 226.77448 -28.3468 Z M 226.77448 141.73404 "/>
</clipPath>
<g clip-path="url(#cp0)">
<path transform="matrix(1,0,0,-1,56.693,167.235)" stroke-width="1.59404" stroke-linecap="butt" stroke-dasharray="2.98883,2.98883" stroke-miterlimit="10" stroke-linejoin="miter" fill="none" stroke="#000000" d="M 42.5202 113.38724 C -28.3468 0 -28.3468 0 42.5202 -113.38724 "/>
<path transform="matrix(1,0,0,-1,56.693,167.235)" d="M 140.60034 0 C 140.60034 .78282 139.96575 1.4174 139.18292 1.4174 C 138.4001 1.4174 137.7655 .78282 137.7655 0 C 137.7655 -.78282 138.4001 -1.4174 139.18292 -1.4174 C 139.96575 -1.4174 140.60034 -.78282 140.60034 0 Z M 139.18292 0 "/>
<path transform="matrix(1,0,0,-1,56.693,167.235)" stroke-width=".3985" stroke-linecap="butt" stroke-miterlimit="10" stroke-linejoin="miter" fill="none" stroke="#000000" d="M 140.60034 0 C 140.60034 .78282 139.96575 1.4174 139.18292 1.4174 C 138.4001 1.4174 137.7655 .78282 137.7655 0 C 137.7655 -.78282 138.4001 -1.4174 139.18292 -1.4174 C 139.96575 -1.4174 140.60034 -.78282 140.60034 0 Z M 139.18292 0 "/>
<text xml:space="preserve" transform="matrix(1 0 -0 1 0 210.153)" font-size="9.9626" font-family="CMMI10" font-style="italic"><tspan y="-31.926" x="183.466">f</tspan></text>
<text xml:space="preserve" transform="matrix(1 0 -0 1 0 210.153)" font-size="9.9626" font-family="CMR10"><tspan y="-31.926" x="189.416">(</tspan></text>
<text xml:space="preserve" transform="matrix(1 0 -0 1 0 210.153)" font-size="9.9626" font-family="CMMI10" font-style="italic"><tspan y="-31.926" x="193.29">x</tspan></text>
<text xml:space="preserve" transform="matrix(1 0 -0 1 0 210.153)" font-size="6.9738" font-family="CMMI7" font-style="italic"><tspan y="-30.432002" x="198.984">n</tspan></text>
<text xml:space="preserve" transform="matrix(1 0 -0 1 0 210.153)" font-size="9.9626" font-family="CMR10"><tspan y="-31.926" x="204.407">)</tspan></text>
<path transform="matrix(1,0,0,-1,56.693,167.235)" d="M -9.21262 0 C -9.21262 .78282 -9.84721 1.4174 -10.63004 1.4174 C -11.41286 1.4174 -12.04745 .78282 -12.04745 0 C -12.04745 -.78282 -11.41286 -1.4174 -10.63004 -1.4174 C -9.84721 -1.4174 -9.21262 -.78282 -9.21262 0 Z M -10.63004 0 "/>
<path transform="matrix(1,0,0,-1,56.693,167.235)" stroke-width=".3985" stroke-linecap="butt" stroke-miterlimit="10" stroke-linejoin="miter" fill="none" stroke="#000000" d="M -9.21262 0 C -9.21262 .78282 -9.84721 1.4174 -10.63004 1.4174 C -11.41286 1.4174 -12.04745 .78282 -12.04745 0 C -12.04745 -.78282 -11.41286 -1.4174 -10.63004 -1.4174 C -9.84721 -1.4174 -9.21262 -.78282 -9.21262 0 Z M -10.63004 0 "/>
<text xml:space="preserve" transform="matrix(1 0 -0 1 0 210.153)" font-size="9.9626" font-family="CMR10"><tspan y="-46.438" x="37.562">0</tspan></text>
<path transform="matrix(1,0,0,-1,56.693,167.235)" d="M -9.21262 113.38724 C -9.21262 114.17006 -9.84721 114.80464 -10.63004 114.80464 C -11.41286 114.80464 -12.04745 114.17006 -12.04745 113.38724 C -12.04745 112.6044 -11.41286 111.96982 -10.63004 111.96982 C -9.84721 111.96982 -9.21262 112.6044 -9.21262 113.38724 Z M -10.63004 113.38724 "/>
<path transform="matrix(1,0,0,-1,56.693,167.235)" stroke-width=".3985" stroke-linecap="butt" stroke-miterlimit="10" stroke-linejoin="miter" fill="none" stroke="#000000" d="M -9.21262 113.38724 C -9.21262 114.17006 -9.84721 114.80464 -10.63004 114.80464 C -11.41286 114.80464 -12.04745 114.17006 -12.04745 113.38724 C -12.04745 112.6044 -11.41286 111.96982 -10.63004 111.96982 C -9.84721 111.96982 -9.21262 112.6044 -9.21262 113.38724 Z M -10.63004 113.38724 "/>
<text xml:space="preserve" transform="matrix(1 0 -0 1 .0000038146974 210.153)" font-size="9.9626" font-family="CMMI10" font-style="italic"><tspan y="-154.159" x="37.772">r</tspan></text>
<path transform="matrix(1,0,0,-1,56.693,167.235)" d="M 43.93762 113.38724 C 43.93762 114.17006 43.30302 114.80464 42.5202 114.80464 C 41.73738 114.80464 41.10278 114.17006 41.10278 113.38724 C 41.10278 112.6044 41.73738 111.96982 42.5202 111.96982 C 43.30302 111.96982 43.93762 112.6044 43.93762 113.38724 Z M 42.5202 113.38724 "/>
<path transform="matrix(1,0,0,-1,56.693,167.235)" stroke-width=".3985" stroke-linecap="butt" stroke-miterlimit="10" stroke-linejoin="miter" fill="none" stroke="#000000" d="M 43.93762 113.38724 C 43.93762 114.17006 43.30302 114.80464 42.5202 114.80464 C 41.73738 114.80464 41.10278 114.17006 41.10278 113.38724 C 41.10278 112.6044 41.73738 111.96982 42.5202 111.96982 C 43.30302 111.96982 43.93762 112.6044 43.93762 113.38724 Z M 42.5202 113.38724 "/>
<path transform="matrix(1,0,0,-1,56.693,167.235)" stroke-width=".3985" stroke-linecap="butt" stroke-dasharray="2.98883,2.98883" stroke-miterlimit="10" stroke-linejoin="miter" fill="none" stroke="#000000" d="M -10.63004 113.38724 L 42.5202 113.38724 "/>
<path transform="matrix(1,0,0,-1,56.693,167.235)" stroke-width=".3985" stroke-linecap="butt" stroke-miterlimit="10" stroke-linejoin="miter" fill="none" stroke="#0000ff" d="M 280.917 0 C 280.917 78.27855 217.46149 141.73404 139.18292 141.73404 C 60.90436 141.73404 -2.55112 78.27855 -2.55112 0 C -2.55112 -78.27855 60.90436 -141.73404 139.18292 -141.73404 C 217.46149 -141.73404 280.917 -78.27855 280.917 0 Z M 139.18292 0 "/>
<path transform="matrix(1,0,0,-1,56.693,167.235)" d="M 140.60034 0 C 140.60034 .78282 139.96575 1.4174 139.18292 1.4174 C 138.4001 1.4174 137.7655 .78282 137.7655 0 C 137.7655 -.78282 138.4001 -1.4174 139.18292 -1.4174 C 139.96575 -1.4174 140.60034 -.78282 140.60034 0 Z M 139.18292 0 " fill="#0000ff"/>
<path transform="matrix(1,0,0,-1,56.693,167.235)" stroke-width=".3985" stroke-linecap="butt" stroke-miterlimit="10" stroke-linejoin="miter" fill="none" stroke="#0000ff" d="M 140.60034 0 C 140.60034 .78282 139.96575 1.4174 139.18292 1.4174 C 138.4001 1.4174 137.7655 .78282 137.7655 0 C 137.7655 -.78282 138.4001 -1.4174 139.18292 -1.4174 C 139.96575 -1.4174 140.60034 -.78282 140.60034 0 Z M 139.18292 0 "/>
<text xml:space="preserve" transform="matrix(1 0 -0 1 0 210.153)" font-size="9.9626" font-family="CMMI10" font-style="italic"><tspan y="-31.926" x="183.466">f</tspan></text>
<text xml:space="preserve" transform="matrix(1 0 -0 1 0 210.153)" font-size="9.9626" font-family="CMR10"><tspan y="-31.926" x="189.416">(</tspan></text>
<text xml:space="preserve" transform="matrix(1 0 -0 1 0 210.153)" font-size="9.9626" font-family="CMMI10" font-style="italic"><tspan y="-31.926" x="193.291">x</tspan></text>
<text xml:space="preserve" transform="matrix(1 0 -0 1 0 210.153)" font-size="6.9738" font-family="CMMI7" font-style="italic"><tspan y="-30.432002" x="198.984">n</tspan></text>
<text xml:space="preserve" transform="matrix(1 0 -0 1 0 210.153)" font-size="9.9626" font-family="CMR10"><tspan y="-31.926" x="204.407">)</tspan></text>
<path transform="matrix(1,0,0,-1,56.693,167.235)" d="M 17.85861 70.867 C 17.85861 71.64984 17.22401 72.28442 16.4412 72.28442 C 15.65837 72.28442 15.02377 71.64984 15.02377 70.867 C 15.02377 70.08418 15.65837 69.44958 16.4412 69.44958 C 17.22401 69.44958 17.85861 70.08418 17.85861 70.867 Z M 16.4412 70.867 "/>
<path transform="matrix(1,0,0,-1,56.693,167.235)" stroke-width=".3985" stroke-linecap="butt" stroke-miterlimit="10" stroke-linejoin="miter" fill="none" stroke="#000000" d="M 17.85861 70.867 C 17.85861 71.64984 17.22401 72.28442 16.4412 72.28442 C 15.65837 72.28442 15.02377 71.64984 15.02377 70.867 C 15.02377 70.08418 15.65837 69.44958 16.4412 69.44958 C 17.22401 69.44958 17.85861 70.08418 17.85861 70.867 Z M 16.4412 70.867 "/>
<path transform="matrix(1,0,0,-1,56.693,167.235)" d="M -9.21262 70.867 C -9.21262 71.64984 -9.84721 72.28442 -10.63004 72.28442 C -11.41286 72.28442 -12.04745 71.64984 -12.04745 70.867 C -12.04745 70.08418 -11.41286 69.44958 -10.63004 69.44958 C -9.84721 69.44958 -9.21262 70.08418 -9.21262 70.867 Z M -10.63004 70.867 "/>
<path transform="matrix(1,0,0,-1,56.693,167.235)" stroke-width=".3985" stroke-linecap="butt" stroke-miterlimit="10" stroke-linejoin="miter" fill="none" stroke="#000000" d="M -9.21262 70.867 C -9.21262 71.64984 -9.84721 72.28442 -10.63004 72.28442 C -11.41286 72.28442 -12.04745 71.64984 -12.04745 70.867 C -12.04745 70.08418 -11.41286 69.44958 -10.63004 69.44958 C -9.84721 69.44958 -9.21262 70.08418 -9.21262 70.867 Z M -10.63004 70.867 "/>
<text xml:space="preserve" transform="matrix(1 0 -0 1 0 210.153)" font-size="9.9626" font-family="CMMI10" font-style="italic"><tspan y="-112.387" x="31.426">x</tspan></text>
<text xml:space="preserve" transform="matrix(1 0 -0 1 0 210.153)" font-size="6.9738" font-family="CMMI7" font-style="italic"><tspan y="-110.892" x="37.12">n</tspan></text>
<path transform="matrix(1,0,0,-1,56.693,167.235)" d="M 17.85861 0 C 17.85861 .78282 17.22401 1.4174 16.4412 1.4174 C 15.65837 1.4174 15.02377 .78282 15.02377 0 C 15.02377 -.78282 15.65837 -1.4174 16.4412 -1.4174 C 17.22401 -1.4174 17.85861 -.78282 17.85861 0 Z M 16.4412 0 "/>
<path transform="matrix(1,0,0,-1,56.693,167.235)" stroke-width=".3985" stroke-linecap="butt" stroke-miterlimit="10" stroke-linejoin="miter" fill="none" stroke="#000000" d="M 17.85861 0 C 17.85861 .78282 17.22401 1.4174 16.4412 1.4174 C 15.65837 1.4174 15.02377 .78282 15.02377 0 C 15.02377 -.78282 15.65837 -1.4174 16.4412 -1.4174 C 17.22401 -1.4174 17.85861 -.78282 17.85861 0 Z M 16.4412 0 "/>
<text xml:space="preserve" transform="matrix(1 0 -0 1 0 210.153)" font-size="9.9626" font-family="CMMI10" font-style="italic"><tspan y="-31.926" x="61.146">g</tspan></text>
<text xml:space="preserve" transform="matrix(1 0 -0 1 0 210.153)" font-size="9.9626" font-family="CMR10"><tspan y="-31.926" x="66.256">(</tspan></text>
<text xml:space="preserve" transform="matrix(1 0 -0 1 0 210.153)" font-size="9.9626" font-family="CMMI10" font-style="italic"><tspan y="-31.926" x="70.13">x</tspan></text>
<text xml:space="preserve" transform="matrix(1 0 -0 1 0 210.153)" font-size="6.9738" font-family="CMMI7" font-style="italic"><tspan y="-30.432002" x="75.824">n</tspan></text>
<text xml:space="preserve" transform="matrix(1 0 -0 1 0 210.153)" font-size="9.9626" font-family="CMR10"><tspan y="-31.926" x="81.246997">)</tspan></text>
<path transform="matrix(1,0,0,-1,56.693,167.235)" stroke-width=".3985" stroke-linecap="butt" stroke-dasharray="2.98883,2.98883" stroke-miterlimit="10" stroke-linejoin="miter" fill="none" stroke="#000000" d="M -10.63004 70.867 L 16.4412 70.867 "/>
<path transform="matrix(1,0,0,-1,56.693,167.235)" stroke-width=".3985" stroke-linecap="butt" stroke-dasharray="2.98883,2.98883" stroke-miterlimit="10" stroke-linejoin="miter" fill="none" stroke="#000000" d="M 16.4412 70.867 L 139.18292 0 "/>
<path transform="matrix(1,0,0,-1,56.693,167.235)" stroke-width=".3985" stroke-linecap="butt" stroke-dasharray="2.98883,2.98883" stroke-miterlimit="10" stroke-linejoin="miter" fill="none" stroke="#000000" d="M 16.4412 70.867 L 16.4412 0 "/>
<path transform="matrix(1,0,0,-1,56.693,167.235)" stroke-width=".3985" stroke-linecap="butt" stroke-miterlimit="10" stroke-linejoin="miter" fill="none" stroke="#00ff00" d="M 189.78209 0 C 189.78209 54.79498 145.36324 99.21382 90.56825 99.21382 C 35.77327 99.21382 -8.64555 54.79498 -8.64555 0 C -8.64555 -54.79498 35.77327 -99.21382 90.56825 -99.21382 C 145.36324 -99.21382 189.78209 -54.79498 189.78209 0 Z M 90.56825 0 "/>
<path transform="matrix(1,0,0,-1,56.693,167.235)" d="M 91.98567 0 C 91.98567 .78282 91.35109 1.4174 90.56825 1.4174 C 89.78543 1.4174 89.15083 .78282 89.15083 0 C 89.15083 -.78282 89.78543 -1.4174 90.56825 -1.4174 C 91.35109 -1.4174 91.98567 -.78282 91.98567 0 Z M 90.56825 0 " fill="#00ff00"/>
<path transform="matrix(1,0,0,-1,56.693,167.235)" stroke-width=".3985" stroke-linecap="butt" stroke-miterlimit="10" stroke-linejoin="miter" fill="none" stroke="#00ff00" d="M 91.98567 0 C 91.98567 .78282 91.35109 1.4174 90.56825 1.4174 C 89.78543 1.4174 89.15083 .78282 89.15083 0 C 89.15083 -.78282 89.78543 -1.4174 90.56825 -1.4174 C 91.35109 -1.4174 91.98567 -.78282 91.98567 0 Z M 90.56825 0 "/>
<text xml:space="preserve" transform="matrix(1 0 -0 1 -.000015258789 210.153)" font-size="9.9626" font-family="CMMI10" font-style="italic"><tspan y="-31.926" x="129.753">f</tspan></text>
<text xml:space="preserve" transform="matrix(1 0 -0 1 -.000015258789 210.153)" font-size="9.9626" font-family="CMR10"><tspan y="-31.926" x="135.703">(</tspan></text>
<text xml:space="preserve" transform="matrix(1 0 -0 1 -.000015258789 210.153)" font-size="9.9626" font-family="CMMI10" font-style="italic"><tspan y="-31.926" x="139.578">x</tspan></text>
<text xml:space="preserve" transform="matrix(1 0 -0 1 -.000015258789 210.153)" font-size="6.9738" font-family="CMMI7" font-style="italic"><tspan y="-30.432002" x="145.271">n</tspan></text>
<text xml:space="preserve" transform="matrix(1 0 -0 1 -.000015258789 210.153)" font-size="6.9738" font-family="CMSY7" font-style="italic"><tspan y="-30.432002" x="150.196">&#x2212;</tspan></text>
<text xml:space="preserve" transform="matrix(1 0 -0 1 -.000015258789 210.153)" font-size="6.9738" font-family="CMR7"><tspan y="-30.432002" x="156.423">1</tspan></text>
<text xml:space="preserve" transform="matrix(1 0 -0 1 -.000015258789 210.153)" font-size="9.9626" font-family="CMR10"><tspan y="-31.926" x="160.892">)</tspan></text>
<path transform="matrix(1,0,0,-1,56.693,167.235)" d="M 3.11815 43.93764 C 3.11815 44.72046 2.48355 45.35506 1.70073 45.35506 C .91791 45.35506 .28331 44.72046 .28331 43.93764 C .28331 43.1548 .91791 42.52022 1.70073 42.52022 C 2.48355 42.52022 3.11815 43.1548 3.11815 43.93764 Z M 1.70073 43.93764 "/>
<path transform="matrix(1,0,0,-1,56.693,167.235)" stroke-width=".3985" stroke-linecap="butt" stroke-miterlimit="10" stroke-linejoin="miter" fill="none" stroke="#000000" d="M 3.11815 43.93764 C 3.11815 44.72046 2.48355 45.35506 1.70073 45.35506 C .91791 45.35506 .28331 44.72046 .28331 43.93764 C .28331 43.1548 .91791 42.52022 1.70073 42.52022 C 2.48355 42.52022 3.11815 43.1548 3.11815 43.93764 Z M 1.70073 43.93764 "/>
<path transform="matrix(1,0,0,-1,56.693,167.235)" d="M -9.21262 43.93764 C -9.21262 44.72046 -9.84721 45.35506 -10.63004 45.35506 C -11.41286 45.35506 -12.04745 44.72046 -12.04745 43.93764 C -12.04745 43.1548 -11.41286 42.52022 -10.63004 42.52022 C -9.84721 42.52022 -9.21262 43.1548 -9.21262 43.93764 Z M -10.63004 43.93764 "/>
<path transform="matrix(1,0,0,-1,56.693,167.235)" stroke-width=".3985" stroke-linecap="butt" stroke-miterlimit="10" stroke-linejoin="miter" fill="none" stroke="#000000" d="M -9.21262 43.93764 C -9.21262 44.72046 -9.84721 45.35506 -10.63004 45.35506 C -11.41286 45.35506 -12.04745 44.72046 -12.04745 43.93764 C -12.04745 43.1548 -11.41286 42.52022 -10.63004 42.52022 C -9.84721 42.52022 -9.21262 43.1548 -9.21262 43.93764 Z M -10.63004 43.93764 "/>
<text xml:space="preserve" transform="matrix(1 0 -0 1 0 210.153)" font-size="9.9626" font-family="CMMI10" font-style="italic"><tspan y="-85.873" x="21.228">x</tspan></text>
<text xml:space="preserve" transform="matrix(1 0 -0 1 0 210.153)" font-size="6.9738" font-family="CMMI7" font-style="italic"><tspan y="-84.378" x="26.922">n</tspan></text>
<text xml:space="preserve" transform="matrix(1 0 -0 1 0 210.153)" font-size="6.9738" font-family="CMSY7" font-style="italic"><tspan y="-84.378" x="31.847">&#x2212;</tspan></text>
<text xml:space="preserve" transform="matrix(1 0 -0 1 0 210.153)" font-size="6.9738" font-family="CMR7"><tspan y="-84.378" x="38.074">1</tspan></text>
<path transform="matrix(1,0,0,-1,56.693,167.235)" stroke-width=".3985" stroke-linecap="butt" stroke-dasharray="2.98883,2.98883" stroke-miterlimit="10" stroke-linejoin="miter" fill="none" stroke="#000000" d="M -10.63004 43.93764 L 1.70073 43.93764 "/>
<path transform="matrix(1,0,0,-1,56.693,167.235)" stroke-width=".3985" stroke-linecap="butt" stroke-dasharray="2.98883,2.98883" stroke-miterlimit="10" stroke-linejoin="miter" fill="none" stroke="#000000" d="M 1.70073 43.93764 L 90.56825 0 "/>
<path transform="matrix(1,0,0,-1,56.693,167.235)" stroke-width=".3985" stroke-linecap="butt" stroke-miterlimit="10" stroke-linejoin="miter" fill="none" stroke="#ff0000" d="M 404.22535 0 C 404.22535 109.58998 315.38768 198.42766 205.79767 198.42766 C 96.20769 198.42766 7.37 109.58998 7.37 0 C 7.37 -109.58998 96.20769 -198.42766 205.79767 -198.42766 C 315.38768 -198.42766 404.22535 -109.58998 404.22535 0 Z M 205.79767 0 "/>
<path transform="matrix(1,0,0,-1,56.693,167.235)" d="M 207.21509 0 C 207.21509 .78282 206.58049 1.4174 205.79767 1.4174 C 205.01485 1.4174 204.38025 .78282 204.38025 0 C 204.38025 -.78282 205.01485 -1.4174 205.79767 -1.4174 C 206.58049 -1.4174 207.21509 -.78282 207.21509 0 Z M 205.79767 0 " fill="#ff0000"/>
<path transform="matrix(1,0,0,-1,56.693,167.235)" stroke-width=".3985" stroke-linecap="butt" stroke-miterlimit="10" stroke-linejoin="miter" fill="none" stroke="#ff0000" d="M 207.21509 0 C 207.21509 .78282 206.58049 1.4174 205.79767 1.4174 C 205.01485 1.4174 204.38025 .78282 204.38025 0 C 204.38025 -.78282 205.01485 -1.4174 205.79767 -1.4174 C 206.58049 -1.4174 207.21509 -.78282 207.21509 0 Z M 205.79767 0 "/>
<text xml:space="preserve" transform="matrix(1 0 -0 1 .000015258789 210.153)" font-size="9.9626" font-family="CMMI10" font-style="italic"><tspan y="-31.926" x="245.036">f</tspan></text>
<text xml:space="preserve" transform="matrix(1 0 -0 1 .000015258789 210.153)" font-size="9.9626" font-family="CMR10"><tspan y="-31.926" x="250.986">(</tspan></text>
<text xml:space="preserve" transform="matrix(1 0 -0 1 .000015258789 210.153)" font-size="9.9626" font-family="CMMI10" font-style="italic"><tspan y="-31.926" x="254.861">x</tspan></text>
<text xml:space="preserve" transform="matrix(1 0 -0 1 .000015258789 210.153)" font-size="6.9738" font-family="CMMI7" font-style="italic"><tspan y="-30.432002" x="260.555">n</tspan></text>
<text xml:space="preserve" transform="matrix(1 0 -0 1 .000015258789 210.153)" font-size="6.9738" font-family="CMR7"><tspan y="-30.432002" x="265.47999 271.596">+1</tspan></text>
<text xml:space="preserve" transform="matrix(1 0 -0 1 .000015258789 210.153)" font-size="9.9626" font-family="CMR10"><tspan y="-31.926" x="276.06498">)</tspan></text>
<path transform="matrix(1,0,0,-1,56.693,167.235)" d="M 38.55165 104.88309 C 38.55165 105.66592 37.91705 106.3005 37.13423 106.3005 C 36.35141 106.3005 35.71681 105.66592 35.71681 104.88309 C 35.71681 104.10027 36.35141 103.46568 37.13423 103.46568 C 37.91705 103.46568 38.55165 104.10027 38.55165 104.88309 Z M 37.13423 104.88309 "/>
<path transform="matrix(1,0,0,-1,56.693,167.235)" stroke-width=".3985" stroke-linecap="butt" stroke-miterlimit="10" stroke-linejoin="miter" fill="none" stroke="#000000" d="M 38.55165 104.88309 C 38.55165 105.66592 37.91705 106.3005 37.13423 106.3005 C 36.35141 106.3005 35.71681 105.66592 35.71681 104.88309 C 35.71681 104.10027 36.35141 103.46568 37.13423 103.46568 C 37.91705 103.46568 38.55165 104.10027 38.55165 104.88309 Z M 37.13423 104.88309 "/>
<path transform="matrix(1,0,0,-1,56.693,167.235)" d="M -9.21262 104.88309 C -9.21262 105.66592 -9.84721 106.3005 -10.63004 106.3005 C -11.41286 106.3005 -12.04745 105.66592 -12.04745 104.88309 C -12.04745 104.10027 -11.41286 103.46568 -10.63004 103.46568 C -9.84721 103.46568 -9.21262 104.10027 -9.21262 104.88309 Z M -10.63004 104.88309 "/>
<path transform="matrix(1,0,0,-1,56.693,167.235)" stroke-width=".3985" stroke-linecap="butt" stroke-miterlimit="10" stroke-linejoin="miter" fill="none" stroke="#000000" d="M -9.21262 104.88309 C -9.21262 105.66592 -9.84721 106.3005 -10.63004 106.3005 C -11.41286 106.3005 -12.04745 105.66592 -12.04745 104.88309 C -12.04745 104.10027 -11.41286 103.46568 -10.63004 103.46568 C -9.84721 103.46568 -9.21262 104.10027 -9.21262 104.88309 Z M -10.63004 104.88309 "/>
<text xml:space="preserve" transform="matrix(1 0 -0 1 0 210.153)" font-size="9.9626" font-family="CMMI10" font-style="italic"><tspan y="-146.817" x="21.339">x</tspan></text>
<text xml:space="preserve" transform="matrix(1 0 -0 1 0 210.153)" font-size="6.9738" font-family="CMMI7" font-style="italic"><tspan y="-145.323" x="27.033">n</tspan></text>
<text xml:space="preserve" transform="matrix(1 0 -0 1 0 210.153)" font-size="6.9738" font-family="CMR7"><tspan y="-145.323" x="31.958 38.074026">+1</tspan></text>
<path transform="matrix(1,0,0,-1,56.693,167.235)" stroke-width=".3985" stroke-linecap="butt" stroke-dasharray="2.98883,2.98883" stroke-miterlimit="10" stroke-linejoin="miter" fill="none" stroke="#000000" d="M -10.63004 104.88309 L 37.13423 104.88309 "/>
<path transform="matrix(1,0,0,-1,56.693,167.235)" stroke-width=".3985" stroke-linecap="butt" stroke-dasharray="2.98883,2.98883" stroke-miterlimit="10" stroke-linejoin="miter" fill="none" stroke="#000000" d="M 37.13423 104.88309 L 205.79767 0 "/>
<path transform="matrix(1,0,0,-1,56.693,167.235)" stroke-width=".3985" stroke-linecap="butt" stroke-miterlimit="10" stroke-linejoin="miter" fill="none" stroke="#000000" d="M -42.5202 0 L 42.5202 0 "/>
</g>
</g>
</svg>
