<?xml version="1.0" encoding="UTF-8" standalone="no"?>
<!DOCTYPE svg PUBLIC "-//W3C//DTD SVG 1.1//EN" "http://www.w3.org/Graphics/SVG/1.1/DTD/svg11.dtd">
<svg xmlns="http://www.w3.org/2000/svg" xmlns:xlink="http://www.w3.org/1999/xlink" version="1.1" width="239.903pt" height="240.436pt" viewBox="0 0 239.903 240.436">
<g enable-background="new">
<path transform="matrix(1,0,0,-1,113.784,126.65201)" d="M 85.04042 0 C 85.04042 46.96713 46.96713 85.04042 0 85.04042 C -46.96713 85.04042 -85.04042 46.96713 -85.04042 0 C -85.04042 -46.96713 -46.96713 -85.04042 0 -85.04042 C 46.96713 -85.04042 85.04042 -46.96713 85.04042 0 Z M 0 0 " fill="#ffffff"/>
<path transform="matrix(1,0,0,-1,113.784,126.65201)" stroke-width=".3985" stroke-linecap="butt" stroke-miterlimit="10" stroke-linejoin="miter" fill="none" stroke="#000000" d="M 85.04042 0 C 85.04042 46.96713 46.96713 85.04042 0 85.04042 C -46.96713 85.04042 -85.04042 46.96713 -85.04042 0 C -85.04042 -46.96713 -46.96713 -85.04042 0 -85.04042 C 46.96713 -85.04042 85.04042 -46.96713 85.04042 0 Z M 0 0 "/>
<path transform="matrix(1,0,0,-1,113.784,126.65201)" d="M 51.02432 0 C 51.02432 28.18031 28.18031 51.02432 0 51.02432 C -28.18031 51.02432 -51.02432 28.18031 -51.02432 0 C -51.02432 -28.18031 -28.18031 -51.02432 0 -51.02432 C 28.18031 -51.02432 51.02432 -28.18031 51.02432 0 Z M 0 0 " fill="#ff8000"/>
<path transform="matrix(1,0,0,-1,113.784,126.65201)" stroke-width=".3985" stroke-linecap="butt" stroke-miterlimit="10" stroke-linejoin="miter" fill="none" stroke="#000000" d="M 51.02432 0 C 51.02432 28.18031 28.18031 51.02432 0 51.02432 C -28.18031 51.02432 -51.02432 28.18031 -51.02432 0 C -51.02432 -28.18031 -28.18031 -51.02432 0 -51.02432 C 28.18031 -51.02432 51.02432 -28.18031 51.02432 0 Z M 0 0 "/>
<path transform="matrix(1,0,0,-1,113.784,126.65201)" d="M 45.35506 0 C 45.35506 25.04922 25.04922 45.35506 0 45.35506 C -25.04922 45.35506 -45.35506 25.04922 -45.35506 0 C -45.35506 -25.04922 -25.04922 -45.35506 0 -45.35506 C 25.04922 -45.35506 45.35506 -25.04922 45.35506 0 Z M 0 0 " fill="#00ff00"/>
<path transform="matrix(1,0,0,-1,113.784,126.65201)" stroke-width=".3985" stroke-linecap="butt" stroke-miterlimit="10" stroke-linejoin="miter" fill="none" stroke="#000000" d="M 45.35506 0 C 45.35506 25.04922 25.04922 45.35506 0 45.35506 C -25.04922 45.35506 -45.35506 25.04922 -45.35506 0 C -45.35506 -25.04922 -25.04922 -45.35506 0 -45.35506 C 25.04922 -45.35506 45.35506 -25.04922 45.35506 0 Z M 0 0 "/>
<path transform="matrix(1,0,0,-1,113.784,126.65201)" d="M 39.68535 0 C 39.68535 21.9179 21.9179 39.68535 0 39.68535 C -21.9179 39.68535 -39.68535 21.9179 -39.68535 0 C -39.68535 -21.9179 -21.9179 -39.68535 0 -39.68535 C 21.9179 -39.68535 39.68535 -21.9179 39.68535 0 Z M 0 0 " fill="#00aeef"/>
<path transform="matrix(1,0,0,-1,113.784,126.65201)" stroke-width=".3985" stroke-linecap="butt" stroke-miterlimit="10" stroke-linejoin="miter" fill="none" stroke="#000000" d="M 39.68535 0 C 39.68535 21.9179 21.9179 39.68535 0 39.68535 C -21.9179 39.68535 -39.68535 21.9179 -39.68535 0 C -39.68535 -21.9179 -21.9179 -39.68535 0 -39.68535 C 21.9179 -39.68535 39.68535 -21.9179 39.68535 0 Z M 0 0 "/>
<path transform="matrix(1,0,0,-1,113.784,126.65201)" d="M 34.01608 0 C 34.01608 18.78679 18.78679 34.01608 0 34.01608 C -18.78679 34.01608 -34.01608 18.78679 -34.01608 0 C -34.01608 -18.78679 -18.78679 -34.01608 0 -34.01608 C 18.78679 -34.01608 34.01608 -18.78679 34.01608 0 Z M 0 0 " fill="#ffffff"/>
<path transform="matrix(1,0,0,-1,113.784,126.65201)" stroke-width=".3985" stroke-linecap="butt" stroke-miterlimit="10" stroke-linejoin="miter" fill="none" stroke="#000000" d="M 34.01608 0 C 34.01608 18.78679 18.78679 34.01608 0 34.01608 C -18.78679 34.01608 -34.01608 18.78679 -34.01608 0 C -34.01608 -18.78679 -18.78679 -34.01608 0 -34.01608 C 18.78679 -34.01608 34.01608 -18.78679 34.01608 0 Z M 0 0 "/>
<path transform="matrix(1,0,0,-1,113.784,126.65201)" d="M 14.17339 0 C 14.17339 7.82784 7.82784 14.17339 0 14.17339 C -7.82784 14.17339 -14.17339 7.82784 -14.17339 0 C -14.17339 -7.82784 -7.82784 -14.17339 0 -14.17339 C 7.82784 -14.17339 14.17339 -7.82784 14.17339 0 Z M 0 0 " fill="#ffffff"/>
<path transform="matrix(1,0,0,-1,113.784,126.65201)" stroke-width=".3985" stroke-linecap="butt" stroke-miterlimit="10" stroke-linejoin="miter" fill="none" stroke="#000000" d="M 14.17339 0 C 14.17339 7.82784 7.82784 14.17339 0 14.17339 C -7.82784 14.17339 -14.17339 7.82784 -14.17339 0 C -14.17339 -7.82784 -7.82784 -14.17339 0 -14.17339 C 7.82784 -14.17339 14.17339 -7.82784 14.17339 0 Z M 0 0 "/>
<path transform="matrix(1,0,0,-1,113.784,126.65201)" stroke-width=".3985" stroke-linecap="butt" stroke-dasharray="2.98883,2.98883" stroke-miterlimit="10" stroke-linejoin="miter" fill="none" stroke="#000000" d="M 48.18947 0 C 48.18947 26.61464 26.61464 48.18947 0 48.18947 C -26.61464 48.18947 -48.18947 26.61464 -48.18947 0 C -48.18947 -26.61464 -26.61464 -48.18947 0 -48.18947 C 26.61464 -48.18947 48.18947 -26.61464 48.18947 0 Z M 0 0 "/>
<path transform="matrix(1,0,0,-1,113.784,126.65201)" stroke-width=".3985" stroke-linecap="butt" stroke-dasharray="2.98883,2.98883" stroke-miterlimit="10" stroke-linejoin="miter" fill="none" stroke="#000000" d="M 42.5202 0 C 42.5202 23.48355 23.48355 42.5202 0 42.5202 C -23.48355 42.5202 -42.5202 23.48355 -42.5202 0 C -42.5202 -23.48355 -23.48355 -42.5202 0 -42.5202 C 23.48355 -42.5202 42.5202 -23.48355 42.5202 0 Z M 0 0 "/>
<path transform="matrix(1,0,0,-1,113.784,126.65201)" stroke-width=".3985" stroke-linecap="butt" stroke-dasharray="2.98883,2.98883" stroke-miterlimit="10" stroke-linejoin="miter" fill="none" stroke="#000000" d="M 36.85092 0 C 36.85092 20.35246 20.35246 36.85092 0 36.85092 C -20.35246 36.85092 -36.85092 20.35246 -36.85092 0 C -36.85092 -20.35246 -20.35246 -36.85092 0 -36.85092 C 20.35246 -36.85092 36.85092 -20.35246 36.85092 0 Z M 0 0 "/>
<path transform="matrix(1,0,0,-1,113.784,126.65201)" d="M 49.60689 0 C 49.60689 .78282 48.9723 1.4174 48.18947 1.4174 C 47.40665 1.4174 46.77205 .78282 46.77205 0 C 46.77205 -.78282 47.40665 -1.4174 48.18947 -1.4174 C 48.9723 -1.4174 49.60689 -.78282 49.60689 0 Z M 48.18947 0 "/>
<path transform="matrix(1,0,0,-1,113.784,126.65201)" stroke-width=".3985" stroke-linecap="butt" stroke-miterlimit="10" stroke-linejoin="miter" fill="none" stroke="#000000" d="M 49.60689 0 C 49.60689 .78282 48.9723 1.4174 48.18947 1.4174 C 47.40665 1.4174 46.77205 .78282 46.77205 0 C 46.77205 -.78282 47.40665 -1.4174 48.18947 -1.4174 C 48.9723 -1.4174 49.60689 -.78282 49.60689 0 Z M 48.18947 0 "/>
<path transform="matrix(1,0,0,-1,113.784,126.65201)" d="M 43.93762 0 C 43.93762 .78282 43.30302 1.4174 42.5202 1.4174 C 41.73738 1.4174 41.10278 .78282 41.10278 0 C 41.10278 -.78282 41.73738 -1.4174 42.5202 -1.4174 C 43.30302 -1.4174 43.93762 -.78282 43.93762 0 Z M 42.5202 0 "/>
<path transform="matrix(1,0,0,-1,113.784,126.65201)" stroke-width=".3985" stroke-linecap="butt" stroke-miterlimit="10" stroke-linejoin="miter" fill="none" stroke="#000000" d="M 43.93762 0 C 43.93762 .78282 43.30302 1.4174 42.5202 1.4174 C 41.73738 1.4174 41.10278 .78282 41.10278 0 C 41.10278 -.78282 41.73738 -1.4174 42.5202 -1.4174 C 43.30302 -1.4174 43.93762 -.78282 43.93762 0 Z M 42.5202 0 "/>
<path transform="matrix(1,0,0,-1,113.784,126.65201)" d="M 38.26834 0 C 38.26834 .78282 37.63376 1.4174 36.85092 1.4174 C 36.0681 1.4174 35.4335 .78282 35.4335 0 C 35.4335 -.78282 36.0681 -1.4174 36.85092 -1.4174 C 37.63376 -1.4174 38.26834 -.78282 38.26834 0 Z M 36.85092 0 "/>
<path transform="matrix(1,0,0,-1,113.784,126.65201)" stroke-width=".3985" stroke-linecap="butt" stroke-miterlimit="10" stroke-linejoin="miter" fill="none" stroke="#000000" d="M 38.26834 0 C 38.26834 .78282 37.63376 1.4174 36.85092 1.4174 C 36.0681 1.4174 35.4335 .78282 35.4335 0 C 35.4335 -.78282 36.0681 -1.4174 36.85092 -1.4174 C 37.63376 -1.4174 38.26834 -.78282 38.26834 0 Z M 36.85092 0 "/>
<path transform="matrix(1,0,0,-1,113.784,126.65201)" stroke-width=".79701" stroke-linecap="butt" stroke-miterlimit="10" stroke-linejoin="miter" fill="none" stroke="#000000" d="M -99.21382 0 L 98.41681 0 "/>
<path transform="matrix(1,0,0,-1,212.5993,126.65201)" stroke-width=".79701" stroke-linecap="round" stroke-linejoin="round" fill="none" stroke="#000000" d="M -2.55046 3.11095 C -2.0845 1.24435 -1.04614 .36295 0 0 C -1.04614 -.36295 -2.0845 -1.24435 -2.55046 -3.11095 "/>
<text xml:space="preserve" transform="matrix(1 0 -0 1 0 240.436)" font-size="9.9626" font-family="CMMI10" font-style="italic"><tspan y="-105.776" x="216.716">x</tspan></text>
<path transform="matrix(1,0,0,-1,113.784,126.65201)" stroke-width=".79701" stroke-linecap="butt" stroke-miterlimit="10" stroke-linejoin="miter" fill="none" stroke="#000000" d="M 0 -99.21382 L 0 98.41681 "/>
<path transform="matrix(0,-1,-1,-0,113.784,27.836709)" stroke-width=".79701" stroke-linecap="round" stroke-linejoin="round" fill="none" stroke="#000000" d="M -2.55046 3.11095 C -2.0845 1.24435 -1.04614 .36295 0 0 C -1.04614 -.36295 -2.0845 -1.24435 -2.55046 -3.11095 "/>
<text xml:space="preserve" transform="matrix(1 0 -0 1 0 240.436)" font-size="9.9626" font-family="CMMI10" font-style="italic"><tspan y="-218.653" x="104.823">y</tspan></text>
<path transform="matrix(1,0,0,-1,113.784,126.65201)" d="M 1.4174 0 C 1.4174 .78282 .78282 1.4174 0 1.4174 C -.78282 1.4174 -1.4174 .78282 -1.4174 0 C -1.4174 -.78282 -.78282 -1.4174 0 -1.4174 C .78282 -1.4174 1.4174 -.78282 1.4174 0 Z M 0 0 "/>
<path transform="matrix(1,0,0,-1,113.784,126.65201)" stroke-width=".3985" stroke-linecap="butt" stroke-miterlimit="10" stroke-linejoin="miter" fill="none" stroke="#000000" d="M 1.4174 0 C 1.4174 .78282 .78282 1.4174 0 1.4174 C -.78282 1.4174 -1.4174 .78282 -1.4174 0 C -1.4174 -.78282 -.78282 -1.4174 0 -1.4174 C .78282 -1.4174 1.4174 -.78282 1.4174 0 Z M 0 0 "/>
<text xml:space="preserve" transform="matrix(1 0 -0 1 -.0000076293949 240.436)" font-size="9.9626" font-family="CMR10"><tspan y="-103.844" x="117.304">0</tspan></text>
<path transform="matrix(1,0,0,-1,113.784,126.65201)" d="M 86.45784 0 C 86.45784 .78282 85.82324 1.4174 85.04042 1.4174 C 84.2576 1.4174 83.623 .78282 83.623 0 C 83.623 -.78282 84.2576 -1.4174 85.04042 -1.4174 C 85.82324 -1.4174 86.45784 -.78282 86.45784 0 Z M 85.04042 0 "/>
<path transform="matrix(1,0,0,-1,113.784,126.65201)" stroke-width=".3985" stroke-linecap="butt" stroke-miterlimit="10" stroke-linejoin="miter" fill="none" stroke="#000000" d="M 86.45784 0 C 86.45784 .78282 85.82324 1.4174 85.04042 1.4174 C 84.2576 1.4174 83.623 .78282 83.623 0 C 83.623 -.78282 84.2576 -1.4174 85.04042 -1.4174 C 85.82324 -1.4174 86.45784 -.78282 86.45784 0 Z M 85.04042 0 "/>
<text xml:space="preserve" transform="matrix(1 0 -0 1 -.000015258789 240.436)" font-size="9.9626" font-family="CMMI10" font-style="italic"><tspan y="-105.975" x="186.378">r</tspan></text>
<text xml:space="preserve" transform="matrix(1 0 -0 1 -.000015258789 240.436)" font-size="6.9738" font-family="CMMI7" font-style="italic"><tspan y="-104.480998" x="190.873">o</tspan></text>
<path transform="matrix(1,0,0,-1,113.784,126.65201)" d="M 15.5908 0 C 15.5908 .78282 14.95622 1.4174 14.17339 1.4174 C 13.39056 1.4174 12.75597 .78282 12.75597 0 C 12.75597 -.78282 13.39056 -1.4174 14.17339 -1.4174 C 14.95622 -1.4174 15.5908 -.78282 15.5908 0 Z M 14.17339 0 "/>
<path transform="matrix(1,0,0,-1,113.784,126.65201)" stroke-width=".3985" stroke-linecap="butt" stroke-miterlimit="10" stroke-linejoin="miter" fill="none" stroke="#000000" d="M 15.5908 0 C 15.5908 .78282 14.95622 1.4174 14.17339 1.4174 C 13.39056 1.4174 12.75597 .78282 12.75597 0 C 12.75597 -.78282 13.39056 -1.4174 14.17339 -1.4174 C 14.95622 -1.4174 15.5908 -.78282 15.5908 0 Z M 14.17339 0 "/>
<text xml:space="preserve" transform="matrix(1 0 -0 1 -.000015258789 240.436)" font-size="9.9626" font-family="CMMI10" font-style="italic"><tspan y="-105.975" x="131.477">r</tspan></text>
<text xml:space="preserve" transform="matrix(1 0 -0 1 -.000015258789 240.436)" font-size="6.9738" font-family="CMMI7" font-style="italic"><tspan y="-104.480998" x="135.972">i</tspan></text>
</g>
</svg>
