%TF.GenerationSoftware,KiCad,Pcbnew,8.0.3*%
%TF.CreationDate,2024-07-13T17:14:31+01:00*%
%TF.ProjectId,RS485Board,52533438-3542-46f6-9172-642e6b696361,rev?*%
%TF.SameCoordinates,Original*%
%TF.FileFunction,Copper,L1,Top*%
%TF.FilePolarity,Positive*%
%FSLAX46Y46*%
G04 Gerber Fmt 4.6, Leading zero omitted, Abs format (unit mm)*
G04 Created by KiCad (PCBNEW 8.0.3) date 2024-07-13 17:14:31*
%MOMM*%
%LPD*%
G01*
G04 APERTURE LIST*
G04 Aperture macros list*
%AMRoundRect*
0 Rectangle with rounded corners*
0 $1 Rounding radius*
0 $2 $3 $4 $5 $6 $7 $8 $9 X,Y pos of 4 corners*
0 Add a 4 corners polygon primitive as box body*
4,1,4,$2,$3,$4,$5,$6,$7,$8,$9,$2,$3,0*
0 Add four circle primitives for the rounded corners*
1,1,$1+$1,$2,$3*
1,1,$1+$1,$4,$5*
1,1,$1+$1,$6,$7*
1,1,$1+$1,$8,$9*
0 Add four rect primitives between the rounded corners*
20,1,$1+$1,$2,$3,$4,$5,0*
20,1,$1+$1,$4,$5,$6,$7,0*
20,1,$1+$1,$6,$7,$8,$9,0*
20,1,$1+$1,$8,$9,$2,$3,0*%
G04 Aperture macros list end*
%TA.AperFunction,ComponentPad*%
%ADD10RoundRect,0.250000X-0.600000X-0.600000X0.600000X-0.600000X0.600000X0.600000X-0.600000X0.600000X0*%
%TD*%
%TA.AperFunction,ComponentPad*%
%ADD11C,1.700000*%
%TD*%
%TA.AperFunction,ComponentPad*%
%ADD12R,3.500000X3.500000*%
%TD*%
%TA.AperFunction,ComponentPad*%
%ADD13RoundRect,0.750000X-0.750000X-1.000000X0.750000X-1.000000X0.750000X1.000000X-0.750000X1.000000X0*%
%TD*%
%TA.AperFunction,ComponentPad*%
%ADD14RoundRect,0.875000X-0.875000X-0.875000X0.875000X-0.875000X0.875000X0.875000X-0.875000X0.875000X0*%
%TD*%
%TA.AperFunction,ComponentPad*%
%ADD15RoundRect,0.250000X0.600000X0.600000X-0.600000X0.600000X-0.600000X-0.600000X0.600000X-0.600000X0*%
%TD*%
G04 APERTURE END LIST*
D10*
%TO.P,J1,1,Pin_1*%
%TO.N,Net-(J1-Pin_1)*%
X111230000Y-97000000D03*
D11*
%TO.P,J1,2,Pin_2*%
%TO.N,Net-(J1-Pin_2)*%
X113770000Y-97000000D03*
%TO.P,J1,3,Pin_3*%
%TO.N,GND*%
X111230000Y-99540000D03*
%TO.P,J1,4,Pin_4*%
X113770000Y-99540000D03*
%TO.P,J1,5,Pin_5*%
%TO.N,+12V*%
X111230000Y-102080000D03*
%TO.P,J1,6,Pin_6*%
X113770000Y-102080000D03*
%TD*%
D12*
%TO.P,J3,1*%
%TO.N,+12V*%
X104000000Y-112500000D03*
D13*
%TO.P,J3,2*%
%TO.N,GND*%
X98000000Y-112500000D03*
D14*
%TO.P,J3,3*%
X101000000Y-117200000D03*
%TD*%
D15*
%TO.P,J2,1,Pin_1*%
%TO.N,Net-(J2-Pin_1)*%
X113770000Y-128000000D03*
D11*
%TO.P,J2,2,Pin_2*%
%TO.N,Net-(J2-Pin_2)*%
X111230000Y-128000000D03*
%TO.P,J2,3,Pin_3*%
%TO.N,GND*%
X113770000Y-125460000D03*
%TO.P,J2,4,Pin_4*%
X111230000Y-125460000D03*
%TO.P,J2,5,Pin_5*%
%TO.N,+12V*%
X113770000Y-122920000D03*
%TO.P,J2,6,Pin_6*%
X111230000Y-122920000D03*
%TD*%
%TA.AperFunction,Conductor*%
%TO.N,+12V*%
G36*
X113304075Y-123112993D02*
G01*
X113369901Y-123227007D01*
X113462993Y-123320099D01*
X113577007Y-123385925D01*
X113640590Y-123402962D01*
X113008625Y-124034925D01*
X113084594Y-124088119D01*
X113128219Y-124142696D01*
X113135413Y-124212194D01*
X113103890Y-124274549D01*
X113084595Y-124291269D01*
X112898594Y-124421508D01*
X112731505Y-124588597D01*
X112601575Y-124774158D01*
X112546998Y-124817783D01*
X112477500Y-124824977D01*
X112415145Y-124793454D01*
X112398425Y-124774158D01*
X112268494Y-124588597D01*
X112101402Y-124421506D01*
X112101401Y-124421505D01*
X111915405Y-124291269D01*
X111871781Y-124236692D01*
X111864588Y-124167193D01*
X111896110Y-124104839D01*
X111915405Y-124088119D01*
X111991373Y-124034925D01*
X111359409Y-123402962D01*
X111422993Y-123385925D01*
X111537007Y-123320099D01*
X111630099Y-123227007D01*
X111695925Y-123112993D01*
X111712962Y-123049410D01*
X112344925Y-123681373D01*
X112398425Y-123604968D01*
X112453002Y-123561344D01*
X112522501Y-123554151D01*
X112584855Y-123585673D01*
X112601576Y-123604969D01*
X112655073Y-123681372D01*
X113287037Y-123049409D01*
X113304075Y-123112993D01*
G37*
%TD.AperFunction*%
%TA.AperFunction,Conductor*%
G36*
X112584855Y-100206546D02*
G01*
X112601575Y-100225842D01*
X112731500Y-100411395D01*
X112731505Y-100411401D01*
X112898599Y-100578495D01*
X113084594Y-100708730D01*
X113128218Y-100763307D01*
X113135411Y-100832806D01*
X113103889Y-100895160D01*
X113084593Y-100911880D01*
X113008626Y-100965072D01*
X113008625Y-100965072D01*
X113640590Y-101597037D01*
X113577007Y-101614075D01*
X113462993Y-101679901D01*
X113369901Y-101772993D01*
X113304075Y-101887007D01*
X113287037Y-101950590D01*
X112655072Y-101318625D01*
X112655072Y-101318626D01*
X112601574Y-101395030D01*
X112546998Y-101438655D01*
X112477499Y-101445849D01*
X112415144Y-101414326D01*
X112398424Y-101395030D01*
X112344925Y-101318626D01*
X112344925Y-101318625D01*
X111712962Y-101950589D01*
X111695925Y-101887007D01*
X111630099Y-101772993D01*
X111537007Y-101679901D01*
X111422993Y-101614075D01*
X111359410Y-101597037D01*
X111991373Y-100965073D01*
X111991373Y-100965072D01*
X111915405Y-100911880D01*
X111871780Y-100857304D01*
X111864586Y-100787805D01*
X111896108Y-100725451D01*
X111915399Y-100708734D01*
X112101401Y-100578495D01*
X112268495Y-100411401D01*
X112398425Y-100225842D01*
X112453002Y-100182217D01*
X112522500Y-100175023D01*
X112584855Y-100206546D01*
G37*
%TD.AperFunction*%
%TA.AperFunction,Conductor*%
G36*
X133004418Y-90500816D02*
G01*
X133204561Y-90515130D01*
X133222063Y-90517647D01*
X133413797Y-90559355D01*
X133430755Y-90564334D01*
X133614609Y-90632909D01*
X133630701Y-90640259D01*
X133802904Y-90734288D01*
X133817784Y-90743849D01*
X133974867Y-90861441D01*
X133988237Y-90873027D01*
X134126972Y-91011762D01*
X134138558Y-91025132D01*
X134256146Y-91182210D01*
X134265711Y-91197095D01*
X134359740Y-91369298D01*
X134367090Y-91385390D01*
X134435662Y-91569236D01*
X134440646Y-91586212D01*
X134482351Y-91777931D01*
X134484869Y-91795442D01*
X134499184Y-91995580D01*
X134499500Y-92004427D01*
X134499500Y-132995572D01*
X134499184Y-133004419D01*
X134484869Y-133204557D01*
X134482351Y-133222068D01*
X134440646Y-133413787D01*
X134435662Y-133430763D01*
X134367090Y-133614609D01*
X134359740Y-133630701D01*
X134265711Y-133802904D01*
X134256146Y-133817789D01*
X134138558Y-133974867D01*
X134126972Y-133988237D01*
X133988237Y-134126972D01*
X133974867Y-134138558D01*
X133817789Y-134256146D01*
X133802904Y-134265711D01*
X133630701Y-134359740D01*
X133614609Y-134367090D01*
X133430763Y-134435662D01*
X133413787Y-134440646D01*
X133222068Y-134482351D01*
X133204557Y-134484869D01*
X133023779Y-134497799D01*
X133004417Y-134499184D01*
X132995572Y-134499500D01*
X92004428Y-134499500D01*
X91995582Y-134499184D01*
X91973622Y-134497613D01*
X91795442Y-134484869D01*
X91777931Y-134482351D01*
X91586212Y-134440646D01*
X91569236Y-134435662D01*
X91385390Y-134367090D01*
X91369298Y-134359740D01*
X91197095Y-134265711D01*
X91182210Y-134256146D01*
X91025132Y-134138558D01*
X91011762Y-134126972D01*
X90873027Y-133988237D01*
X90861441Y-133974867D01*
X90743849Y-133817784D01*
X90734288Y-133802904D01*
X90640259Y-133630701D01*
X90632909Y-133614609D01*
X90572091Y-133451551D01*
X90564334Y-133430755D01*
X90559355Y-133413797D01*
X90517647Y-133222063D01*
X90515130Y-133204556D01*
X90500816Y-133004418D01*
X90500500Y-132995572D01*
X90500500Y-124837106D01*
X97099500Y-124837106D01*
X97099500Y-125162893D01*
X97135974Y-125486604D01*
X97135976Y-125486620D01*
X97208467Y-125804226D01*
X97208471Y-125804238D01*
X97316066Y-126111725D01*
X97457413Y-126405234D01*
X97457415Y-126405237D01*
X97630739Y-126681081D01*
X97833857Y-126935783D01*
X98064217Y-127166143D01*
X98318919Y-127369261D01*
X98594763Y-127542585D01*
X98888278Y-127683935D01*
X99118766Y-127764586D01*
X99195761Y-127791528D01*
X99195773Y-127791532D01*
X99513383Y-127864024D01*
X99837106Y-127900499D01*
X99837107Y-127900500D01*
X99837111Y-127900500D01*
X100162893Y-127900500D01*
X100162893Y-127900499D01*
X100486617Y-127864024D01*
X100804227Y-127791532D01*
X101111722Y-127683935D01*
X101405237Y-127542585D01*
X101681081Y-127369261D01*
X101935783Y-127166143D01*
X102166143Y-126935783D01*
X102369261Y-126681081D01*
X102542585Y-126405237D01*
X102683935Y-126111722D01*
X102791532Y-125804227D01*
X102864024Y-125486617D01*
X102867023Y-125459999D01*
X109874341Y-125459999D01*
X109874341Y-125460000D01*
X109894936Y-125695403D01*
X109894938Y-125695413D01*
X109956094Y-125923655D01*
X109956096Y-125923659D01*
X109956097Y-125923663D01*
X109960000Y-125932032D01*
X110055965Y-126137830D01*
X110055967Y-126137834D01*
X110164281Y-126292521D01*
X110191501Y-126331396D01*
X110191506Y-126331402D01*
X110358597Y-126498493D01*
X110358603Y-126498498D01*
X110544158Y-126628425D01*
X110587783Y-126683002D01*
X110594977Y-126752500D01*
X110563454Y-126814855D01*
X110544158Y-126831575D01*
X110358597Y-126961505D01*
X110191505Y-127128597D01*
X110055965Y-127322169D01*
X110055964Y-127322171D01*
X109956098Y-127536335D01*
X109956094Y-127536344D01*
X109894938Y-127764586D01*
X109894936Y-127764596D01*
X109874341Y-127999999D01*
X109874341Y-128000000D01*
X109894936Y-128235403D01*
X109894938Y-128235413D01*
X109956094Y-128463655D01*
X109956096Y-128463659D01*
X109956097Y-128463663D01*
X110040499Y-128644663D01*
X110055965Y-128677830D01*
X110055967Y-128677834D01*
X110162670Y-128830220D01*
X110191505Y-128871401D01*
X110358599Y-129038495D01*
X110401675Y-129068657D01*
X110552165Y-129174032D01*
X110552167Y-129174033D01*
X110552170Y-129174035D01*
X110766337Y-129273903D01*
X110994592Y-129335063D01*
X111171034Y-129350500D01*
X111229999Y-129355659D01*
X111230000Y-129355659D01*
X111230001Y-129355659D01*
X111288966Y-129350500D01*
X111465408Y-129335063D01*
X111693663Y-129273903D01*
X111907830Y-129174035D01*
X112101401Y-129038495D01*
X112268495Y-128871401D01*
X112268504Y-128871388D01*
X112269636Y-128870040D01*
X112270293Y-128869602D01*
X112272323Y-128867573D01*
X112272730Y-128867980D01*
X112327805Y-128831334D01*
X112397666Y-128830220D01*
X112457038Y-128867053D01*
X112482335Y-128910733D01*
X112485186Y-128919334D01*
X112577288Y-129068656D01*
X112701344Y-129192712D01*
X112850666Y-129284814D01*
X113017203Y-129339999D01*
X113119991Y-129350500D01*
X114420008Y-129350499D01*
X114522797Y-129339999D01*
X114689334Y-129284814D01*
X114838656Y-129192712D01*
X114962712Y-129068656D01*
X115054814Y-128919334D01*
X115109999Y-128752797D01*
X115120500Y-128650009D01*
X115120499Y-127349992D01*
X115109999Y-127247203D01*
X115054814Y-127080666D01*
X114962712Y-126931344D01*
X114838656Y-126807288D01*
X114745888Y-126750069D01*
X114689336Y-126715187D01*
X114689331Y-126715185D01*
X114689215Y-126715146D01*
X114680733Y-126712336D01*
X114623290Y-126672564D01*
X114596467Y-126608048D01*
X114608782Y-126539272D01*
X114637767Y-126502517D01*
X114637573Y-126502323D01*
X114639219Y-126500676D01*
X114640040Y-126499636D01*
X114641388Y-126498504D01*
X114641401Y-126498495D01*
X114808495Y-126331401D01*
X114944035Y-126137830D01*
X115043903Y-125923663D01*
X115105063Y-125695408D01*
X115125659Y-125460000D01*
X115105063Y-125224592D01*
X115043903Y-124996337D01*
X114969652Y-124837106D01*
X122099500Y-124837106D01*
X122099500Y-125162893D01*
X122135974Y-125486604D01*
X122135976Y-125486620D01*
X122208467Y-125804226D01*
X122208471Y-125804238D01*
X122316066Y-126111725D01*
X122457413Y-126405234D01*
X122457415Y-126405237D01*
X122630739Y-126681081D01*
X122833857Y-126935783D01*
X123064217Y-127166143D01*
X123318919Y-127369261D01*
X123594763Y-127542585D01*
X123888278Y-127683935D01*
X124118766Y-127764586D01*
X124195761Y-127791528D01*
X124195773Y-127791532D01*
X124513383Y-127864024D01*
X124837106Y-127900499D01*
X124837107Y-127900500D01*
X124837111Y-127900500D01*
X125162893Y-127900500D01*
X125162893Y-127900499D01*
X125486617Y-127864024D01*
X125804227Y-127791532D01*
X126111722Y-127683935D01*
X126405237Y-127542585D01*
X126681081Y-127369261D01*
X126935783Y-127166143D01*
X127166143Y-126935783D01*
X127369261Y-126681081D01*
X127542585Y-126405237D01*
X127683935Y-126111722D01*
X127791532Y-125804227D01*
X127864024Y-125486617D01*
X127900500Y-125162889D01*
X127900500Y-124837111D01*
X127864024Y-124513383D01*
X127791532Y-124195773D01*
X127781531Y-124167193D01*
X127735249Y-124034925D01*
X127683935Y-123888278D01*
X127547500Y-123604969D01*
X127542586Y-123594765D01*
X127432774Y-123420000D01*
X127369261Y-123318919D01*
X127166143Y-123064217D01*
X126935783Y-122833857D01*
X126681081Y-122630739D01*
X126405237Y-122457415D01*
X126405234Y-122457413D01*
X126111725Y-122316066D01*
X125804238Y-122208471D01*
X125804226Y-122208467D01*
X125486620Y-122135976D01*
X125486604Y-122135974D01*
X125162893Y-122099500D01*
X125162889Y-122099500D01*
X124837111Y-122099500D01*
X124837107Y-122099500D01*
X124513395Y-122135974D01*
X124513379Y-122135976D01*
X124195773Y-122208467D01*
X124195761Y-122208471D01*
X123888274Y-122316066D01*
X123594765Y-122457413D01*
X123318920Y-122630738D01*
X123064217Y-122833856D01*
X122833856Y-123064217D01*
X122630738Y-123318920D01*
X122457413Y-123594765D01*
X122316066Y-123888274D01*
X122208471Y-124195761D01*
X122208467Y-124195773D01*
X122135976Y-124513379D01*
X122135974Y-124513395D01*
X122099500Y-124837106D01*
X114969652Y-124837106D01*
X114944035Y-124782171D01*
X114938425Y-124774158D01*
X114808494Y-124588597D01*
X114641402Y-124421506D01*
X114641401Y-124421505D01*
X114455405Y-124291269D01*
X114411781Y-124236692D01*
X114404588Y-124167193D01*
X114436110Y-124104839D01*
X114455405Y-124088119D01*
X114531373Y-124034925D01*
X113899409Y-123402962D01*
X113962993Y-123385925D01*
X114077007Y-123320099D01*
X114170099Y-123227007D01*
X114235925Y-123112993D01*
X114252962Y-123049410D01*
X114884925Y-123681373D01*
X114884926Y-123681373D01*
X114943598Y-123597582D01*
X114943600Y-123597578D01*
X115043429Y-123383492D01*
X115043433Y-123383483D01*
X115104567Y-123155326D01*
X115104569Y-123155315D01*
X115125157Y-122920001D01*
X115125157Y-122919998D01*
X115104569Y-122684684D01*
X115104567Y-122684673D01*
X115043433Y-122456516D01*
X115043429Y-122456507D01*
X114943600Y-122242423D01*
X114943599Y-122242421D01*
X114884925Y-122158626D01*
X114884925Y-122158625D01*
X114252962Y-122790589D01*
X114235925Y-122727007D01*
X114170099Y-122612993D01*
X114077007Y-122519901D01*
X113962993Y-122454075D01*
X113899410Y-122437037D01*
X114531373Y-121805073D01*
X114531373Y-121805072D01*
X114447583Y-121746402D01*
X114447579Y-121746400D01*
X114233492Y-121646570D01*
X114233483Y-121646566D01*
X114005326Y-121585432D01*
X114005315Y-121585430D01*
X113770002Y-121564843D01*
X113769998Y-121564843D01*
X113534684Y-121585430D01*
X113534673Y-121585432D01*
X113306516Y-121646566D01*
X113306507Y-121646570D01*
X113092419Y-121746401D01*
X113008625Y-121805072D01*
X113640590Y-122437037D01*
X113577007Y-122454075D01*
X113462993Y-122519901D01*
X113369901Y-122612993D01*
X113304075Y-122727007D01*
X113287037Y-122790590D01*
X112655072Y-122158625D01*
X112655072Y-122158626D01*
X112601574Y-122235030D01*
X112546998Y-122278655D01*
X112477499Y-122285849D01*
X112415144Y-122254326D01*
X112398424Y-122235030D01*
X112344925Y-122158626D01*
X112344925Y-122158625D01*
X111712962Y-122790589D01*
X111695925Y-122727007D01*
X111630099Y-122612993D01*
X111537007Y-122519901D01*
X111422993Y-122454075D01*
X111359410Y-122437037D01*
X111991373Y-121805073D01*
X111991373Y-121805072D01*
X111907583Y-121746402D01*
X111907579Y-121746400D01*
X111693492Y-121646570D01*
X111693483Y-121646566D01*
X111465326Y-121585432D01*
X111465315Y-121585430D01*
X111230002Y-121564843D01*
X111229998Y-121564843D01*
X110994684Y-121585430D01*
X110994673Y-121585432D01*
X110766516Y-121646566D01*
X110766507Y-121646570D01*
X110552419Y-121746401D01*
X110468625Y-121805072D01*
X111100590Y-122437037D01*
X111037007Y-122454075D01*
X110922993Y-122519901D01*
X110829901Y-122612993D01*
X110764075Y-122727007D01*
X110747037Y-122790589D01*
X110115073Y-122158625D01*
X110115072Y-122158625D01*
X110056401Y-122242419D01*
X109956570Y-122456507D01*
X109956566Y-122456516D01*
X109895432Y-122684673D01*
X109895430Y-122684684D01*
X109874843Y-122919998D01*
X109874843Y-122920001D01*
X109895430Y-123155315D01*
X109895432Y-123155326D01*
X109956566Y-123383483D01*
X109956570Y-123383492D01*
X110056400Y-123597579D01*
X110056402Y-123597583D01*
X110115072Y-123681373D01*
X110115073Y-123681373D01*
X110747037Y-123049409D01*
X110764075Y-123112993D01*
X110829901Y-123227007D01*
X110922993Y-123320099D01*
X111037007Y-123385925D01*
X111100590Y-123402962D01*
X110468625Y-124034925D01*
X110544594Y-124088119D01*
X110588219Y-124142696D01*
X110595413Y-124212194D01*
X110563890Y-124274549D01*
X110544595Y-124291269D01*
X110358594Y-124421508D01*
X110191505Y-124588597D01*
X110055965Y-124782169D01*
X110055964Y-124782171D01*
X109956098Y-124996335D01*
X109956094Y-124996344D01*
X109894938Y-125224586D01*
X109894936Y-125224596D01*
X109874341Y-125459999D01*
X102867023Y-125459999D01*
X102900500Y-125162889D01*
X102900500Y-124837111D01*
X102864024Y-124513383D01*
X102791532Y-124195773D01*
X102781531Y-124167193D01*
X102735249Y-124034925D01*
X102683935Y-123888278D01*
X102547500Y-123604969D01*
X102542586Y-123594765D01*
X102432774Y-123420000D01*
X102369261Y-123318919D01*
X102166143Y-123064217D01*
X101935783Y-122833857D01*
X101681081Y-122630739D01*
X101405237Y-122457415D01*
X101405234Y-122457413D01*
X101111725Y-122316066D01*
X100804238Y-122208471D01*
X100804226Y-122208467D01*
X100486620Y-122135976D01*
X100486604Y-122135974D01*
X100162893Y-122099500D01*
X100162889Y-122099500D01*
X99837111Y-122099500D01*
X99837107Y-122099500D01*
X99513395Y-122135974D01*
X99513379Y-122135976D01*
X99195773Y-122208467D01*
X99195761Y-122208471D01*
X98888274Y-122316066D01*
X98594765Y-122457413D01*
X98318920Y-122630738D01*
X98064217Y-122833856D01*
X97833856Y-123064217D01*
X97630738Y-123318920D01*
X97457413Y-123594765D01*
X97316066Y-123888274D01*
X97208471Y-124195761D01*
X97208467Y-124195773D01*
X97135976Y-124513379D01*
X97135974Y-124513395D01*
X97099500Y-124837106D01*
X90500500Y-124837106D01*
X90500500Y-116231386D01*
X98749500Y-116231386D01*
X98749500Y-118168613D01*
X98749501Y-118168652D01*
X98752295Y-118221243D01*
X98752295Y-118221244D01*
X98796754Y-118451121D01*
X98796755Y-118451126D01*
X98845326Y-118579832D01*
X98879425Y-118670189D01*
X98997929Y-118872131D01*
X98997934Y-118872138D01*
X99148856Y-119051141D01*
X99148858Y-119051143D01*
X99327861Y-119202065D01*
X99327868Y-119202070D01*
X99529810Y-119320574D01*
X99748874Y-119403245D01*
X99978759Y-119447705D01*
X100031378Y-119450500D01*
X100031386Y-119450500D01*
X101968614Y-119450500D01*
X101968622Y-119450500D01*
X102021241Y-119447705D01*
X102251126Y-119403245D01*
X102470190Y-119320574D01*
X102672132Y-119202070D01*
X102851142Y-119051142D01*
X103002070Y-118872132D01*
X103120574Y-118670190D01*
X103203245Y-118451126D01*
X103247705Y-118221241D01*
X103250500Y-118168622D01*
X103250500Y-116231378D01*
X103247705Y-116178759D01*
X103203245Y-115948874D01*
X103120574Y-115729810D01*
X103002070Y-115527868D01*
X103002065Y-115527861D01*
X102851143Y-115348858D01*
X102851141Y-115348856D01*
X102672138Y-115197934D01*
X102672131Y-115197929D01*
X102470189Y-115079425D01*
X102379832Y-115045326D01*
X102251126Y-114996755D01*
X102245899Y-114995744D01*
X102183817Y-114963688D01*
X102148922Y-114903156D01*
X102152291Y-114833368D01*
X102192856Y-114776480D01*
X102257738Y-114750554D01*
X102269445Y-114750000D01*
X103750000Y-114750000D01*
X103750000Y-113933012D01*
X103807007Y-113965925D01*
X103934174Y-114000000D01*
X104065826Y-114000000D01*
X104192993Y-113965925D01*
X104250000Y-113933012D01*
X104250000Y-114750000D01*
X105797828Y-114750000D01*
X105797844Y-114749999D01*
X105857372Y-114743598D01*
X105857379Y-114743596D01*
X105992086Y-114693354D01*
X105992093Y-114693350D01*
X106107187Y-114607190D01*
X106107190Y-114607187D01*
X106193350Y-114492093D01*
X106193354Y-114492086D01*
X106243596Y-114357379D01*
X106243598Y-114357372D01*
X106249999Y-114297844D01*
X106250000Y-114297827D01*
X106250000Y-112750000D01*
X104500000Y-112750000D01*
X104500000Y-112250000D01*
X106250000Y-112250000D01*
X106250000Y-110702172D01*
X106249999Y-110702155D01*
X106243598Y-110642627D01*
X106243596Y-110642620D01*
X106193354Y-110507913D01*
X106193350Y-110507906D01*
X106107190Y-110392812D01*
X106107187Y-110392809D01*
X105992093Y-110306649D01*
X105992086Y-110306645D01*
X105857379Y-110256403D01*
X105857372Y-110256401D01*
X105797844Y-110250000D01*
X104250000Y-110250000D01*
X104250000Y-111066988D01*
X104192993Y-111034075D01*
X104065826Y-111000000D01*
X103934174Y-111000000D01*
X103807007Y-111034075D01*
X103750000Y-111066988D01*
X103750000Y-110250000D01*
X102202155Y-110250000D01*
X102142627Y-110256401D01*
X102142620Y-110256403D01*
X102007913Y-110306645D01*
X102007906Y-110306649D01*
X101892812Y-110392809D01*
X101892809Y-110392812D01*
X101806649Y-110507906D01*
X101806645Y-110507913D01*
X101756403Y-110642620D01*
X101756401Y-110642627D01*
X101750000Y-110702155D01*
X101750000Y-112250000D01*
X103500000Y-112250000D01*
X103500000Y-112750000D01*
X101750000Y-112750000D01*
X101750000Y-114297844D01*
X101756401Y-114357372D01*
X101756403Y-114357379D01*
X101806645Y-114492086D01*
X101806649Y-114492093D01*
X101892809Y-114607187D01*
X101892812Y-114607190D01*
X102007906Y-114693350D01*
X102007911Y-114693353D01*
X102056605Y-114711515D01*
X102112538Y-114753387D01*
X102136955Y-114818851D01*
X102122103Y-114887124D01*
X102072698Y-114936529D01*
X102006692Y-114951522D01*
X101968652Y-114949501D01*
X101968629Y-114949500D01*
X101968622Y-114949500D01*
X100031378Y-114949500D01*
X100031370Y-114949500D01*
X100031347Y-114949501D01*
X99978756Y-114952295D01*
X99978755Y-114952295D01*
X99748878Y-114996754D01*
X99748876Y-114996754D01*
X99748874Y-114996755D01*
X99674933Y-115024659D01*
X99529810Y-115079425D01*
X99327868Y-115197929D01*
X99327861Y-115197934D01*
X99148858Y-115348856D01*
X99148856Y-115348858D01*
X98997934Y-115527861D01*
X98997929Y-115527868D01*
X98879425Y-115729810D01*
X98824659Y-115874933D01*
X98796755Y-115948874D01*
X98796754Y-115948876D01*
X98796754Y-115948878D01*
X98752295Y-116178755D01*
X98752295Y-116178756D01*
X98749501Y-116231347D01*
X98749500Y-116231386D01*
X90500500Y-116231386D01*
X90500500Y-111435777D01*
X95999500Y-111435777D01*
X95999500Y-113564208D01*
X95999501Y-113564223D01*
X96009904Y-113696413D01*
X96009905Y-113696420D01*
X96064902Y-113914678D01*
X96064903Y-113914681D01*
X96157991Y-114119622D01*
X96157997Y-114119632D01*
X96286174Y-114304645D01*
X96286178Y-114304650D01*
X96286181Y-114304654D01*
X96445346Y-114463819D01*
X96445350Y-114463822D01*
X96445354Y-114463825D01*
X96486157Y-114492093D01*
X96630374Y-114592007D01*
X96835317Y-114685096D01*
X96835321Y-114685097D01*
X97053579Y-114740094D01*
X97053581Y-114740094D01*
X97053588Y-114740096D01*
X97185783Y-114750500D01*
X98814216Y-114750499D01*
X98946412Y-114740096D01*
X99164683Y-114685096D01*
X99369626Y-114592007D01*
X99554654Y-114463819D01*
X99713819Y-114304654D01*
X99842007Y-114119626D01*
X99935096Y-113914683D01*
X99990096Y-113696412D01*
X100000500Y-113564217D01*
X100000499Y-111435784D01*
X99990096Y-111303588D01*
X99935096Y-111085317D01*
X99842007Y-110880374D01*
X99810297Y-110834603D01*
X99713825Y-110695354D01*
X99713822Y-110695350D01*
X99713819Y-110695346D01*
X99554654Y-110536181D01*
X99554650Y-110536178D01*
X99554645Y-110536174D01*
X99369632Y-110407997D01*
X99369630Y-110407995D01*
X99369626Y-110407993D01*
X99336197Y-110392809D01*
X99164681Y-110314903D01*
X99164678Y-110314902D01*
X98946420Y-110259905D01*
X98946413Y-110259904D01*
X98901902Y-110256401D01*
X98814217Y-110249500D01*
X98814215Y-110249500D01*
X97185791Y-110249500D01*
X97185776Y-110249501D01*
X97053586Y-110259904D01*
X97053579Y-110259905D01*
X96835321Y-110314902D01*
X96835318Y-110314903D01*
X96630377Y-110407991D01*
X96630367Y-110407997D01*
X96445354Y-110536174D01*
X96445342Y-110536184D01*
X96286184Y-110695342D01*
X96286174Y-110695354D01*
X96157997Y-110880367D01*
X96157991Y-110880377D01*
X96064903Y-111085318D01*
X96064902Y-111085321D01*
X96009905Y-111303579D01*
X96009904Y-111303586D01*
X95999500Y-111435777D01*
X90500500Y-111435777D01*
X90500500Y-99837106D01*
X97099500Y-99837106D01*
X97099500Y-100162893D01*
X97135974Y-100486604D01*
X97135976Y-100486620D01*
X97208467Y-100804226D01*
X97208471Y-100804238D01*
X97316066Y-101111725D01*
X97457413Y-101405234D01*
X97457415Y-101405237D01*
X97630739Y-101681081D01*
X97833857Y-101935783D01*
X98064217Y-102166143D01*
X98318919Y-102369261D01*
X98594763Y-102542585D01*
X98594765Y-102542586D01*
X98672456Y-102580000D01*
X98888278Y-102683935D01*
X99098738Y-102757578D01*
X99195761Y-102791528D01*
X99195773Y-102791532D01*
X99513383Y-102864024D01*
X99837106Y-102900499D01*
X99837107Y-102900500D01*
X99837111Y-102900500D01*
X100162893Y-102900500D01*
X100162893Y-102900499D01*
X100486617Y-102864024D01*
X100804227Y-102791532D01*
X101111722Y-102683935D01*
X101405237Y-102542585D01*
X101681081Y-102369261D01*
X101935783Y-102166143D01*
X102166143Y-101935783D01*
X102369261Y-101681081D01*
X102542585Y-101405237D01*
X102683935Y-101111722D01*
X102791532Y-100804227D01*
X102864024Y-100486617D01*
X102900500Y-100162889D01*
X102900500Y-99837111D01*
X102867023Y-99539999D01*
X109874341Y-99539999D01*
X109874341Y-99540000D01*
X109894936Y-99775403D01*
X109894938Y-99775413D01*
X109956094Y-100003655D01*
X109956096Y-100003659D01*
X109956097Y-100003663D01*
X110036004Y-100175023D01*
X110055965Y-100217830D01*
X110055967Y-100217834D01*
X110164281Y-100372521D01*
X110191505Y-100411401D01*
X110358599Y-100578495D01*
X110544594Y-100708730D01*
X110588218Y-100763307D01*
X110595411Y-100832806D01*
X110563889Y-100895160D01*
X110544593Y-100911880D01*
X110468626Y-100965072D01*
X110468625Y-100965072D01*
X111100590Y-101597037D01*
X111037007Y-101614075D01*
X110922993Y-101679901D01*
X110829901Y-101772993D01*
X110764075Y-101887007D01*
X110747037Y-101950589D01*
X110115073Y-101318625D01*
X110115072Y-101318625D01*
X110056401Y-101402419D01*
X109956570Y-101616507D01*
X109956566Y-101616516D01*
X109895432Y-101844673D01*
X109895430Y-101844684D01*
X109874843Y-102079998D01*
X109874843Y-102080001D01*
X109895430Y-102315315D01*
X109895432Y-102315326D01*
X109956566Y-102543483D01*
X109956570Y-102543492D01*
X110056400Y-102757579D01*
X110056402Y-102757583D01*
X110115072Y-102841373D01*
X110115073Y-102841373D01*
X110747037Y-102209409D01*
X110764075Y-102272993D01*
X110829901Y-102387007D01*
X110922993Y-102480099D01*
X111037007Y-102545925D01*
X111100590Y-102562962D01*
X110468625Y-103194925D01*
X110552421Y-103253599D01*
X110766507Y-103353429D01*
X110766516Y-103353433D01*
X110994673Y-103414567D01*
X110994684Y-103414569D01*
X111229998Y-103435157D01*
X111230002Y-103435157D01*
X111465315Y-103414569D01*
X111465326Y-103414567D01*
X111693483Y-103353433D01*
X111693492Y-103353429D01*
X111907578Y-103253600D01*
X111907582Y-103253598D01*
X111991373Y-103194926D01*
X111991373Y-103194925D01*
X111359409Y-102562962D01*
X111422993Y-102545925D01*
X111537007Y-102480099D01*
X111630099Y-102387007D01*
X111695925Y-102272993D01*
X111712962Y-102209410D01*
X112344925Y-102841373D01*
X112398425Y-102764968D01*
X112453002Y-102721344D01*
X112522501Y-102714151D01*
X112584855Y-102745673D01*
X112601576Y-102764969D01*
X112655073Y-102841372D01*
X113287037Y-102209409D01*
X113304075Y-102272993D01*
X113369901Y-102387007D01*
X113462993Y-102480099D01*
X113577007Y-102545925D01*
X113640590Y-102562962D01*
X113008625Y-103194925D01*
X113092421Y-103253599D01*
X113306507Y-103353429D01*
X113306516Y-103353433D01*
X113534673Y-103414567D01*
X113534684Y-103414569D01*
X113769998Y-103435157D01*
X113770002Y-103435157D01*
X114005315Y-103414569D01*
X114005326Y-103414567D01*
X114233483Y-103353433D01*
X114233492Y-103353429D01*
X114447578Y-103253600D01*
X114447582Y-103253598D01*
X114531373Y-103194926D01*
X114531373Y-103194925D01*
X113899409Y-102562962D01*
X113962993Y-102545925D01*
X114077007Y-102480099D01*
X114170099Y-102387007D01*
X114235925Y-102272993D01*
X114252962Y-102209410D01*
X114884925Y-102841373D01*
X114884926Y-102841373D01*
X114943598Y-102757582D01*
X114943600Y-102757578D01*
X115043429Y-102543492D01*
X115043433Y-102543483D01*
X115104567Y-102315326D01*
X115104569Y-102315315D01*
X115125157Y-102080001D01*
X115125157Y-102079998D01*
X115104569Y-101844684D01*
X115104567Y-101844673D01*
X115043433Y-101616516D01*
X115043429Y-101616507D01*
X114943600Y-101402423D01*
X114943599Y-101402421D01*
X114884925Y-101318626D01*
X114884925Y-101318625D01*
X114252962Y-101950589D01*
X114235925Y-101887007D01*
X114170099Y-101772993D01*
X114077007Y-101679901D01*
X113962993Y-101614075D01*
X113899410Y-101597037D01*
X114531373Y-100965073D01*
X114531373Y-100965072D01*
X114455405Y-100911880D01*
X114411780Y-100857304D01*
X114404586Y-100787805D01*
X114436108Y-100725451D01*
X114455399Y-100708734D01*
X114641401Y-100578495D01*
X114808495Y-100411401D01*
X114944035Y-100217830D01*
X115043903Y-100003663D01*
X115088531Y-99837106D01*
X122099500Y-99837106D01*
X122099500Y-100162893D01*
X122135974Y-100486604D01*
X122135976Y-100486620D01*
X122208467Y-100804226D01*
X122208471Y-100804238D01*
X122316066Y-101111725D01*
X122457413Y-101405234D01*
X122457415Y-101405237D01*
X122630739Y-101681081D01*
X122833857Y-101935783D01*
X123064217Y-102166143D01*
X123318919Y-102369261D01*
X123594763Y-102542585D01*
X123594765Y-102542586D01*
X123672456Y-102580000D01*
X123888278Y-102683935D01*
X124098738Y-102757578D01*
X124195761Y-102791528D01*
X124195773Y-102791532D01*
X124513383Y-102864024D01*
X124837106Y-102900499D01*
X124837107Y-102900500D01*
X124837111Y-102900500D01*
X125162893Y-102900500D01*
X125162893Y-102900499D01*
X125486617Y-102864024D01*
X125804227Y-102791532D01*
X126111722Y-102683935D01*
X126405237Y-102542585D01*
X126681081Y-102369261D01*
X126935783Y-102166143D01*
X127166143Y-101935783D01*
X127369261Y-101681081D01*
X127542585Y-101405237D01*
X127683935Y-101111722D01*
X127791532Y-100804227D01*
X127864024Y-100486617D01*
X127900500Y-100162889D01*
X127900500Y-99837111D01*
X127864024Y-99513383D01*
X127791532Y-99195773D01*
X127683935Y-98888278D01*
X127542585Y-98594763D01*
X127369261Y-98318919D01*
X127166143Y-98064217D01*
X126935783Y-97833857D01*
X126926517Y-97826468D01*
X126740131Y-97677830D01*
X126681081Y-97630739D01*
X126405237Y-97457415D01*
X126405234Y-97457413D01*
X126111725Y-97316066D01*
X125804238Y-97208471D01*
X125804226Y-97208467D01*
X125486620Y-97135976D01*
X125486604Y-97135974D01*
X125162893Y-97099500D01*
X125162889Y-97099500D01*
X124837111Y-97099500D01*
X124837107Y-97099500D01*
X124513395Y-97135974D01*
X124513379Y-97135976D01*
X124195773Y-97208467D01*
X124195761Y-97208471D01*
X123888274Y-97316066D01*
X123594765Y-97457413D01*
X123318920Y-97630738D01*
X123064217Y-97833856D01*
X122833856Y-98064217D01*
X122630738Y-98318920D01*
X122457413Y-98594765D01*
X122316066Y-98888274D01*
X122208471Y-99195761D01*
X122208467Y-99195773D01*
X122135976Y-99513379D01*
X122135974Y-99513395D01*
X122099500Y-99837106D01*
X115088531Y-99837106D01*
X115105063Y-99775408D01*
X115125659Y-99540000D01*
X115105063Y-99304592D01*
X115043903Y-99076337D01*
X114944035Y-98862171D01*
X114938425Y-98854158D01*
X114808494Y-98668597D01*
X114641402Y-98501506D01*
X114641396Y-98501501D01*
X114455842Y-98371575D01*
X114412217Y-98316998D01*
X114405023Y-98247500D01*
X114436546Y-98185145D01*
X114455842Y-98168425D01*
X114598325Y-98068657D01*
X114641401Y-98038495D01*
X114808495Y-97871401D01*
X114944035Y-97677830D01*
X115043903Y-97463663D01*
X115105063Y-97235408D01*
X115125659Y-97000000D01*
X115105063Y-96764592D01*
X115043903Y-96536337D01*
X114944035Y-96322171D01*
X114811527Y-96132928D01*
X114808494Y-96128597D01*
X114641402Y-95961506D01*
X114641395Y-95961501D01*
X114447834Y-95825967D01*
X114447830Y-95825965D01*
X114407777Y-95807288D01*
X114233663Y-95726097D01*
X114233659Y-95726096D01*
X114233655Y-95726094D01*
X114005413Y-95664938D01*
X114005403Y-95664936D01*
X113770001Y-95644341D01*
X113769999Y-95644341D01*
X113534596Y-95664936D01*
X113534586Y-95664938D01*
X113306344Y-95726094D01*
X113306335Y-95726098D01*
X113092171Y-95825964D01*
X113092169Y-95825965D01*
X112898597Y-95961505D01*
X112731503Y-96128599D01*
X112730349Y-96129975D01*
X112729688Y-96130414D01*
X112727676Y-96132427D01*
X112727271Y-96132022D01*
X112672173Y-96168671D01*
X112602312Y-96169772D01*
X112542946Y-96132928D01*
X112517663Y-96089265D01*
X112514814Y-96080666D01*
X112422712Y-95931344D01*
X112298656Y-95807288D01*
X112205888Y-95750069D01*
X112149336Y-95715187D01*
X112149331Y-95715185D01*
X112147862Y-95714698D01*
X111982797Y-95660001D01*
X111982795Y-95660000D01*
X111880010Y-95649500D01*
X110579998Y-95649500D01*
X110579981Y-95649501D01*
X110477203Y-95660000D01*
X110477200Y-95660001D01*
X110310668Y-95715185D01*
X110310663Y-95715187D01*
X110161342Y-95807289D01*
X110037289Y-95931342D01*
X109945187Y-96080663D01*
X109945185Y-96080668D01*
X109928701Y-96130414D01*
X109890001Y-96247203D01*
X109890001Y-96247204D01*
X109890000Y-96247204D01*
X109879500Y-96349983D01*
X109879500Y-97650001D01*
X109879501Y-97650018D01*
X109890000Y-97752796D01*
X109890001Y-97752799D01*
X109929303Y-97871402D01*
X109945186Y-97919334D01*
X110037288Y-98068656D01*
X110161344Y-98192712D01*
X110310666Y-98284814D01*
X110319264Y-98287663D01*
X110376707Y-98327433D01*
X110403531Y-98391948D01*
X110391217Y-98460724D01*
X110362234Y-98497483D01*
X110362427Y-98497676D01*
X110360798Y-98499304D01*
X110359975Y-98500349D01*
X110358599Y-98501503D01*
X110191505Y-98668597D01*
X110055965Y-98862169D01*
X110055964Y-98862171D01*
X109956098Y-99076335D01*
X109956094Y-99076344D01*
X109894938Y-99304586D01*
X109894936Y-99304596D01*
X109874341Y-99539999D01*
X102867023Y-99539999D01*
X102864024Y-99513383D01*
X102791532Y-99195773D01*
X102683935Y-98888278D01*
X102542585Y-98594763D01*
X102369261Y-98318919D01*
X102166143Y-98064217D01*
X101935783Y-97833857D01*
X101926517Y-97826468D01*
X101740131Y-97677830D01*
X101681081Y-97630739D01*
X101405237Y-97457415D01*
X101405234Y-97457413D01*
X101111725Y-97316066D01*
X100804238Y-97208471D01*
X100804226Y-97208467D01*
X100486620Y-97135976D01*
X100486604Y-97135974D01*
X100162893Y-97099500D01*
X100162889Y-97099500D01*
X99837111Y-97099500D01*
X99837107Y-97099500D01*
X99513395Y-97135974D01*
X99513379Y-97135976D01*
X99195773Y-97208467D01*
X99195761Y-97208471D01*
X98888274Y-97316066D01*
X98594765Y-97457413D01*
X98318920Y-97630738D01*
X98064217Y-97833856D01*
X97833856Y-98064217D01*
X97630738Y-98318920D01*
X97457413Y-98594765D01*
X97316066Y-98888274D01*
X97208471Y-99195761D01*
X97208467Y-99195773D01*
X97135976Y-99513379D01*
X97135974Y-99513395D01*
X97099500Y-99837106D01*
X90500500Y-99837106D01*
X90500500Y-92004427D01*
X90500816Y-91995581D01*
X90515130Y-91795443D01*
X90515131Y-91795442D01*
X90515130Y-91795436D01*
X90517646Y-91777938D01*
X90559356Y-91586199D01*
X90564333Y-91569248D01*
X90632911Y-91385385D01*
X90640259Y-91369298D01*
X90702815Y-91254734D01*
X90734291Y-91197089D01*
X90743845Y-91182221D01*
X90861448Y-91025123D01*
X90873020Y-91011769D01*
X91011769Y-90873020D01*
X91025123Y-90861448D01*
X91182221Y-90743845D01*
X91197089Y-90734291D01*
X91369298Y-90640258D01*
X91385385Y-90632911D01*
X91569248Y-90564333D01*
X91586199Y-90559356D01*
X91777938Y-90517646D01*
X91795436Y-90515130D01*
X91995582Y-90500816D01*
X92004428Y-90500500D01*
X92065892Y-90500500D01*
X132934108Y-90500500D01*
X132995572Y-90500500D01*
X133004418Y-90500816D01*
G37*
%TD.AperFunction*%
%TD*%
M02*
