G04 #@! TF.GenerationSoftware,KiCad,Pcbnew,8.0.5*
G04 #@! TF.CreationDate,2024-09-14T16:23:26+01:00*
G04 #@! TF.ProjectId,RS485Board,52533438-3542-46f6-9172-642e6b696361,rev?*
G04 #@! TF.SameCoordinates,Original*
G04 #@! TF.FileFunction,Legend,Top*
G04 #@! TF.FilePolarity,Positive*
%FSLAX46Y46*%
G04 Gerber Fmt 4.6, Leading zero omitted, Abs format (unit mm)*
G04 Created by KiCad (PCBNEW 8.0.5) date 2024-09-14 16:23:26*
%MOMM*%
%LPD*%
G01*
G04 APERTURE LIST*
G04 Aperture macros list*
%AMRoundRect*
0 Rectangle with rounded corners*
0 $1 Rounding radius*
0 $2 $3 $4 $5 $6 $7 $8 $9 X,Y pos of 4 corners*
0 Add a 4 corners polygon primitive as box body*
4,1,4,$2,$3,$4,$5,$6,$7,$8,$9,$2,$3,0*
0 Add four circle primitives for the rounded corners*
1,1,$1+$1,$2,$3*
1,1,$1+$1,$4,$5*
1,1,$1+$1,$6,$7*
1,1,$1+$1,$8,$9*
0 Add four rect primitives between the rounded corners*
20,1,$1+$1,$2,$3,$4,$5,0*
20,1,$1+$1,$4,$5,$6,$7,0*
20,1,$1+$1,$6,$7,$8,$9,0*
20,1,$1+$1,$8,$9,$2,$3,0*%
G04 Aperture macros list end*
%ADD10C,0.150000*%
%ADD11C,0.170688*%
%ADD12C,0.500000*%
%ADD13C,0.120000*%
%ADD14C,5.300000*%
%ADD15RoundRect,0.250000X-0.600000X-0.600000X0.600000X-0.600000X0.600000X0.600000X-0.600000X0.600000X0*%
%ADD16C,1.700000*%
%ADD17R,3.500000X3.500000*%
%ADD18RoundRect,0.750000X-0.750000X-1.000000X0.750000X-1.000000X0.750000X1.000000X-0.750000X1.000000X0*%
%ADD19RoundRect,0.875000X-0.875000X-0.875000X0.875000X-0.875000X0.875000X0.875000X-0.875000X0.875000X0*%
%ADD20RoundRect,0.250000X0.600000X0.600000X-0.600000X0.600000X-0.600000X-0.600000X0.600000X-0.600000X0*%
G04 APERTURE END LIST*
D10*
X91925000Y-119000000D02*
X91925000Y-118500000D01*
X109250000Y-114500000D02*
X109250000Y-110500000D01*
X91925000Y-125000000D02*
X91425000Y-125000000D01*
X111250000Y-114500000D02*
X109250000Y-114500000D01*
X114750000Y-110500000D02*
X114750000Y-114500000D01*
X114750000Y-114500000D02*
X112750000Y-114500000D01*
X109250000Y-110500000D02*
X114750000Y-110500000D01*
X91925000Y-125000000D02*
X92425000Y-125000000D01*
X91925000Y-119000000D02*
X91925000Y-119500000D01*
X91925000Y-125000000D02*
X91925000Y-125500000D01*
X91925000Y-125000000D02*
X91925000Y-124500000D01*
X110039160Y-111355113D02*
X110086779Y-111307494D01*
X110086779Y-111307494D02*
X110182017Y-111259875D01*
X110182017Y-111259875D02*
X110420112Y-111259875D01*
X110420112Y-111259875D02*
X110515350Y-111307494D01*
X110515350Y-111307494D02*
X110562969Y-111355113D01*
X110562969Y-111355113D02*
X110610588Y-111450351D01*
X110610588Y-111450351D02*
X110610588Y-111545589D01*
X110610588Y-111545589D02*
X110562969Y-111688446D01*
X110562969Y-111688446D02*
X109991541Y-112259875D01*
X109991541Y-112259875D02*
X110610588Y-112259875D01*
X112229636Y-111593208D02*
X112229636Y-112259875D01*
X111991541Y-111212256D02*
X111753446Y-111926541D01*
X111753446Y-111926541D02*
X112372493Y-111926541D01*
X113943922Y-111259875D02*
X113753446Y-111259875D01*
X113753446Y-111259875D02*
X113658208Y-111307494D01*
X113658208Y-111307494D02*
X113610589Y-111355113D01*
X113610589Y-111355113D02*
X113515351Y-111497970D01*
X113515351Y-111497970D02*
X113467732Y-111688446D01*
X113467732Y-111688446D02*
X113467732Y-112069398D01*
X113467732Y-112069398D02*
X113515351Y-112164636D01*
X113515351Y-112164636D02*
X113562970Y-112212256D01*
X113562970Y-112212256D02*
X113658208Y-112259875D01*
X113658208Y-112259875D02*
X113848684Y-112259875D01*
X113848684Y-112259875D02*
X113943922Y-112212256D01*
X113943922Y-112212256D02*
X113991541Y-112164636D01*
X113991541Y-112164636D02*
X114039160Y-112069398D01*
X114039160Y-112069398D02*
X114039160Y-111831303D01*
X114039160Y-111831303D02*
X113991541Y-111736065D01*
X113991541Y-111736065D02*
X113943922Y-111688446D01*
X113943922Y-111688446D02*
X113848684Y-111640827D01*
X113848684Y-111640827D02*
X113658208Y-111640827D01*
X113658208Y-111640827D02*
X113562970Y-111688446D01*
X113562970Y-111688446D02*
X113515351Y-111736065D01*
X113515351Y-111736065D02*
X113467732Y-111831303D01*
X110610588Y-113869819D02*
X110039160Y-113869819D01*
X110324874Y-113869819D02*
X110324874Y-112869819D01*
X110324874Y-112869819D02*
X110229636Y-113012676D01*
X110229636Y-113012676D02*
X110134398Y-113107914D01*
X110134398Y-113107914D02*
X110039160Y-113155533D01*
X111705827Y-112869819D02*
X112324874Y-112869819D01*
X112324874Y-112869819D02*
X111991541Y-113250771D01*
X111991541Y-113250771D02*
X112134398Y-113250771D01*
X112134398Y-113250771D02*
X112229636Y-113298390D01*
X112229636Y-113298390D02*
X112277255Y-113346009D01*
X112277255Y-113346009D02*
X112324874Y-113441247D01*
X112324874Y-113441247D02*
X112324874Y-113679342D01*
X112324874Y-113679342D02*
X112277255Y-113774580D01*
X112277255Y-113774580D02*
X112229636Y-113822200D01*
X112229636Y-113822200D02*
X112134398Y-113869819D01*
X112134398Y-113869819D02*
X111848684Y-113869819D01*
X111848684Y-113869819D02*
X111753446Y-113822200D01*
X111753446Y-113822200D02*
X111705827Y-113774580D01*
X113991541Y-112869819D02*
X113515351Y-112869819D01*
X113515351Y-112869819D02*
X113467732Y-113346009D01*
X113467732Y-113346009D02*
X113515351Y-113298390D01*
X113515351Y-113298390D02*
X113610589Y-113250771D01*
X113610589Y-113250771D02*
X113848684Y-113250771D01*
X113848684Y-113250771D02*
X113943922Y-113298390D01*
X113943922Y-113298390D02*
X113991541Y-113346009D01*
X113991541Y-113346009D02*
X114039160Y-113441247D01*
X114039160Y-113441247D02*
X114039160Y-113679342D01*
X114039160Y-113679342D02*
X113991541Y-113774580D01*
X113991541Y-113774580D02*
X113943922Y-113822200D01*
X113943922Y-113822200D02*
X113848684Y-113869819D01*
X113848684Y-113869819D02*
X113610589Y-113869819D01*
X113610589Y-113869819D02*
X113515351Y-113822200D01*
X113515351Y-113822200D02*
X113467732Y-113774580D01*
X119908207Y-108210155D02*
X119574874Y-107733964D01*
X119336779Y-108210155D02*
X119336779Y-107210155D01*
X119336779Y-107210155D02*
X119717731Y-107210155D01*
X119717731Y-107210155D02*
X119812969Y-107257774D01*
X119812969Y-107257774D02*
X119860588Y-107305393D01*
X119860588Y-107305393D02*
X119908207Y-107400631D01*
X119908207Y-107400631D02*
X119908207Y-107543488D01*
X119908207Y-107543488D02*
X119860588Y-107638726D01*
X119860588Y-107638726D02*
X119812969Y-107686345D01*
X119812969Y-107686345D02*
X119717731Y-107733964D01*
X119717731Y-107733964D02*
X119336779Y-107733964D01*
X120289160Y-108162536D02*
X120432017Y-108210155D01*
X120432017Y-108210155D02*
X120670112Y-108210155D01*
X120670112Y-108210155D02*
X120765350Y-108162536D01*
X120765350Y-108162536D02*
X120812969Y-108114916D01*
X120812969Y-108114916D02*
X120860588Y-108019678D01*
X120860588Y-108019678D02*
X120860588Y-107924440D01*
X120860588Y-107924440D02*
X120812969Y-107829202D01*
X120812969Y-107829202D02*
X120765350Y-107781583D01*
X120765350Y-107781583D02*
X120670112Y-107733964D01*
X120670112Y-107733964D02*
X120479636Y-107686345D01*
X120479636Y-107686345D02*
X120384398Y-107638726D01*
X120384398Y-107638726D02*
X120336779Y-107591107D01*
X120336779Y-107591107D02*
X120289160Y-107495869D01*
X120289160Y-107495869D02*
X120289160Y-107400631D01*
X120289160Y-107400631D02*
X120336779Y-107305393D01*
X120336779Y-107305393D02*
X120384398Y-107257774D01*
X120384398Y-107257774D02*
X120479636Y-107210155D01*
X120479636Y-107210155D02*
X120717731Y-107210155D01*
X120717731Y-107210155D02*
X120860588Y-107257774D01*
X121717731Y-107543488D02*
X121717731Y-108210155D01*
X121479636Y-107162536D02*
X121241541Y-107876821D01*
X121241541Y-107876821D02*
X121860588Y-107876821D01*
X122384398Y-107638726D02*
X122289160Y-107591107D01*
X122289160Y-107591107D02*
X122241541Y-107543488D01*
X122241541Y-107543488D02*
X122193922Y-107448250D01*
X122193922Y-107448250D02*
X122193922Y-107400631D01*
X122193922Y-107400631D02*
X122241541Y-107305393D01*
X122241541Y-107305393D02*
X122289160Y-107257774D01*
X122289160Y-107257774D02*
X122384398Y-107210155D01*
X122384398Y-107210155D02*
X122574874Y-107210155D01*
X122574874Y-107210155D02*
X122670112Y-107257774D01*
X122670112Y-107257774D02*
X122717731Y-107305393D01*
X122717731Y-107305393D02*
X122765350Y-107400631D01*
X122765350Y-107400631D02*
X122765350Y-107448250D01*
X122765350Y-107448250D02*
X122717731Y-107543488D01*
X122717731Y-107543488D02*
X122670112Y-107591107D01*
X122670112Y-107591107D02*
X122574874Y-107638726D01*
X122574874Y-107638726D02*
X122384398Y-107638726D01*
X122384398Y-107638726D02*
X122289160Y-107686345D01*
X122289160Y-107686345D02*
X122241541Y-107733964D01*
X122241541Y-107733964D02*
X122193922Y-107829202D01*
X122193922Y-107829202D02*
X122193922Y-108019678D01*
X122193922Y-108019678D02*
X122241541Y-108114916D01*
X122241541Y-108114916D02*
X122289160Y-108162536D01*
X122289160Y-108162536D02*
X122384398Y-108210155D01*
X122384398Y-108210155D02*
X122574874Y-108210155D01*
X122574874Y-108210155D02*
X122670112Y-108162536D01*
X122670112Y-108162536D02*
X122717731Y-108114916D01*
X122717731Y-108114916D02*
X122765350Y-108019678D01*
X122765350Y-108019678D02*
X122765350Y-107829202D01*
X122765350Y-107829202D02*
X122717731Y-107733964D01*
X122717731Y-107733964D02*
X122670112Y-107686345D01*
X122670112Y-107686345D02*
X122574874Y-107638726D01*
X123670112Y-107210155D02*
X123193922Y-107210155D01*
X123193922Y-107210155D02*
X123146303Y-107686345D01*
X123146303Y-107686345D02*
X123193922Y-107638726D01*
X123193922Y-107638726D02*
X123289160Y-107591107D01*
X123289160Y-107591107D02*
X123527255Y-107591107D01*
X123527255Y-107591107D02*
X123622493Y-107638726D01*
X123622493Y-107638726D02*
X123670112Y-107686345D01*
X123670112Y-107686345D02*
X123717731Y-107781583D01*
X123717731Y-107781583D02*
X123717731Y-108019678D01*
X123717731Y-108019678D02*
X123670112Y-108114916D01*
X123670112Y-108114916D02*
X123622493Y-108162536D01*
X123622493Y-108162536D02*
X123527255Y-108210155D01*
X123527255Y-108210155D02*
X123289160Y-108210155D01*
X123289160Y-108210155D02*
X123193922Y-108162536D01*
X123193922Y-108162536D02*
X123146303Y-108114916D01*
X124765351Y-107543488D02*
X125146303Y-107543488D01*
X124908208Y-107210155D02*
X124908208Y-108067297D01*
X124908208Y-108067297D02*
X124955827Y-108162536D01*
X124955827Y-108162536D02*
X125051065Y-108210155D01*
X125051065Y-108210155D02*
X125146303Y-108210155D01*
X125860589Y-108162536D02*
X125765351Y-108210155D01*
X125765351Y-108210155D02*
X125574875Y-108210155D01*
X125574875Y-108210155D02*
X125479637Y-108162536D01*
X125479637Y-108162536D02*
X125432018Y-108067297D01*
X125432018Y-108067297D02*
X125432018Y-107686345D01*
X125432018Y-107686345D02*
X125479637Y-107591107D01*
X125479637Y-107591107D02*
X125574875Y-107543488D01*
X125574875Y-107543488D02*
X125765351Y-107543488D01*
X125765351Y-107543488D02*
X125860589Y-107591107D01*
X125860589Y-107591107D02*
X125908208Y-107686345D01*
X125908208Y-107686345D02*
X125908208Y-107781583D01*
X125908208Y-107781583D02*
X125432018Y-107876821D01*
X126336780Y-108210155D02*
X126336780Y-107543488D01*
X126336780Y-107733964D02*
X126384399Y-107638726D01*
X126384399Y-107638726D02*
X126432018Y-107591107D01*
X126432018Y-107591107D02*
X126527256Y-107543488D01*
X126527256Y-107543488D02*
X126622494Y-107543488D01*
X126955828Y-108210155D02*
X126955828Y-107543488D01*
X126955828Y-107638726D02*
X127003447Y-107591107D01*
X127003447Y-107591107D02*
X127098685Y-107543488D01*
X127098685Y-107543488D02*
X127241542Y-107543488D01*
X127241542Y-107543488D02*
X127336780Y-107591107D01*
X127336780Y-107591107D02*
X127384399Y-107686345D01*
X127384399Y-107686345D02*
X127384399Y-108210155D01*
X127384399Y-107686345D02*
X127432018Y-107591107D01*
X127432018Y-107591107D02*
X127527256Y-107543488D01*
X127527256Y-107543488D02*
X127670113Y-107543488D01*
X127670113Y-107543488D02*
X127765352Y-107591107D01*
X127765352Y-107591107D02*
X127812971Y-107686345D01*
X127812971Y-107686345D02*
X127812971Y-108210155D01*
X128289161Y-108210155D02*
X128289161Y-107543488D01*
X128289161Y-107210155D02*
X128241542Y-107257774D01*
X128241542Y-107257774D02*
X128289161Y-107305393D01*
X128289161Y-107305393D02*
X128336780Y-107257774D01*
X128336780Y-107257774D02*
X128289161Y-107210155D01*
X128289161Y-107210155D02*
X128289161Y-107305393D01*
X128765351Y-107543488D02*
X128765351Y-108210155D01*
X128765351Y-107638726D02*
X128812970Y-107591107D01*
X128812970Y-107591107D02*
X128908208Y-107543488D01*
X128908208Y-107543488D02*
X129051065Y-107543488D01*
X129051065Y-107543488D02*
X129146303Y-107591107D01*
X129146303Y-107591107D02*
X129193922Y-107686345D01*
X129193922Y-107686345D02*
X129193922Y-108210155D01*
X130098684Y-108210155D02*
X130098684Y-107686345D01*
X130098684Y-107686345D02*
X130051065Y-107591107D01*
X130051065Y-107591107D02*
X129955827Y-107543488D01*
X129955827Y-107543488D02*
X129765351Y-107543488D01*
X129765351Y-107543488D02*
X129670113Y-107591107D01*
X130098684Y-108162536D02*
X130003446Y-108210155D01*
X130003446Y-108210155D02*
X129765351Y-108210155D01*
X129765351Y-108210155D02*
X129670113Y-108162536D01*
X129670113Y-108162536D02*
X129622494Y-108067297D01*
X129622494Y-108067297D02*
X129622494Y-107972059D01*
X129622494Y-107972059D02*
X129670113Y-107876821D01*
X129670113Y-107876821D02*
X129765351Y-107829202D01*
X129765351Y-107829202D02*
X130003446Y-107829202D01*
X130003446Y-107829202D02*
X130098684Y-107781583D01*
X130432018Y-107543488D02*
X130812970Y-107543488D01*
X130574875Y-107210155D02*
X130574875Y-108067297D01*
X130574875Y-108067297D02*
X130622494Y-108162536D01*
X130622494Y-108162536D02*
X130717732Y-108210155D01*
X130717732Y-108210155D02*
X130812970Y-108210155D01*
X131146304Y-108210155D02*
X131146304Y-107543488D01*
X131146304Y-107210155D02*
X131098685Y-107257774D01*
X131098685Y-107257774D02*
X131146304Y-107305393D01*
X131146304Y-107305393D02*
X131193923Y-107257774D01*
X131193923Y-107257774D02*
X131146304Y-107210155D01*
X131146304Y-107210155D02*
X131146304Y-107305393D01*
X131765351Y-108210155D02*
X131670113Y-108162536D01*
X131670113Y-108162536D02*
X131622494Y-108114916D01*
X131622494Y-108114916D02*
X131574875Y-108019678D01*
X131574875Y-108019678D02*
X131574875Y-107733964D01*
X131574875Y-107733964D02*
X131622494Y-107638726D01*
X131622494Y-107638726D02*
X131670113Y-107591107D01*
X131670113Y-107591107D02*
X131765351Y-107543488D01*
X131765351Y-107543488D02*
X131908208Y-107543488D01*
X131908208Y-107543488D02*
X132003446Y-107591107D01*
X132003446Y-107591107D02*
X132051065Y-107638726D01*
X132051065Y-107638726D02*
X132098684Y-107733964D01*
X132098684Y-107733964D02*
X132098684Y-108019678D01*
X132098684Y-108019678D02*
X132051065Y-108114916D01*
X132051065Y-108114916D02*
X132003446Y-108162536D01*
X132003446Y-108162536D02*
X131908208Y-108210155D01*
X131908208Y-108210155D02*
X131765351Y-108210155D01*
X132527256Y-107543488D02*
X132527256Y-108210155D01*
X132527256Y-107638726D02*
X132574875Y-107591107D01*
X132574875Y-107591107D02*
X132670113Y-107543488D01*
X132670113Y-107543488D02*
X132812970Y-107543488D01*
X132812970Y-107543488D02*
X132908208Y-107591107D01*
X132908208Y-107591107D02*
X132955827Y-107686345D01*
X132955827Y-107686345D02*
X132955827Y-108210155D01*
X119765350Y-109820099D02*
X119765350Y-109296289D01*
X119765350Y-109296289D02*
X119717731Y-109201051D01*
X119717731Y-109201051D02*
X119622493Y-109153432D01*
X119622493Y-109153432D02*
X119432017Y-109153432D01*
X119432017Y-109153432D02*
X119336779Y-109201051D01*
X119765350Y-109772480D02*
X119670112Y-109820099D01*
X119670112Y-109820099D02*
X119432017Y-109820099D01*
X119432017Y-109820099D02*
X119336779Y-109772480D01*
X119336779Y-109772480D02*
X119289160Y-109677241D01*
X119289160Y-109677241D02*
X119289160Y-109582003D01*
X119289160Y-109582003D02*
X119336779Y-109486765D01*
X119336779Y-109486765D02*
X119432017Y-109439146D01*
X119432017Y-109439146D02*
X119670112Y-109439146D01*
X119670112Y-109439146D02*
X119765350Y-109391527D01*
X120241541Y-109153432D02*
X120241541Y-109820099D01*
X120241541Y-109248670D02*
X120289160Y-109201051D01*
X120289160Y-109201051D02*
X120384398Y-109153432D01*
X120384398Y-109153432D02*
X120527255Y-109153432D01*
X120527255Y-109153432D02*
X120622493Y-109201051D01*
X120622493Y-109201051D02*
X120670112Y-109296289D01*
X120670112Y-109296289D02*
X120670112Y-109820099D01*
X121574874Y-109820099D02*
X121574874Y-108820099D01*
X121574874Y-109772480D02*
X121479636Y-109820099D01*
X121479636Y-109820099D02*
X121289160Y-109820099D01*
X121289160Y-109820099D02*
X121193922Y-109772480D01*
X121193922Y-109772480D02*
X121146303Y-109724860D01*
X121146303Y-109724860D02*
X121098684Y-109629622D01*
X121098684Y-109629622D02*
X121098684Y-109343908D01*
X121098684Y-109343908D02*
X121146303Y-109248670D01*
X121146303Y-109248670D02*
X121193922Y-109201051D01*
X121193922Y-109201051D02*
X121289160Y-109153432D01*
X121289160Y-109153432D02*
X121479636Y-109153432D01*
X121479636Y-109153432D02*
X121574874Y-109201051D01*
X122812970Y-109153432D02*
X122812970Y-110153432D01*
X122812970Y-109201051D02*
X122908208Y-109153432D01*
X122908208Y-109153432D02*
X123098684Y-109153432D01*
X123098684Y-109153432D02*
X123193922Y-109201051D01*
X123193922Y-109201051D02*
X123241541Y-109248670D01*
X123241541Y-109248670D02*
X123289160Y-109343908D01*
X123289160Y-109343908D02*
X123289160Y-109629622D01*
X123289160Y-109629622D02*
X123241541Y-109724860D01*
X123241541Y-109724860D02*
X123193922Y-109772480D01*
X123193922Y-109772480D02*
X123098684Y-109820099D01*
X123098684Y-109820099D02*
X122908208Y-109820099D01*
X122908208Y-109820099D02*
X122812970Y-109772480D01*
X123860589Y-109820099D02*
X123765351Y-109772480D01*
X123765351Y-109772480D02*
X123717732Y-109724860D01*
X123717732Y-109724860D02*
X123670113Y-109629622D01*
X123670113Y-109629622D02*
X123670113Y-109343908D01*
X123670113Y-109343908D02*
X123717732Y-109248670D01*
X123717732Y-109248670D02*
X123765351Y-109201051D01*
X123765351Y-109201051D02*
X123860589Y-109153432D01*
X123860589Y-109153432D02*
X124003446Y-109153432D01*
X124003446Y-109153432D02*
X124098684Y-109201051D01*
X124098684Y-109201051D02*
X124146303Y-109248670D01*
X124146303Y-109248670D02*
X124193922Y-109343908D01*
X124193922Y-109343908D02*
X124193922Y-109629622D01*
X124193922Y-109629622D02*
X124146303Y-109724860D01*
X124146303Y-109724860D02*
X124098684Y-109772480D01*
X124098684Y-109772480D02*
X124003446Y-109820099D01*
X124003446Y-109820099D02*
X123860589Y-109820099D01*
X124527256Y-109153432D02*
X124717732Y-109820099D01*
X124717732Y-109820099D02*
X124908208Y-109343908D01*
X124908208Y-109343908D02*
X125098684Y-109820099D01*
X125098684Y-109820099D02*
X125289160Y-109153432D01*
X126051065Y-109772480D02*
X125955827Y-109820099D01*
X125955827Y-109820099D02*
X125765351Y-109820099D01*
X125765351Y-109820099D02*
X125670113Y-109772480D01*
X125670113Y-109772480D02*
X125622494Y-109677241D01*
X125622494Y-109677241D02*
X125622494Y-109296289D01*
X125622494Y-109296289D02*
X125670113Y-109201051D01*
X125670113Y-109201051D02*
X125765351Y-109153432D01*
X125765351Y-109153432D02*
X125955827Y-109153432D01*
X125955827Y-109153432D02*
X126051065Y-109201051D01*
X126051065Y-109201051D02*
X126098684Y-109296289D01*
X126098684Y-109296289D02*
X126098684Y-109391527D01*
X126098684Y-109391527D02*
X125622494Y-109486765D01*
X126527256Y-109820099D02*
X126527256Y-109153432D01*
X126527256Y-109343908D02*
X126574875Y-109248670D01*
X126574875Y-109248670D02*
X126622494Y-109201051D01*
X126622494Y-109201051D02*
X126717732Y-109153432D01*
X126717732Y-109153432D02*
X126812970Y-109153432D01*
X127908209Y-109820099D02*
X127908209Y-108820099D01*
X127908209Y-109201051D02*
X128003447Y-109153432D01*
X128003447Y-109153432D02*
X128193923Y-109153432D01*
X128193923Y-109153432D02*
X128289161Y-109201051D01*
X128289161Y-109201051D02*
X128336780Y-109248670D01*
X128336780Y-109248670D02*
X128384399Y-109343908D01*
X128384399Y-109343908D02*
X128384399Y-109629622D01*
X128384399Y-109629622D02*
X128336780Y-109724860D01*
X128336780Y-109724860D02*
X128289161Y-109772480D01*
X128289161Y-109772480D02*
X128193923Y-109820099D01*
X128193923Y-109820099D02*
X128003447Y-109820099D01*
X128003447Y-109820099D02*
X127908209Y-109772480D01*
X128955828Y-109820099D02*
X128860590Y-109772480D01*
X128860590Y-109772480D02*
X128812971Y-109724860D01*
X128812971Y-109724860D02*
X128765352Y-109629622D01*
X128765352Y-109629622D02*
X128765352Y-109343908D01*
X128765352Y-109343908D02*
X128812971Y-109248670D01*
X128812971Y-109248670D02*
X128860590Y-109201051D01*
X128860590Y-109201051D02*
X128955828Y-109153432D01*
X128955828Y-109153432D02*
X129098685Y-109153432D01*
X129098685Y-109153432D02*
X129193923Y-109201051D01*
X129193923Y-109201051D02*
X129241542Y-109248670D01*
X129241542Y-109248670D02*
X129289161Y-109343908D01*
X129289161Y-109343908D02*
X129289161Y-109629622D01*
X129289161Y-109629622D02*
X129241542Y-109724860D01*
X129241542Y-109724860D02*
X129193923Y-109772480D01*
X129193923Y-109772480D02*
X129098685Y-109820099D01*
X129098685Y-109820099D02*
X128955828Y-109820099D01*
X130146304Y-109820099D02*
X130146304Y-109296289D01*
X130146304Y-109296289D02*
X130098685Y-109201051D01*
X130098685Y-109201051D02*
X130003447Y-109153432D01*
X130003447Y-109153432D02*
X129812971Y-109153432D01*
X129812971Y-109153432D02*
X129717733Y-109201051D01*
X130146304Y-109772480D02*
X130051066Y-109820099D01*
X130051066Y-109820099D02*
X129812971Y-109820099D01*
X129812971Y-109820099D02*
X129717733Y-109772480D01*
X129717733Y-109772480D02*
X129670114Y-109677241D01*
X129670114Y-109677241D02*
X129670114Y-109582003D01*
X129670114Y-109582003D02*
X129717733Y-109486765D01*
X129717733Y-109486765D02*
X129812971Y-109439146D01*
X129812971Y-109439146D02*
X130051066Y-109439146D01*
X130051066Y-109439146D02*
X130146304Y-109391527D01*
X130622495Y-109820099D02*
X130622495Y-109153432D01*
X130622495Y-109343908D02*
X130670114Y-109248670D01*
X130670114Y-109248670D02*
X130717733Y-109201051D01*
X130717733Y-109201051D02*
X130812971Y-109153432D01*
X130812971Y-109153432D02*
X130908209Y-109153432D01*
X131670114Y-109820099D02*
X131670114Y-108820099D01*
X131670114Y-109772480D02*
X131574876Y-109820099D01*
X131574876Y-109820099D02*
X131384400Y-109820099D01*
X131384400Y-109820099D02*
X131289162Y-109772480D01*
X131289162Y-109772480D02*
X131241543Y-109724860D01*
X131241543Y-109724860D02*
X131193924Y-109629622D01*
X131193924Y-109629622D02*
X131193924Y-109343908D01*
X131193924Y-109343908D02*
X131241543Y-109248670D01*
X131241543Y-109248670D02*
X131289162Y-109201051D01*
X131289162Y-109201051D02*
X131384400Y-109153432D01*
X131384400Y-109153432D02*
X131574876Y-109153432D01*
X131574876Y-109153432D02*
X131670114Y-109201051D01*
X119336779Y-111430043D02*
X119336779Y-110430043D01*
X119336779Y-110430043D02*
X119717731Y-110430043D01*
X119717731Y-110430043D02*
X119812969Y-110477662D01*
X119812969Y-110477662D02*
X119860588Y-110525281D01*
X119860588Y-110525281D02*
X119908207Y-110620519D01*
X119908207Y-110620519D02*
X119908207Y-110763376D01*
X119908207Y-110763376D02*
X119860588Y-110858614D01*
X119860588Y-110858614D02*
X119812969Y-110906233D01*
X119812969Y-110906233D02*
X119717731Y-110953852D01*
X119717731Y-110953852D02*
X119336779Y-110953852D01*
X120336779Y-111430043D02*
X120336779Y-110763376D01*
X120336779Y-110430043D02*
X120289160Y-110477662D01*
X120289160Y-110477662D02*
X120336779Y-110525281D01*
X120336779Y-110525281D02*
X120384398Y-110477662D01*
X120384398Y-110477662D02*
X120336779Y-110430043D01*
X120336779Y-110430043D02*
X120336779Y-110525281D01*
X120812969Y-110763376D02*
X120812969Y-111430043D01*
X120812969Y-110858614D02*
X120860588Y-110810995D01*
X120860588Y-110810995D02*
X120955826Y-110763376D01*
X120955826Y-110763376D02*
X121098683Y-110763376D01*
X121098683Y-110763376D02*
X121193921Y-110810995D01*
X121193921Y-110810995D02*
X121241540Y-110906233D01*
X121241540Y-110906233D02*
X121241540Y-111430043D01*
X121860588Y-111430043D02*
X121765350Y-111382424D01*
X121765350Y-111382424D02*
X121717731Y-111334804D01*
X121717731Y-111334804D02*
X121670112Y-111239566D01*
X121670112Y-111239566D02*
X121670112Y-110953852D01*
X121670112Y-110953852D02*
X121717731Y-110858614D01*
X121717731Y-110858614D02*
X121765350Y-110810995D01*
X121765350Y-110810995D02*
X121860588Y-110763376D01*
X121860588Y-110763376D02*
X122003445Y-110763376D01*
X122003445Y-110763376D02*
X122098683Y-110810995D01*
X122098683Y-110810995D02*
X122146302Y-110858614D01*
X122146302Y-110858614D02*
X122193921Y-110953852D01*
X122193921Y-110953852D02*
X122193921Y-111239566D01*
X122193921Y-111239566D02*
X122146302Y-111334804D01*
X122146302Y-111334804D02*
X122098683Y-111382424D01*
X122098683Y-111382424D02*
X122003445Y-111430043D01*
X122003445Y-111430043D02*
X121860588Y-111430043D01*
X123051064Y-110763376D02*
X123051064Y-111430043D01*
X122622493Y-110763376D02*
X122622493Y-111287185D01*
X122622493Y-111287185D02*
X122670112Y-111382424D01*
X122670112Y-111382424D02*
X122765350Y-111430043D01*
X122765350Y-111430043D02*
X122908207Y-111430043D01*
X122908207Y-111430043D02*
X123003445Y-111382424D01*
X123003445Y-111382424D02*
X123051064Y-111334804D01*
X123384398Y-110763376D02*
X123765350Y-110763376D01*
X123527255Y-110430043D02*
X123527255Y-111287185D01*
X123527255Y-111287185D02*
X123574874Y-111382424D01*
X123574874Y-111382424D02*
X123670112Y-111430043D01*
X123670112Y-111430043D02*
X123765350Y-111430043D01*
X124098684Y-111334804D02*
X124146303Y-111382424D01*
X124146303Y-111382424D02*
X124098684Y-111430043D01*
X124098684Y-111430043D02*
X124051065Y-111382424D01*
X124051065Y-111382424D02*
X124098684Y-111334804D01*
X124098684Y-111334804D02*
X124098684Y-111430043D01*
X124098684Y-110810995D02*
X124146303Y-110858614D01*
X124146303Y-110858614D02*
X124098684Y-110906233D01*
X124098684Y-110906233D02*
X124051065Y-110858614D01*
X124051065Y-110858614D02*
X124098684Y-110810995D01*
X124098684Y-110810995D02*
X124098684Y-110906233D01*
X119860588Y-113039987D02*
X119289160Y-113039987D01*
X119574874Y-113039987D02*
X119574874Y-112039987D01*
X119574874Y-112039987D02*
X119479636Y-112182844D01*
X119479636Y-112182844D02*
X119384398Y-112278082D01*
X119384398Y-112278082D02*
X119289160Y-112325701D01*
X121051065Y-112659034D02*
X121812970Y-112659034D01*
X123622493Y-113039987D02*
X123289160Y-112563796D01*
X123051065Y-113039987D02*
X123051065Y-112039987D01*
X123051065Y-112039987D02*
X123432017Y-112039987D01*
X123432017Y-112039987D02*
X123527255Y-112087606D01*
X123527255Y-112087606D02*
X123574874Y-112135225D01*
X123574874Y-112135225D02*
X123622493Y-112230463D01*
X123622493Y-112230463D02*
X123622493Y-112373320D01*
X123622493Y-112373320D02*
X123574874Y-112468558D01*
X123574874Y-112468558D02*
X123527255Y-112516177D01*
X123527255Y-112516177D02*
X123432017Y-112563796D01*
X123432017Y-112563796D02*
X123051065Y-112563796D01*
X124003446Y-112992368D02*
X124146303Y-113039987D01*
X124146303Y-113039987D02*
X124384398Y-113039987D01*
X124384398Y-113039987D02*
X124479636Y-112992368D01*
X124479636Y-112992368D02*
X124527255Y-112944748D01*
X124527255Y-112944748D02*
X124574874Y-112849510D01*
X124574874Y-112849510D02*
X124574874Y-112754272D01*
X124574874Y-112754272D02*
X124527255Y-112659034D01*
X124527255Y-112659034D02*
X124479636Y-112611415D01*
X124479636Y-112611415D02*
X124384398Y-112563796D01*
X124384398Y-112563796D02*
X124193922Y-112516177D01*
X124193922Y-112516177D02*
X124098684Y-112468558D01*
X124098684Y-112468558D02*
X124051065Y-112420939D01*
X124051065Y-112420939D02*
X124003446Y-112325701D01*
X124003446Y-112325701D02*
X124003446Y-112230463D01*
X124003446Y-112230463D02*
X124051065Y-112135225D01*
X124051065Y-112135225D02*
X124098684Y-112087606D01*
X124098684Y-112087606D02*
X124193922Y-112039987D01*
X124193922Y-112039987D02*
X124432017Y-112039987D01*
X124432017Y-112039987D02*
X124574874Y-112087606D01*
X125432017Y-112373320D02*
X125432017Y-113039987D01*
X125193922Y-111992368D02*
X124955827Y-112706653D01*
X124955827Y-112706653D02*
X125574874Y-112706653D01*
X126098684Y-112468558D02*
X126003446Y-112420939D01*
X126003446Y-112420939D02*
X125955827Y-112373320D01*
X125955827Y-112373320D02*
X125908208Y-112278082D01*
X125908208Y-112278082D02*
X125908208Y-112230463D01*
X125908208Y-112230463D02*
X125955827Y-112135225D01*
X125955827Y-112135225D02*
X126003446Y-112087606D01*
X126003446Y-112087606D02*
X126098684Y-112039987D01*
X126098684Y-112039987D02*
X126289160Y-112039987D01*
X126289160Y-112039987D02*
X126384398Y-112087606D01*
X126384398Y-112087606D02*
X126432017Y-112135225D01*
X126432017Y-112135225D02*
X126479636Y-112230463D01*
X126479636Y-112230463D02*
X126479636Y-112278082D01*
X126479636Y-112278082D02*
X126432017Y-112373320D01*
X126432017Y-112373320D02*
X126384398Y-112420939D01*
X126384398Y-112420939D02*
X126289160Y-112468558D01*
X126289160Y-112468558D02*
X126098684Y-112468558D01*
X126098684Y-112468558D02*
X126003446Y-112516177D01*
X126003446Y-112516177D02*
X125955827Y-112563796D01*
X125955827Y-112563796D02*
X125908208Y-112659034D01*
X125908208Y-112659034D02*
X125908208Y-112849510D01*
X125908208Y-112849510D02*
X125955827Y-112944748D01*
X125955827Y-112944748D02*
X126003446Y-112992368D01*
X126003446Y-112992368D02*
X126098684Y-113039987D01*
X126098684Y-113039987D02*
X126289160Y-113039987D01*
X126289160Y-113039987D02*
X126384398Y-112992368D01*
X126384398Y-112992368D02*
X126432017Y-112944748D01*
X126432017Y-112944748D02*
X126479636Y-112849510D01*
X126479636Y-112849510D02*
X126479636Y-112659034D01*
X126479636Y-112659034D02*
X126432017Y-112563796D01*
X126432017Y-112563796D02*
X126384398Y-112516177D01*
X126384398Y-112516177D02*
X126289160Y-112468558D01*
X127384398Y-112039987D02*
X126908208Y-112039987D01*
X126908208Y-112039987D02*
X126860589Y-112516177D01*
X126860589Y-112516177D02*
X126908208Y-112468558D01*
X126908208Y-112468558D02*
X127003446Y-112420939D01*
X127003446Y-112420939D02*
X127241541Y-112420939D01*
X127241541Y-112420939D02*
X127336779Y-112468558D01*
X127336779Y-112468558D02*
X127384398Y-112516177D01*
X127384398Y-112516177D02*
X127432017Y-112611415D01*
X127432017Y-112611415D02*
X127432017Y-112849510D01*
X127432017Y-112849510D02*
X127384398Y-112944748D01*
X127384398Y-112944748D02*
X127336779Y-112992368D01*
X127336779Y-112992368D02*
X127241541Y-113039987D01*
X127241541Y-113039987D02*
X127003446Y-113039987D01*
X127003446Y-113039987D02*
X126908208Y-112992368D01*
X126908208Y-112992368D02*
X126860589Y-112944748D01*
X128574875Y-112754272D02*
X129051065Y-112754272D01*
X128479637Y-113039987D02*
X128812970Y-112039987D01*
X128812970Y-112039987D02*
X129146303Y-113039987D01*
X119289160Y-113745169D02*
X119336779Y-113697550D01*
X119336779Y-113697550D02*
X119432017Y-113649931D01*
X119432017Y-113649931D02*
X119670112Y-113649931D01*
X119670112Y-113649931D02*
X119765350Y-113697550D01*
X119765350Y-113697550D02*
X119812969Y-113745169D01*
X119812969Y-113745169D02*
X119860588Y-113840407D01*
X119860588Y-113840407D02*
X119860588Y-113935645D01*
X119860588Y-113935645D02*
X119812969Y-114078502D01*
X119812969Y-114078502D02*
X119241541Y-114649931D01*
X119241541Y-114649931D02*
X119860588Y-114649931D01*
X121051065Y-114268978D02*
X121812970Y-114268978D01*
X123622493Y-114649931D02*
X123289160Y-114173740D01*
X123051065Y-114649931D02*
X123051065Y-113649931D01*
X123051065Y-113649931D02*
X123432017Y-113649931D01*
X123432017Y-113649931D02*
X123527255Y-113697550D01*
X123527255Y-113697550D02*
X123574874Y-113745169D01*
X123574874Y-113745169D02*
X123622493Y-113840407D01*
X123622493Y-113840407D02*
X123622493Y-113983264D01*
X123622493Y-113983264D02*
X123574874Y-114078502D01*
X123574874Y-114078502D02*
X123527255Y-114126121D01*
X123527255Y-114126121D02*
X123432017Y-114173740D01*
X123432017Y-114173740D02*
X123051065Y-114173740D01*
X124003446Y-114602312D02*
X124146303Y-114649931D01*
X124146303Y-114649931D02*
X124384398Y-114649931D01*
X124384398Y-114649931D02*
X124479636Y-114602312D01*
X124479636Y-114602312D02*
X124527255Y-114554692D01*
X124527255Y-114554692D02*
X124574874Y-114459454D01*
X124574874Y-114459454D02*
X124574874Y-114364216D01*
X124574874Y-114364216D02*
X124527255Y-114268978D01*
X124527255Y-114268978D02*
X124479636Y-114221359D01*
X124479636Y-114221359D02*
X124384398Y-114173740D01*
X124384398Y-114173740D02*
X124193922Y-114126121D01*
X124193922Y-114126121D02*
X124098684Y-114078502D01*
X124098684Y-114078502D02*
X124051065Y-114030883D01*
X124051065Y-114030883D02*
X124003446Y-113935645D01*
X124003446Y-113935645D02*
X124003446Y-113840407D01*
X124003446Y-113840407D02*
X124051065Y-113745169D01*
X124051065Y-113745169D02*
X124098684Y-113697550D01*
X124098684Y-113697550D02*
X124193922Y-113649931D01*
X124193922Y-113649931D02*
X124432017Y-113649931D01*
X124432017Y-113649931D02*
X124574874Y-113697550D01*
X125432017Y-113983264D02*
X125432017Y-114649931D01*
X125193922Y-113602312D02*
X124955827Y-114316597D01*
X124955827Y-114316597D02*
X125574874Y-114316597D01*
X126098684Y-114078502D02*
X126003446Y-114030883D01*
X126003446Y-114030883D02*
X125955827Y-113983264D01*
X125955827Y-113983264D02*
X125908208Y-113888026D01*
X125908208Y-113888026D02*
X125908208Y-113840407D01*
X125908208Y-113840407D02*
X125955827Y-113745169D01*
X125955827Y-113745169D02*
X126003446Y-113697550D01*
X126003446Y-113697550D02*
X126098684Y-113649931D01*
X126098684Y-113649931D02*
X126289160Y-113649931D01*
X126289160Y-113649931D02*
X126384398Y-113697550D01*
X126384398Y-113697550D02*
X126432017Y-113745169D01*
X126432017Y-113745169D02*
X126479636Y-113840407D01*
X126479636Y-113840407D02*
X126479636Y-113888026D01*
X126479636Y-113888026D02*
X126432017Y-113983264D01*
X126432017Y-113983264D02*
X126384398Y-114030883D01*
X126384398Y-114030883D02*
X126289160Y-114078502D01*
X126289160Y-114078502D02*
X126098684Y-114078502D01*
X126098684Y-114078502D02*
X126003446Y-114126121D01*
X126003446Y-114126121D02*
X125955827Y-114173740D01*
X125955827Y-114173740D02*
X125908208Y-114268978D01*
X125908208Y-114268978D02*
X125908208Y-114459454D01*
X125908208Y-114459454D02*
X125955827Y-114554692D01*
X125955827Y-114554692D02*
X126003446Y-114602312D01*
X126003446Y-114602312D02*
X126098684Y-114649931D01*
X126098684Y-114649931D02*
X126289160Y-114649931D01*
X126289160Y-114649931D02*
X126384398Y-114602312D01*
X126384398Y-114602312D02*
X126432017Y-114554692D01*
X126432017Y-114554692D02*
X126479636Y-114459454D01*
X126479636Y-114459454D02*
X126479636Y-114268978D01*
X126479636Y-114268978D02*
X126432017Y-114173740D01*
X126432017Y-114173740D02*
X126384398Y-114126121D01*
X126384398Y-114126121D02*
X126289160Y-114078502D01*
X127384398Y-113649931D02*
X126908208Y-113649931D01*
X126908208Y-113649931D02*
X126860589Y-114126121D01*
X126860589Y-114126121D02*
X126908208Y-114078502D01*
X126908208Y-114078502D02*
X127003446Y-114030883D01*
X127003446Y-114030883D02*
X127241541Y-114030883D01*
X127241541Y-114030883D02*
X127336779Y-114078502D01*
X127336779Y-114078502D02*
X127384398Y-114126121D01*
X127384398Y-114126121D02*
X127432017Y-114221359D01*
X127432017Y-114221359D02*
X127432017Y-114459454D01*
X127432017Y-114459454D02*
X127384398Y-114554692D01*
X127384398Y-114554692D02*
X127336779Y-114602312D01*
X127336779Y-114602312D02*
X127241541Y-114649931D01*
X127241541Y-114649931D02*
X127003446Y-114649931D01*
X127003446Y-114649931D02*
X126908208Y-114602312D01*
X126908208Y-114602312D02*
X126860589Y-114554692D01*
X128955827Y-114126121D02*
X129098684Y-114173740D01*
X129098684Y-114173740D02*
X129146303Y-114221359D01*
X129146303Y-114221359D02*
X129193922Y-114316597D01*
X129193922Y-114316597D02*
X129193922Y-114459454D01*
X129193922Y-114459454D02*
X129146303Y-114554692D01*
X129146303Y-114554692D02*
X129098684Y-114602312D01*
X129098684Y-114602312D02*
X129003446Y-114649931D01*
X129003446Y-114649931D02*
X128622494Y-114649931D01*
X128622494Y-114649931D02*
X128622494Y-113649931D01*
X128622494Y-113649931D02*
X128955827Y-113649931D01*
X128955827Y-113649931D02*
X129051065Y-113697550D01*
X129051065Y-113697550D02*
X129098684Y-113745169D01*
X129098684Y-113745169D02*
X129146303Y-113840407D01*
X129146303Y-113840407D02*
X129146303Y-113935645D01*
X129146303Y-113935645D02*
X129098684Y-114030883D01*
X129098684Y-114030883D02*
X129051065Y-114078502D01*
X129051065Y-114078502D02*
X128955827Y-114126121D01*
X128955827Y-114126121D02*
X128622494Y-114126121D01*
X119241541Y-115259875D02*
X119860588Y-115259875D01*
X119860588Y-115259875D02*
X119527255Y-115640827D01*
X119527255Y-115640827D02*
X119670112Y-115640827D01*
X119670112Y-115640827D02*
X119765350Y-115688446D01*
X119765350Y-115688446D02*
X119812969Y-115736065D01*
X119812969Y-115736065D02*
X119860588Y-115831303D01*
X119860588Y-115831303D02*
X119860588Y-116069398D01*
X119860588Y-116069398D02*
X119812969Y-116164636D01*
X119812969Y-116164636D02*
X119765350Y-116212256D01*
X119765350Y-116212256D02*
X119670112Y-116259875D01*
X119670112Y-116259875D02*
X119384398Y-116259875D01*
X119384398Y-116259875D02*
X119289160Y-116212256D01*
X119289160Y-116212256D02*
X119241541Y-116164636D01*
X120336779Y-116212256D02*
X120336779Y-116259875D01*
X120336779Y-116259875D02*
X120289160Y-116355113D01*
X120289160Y-116355113D02*
X120241541Y-116402732D01*
X121955826Y-115593208D02*
X121955826Y-116259875D01*
X121717731Y-115212256D02*
X121479636Y-115926541D01*
X121479636Y-115926541D02*
X122098683Y-115926541D01*
X123241541Y-115878922D02*
X124003446Y-115878922D01*
X125765350Y-115307494D02*
X125670112Y-115259875D01*
X125670112Y-115259875D02*
X125527255Y-115259875D01*
X125527255Y-115259875D02*
X125384398Y-115307494D01*
X125384398Y-115307494D02*
X125289160Y-115402732D01*
X125289160Y-115402732D02*
X125241541Y-115497970D01*
X125241541Y-115497970D02*
X125193922Y-115688446D01*
X125193922Y-115688446D02*
X125193922Y-115831303D01*
X125193922Y-115831303D02*
X125241541Y-116021779D01*
X125241541Y-116021779D02*
X125289160Y-116117017D01*
X125289160Y-116117017D02*
X125384398Y-116212256D01*
X125384398Y-116212256D02*
X125527255Y-116259875D01*
X125527255Y-116259875D02*
X125622493Y-116259875D01*
X125622493Y-116259875D02*
X125765350Y-116212256D01*
X125765350Y-116212256D02*
X125812969Y-116164636D01*
X125812969Y-116164636D02*
X125812969Y-115831303D01*
X125812969Y-115831303D02*
X125622493Y-115831303D01*
X126241541Y-116259875D02*
X126241541Y-115259875D01*
X126241541Y-115259875D02*
X126812969Y-116259875D01*
X126812969Y-116259875D02*
X126812969Y-115259875D01*
X127289160Y-116259875D02*
X127289160Y-115259875D01*
X127289160Y-115259875D02*
X127527255Y-115259875D01*
X127527255Y-115259875D02*
X127670112Y-115307494D01*
X127670112Y-115307494D02*
X127765350Y-115402732D01*
X127765350Y-115402732D02*
X127812969Y-115497970D01*
X127812969Y-115497970D02*
X127860588Y-115688446D01*
X127860588Y-115688446D02*
X127860588Y-115831303D01*
X127860588Y-115831303D02*
X127812969Y-116021779D01*
X127812969Y-116021779D02*
X127765350Y-116117017D01*
X127765350Y-116117017D02*
X127670112Y-116212256D01*
X127670112Y-116212256D02*
X127527255Y-116259875D01*
X127527255Y-116259875D02*
X127289160Y-116259875D01*
X119812969Y-116869819D02*
X119336779Y-116869819D01*
X119336779Y-116869819D02*
X119289160Y-117346009D01*
X119289160Y-117346009D02*
X119336779Y-117298390D01*
X119336779Y-117298390D02*
X119432017Y-117250771D01*
X119432017Y-117250771D02*
X119670112Y-117250771D01*
X119670112Y-117250771D02*
X119765350Y-117298390D01*
X119765350Y-117298390D02*
X119812969Y-117346009D01*
X119812969Y-117346009D02*
X119860588Y-117441247D01*
X119860588Y-117441247D02*
X119860588Y-117679342D01*
X119860588Y-117679342D02*
X119812969Y-117774580D01*
X119812969Y-117774580D02*
X119765350Y-117822200D01*
X119765350Y-117822200D02*
X119670112Y-117869819D01*
X119670112Y-117869819D02*
X119432017Y-117869819D01*
X119432017Y-117869819D02*
X119336779Y-117822200D01*
X119336779Y-117822200D02*
X119289160Y-117774580D01*
X120336779Y-117822200D02*
X120336779Y-117869819D01*
X120336779Y-117869819D02*
X120289160Y-117965057D01*
X120289160Y-117965057D02*
X120241541Y-118012676D01*
X121955826Y-116869819D02*
X121765350Y-116869819D01*
X121765350Y-116869819D02*
X121670112Y-116917438D01*
X121670112Y-116917438D02*
X121622493Y-116965057D01*
X121622493Y-116965057D02*
X121527255Y-117107914D01*
X121527255Y-117107914D02*
X121479636Y-117298390D01*
X121479636Y-117298390D02*
X121479636Y-117679342D01*
X121479636Y-117679342D02*
X121527255Y-117774580D01*
X121527255Y-117774580D02*
X121574874Y-117822200D01*
X121574874Y-117822200D02*
X121670112Y-117869819D01*
X121670112Y-117869819D02*
X121860588Y-117869819D01*
X121860588Y-117869819D02*
X121955826Y-117822200D01*
X121955826Y-117822200D02*
X122003445Y-117774580D01*
X122003445Y-117774580D02*
X122051064Y-117679342D01*
X122051064Y-117679342D02*
X122051064Y-117441247D01*
X122051064Y-117441247D02*
X122003445Y-117346009D01*
X122003445Y-117346009D02*
X121955826Y-117298390D01*
X121955826Y-117298390D02*
X121860588Y-117250771D01*
X121860588Y-117250771D02*
X121670112Y-117250771D01*
X121670112Y-117250771D02*
X121574874Y-117298390D01*
X121574874Y-117298390D02*
X121527255Y-117346009D01*
X121527255Y-117346009D02*
X121479636Y-117441247D01*
X123241541Y-117488866D02*
X124003446Y-117488866D01*
X125765350Y-117869819D02*
X125193922Y-117869819D01*
X125479636Y-117869819D02*
X125479636Y-116869819D01*
X125479636Y-116869819D02*
X125384398Y-117012676D01*
X125384398Y-117012676D02*
X125289160Y-117107914D01*
X125289160Y-117107914D02*
X125193922Y-117155533D01*
X126146303Y-116965057D02*
X126193922Y-116917438D01*
X126193922Y-116917438D02*
X126289160Y-116869819D01*
X126289160Y-116869819D02*
X126527255Y-116869819D01*
X126527255Y-116869819D02*
X126622493Y-116917438D01*
X126622493Y-116917438D02*
X126670112Y-116965057D01*
X126670112Y-116965057D02*
X126717731Y-117060295D01*
X126717731Y-117060295D02*
X126717731Y-117155533D01*
X126717731Y-117155533D02*
X126670112Y-117298390D01*
X126670112Y-117298390D02*
X126098684Y-117869819D01*
X126098684Y-117869819D02*
X126717731Y-117869819D01*
X127765351Y-116869819D02*
X128098684Y-117869819D01*
X128098684Y-117869819D02*
X128432017Y-116869819D01*
D11*
X91662061Y-90964858D02*
X92913773Y-90964858D01*
X92913773Y-90964858D02*
X92913773Y-91262885D01*
X92913773Y-91262885D02*
X92854168Y-91441701D01*
X92854168Y-91441701D02*
X92734957Y-91560912D01*
X92734957Y-91560912D02*
X92615747Y-91620517D01*
X92615747Y-91620517D02*
X92377325Y-91680122D01*
X92377325Y-91680122D02*
X92198509Y-91680122D01*
X92198509Y-91680122D02*
X91960088Y-91620517D01*
X91960088Y-91620517D02*
X91840877Y-91560912D01*
X91840877Y-91560912D02*
X91721667Y-91441701D01*
X91721667Y-91441701D02*
X91662061Y-91262885D01*
X91662061Y-91262885D02*
X91662061Y-90964858D01*
X91781272Y-92931834D02*
X91721667Y-92872229D01*
X91721667Y-92872229D02*
X91662061Y-92693413D01*
X91662061Y-92693413D02*
X91662061Y-92574202D01*
X91662061Y-92574202D02*
X91721667Y-92395386D01*
X91721667Y-92395386D02*
X91840877Y-92276176D01*
X91840877Y-92276176D02*
X91960088Y-92216570D01*
X91960088Y-92216570D02*
X92198509Y-92156965D01*
X92198509Y-92156965D02*
X92377325Y-92156965D01*
X92377325Y-92156965D02*
X92615747Y-92216570D01*
X92615747Y-92216570D02*
X92734957Y-92276176D01*
X92734957Y-92276176D02*
X92854168Y-92395386D01*
X92854168Y-92395386D02*
X92913773Y-92574202D01*
X92913773Y-92574202D02*
X92913773Y-92693413D01*
X92913773Y-92693413D02*
X92854168Y-92872229D01*
X92854168Y-92872229D02*
X92794563Y-92931834D01*
X91662061Y-94421967D02*
X92913773Y-94421967D01*
X91662061Y-95018020D02*
X92913773Y-95018020D01*
X92913773Y-95018020D02*
X91662061Y-95733284D01*
X91662061Y-95733284D02*
X92913773Y-95733284D01*
X91185219Y-97640654D02*
X91244824Y-97581049D01*
X91244824Y-97581049D02*
X91423640Y-97461838D01*
X91423640Y-97461838D02*
X91542851Y-97402233D01*
X91542851Y-97402233D02*
X91721667Y-97342628D01*
X91721667Y-97342628D02*
X92019693Y-97283022D01*
X92019693Y-97283022D02*
X92258115Y-97283022D01*
X92258115Y-97283022D02*
X92556141Y-97342628D01*
X92556141Y-97342628D02*
X92734957Y-97402233D01*
X92734957Y-97402233D02*
X92854168Y-97461838D01*
X92854168Y-97461838D02*
X93032984Y-97581049D01*
X93032984Y-97581049D02*
X93092589Y-97640654D01*
X92377325Y-98296313D02*
X92436931Y-98177103D01*
X92436931Y-98177103D02*
X92496536Y-98117497D01*
X92496536Y-98117497D02*
X92615747Y-98057892D01*
X92615747Y-98057892D02*
X92675352Y-98057892D01*
X92675352Y-98057892D02*
X92794563Y-98117497D01*
X92794563Y-98117497D02*
X92854168Y-98177103D01*
X92854168Y-98177103D02*
X92913773Y-98296313D01*
X92913773Y-98296313D02*
X92913773Y-98534735D01*
X92913773Y-98534735D02*
X92854168Y-98653945D01*
X92854168Y-98653945D02*
X92794563Y-98713551D01*
X92794563Y-98713551D02*
X92675352Y-98773156D01*
X92675352Y-98773156D02*
X92615747Y-98773156D01*
X92615747Y-98773156D02*
X92496536Y-98713551D01*
X92496536Y-98713551D02*
X92436931Y-98653945D01*
X92436931Y-98653945D02*
X92377325Y-98534735D01*
X92377325Y-98534735D02*
X92377325Y-98296313D01*
X92377325Y-98296313D02*
X92317720Y-98177103D01*
X92317720Y-98177103D02*
X92258115Y-98117497D01*
X92258115Y-98117497D02*
X92138904Y-98057892D01*
X92138904Y-98057892D02*
X91900483Y-98057892D01*
X91900483Y-98057892D02*
X91781272Y-98117497D01*
X91781272Y-98117497D02*
X91721667Y-98177103D01*
X91721667Y-98177103D02*
X91662061Y-98296313D01*
X91662061Y-98296313D02*
X91662061Y-98534735D01*
X91662061Y-98534735D02*
X91721667Y-98653945D01*
X91721667Y-98653945D02*
X91781272Y-98713551D01*
X91781272Y-98713551D02*
X91900483Y-98773156D01*
X91900483Y-98773156D02*
X92138904Y-98773156D01*
X92138904Y-98773156D02*
X92258115Y-98713551D01*
X92258115Y-98713551D02*
X92317720Y-98653945D01*
X92317720Y-98653945D02*
X92377325Y-98534735D01*
X92913773Y-99130788D02*
X91662061Y-99548026D01*
X91662061Y-99548026D02*
X92913773Y-99965263D01*
X92138904Y-101336185D02*
X92138904Y-102289871D01*
X91662061Y-104495268D02*
X91662061Y-103780004D01*
X91662061Y-104137636D02*
X92913773Y-104137636D01*
X92913773Y-104137636D02*
X92734957Y-104018425D01*
X92734957Y-104018425D02*
X92615747Y-103899215D01*
X92615747Y-103899215D02*
X92556141Y-103780004D01*
X92913773Y-105627770D02*
X92913773Y-105031716D01*
X92913773Y-105031716D02*
X92317720Y-104972111D01*
X92317720Y-104972111D02*
X92377325Y-105031716D01*
X92377325Y-105031716D02*
X92436931Y-105150927D01*
X92436931Y-105150927D02*
X92436931Y-105448954D01*
X92436931Y-105448954D02*
X92377325Y-105568164D01*
X92377325Y-105568164D02*
X92317720Y-105627770D01*
X92317720Y-105627770D02*
X92198509Y-105687375D01*
X92198509Y-105687375D02*
X91900483Y-105687375D01*
X91900483Y-105687375D02*
X91781272Y-105627770D01*
X91781272Y-105627770D02*
X91721667Y-105568164D01*
X91721667Y-105568164D02*
X91662061Y-105448954D01*
X91662061Y-105448954D02*
X91662061Y-105150927D01*
X91662061Y-105150927D02*
X91721667Y-105031716D01*
X91721667Y-105031716D02*
X91781272Y-104972111D01*
X92913773Y-106045007D02*
X91662061Y-106462245D01*
X91662061Y-106462245D02*
X92913773Y-106879482D01*
X91185219Y-107177509D02*
X91244824Y-107237114D01*
X91244824Y-107237114D02*
X91423640Y-107356325D01*
X91423640Y-107356325D02*
X91542851Y-107415930D01*
X91542851Y-107415930D02*
X91721667Y-107475535D01*
X91721667Y-107475535D02*
X92019693Y-107535141D01*
X92019693Y-107535141D02*
X92258115Y-107535141D01*
X92258115Y-107535141D02*
X92556141Y-107475535D01*
X92556141Y-107475535D02*
X92734957Y-107415930D01*
X92734957Y-107415930D02*
X92854168Y-107356325D01*
X92854168Y-107356325D02*
X93032984Y-107237114D01*
X93032984Y-107237114D02*
X93092589Y-107177509D01*
D10*
X91925000Y-120000000D02*
X91925000Y-120900000D01*
X91925000Y-122000000D02*
X91925000Y-124000000D01*
X91250000Y-122750000D02*
G75*
G02*
X92675000Y-122675000I675000J750000D01*
G01*
X92850000Y-119000000D02*
G75*
G02*
X91000000Y-119000000I-925000J0D01*
G01*
X91000000Y-119000000D02*
G75*
G02*
X92850000Y-119000000I925000J0D01*
G01*
D12*
X92100000Y-122000000D02*
G75*
G02*
X91750000Y-122000000I-175000J0D01*
G01*
X91750000Y-122000000D02*
G75*
G02*
X92100000Y-122000000I175000J0D01*
G01*
D10*
X92850000Y-125000000D02*
G75*
G02*
X91000000Y-125000000I-925000J0D01*
G01*
X91000000Y-125000000D02*
G75*
G02*
X92850000Y-125000000I925000J0D01*
G01*
D13*
X106550000Y-96500000D02*
X106550000Y-97500000D01*
X106550000Y-97500000D02*
X107550000Y-97000000D01*
X107550000Y-97000000D02*
X106550000Y-96500000D01*
X107940000Y-91790000D02*
X117060000Y-91790000D01*
X107940000Y-97490000D02*
X109250000Y-97490000D01*
X107940000Y-107290000D02*
X107940000Y-91790000D01*
X109250000Y-93090000D02*
X115750000Y-93090000D01*
X109250000Y-97490000D02*
X109250000Y-93090000D01*
X109250000Y-101590000D02*
X107940000Y-101590000D01*
X109250000Y-101590000D02*
X109250000Y-101590000D01*
X109250000Y-105990000D02*
X109250000Y-101590000D01*
X115750000Y-93090000D02*
X115750000Y-105990000D01*
X115750000Y-105990000D02*
X109250000Y-105990000D01*
X117060000Y-91790000D02*
X117060000Y-107290000D01*
X117060000Y-107290000D02*
X107940000Y-107290000D01*
X90200000Y-107900000D02*
X104900000Y-107900000D01*
X90200000Y-117100000D02*
X90200000Y-107900000D01*
X99000000Y-117100000D02*
X90200000Y-117100000D01*
X104050000Y-107700000D02*
X105100000Y-107700000D01*
X104900000Y-107900000D02*
X104900000Y-110500000D01*
X104900000Y-114400000D02*
X104900000Y-117100000D01*
X104900000Y-117100000D02*
X103000000Y-117100000D01*
X105100000Y-108750000D02*
X105100000Y-107700000D01*
X107940000Y-117710000D02*
X117060000Y-117710000D01*
X107940000Y-133210000D02*
X107940000Y-117710000D01*
X109250000Y-119010000D02*
X115750000Y-119010000D01*
X109250000Y-131910000D02*
X109250000Y-119010000D01*
X115750000Y-119010000D02*
X115750000Y-123410000D01*
X115750000Y-123410000D02*
X115750000Y-123410000D01*
X115750000Y-123410000D02*
X117060000Y-123410000D01*
X115750000Y-127510000D02*
X115750000Y-131910000D01*
X115750000Y-131910000D02*
X109250000Y-131910000D01*
X117060000Y-117710000D02*
X117060000Y-133210000D01*
X117060000Y-127510000D02*
X115750000Y-127510000D01*
X117060000Y-133210000D02*
X107940000Y-133210000D01*
X117450000Y-128000000D02*
X118450000Y-128500000D01*
X118450000Y-127500000D02*
X117450000Y-128000000D01*
X118450000Y-128500000D02*
X118450000Y-127500000D01*
%LPC*%
D14*
X125000000Y-100000000D03*
X100000000Y-100000000D03*
X125000000Y-125000000D03*
X100000000Y-125000000D03*
D15*
X111230000Y-97000000D03*
D16*
X113770000Y-97000000D03*
X111230000Y-99540000D03*
X113770000Y-99540000D03*
X111230000Y-102080000D03*
X113770000Y-102080000D03*
D17*
X104000000Y-112500000D03*
D18*
X98000000Y-112500000D03*
D19*
X101000000Y-117200000D03*
D20*
X113770000Y-128000000D03*
D16*
X111230000Y-128000000D03*
X113770000Y-125460000D03*
X111230000Y-125460000D03*
X113770000Y-122920000D03*
X111230000Y-122920000D03*
%LPD*%
M02*
