%TF.GenerationSoftware,KiCad,Pcbnew,8.0.5*%
%TF.CreationDate,2024-09-14T16:23:53+01:00*%
%TF.ProjectId,RS485Board,52533438-3542-46f6-9172-642e6b696361,rev?*%
%TF.SameCoordinates,Original*%
%TF.FileFunction,Drillmap*%
%TF.FilePolarity,Positive*%
%FSLAX45Y45*%
G04 Gerber Fmt 4.5, Leading zero omitted, Abs format (unit mm)*
G04 Created by KiCad (PCBNEW 8.0.5) date 2024-09-14 16:23:53*
%MOMM*%
%LPD*%
G01*
G04 APERTURE LIST*
%ADD10C,0.050000*%
%ADD11C,0.200000*%
%ADD12C,0.530000*%
G04 APERTURE END LIST*
D10*
X9200000Y-13500000D02*
G75*
G02*
X9000000Y-13300000I0J200000D01*
G01*
X13300000Y-13500000D02*
X9200000Y-13500000D01*
X13500000Y-9200000D02*
X13500000Y-13300000D01*
X9000000Y-13300000D02*
X9000000Y-9200000D01*
X13300000Y-9000000D02*
G75*
G02*
X13500000Y-9200000I0J-200000D01*
G01*
X9200000Y-9000000D02*
X13300000Y-9000000D01*
X9000000Y-9200000D02*
G75*
G02*
X9200000Y-9000000I200000J0D01*
G01*
X13500000Y-13300000D02*
G75*
G02*
X13300000Y-13500000I-200000J0D01*
G01*
D11*
D12*
X9735000Y-9735000D02*
X10265000Y-10265000D01*
X10265000Y-9735000D02*
X9735000Y-10265000D01*
X9735000Y-12235000D02*
X10265000Y-12765000D01*
X10265000Y-12235000D02*
X9735000Y-12765000D01*
X12235000Y-9735000D02*
X12765000Y-10265000D01*
X12765000Y-9735000D02*
X12235000Y-10265000D01*
X12235000Y-12235000D02*
X12765000Y-12765000D01*
X12765000Y-12235000D02*
X12235000Y-12765000D01*
D11*
X9258277Y-13813984D02*
X9258277Y-13613984D01*
X9258277Y-13613984D02*
X9305896Y-13613984D01*
X9305896Y-13613984D02*
X9334467Y-13623508D01*
X9334467Y-13623508D02*
X9353515Y-13642555D01*
X9353515Y-13642555D02*
X9363039Y-13661603D01*
X9363039Y-13661603D02*
X9372563Y-13699698D01*
X9372563Y-13699698D02*
X9372563Y-13728269D01*
X9372563Y-13728269D02*
X9363039Y-13766365D01*
X9363039Y-13766365D02*
X9353515Y-13785412D01*
X9353515Y-13785412D02*
X9334467Y-13804460D01*
X9334467Y-13804460D02*
X9305896Y-13813984D01*
X9305896Y-13813984D02*
X9258277Y-13813984D01*
X9458277Y-13813984D02*
X9458277Y-13680650D01*
X9458277Y-13718746D02*
X9467801Y-13699698D01*
X9467801Y-13699698D02*
X9477324Y-13690174D01*
X9477324Y-13690174D02*
X9496372Y-13680650D01*
X9496372Y-13680650D02*
X9515420Y-13680650D01*
X9582086Y-13813984D02*
X9582086Y-13680650D01*
X9582086Y-13613984D02*
X9572563Y-13623508D01*
X9572563Y-13623508D02*
X9582086Y-13633031D01*
X9582086Y-13633031D02*
X9591610Y-13623508D01*
X9591610Y-13623508D02*
X9582086Y-13613984D01*
X9582086Y-13613984D02*
X9582086Y-13633031D01*
X9705896Y-13813984D02*
X9686848Y-13804460D01*
X9686848Y-13804460D02*
X9677324Y-13785412D01*
X9677324Y-13785412D02*
X9677324Y-13613984D01*
X9810658Y-13813984D02*
X9791610Y-13804460D01*
X9791610Y-13804460D02*
X9782086Y-13785412D01*
X9782086Y-13785412D02*
X9782086Y-13613984D01*
X10039229Y-13813984D02*
X10039229Y-13613984D01*
X10039229Y-13613984D02*
X10105896Y-13756841D01*
X10105896Y-13756841D02*
X10172563Y-13613984D01*
X10172563Y-13613984D02*
X10172563Y-13813984D01*
X10353515Y-13813984D02*
X10353515Y-13709222D01*
X10353515Y-13709222D02*
X10343991Y-13690174D01*
X10343991Y-13690174D02*
X10324944Y-13680650D01*
X10324944Y-13680650D02*
X10286848Y-13680650D01*
X10286848Y-13680650D02*
X10267801Y-13690174D01*
X10353515Y-13804460D02*
X10334467Y-13813984D01*
X10334467Y-13813984D02*
X10286848Y-13813984D01*
X10286848Y-13813984D02*
X10267801Y-13804460D01*
X10267801Y-13804460D02*
X10258277Y-13785412D01*
X10258277Y-13785412D02*
X10258277Y-13766365D01*
X10258277Y-13766365D02*
X10267801Y-13747317D01*
X10267801Y-13747317D02*
X10286848Y-13737793D01*
X10286848Y-13737793D02*
X10334467Y-13737793D01*
X10334467Y-13737793D02*
X10353515Y-13728269D01*
X10448753Y-13680650D02*
X10448753Y-13880650D01*
X10448753Y-13690174D02*
X10467801Y-13680650D01*
X10467801Y-13680650D02*
X10505896Y-13680650D01*
X10505896Y-13680650D02*
X10524944Y-13690174D01*
X10524944Y-13690174D02*
X10534467Y-13699698D01*
X10534467Y-13699698D02*
X10543991Y-13718746D01*
X10543991Y-13718746D02*
X10543991Y-13775888D01*
X10543991Y-13775888D02*
X10534467Y-13794936D01*
X10534467Y-13794936D02*
X10524944Y-13804460D01*
X10524944Y-13804460D02*
X10505896Y-13813984D01*
X10505896Y-13813984D02*
X10467801Y-13813984D01*
X10467801Y-13813984D02*
X10448753Y-13804460D01*
X10629705Y-13794936D02*
X10639229Y-13804460D01*
X10639229Y-13804460D02*
X10629705Y-13813984D01*
X10629705Y-13813984D02*
X10620182Y-13804460D01*
X10620182Y-13804460D02*
X10629705Y-13794936D01*
X10629705Y-13794936D02*
X10629705Y-13813984D01*
X10629705Y-13690174D02*
X10639229Y-13699698D01*
X10639229Y-13699698D02*
X10629705Y-13709222D01*
X10629705Y-13709222D02*
X10620182Y-13699698D01*
X10620182Y-13699698D02*
X10629705Y-13690174D01*
X10629705Y-13690174D02*
X10629705Y-13709222D01*
X8797500Y-14042500D02*
X8997500Y-14242500D01*
X8997500Y-14042500D02*
X8797500Y-14242500D01*
X9353515Y-14033984D02*
X9258277Y-14033984D01*
X9258277Y-14033984D02*
X9248753Y-14129222D01*
X9248753Y-14129222D02*
X9258277Y-14119698D01*
X9258277Y-14119698D02*
X9277324Y-14110174D01*
X9277324Y-14110174D02*
X9324944Y-14110174D01*
X9324944Y-14110174D02*
X9343991Y-14119698D01*
X9343991Y-14119698D02*
X9353515Y-14129222D01*
X9353515Y-14129222D02*
X9363039Y-14148269D01*
X9363039Y-14148269D02*
X9363039Y-14195888D01*
X9363039Y-14195888D02*
X9353515Y-14214936D01*
X9353515Y-14214936D02*
X9343991Y-14224460D01*
X9343991Y-14224460D02*
X9324944Y-14233984D01*
X9324944Y-14233984D02*
X9277324Y-14233984D01*
X9277324Y-14233984D02*
X9258277Y-14224460D01*
X9258277Y-14224460D02*
X9248753Y-14214936D01*
X9448753Y-14214936D02*
X9458277Y-14224460D01*
X9458277Y-14224460D02*
X9448753Y-14233984D01*
X9448753Y-14233984D02*
X9439229Y-14224460D01*
X9439229Y-14224460D02*
X9448753Y-14214936D01*
X9448753Y-14214936D02*
X9448753Y-14233984D01*
X9524944Y-14033984D02*
X9648753Y-14033984D01*
X9648753Y-14033984D02*
X9582086Y-14110174D01*
X9582086Y-14110174D02*
X9610658Y-14110174D01*
X9610658Y-14110174D02*
X9629705Y-14119698D01*
X9629705Y-14119698D02*
X9639229Y-14129222D01*
X9639229Y-14129222D02*
X9648753Y-14148269D01*
X9648753Y-14148269D02*
X9648753Y-14195888D01*
X9648753Y-14195888D02*
X9639229Y-14214936D01*
X9639229Y-14214936D02*
X9629705Y-14224460D01*
X9629705Y-14224460D02*
X9610658Y-14233984D01*
X9610658Y-14233984D02*
X9553515Y-14233984D01*
X9553515Y-14233984D02*
X9534467Y-14224460D01*
X9534467Y-14224460D02*
X9524944Y-14214936D01*
X9772563Y-14033984D02*
X9791610Y-14033984D01*
X9791610Y-14033984D02*
X9810658Y-14043508D01*
X9810658Y-14043508D02*
X9820182Y-14053031D01*
X9820182Y-14053031D02*
X9829705Y-14072079D01*
X9829705Y-14072079D02*
X9839229Y-14110174D01*
X9839229Y-14110174D02*
X9839229Y-14157793D01*
X9839229Y-14157793D02*
X9829705Y-14195888D01*
X9829705Y-14195888D02*
X9820182Y-14214936D01*
X9820182Y-14214936D02*
X9810658Y-14224460D01*
X9810658Y-14224460D02*
X9791610Y-14233984D01*
X9791610Y-14233984D02*
X9772563Y-14233984D01*
X9772563Y-14233984D02*
X9753515Y-14224460D01*
X9753515Y-14224460D02*
X9743991Y-14214936D01*
X9743991Y-14214936D02*
X9734467Y-14195888D01*
X9734467Y-14195888D02*
X9724944Y-14157793D01*
X9724944Y-14157793D02*
X9724944Y-14110174D01*
X9724944Y-14110174D02*
X9734467Y-14072079D01*
X9734467Y-14072079D02*
X9743991Y-14053031D01*
X9743991Y-14053031D02*
X9753515Y-14043508D01*
X9753515Y-14043508D02*
X9772563Y-14033984D01*
X9963039Y-14033984D02*
X9982086Y-14033984D01*
X9982086Y-14033984D02*
X10001134Y-14043508D01*
X10001134Y-14043508D02*
X10010658Y-14053031D01*
X10010658Y-14053031D02*
X10020182Y-14072079D01*
X10020182Y-14072079D02*
X10029705Y-14110174D01*
X10029705Y-14110174D02*
X10029705Y-14157793D01*
X10029705Y-14157793D02*
X10020182Y-14195888D01*
X10020182Y-14195888D02*
X10010658Y-14214936D01*
X10010658Y-14214936D02*
X10001134Y-14224460D01*
X10001134Y-14224460D02*
X9982086Y-14233984D01*
X9982086Y-14233984D02*
X9963039Y-14233984D01*
X9963039Y-14233984D02*
X9943991Y-14224460D01*
X9943991Y-14224460D02*
X9934467Y-14214936D01*
X9934467Y-14214936D02*
X9924944Y-14195888D01*
X9924944Y-14195888D02*
X9915420Y-14157793D01*
X9915420Y-14157793D02*
X9915420Y-14110174D01*
X9915420Y-14110174D02*
X9924944Y-14072079D01*
X9924944Y-14072079D02*
X9934467Y-14053031D01*
X9934467Y-14053031D02*
X9943991Y-14043508D01*
X9943991Y-14043508D02*
X9963039Y-14033984D01*
X10115420Y-14233984D02*
X10115420Y-14100650D01*
X10115420Y-14119698D02*
X10124944Y-14110174D01*
X10124944Y-14110174D02*
X10143991Y-14100650D01*
X10143991Y-14100650D02*
X10172563Y-14100650D01*
X10172563Y-14100650D02*
X10191610Y-14110174D01*
X10191610Y-14110174D02*
X10201134Y-14129222D01*
X10201134Y-14129222D02*
X10201134Y-14233984D01*
X10201134Y-14129222D02*
X10210658Y-14110174D01*
X10210658Y-14110174D02*
X10229705Y-14100650D01*
X10229705Y-14100650D02*
X10258277Y-14100650D01*
X10258277Y-14100650D02*
X10277325Y-14110174D01*
X10277325Y-14110174D02*
X10286848Y-14129222D01*
X10286848Y-14129222D02*
X10286848Y-14233984D01*
X10382086Y-14233984D02*
X10382086Y-14100650D01*
X10382086Y-14119698D02*
X10391610Y-14110174D01*
X10391610Y-14110174D02*
X10410658Y-14100650D01*
X10410658Y-14100650D02*
X10439229Y-14100650D01*
X10439229Y-14100650D02*
X10458277Y-14110174D01*
X10458277Y-14110174D02*
X10467801Y-14129222D01*
X10467801Y-14129222D02*
X10467801Y-14233984D01*
X10467801Y-14129222D02*
X10477325Y-14110174D01*
X10477325Y-14110174D02*
X10496372Y-14100650D01*
X10496372Y-14100650D02*
X10524944Y-14100650D01*
X10524944Y-14100650D02*
X10543991Y-14110174D01*
X10543991Y-14110174D02*
X10553515Y-14129222D01*
X10553515Y-14129222D02*
X10553515Y-14233984D01*
X10943991Y-14024460D02*
X10772563Y-14281603D01*
X11201134Y-14033984D02*
X11220182Y-14033984D01*
X11220182Y-14033984D02*
X11239229Y-14043508D01*
X11239229Y-14043508D02*
X11248753Y-14053031D01*
X11248753Y-14053031D02*
X11258277Y-14072079D01*
X11258277Y-14072079D02*
X11267801Y-14110174D01*
X11267801Y-14110174D02*
X11267801Y-14157793D01*
X11267801Y-14157793D02*
X11258277Y-14195888D01*
X11258277Y-14195888D02*
X11248753Y-14214936D01*
X11248753Y-14214936D02*
X11239229Y-14224460D01*
X11239229Y-14224460D02*
X11220182Y-14233984D01*
X11220182Y-14233984D02*
X11201134Y-14233984D01*
X11201134Y-14233984D02*
X11182087Y-14224460D01*
X11182087Y-14224460D02*
X11172563Y-14214936D01*
X11172563Y-14214936D02*
X11163039Y-14195888D01*
X11163039Y-14195888D02*
X11153515Y-14157793D01*
X11153515Y-14157793D02*
X11153515Y-14110174D01*
X11153515Y-14110174D02*
X11163039Y-14072079D01*
X11163039Y-14072079D02*
X11172563Y-14053031D01*
X11172563Y-14053031D02*
X11182087Y-14043508D01*
X11182087Y-14043508D02*
X11201134Y-14033984D01*
X11353515Y-14214936D02*
X11363039Y-14224460D01*
X11363039Y-14224460D02*
X11353515Y-14233984D01*
X11353515Y-14233984D02*
X11343991Y-14224460D01*
X11343991Y-14224460D02*
X11353515Y-14214936D01*
X11353515Y-14214936D02*
X11353515Y-14233984D01*
X11439229Y-14053031D02*
X11448753Y-14043508D01*
X11448753Y-14043508D02*
X11467801Y-14033984D01*
X11467801Y-14033984D02*
X11515420Y-14033984D01*
X11515420Y-14033984D02*
X11534467Y-14043508D01*
X11534467Y-14043508D02*
X11543991Y-14053031D01*
X11543991Y-14053031D02*
X11553515Y-14072079D01*
X11553515Y-14072079D02*
X11553515Y-14091127D01*
X11553515Y-14091127D02*
X11543991Y-14119698D01*
X11543991Y-14119698D02*
X11429706Y-14233984D01*
X11429706Y-14233984D02*
X11553515Y-14233984D01*
X11677325Y-14033984D02*
X11696372Y-14033984D01*
X11696372Y-14033984D02*
X11715420Y-14043508D01*
X11715420Y-14043508D02*
X11724944Y-14053031D01*
X11724944Y-14053031D02*
X11734467Y-14072079D01*
X11734467Y-14072079D02*
X11743991Y-14110174D01*
X11743991Y-14110174D02*
X11743991Y-14157793D01*
X11743991Y-14157793D02*
X11734467Y-14195888D01*
X11734467Y-14195888D02*
X11724944Y-14214936D01*
X11724944Y-14214936D02*
X11715420Y-14224460D01*
X11715420Y-14224460D02*
X11696372Y-14233984D01*
X11696372Y-14233984D02*
X11677325Y-14233984D01*
X11677325Y-14233984D02*
X11658277Y-14224460D01*
X11658277Y-14224460D02*
X11648753Y-14214936D01*
X11648753Y-14214936D02*
X11639229Y-14195888D01*
X11639229Y-14195888D02*
X11629706Y-14157793D01*
X11629706Y-14157793D02*
X11629706Y-14110174D01*
X11629706Y-14110174D02*
X11639229Y-14072079D01*
X11639229Y-14072079D02*
X11648753Y-14053031D01*
X11648753Y-14053031D02*
X11658277Y-14043508D01*
X11658277Y-14043508D02*
X11677325Y-14033984D01*
X11858277Y-14119698D02*
X11839229Y-14110174D01*
X11839229Y-14110174D02*
X11829706Y-14100650D01*
X11829706Y-14100650D02*
X11820182Y-14081603D01*
X11820182Y-14081603D02*
X11820182Y-14072079D01*
X11820182Y-14072079D02*
X11829706Y-14053031D01*
X11829706Y-14053031D02*
X11839229Y-14043508D01*
X11839229Y-14043508D02*
X11858277Y-14033984D01*
X11858277Y-14033984D02*
X11896372Y-14033984D01*
X11896372Y-14033984D02*
X11915420Y-14043508D01*
X11915420Y-14043508D02*
X11924944Y-14053031D01*
X11924944Y-14053031D02*
X11934467Y-14072079D01*
X11934467Y-14072079D02*
X11934467Y-14081603D01*
X11934467Y-14081603D02*
X11924944Y-14100650D01*
X11924944Y-14100650D02*
X11915420Y-14110174D01*
X11915420Y-14110174D02*
X11896372Y-14119698D01*
X11896372Y-14119698D02*
X11858277Y-14119698D01*
X11858277Y-14119698D02*
X11839229Y-14129222D01*
X11839229Y-14129222D02*
X11829706Y-14138746D01*
X11829706Y-14138746D02*
X11820182Y-14157793D01*
X11820182Y-14157793D02*
X11820182Y-14195888D01*
X11820182Y-14195888D02*
X11829706Y-14214936D01*
X11829706Y-14214936D02*
X11839229Y-14224460D01*
X11839229Y-14224460D02*
X11858277Y-14233984D01*
X11858277Y-14233984D02*
X11896372Y-14233984D01*
X11896372Y-14233984D02*
X11915420Y-14224460D01*
X11915420Y-14224460D02*
X11924944Y-14214936D01*
X11924944Y-14214936D02*
X11934467Y-14195888D01*
X11934467Y-14195888D02*
X11934467Y-14157793D01*
X11934467Y-14157793D02*
X11924944Y-14138746D01*
X11924944Y-14138746D02*
X11915420Y-14129222D01*
X11915420Y-14129222D02*
X11896372Y-14119698D01*
X12001134Y-14033984D02*
X12134467Y-14033984D01*
X12134467Y-14033984D02*
X12048753Y-14233984D01*
X12201134Y-14033984D02*
X12201134Y-14072079D01*
X12277325Y-14033984D02*
X12277325Y-14072079D01*
X12572563Y-14310174D02*
X12563039Y-14300650D01*
X12563039Y-14300650D02*
X12543991Y-14272079D01*
X12543991Y-14272079D02*
X12534468Y-14253031D01*
X12534468Y-14253031D02*
X12524944Y-14224460D01*
X12524944Y-14224460D02*
X12515420Y-14176841D01*
X12515420Y-14176841D02*
X12515420Y-14138746D01*
X12515420Y-14138746D02*
X12524944Y-14091127D01*
X12524944Y-14091127D02*
X12534468Y-14062555D01*
X12534468Y-14062555D02*
X12543991Y-14043508D01*
X12543991Y-14043508D02*
X12563039Y-14014936D01*
X12563039Y-14014936D02*
X12572563Y-14005412D01*
X12734468Y-14100650D02*
X12734468Y-14233984D01*
X12686848Y-14024460D02*
X12639229Y-14167317D01*
X12639229Y-14167317D02*
X12763039Y-14167317D01*
X12991610Y-14233984D02*
X12991610Y-14033984D01*
X13077325Y-14233984D02*
X13077325Y-14129222D01*
X13077325Y-14129222D02*
X13067801Y-14110174D01*
X13067801Y-14110174D02*
X13048753Y-14100650D01*
X13048753Y-14100650D02*
X13020182Y-14100650D01*
X13020182Y-14100650D02*
X13001134Y-14110174D01*
X13001134Y-14110174D02*
X12991610Y-14119698D01*
X13201134Y-14233984D02*
X13182087Y-14224460D01*
X13182087Y-14224460D02*
X13172563Y-14214936D01*
X13172563Y-14214936D02*
X13163039Y-14195888D01*
X13163039Y-14195888D02*
X13163039Y-14138746D01*
X13163039Y-14138746D02*
X13172563Y-14119698D01*
X13172563Y-14119698D02*
X13182087Y-14110174D01*
X13182087Y-14110174D02*
X13201134Y-14100650D01*
X13201134Y-14100650D02*
X13229706Y-14100650D01*
X13229706Y-14100650D02*
X13248753Y-14110174D01*
X13248753Y-14110174D02*
X13258277Y-14119698D01*
X13258277Y-14119698D02*
X13267801Y-14138746D01*
X13267801Y-14138746D02*
X13267801Y-14195888D01*
X13267801Y-14195888D02*
X13258277Y-14214936D01*
X13258277Y-14214936D02*
X13248753Y-14224460D01*
X13248753Y-14224460D02*
X13229706Y-14233984D01*
X13229706Y-14233984D02*
X13201134Y-14233984D01*
X13382087Y-14233984D02*
X13363039Y-14224460D01*
X13363039Y-14224460D02*
X13353515Y-14205412D01*
X13353515Y-14205412D02*
X13353515Y-14033984D01*
X13534468Y-14224460D02*
X13515420Y-14233984D01*
X13515420Y-14233984D02*
X13477325Y-14233984D01*
X13477325Y-14233984D02*
X13458277Y-14224460D01*
X13458277Y-14224460D02*
X13448753Y-14205412D01*
X13448753Y-14205412D02*
X13448753Y-14129222D01*
X13448753Y-14129222D02*
X13458277Y-14110174D01*
X13458277Y-14110174D02*
X13477325Y-14100650D01*
X13477325Y-14100650D02*
X13515420Y-14100650D01*
X13515420Y-14100650D02*
X13534468Y-14110174D01*
X13534468Y-14110174D02*
X13543991Y-14129222D01*
X13543991Y-14129222D02*
X13543991Y-14148269D01*
X13543991Y-14148269D02*
X13448753Y-14167317D01*
X13620182Y-14224460D02*
X13639230Y-14233984D01*
X13639230Y-14233984D02*
X13677325Y-14233984D01*
X13677325Y-14233984D02*
X13696372Y-14224460D01*
X13696372Y-14224460D02*
X13705896Y-14205412D01*
X13705896Y-14205412D02*
X13705896Y-14195888D01*
X13705896Y-14195888D02*
X13696372Y-14176841D01*
X13696372Y-14176841D02*
X13677325Y-14167317D01*
X13677325Y-14167317D02*
X13648753Y-14167317D01*
X13648753Y-14167317D02*
X13629706Y-14157793D01*
X13629706Y-14157793D02*
X13620182Y-14138746D01*
X13620182Y-14138746D02*
X13620182Y-14129222D01*
X13620182Y-14129222D02*
X13629706Y-14110174D01*
X13629706Y-14110174D02*
X13648753Y-14100650D01*
X13648753Y-14100650D02*
X13677325Y-14100650D01*
X13677325Y-14100650D02*
X13696372Y-14110174D01*
X13772563Y-14310174D02*
X13782087Y-14300650D01*
X13782087Y-14300650D02*
X13801134Y-14272079D01*
X13801134Y-14272079D02*
X13810658Y-14253031D01*
X13810658Y-14253031D02*
X13820182Y-14224460D01*
X13820182Y-14224460D02*
X13829706Y-14176841D01*
X13829706Y-14176841D02*
X13829706Y-14138746D01*
X13829706Y-14138746D02*
X13820182Y-14091127D01*
X13820182Y-14091127D02*
X13810658Y-14062555D01*
X13810658Y-14062555D02*
X13801134Y-14043508D01*
X13801134Y-14043508D02*
X13782087Y-14014936D01*
X13782087Y-14014936D02*
X13772563Y-14005412D01*
X14134468Y-14310174D02*
X14124944Y-14300650D01*
X14124944Y-14300650D02*
X14105896Y-14272079D01*
X14105896Y-14272079D02*
X14096372Y-14253031D01*
X14096372Y-14253031D02*
X14086849Y-14224460D01*
X14086849Y-14224460D02*
X14077325Y-14176841D01*
X14077325Y-14176841D02*
X14077325Y-14138746D01*
X14077325Y-14138746D02*
X14086849Y-14091127D01*
X14086849Y-14091127D02*
X14096372Y-14062555D01*
X14096372Y-14062555D02*
X14105896Y-14043508D01*
X14105896Y-14043508D02*
X14124944Y-14014936D01*
X14124944Y-14014936D02*
X14134468Y-14005412D01*
X14210658Y-14100650D02*
X14210658Y-14233984D01*
X14210658Y-14119698D02*
X14220182Y-14110174D01*
X14220182Y-14110174D02*
X14239230Y-14100650D01*
X14239230Y-14100650D02*
X14267801Y-14100650D01*
X14267801Y-14100650D02*
X14286849Y-14110174D01*
X14286849Y-14110174D02*
X14296372Y-14129222D01*
X14296372Y-14129222D02*
X14296372Y-14233984D01*
X14420182Y-14233984D02*
X14401134Y-14224460D01*
X14401134Y-14224460D02*
X14391611Y-14214936D01*
X14391611Y-14214936D02*
X14382087Y-14195888D01*
X14382087Y-14195888D02*
X14382087Y-14138746D01*
X14382087Y-14138746D02*
X14391611Y-14119698D01*
X14391611Y-14119698D02*
X14401134Y-14110174D01*
X14401134Y-14110174D02*
X14420182Y-14100650D01*
X14420182Y-14100650D02*
X14448753Y-14100650D01*
X14448753Y-14100650D02*
X14467801Y-14110174D01*
X14467801Y-14110174D02*
X14477325Y-14119698D01*
X14477325Y-14119698D02*
X14486849Y-14138746D01*
X14486849Y-14138746D02*
X14486849Y-14195888D01*
X14486849Y-14195888D02*
X14477325Y-14214936D01*
X14477325Y-14214936D02*
X14467801Y-14224460D01*
X14467801Y-14224460D02*
X14448753Y-14233984D01*
X14448753Y-14233984D02*
X14420182Y-14233984D01*
X14543992Y-14100650D02*
X14620182Y-14100650D01*
X14572563Y-14033984D02*
X14572563Y-14205412D01*
X14572563Y-14205412D02*
X14582087Y-14224460D01*
X14582087Y-14224460D02*
X14601134Y-14233984D01*
X14601134Y-14233984D02*
X14620182Y-14233984D01*
X14839230Y-14100650D02*
X14839230Y-14300650D01*
X14839230Y-14110174D02*
X14858277Y-14100650D01*
X14858277Y-14100650D02*
X14896373Y-14100650D01*
X14896373Y-14100650D02*
X14915420Y-14110174D01*
X14915420Y-14110174D02*
X14924944Y-14119698D01*
X14924944Y-14119698D02*
X14934468Y-14138746D01*
X14934468Y-14138746D02*
X14934468Y-14195888D01*
X14934468Y-14195888D02*
X14924944Y-14214936D01*
X14924944Y-14214936D02*
X14915420Y-14224460D01*
X14915420Y-14224460D02*
X14896373Y-14233984D01*
X14896373Y-14233984D02*
X14858277Y-14233984D01*
X14858277Y-14233984D02*
X14839230Y-14224460D01*
X15048753Y-14233984D02*
X15029706Y-14224460D01*
X15029706Y-14224460D02*
X15020182Y-14205412D01*
X15020182Y-14205412D02*
X15020182Y-14033984D01*
X15210658Y-14233984D02*
X15210658Y-14129222D01*
X15210658Y-14129222D02*
X15201134Y-14110174D01*
X15201134Y-14110174D02*
X15182087Y-14100650D01*
X15182087Y-14100650D02*
X15143992Y-14100650D01*
X15143992Y-14100650D02*
X15124944Y-14110174D01*
X15210658Y-14224460D02*
X15191611Y-14233984D01*
X15191611Y-14233984D02*
X15143992Y-14233984D01*
X15143992Y-14233984D02*
X15124944Y-14224460D01*
X15124944Y-14224460D02*
X15115420Y-14205412D01*
X15115420Y-14205412D02*
X15115420Y-14186365D01*
X15115420Y-14186365D02*
X15124944Y-14167317D01*
X15124944Y-14167317D02*
X15143992Y-14157793D01*
X15143992Y-14157793D02*
X15191611Y-14157793D01*
X15191611Y-14157793D02*
X15210658Y-14148269D01*
X15277325Y-14100650D02*
X15353515Y-14100650D01*
X15305896Y-14033984D02*
X15305896Y-14205412D01*
X15305896Y-14205412D02*
X15315420Y-14224460D01*
X15315420Y-14224460D02*
X15334468Y-14233984D01*
X15334468Y-14233984D02*
X15353515Y-14233984D01*
X15496373Y-14224460D02*
X15477325Y-14233984D01*
X15477325Y-14233984D02*
X15439230Y-14233984D01*
X15439230Y-14233984D02*
X15420182Y-14224460D01*
X15420182Y-14224460D02*
X15410658Y-14205412D01*
X15410658Y-14205412D02*
X15410658Y-14129222D01*
X15410658Y-14129222D02*
X15420182Y-14110174D01*
X15420182Y-14110174D02*
X15439230Y-14100650D01*
X15439230Y-14100650D02*
X15477325Y-14100650D01*
X15477325Y-14100650D02*
X15496373Y-14110174D01*
X15496373Y-14110174D02*
X15505896Y-14129222D01*
X15505896Y-14129222D02*
X15505896Y-14148269D01*
X15505896Y-14148269D02*
X15410658Y-14167317D01*
X15677325Y-14233984D02*
X15677325Y-14033984D01*
X15677325Y-14224460D02*
X15658277Y-14233984D01*
X15658277Y-14233984D02*
X15620182Y-14233984D01*
X15620182Y-14233984D02*
X15601134Y-14224460D01*
X15601134Y-14224460D02*
X15591611Y-14214936D01*
X15591611Y-14214936D02*
X15582087Y-14195888D01*
X15582087Y-14195888D02*
X15582087Y-14138746D01*
X15582087Y-14138746D02*
X15591611Y-14119698D01*
X15591611Y-14119698D02*
X15601134Y-14110174D01*
X15601134Y-14110174D02*
X15620182Y-14100650D01*
X15620182Y-14100650D02*
X15658277Y-14100650D01*
X15658277Y-14100650D02*
X15677325Y-14110174D01*
X15753515Y-14310174D02*
X15763039Y-14300650D01*
X15763039Y-14300650D02*
X15782087Y-14272079D01*
X15782087Y-14272079D02*
X15791611Y-14253031D01*
X15791611Y-14253031D02*
X15801134Y-14224460D01*
X15801134Y-14224460D02*
X15810658Y-14176841D01*
X15810658Y-14176841D02*
X15810658Y-14138746D01*
X15810658Y-14138746D02*
X15801134Y-14091127D01*
X15801134Y-14091127D02*
X15791611Y-14062555D01*
X15791611Y-14062555D02*
X15782087Y-14043508D01*
X15782087Y-14043508D02*
X15763039Y-14014936D01*
X15763039Y-14014936D02*
X15753515Y-14005412D01*
M02*
