%TF.GenerationSoftware,KiCad,Pcbnew,8.0.3*%
%TF.CreationDate,2024-07-13T17:14:31+01:00*%
%TF.ProjectId,RS485Board,52533438-3542-46f6-9172-642e6b696361,rev?*%
%TF.SameCoordinates,Original*%
%TF.FileFunction,Legend,Top*%
%TF.FilePolarity,Positive*%
%FSLAX46Y46*%
G04 Gerber Fmt 4.6, Leading zero omitted, Abs format (unit mm)*
G04 Created by KiCad (PCBNEW 8.0.3) date 2024-07-13 17:14:31*
%MOMM*%
%LPD*%
G01*
G04 APERTURE LIST*
%ADD10C,0.150000*%
%ADD11C,0.100000*%
%ADD12C,0.170688*%
%ADD13C,0.500000*%
%ADD14C,0.120000*%
G04 APERTURE END LIST*
D10*
X91925000Y-119000000D02*
X91925000Y-118500000D01*
D11*
X109250000Y-114500000D02*
X109250000Y-110500000D01*
D10*
X91925000Y-125000000D02*
X91425000Y-125000000D01*
D11*
X111250000Y-114500000D02*
X109250000Y-114500000D01*
X114750000Y-110500000D02*
X114750000Y-114500000D01*
X114750000Y-114500000D02*
X112750000Y-114500000D01*
X109250000Y-110500000D02*
X114750000Y-110500000D01*
D10*
X91925000Y-125000000D02*
X92425000Y-125000000D01*
X91925000Y-119000000D02*
X91925000Y-119500000D01*
X91925000Y-125000000D02*
X91925000Y-125500000D01*
X91925000Y-125000000D02*
X91925000Y-124500000D01*
D11*
X110006265Y-111357713D02*
X110053884Y-111310094D01*
X110053884Y-111310094D02*
X110149122Y-111262475D01*
X110149122Y-111262475D02*
X110387217Y-111262475D01*
X110387217Y-111262475D02*
X110482455Y-111310094D01*
X110482455Y-111310094D02*
X110530074Y-111357713D01*
X110530074Y-111357713D02*
X110577693Y-111452951D01*
X110577693Y-111452951D02*
X110577693Y-111548189D01*
X110577693Y-111548189D02*
X110530074Y-111691046D01*
X110530074Y-111691046D02*
X109958646Y-112262475D01*
X109958646Y-112262475D02*
X110577693Y-112262475D01*
X112196741Y-111595808D02*
X112196741Y-112262475D01*
X111958646Y-111214856D02*
X111720551Y-111929141D01*
X111720551Y-111929141D02*
X112339598Y-111929141D01*
X113911027Y-111262475D02*
X113720551Y-111262475D01*
X113720551Y-111262475D02*
X113625313Y-111310094D01*
X113625313Y-111310094D02*
X113577694Y-111357713D01*
X113577694Y-111357713D02*
X113482456Y-111500570D01*
X113482456Y-111500570D02*
X113434837Y-111691046D01*
X113434837Y-111691046D02*
X113434837Y-112071998D01*
X113434837Y-112071998D02*
X113482456Y-112167236D01*
X113482456Y-112167236D02*
X113530075Y-112214856D01*
X113530075Y-112214856D02*
X113625313Y-112262475D01*
X113625313Y-112262475D02*
X113815789Y-112262475D01*
X113815789Y-112262475D02*
X113911027Y-112214856D01*
X113911027Y-112214856D02*
X113958646Y-112167236D01*
X113958646Y-112167236D02*
X114006265Y-112071998D01*
X114006265Y-112071998D02*
X114006265Y-111833903D01*
X114006265Y-111833903D02*
X113958646Y-111738665D01*
X113958646Y-111738665D02*
X113911027Y-111691046D01*
X113911027Y-111691046D02*
X113815789Y-111643427D01*
X113815789Y-111643427D02*
X113625313Y-111643427D01*
X113625313Y-111643427D02*
X113530075Y-111691046D01*
X113530075Y-111691046D02*
X113482456Y-111738665D01*
X113482456Y-111738665D02*
X113434837Y-111833903D01*
X110577693Y-113872419D02*
X110006265Y-113872419D01*
X110291979Y-113872419D02*
X110291979Y-112872419D01*
X110291979Y-112872419D02*
X110196741Y-113015276D01*
X110196741Y-113015276D02*
X110101503Y-113110514D01*
X110101503Y-113110514D02*
X110006265Y-113158133D01*
X111672932Y-112872419D02*
X112291979Y-112872419D01*
X112291979Y-112872419D02*
X111958646Y-113253371D01*
X111958646Y-113253371D02*
X112101503Y-113253371D01*
X112101503Y-113253371D02*
X112196741Y-113300990D01*
X112196741Y-113300990D02*
X112244360Y-113348609D01*
X112244360Y-113348609D02*
X112291979Y-113443847D01*
X112291979Y-113443847D02*
X112291979Y-113681942D01*
X112291979Y-113681942D02*
X112244360Y-113777180D01*
X112244360Y-113777180D02*
X112196741Y-113824800D01*
X112196741Y-113824800D02*
X112101503Y-113872419D01*
X112101503Y-113872419D02*
X111815789Y-113872419D01*
X111815789Y-113872419D02*
X111720551Y-113824800D01*
X111720551Y-113824800D02*
X111672932Y-113777180D01*
X113958646Y-112872419D02*
X113482456Y-112872419D01*
X113482456Y-112872419D02*
X113434837Y-113348609D01*
X113434837Y-113348609D02*
X113482456Y-113300990D01*
X113482456Y-113300990D02*
X113577694Y-113253371D01*
X113577694Y-113253371D02*
X113815789Y-113253371D01*
X113815789Y-113253371D02*
X113911027Y-113300990D01*
X113911027Y-113300990D02*
X113958646Y-113348609D01*
X113958646Y-113348609D02*
X114006265Y-113443847D01*
X114006265Y-113443847D02*
X114006265Y-113681942D01*
X114006265Y-113681942D02*
X113958646Y-113777180D01*
X113958646Y-113777180D02*
X113911027Y-113824800D01*
X113911027Y-113824800D02*
X113815789Y-113872419D01*
X113815789Y-113872419D02*
X113577694Y-113872419D01*
X113577694Y-113872419D02*
X113482456Y-113824800D01*
X113482456Y-113824800D02*
X113434837Y-113777180D01*
X119875312Y-108212755D02*
X119541979Y-107736564D01*
X119303884Y-108212755D02*
X119303884Y-107212755D01*
X119303884Y-107212755D02*
X119684836Y-107212755D01*
X119684836Y-107212755D02*
X119780074Y-107260374D01*
X119780074Y-107260374D02*
X119827693Y-107307993D01*
X119827693Y-107307993D02*
X119875312Y-107403231D01*
X119875312Y-107403231D02*
X119875312Y-107546088D01*
X119875312Y-107546088D02*
X119827693Y-107641326D01*
X119827693Y-107641326D02*
X119780074Y-107688945D01*
X119780074Y-107688945D02*
X119684836Y-107736564D01*
X119684836Y-107736564D02*
X119303884Y-107736564D01*
X120256265Y-108165136D02*
X120399122Y-108212755D01*
X120399122Y-108212755D02*
X120637217Y-108212755D01*
X120637217Y-108212755D02*
X120732455Y-108165136D01*
X120732455Y-108165136D02*
X120780074Y-108117516D01*
X120780074Y-108117516D02*
X120827693Y-108022278D01*
X120827693Y-108022278D02*
X120827693Y-107927040D01*
X120827693Y-107927040D02*
X120780074Y-107831802D01*
X120780074Y-107831802D02*
X120732455Y-107784183D01*
X120732455Y-107784183D02*
X120637217Y-107736564D01*
X120637217Y-107736564D02*
X120446741Y-107688945D01*
X120446741Y-107688945D02*
X120351503Y-107641326D01*
X120351503Y-107641326D02*
X120303884Y-107593707D01*
X120303884Y-107593707D02*
X120256265Y-107498469D01*
X120256265Y-107498469D02*
X120256265Y-107403231D01*
X120256265Y-107403231D02*
X120303884Y-107307993D01*
X120303884Y-107307993D02*
X120351503Y-107260374D01*
X120351503Y-107260374D02*
X120446741Y-107212755D01*
X120446741Y-107212755D02*
X120684836Y-107212755D01*
X120684836Y-107212755D02*
X120827693Y-107260374D01*
X121684836Y-107546088D02*
X121684836Y-108212755D01*
X121446741Y-107165136D02*
X121208646Y-107879421D01*
X121208646Y-107879421D02*
X121827693Y-107879421D01*
X122351503Y-107641326D02*
X122256265Y-107593707D01*
X122256265Y-107593707D02*
X122208646Y-107546088D01*
X122208646Y-107546088D02*
X122161027Y-107450850D01*
X122161027Y-107450850D02*
X122161027Y-107403231D01*
X122161027Y-107403231D02*
X122208646Y-107307993D01*
X122208646Y-107307993D02*
X122256265Y-107260374D01*
X122256265Y-107260374D02*
X122351503Y-107212755D01*
X122351503Y-107212755D02*
X122541979Y-107212755D01*
X122541979Y-107212755D02*
X122637217Y-107260374D01*
X122637217Y-107260374D02*
X122684836Y-107307993D01*
X122684836Y-107307993D02*
X122732455Y-107403231D01*
X122732455Y-107403231D02*
X122732455Y-107450850D01*
X122732455Y-107450850D02*
X122684836Y-107546088D01*
X122684836Y-107546088D02*
X122637217Y-107593707D01*
X122637217Y-107593707D02*
X122541979Y-107641326D01*
X122541979Y-107641326D02*
X122351503Y-107641326D01*
X122351503Y-107641326D02*
X122256265Y-107688945D01*
X122256265Y-107688945D02*
X122208646Y-107736564D01*
X122208646Y-107736564D02*
X122161027Y-107831802D01*
X122161027Y-107831802D02*
X122161027Y-108022278D01*
X122161027Y-108022278D02*
X122208646Y-108117516D01*
X122208646Y-108117516D02*
X122256265Y-108165136D01*
X122256265Y-108165136D02*
X122351503Y-108212755D01*
X122351503Y-108212755D02*
X122541979Y-108212755D01*
X122541979Y-108212755D02*
X122637217Y-108165136D01*
X122637217Y-108165136D02*
X122684836Y-108117516D01*
X122684836Y-108117516D02*
X122732455Y-108022278D01*
X122732455Y-108022278D02*
X122732455Y-107831802D01*
X122732455Y-107831802D02*
X122684836Y-107736564D01*
X122684836Y-107736564D02*
X122637217Y-107688945D01*
X122637217Y-107688945D02*
X122541979Y-107641326D01*
X123637217Y-107212755D02*
X123161027Y-107212755D01*
X123161027Y-107212755D02*
X123113408Y-107688945D01*
X123113408Y-107688945D02*
X123161027Y-107641326D01*
X123161027Y-107641326D02*
X123256265Y-107593707D01*
X123256265Y-107593707D02*
X123494360Y-107593707D01*
X123494360Y-107593707D02*
X123589598Y-107641326D01*
X123589598Y-107641326D02*
X123637217Y-107688945D01*
X123637217Y-107688945D02*
X123684836Y-107784183D01*
X123684836Y-107784183D02*
X123684836Y-108022278D01*
X123684836Y-108022278D02*
X123637217Y-108117516D01*
X123637217Y-108117516D02*
X123589598Y-108165136D01*
X123589598Y-108165136D02*
X123494360Y-108212755D01*
X123494360Y-108212755D02*
X123256265Y-108212755D01*
X123256265Y-108212755D02*
X123161027Y-108165136D01*
X123161027Y-108165136D02*
X123113408Y-108117516D01*
X124732456Y-107546088D02*
X125113408Y-107546088D01*
X124875313Y-107212755D02*
X124875313Y-108069897D01*
X124875313Y-108069897D02*
X124922932Y-108165136D01*
X124922932Y-108165136D02*
X125018170Y-108212755D01*
X125018170Y-108212755D02*
X125113408Y-108212755D01*
X125827694Y-108165136D02*
X125732456Y-108212755D01*
X125732456Y-108212755D02*
X125541980Y-108212755D01*
X125541980Y-108212755D02*
X125446742Y-108165136D01*
X125446742Y-108165136D02*
X125399123Y-108069897D01*
X125399123Y-108069897D02*
X125399123Y-107688945D01*
X125399123Y-107688945D02*
X125446742Y-107593707D01*
X125446742Y-107593707D02*
X125541980Y-107546088D01*
X125541980Y-107546088D02*
X125732456Y-107546088D01*
X125732456Y-107546088D02*
X125827694Y-107593707D01*
X125827694Y-107593707D02*
X125875313Y-107688945D01*
X125875313Y-107688945D02*
X125875313Y-107784183D01*
X125875313Y-107784183D02*
X125399123Y-107879421D01*
X126303885Y-108212755D02*
X126303885Y-107546088D01*
X126303885Y-107736564D02*
X126351504Y-107641326D01*
X126351504Y-107641326D02*
X126399123Y-107593707D01*
X126399123Y-107593707D02*
X126494361Y-107546088D01*
X126494361Y-107546088D02*
X126589599Y-107546088D01*
X126922933Y-108212755D02*
X126922933Y-107546088D01*
X126922933Y-107641326D02*
X126970552Y-107593707D01*
X126970552Y-107593707D02*
X127065790Y-107546088D01*
X127065790Y-107546088D02*
X127208647Y-107546088D01*
X127208647Y-107546088D02*
X127303885Y-107593707D01*
X127303885Y-107593707D02*
X127351504Y-107688945D01*
X127351504Y-107688945D02*
X127351504Y-108212755D01*
X127351504Y-107688945D02*
X127399123Y-107593707D01*
X127399123Y-107593707D02*
X127494361Y-107546088D01*
X127494361Y-107546088D02*
X127637218Y-107546088D01*
X127637218Y-107546088D02*
X127732457Y-107593707D01*
X127732457Y-107593707D02*
X127780076Y-107688945D01*
X127780076Y-107688945D02*
X127780076Y-108212755D01*
X128256266Y-108212755D02*
X128256266Y-107546088D01*
X128256266Y-107212755D02*
X128208647Y-107260374D01*
X128208647Y-107260374D02*
X128256266Y-107307993D01*
X128256266Y-107307993D02*
X128303885Y-107260374D01*
X128303885Y-107260374D02*
X128256266Y-107212755D01*
X128256266Y-107212755D02*
X128256266Y-107307993D01*
X128732456Y-107546088D02*
X128732456Y-108212755D01*
X128732456Y-107641326D02*
X128780075Y-107593707D01*
X128780075Y-107593707D02*
X128875313Y-107546088D01*
X128875313Y-107546088D02*
X129018170Y-107546088D01*
X129018170Y-107546088D02*
X129113408Y-107593707D01*
X129113408Y-107593707D02*
X129161027Y-107688945D01*
X129161027Y-107688945D02*
X129161027Y-108212755D01*
X130065789Y-108212755D02*
X130065789Y-107688945D01*
X130065789Y-107688945D02*
X130018170Y-107593707D01*
X130018170Y-107593707D02*
X129922932Y-107546088D01*
X129922932Y-107546088D02*
X129732456Y-107546088D01*
X129732456Y-107546088D02*
X129637218Y-107593707D01*
X130065789Y-108165136D02*
X129970551Y-108212755D01*
X129970551Y-108212755D02*
X129732456Y-108212755D01*
X129732456Y-108212755D02*
X129637218Y-108165136D01*
X129637218Y-108165136D02*
X129589599Y-108069897D01*
X129589599Y-108069897D02*
X129589599Y-107974659D01*
X129589599Y-107974659D02*
X129637218Y-107879421D01*
X129637218Y-107879421D02*
X129732456Y-107831802D01*
X129732456Y-107831802D02*
X129970551Y-107831802D01*
X129970551Y-107831802D02*
X130065789Y-107784183D01*
X130399123Y-107546088D02*
X130780075Y-107546088D01*
X130541980Y-107212755D02*
X130541980Y-108069897D01*
X130541980Y-108069897D02*
X130589599Y-108165136D01*
X130589599Y-108165136D02*
X130684837Y-108212755D01*
X130684837Y-108212755D02*
X130780075Y-108212755D01*
X131113409Y-108212755D02*
X131113409Y-107546088D01*
X131113409Y-107212755D02*
X131065790Y-107260374D01*
X131065790Y-107260374D02*
X131113409Y-107307993D01*
X131113409Y-107307993D02*
X131161028Y-107260374D01*
X131161028Y-107260374D02*
X131113409Y-107212755D01*
X131113409Y-107212755D02*
X131113409Y-107307993D01*
X131732456Y-108212755D02*
X131637218Y-108165136D01*
X131637218Y-108165136D02*
X131589599Y-108117516D01*
X131589599Y-108117516D02*
X131541980Y-108022278D01*
X131541980Y-108022278D02*
X131541980Y-107736564D01*
X131541980Y-107736564D02*
X131589599Y-107641326D01*
X131589599Y-107641326D02*
X131637218Y-107593707D01*
X131637218Y-107593707D02*
X131732456Y-107546088D01*
X131732456Y-107546088D02*
X131875313Y-107546088D01*
X131875313Y-107546088D02*
X131970551Y-107593707D01*
X131970551Y-107593707D02*
X132018170Y-107641326D01*
X132018170Y-107641326D02*
X132065789Y-107736564D01*
X132065789Y-107736564D02*
X132065789Y-108022278D01*
X132065789Y-108022278D02*
X132018170Y-108117516D01*
X132018170Y-108117516D02*
X131970551Y-108165136D01*
X131970551Y-108165136D02*
X131875313Y-108212755D01*
X131875313Y-108212755D02*
X131732456Y-108212755D01*
X132494361Y-107546088D02*
X132494361Y-108212755D01*
X132494361Y-107641326D02*
X132541980Y-107593707D01*
X132541980Y-107593707D02*
X132637218Y-107546088D01*
X132637218Y-107546088D02*
X132780075Y-107546088D01*
X132780075Y-107546088D02*
X132875313Y-107593707D01*
X132875313Y-107593707D02*
X132922932Y-107688945D01*
X132922932Y-107688945D02*
X132922932Y-108212755D01*
X119732455Y-109822699D02*
X119732455Y-109298889D01*
X119732455Y-109298889D02*
X119684836Y-109203651D01*
X119684836Y-109203651D02*
X119589598Y-109156032D01*
X119589598Y-109156032D02*
X119399122Y-109156032D01*
X119399122Y-109156032D02*
X119303884Y-109203651D01*
X119732455Y-109775080D02*
X119637217Y-109822699D01*
X119637217Y-109822699D02*
X119399122Y-109822699D01*
X119399122Y-109822699D02*
X119303884Y-109775080D01*
X119303884Y-109775080D02*
X119256265Y-109679841D01*
X119256265Y-109679841D02*
X119256265Y-109584603D01*
X119256265Y-109584603D02*
X119303884Y-109489365D01*
X119303884Y-109489365D02*
X119399122Y-109441746D01*
X119399122Y-109441746D02*
X119637217Y-109441746D01*
X119637217Y-109441746D02*
X119732455Y-109394127D01*
X120208646Y-109156032D02*
X120208646Y-109822699D01*
X120208646Y-109251270D02*
X120256265Y-109203651D01*
X120256265Y-109203651D02*
X120351503Y-109156032D01*
X120351503Y-109156032D02*
X120494360Y-109156032D01*
X120494360Y-109156032D02*
X120589598Y-109203651D01*
X120589598Y-109203651D02*
X120637217Y-109298889D01*
X120637217Y-109298889D02*
X120637217Y-109822699D01*
X121541979Y-109822699D02*
X121541979Y-108822699D01*
X121541979Y-109775080D02*
X121446741Y-109822699D01*
X121446741Y-109822699D02*
X121256265Y-109822699D01*
X121256265Y-109822699D02*
X121161027Y-109775080D01*
X121161027Y-109775080D02*
X121113408Y-109727460D01*
X121113408Y-109727460D02*
X121065789Y-109632222D01*
X121065789Y-109632222D02*
X121065789Y-109346508D01*
X121065789Y-109346508D02*
X121113408Y-109251270D01*
X121113408Y-109251270D02*
X121161027Y-109203651D01*
X121161027Y-109203651D02*
X121256265Y-109156032D01*
X121256265Y-109156032D02*
X121446741Y-109156032D01*
X121446741Y-109156032D02*
X121541979Y-109203651D01*
X122780075Y-109156032D02*
X122780075Y-110156032D01*
X122780075Y-109203651D02*
X122875313Y-109156032D01*
X122875313Y-109156032D02*
X123065789Y-109156032D01*
X123065789Y-109156032D02*
X123161027Y-109203651D01*
X123161027Y-109203651D02*
X123208646Y-109251270D01*
X123208646Y-109251270D02*
X123256265Y-109346508D01*
X123256265Y-109346508D02*
X123256265Y-109632222D01*
X123256265Y-109632222D02*
X123208646Y-109727460D01*
X123208646Y-109727460D02*
X123161027Y-109775080D01*
X123161027Y-109775080D02*
X123065789Y-109822699D01*
X123065789Y-109822699D02*
X122875313Y-109822699D01*
X122875313Y-109822699D02*
X122780075Y-109775080D01*
X123827694Y-109822699D02*
X123732456Y-109775080D01*
X123732456Y-109775080D02*
X123684837Y-109727460D01*
X123684837Y-109727460D02*
X123637218Y-109632222D01*
X123637218Y-109632222D02*
X123637218Y-109346508D01*
X123637218Y-109346508D02*
X123684837Y-109251270D01*
X123684837Y-109251270D02*
X123732456Y-109203651D01*
X123732456Y-109203651D02*
X123827694Y-109156032D01*
X123827694Y-109156032D02*
X123970551Y-109156032D01*
X123970551Y-109156032D02*
X124065789Y-109203651D01*
X124065789Y-109203651D02*
X124113408Y-109251270D01*
X124113408Y-109251270D02*
X124161027Y-109346508D01*
X124161027Y-109346508D02*
X124161027Y-109632222D01*
X124161027Y-109632222D02*
X124113408Y-109727460D01*
X124113408Y-109727460D02*
X124065789Y-109775080D01*
X124065789Y-109775080D02*
X123970551Y-109822699D01*
X123970551Y-109822699D02*
X123827694Y-109822699D01*
X124494361Y-109156032D02*
X124684837Y-109822699D01*
X124684837Y-109822699D02*
X124875313Y-109346508D01*
X124875313Y-109346508D02*
X125065789Y-109822699D01*
X125065789Y-109822699D02*
X125256265Y-109156032D01*
X126018170Y-109775080D02*
X125922932Y-109822699D01*
X125922932Y-109822699D02*
X125732456Y-109822699D01*
X125732456Y-109822699D02*
X125637218Y-109775080D01*
X125637218Y-109775080D02*
X125589599Y-109679841D01*
X125589599Y-109679841D02*
X125589599Y-109298889D01*
X125589599Y-109298889D02*
X125637218Y-109203651D01*
X125637218Y-109203651D02*
X125732456Y-109156032D01*
X125732456Y-109156032D02*
X125922932Y-109156032D01*
X125922932Y-109156032D02*
X126018170Y-109203651D01*
X126018170Y-109203651D02*
X126065789Y-109298889D01*
X126065789Y-109298889D02*
X126065789Y-109394127D01*
X126065789Y-109394127D02*
X125589599Y-109489365D01*
X126494361Y-109822699D02*
X126494361Y-109156032D01*
X126494361Y-109346508D02*
X126541980Y-109251270D01*
X126541980Y-109251270D02*
X126589599Y-109203651D01*
X126589599Y-109203651D02*
X126684837Y-109156032D01*
X126684837Y-109156032D02*
X126780075Y-109156032D01*
X127875314Y-109822699D02*
X127875314Y-108822699D01*
X127875314Y-109203651D02*
X127970552Y-109156032D01*
X127970552Y-109156032D02*
X128161028Y-109156032D01*
X128161028Y-109156032D02*
X128256266Y-109203651D01*
X128256266Y-109203651D02*
X128303885Y-109251270D01*
X128303885Y-109251270D02*
X128351504Y-109346508D01*
X128351504Y-109346508D02*
X128351504Y-109632222D01*
X128351504Y-109632222D02*
X128303885Y-109727460D01*
X128303885Y-109727460D02*
X128256266Y-109775080D01*
X128256266Y-109775080D02*
X128161028Y-109822699D01*
X128161028Y-109822699D02*
X127970552Y-109822699D01*
X127970552Y-109822699D02*
X127875314Y-109775080D01*
X128922933Y-109822699D02*
X128827695Y-109775080D01*
X128827695Y-109775080D02*
X128780076Y-109727460D01*
X128780076Y-109727460D02*
X128732457Y-109632222D01*
X128732457Y-109632222D02*
X128732457Y-109346508D01*
X128732457Y-109346508D02*
X128780076Y-109251270D01*
X128780076Y-109251270D02*
X128827695Y-109203651D01*
X128827695Y-109203651D02*
X128922933Y-109156032D01*
X128922933Y-109156032D02*
X129065790Y-109156032D01*
X129065790Y-109156032D02*
X129161028Y-109203651D01*
X129161028Y-109203651D02*
X129208647Y-109251270D01*
X129208647Y-109251270D02*
X129256266Y-109346508D01*
X129256266Y-109346508D02*
X129256266Y-109632222D01*
X129256266Y-109632222D02*
X129208647Y-109727460D01*
X129208647Y-109727460D02*
X129161028Y-109775080D01*
X129161028Y-109775080D02*
X129065790Y-109822699D01*
X129065790Y-109822699D02*
X128922933Y-109822699D01*
X130113409Y-109822699D02*
X130113409Y-109298889D01*
X130113409Y-109298889D02*
X130065790Y-109203651D01*
X130065790Y-109203651D02*
X129970552Y-109156032D01*
X129970552Y-109156032D02*
X129780076Y-109156032D01*
X129780076Y-109156032D02*
X129684838Y-109203651D01*
X130113409Y-109775080D02*
X130018171Y-109822699D01*
X130018171Y-109822699D02*
X129780076Y-109822699D01*
X129780076Y-109822699D02*
X129684838Y-109775080D01*
X129684838Y-109775080D02*
X129637219Y-109679841D01*
X129637219Y-109679841D02*
X129637219Y-109584603D01*
X129637219Y-109584603D02*
X129684838Y-109489365D01*
X129684838Y-109489365D02*
X129780076Y-109441746D01*
X129780076Y-109441746D02*
X130018171Y-109441746D01*
X130018171Y-109441746D02*
X130113409Y-109394127D01*
X130589600Y-109822699D02*
X130589600Y-109156032D01*
X130589600Y-109346508D02*
X130637219Y-109251270D01*
X130637219Y-109251270D02*
X130684838Y-109203651D01*
X130684838Y-109203651D02*
X130780076Y-109156032D01*
X130780076Y-109156032D02*
X130875314Y-109156032D01*
X131637219Y-109822699D02*
X131637219Y-108822699D01*
X131637219Y-109775080D02*
X131541981Y-109822699D01*
X131541981Y-109822699D02*
X131351505Y-109822699D01*
X131351505Y-109822699D02*
X131256267Y-109775080D01*
X131256267Y-109775080D02*
X131208648Y-109727460D01*
X131208648Y-109727460D02*
X131161029Y-109632222D01*
X131161029Y-109632222D02*
X131161029Y-109346508D01*
X131161029Y-109346508D02*
X131208648Y-109251270D01*
X131208648Y-109251270D02*
X131256267Y-109203651D01*
X131256267Y-109203651D02*
X131351505Y-109156032D01*
X131351505Y-109156032D02*
X131541981Y-109156032D01*
X131541981Y-109156032D02*
X131637219Y-109203651D01*
X119303884Y-111432643D02*
X119303884Y-110432643D01*
X119303884Y-110432643D02*
X119684836Y-110432643D01*
X119684836Y-110432643D02*
X119780074Y-110480262D01*
X119780074Y-110480262D02*
X119827693Y-110527881D01*
X119827693Y-110527881D02*
X119875312Y-110623119D01*
X119875312Y-110623119D02*
X119875312Y-110765976D01*
X119875312Y-110765976D02*
X119827693Y-110861214D01*
X119827693Y-110861214D02*
X119780074Y-110908833D01*
X119780074Y-110908833D02*
X119684836Y-110956452D01*
X119684836Y-110956452D02*
X119303884Y-110956452D01*
X120303884Y-111432643D02*
X120303884Y-110765976D01*
X120303884Y-110432643D02*
X120256265Y-110480262D01*
X120256265Y-110480262D02*
X120303884Y-110527881D01*
X120303884Y-110527881D02*
X120351503Y-110480262D01*
X120351503Y-110480262D02*
X120303884Y-110432643D01*
X120303884Y-110432643D02*
X120303884Y-110527881D01*
X120780074Y-110765976D02*
X120780074Y-111432643D01*
X120780074Y-110861214D02*
X120827693Y-110813595D01*
X120827693Y-110813595D02*
X120922931Y-110765976D01*
X120922931Y-110765976D02*
X121065788Y-110765976D01*
X121065788Y-110765976D02*
X121161026Y-110813595D01*
X121161026Y-110813595D02*
X121208645Y-110908833D01*
X121208645Y-110908833D02*
X121208645Y-111432643D01*
X121827693Y-111432643D02*
X121732455Y-111385024D01*
X121732455Y-111385024D02*
X121684836Y-111337404D01*
X121684836Y-111337404D02*
X121637217Y-111242166D01*
X121637217Y-111242166D02*
X121637217Y-110956452D01*
X121637217Y-110956452D02*
X121684836Y-110861214D01*
X121684836Y-110861214D02*
X121732455Y-110813595D01*
X121732455Y-110813595D02*
X121827693Y-110765976D01*
X121827693Y-110765976D02*
X121970550Y-110765976D01*
X121970550Y-110765976D02*
X122065788Y-110813595D01*
X122065788Y-110813595D02*
X122113407Y-110861214D01*
X122113407Y-110861214D02*
X122161026Y-110956452D01*
X122161026Y-110956452D02*
X122161026Y-111242166D01*
X122161026Y-111242166D02*
X122113407Y-111337404D01*
X122113407Y-111337404D02*
X122065788Y-111385024D01*
X122065788Y-111385024D02*
X121970550Y-111432643D01*
X121970550Y-111432643D02*
X121827693Y-111432643D01*
X123018169Y-110765976D02*
X123018169Y-111432643D01*
X122589598Y-110765976D02*
X122589598Y-111289785D01*
X122589598Y-111289785D02*
X122637217Y-111385024D01*
X122637217Y-111385024D02*
X122732455Y-111432643D01*
X122732455Y-111432643D02*
X122875312Y-111432643D01*
X122875312Y-111432643D02*
X122970550Y-111385024D01*
X122970550Y-111385024D02*
X123018169Y-111337404D01*
X123351503Y-110765976D02*
X123732455Y-110765976D01*
X123494360Y-110432643D02*
X123494360Y-111289785D01*
X123494360Y-111289785D02*
X123541979Y-111385024D01*
X123541979Y-111385024D02*
X123637217Y-111432643D01*
X123637217Y-111432643D02*
X123732455Y-111432643D01*
X124065789Y-111337404D02*
X124113408Y-111385024D01*
X124113408Y-111385024D02*
X124065789Y-111432643D01*
X124065789Y-111432643D02*
X124018170Y-111385024D01*
X124018170Y-111385024D02*
X124065789Y-111337404D01*
X124065789Y-111337404D02*
X124065789Y-111432643D01*
X124065789Y-110813595D02*
X124113408Y-110861214D01*
X124113408Y-110861214D02*
X124065789Y-110908833D01*
X124065789Y-110908833D02*
X124018170Y-110861214D01*
X124018170Y-110861214D02*
X124065789Y-110813595D01*
X124065789Y-110813595D02*
X124065789Y-110908833D01*
X119827693Y-113042587D02*
X119256265Y-113042587D01*
X119541979Y-113042587D02*
X119541979Y-112042587D01*
X119541979Y-112042587D02*
X119446741Y-112185444D01*
X119446741Y-112185444D02*
X119351503Y-112280682D01*
X119351503Y-112280682D02*
X119256265Y-112328301D01*
X121018170Y-112661634D02*
X121780075Y-112661634D01*
X123589598Y-113042587D02*
X123256265Y-112566396D01*
X123018170Y-113042587D02*
X123018170Y-112042587D01*
X123018170Y-112042587D02*
X123399122Y-112042587D01*
X123399122Y-112042587D02*
X123494360Y-112090206D01*
X123494360Y-112090206D02*
X123541979Y-112137825D01*
X123541979Y-112137825D02*
X123589598Y-112233063D01*
X123589598Y-112233063D02*
X123589598Y-112375920D01*
X123589598Y-112375920D02*
X123541979Y-112471158D01*
X123541979Y-112471158D02*
X123494360Y-112518777D01*
X123494360Y-112518777D02*
X123399122Y-112566396D01*
X123399122Y-112566396D02*
X123018170Y-112566396D01*
X123970551Y-112994968D02*
X124113408Y-113042587D01*
X124113408Y-113042587D02*
X124351503Y-113042587D01*
X124351503Y-113042587D02*
X124446741Y-112994968D01*
X124446741Y-112994968D02*
X124494360Y-112947348D01*
X124494360Y-112947348D02*
X124541979Y-112852110D01*
X124541979Y-112852110D02*
X124541979Y-112756872D01*
X124541979Y-112756872D02*
X124494360Y-112661634D01*
X124494360Y-112661634D02*
X124446741Y-112614015D01*
X124446741Y-112614015D02*
X124351503Y-112566396D01*
X124351503Y-112566396D02*
X124161027Y-112518777D01*
X124161027Y-112518777D02*
X124065789Y-112471158D01*
X124065789Y-112471158D02*
X124018170Y-112423539D01*
X124018170Y-112423539D02*
X123970551Y-112328301D01*
X123970551Y-112328301D02*
X123970551Y-112233063D01*
X123970551Y-112233063D02*
X124018170Y-112137825D01*
X124018170Y-112137825D02*
X124065789Y-112090206D01*
X124065789Y-112090206D02*
X124161027Y-112042587D01*
X124161027Y-112042587D02*
X124399122Y-112042587D01*
X124399122Y-112042587D02*
X124541979Y-112090206D01*
X125399122Y-112375920D02*
X125399122Y-113042587D01*
X125161027Y-111994968D02*
X124922932Y-112709253D01*
X124922932Y-112709253D02*
X125541979Y-112709253D01*
X126065789Y-112471158D02*
X125970551Y-112423539D01*
X125970551Y-112423539D02*
X125922932Y-112375920D01*
X125922932Y-112375920D02*
X125875313Y-112280682D01*
X125875313Y-112280682D02*
X125875313Y-112233063D01*
X125875313Y-112233063D02*
X125922932Y-112137825D01*
X125922932Y-112137825D02*
X125970551Y-112090206D01*
X125970551Y-112090206D02*
X126065789Y-112042587D01*
X126065789Y-112042587D02*
X126256265Y-112042587D01*
X126256265Y-112042587D02*
X126351503Y-112090206D01*
X126351503Y-112090206D02*
X126399122Y-112137825D01*
X126399122Y-112137825D02*
X126446741Y-112233063D01*
X126446741Y-112233063D02*
X126446741Y-112280682D01*
X126446741Y-112280682D02*
X126399122Y-112375920D01*
X126399122Y-112375920D02*
X126351503Y-112423539D01*
X126351503Y-112423539D02*
X126256265Y-112471158D01*
X126256265Y-112471158D02*
X126065789Y-112471158D01*
X126065789Y-112471158D02*
X125970551Y-112518777D01*
X125970551Y-112518777D02*
X125922932Y-112566396D01*
X125922932Y-112566396D02*
X125875313Y-112661634D01*
X125875313Y-112661634D02*
X125875313Y-112852110D01*
X125875313Y-112852110D02*
X125922932Y-112947348D01*
X125922932Y-112947348D02*
X125970551Y-112994968D01*
X125970551Y-112994968D02*
X126065789Y-113042587D01*
X126065789Y-113042587D02*
X126256265Y-113042587D01*
X126256265Y-113042587D02*
X126351503Y-112994968D01*
X126351503Y-112994968D02*
X126399122Y-112947348D01*
X126399122Y-112947348D02*
X126446741Y-112852110D01*
X126446741Y-112852110D02*
X126446741Y-112661634D01*
X126446741Y-112661634D02*
X126399122Y-112566396D01*
X126399122Y-112566396D02*
X126351503Y-112518777D01*
X126351503Y-112518777D02*
X126256265Y-112471158D01*
X127351503Y-112042587D02*
X126875313Y-112042587D01*
X126875313Y-112042587D02*
X126827694Y-112518777D01*
X126827694Y-112518777D02*
X126875313Y-112471158D01*
X126875313Y-112471158D02*
X126970551Y-112423539D01*
X126970551Y-112423539D02*
X127208646Y-112423539D01*
X127208646Y-112423539D02*
X127303884Y-112471158D01*
X127303884Y-112471158D02*
X127351503Y-112518777D01*
X127351503Y-112518777D02*
X127399122Y-112614015D01*
X127399122Y-112614015D02*
X127399122Y-112852110D01*
X127399122Y-112852110D02*
X127351503Y-112947348D01*
X127351503Y-112947348D02*
X127303884Y-112994968D01*
X127303884Y-112994968D02*
X127208646Y-113042587D01*
X127208646Y-113042587D02*
X126970551Y-113042587D01*
X126970551Y-113042587D02*
X126875313Y-112994968D01*
X126875313Y-112994968D02*
X126827694Y-112947348D01*
X128922932Y-112518777D02*
X129065789Y-112566396D01*
X129065789Y-112566396D02*
X129113408Y-112614015D01*
X129113408Y-112614015D02*
X129161027Y-112709253D01*
X129161027Y-112709253D02*
X129161027Y-112852110D01*
X129161027Y-112852110D02*
X129113408Y-112947348D01*
X129113408Y-112947348D02*
X129065789Y-112994968D01*
X129065789Y-112994968D02*
X128970551Y-113042587D01*
X128970551Y-113042587D02*
X128589599Y-113042587D01*
X128589599Y-113042587D02*
X128589599Y-112042587D01*
X128589599Y-112042587D02*
X128922932Y-112042587D01*
X128922932Y-112042587D02*
X129018170Y-112090206D01*
X129018170Y-112090206D02*
X129065789Y-112137825D01*
X129065789Y-112137825D02*
X129113408Y-112233063D01*
X129113408Y-112233063D02*
X129113408Y-112328301D01*
X129113408Y-112328301D02*
X129065789Y-112423539D01*
X129065789Y-112423539D02*
X129018170Y-112471158D01*
X129018170Y-112471158D02*
X128922932Y-112518777D01*
X128922932Y-112518777D02*
X128589599Y-112518777D01*
X119256265Y-113747769D02*
X119303884Y-113700150D01*
X119303884Y-113700150D02*
X119399122Y-113652531D01*
X119399122Y-113652531D02*
X119637217Y-113652531D01*
X119637217Y-113652531D02*
X119732455Y-113700150D01*
X119732455Y-113700150D02*
X119780074Y-113747769D01*
X119780074Y-113747769D02*
X119827693Y-113843007D01*
X119827693Y-113843007D02*
X119827693Y-113938245D01*
X119827693Y-113938245D02*
X119780074Y-114081102D01*
X119780074Y-114081102D02*
X119208646Y-114652531D01*
X119208646Y-114652531D02*
X119827693Y-114652531D01*
X121018170Y-114271578D02*
X121780075Y-114271578D01*
X123589598Y-114652531D02*
X123256265Y-114176340D01*
X123018170Y-114652531D02*
X123018170Y-113652531D01*
X123018170Y-113652531D02*
X123399122Y-113652531D01*
X123399122Y-113652531D02*
X123494360Y-113700150D01*
X123494360Y-113700150D02*
X123541979Y-113747769D01*
X123541979Y-113747769D02*
X123589598Y-113843007D01*
X123589598Y-113843007D02*
X123589598Y-113985864D01*
X123589598Y-113985864D02*
X123541979Y-114081102D01*
X123541979Y-114081102D02*
X123494360Y-114128721D01*
X123494360Y-114128721D02*
X123399122Y-114176340D01*
X123399122Y-114176340D02*
X123018170Y-114176340D01*
X123970551Y-114604912D02*
X124113408Y-114652531D01*
X124113408Y-114652531D02*
X124351503Y-114652531D01*
X124351503Y-114652531D02*
X124446741Y-114604912D01*
X124446741Y-114604912D02*
X124494360Y-114557292D01*
X124494360Y-114557292D02*
X124541979Y-114462054D01*
X124541979Y-114462054D02*
X124541979Y-114366816D01*
X124541979Y-114366816D02*
X124494360Y-114271578D01*
X124494360Y-114271578D02*
X124446741Y-114223959D01*
X124446741Y-114223959D02*
X124351503Y-114176340D01*
X124351503Y-114176340D02*
X124161027Y-114128721D01*
X124161027Y-114128721D02*
X124065789Y-114081102D01*
X124065789Y-114081102D02*
X124018170Y-114033483D01*
X124018170Y-114033483D02*
X123970551Y-113938245D01*
X123970551Y-113938245D02*
X123970551Y-113843007D01*
X123970551Y-113843007D02*
X124018170Y-113747769D01*
X124018170Y-113747769D02*
X124065789Y-113700150D01*
X124065789Y-113700150D02*
X124161027Y-113652531D01*
X124161027Y-113652531D02*
X124399122Y-113652531D01*
X124399122Y-113652531D02*
X124541979Y-113700150D01*
X125399122Y-113985864D02*
X125399122Y-114652531D01*
X125161027Y-113604912D02*
X124922932Y-114319197D01*
X124922932Y-114319197D02*
X125541979Y-114319197D01*
X126065789Y-114081102D02*
X125970551Y-114033483D01*
X125970551Y-114033483D02*
X125922932Y-113985864D01*
X125922932Y-113985864D02*
X125875313Y-113890626D01*
X125875313Y-113890626D02*
X125875313Y-113843007D01*
X125875313Y-113843007D02*
X125922932Y-113747769D01*
X125922932Y-113747769D02*
X125970551Y-113700150D01*
X125970551Y-113700150D02*
X126065789Y-113652531D01*
X126065789Y-113652531D02*
X126256265Y-113652531D01*
X126256265Y-113652531D02*
X126351503Y-113700150D01*
X126351503Y-113700150D02*
X126399122Y-113747769D01*
X126399122Y-113747769D02*
X126446741Y-113843007D01*
X126446741Y-113843007D02*
X126446741Y-113890626D01*
X126446741Y-113890626D02*
X126399122Y-113985864D01*
X126399122Y-113985864D02*
X126351503Y-114033483D01*
X126351503Y-114033483D02*
X126256265Y-114081102D01*
X126256265Y-114081102D02*
X126065789Y-114081102D01*
X126065789Y-114081102D02*
X125970551Y-114128721D01*
X125970551Y-114128721D02*
X125922932Y-114176340D01*
X125922932Y-114176340D02*
X125875313Y-114271578D01*
X125875313Y-114271578D02*
X125875313Y-114462054D01*
X125875313Y-114462054D02*
X125922932Y-114557292D01*
X125922932Y-114557292D02*
X125970551Y-114604912D01*
X125970551Y-114604912D02*
X126065789Y-114652531D01*
X126065789Y-114652531D02*
X126256265Y-114652531D01*
X126256265Y-114652531D02*
X126351503Y-114604912D01*
X126351503Y-114604912D02*
X126399122Y-114557292D01*
X126399122Y-114557292D02*
X126446741Y-114462054D01*
X126446741Y-114462054D02*
X126446741Y-114271578D01*
X126446741Y-114271578D02*
X126399122Y-114176340D01*
X126399122Y-114176340D02*
X126351503Y-114128721D01*
X126351503Y-114128721D02*
X126256265Y-114081102D01*
X127351503Y-113652531D02*
X126875313Y-113652531D01*
X126875313Y-113652531D02*
X126827694Y-114128721D01*
X126827694Y-114128721D02*
X126875313Y-114081102D01*
X126875313Y-114081102D02*
X126970551Y-114033483D01*
X126970551Y-114033483D02*
X127208646Y-114033483D01*
X127208646Y-114033483D02*
X127303884Y-114081102D01*
X127303884Y-114081102D02*
X127351503Y-114128721D01*
X127351503Y-114128721D02*
X127399122Y-114223959D01*
X127399122Y-114223959D02*
X127399122Y-114462054D01*
X127399122Y-114462054D02*
X127351503Y-114557292D01*
X127351503Y-114557292D02*
X127303884Y-114604912D01*
X127303884Y-114604912D02*
X127208646Y-114652531D01*
X127208646Y-114652531D02*
X126970551Y-114652531D01*
X126970551Y-114652531D02*
X126875313Y-114604912D01*
X126875313Y-114604912D02*
X126827694Y-114557292D01*
X128541980Y-114366816D02*
X129018170Y-114366816D01*
X128446742Y-114652531D02*
X128780075Y-113652531D01*
X128780075Y-113652531D02*
X129113408Y-114652531D01*
X119208646Y-115262475D02*
X119827693Y-115262475D01*
X119827693Y-115262475D02*
X119494360Y-115643427D01*
X119494360Y-115643427D02*
X119637217Y-115643427D01*
X119637217Y-115643427D02*
X119732455Y-115691046D01*
X119732455Y-115691046D02*
X119780074Y-115738665D01*
X119780074Y-115738665D02*
X119827693Y-115833903D01*
X119827693Y-115833903D02*
X119827693Y-116071998D01*
X119827693Y-116071998D02*
X119780074Y-116167236D01*
X119780074Y-116167236D02*
X119732455Y-116214856D01*
X119732455Y-116214856D02*
X119637217Y-116262475D01*
X119637217Y-116262475D02*
X119351503Y-116262475D01*
X119351503Y-116262475D02*
X119256265Y-116214856D01*
X119256265Y-116214856D02*
X119208646Y-116167236D01*
X120303884Y-116214856D02*
X120303884Y-116262475D01*
X120303884Y-116262475D02*
X120256265Y-116357713D01*
X120256265Y-116357713D02*
X120208646Y-116405332D01*
X121922931Y-115595808D02*
X121922931Y-116262475D01*
X121684836Y-115214856D02*
X121446741Y-115929141D01*
X121446741Y-115929141D02*
X122065788Y-115929141D01*
X123208646Y-115881522D02*
X123970551Y-115881522D01*
X125732455Y-115310094D02*
X125637217Y-115262475D01*
X125637217Y-115262475D02*
X125494360Y-115262475D01*
X125494360Y-115262475D02*
X125351503Y-115310094D01*
X125351503Y-115310094D02*
X125256265Y-115405332D01*
X125256265Y-115405332D02*
X125208646Y-115500570D01*
X125208646Y-115500570D02*
X125161027Y-115691046D01*
X125161027Y-115691046D02*
X125161027Y-115833903D01*
X125161027Y-115833903D02*
X125208646Y-116024379D01*
X125208646Y-116024379D02*
X125256265Y-116119617D01*
X125256265Y-116119617D02*
X125351503Y-116214856D01*
X125351503Y-116214856D02*
X125494360Y-116262475D01*
X125494360Y-116262475D02*
X125589598Y-116262475D01*
X125589598Y-116262475D02*
X125732455Y-116214856D01*
X125732455Y-116214856D02*
X125780074Y-116167236D01*
X125780074Y-116167236D02*
X125780074Y-115833903D01*
X125780074Y-115833903D02*
X125589598Y-115833903D01*
X126208646Y-116262475D02*
X126208646Y-115262475D01*
X126208646Y-115262475D02*
X126780074Y-116262475D01*
X126780074Y-116262475D02*
X126780074Y-115262475D01*
X127256265Y-116262475D02*
X127256265Y-115262475D01*
X127256265Y-115262475D02*
X127494360Y-115262475D01*
X127494360Y-115262475D02*
X127637217Y-115310094D01*
X127637217Y-115310094D02*
X127732455Y-115405332D01*
X127732455Y-115405332D02*
X127780074Y-115500570D01*
X127780074Y-115500570D02*
X127827693Y-115691046D01*
X127827693Y-115691046D02*
X127827693Y-115833903D01*
X127827693Y-115833903D02*
X127780074Y-116024379D01*
X127780074Y-116024379D02*
X127732455Y-116119617D01*
X127732455Y-116119617D02*
X127637217Y-116214856D01*
X127637217Y-116214856D02*
X127494360Y-116262475D01*
X127494360Y-116262475D02*
X127256265Y-116262475D01*
X119780074Y-116872419D02*
X119303884Y-116872419D01*
X119303884Y-116872419D02*
X119256265Y-117348609D01*
X119256265Y-117348609D02*
X119303884Y-117300990D01*
X119303884Y-117300990D02*
X119399122Y-117253371D01*
X119399122Y-117253371D02*
X119637217Y-117253371D01*
X119637217Y-117253371D02*
X119732455Y-117300990D01*
X119732455Y-117300990D02*
X119780074Y-117348609D01*
X119780074Y-117348609D02*
X119827693Y-117443847D01*
X119827693Y-117443847D02*
X119827693Y-117681942D01*
X119827693Y-117681942D02*
X119780074Y-117777180D01*
X119780074Y-117777180D02*
X119732455Y-117824800D01*
X119732455Y-117824800D02*
X119637217Y-117872419D01*
X119637217Y-117872419D02*
X119399122Y-117872419D01*
X119399122Y-117872419D02*
X119303884Y-117824800D01*
X119303884Y-117824800D02*
X119256265Y-117777180D01*
X120303884Y-117824800D02*
X120303884Y-117872419D01*
X120303884Y-117872419D02*
X120256265Y-117967657D01*
X120256265Y-117967657D02*
X120208646Y-118015276D01*
X121922931Y-116872419D02*
X121732455Y-116872419D01*
X121732455Y-116872419D02*
X121637217Y-116920038D01*
X121637217Y-116920038D02*
X121589598Y-116967657D01*
X121589598Y-116967657D02*
X121494360Y-117110514D01*
X121494360Y-117110514D02*
X121446741Y-117300990D01*
X121446741Y-117300990D02*
X121446741Y-117681942D01*
X121446741Y-117681942D02*
X121494360Y-117777180D01*
X121494360Y-117777180D02*
X121541979Y-117824800D01*
X121541979Y-117824800D02*
X121637217Y-117872419D01*
X121637217Y-117872419D02*
X121827693Y-117872419D01*
X121827693Y-117872419D02*
X121922931Y-117824800D01*
X121922931Y-117824800D02*
X121970550Y-117777180D01*
X121970550Y-117777180D02*
X122018169Y-117681942D01*
X122018169Y-117681942D02*
X122018169Y-117443847D01*
X122018169Y-117443847D02*
X121970550Y-117348609D01*
X121970550Y-117348609D02*
X121922931Y-117300990D01*
X121922931Y-117300990D02*
X121827693Y-117253371D01*
X121827693Y-117253371D02*
X121637217Y-117253371D01*
X121637217Y-117253371D02*
X121541979Y-117300990D01*
X121541979Y-117300990D02*
X121494360Y-117348609D01*
X121494360Y-117348609D02*
X121446741Y-117443847D01*
X123208646Y-117491466D02*
X123970551Y-117491466D01*
X125732455Y-117872419D02*
X125161027Y-117872419D01*
X125446741Y-117872419D02*
X125446741Y-116872419D01*
X125446741Y-116872419D02*
X125351503Y-117015276D01*
X125351503Y-117015276D02*
X125256265Y-117110514D01*
X125256265Y-117110514D02*
X125161027Y-117158133D01*
X126113408Y-116967657D02*
X126161027Y-116920038D01*
X126161027Y-116920038D02*
X126256265Y-116872419D01*
X126256265Y-116872419D02*
X126494360Y-116872419D01*
X126494360Y-116872419D02*
X126589598Y-116920038D01*
X126589598Y-116920038D02*
X126637217Y-116967657D01*
X126637217Y-116967657D02*
X126684836Y-117062895D01*
X126684836Y-117062895D02*
X126684836Y-117158133D01*
X126684836Y-117158133D02*
X126637217Y-117300990D01*
X126637217Y-117300990D02*
X126065789Y-117872419D01*
X126065789Y-117872419D02*
X126684836Y-117872419D01*
X127732456Y-116872419D02*
X128065789Y-117872419D01*
X128065789Y-117872419D02*
X128399122Y-116872419D01*
D12*
X91662061Y-90964858D02*
X92913773Y-90964858D01*
X92913773Y-90964858D02*
X92913773Y-91262885D01*
X92913773Y-91262885D02*
X92854168Y-91441701D01*
X92854168Y-91441701D02*
X92734957Y-91560912D01*
X92734957Y-91560912D02*
X92615747Y-91620517D01*
X92615747Y-91620517D02*
X92377325Y-91680122D01*
X92377325Y-91680122D02*
X92198509Y-91680122D01*
X92198509Y-91680122D02*
X91960088Y-91620517D01*
X91960088Y-91620517D02*
X91840877Y-91560912D01*
X91840877Y-91560912D02*
X91721667Y-91441701D01*
X91721667Y-91441701D02*
X91662061Y-91262885D01*
X91662061Y-91262885D02*
X91662061Y-90964858D01*
X91781272Y-92931834D02*
X91721667Y-92872229D01*
X91721667Y-92872229D02*
X91662061Y-92693413D01*
X91662061Y-92693413D02*
X91662061Y-92574202D01*
X91662061Y-92574202D02*
X91721667Y-92395386D01*
X91721667Y-92395386D02*
X91840877Y-92276176D01*
X91840877Y-92276176D02*
X91960088Y-92216570D01*
X91960088Y-92216570D02*
X92198509Y-92156965D01*
X92198509Y-92156965D02*
X92377325Y-92156965D01*
X92377325Y-92156965D02*
X92615747Y-92216570D01*
X92615747Y-92216570D02*
X92734957Y-92276176D01*
X92734957Y-92276176D02*
X92854168Y-92395386D01*
X92854168Y-92395386D02*
X92913773Y-92574202D01*
X92913773Y-92574202D02*
X92913773Y-92693413D01*
X92913773Y-92693413D02*
X92854168Y-92872229D01*
X92854168Y-92872229D02*
X92794563Y-92931834D01*
X91662061Y-94421967D02*
X92913773Y-94421967D01*
X91662061Y-95018020D02*
X92913773Y-95018020D01*
X92913773Y-95018020D02*
X91662061Y-95733284D01*
X91662061Y-95733284D02*
X92913773Y-95733284D01*
X91185219Y-97640654D02*
X91244824Y-97581049D01*
X91244824Y-97581049D02*
X91423640Y-97461838D01*
X91423640Y-97461838D02*
X91542851Y-97402233D01*
X91542851Y-97402233D02*
X91721667Y-97342628D01*
X91721667Y-97342628D02*
X92019693Y-97283022D01*
X92019693Y-97283022D02*
X92258115Y-97283022D01*
X92258115Y-97283022D02*
X92556141Y-97342628D01*
X92556141Y-97342628D02*
X92734957Y-97402233D01*
X92734957Y-97402233D02*
X92854168Y-97461838D01*
X92854168Y-97461838D02*
X93032984Y-97581049D01*
X93032984Y-97581049D02*
X93092589Y-97640654D01*
X92377325Y-98296313D02*
X92436931Y-98177103D01*
X92436931Y-98177103D02*
X92496536Y-98117497D01*
X92496536Y-98117497D02*
X92615747Y-98057892D01*
X92615747Y-98057892D02*
X92675352Y-98057892D01*
X92675352Y-98057892D02*
X92794563Y-98117497D01*
X92794563Y-98117497D02*
X92854168Y-98177103D01*
X92854168Y-98177103D02*
X92913773Y-98296313D01*
X92913773Y-98296313D02*
X92913773Y-98534735D01*
X92913773Y-98534735D02*
X92854168Y-98653945D01*
X92854168Y-98653945D02*
X92794563Y-98713551D01*
X92794563Y-98713551D02*
X92675352Y-98773156D01*
X92675352Y-98773156D02*
X92615747Y-98773156D01*
X92615747Y-98773156D02*
X92496536Y-98713551D01*
X92496536Y-98713551D02*
X92436931Y-98653945D01*
X92436931Y-98653945D02*
X92377325Y-98534735D01*
X92377325Y-98534735D02*
X92377325Y-98296313D01*
X92377325Y-98296313D02*
X92317720Y-98177103D01*
X92317720Y-98177103D02*
X92258115Y-98117497D01*
X92258115Y-98117497D02*
X92138904Y-98057892D01*
X92138904Y-98057892D02*
X91900483Y-98057892D01*
X91900483Y-98057892D02*
X91781272Y-98117497D01*
X91781272Y-98117497D02*
X91721667Y-98177103D01*
X91721667Y-98177103D02*
X91662061Y-98296313D01*
X91662061Y-98296313D02*
X91662061Y-98534735D01*
X91662061Y-98534735D02*
X91721667Y-98653945D01*
X91721667Y-98653945D02*
X91781272Y-98713551D01*
X91781272Y-98713551D02*
X91900483Y-98773156D01*
X91900483Y-98773156D02*
X92138904Y-98773156D01*
X92138904Y-98773156D02*
X92258115Y-98713551D01*
X92258115Y-98713551D02*
X92317720Y-98653945D01*
X92317720Y-98653945D02*
X92377325Y-98534735D01*
X92913773Y-99130788D02*
X91662061Y-99548026D01*
X91662061Y-99548026D02*
X92913773Y-99965263D01*
X92138904Y-101336185D02*
X92138904Y-102289871D01*
X91662061Y-104495268D02*
X91662061Y-103780004D01*
X91662061Y-104137636D02*
X92913773Y-104137636D01*
X92913773Y-104137636D02*
X92734957Y-104018425D01*
X92734957Y-104018425D02*
X92615747Y-103899215D01*
X92615747Y-103899215D02*
X92556141Y-103780004D01*
X92913773Y-105627770D02*
X92913773Y-105031716D01*
X92913773Y-105031716D02*
X92317720Y-104972111D01*
X92317720Y-104972111D02*
X92377325Y-105031716D01*
X92377325Y-105031716D02*
X92436931Y-105150927D01*
X92436931Y-105150927D02*
X92436931Y-105448954D01*
X92436931Y-105448954D02*
X92377325Y-105568164D01*
X92377325Y-105568164D02*
X92317720Y-105627770D01*
X92317720Y-105627770D02*
X92198509Y-105687375D01*
X92198509Y-105687375D02*
X91900483Y-105687375D01*
X91900483Y-105687375D02*
X91781272Y-105627770D01*
X91781272Y-105627770D02*
X91721667Y-105568164D01*
X91721667Y-105568164D02*
X91662061Y-105448954D01*
X91662061Y-105448954D02*
X91662061Y-105150927D01*
X91662061Y-105150927D02*
X91721667Y-105031716D01*
X91721667Y-105031716D02*
X91781272Y-104972111D01*
X92913773Y-106045007D02*
X91662061Y-106462245D01*
X91662061Y-106462245D02*
X92913773Y-106879482D01*
X91185219Y-107177509D02*
X91244824Y-107237114D01*
X91244824Y-107237114D02*
X91423640Y-107356325D01*
X91423640Y-107356325D02*
X91542851Y-107415930D01*
X91542851Y-107415930D02*
X91721667Y-107475535D01*
X91721667Y-107475535D02*
X92019693Y-107535141D01*
X92019693Y-107535141D02*
X92258115Y-107535141D01*
X92258115Y-107535141D02*
X92556141Y-107475535D01*
X92556141Y-107475535D02*
X92734957Y-107415930D01*
X92734957Y-107415930D02*
X92854168Y-107356325D01*
X92854168Y-107356325D02*
X93032984Y-107237114D01*
X93032984Y-107237114D02*
X93092589Y-107177509D01*
D10*
X112166666Y-90354819D02*
X112166666Y-91069104D01*
X112166666Y-91069104D02*
X112119047Y-91211961D01*
X112119047Y-91211961D02*
X112023809Y-91307200D01*
X112023809Y-91307200D02*
X111880952Y-91354819D01*
X111880952Y-91354819D02*
X111785714Y-91354819D01*
X113166666Y-91354819D02*
X112595238Y-91354819D01*
X112880952Y-91354819D02*
X112880952Y-90354819D01*
X112880952Y-90354819D02*
X112785714Y-90497676D01*
X112785714Y-90497676D02*
X112690476Y-90592914D01*
X112690476Y-90592914D02*
X112595238Y-90640533D01*
X95216666Y-117704819D02*
X95216666Y-118419104D01*
X95216666Y-118419104D02*
X95169047Y-118561961D01*
X95169047Y-118561961D02*
X95073809Y-118657200D01*
X95073809Y-118657200D02*
X94930952Y-118704819D01*
X94930952Y-118704819D02*
X94835714Y-118704819D01*
X95597619Y-117704819D02*
X96216666Y-117704819D01*
X96216666Y-117704819D02*
X95883333Y-118085771D01*
X95883333Y-118085771D02*
X96026190Y-118085771D01*
X96026190Y-118085771D02*
X96121428Y-118133390D01*
X96121428Y-118133390D02*
X96169047Y-118181009D01*
X96169047Y-118181009D02*
X96216666Y-118276247D01*
X96216666Y-118276247D02*
X96216666Y-118514342D01*
X96216666Y-118514342D02*
X96169047Y-118609580D01*
X96169047Y-118609580D02*
X96121428Y-118657200D01*
X96121428Y-118657200D02*
X96026190Y-118704819D01*
X96026190Y-118704819D02*
X95740476Y-118704819D01*
X95740476Y-118704819D02*
X95645238Y-118657200D01*
X95645238Y-118657200D02*
X95597619Y-118609580D01*
X112166666Y-133554819D02*
X112166666Y-134269104D01*
X112166666Y-134269104D02*
X112119047Y-134411961D01*
X112119047Y-134411961D02*
X112023809Y-134507200D01*
X112023809Y-134507200D02*
X111880952Y-134554819D01*
X111880952Y-134554819D02*
X111785714Y-134554819D01*
X112595238Y-133650057D02*
X112642857Y-133602438D01*
X112642857Y-133602438D02*
X112738095Y-133554819D01*
X112738095Y-133554819D02*
X112976190Y-133554819D01*
X112976190Y-133554819D02*
X113071428Y-133602438D01*
X113071428Y-133602438D02*
X113119047Y-133650057D01*
X113119047Y-133650057D02*
X113166666Y-133745295D01*
X113166666Y-133745295D02*
X113166666Y-133840533D01*
X113166666Y-133840533D02*
X113119047Y-133983390D01*
X113119047Y-133983390D02*
X112547619Y-134554819D01*
X112547619Y-134554819D02*
X113166666Y-134554819D01*
%TO.C,REF\u002A\u002A*%
X91925000Y-120000000D02*
X91925000Y-120900000D01*
X91925000Y-122000000D02*
X91925000Y-124000000D01*
X91250000Y-122750000D02*
G75*
G02*
X92675000Y-122675000I675000J750000D01*
G01*
X92850000Y-119000000D02*
G75*
G02*
X91000000Y-119000000I-925000J0D01*
G01*
X91000000Y-119000000D02*
G75*
G02*
X92850000Y-119000000I925000J0D01*
G01*
D13*
X92100000Y-122000000D02*
G75*
G02*
X91750000Y-122000000I-175000J0D01*
G01*
X91750000Y-122000000D02*
G75*
G02*
X92100000Y-122000000I175000J0D01*
G01*
D10*
X92850000Y-125000000D02*
G75*
G02*
X91000000Y-125000000I-925000J0D01*
G01*
X91000000Y-125000000D02*
G75*
G02*
X92850000Y-125000000I925000J0D01*
G01*
D14*
%TO.C,J1*%
X106550000Y-96500000D02*
X106550000Y-97500000D01*
X106550000Y-97500000D02*
X107550000Y-97000000D01*
X107550000Y-97000000D02*
X106550000Y-96500000D01*
X107940000Y-91790000D02*
X117060000Y-91790000D01*
X107940000Y-97490000D02*
X109250000Y-97490000D01*
X107940000Y-107290000D02*
X107940000Y-91790000D01*
X109250000Y-93090000D02*
X115750000Y-93090000D01*
X109250000Y-97490000D02*
X109250000Y-93090000D01*
X109250000Y-101590000D02*
X107940000Y-101590000D01*
X109250000Y-101590000D02*
X109250000Y-101590000D01*
X109250000Y-105990000D02*
X109250000Y-101590000D01*
X115750000Y-93090000D02*
X115750000Y-105990000D01*
X115750000Y-105990000D02*
X109250000Y-105990000D01*
X117060000Y-91790000D02*
X117060000Y-107290000D01*
X117060000Y-107290000D02*
X107940000Y-107290000D01*
%TO.C,J3*%
X90200000Y-107900000D02*
X104900000Y-107900000D01*
X90200000Y-117100000D02*
X90200000Y-107900000D01*
X99000000Y-117100000D02*
X90200000Y-117100000D01*
X104050000Y-107700000D02*
X105100000Y-107700000D01*
X104900000Y-107900000D02*
X104900000Y-110500000D01*
X104900000Y-114400000D02*
X104900000Y-117100000D01*
X104900000Y-117100000D02*
X103000000Y-117100000D01*
X105100000Y-108750000D02*
X105100000Y-107700000D01*
%TO.C,J2*%
X107940000Y-117710000D02*
X117060000Y-117710000D01*
X107940000Y-133210000D02*
X107940000Y-117710000D01*
X109250000Y-119010000D02*
X115750000Y-119010000D01*
X109250000Y-131910000D02*
X109250000Y-119010000D01*
X115750000Y-119010000D02*
X115750000Y-123410000D01*
X115750000Y-123410000D02*
X115750000Y-123410000D01*
X115750000Y-123410000D02*
X117060000Y-123410000D01*
X115750000Y-127510000D02*
X115750000Y-131910000D01*
X115750000Y-131910000D02*
X109250000Y-131910000D01*
X117060000Y-117710000D02*
X117060000Y-133210000D01*
X117060000Y-127510000D02*
X115750000Y-127510000D01*
X117060000Y-133210000D02*
X107940000Y-133210000D01*
X117450000Y-128000000D02*
X118450000Y-128500000D01*
X118450000Y-127500000D02*
X117450000Y-128000000D01*
X118450000Y-128500000D02*
X118450000Y-127500000D01*
%TD*%
M02*
