G04 #@! TF.GenerationSoftware,KiCad,Pcbnew,8.0.5*
G04 #@! TF.CreationDate,2024-09-14T17:32:50+01:00*
G04 #@! TF.ProjectId,RS232Board,52533233-3242-46f6-9172-642e6b696361,rev?*
G04 #@! TF.SameCoordinates,Original*
G04 #@! TF.FileFunction,Copper,L2,Bot*
G04 #@! TF.FilePolarity,Positive*
%FSLAX46Y46*%
G04 Gerber Fmt 4.6, Leading zero omitted, Abs format (unit mm)*
G04 Created by KiCad (PCBNEW 8.0.5) date 2024-09-14 17:32:50*
%MOMM*%
%LPD*%
G01*
G04 APERTURE LIST*
G04 #@! TA.AperFunction,ComponentPad*
%ADD10C,4.000000*%
G04 #@! TD*
G04 #@! TA.AperFunction,ComponentPad*
%ADD11R,1.600000X1.600000*%
G04 #@! TD*
G04 #@! TA.AperFunction,ComponentPad*
%ADD12C,1.600000*%
G04 #@! TD*
G04 #@! TA.AperFunction,ViaPad*
%ADD13C,1.200000*%
G04 #@! TD*
G04 #@! TA.AperFunction,Conductor*
%ADD14C,0.400000*%
G04 #@! TD*
G04 APERTURE END LIST*
D10*
X183330000Y-54405331D03*
X158330000Y-54405331D03*
D11*
X176370000Y-54705331D03*
D12*
X173600000Y-54705331D03*
X170830000Y-54705331D03*
X168060000Y-54705331D03*
X165290000Y-54705331D03*
X174985000Y-51865331D03*
X172215000Y-51865331D03*
X169445000Y-51865331D03*
X166675000Y-51865331D03*
D10*
X147435000Y-54405331D03*
X122435000Y-54405331D03*
D11*
X140475000Y-54705331D03*
D12*
X137705000Y-54705331D03*
X134935000Y-54705331D03*
X132165000Y-54705331D03*
X129395000Y-54705331D03*
X139090000Y-51865331D03*
X136320000Y-51865331D03*
X133550000Y-51865331D03*
X130780000Y-51865331D03*
D13*
X132165000Y-72000000D03*
X161250000Y-80000000D03*
X140475000Y-66000000D03*
X173600000Y-78000000D03*
X134935000Y-71000000D03*
X139090000Y-67000000D03*
X162750000Y-82000000D03*
X136320000Y-73000000D03*
X133550000Y-69000000D03*
X170830000Y-81000000D03*
X176370000Y-76000000D03*
X174985000Y-77000000D03*
X130780000Y-70000000D03*
X172215000Y-83000000D03*
X169445000Y-79000000D03*
X137705000Y-68000000D03*
D14*
X130780000Y-51865331D02*
X130780000Y-70000000D01*
X132165000Y-54705331D02*
X132165000Y-72000000D01*
X133550000Y-51865331D02*
X133550000Y-69000000D01*
X134935000Y-54705331D02*
X134935000Y-71000000D01*
X136320000Y-51865331D02*
X136320000Y-73000000D01*
X137705000Y-54705331D02*
X137705000Y-68000000D01*
X139090000Y-51865331D02*
X139090000Y-67000000D01*
X140475000Y-54705331D02*
X140475000Y-66000000D01*
X176370000Y-54705331D02*
X176370000Y-76000000D01*
X174985000Y-51865331D02*
X174985000Y-77000000D01*
X173600000Y-54705331D02*
X173600000Y-78000000D01*
X172215000Y-51865331D02*
X172215000Y-83000000D01*
X170830000Y-54705331D02*
X170830000Y-81000000D01*
X164000000Y-61250000D02*
X162750000Y-62500000D01*
X166250000Y-61250000D02*
X164000000Y-61250000D01*
X162750000Y-62500000D02*
X162750000Y-82000000D01*
X168060000Y-54705331D02*
X168060000Y-59440000D01*
X168060000Y-59440000D02*
X166250000Y-61250000D01*
X163250000Y-60000000D02*
X161250000Y-62000000D01*
X165500000Y-60000000D02*
X163250000Y-60000000D01*
X166675000Y-58825000D02*
X165500000Y-60000000D01*
X166675000Y-51865331D02*
X166675000Y-58825000D01*
X161250000Y-62000000D02*
X161250000Y-80000000D01*
X169445000Y-51865331D02*
X169445000Y-79000000D01*
G04 #@! TA.AperFunction,Conductor*
G36*
X196504404Y-46755185D02*
G01*
X196525046Y-46771819D01*
X198948181Y-49194954D01*
X198981666Y-49256277D01*
X198984500Y-49282635D01*
X198984500Y-59344982D01*
X198984500Y-59375018D01*
X198995994Y-59402767D01*
X198995995Y-59402768D01*
X201488181Y-61894954D01*
X201521666Y-61956277D01*
X201524500Y-61982635D01*
X201524500Y-96107364D01*
X201504815Y-96174403D01*
X201488181Y-96195045D01*
X199017233Y-98665994D01*
X198995995Y-98687231D01*
X198984500Y-98714982D01*
X198984500Y-99231907D01*
X198983903Y-99244062D01*
X198972505Y-99359778D01*
X198967763Y-99383618D01*
X198937832Y-99482290D01*
X198935789Y-99489024D01*
X198926486Y-99511482D01*
X198874561Y-99608627D01*
X198861056Y-99628839D01*
X198791176Y-99713988D01*
X198773988Y-99731176D01*
X198688839Y-99801056D01*
X198668627Y-99814561D01*
X198571482Y-99866486D01*
X198549028Y-99875787D01*
X198507028Y-99888528D01*
X198443618Y-99907763D01*
X198419778Y-99912505D01*
X198311162Y-99923203D01*
X198304060Y-99923903D01*
X198291907Y-99924500D01*
X100768093Y-99924500D01*
X100755939Y-99923903D01*
X100747995Y-99923120D01*
X100640221Y-99912505D01*
X100616381Y-99907763D01*
X100599445Y-99902625D01*
X100510968Y-99875786D01*
X100488517Y-99866486D01*
X100391372Y-99814561D01*
X100371160Y-99801056D01*
X100286011Y-99731176D01*
X100268823Y-99713988D01*
X100198943Y-99628839D01*
X100185438Y-99608627D01*
X100133510Y-99511476D01*
X100124215Y-99489037D01*
X100092234Y-99383612D01*
X100087494Y-99359777D01*
X100076097Y-99244061D01*
X100075500Y-99231907D01*
X100075500Y-79999999D01*
X160136751Y-79999999D01*
X160136751Y-80000000D01*
X160155705Y-80204558D01*
X160155706Y-80204560D01*
X160211924Y-80402147D01*
X160211930Y-80402162D01*
X160303493Y-80586044D01*
X160303498Y-80586052D01*
X160427300Y-80749993D01*
X160477155Y-80795441D01*
X160579118Y-80888392D01*
X160753782Y-80996540D01*
X160945345Y-81070751D01*
X161147282Y-81108500D01*
X161147284Y-81108500D01*
X161352716Y-81108500D01*
X161352718Y-81108500D01*
X161554655Y-81070751D01*
X161746218Y-80996540D01*
X161766671Y-80983875D01*
X161834030Y-80965317D01*
X161900731Y-80986123D01*
X161945594Y-81039686D01*
X161954377Y-81109002D01*
X161938643Y-81152490D01*
X161866851Y-81273705D01*
X161855871Y-81293201D01*
X161855424Y-81294037D01*
X161845400Y-81313789D01*
X161738206Y-81536805D01*
X161732088Y-81550012D01*
X161731845Y-81550556D01*
X161723792Y-81572381D01*
X161718463Y-81584719D01*
X161711927Y-81597846D01*
X161711921Y-81597860D01*
X161655706Y-81795438D01*
X161655705Y-81795441D01*
X161636751Y-81999999D01*
X161636751Y-82000000D01*
X161655705Y-82204558D01*
X161655706Y-82204560D01*
X161711924Y-82402147D01*
X161711930Y-82402162D01*
X161803493Y-82586044D01*
X161803498Y-82586052D01*
X161927300Y-82749993D01*
X161977155Y-82795441D01*
X162079118Y-82888392D01*
X162253782Y-82996540D01*
X162445345Y-83070751D01*
X162647282Y-83108500D01*
X162647284Y-83108500D01*
X162852716Y-83108500D01*
X162852718Y-83108500D01*
X163054655Y-83070751D01*
X163246218Y-82996540D01*
X163420882Y-82888392D01*
X163572701Y-82749991D01*
X163696503Y-82586050D01*
X163788074Y-82402152D01*
X163844294Y-82204559D01*
X163863249Y-82000000D01*
X163858667Y-81950557D01*
X163844294Y-81795441D01*
X163844293Y-81795439D01*
X163838404Y-81774742D01*
X163788074Y-81597848D01*
X163773218Y-81568014D01*
X163765954Y-81550015D01*
X163761804Y-81536844D01*
X163761792Y-81536805D01*
X163654605Y-81313806D01*
X163644515Y-81293931D01*
X163644037Y-81293038D01*
X163633138Y-81273694D01*
X163543700Y-81122682D01*
X163540840Y-81117582D01*
X163536025Y-81108500D01*
X163502615Y-81045483D01*
X163492991Y-81021636D01*
X163479901Y-80976059D01*
X163475392Y-80950557D01*
X163464454Y-80795441D01*
X163462995Y-80774754D01*
X163462994Y-80774742D01*
X163459201Y-80739214D01*
X163458500Y-80726050D01*
X163458500Y-62844833D01*
X163478185Y-62777794D01*
X163494819Y-62757152D01*
X164257152Y-61994819D01*
X164318475Y-61961334D01*
X164344833Y-61958500D01*
X166319784Y-61958500D01*
X166372512Y-61948011D01*
X166398877Y-61942767D01*
X166456662Y-61931273D01*
X166495905Y-61915018D01*
X166585601Y-61877865D01*
X166701643Y-61800328D01*
X166953618Y-61548353D01*
X168524819Y-59977152D01*
X168586142Y-59943667D01*
X168655834Y-59948651D01*
X168711767Y-59990523D01*
X168736184Y-60055987D01*
X168736500Y-60064833D01*
X168736500Y-77740721D01*
X168733693Y-77766957D01*
X168732005Y-77774752D01*
X168719605Y-77950554D01*
X168715095Y-77976056D01*
X168702006Y-78021634D01*
X168692378Y-78045490D01*
X168654153Y-78117590D01*
X168651289Y-78122697D01*
X168561851Y-78273705D01*
X168550871Y-78293201D01*
X168550424Y-78294037D01*
X168540400Y-78313789D01*
X168433206Y-78536805D01*
X168427088Y-78550012D01*
X168426845Y-78550556D01*
X168418792Y-78572381D01*
X168413463Y-78584719D01*
X168406927Y-78597846D01*
X168406921Y-78597860D01*
X168350706Y-78795438D01*
X168350705Y-78795441D01*
X168331751Y-78999999D01*
X168331751Y-79000000D01*
X168350705Y-79204558D01*
X168350706Y-79204560D01*
X168406924Y-79402147D01*
X168406930Y-79402162D01*
X168498493Y-79586044D01*
X168498498Y-79586052D01*
X168622300Y-79749993D01*
X168672155Y-79795441D01*
X168774118Y-79888392D01*
X168948782Y-79996540D01*
X169140345Y-80070751D01*
X169342282Y-80108500D01*
X169342284Y-80108500D01*
X169547716Y-80108500D01*
X169547718Y-80108500D01*
X169749655Y-80070751D01*
X169827531Y-80040581D01*
X169897153Y-80034720D01*
X169958894Y-80067430D01*
X169993148Y-80128326D01*
X169989043Y-80198075D01*
X169979016Y-80219399D01*
X169946831Y-80273740D01*
X169935871Y-80293201D01*
X169935424Y-80294037D01*
X169925400Y-80313789D01*
X169818206Y-80536805D01*
X169812088Y-80550012D01*
X169811845Y-80550556D01*
X169803792Y-80572381D01*
X169798463Y-80584719D01*
X169791927Y-80597846D01*
X169791921Y-80597860D01*
X169735706Y-80795438D01*
X169735705Y-80795441D01*
X169716751Y-80999999D01*
X169716751Y-81000000D01*
X169735705Y-81204558D01*
X169735706Y-81204560D01*
X169791924Y-81402147D01*
X169791930Y-81402162D01*
X169883493Y-81586044D01*
X169883498Y-81586052D01*
X170007300Y-81749993D01*
X170057155Y-81795441D01*
X170159118Y-81888392D01*
X170333782Y-81996540D01*
X170525345Y-82070751D01*
X170727282Y-82108500D01*
X170727284Y-82108500D01*
X170932716Y-82108500D01*
X170932718Y-82108500D01*
X171134655Y-82070751D01*
X171212531Y-82040581D01*
X171282153Y-82034720D01*
X171343894Y-82067430D01*
X171378148Y-82128326D01*
X171374043Y-82198075D01*
X171364016Y-82219399D01*
X171331831Y-82273740D01*
X171320871Y-82293201D01*
X171320424Y-82294037D01*
X171310400Y-82313789D01*
X171203206Y-82536805D01*
X171197088Y-82550012D01*
X171196845Y-82550556D01*
X171188792Y-82572381D01*
X171183463Y-82584719D01*
X171176927Y-82597846D01*
X171176921Y-82597860D01*
X171120706Y-82795438D01*
X171120705Y-82795441D01*
X171101751Y-82999999D01*
X171101751Y-83000000D01*
X171120705Y-83204558D01*
X171120706Y-83204560D01*
X171176924Y-83402147D01*
X171176930Y-83402162D01*
X171268493Y-83586044D01*
X171268498Y-83586052D01*
X171392300Y-83749993D01*
X171522904Y-83869053D01*
X171544118Y-83888392D01*
X171718782Y-83996540D01*
X171910345Y-84070751D01*
X172112282Y-84108500D01*
X172112284Y-84108500D01*
X172317716Y-84108500D01*
X172317718Y-84108500D01*
X172519655Y-84070751D01*
X172711218Y-83996540D01*
X172885882Y-83888392D01*
X173037701Y-83749991D01*
X173161503Y-83586050D01*
X173253074Y-83402152D01*
X173309294Y-83204559D01*
X173328249Y-83000000D01*
X173309294Y-82795441D01*
X173253074Y-82597848D01*
X173238218Y-82568014D01*
X173230954Y-82550015D01*
X173226804Y-82536844D01*
X173226792Y-82536805D01*
X173119605Y-82313806D01*
X173109515Y-82293931D01*
X173109037Y-82293038D01*
X173098138Y-82273694D01*
X173008700Y-82122682D01*
X173005840Y-82117582D01*
X173001025Y-82108500D01*
X172967615Y-82045483D01*
X172957991Y-82021636D01*
X172944901Y-81976059D01*
X172940392Y-81950557D01*
X172929454Y-81795441D01*
X172927995Y-81774754D01*
X172927994Y-81774742D01*
X172924201Y-81739214D01*
X172923500Y-81726050D01*
X172923500Y-79107037D01*
X172943185Y-79039998D01*
X172995989Y-78994243D01*
X173065147Y-78984299D01*
X173098362Y-78994661D01*
X173098437Y-78994469D01*
X173101300Y-78995578D01*
X173102774Y-78996038D01*
X173103777Y-78996537D01*
X173103782Y-78996540D01*
X173295345Y-79070751D01*
X173497282Y-79108500D01*
X173497284Y-79108500D01*
X173702716Y-79108500D01*
X173702718Y-79108500D01*
X173904655Y-79070751D01*
X174096218Y-78996540D01*
X174270882Y-78888392D01*
X174422701Y-78749991D01*
X174546503Y-78586050D01*
X174638074Y-78402152D01*
X174694294Y-78204559D01*
X174694295Y-78204541D01*
X174695206Y-78199677D01*
X174726874Y-78137396D01*
X174787187Y-78102123D01*
X174839877Y-78100573D01*
X174882282Y-78108500D01*
X174882285Y-78108500D01*
X175087716Y-78108500D01*
X175087718Y-78108500D01*
X175289655Y-78070751D01*
X175481218Y-77996540D01*
X175655882Y-77888392D01*
X175807701Y-77749991D01*
X175931503Y-77586050D01*
X176023074Y-77402152D01*
X176079294Y-77204559D01*
X176079295Y-77204541D01*
X176080206Y-77199677D01*
X176111874Y-77137396D01*
X176172187Y-77102123D01*
X176224877Y-77100573D01*
X176267282Y-77108500D01*
X176267285Y-77108500D01*
X176472716Y-77108500D01*
X176472718Y-77108500D01*
X176674655Y-77070751D01*
X176866218Y-76996540D01*
X177040882Y-76888392D01*
X177192701Y-76749991D01*
X177316503Y-76586050D01*
X177408074Y-76402152D01*
X177464294Y-76204559D01*
X177483249Y-76000000D01*
X177464294Y-75795441D01*
X177408074Y-75597848D01*
X177393218Y-75568014D01*
X177385954Y-75550015D01*
X177381792Y-75536805D01*
X177274605Y-75313806D01*
X177264515Y-75293931D01*
X177264037Y-75293038D01*
X177253138Y-75273694D01*
X177163700Y-75122682D01*
X177160840Y-75117582D01*
X177122616Y-75045485D01*
X177112991Y-75021636D01*
X177099901Y-74976059D01*
X177095392Y-74950557D01*
X177082994Y-74774742D01*
X177079201Y-74739214D01*
X177078500Y-74726050D01*
X177078500Y-56137831D01*
X177098185Y-56070792D01*
X177150989Y-56025037D01*
X177202500Y-56013831D01*
X177218638Y-56013831D01*
X177218654Y-56013830D01*
X177245692Y-56010922D01*
X177279201Y-56007320D01*
X177416204Y-55956220D01*
X177533261Y-55868592D01*
X177620889Y-55751535D01*
X177671989Y-55614532D01*
X177675591Y-55581023D01*
X177678499Y-55553985D01*
X177678500Y-55553968D01*
X177678500Y-54405325D01*
X180816540Y-54405325D01*
X180816540Y-54405336D01*
X180836357Y-54720343D01*
X180836359Y-54720351D01*
X180895505Y-55030403D01*
X180941271Y-55171256D01*
X180993044Y-55330598D01*
X180993046Y-55330603D01*
X181127436Y-55616196D01*
X181127442Y-55616207D01*
X181296561Y-55882696D01*
X181296563Y-55882699D01*
X181296568Y-55882706D01*
X181409243Y-56018906D01*
X181497772Y-56125919D01*
X181727858Y-56341983D01*
X181727868Y-56341991D01*
X181983209Y-56527507D01*
X181983214Y-56527509D01*
X181983221Y-56527515D01*
X182259821Y-56679578D01*
X182259826Y-56679580D01*
X182259828Y-56679581D01*
X182259829Y-56679582D01*
X182553294Y-56795773D01*
X182553297Y-56795774D01*
X182859021Y-56874270D01*
X182859025Y-56874271D01*
X182924717Y-56882569D01*
X183172167Y-56913830D01*
X183172176Y-56913830D01*
X183172179Y-56913831D01*
X183172181Y-56913831D01*
X183487819Y-56913831D01*
X183487821Y-56913831D01*
X183487824Y-56913830D01*
X183487832Y-56913830D01*
X183674692Y-56890223D01*
X183800975Y-56874271D01*
X184106702Y-56795774D01*
X184106705Y-56795773D01*
X184400170Y-56679582D01*
X184400171Y-56679581D01*
X184400169Y-56679581D01*
X184400179Y-56679578D01*
X184676779Y-56527515D01*
X184932140Y-56341985D01*
X185162233Y-56125913D01*
X185363432Y-55882706D01*
X185532562Y-55616200D01*
X185666956Y-55330597D01*
X185764495Y-55030403D01*
X185823641Y-54720351D01*
X185824587Y-54705330D01*
X185843460Y-54405336D01*
X185843460Y-54405325D01*
X185823642Y-54090318D01*
X185816494Y-54052847D01*
X185764495Y-53780259D01*
X185666956Y-53480065D01*
X185666485Y-53479065D01*
X185532563Y-53194465D01*
X185532562Y-53194462D01*
X185387967Y-52966617D01*
X185363438Y-52927965D01*
X185363436Y-52927963D01*
X185363432Y-52927956D01*
X185162233Y-52684749D01*
X185162232Y-52684748D01*
X185162227Y-52684742D01*
X184932141Y-52468678D01*
X184932131Y-52468670D01*
X184676790Y-52283154D01*
X184676783Y-52283149D01*
X184676779Y-52283147D01*
X184400179Y-52131084D01*
X184400176Y-52131082D01*
X184400171Y-52131080D01*
X184400170Y-52131079D01*
X184106705Y-52014888D01*
X184106702Y-52014887D01*
X183800978Y-51936391D01*
X183800965Y-51936389D01*
X183487832Y-51896831D01*
X183487821Y-51896831D01*
X183172179Y-51896831D01*
X183172167Y-51896831D01*
X182859034Y-51936389D01*
X182859021Y-51936391D01*
X182553297Y-52014887D01*
X182553294Y-52014888D01*
X182259829Y-52131079D01*
X182259828Y-52131080D01*
X181983221Y-52283147D01*
X181983209Y-52283154D01*
X181727868Y-52468670D01*
X181727858Y-52468678D01*
X181497772Y-52684742D01*
X181296561Y-52927965D01*
X181127442Y-53194454D01*
X181127436Y-53194465D01*
X180993046Y-53480058D01*
X180993044Y-53480063D01*
X180934863Y-53659127D01*
X180895505Y-53780259D01*
X180862220Y-53954740D01*
X180836357Y-54090318D01*
X180816540Y-54405325D01*
X177678500Y-54405325D01*
X177678500Y-53856693D01*
X177678499Y-53856676D01*
X177675157Y-53825601D01*
X177671989Y-53796130D01*
X177666069Y-53780259D01*
X177649522Y-53735895D01*
X177620889Y-53659127D01*
X177533261Y-53542070D01*
X177416204Y-53454442D01*
X177402729Y-53449416D01*
X177279203Y-53403342D01*
X177218654Y-53396831D01*
X177218638Y-53396831D01*
X175817500Y-53396831D01*
X175750461Y-53377146D01*
X175704706Y-53324342D01*
X175693500Y-53272831D01*
X175693500Y-53031167D01*
X175713185Y-52964128D01*
X175746377Y-52929592D01*
X175748701Y-52927965D01*
X175829300Y-52871529D01*
X175991198Y-52709631D01*
X176122523Y-52522080D01*
X176219284Y-52314574D01*
X176278543Y-52093418D01*
X176298498Y-51865331D01*
X176278543Y-51637244D01*
X176219284Y-51416088D01*
X176122523Y-51208582D01*
X175991198Y-51021031D01*
X175829300Y-50859133D01*
X175641749Y-50727808D01*
X175641745Y-50727806D01*
X175434249Y-50631049D01*
X175434238Y-50631045D01*
X175213089Y-50571788D01*
X175213081Y-50571787D01*
X174985002Y-50551833D01*
X174984998Y-50551833D01*
X174756918Y-50571787D01*
X174756910Y-50571788D01*
X174535761Y-50631045D01*
X174535750Y-50631049D01*
X174328254Y-50727806D01*
X174328252Y-50727807D01*
X174328251Y-50727808D01*
X174140700Y-50859133D01*
X174140698Y-50859134D01*
X174140695Y-50859137D01*
X173978806Y-51021026D01*
X173847476Y-51208583D01*
X173847475Y-51208585D01*
X173750718Y-51416081D01*
X173750714Y-51416092D01*
X173719775Y-51531561D01*
X173683410Y-51591221D01*
X173620563Y-51621750D01*
X173551187Y-51613455D01*
X173497309Y-51568970D01*
X173480225Y-51531561D01*
X173449285Y-51416092D01*
X173449281Y-51416081D01*
X173352524Y-51208585D01*
X173352523Y-51208583D01*
X173352523Y-51208582D01*
X173221198Y-51021031D01*
X173059300Y-50859133D01*
X172871749Y-50727808D01*
X172871745Y-50727806D01*
X172664249Y-50631049D01*
X172664238Y-50631045D01*
X172443089Y-50571788D01*
X172443081Y-50571787D01*
X172215002Y-50551833D01*
X172214998Y-50551833D01*
X171986918Y-50571787D01*
X171986910Y-50571788D01*
X171765761Y-50631045D01*
X171765750Y-50631049D01*
X171558254Y-50727806D01*
X171558252Y-50727807D01*
X171558251Y-50727808D01*
X171370700Y-50859133D01*
X171370698Y-50859134D01*
X171370695Y-50859137D01*
X171208806Y-51021026D01*
X171077476Y-51208583D01*
X171077475Y-51208585D01*
X170980718Y-51416081D01*
X170980714Y-51416092D01*
X170949775Y-51531561D01*
X170913410Y-51591221D01*
X170850563Y-51621750D01*
X170781187Y-51613455D01*
X170727309Y-51568970D01*
X170710225Y-51531561D01*
X170679285Y-51416092D01*
X170679281Y-51416081D01*
X170582524Y-51208585D01*
X170582523Y-51208583D01*
X170582523Y-51208582D01*
X170451198Y-51021031D01*
X170289300Y-50859133D01*
X170101749Y-50727808D01*
X170101745Y-50727806D01*
X169894249Y-50631049D01*
X169894238Y-50631045D01*
X169673089Y-50571788D01*
X169673081Y-50571787D01*
X169445002Y-50551833D01*
X169444998Y-50551833D01*
X169216918Y-50571787D01*
X169216910Y-50571788D01*
X168995761Y-50631045D01*
X168995750Y-50631049D01*
X168788254Y-50727806D01*
X168788252Y-50727807D01*
X168788251Y-50727808D01*
X168600700Y-50859133D01*
X168600698Y-50859134D01*
X168600695Y-50859137D01*
X168438806Y-51021026D01*
X168307476Y-51208583D01*
X168307475Y-51208585D01*
X168210718Y-51416081D01*
X168210714Y-51416092D01*
X168179775Y-51531561D01*
X168143410Y-51591221D01*
X168080563Y-51621750D01*
X168011187Y-51613455D01*
X167957309Y-51568970D01*
X167940225Y-51531561D01*
X167909285Y-51416092D01*
X167909281Y-51416081D01*
X167812524Y-51208585D01*
X167812523Y-51208583D01*
X167812523Y-51208582D01*
X167681198Y-51021031D01*
X167519300Y-50859133D01*
X167331749Y-50727808D01*
X167331745Y-50727806D01*
X167124249Y-50631049D01*
X167124238Y-50631045D01*
X166903089Y-50571788D01*
X166903081Y-50571787D01*
X166675002Y-50551833D01*
X166674998Y-50551833D01*
X166446918Y-50571787D01*
X166446910Y-50571788D01*
X166225761Y-50631045D01*
X166225750Y-50631049D01*
X166018254Y-50727806D01*
X166018252Y-50727807D01*
X166018251Y-50727808D01*
X165830700Y-50859133D01*
X165830698Y-50859134D01*
X165830695Y-50859137D01*
X165668806Y-51021026D01*
X165537476Y-51208583D01*
X165537475Y-51208585D01*
X165440718Y-51416081D01*
X165440714Y-51416092D01*
X165381457Y-51637241D01*
X165381456Y-51637249D01*
X165361502Y-51865329D01*
X165361502Y-51865332D01*
X165381456Y-52093412D01*
X165381457Y-52093420D01*
X165440714Y-52314569D01*
X165440718Y-52314580D01*
X165512575Y-52468677D01*
X165537477Y-52522080D01*
X165668802Y-52709631D01*
X165830700Y-52871529D01*
X165911299Y-52927965D01*
X165913623Y-52929592D01*
X165957248Y-52984168D01*
X165966500Y-53031167D01*
X165966500Y-53391755D01*
X165946815Y-53458794D01*
X165894011Y-53504549D01*
X165824853Y-53514493D01*
X165790096Y-53504138D01*
X165736322Y-53479063D01*
X165736317Y-53479061D01*
X165516610Y-53420191D01*
X165516599Y-53420189D01*
X165290002Y-53400365D01*
X165289998Y-53400365D01*
X165063400Y-53420189D01*
X165063389Y-53420191D01*
X164843682Y-53479061D01*
X164843673Y-53479065D01*
X164637516Y-53575197D01*
X164637512Y-53575199D01*
X164564526Y-53626304D01*
X164564526Y-53626305D01*
X165160590Y-54222368D01*
X165097007Y-54239406D01*
X164982993Y-54305232D01*
X164889901Y-54398324D01*
X164824075Y-54512338D01*
X164807037Y-54575920D01*
X164210974Y-53979857D01*
X164210973Y-53979857D01*
X164159868Y-54052843D01*
X164159866Y-54052847D01*
X164063734Y-54259004D01*
X164063730Y-54259013D01*
X164004860Y-54478720D01*
X164004858Y-54478731D01*
X163985034Y-54705328D01*
X163985034Y-54705333D01*
X164004858Y-54931930D01*
X164004860Y-54931941D01*
X164063730Y-55151648D01*
X164063735Y-55151662D01*
X164159863Y-55357809D01*
X164210974Y-55430803D01*
X164807037Y-54834740D01*
X164824075Y-54898324D01*
X164889901Y-55012338D01*
X164982993Y-55105430D01*
X165097007Y-55171256D01*
X165160588Y-55188293D01*
X164564526Y-55784356D01*
X164637513Y-55835463D01*
X164637521Y-55835467D01*
X164843668Y-55931595D01*
X164843682Y-55931600D01*
X165063389Y-55990470D01*
X165063400Y-55990472D01*
X165289998Y-56010297D01*
X165290002Y-56010297D01*
X165516599Y-55990472D01*
X165516610Y-55990470D01*
X165736317Y-55931600D01*
X165736326Y-55931597D01*
X165790095Y-55906524D01*
X165859172Y-55896032D01*
X165922956Y-55924551D01*
X165961196Y-55983028D01*
X165966500Y-56018906D01*
X165966500Y-58480167D01*
X165946815Y-58547206D01*
X165930181Y-58567848D01*
X165242848Y-59255181D01*
X165181525Y-59288666D01*
X165155167Y-59291500D01*
X163180214Y-59291500D01*
X163043341Y-59318725D01*
X163043340Y-59318726D01*
X163005573Y-59334368D01*
X163005572Y-59334369D01*
X162921602Y-59369151D01*
X162914394Y-59372137D01*
X162798361Y-59449668D01*
X162798353Y-59449674D01*
X160699674Y-61548353D01*
X160699668Y-61548361D01*
X160622136Y-61664396D01*
X160622133Y-61664401D01*
X160584370Y-61755567D01*
X160584369Y-61755572D01*
X160569490Y-61791496D01*
X160569487Y-61791504D01*
X160568728Y-61793335D01*
X160568726Y-61793339D01*
X160544524Y-61915015D01*
X160544524Y-61915019D01*
X160541500Y-61930219D01*
X160541500Y-78740721D01*
X160538693Y-78766957D01*
X160537005Y-78774752D01*
X160524605Y-78950554D01*
X160520095Y-78976056D01*
X160507006Y-79021634D01*
X160497378Y-79045490D01*
X160459153Y-79117590D01*
X160456289Y-79122697D01*
X160366851Y-79273705D01*
X160355871Y-79293201D01*
X160355424Y-79294037D01*
X160345400Y-79313789D01*
X160238206Y-79536805D01*
X160232088Y-79550012D01*
X160231845Y-79550556D01*
X160223792Y-79572381D01*
X160218463Y-79584719D01*
X160211927Y-79597846D01*
X160211921Y-79597860D01*
X160155706Y-79795438D01*
X160155705Y-79795441D01*
X160136751Y-79999999D01*
X100075500Y-79999999D01*
X100075500Y-54405325D01*
X119921540Y-54405325D01*
X119921540Y-54405336D01*
X119941357Y-54720343D01*
X119941359Y-54720351D01*
X120000505Y-55030403D01*
X120046271Y-55171256D01*
X120098044Y-55330598D01*
X120098046Y-55330603D01*
X120232436Y-55616196D01*
X120232442Y-55616207D01*
X120401561Y-55882696D01*
X120401563Y-55882699D01*
X120401568Y-55882706D01*
X120514243Y-56018906D01*
X120602772Y-56125919D01*
X120832858Y-56341983D01*
X120832868Y-56341991D01*
X121088209Y-56527507D01*
X121088214Y-56527509D01*
X121088221Y-56527515D01*
X121364821Y-56679578D01*
X121364826Y-56679580D01*
X121364828Y-56679581D01*
X121364829Y-56679582D01*
X121658294Y-56795773D01*
X121658297Y-56795774D01*
X121964021Y-56874270D01*
X121964025Y-56874271D01*
X122029717Y-56882569D01*
X122277167Y-56913830D01*
X122277176Y-56913830D01*
X122277179Y-56913831D01*
X122277181Y-56913831D01*
X122592819Y-56913831D01*
X122592821Y-56913831D01*
X122592824Y-56913830D01*
X122592832Y-56913830D01*
X122779692Y-56890223D01*
X122905975Y-56874271D01*
X123211702Y-56795774D01*
X123211705Y-56795773D01*
X123505170Y-56679582D01*
X123505171Y-56679581D01*
X123505169Y-56679581D01*
X123505179Y-56679578D01*
X123781779Y-56527515D01*
X124037140Y-56341985D01*
X124267233Y-56125913D01*
X124468432Y-55882706D01*
X124637562Y-55616200D01*
X124771956Y-55330597D01*
X124869495Y-55030403D01*
X124928641Y-54720351D01*
X124929587Y-54705330D01*
X124929587Y-54705328D01*
X128090034Y-54705328D01*
X128090034Y-54705333D01*
X128109858Y-54931930D01*
X128109860Y-54931941D01*
X128168730Y-55151648D01*
X128168735Y-55151662D01*
X128264863Y-55357809D01*
X128315974Y-55430803D01*
X128912037Y-54834740D01*
X128929075Y-54898324D01*
X128994901Y-55012338D01*
X129087993Y-55105430D01*
X129202007Y-55171256D01*
X129265588Y-55188293D01*
X128669526Y-55784356D01*
X128742513Y-55835463D01*
X128742521Y-55835467D01*
X128948668Y-55931595D01*
X128948682Y-55931600D01*
X129168389Y-55990470D01*
X129168400Y-55990472D01*
X129394998Y-56010297D01*
X129395002Y-56010297D01*
X129621599Y-55990472D01*
X129621610Y-55990470D01*
X129841317Y-55931600D01*
X129841326Y-55931597D01*
X129895095Y-55906524D01*
X129964172Y-55896032D01*
X130027956Y-55924551D01*
X130066196Y-55983028D01*
X130071500Y-56018906D01*
X130071500Y-68740721D01*
X130068693Y-68766957D01*
X130067005Y-68774752D01*
X130054605Y-68950554D01*
X130050095Y-68976056D01*
X130037006Y-69021634D01*
X130027378Y-69045490D01*
X129989153Y-69117590D01*
X129986289Y-69122697D01*
X129896851Y-69273705D01*
X129885871Y-69293201D01*
X129885424Y-69294037D01*
X129875400Y-69313789D01*
X129768206Y-69536805D01*
X129762088Y-69550012D01*
X129761845Y-69550556D01*
X129753792Y-69572381D01*
X129748463Y-69584719D01*
X129741927Y-69597846D01*
X129741921Y-69597860D01*
X129685706Y-69795438D01*
X129685705Y-69795441D01*
X129666751Y-69999999D01*
X129666751Y-70000000D01*
X129685705Y-70204558D01*
X129685706Y-70204560D01*
X129741924Y-70402147D01*
X129741930Y-70402162D01*
X129833493Y-70586044D01*
X129833498Y-70586052D01*
X129957300Y-70749993D01*
X130007155Y-70795441D01*
X130109118Y-70888392D01*
X130283782Y-70996540D01*
X130475345Y-71070751D01*
X130677282Y-71108500D01*
X130677284Y-71108500D01*
X130882716Y-71108500D01*
X130882718Y-71108500D01*
X131084655Y-71070751D01*
X131162531Y-71040581D01*
X131232153Y-71034720D01*
X131293894Y-71067430D01*
X131328148Y-71128326D01*
X131324043Y-71198075D01*
X131314016Y-71219399D01*
X131281831Y-71273740D01*
X131270871Y-71293201D01*
X131270424Y-71294037D01*
X131260400Y-71313789D01*
X131153206Y-71536805D01*
X131147088Y-71550012D01*
X131146845Y-71550556D01*
X131138792Y-71572381D01*
X131133463Y-71584719D01*
X131126927Y-71597846D01*
X131126921Y-71597860D01*
X131070706Y-71795438D01*
X131070705Y-71795441D01*
X131051751Y-71999999D01*
X131051751Y-72000000D01*
X131070705Y-72204558D01*
X131070706Y-72204560D01*
X131126924Y-72402147D01*
X131126930Y-72402162D01*
X131218493Y-72586044D01*
X131218498Y-72586052D01*
X131342300Y-72749993D01*
X131392155Y-72795441D01*
X131494118Y-72888392D01*
X131668782Y-72996540D01*
X131860345Y-73070751D01*
X132062282Y-73108500D01*
X132062284Y-73108500D01*
X132267716Y-73108500D01*
X132267718Y-73108500D01*
X132469655Y-73070751D01*
X132661218Y-72996540D01*
X132835882Y-72888392D01*
X132987701Y-72749991D01*
X133111503Y-72586050D01*
X133203074Y-72402152D01*
X133259294Y-72204559D01*
X133278249Y-72000000D01*
X133273667Y-71950557D01*
X133259294Y-71795441D01*
X133259293Y-71795439D01*
X133253404Y-71774742D01*
X133203074Y-71597848D01*
X133188218Y-71568014D01*
X133180954Y-71550015D01*
X133176804Y-71536844D01*
X133176792Y-71536805D01*
X133069605Y-71313806D01*
X133059515Y-71293931D01*
X133059037Y-71293038D01*
X133048138Y-71273694D01*
X132958700Y-71122682D01*
X132955840Y-71117582D01*
X132951025Y-71108500D01*
X132917615Y-71045483D01*
X132907991Y-71021636D01*
X132894901Y-70976059D01*
X132890392Y-70950557D01*
X132879454Y-70795441D01*
X132877995Y-70774754D01*
X132877994Y-70774742D01*
X132874201Y-70739214D01*
X132873500Y-70726050D01*
X132873500Y-70107037D01*
X132893185Y-70039998D01*
X132945989Y-69994243D01*
X133015147Y-69984299D01*
X133048362Y-69994661D01*
X133048437Y-69994469D01*
X133051300Y-69995578D01*
X133052774Y-69996038D01*
X133053777Y-69996537D01*
X133053782Y-69996540D01*
X133245345Y-70070751D01*
X133447282Y-70108500D01*
X133447284Y-70108500D01*
X133652716Y-70108500D01*
X133652718Y-70108500D01*
X133854655Y-70070751D01*
X133932531Y-70040581D01*
X134002153Y-70034720D01*
X134063894Y-70067430D01*
X134098148Y-70128326D01*
X134094043Y-70198075D01*
X134084016Y-70219399D01*
X134051831Y-70273740D01*
X134040871Y-70293201D01*
X134040424Y-70294037D01*
X134030400Y-70313789D01*
X133923206Y-70536805D01*
X133917088Y-70550012D01*
X133916845Y-70550556D01*
X133908792Y-70572381D01*
X133903463Y-70584719D01*
X133896927Y-70597846D01*
X133896921Y-70597860D01*
X133840706Y-70795438D01*
X133840705Y-70795441D01*
X133821751Y-70999999D01*
X133821751Y-71000000D01*
X133840705Y-71204558D01*
X133840706Y-71204560D01*
X133896924Y-71402147D01*
X133896930Y-71402162D01*
X133988493Y-71586044D01*
X133988498Y-71586052D01*
X134112300Y-71749993D01*
X134162155Y-71795441D01*
X134264118Y-71888392D01*
X134438782Y-71996540D01*
X134630345Y-72070751D01*
X134832282Y-72108500D01*
X134832284Y-72108500D01*
X135037716Y-72108500D01*
X135037718Y-72108500D01*
X135239655Y-72070751D01*
X135317531Y-72040581D01*
X135387153Y-72034720D01*
X135448894Y-72067430D01*
X135483148Y-72128326D01*
X135479043Y-72198075D01*
X135469016Y-72219399D01*
X135436831Y-72273740D01*
X135425871Y-72293201D01*
X135425424Y-72294037D01*
X135415400Y-72313789D01*
X135308206Y-72536805D01*
X135302088Y-72550012D01*
X135301845Y-72550556D01*
X135293792Y-72572381D01*
X135288463Y-72584719D01*
X135281927Y-72597846D01*
X135281921Y-72597860D01*
X135225706Y-72795438D01*
X135225705Y-72795441D01*
X135206751Y-72999999D01*
X135206751Y-73000000D01*
X135225705Y-73204558D01*
X135225706Y-73204560D01*
X135281924Y-73402147D01*
X135281930Y-73402162D01*
X135373493Y-73586044D01*
X135373498Y-73586052D01*
X135497300Y-73749993D01*
X135627904Y-73869053D01*
X135649118Y-73888392D01*
X135823782Y-73996540D01*
X136015345Y-74070751D01*
X136217282Y-74108500D01*
X136217284Y-74108500D01*
X136422716Y-74108500D01*
X136422718Y-74108500D01*
X136624655Y-74070751D01*
X136816218Y-73996540D01*
X136990882Y-73888392D01*
X137142701Y-73749991D01*
X137266503Y-73586050D01*
X137358074Y-73402152D01*
X137414294Y-73204559D01*
X137433249Y-73000000D01*
X137414294Y-72795441D01*
X137358074Y-72597848D01*
X137343218Y-72568014D01*
X137335954Y-72550015D01*
X137331804Y-72536844D01*
X137331792Y-72536805D01*
X137224605Y-72313806D01*
X137214515Y-72293931D01*
X137214037Y-72293038D01*
X137203138Y-72273694D01*
X137113700Y-72122682D01*
X137110840Y-72117582D01*
X137106025Y-72108500D01*
X137072615Y-72045483D01*
X137062991Y-72021636D01*
X137049901Y-71976059D01*
X137045392Y-71950557D01*
X137034454Y-71795441D01*
X137032995Y-71774754D01*
X137032994Y-71774742D01*
X137029201Y-71739214D01*
X137028500Y-71726050D01*
X137028500Y-69107037D01*
X137048185Y-69039998D01*
X137100989Y-68994243D01*
X137170147Y-68984299D01*
X137203362Y-68994661D01*
X137203437Y-68994469D01*
X137206300Y-68995578D01*
X137207774Y-68996038D01*
X137208777Y-68996537D01*
X137208782Y-68996540D01*
X137400345Y-69070751D01*
X137602282Y-69108500D01*
X137602284Y-69108500D01*
X137807716Y-69108500D01*
X137807718Y-69108500D01*
X138009655Y-69070751D01*
X138201218Y-68996540D01*
X138375882Y-68888392D01*
X138527701Y-68749991D01*
X138651503Y-68586050D01*
X138743074Y-68402152D01*
X138799294Y-68204559D01*
X138799295Y-68204541D01*
X138800206Y-68199677D01*
X138831874Y-68137396D01*
X138892187Y-68102123D01*
X138944877Y-68100573D01*
X138987282Y-68108500D01*
X138987285Y-68108500D01*
X139192716Y-68108500D01*
X139192718Y-68108500D01*
X139394655Y-68070751D01*
X139586218Y-67996540D01*
X139760882Y-67888392D01*
X139912701Y-67749991D01*
X140036503Y-67586050D01*
X140128074Y-67402152D01*
X140184294Y-67204559D01*
X140184295Y-67204541D01*
X140185206Y-67199677D01*
X140216874Y-67137396D01*
X140277187Y-67102123D01*
X140329877Y-67100573D01*
X140372282Y-67108500D01*
X140372285Y-67108500D01*
X140577716Y-67108500D01*
X140577718Y-67108500D01*
X140779655Y-67070751D01*
X140971218Y-66996540D01*
X141145882Y-66888392D01*
X141297701Y-66749991D01*
X141421503Y-66586050D01*
X141513074Y-66402152D01*
X141569294Y-66204559D01*
X141588249Y-66000000D01*
X141569294Y-65795441D01*
X141513074Y-65597848D01*
X141498218Y-65568014D01*
X141490954Y-65550015D01*
X141486792Y-65536805D01*
X141379605Y-65313806D01*
X141369515Y-65293931D01*
X141369037Y-65293038D01*
X141358138Y-65273694D01*
X141268700Y-65122682D01*
X141265840Y-65117582D01*
X141227616Y-65045485D01*
X141217991Y-65021636D01*
X141204901Y-64976059D01*
X141200392Y-64950557D01*
X141187994Y-64774742D01*
X141184201Y-64739214D01*
X141183500Y-64726050D01*
X141183500Y-56137831D01*
X141203185Y-56070792D01*
X141255989Y-56025037D01*
X141307500Y-56013831D01*
X141323638Y-56013831D01*
X141323654Y-56013830D01*
X141350692Y-56010922D01*
X141384201Y-56007320D01*
X141521204Y-55956220D01*
X141638261Y-55868592D01*
X141725889Y-55751535D01*
X141776989Y-55614532D01*
X141780591Y-55581023D01*
X141783499Y-55553985D01*
X141783500Y-55553968D01*
X141783500Y-54405325D01*
X144921540Y-54405325D01*
X144921540Y-54405336D01*
X144941357Y-54720343D01*
X144941359Y-54720351D01*
X145000505Y-55030403D01*
X145046271Y-55171256D01*
X145098044Y-55330598D01*
X145098046Y-55330603D01*
X145232436Y-55616196D01*
X145232442Y-55616207D01*
X145401561Y-55882696D01*
X145401563Y-55882699D01*
X145401568Y-55882706D01*
X145514243Y-56018906D01*
X145602772Y-56125919D01*
X145832858Y-56341983D01*
X145832868Y-56341991D01*
X146088209Y-56527507D01*
X146088214Y-56527509D01*
X146088221Y-56527515D01*
X146364821Y-56679578D01*
X146364826Y-56679580D01*
X146364828Y-56679581D01*
X146364829Y-56679582D01*
X146658294Y-56795773D01*
X146658297Y-56795774D01*
X146964021Y-56874270D01*
X146964025Y-56874271D01*
X147029717Y-56882569D01*
X147277167Y-56913830D01*
X147277176Y-56913830D01*
X147277179Y-56913831D01*
X147277181Y-56913831D01*
X147592819Y-56913831D01*
X147592821Y-56913831D01*
X147592824Y-56913830D01*
X147592832Y-56913830D01*
X147779692Y-56890223D01*
X147905975Y-56874271D01*
X148211702Y-56795774D01*
X148211705Y-56795773D01*
X148505170Y-56679582D01*
X148505171Y-56679581D01*
X148505169Y-56679581D01*
X148505179Y-56679578D01*
X148781779Y-56527515D01*
X149037140Y-56341985D01*
X149267233Y-56125913D01*
X149468432Y-55882706D01*
X149637562Y-55616200D01*
X149771956Y-55330597D01*
X149869495Y-55030403D01*
X149928641Y-54720351D01*
X149929587Y-54705330D01*
X149948460Y-54405336D01*
X149948460Y-54405325D01*
X155816540Y-54405325D01*
X155816540Y-54405336D01*
X155836357Y-54720343D01*
X155836359Y-54720351D01*
X155895505Y-55030403D01*
X155941271Y-55171256D01*
X155993044Y-55330598D01*
X155993046Y-55330603D01*
X156127436Y-55616196D01*
X156127442Y-55616207D01*
X156296561Y-55882696D01*
X156296563Y-55882699D01*
X156296568Y-55882706D01*
X156409243Y-56018906D01*
X156497772Y-56125919D01*
X156727858Y-56341983D01*
X156727868Y-56341991D01*
X156983209Y-56527507D01*
X156983214Y-56527509D01*
X156983221Y-56527515D01*
X157259821Y-56679578D01*
X157259826Y-56679580D01*
X157259828Y-56679581D01*
X157259829Y-56679582D01*
X157553294Y-56795773D01*
X157553297Y-56795774D01*
X157859021Y-56874270D01*
X157859025Y-56874271D01*
X157924717Y-56882569D01*
X158172167Y-56913830D01*
X158172176Y-56913830D01*
X158172179Y-56913831D01*
X158172181Y-56913831D01*
X158487819Y-56913831D01*
X158487821Y-56913831D01*
X158487824Y-56913830D01*
X158487832Y-56913830D01*
X158674692Y-56890223D01*
X158800975Y-56874271D01*
X159106702Y-56795774D01*
X159106705Y-56795773D01*
X159400170Y-56679582D01*
X159400171Y-56679581D01*
X159400169Y-56679581D01*
X159400179Y-56679578D01*
X159676779Y-56527515D01*
X159932140Y-56341985D01*
X160162233Y-56125913D01*
X160363432Y-55882706D01*
X160532562Y-55616200D01*
X160666956Y-55330597D01*
X160764495Y-55030403D01*
X160823641Y-54720351D01*
X160824587Y-54705330D01*
X160843460Y-54405336D01*
X160843460Y-54405325D01*
X160823642Y-54090318D01*
X160816494Y-54052847D01*
X160764495Y-53780259D01*
X160666956Y-53480065D01*
X160666485Y-53479065D01*
X160532563Y-53194465D01*
X160532562Y-53194462D01*
X160387967Y-52966617D01*
X160363438Y-52927965D01*
X160363436Y-52927963D01*
X160363432Y-52927956D01*
X160162233Y-52684749D01*
X160162232Y-52684748D01*
X160162227Y-52684742D01*
X159932141Y-52468678D01*
X159932131Y-52468670D01*
X159676790Y-52283154D01*
X159676783Y-52283149D01*
X159676779Y-52283147D01*
X159400179Y-52131084D01*
X159400176Y-52131082D01*
X159400171Y-52131080D01*
X159400170Y-52131079D01*
X159106705Y-52014888D01*
X159106702Y-52014887D01*
X158800978Y-51936391D01*
X158800965Y-51936389D01*
X158487832Y-51896831D01*
X158487821Y-51896831D01*
X158172179Y-51896831D01*
X158172167Y-51896831D01*
X157859034Y-51936389D01*
X157859021Y-51936391D01*
X157553297Y-52014887D01*
X157553294Y-52014888D01*
X157259829Y-52131079D01*
X157259828Y-52131080D01*
X156983221Y-52283147D01*
X156983209Y-52283154D01*
X156727868Y-52468670D01*
X156727858Y-52468678D01*
X156497772Y-52684742D01*
X156296561Y-52927965D01*
X156127442Y-53194454D01*
X156127436Y-53194465D01*
X155993046Y-53480058D01*
X155993044Y-53480063D01*
X155934863Y-53659127D01*
X155895505Y-53780259D01*
X155862220Y-53954740D01*
X155836357Y-54090318D01*
X155816540Y-54405325D01*
X149948460Y-54405325D01*
X149928642Y-54090318D01*
X149921494Y-54052847D01*
X149869495Y-53780259D01*
X149771956Y-53480065D01*
X149771485Y-53479065D01*
X149637563Y-53194465D01*
X149637562Y-53194462D01*
X149492967Y-52966617D01*
X149468438Y-52927965D01*
X149468436Y-52927963D01*
X149468432Y-52927956D01*
X149267233Y-52684749D01*
X149267232Y-52684748D01*
X149267227Y-52684742D01*
X149037141Y-52468678D01*
X149037131Y-52468670D01*
X148781790Y-52283154D01*
X148781783Y-52283149D01*
X148781779Y-52283147D01*
X148505179Y-52131084D01*
X148505176Y-52131082D01*
X148505171Y-52131080D01*
X148505170Y-52131079D01*
X148211705Y-52014888D01*
X148211702Y-52014887D01*
X147905978Y-51936391D01*
X147905965Y-51936389D01*
X147592832Y-51896831D01*
X147592821Y-51896831D01*
X147277179Y-51896831D01*
X147277167Y-51896831D01*
X146964034Y-51936389D01*
X146964021Y-51936391D01*
X146658297Y-52014887D01*
X146658294Y-52014888D01*
X146364829Y-52131079D01*
X146364828Y-52131080D01*
X146088221Y-52283147D01*
X146088209Y-52283154D01*
X145832868Y-52468670D01*
X145832858Y-52468678D01*
X145602772Y-52684742D01*
X145401561Y-52927965D01*
X145232442Y-53194454D01*
X145232436Y-53194465D01*
X145098046Y-53480058D01*
X145098044Y-53480063D01*
X145039863Y-53659127D01*
X145000505Y-53780259D01*
X144967220Y-53954740D01*
X144941357Y-54090318D01*
X144921540Y-54405325D01*
X141783500Y-54405325D01*
X141783500Y-53856693D01*
X141783499Y-53856676D01*
X141780157Y-53825601D01*
X141776989Y-53796130D01*
X141771069Y-53780259D01*
X141754522Y-53735895D01*
X141725889Y-53659127D01*
X141638261Y-53542070D01*
X141521204Y-53454442D01*
X141507729Y-53449416D01*
X141384203Y-53403342D01*
X141323654Y-53396831D01*
X141323638Y-53396831D01*
X139922500Y-53396831D01*
X139855461Y-53377146D01*
X139809706Y-53324342D01*
X139798500Y-53272831D01*
X139798500Y-53031167D01*
X139818185Y-52964128D01*
X139851377Y-52929592D01*
X139853701Y-52927965D01*
X139934300Y-52871529D01*
X140096198Y-52709631D01*
X140227523Y-52522080D01*
X140324284Y-52314574D01*
X140383543Y-52093418D01*
X140403498Y-51865331D01*
X140383543Y-51637244D01*
X140324284Y-51416088D01*
X140227523Y-51208582D01*
X140096198Y-51021031D01*
X139934300Y-50859133D01*
X139746749Y-50727808D01*
X139746745Y-50727806D01*
X139539249Y-50631049D01*
X139539238Y-50631045D01*
X139318089Y-50571788D01*
X139318081Y-50571787D01*
X139090002Y-50551833D01*
X139089998Y-50551833D01*
X138861918Y-50571787D01*
X138861910Y-50571788D01*
X138640761Y-50631045D01*
X138640750Y-50631049D01*
X138433254Y-50727806D01*
X138433252Y-50727807D01*
X138433251Y-50727808D01*
X138245700Y-50859133D01*
X138245698Y-50859134D01*
X138245695Y-50859137D01*
X138083806Y-51021026D01*
X137952476Y-51208583D01*
X137952475Y-51208585D01*
X137855718Y-51416081D01*
X137855714Y-51416092D01*
X137824775Y-51531561D01*
X137788410Y-51591221D01*
X137725563Y-51621750D01*
X137656187Y-51613455D01*
X137602309Y-51568970D01*
X137585225Y-51531561D01*
X137554285Y-51416092D01*
X137554281Y-51416081D01*
X137457524Y-51208585D01*
X137457523Y-51208583D01*
X137457523Y-51208582D01*
X137326198Y-51021031D01*
X137164300Y-50859133D01*
X136976749Y-50727808D01*
X136976745Y-50727806D01*
X136769249Y-50631049D01*
X136769238Y-50631045D01*
X136548089Y-50571788D01*
X136548081Y-50571787D01*
X136320002Y-50551833D01*
X136319998Y-50551833D01*
X136091918Y-50571787D01*
X136091910Y-50571788D01*
X135870761Y-50631045D01*
X135870750Y-50631049D01*
X135663254Y-50727806D01*
X135663252Y-50727807D01*
X135663251Y-50727808D01*
X135475700Y-50859133D01*
X135475698Y-50859134D01*
X135475695Y-50859137D01*
X135313806Y-51021026D01*
X135182476Y-51208583D01*
X135182475Y-51208585D01*
X135085718Y-51416081D01*
X135085714Y-51416092D01*
X135054775Y-51531561D01*
X135018410Y-51591221D01*
X134955563Y-51621750D01*
X134886187Y-51613455D01*
X134832309Y-51568970D01*
X134815225Y-51531561D01*
X134784285Y-51416092D01*
X134784281Y-51416081D01*
X134687524Y-51208585D01*
X134687523Y-51208583D01*
X134687523Y-51208582D01*
X134556198Y-51021031D01*
X134394300Y-50859133D01*
X134206749Y-50727808D01*
X134206745Y-50727806D01*
X133999249Y-50631049D01*
X133999238Y-50631045D01*
X133778089Y-50571788D01*
X133778081Y-50571787D01*
X133550002Y-50551833D01*
X133549998Y-50551833D01*
X133321918Y-50571787D01*
X133321910Y-50571788D01*
X133100761Y-50631045D01*
X133100750Y-50631049D01*
X132893254Y-50727806D01*
X132893252Y-50727807D01*
X132893251Y-50727808D01*
X132705700Y-50859133D01*
X132705698Y-50859134D01*
X132705695Y-50859137D01*
X132543806Y-51021026D01*
X132412476Y-51208583D01*
X132412475Y-51208585D01*
X132315718Y-51416081D01*
X132315714Y-51416092D01*
X132284775Y-51531561D01*
X132248410Y-51591221D01*
X132185563Y-51621750D01*
X132116187Y-51613455D01*
X132062309Y-51568970D01*
X132045225Y-51531561D01*
X132014285Y-51416092D01*
X132014281Y-51416081D01*
X131917524Y-51208585D01*
X131917523Y-51208583D01*
X131917523Y-51208582D01*
X131786198Y-51021031D01*
X131624300Y-50859133D01*
X131436749Y-50727808D01*
X131436745Y-50727806D01*
X131229249Y-50631049D01*
X131229238Y-50631045D01*
X131008089Y-50571788D01*
X131008081Y-50571787D01*
X130780002Y-50551833D01*
X130779998Y-50551833D01*
X130551918Y-50571787D01*
X130551910Y-50571788D01*
X130330761Y-50631045D01*
X130330750Y-50631049D01*
X130123254Y-50727806D01*
X130123252Y-50727807D01*
X130123251Y-50727808D01*
X129935700Y-50859133D01*
X129935698Y-50859134D01*
X129935695Y-50859137D01*
X129773806Y-51021026D01*
X129642476Y-51208583D01*
X129642475Y-51208585D01*
X129545718Y-51416081D01*
X129545714Y-51416092D01*
X129486457Y-51637241D01*
X129486456Y-51637249D01*
X129466502Y-51865329D01*
X129466502Y-51865332D01*
X129486456Y-52093412D01*
X129486457Y-52093420D01*
X129545714Y-52314569D01*
X129545718Y-52314580D01*
X129617575Y-52468677D01*
X129642477Y-52522080D01*
X129773802Y-52709631D01*
X129935700Y-52871529D01*
X130016299Y-52927965D01*
X130018623Y-52929592D01*
X130062248Y-52984168D01*
X130071500Y-53031167D01*
X130071500Y-53391755D01*
X130051815Y-53458794D01*
X129999011Y-53504549D01*
X129929853Y-53514493D01*
X129895096Y-53504138D01*
X129841322Y-53479063D01*
X129841317Y-53479061D01*
X129621610Y-53420191D01*
X129621599Y-53420189D01*
X129395002Y-53400365D01*
X129394998Y-53400365D01*
X129168400Y-53420189D01*
X129168389Y-53420191D01*
X128948682Y-53479061D01*
X128948673Y-53479065D01*
X128742516Y-53575197D01*
X128742512Y-53575199D01*
X128669526Y-53626304D01*
X128669526Y-53626305D01*
X129265590Y-54222368D01*
X129202007Y-54239406D01*
X129087993Y-54305232D01*
X128994901Y-54398324D01*
X128929075Y-54512338D01*
X128912037Y-54575920D01*
X128315974Y-53979857D01*
X128315973Y-53979857D01*
X128264868Y-54052843D01*
X128264866Y-54052847D01*
X128168734Y-54259004D01*
X128168730Y-54259013D01*
X128109860Y-54478720D01*
X128109858Y-54478731D01*
X128090034Y-54705328D01*
X124929587Y-54705328D01*
X124948460Y-54405336D01*
X124948460Y-54405325D01*
X124928642Y-54090318D01*
X124921494Y-54052847D01*
X124869495Y-53780259D01*
X124771956Y-53480065D01*
X124771485Y-53479065D01*
X124637563Y-53194465D01*
X124637562Y-53194462D01*
X124492967Y-52966617D01*
X124468438Y-52927965D01*
X124468436Y-52927963D01*
X124468432Y-52927956D01*
X124267233Y-52684749D01*
X124267232Y-52684748D01*
X124267227Y-52684742D01*
X124037141Y-52468678D01*
X124037131Y-52468670D01*
X123781790Y-52283154D01*
X123781783Y-52283149D01*
X123781779Y-52283147D01*
X123505179Y-52131084D01*
X123505176Y-52131082D01*
X123505171Y-52131080D01*
X123505170Y-52131079D01*
X123211705Y-52014888D01*
X123211702Y-52014887D01*
X122905978Y-51936391D01*
X122905965Y-51936389D01*
X122592832Y-51896831D01*
X122592821Y-51896831D01*
X122277179Y-51896831D01*
X122277167Y-51896831D01*
X121964034Y-51936389D01*
X121964021Y-51936391D01*
X121658297Y-52014887D01*
X121658294Y-52014888D01*
X121364829Y-52131079D01*
X121364828Y-52131080D01*
X121088221Y-52283147D01*
X121088209Y-52283154D01*
X120832868Y-52468670D01*
X120832858Y-52468678D01*
X120602772Y-52684742D01*
X120401561Y-52927965D01*
X120232442Y-53194454D01*
X120232436Y-53194465D01*
X120098046Y-53480058D01*
X120098044Y-53480063D01*
X120039863Y-53659127D01*
X120000505Y-53780259D01*
X119967220Y-53954740D01*
X119941357Y-54090318D01*
X119921540Y-54405325D01*
X100075500Y-54405325D01*
X100075500Y-47428092D01*
X100076097Y-47415938D01*
X100087494Y-47300222D01*
X100092234Y-47276389D01*
X100124216Y-47170959D01*
X100133508Y-47148526D01*
X100185442Y-47051365D01*
X100198938Y-47031166D01*
X100268827Y-46946006D01*
X100286006Y-46928827D01*
X100371166Y-46858938D01*
X100391365Y-46845442D01*
X100488526Y-46793508D01*
X100510959Y-46784216D01*
X100616389Y-46752234D01*
X100640220Y-46747494D01*
X100755939Y-46736097D01*
X100768093Y-46735500D01*
X100786531Y-46735500D01*
X196437365Y-46735500D01*
X196504404Y-46755185D01*
G37*
G04 #@! TD.AperFunction*
G04 #@! TA.AperFunction,Conductor*
G36*
X130977369Y-68803427D02*
G01*
X130980767Y-68810877D01*
X130997874Y-69053456D01*
X130997874Y-69053459D01*
X131037810Y-69192515D01*
X131047795Y-69227280D01*
X131124212Y-69371418D01*
X131124221Y-69371433D01*
X131221314Y-69535369D01*
X131221792Y-69536262D01*
X131328979Y-69759261D01*
X131329475Y-69768202D01*
X131323503Y-69774875D01*
X131322928Y-69775132D01*
X130784494Y-69999130D01*
X130775539Y-69999144D01*
X130775506Y-69999130D01*
X130237071Y-69775132D01*
X130230749Y-69768791D01*
X130230763Y-69759836D01*
X130231004Y-69759296D01*
X130338217Y-69536238D01*
X130338669Y-69535393D01*
X130435787Y-69371418D01*
X130512204Y-69227280D01*
X130562125Y-69053455D01*
X130579233Y-68810877D01*
X130583233Y-68802865D01*
X130590904Y-68800000D01*
X130969096Y-68800000D01*
X130977369Y-68803427D01*
G37*
G04 #@! TD.AperFunction*
G04 #@! TA.AperFunction,Conductor*
G36*
X132362369Y-70803427D02*
G01*
X132365767Y-70810877D01*
X132382874Y-71053456D01*
X132382874Y-71053459D01*
X132422810Y-71192515D01*
X132432795Y-71227280D01*
X132509212Y-71371418D01*
X132509221Y-71371433D01*
X132606314Y-71535369D01*
X132606792Y-71536262D01*
X132713979Y-71759261D01*
X132714475Y-71768202D01*
X132708503Y-71774875D01*
X132707928Y-71775132D01*
X132169494Y-71999130D01*
X132160539Y-71999144D01*
X132160506Y-71999130D01*
X131622071Y-71775132D01*
X131615749Y-71768791D01*
X131615763Y-71759836D01*
X131616004Y-71759296D01*
X131723217Y-71536238D01*
X131723669Y-71535393D01*
X131820787Y-71371418D01*
X131897204Y-71227280D01*
X131947125Y-71053455D01*
X131964233Y-70810877D01*
X131968233Y-70802865D01*
X131975904Y-70800000D01*
X132354096Y-70800000D01*
X132362369Y-70803427D01*
G37*
G04 #@! TD.AperFunction*
G04 #@! TA.AperFunction,Conductor*
G36*
X133747369Y-67803427D02*
G01*
X133750767Y-67810877D01*
X133767874Y-68053456D01*
X133767874Y-68053459D01*
X133807810Y-68192515D01*
X133817795Y-68227280D01*
X133894212Y-68371418D01*
X133894221Y-68371433D01*
X133991314Y-68535369D01*
X133991792Y-68536262D01*
X134098979Y-68759261D01*
X134099475Y-68768202D01*
X134093503Y-68774875D01*
X134092928Y-68775132D01*
X133554494Y-68999130D01*
X133545539Y-68999144D01*
X133545506Y-68999130D01*
X133007071Y-68775132D01*
X133000749Y-68768791D01*
X133000763Y-68759836D01*
X133001004Y-68759296D01*
X133108217Y-68536238D01*
X133108669Y-68535393D01*
X133205787Y-68371418D01*
X133282204Y-68227280D01*
X133332125Y-68053455D01*
X133349233Y-67810877D01*
X133353233Y-67802865D01*
X133360904Y-67800000D01*
X133739096Y-67800000D01*
X133747369Y-67803427D01*
G37*
G04 #@! TD.AperFunction*
G04 #@! TA.AperFunction,Conductor*
G36*
X135132369Y-69803427D02*
G01*
X135135767Y-69810877D01*
X135152874Y-70053456D01*
X135152874Y-70053459D01*
X135192810Y-70192515D01*
X135202795Y-70227280D01*
X135279212Y-70371418D01*
X135279221Y-70371433D01*
X135376314Y-70535369D01*
X135376792Y-70536262D01*
X135483979Y-70759261D01*
X135484475Y-70768202D01*
X135478503Y-70774875D01*
X135477928Y-70775132D01*
X134939494Y-70999130D01*
X134930539Y-70999144D01*
X134930506Y-70999130D01*
X134392071Y-70775132D01*
X134385749Y-70768791D01*
X134385763Y-70759836D01*
X134386004Y-70759296D01*
X134493217Y-70536238D01*
X134493669Y-70535393D01*
X134590787Y-70371418D01*
X134667204Y-70227280D01*
X134717125Y-70053455D01*
X134734233Y-69810877D01*
X134738233Y-69802865D01*
X134745904Y-69800000D01*
X135124096Y-69800000D01*
X135132369Y-69803427D01*
G37*
G04 #@! TD.AperFunction*
G04 #@! TA.AperFunction,Conductor*
G36*
X136517369Y-71803427D02*
G01*
X136520767Y-71810877D01*
X136537874Y-72053456D01*
X136537874Y-72053459D01*
X136577810Y-72192515D01*
X136587795Y-72227280D01*
X136664212Y-72371418D01*
X136664221Y-72371433D01*
X136761314Y-72535369D01*
X136761792Y-72536262D01*
X136868979Y-72759261D01*
X136869475Y-72768202D01*
X136863503Y-72774875D01*
X136862928Y-72775132D01*
X136324494Y-72999130D01*
X136315539Y-72999144D01*
X136315506Y-72999130D01*
X135777071Y-72775132D01*
X135770749Y-72768791D01*
X135770763Y-72759836D01*
X135771004Y-72759296D01*
X135878217Y-72536238D01*
X135878669Y-72535393D01*
X135975787Y-72371418D01*
X136052204Y-72227280D01*
X136102125Y-72053455D01*
X136119233Y-71810877D01*
X136123233Y-71802865D01*
X136130904Y-71800000D01*
X136509096Y-71800000D01*
X136517369Y-71803427D01*
G37*
G04 #@! TD.AperFunction*
G04 #@! TA.AperFunction,Conductor*
G36*
X137902369Y-66803427D02*
G01*
X137905767Y-66810877D01*
X137922874Y-67053456D01*
X137922874Y-67053459D01*
X137962810Y-67192515D01*
X137972795Y-67227280D01*
X138049212Y-67371418D01*
X138049221Y-67371433D01*
X138146314Y-67535369D01*
X138146792Y-67536262D01*
X138253979Y-67759261D01*
X138254475Y-67768202D01*
X138248503Y-67774875D01*
X138247928Y-67775132D01*
X137709494Y-67999130D01*
X137700539Y-67999144D01*
X137700506Y-67999130D01*
X137162071Y-67775132D01*
X137155749Y-67768791D01*
X137155763Y-67759836D01*
X137156004Y-67759296D01*
X137263217Y-67536238D01*
X137263669Y-67535393D01*
X137360787Y-67371418D01*
X137437204Y-67227280D01*
X137487125Y-67053455D01*
X137504233Y-66810877D01*
X137508233Y-66802865D01*
X137515904Y-66800000D01*
X137894096Y-66800000D01*
X137902369Y-66803427D01*
G37*
G04 #@! TD.AperFunction*
G04 #@! TA.AperFunction,Conductor*
G36*
X139287369Y-65803427D02*
G01*
X139290767Y-65810877D01*
X139307874Y-66053456D01*
X139307874Y-66053459D01*
X139347810Y-66192515D01*
X139357795Y-66227280D01*
X139434212Y-66371418D01*
X139434221Y-66371433D01*
X139531314Y-66535369D01*
X139531792Y-66536262D01*
X139638979Y-66759261D01*
X139639475Y-66768202D01*
X139633503Y-66774875D01*
X139632928Y-66775132D01*
X139094494Y-66999130D01*
X139085539Y-66999144D01*
X139085506Y-66999130D01*
X138547071Y-66775132D01*
X138540749Y-66768791D01*
X138540763Y-66759836D01*
X138541004Y-66759296D01*
X138648217Y-66536238D01*
X138648669Y-66535393D01*
X138745787Y-66371418D01*
X138822204Y-66227280D01*
X138872125Y-66053455D01*
X138889233Y-65810877D01*
X138893233Y-65802865D01*
X138900904Y-65800000D01*
X139279096Y-65800000D01*
X139287369Y-65803427D01*
G37*
G04 #@! TD.AperFunction*
G04 #@! TA.AperFunction,Conductor*
G36*
X140672369Y-64803427D02*
G01*
X140675767Y-64810877D01*
X140692874Y-65053456D01*
X140692874Y-65053459D01*
X140732810Y-65192515D01*
X140742795Y-65227280D01*
X140819212Y-65371418D01*
X140819221Y-65371433D01*
X140916314Y-65535369D01*
X140916792Y-65536262D01*
X141023979Y-65759261D01*
X141024475Y-65768202D01*
X141018503Y-65774875D01*
X141017928Y-65775132D01*
X140479494Y-65999130D01*
X140470539Y-65999144D01*
X140470506Y-65999130D01*
X139932071Y-65775132D01*
X139925749Y-65768791D01*
X139925763Y-65759836D01*
X139926004Y-65759296D01*
X140033217Y-65536238D01*
X140033669Y-65535393D01*
X140130787Y-65371418D01*
X140207204Y-65227280D01*
X140257125Y-65053455D01*
X140274233Y-64810877D01*
X140278233Y-64802865D01*
X140285904Y-64800000D01*
X140664096Y-64800000D01*
X140672369Y-64803427D01*
G37*
G04 #@! TD.AperFunction*
G04 #@! TA.AperFunction,Conductor*
G36*
X176567369Y-74803427D02*
G01*
X176570767Y-74810877D01*
X176587874Y-75053456D01*
X176587874Y-75053459D01*
X176627810Y-75192515D01*
X176637795Y-75227280D01*
X176714212Y-75371418D01*
X176714221Y-75371433D01*
X176811314Y-75535369D01*
X176811792Y-75536262D01*
X176918979Y-75759261D01*
X176919475Y-75768202D01*
X176913503Y-75774875D01*
X176912928Y-75775132D01*
X176374494Y-75999130D01*
X176365539Y-75999144D01*
X176365506Y-75999130D01*
X175827071Y-75775132D01*
X175820749Y-75768791D01*
X175820763Y-75759836D01*
X175821004Y-75759296D01*
X175928217Y-75536238D01*
X175928669Y-75535393D01*
X176025787Y-75371418D01*
X176102204Y-75227280D01*
X176152125Y-75053455D01*
X176169233Y-74810877D01*
X176173233Y-74802865D01*
X176180904Y-74800000D01*
X176559096Y-74800000D01*
X176567369Y-74803427D01*
G37*
G04 #@! TD.AperFunction*
G04 #@! TA.AperFunction,Conductor*
G36*
X175182369Y-75803427D02*
G01*
X175185767Y-75810877D01*
X175202874Y-76053456D01*
X175202874Y-76053459D01*
X175242810Y-76192515D01*
X175252795Y-76227280D01*
X175329212Y-76371418D01*
X175329221Y-76371433D01*
X175426314Y-76535369D01*
X175426792Y-76536262D01*
X175533979Y-76759261D01*
X175534475Y-76768202D01*
X175528503Y-76774875D01*
X175527928Y-76775132D01*
X174989494Y-76999130D01*
X174980539Y-76999144D01*
X174980506Y-76999130D01*
X174442071Y-76775132D01*
X174435749Y-76768791D01*
X174435763Y-76759836D01*
X174436004Y-76759296D01*
X174543217Y-76536238D01*
X174543669Y-76535393D01*
X174640787Y-76371418D01*
X174717204Y-76227280D01*
X174767125Y-76053455D01*
X174784233Y-75810877D01*
X174788233Y-75802865D01*
X174795904Y-75800000D01*
X175174096Y-75800000D01*
X175182369Y-75803427D01*
G37*
G04 #@! TD.AperFunction*
G04 #@! TA.AperFunction,Conductor*
G36*
X173797369Y-76803427D02*
G01*
X173800767Y-76810877D01*
X173817874Y-77053456D01*
X173817874Y-77053459D01*
X173857810Y-77192515D01*
X173867795Y-77227280D01*
X173944212Y-77371418D01*
X173944221Y-77371433D01*
X174041314Y-77535369D01*
X174041792Y-77536262D01*
X174148979Y-77759261D01*
X174149475Y-77768202D01*
X174143503Y-77774875D01*
X174142928Y-77775132D01*
X173604494Y-77999130D01*
X173595539Y-77999144D01*
X173595506Y-77999130D01*
X173057071Y-77775132D01*
X173050749Y-77768791D01*
X173050763Y-77759836D01*
X173051004Y-77759296D01*
X173158217Y-77536238D01*
X173158669Y-77535393D01*
X173255787Y-77371418D01*
X173332204Y-77227280D01*
X173382125Y-77053455D01*
X173399233Y-76810877D01*
X173403233Y-76802865D01*
X173410904Y-76800000D01*
X173789096Y-76800000D01*
X173797369Y-76803427D01*
G37*
G04 #@! TD.AperFunction*
G04 #@! TA.AperFunction,Conductor*
G36*
X172412369Y-81803427D02*
G01*
X172415767Y-81810877D01*
X172432874Y-82053456D01*
X172432874Y-82053459D01*
X172472810Y-82192515D01*
X172482795Y-82227280D01*
X172559212Y-82371418D01*
X172559221Y-82371433D01*
X172656314Y-82535369D01*
X172656792Y-82536262D01*
X172763979Y-82759261D01*
X172764475Y-82768202D01*
X172758503Y-82774875D01*
X172757928Y-82775132D01*
X172219494Y-82999130D01*
X172210539Y-82999144D01*
X172210506Y-82999130D01*
X171672071Y-82775132D01*
X171665749Y-82768791D01*
X171665763Y-82759836D01*
X171666004Y-82759296D01*
X171773217Y-82536238D01*
X171773669Y-82535393D01*
X171870787Y-82371418D01*
X171947204Y-82227280D01*
X171997125Y-82053455D01*
X172014233Y-81810877D01*
X172018233Y-81802865D01*
X172025904Y-81800000D01*
X172404096Y-81800000D01*
X172412369Y-81803427D01*
G37*
G04 #@! TD.AperFunction*
G04 #@! TA.AperFunction,Conductor*
G36*
X171027369Y-79803427D02*
G01*
X171030767Y-79810877D01*
X171047874Y-80053456D01*
X171047874Y-80053459D01*
X171087810Y-80192515D01*
X171097795Y-80227280D01*
X171174212Y-80371418D01*
X171174221Y-80371433D01*
X171271314Y-80535369D01*
X171271792Y-80536262D01*
X171378979Y-80759261D01*
X171379475Y-80768202D01*
X171373503Y-80774875D01*
X171372928Y-80775132D01*
X170834494Y-80999130D01*
X170825539Y-80999144D01*
X170825506Y-80999130D01*
X170287071Y-80775132D01*
X170280749Y-80768791D01*
X170280763Y-80759836D01*
X170281004Y-80759296D01*
X170388217Y-80536238D01*
X170388669Y-80535393D01*
X170485787Y-80371418D01*
X170562204Y-80227280D01*
X170612125Y-80053455D01*
X170629233Y-79810877D01*
X170633233Y-79802865D01*
X170640904Y-79800000D01*
X171019096Y-79800000D01*
X171027369Y-79803427D01*
G37*
G04 #@! TD.AperFunction*
G04 #@! TA.AperFunction,Conductor*
G36*
X162947369Y-80803427D02*
G01*
X162950767Y-80810877D01*
X162967874Y-81053456D01*
X162967874Y-81053459D01*
X163007810Y-81192515D01*
X163017795Y-81227280D01*
X163094212Y-81371418D01*
X163094221Y-81371433D01*
X163191314Y-81535369D01*
X163191792Y-81536262D01*
X163298979Y-81759261D01*
X163299475Y-81768202D01*
X163293503Y-81774875D01*
X163292928Y-81775132D01*
X162754494Y-81999130D01*
X162745539Y-81999144D01*
X162745506Y-81999130D01*
X162207071Y-81775132D01*
X162200749Y-81768791D01*
X162200763Y-81759836D01*
X162201004Y-81759296D01*
X162308217Y-81536238D01*
X162308669Y-81535393D01*
X162405787Y-81371418D01*
X162482204Y-81227280D01*
X162532125Y-81053455D01*
X162549233Y-80810877D01*
X162553233Y-80802865D01*
X162560904Y-80800000D01*
X162939096Y-80800000D01*
X162947369Y-80803427D01*
G37*
G04 #@! TD.AperFunction*
G04 #@! TA.AperFunction,Conductor*
G36*
X161447369Y-78803427D02*
G01*
X161450767Y-78810877D01*
X161467874Y-79053456D01*
X161467874Y-79053459D01*
X161507810Y-79192515D01*
X161517795Y-79227280D01*
X161594212Y-79371418D01*
X161594221Y-79371433D01*
X161691314Y-79535369D01*
X161691792Y-79536262D01*
X161798979Y-79759261D01*
X161799475Y-79768202D01*
X161793503Y-79774875D01*
X161792928Y-79775132D01*
X161254494Y-79999130D01*
X161245539Y-79999144D01*
X161245506Y-79999130D01*
X160707071Y-79775132D01*
X160700749Y-79768791D01*
X160700763Y-79759836D01*
X160701004Y-79759296D01*
X160808217Y-79536238D01*
X160808669Y-79535393D01*
X160905787Y-79371418D01*
X160982204Y-79227280D01*
X161032125Y-79053455D01*
X161049233Y-78810877D01*
X161053233Y-78802865D01*
X161060904Y-78800000D01*
X161439096Y-78800000D01*
X161447369Y-78803427D01*
G37*
G04 #@! TD.AperFunction*
G04 #@! TA.AperFunction,Conductor*
G36*
X169642369Y-77803427D02*
G01*
X169645767Y-77810877D01*
X169662874Y-78053456D01*
X169662874Y-78053459D01*
X169702810Y-78192515D01*
X169712795Y-78227280D01*
X169789212Y-78371418D01*
X169789221Y-78371433D01*
X169886314Y-78535369D01*
X169886792Y-78536262D01*
X169993979Y-78759261D01*
X169994475Y-78768202D01*
X169988503Y-78774875D01*
X169987928Y-78775132D01*
X169449494Y-78999130D01*
X169440539Y-78999144D01*
X169440506Y-78999130D01*
X168902071Y-78775132D01*
X168895749Y-78768791D01*
X168895763Y-78759836D01*
X168896004Y-78759296D01*
X169003217Y-78536238D01*
X169003669Y-78535393D01*
X169100787Y-78371418D01*
X169177204Y-78227280D01*
X169227125Y-78053455D01*
X169244233Y-77810877D01*
X169248233Y-77802865D01*
X169255904Y-77800000D01*
X169634096Y-77800000D01*
X169642369Y-77803427D01*
G37*
G04 #@! TD.AperFunction*
M02*
