G04 #@! TF.GenerationSoftware,KiCad,Pcbnew,8.0.5*
G04 #@! TF.CreationDate,2024-09-14T17:32:50+01:00*
G04 #@! TF.ProjectId,RS232Board,52533233-3242-46f6-9172-642e6b696361,rev?*
G04 #@! TF.SameCoordinates,Original*
G04 #@! TF.FileFunction,Legend,Top*
G04 #@! TF.FilePolarity,Positive*
%FSLAX46Y46*%
G04 Gerber Fmt 4.6, Leading zero omitted, Abs format (unit mm)*
G04 Created by KiCad (PCBNEW 8.0.5) date 2024-09-14 17:32:50*
%MOMM*%
%LPD*%
G01*
G04 APERTURE LIST*
%ADD10C,0.150000*%
%ADD11C,0.000000*%
%ADD12C,0.120000*%
%ADD13R,2.000000X0.610000*%
%ADD14R,3.600000X2.680000*%
%ADD15C,3.200000*%
%ADD16C,4.000000*%
%ADD17R,1.600000X1.600000*%
%ADD18C,1.600000*%
G04 APERTURE END LIST*
D10*
X191364819Y-75833333D02*
X192079104Y-75833333D01*
X192079104Y-75833333D02*
X192221961Y-75880952D01*
X192221961Y-75880952D02*
X192317200Y-75976190D01*
X192317200Y-75976190D02*
X192364819Y-76119047D01*
X192364819Y-76119047D02*
X192364819Y-76214285D01*
X192364819Y-74833333D02*
X192364819Y-75404761D01*
X192364819Y-75119047D02*
X191364819Y-75119047D01*
X191364819Y-75119047D02*
X191507676Y-75214285D01*
X191507676Y-75214285D02*
X191602914Y-75309523D01*
X191602914Y-75309523D02*
X191650533Y-75404761D01*
X170496666Y-57860150D02*
X170496666Y-58574435D01*
X170496666Y-58574435D02*
X170449047Y-58717292D01*
X170449047Y-58717292D02*
X170353809Y-58812531D01*
X170353809Y-58812531D02*
X170210952Y-58860150D01*
X170210952Y-58860150D02*
X170115714Y-58860150D01*
X171020476Y-58860150D02*
X171210952Y-58860150D01*
X171210952Y-58860150D02*
X171306190Y-58812531D01*
X171306190Y-58812531D02*
X171353809Y-58764911D01*
X171353809Y-58764911D02*
X171449047Y-58622054D01*
X171449047Y-58622054D02*
X171496666Y-58431578D01*
X171496666Y-58431578D02*
X171496666Y-58050626D01*
X171496666Y-58050626D02*
X171449047Y-57955388D01*
X171449047Y-57955388D02*
X171401428Y-57907769D01*
X171401428Y-57907769D02*
X171306190Y-57860150D01*
X171306190Y-57860150D02*
X171115714Y-57860150D01*
X171115714Y-57860150D02*
X171020476Y-57907769D01*
X171020476Y-57907769D02*
X170972857Y-57955388D01*
X170972857Y-57955388D02*
X170925238Y-58050626D01*
X170925238Y-58050626D02*
X170925238Y-58288721D01*
X170925238Y-58288721D02*
X170972857Y-58383959D01*
X170972857Y-58383959D02*
X171020476Y-58431578D01*
X171020476Y-58431578D02*
X171115714Y-58479197D01*
X171115714Y-58479197D02*
X171306190Y-58479197D01*
X171306190Y-58479197D02*
X171401428Y-58431578D01*
X171401428Y-58431578D02*
X171449047Y-58383959D01*
X171449047Y-58383959D02*
X171496666Y-58288721D01*
X134601666Y-57860150D02*
X134601666Y-58574435D01*
X134601666Y-58574435D02*
X134554047Y-58717292D01*
X134554047Y-58717292D02*
X134458809Y-58812531D01*
X134458809Y-58812531D02*
X134315952Y-58860150D01*
X134315952Y-58860150D02*
X134220714Y-58860150D01*
X135220714Y-58288721D02*
X135125476Y-58241102D01*
X135125476Y-58241102D02*
X135077857Y-58193483D01*
X135077857Y-58193483D02*
X135030238Y-58098245D01*
X135030238Y-58098245D02*
X135030238Y-58050626D01*
X135030238Y-58050626D02*
X135077857Y-57955388D01*
X135077857Y-57955388D02*
X135125476Y-57907769D01*
X135125476Y-57907769D02*
X135220714Y-57860150D01*
X135220714Y-57860150D02*
X135411190Y-57860150D01*
X135411190Y-57860150D02*
X135506428Y-57907769D01*
X135506428Y-57907769D02*
X135554047Y-57955388D01*
X135554047Y-57955388D02*
X135601666Y-58050626D01*
X135601666Y-58050626D02*
X135601666Y-58098245D01*
X135601666Y-58098245D02*
X135554047Y-58193483D01*
X135554047Y-58193483D02*
X135506428Y-58241102D01*
X135506428Y-58241102D02*
X135411190Y-58288721D01*
X135411190Y-58288721D02*
X135220714Y-58288721D01*
X135220714Y-58288721D02*
X135125476Y-58336340D01*
X135125476Y-58336340D02*
X135077857Y-58383959D01*
X135077857Y-58383959D02*
X135030238Y-58479197D01*
X135030238Y-58479197D02*
X135030238Y-58669673D01*
X135030238Y-58669673D02*
X135077857Y-58764911D01*
X135077857Y-58764911D02*
X135125476Y-58812531D01*
X135125476Y-58812531D02*
X135220714Y-58860150D01*
X135220714Y-58860150D02*
X135411190Y-58860150D01*
X135411190Y-58860150D02*
X135506428Y-58812531D01*
X135506428Y-58812531D02*
X135554047Y-58764911D01*
X135554047Y-58764911D02*
X135601666Y-58669673D01*
X135601666Y-58669673D02*
X135601666Y-58479197D01*
X135601666Y-58479197D02*
X135554047Y-58383959D01*
X135554047Y-58383959D02*
X135506428Y-58336340D01*
X135506428Y-58336340D02*
X135411190Y-58288721D01*
D11*
G36*
X165878756Y-61553419D02*
G01*
X165353716Y-61553419D01*
X164030614Y-61553419D01*
X162203473Y-61553419D01*
X160630452Y-61553419D01*
X160103312Y-61553419D01*
X158570194Y-61553419D01*
X158059855Y-61553419D01*
X157146284Y-61553419D01*
X156621244Y-61553419D01*
X156621244Y-59369952D01*
X157146284Y-59369952D01*
X157146284Y-60651050D01*
X157404604Y-60651050D01*
X157404604Y-60172213D01*
X157539015Y-60172213D01*
X157610158Y-60291135D01*
X157676575Y-60408481D01*
X157736692Y-60527403D01*
X157788934Y-60651050D01*
X158059855Y-60651050D01*
X158028786Y-60579645D01*
X158166963Y-60579645D01*
X158311874Y-60643700D01*
X158424758Y-60669689D01*
X158570194Y-60678352D01*
X158717555Y-60667268D01*
X158837614Y-60634015D01*
X158930372Y-60578595D01*
X159019366Y-60458098D01*
X159049031Y-60296123D01*
X159040105Y-60198203D01*
X159013328Y-60118659D01*
X158921971Y-60001050D01*
X158800162Y-59925444D01*
X158673102Y-59873990D01*
X158592246Y-59842488D01*
X158518740Y-59803635D01*
X158465186Y-59753231D01*
X158444184Y-59687076D01*
X158467053Y-59604236D01*
X158535658Y-59554532D01*
X158650000Y-59537964D01*
X158798061Y-59558966D01*
X158914620Y-59609370D01*
X158958392Y-59493861D01*
X159223344Y-59493861D01*
X159351454Y-59674475D01*
X159483764Y-59575767D01*
X159611874Y-59546365D01*
X159733683Y-59589418D01*
X159781987Y-59712278D01*
X159743134Y-59823586D01*
X159644426Y-59936995D01*
X159582472Y-59997112D01*
X159516317Y-60059855D01*
X159450162Y-60126535D01*
X159388207Y-60198465D01*
X159333603Y-60276434D01*
X159289499Y-60361228D01*
X159260359Y-60453635D01*
X159250646Y-60554443D01*
X159249596Y-60598546D01*
X159254847Y-60651050D01*
X160103312Y-60651050D01*
X160103312Y-60606947D01*
X160269225Y-60606947D01*
X160334330Y-60630048D01*
X160425687Y-60653150D01*
X160528595Y-60671002D01*
X160630452Y-60678352D01*
X160751737Y-60670739D01*
X160855170Y-60647900D01*
X160941276Y-60611147D01*
X161010582Y-60561793D01*
X161100889Y-60430533D01*
X161130291Y-60264620D01*
X161116377Y-60159087D01*
X161074637Y-60069305D01*
X161007694Y-59997375D01*
X160918174Y-59945396D01*
X161035784Y-59836187D01*
X161079887Y-59687076D01*
X161054685Y-59542165D01*
X161022482Y-59493861D01*
X161323506Y-59493861D01*
X161451616Y-59674475D01*
X161583926Y-59575767D01*
X161712036Y-59546365D01*
X161833845Y-59589418D01*
X161882149Y-59712278D01*
X161843296Y-59823586D01*
X161744588Y-59936995D01*
X161682633Y-59997112D01*
X161616478Y-60059855D01*
X161550323Y-60126535D01*
X161488368Y-60198465D01*
X161433764Y-60276434D01*
X161389661Y-60361228D01*
X161360521Y-60453635D01*
X161350808Y-60554443D01*
X161349758Y-60598546D01*
X161355008Y-60651050D01*
X162203473Y-60651050D01*
X162203473Y-60436834D01*
X161644830Y-60436834D01*
X161666882Y-60367528D01*
X161720436Y-60292973D01*
X161787641Y-60221567D01*
X161850646Y-60161712D01*
X161957754Y-60056704D01*
X162052262Y-59943296D01*
X162119467Y-59822536D01*
X162144669Y-59693376D01*
X162139900Y-59670275D01*
X163371163Y-59670275D01*
X163371163Y-59884491D01*
X163581179Y-59884491D01*
X163537076Y-60115509D01*
X163371163Y-60115509D01*
X163371163Y-60329725D01*
X163497173Y-60329725D01*
X163436268Y-60651050D01*
X163650485Y-60651050D01*
X163709289Y-60329725D01*
X163877302Y-60329725D01*
X163816397Y-60651050D01*
X164030614Y-60651050D01*
X164091519Y-60329725D01*
X164347738Y-60329725D01*
X164347738Y-60115509D01*
X164131422Y-60115509D01*
X164175525Y-59884491D01*
X164347738Y-59884491D01*
X164347738Y-59670275D01*
X164217528Y-59670275D01*
X164251186Y-59493861D01*
X164473748Y-59493861D01*
X164601858Y-59674475D01*
X164734168Y-59575767D01*
X164862278Y-59546365D01*
X164984087Y-59589418D01*
X165032391Y-59712278D01*
X164993538Y-59823586D01*
X164894830Y-59936995D01*
X164832876Y-59997112D01*
X164766721Y-60059855D01*
X164700565Y-60126535D01*
X164638611Y-60198465D01*
X164584006Y-60276434D01*
X164539903Y-60361228D01*
X164510763Y-60453635D01*
X164501050Y-60554443D01*
X164500000Y-60598546D01*
X164505250Y-60651050D01*
X165353716Y-60651050D01*
X165353716Y-60436834D01*
X164795073Y-60436834D01*
X164817124Y-60367528D01*
X164870679Y-60292973D01*
X164937884Y-60221567D01*
X165000889Y-60161712D01*
X165107997Y-60056704D01*
X165202504Y-59943296D01*
X165269709Y-59822536D01*
X165294911Y-59693376D01*
X165261309Y-59530614D01*
X165171002Y-59414055D01*
X165040792Y-59344750D01*
X164887480Y-59321648D01*
X164778009Y-59332149D01*
X164668013Y-59363651D01*
X164564317Y-59417205D01*
X164473748Y-59493861D01*
X164251186Y-59493861D01*
X164278433Y-59351050D01*
X164064216Y-59351050D01*
X164003312Y-59670275D01*
X163835299Y-59670275D01*
X163898304Y-59351050D01*
X163684087Y-59351050D01*
X163623183Y-59670275D01*
X163371163Y-59670275D01*
X162139900Y-59670275D01*
X162111066Y-59530614D01*
X162020759Y-59414055D01*
X161890549Y-59344750D01*
X161737237Y-59321648D01*
X161627767Y-59332149D01*
X161517771Y-59363651D01*
X161414075Y-59417205D01*
X161323506Y-59493861D01*
X161022482Y-59493861D01*
X160976979Y-59425606D01*
X160843619Y-59348950D01*
X160755674Y-59328473D01*
X160653554Y-59321648D01*
X160541983Y-59331361D01*
X160442488Y-59360501D01*
X160292326Y-59437157D01*
X160384733Y-59626171D01*
X160509693Y-59566317D01*
X160655654Y-59542165D01*
X160774313Y-59583118D01*
X160817367Y-59695477D01*
X160797415Y-59775283D01*
X160745961Y-59825687D01*
X160674556Y-59852989D01*
X160594750Y-59861389D01*
X160498142Y-59861389D01*
X160498142Y-60075606D01*
X160577948Y-60075606D01*
X160692932Y-60085844D01*
X160785864Y-60116559D01*
X160847294Y-60173001D01*
X160867771Y-60260420D01*
X160814216Y-60401131D01*
X160740973Y-60443659D01*
X160628352Y-60457835D01*
X160528857Y-60452060D01*
X160444588Y-60434733D01*
X160319628Y-60390630D01*
X160269225Y-60606947D01*
X160103312Y-60606947D01*
X160103312Y-60436834D01*
X159544669Y-60436834D01*
X159566721Y-60367528D01*
X159620275Y-60292973D01*
X159687480Y-60221567D01*
X159750485Y-60161712D01*
X159857593Y-60056704D01*
X159952100Y-59943296D01*
X160019305Y-59822536D01*
X160044507Y-59693376D01*
X160010905Y-59530614D01*
X159920598Y-59414055D01*
X159790388Y-59344750D01*
X159637076Y-59321648D01*
X159527605Y-59332149D01*
X159417609Y-59363651D01*
X159313914Y-59417205D01*
X159223344Y-59493861D01*
X158958392Y-59493861D01*
X158990226Y-59409855D01*
X158840065Y-59348950D01*
X158743195Y-59328473D01*
X158631099Y-59321648D01*
X158502405Y-59333082D01*
X158393547Y-59367385D01*
X158304523Y-59424556D01*
X158215529Y-59547415D01*
X158185864Y-59710178D01*
X158219467Y-59864540D01*
X158304523Y-59968498D01*
X158418982Y-60037803D01*
X158540792Y-60086107D01*
X158628998Y-60122859D01*
X158708805Y-60166963D01*
X158767609Y-60222617D01*
X158790711Y-60294023D01*
X158781260Y-60355977D01*
X158746607Y-60410582D01*
X158678352Y-60448384D01*
X158570194Y-60462036D01*
X158465448Y-60454685D01*
X158378029Y-60432633D01*
X158242569Y-60369628D01*
X158166963Y-60579645D01*
X158028786Y-60579645D01*
X158000000Y-60513489D01*
X157927544Y-60368578D01*
X157849838Y-60229968D01*
X157774233Y-60109208D01*
X157866115Y-60049879D01*
X157927544Y-59968498D01*
X157962197Y-59870840D01*
X157973748Y-59762682D01*
X157965085Y-59660561D01*
X157939095Y-59572617D01*
X157839338Y-59439257D01*
X157767932Y-59393578D01*
X157683926Y-59361551D01*
X157588368Y-59342649D01*
X157482310Y-59336349D01*
X157408805Y-59338449D01*
X157320598Y-59343700D01*
X157229241Y-59354200D01*
X157146284Y-59369952D01*
X156621244Y-59369952D01*
X156621244Y-58446581D01*
X157146284Y-58446581D01*
X165353716Y-58446581D01*
X165878756Y-58446581D01*
X165878756Y-61553419D01*
G37*
G36*
X157575242Y-59573142D02*
G01*
X157648223Y-59609370D01*
X157695477Y-59671325D01*
X157711228Y-59760582D01*
X157652423Y-59906543D01*
X157575242Y-59945133D01*
X157461309Y-59957997D01*
X157404604Y-59957997D01*
X157404604Y-59567367D01*
X157446607Y-59562116D01*
X157482310Y-59561066D01*
X157575242Y-59573142D01*
G37*
G36*
X163919305Y-60115509D02*
G01*
X163751292Y-60115509D01*
X163795396Y-59884491D01*
X163961309Y-59884491D01*
X163919305Y-60115509D01*
G37*
G36*
X129625606Y-61553419D02*
G01*
X129100565Y-61553419D01*
X127783764Y-61553419D01*
X125956624Y-61553419D01*
X124383603Y-61553419D01*
X123856462Y-61553419D01*
X122323344Y-61553419D01*
X121813005Y-61553419D01*
X120899435Y-61553419D01*
X120374394Y-61553419D01*
X120374394Y-59369952D01*
X120899435Y-59369952D01*
X120899435Y-60651050D01*
X121157754Y-60651050D01*
X121157754Y-60172213D01*
X121292165Y-60172213D01*
X121363308Y-60291135D01*
X121429725Y-60408481D01*
X121489842Y-60527403D01*
X121542084Y-60651050D01*
X121813005Y-60651050D01*
X121781936Y-60579645D01*
X121920113Y-60579645D01*
X122065024Y-60643700D01*
X122177908Y-60669689D01*
X122323344Y-60678352D01*
X122470705Y-60667268D01*
X122590765Y-60634015D01*
X122683522Y-60578595D01*
X122772516Y-60458098D01*
X122802181Y-60296123D01*
X122793255Y-60198203D01*
X122766478Y-60118659D01*
X122675121Y-60001050D01*
X122553312Y-59925444D01*
X122426252Y-59873990D01*
X122345396Y-59842488D01*
X122271890Y-59803635D01*
X122218336Y-59753231D01*
X122197334Y-59687076D01*
X122220203Y-59604236D01*
X122288808Y-59554532D01*
X122403150Y-59537964D01*
X122551212Y-59558966D01*
X122667771Y-59609370D01*
X122711542Y-59493861D01*
X122976494Y-59493861D01*
X123104604Y-59674475D01*
X123236914Y-59575767D01*
X123365024Y-59546365D01*
X123486834Y-59589418D01*
X123535137Y-59712278D01*
X123496284Y-59823586D01*
X123397577Y-59936995D01*
X123335622Y-59997112D01*
X123269467Y-60059855D01*
X123203312Y-60126535D01*
X123141357Y-60198465D01*
X123086753Y-60276434D01*
X123042649Y-60361228D01*
X123013510Y-60453635D01*
X123003796Y-60554443D01*
X123002746Y-60598546D01*
X123007997Y-60651050D01*
X123856462Y-60651050D01*
X123856462Y-60606947D01*
X124022375Y-60606947D01*
X124087480Y-60630048D01*
X124178837Y-60653150D01*
X124281745Y-60671002D01*
X124383603Y-60678352D01*
X124504887Y-60670739D01*
X124608320Y-60647900D01*
X124694426Y-60611147D01*
X124763732Y-60561793D01*
X124854039Y-60430533D01*
X124883441Y-60264620D01*
X124869527Y-60159087D01*
X124827787Y-60069305D01*
X124760844Y-59997375D01*
X124671325Y-59945396D01*
X124788934Y-59836187D01*
X124833037Y-59687076D01*
X124807835Y-59542165D01*
X124775632Y-59493861D01*
X125076656Y-59493861D01*
X125204766Y-59674475D01*
X125337076Y-59575767D01*
X125465186Y-59546365D01*
X125586995Y-59589418D01*
X125635299Y-59712278D01*
X125596446Y-59823586D01*
X125497738Y-59936995D01*
X125435784Y-59997112D01*
X125369628Y-60059855D01*
X125303473Y-60126535D01*
X125241519Y-60198465D01*
X125186914Y-60276434D01*
X125142811Y-60361228D01*
X125113671Y-60453635D01*
X125103958Y-60554443D01*
X125102908Y-60598546D01*
X125108158Y-60651050D01*
X125956624Y-60651050D01*
X125956624Y-60436834D01*
X125397981Y-60436834D01*
X125420032Y-60367528D01*
X125473586Y-60292973D01*
X125540792Y-60221567D01*
X125603796Y-60161712D01*
X125710905Y-60056704D01*
X125805412Y-59943296D01*
X125872617Y-59822536D01*
X125897819Y-59693376D01*
X125893050Y-59670275D01*
X127124313Y-59670275D01*
X127124313Y-59884491D01*
X127334330Y-59884491D01*
X127290226Y-60115509D01*
X127124313Y-60115509D01*
X127124313Y-60329725D01*
X127250323Y-60329725D01*
X127189418Y-60651050D01*
X127403635Y-60651050D01*
X127462439Y-60329725D01*
X127630452Y-60329725D01*
X127569548Y-60651050D01*
X127783764Y-60651050D01*
X127844669Y-60329725D01*
X128100889Y-60329725D01*
X128100889Y-60115509D01*
X127884572Y-60115509D01*
X127928675Y-59884491D01*
X128100889Y-59884491D01*
X128100889Y-59670275D01*
X127970679Y-59670275D01*
X127979895Y-59621971D01*
X128237399Y-59621971D01*
X128321405Y-59836187D01*
X128449515Y-59784733D01*
X128583926Y-59710178D01*
X128583926Y-60436834D01*
X128310905Y-60436834D01*
X128310905Y-60651050D01*
X129100565Y-60651050D01*
X129100565Y-60436834D01*
X128842246Y-60436834D01*
X128842246Y-59351050D01*
X128665832Y-59351050D01*
X128575525Y-59432956D01*
X128464216Y-59508562D01*
X128346607Y-59573667D01*
X128237399Y-59621971D01*
X127979895Y-59621971D01*
X128031583Y-59351050D01*
X127817367Y-59351050D01*
X127756462Y-59670275D01*
X127588449Y-59670275D01*
X127651454Y-59351050D01*
X127437237Y-59351050D01*
X127376333Y-59670275D01*
X127124313Y-59670275D01*
X125893050Y-59670275D01*
X125864216Y-59530614D01*
X125773910Y-59414055D01*
X125643700Y-59344750D01*
X125490388Y-59321648D01*
X125380917Y-59332149D01*
X125270921Y-59363651D01*
X125167225Y-59417205D01*
X125076656Y-59493861D01*
X124775632Y-59493861D01*
X124730129Y-59425606D01*
X124596769Y-59348950D01*
X124508825Y-59328473D01*
X124406704Y-59321648D01*
X124295133Y-59331361D01*
X124195638Y-59360501D01*
X124045477Y-59437157D01*
X124137884Y-59626171D01*
X124262843Y-59566317D01*
X124408805Y-59542165D01*
X124527464Y-59583118D01*
X124570517Y-59695477D01*
X124550565Y-59775283D01*
X124499111Y-59825687D01*
X124427706Y-59852989D01*
X124347900Y-59861389D01*
X124251292Y-59861389D01*
X124251292Y-60075606D01*
X124331099Y-60075606D01*
X124446082Y-60085844D01*
X124539015Y-60116559D01*
X124600444Y-60173001D01*
X124620921Y-60260420D01*
X124567367Y-60401131D01*
X124494124Y-60443659D01*
X124381502Y-60457835D01*
X124282007Y-60452060D01*
X124197738Y-60434733D01*
X124072779Y-60390630D01*
X124022375Y-60606947D01*
X123856462Y-60606947D01*
X123856462Y-60436834D01*
X123297819Y-60436834D01*
X123319871Y-60367528D01*
X123373425Y-60292973D01*
X123440630Y-60221567D01*
X123503635Y-60161712D01*
X123610743Y-60056704D01*
X123705250Y-59943296D01*
X123772456Y-59822536D01*
X123797658Y-59693376D01*
X123764055Y-59530614D01*
X123673748Y-59414055D01*
X123543538Y-59344750D01*
X123390226Y-59321648D01*
X123280755Y-59332149D01*
X123170759Y-59363651D01*
X123067064Y-59417205D01*
X122976494Y-59493861D01*
X122711542Y-59493861D01*
X122743376Y-59409855D01*
X122593215Y-59348950D01*
X122496345Y-59328473D01*
X122384249Y-59321648D01*
X122255556Y-59333082D01*
X122146697Y-59367385D01*
X122057674Y-59424556D01*
X121968679Y-59547415D01*
X121939015Y-59710178D01*
X121972617Y-59864540D01*
X122057674Y-59968498D01*
X122172132Y-60037803D01*
X122293942Y-60086107D01*
X122382149Y-60122859D01*
X122461955Y-60166963D01*
X122520759Y-60222617D01*
X122543861Y-60294023D01*
X122534410Y-60355977D01*
X122499758Y-60410582D01*
X122431502Y-60448384D01*
X122323344Y-60462036D01*
X122218599Y-60454685D01*
X122131179Y-60432633D01*
X121995719Y-60369628D01*
X121920113Y-60579645D01*
X121781936Y-60579645D01*
X121753150Y-60513489D01*
X121680695Y-60368578D01*
X121602989Y-60229968D01*
X121527383Y-60109208D01*
X121619265Y-60049879D01*
X121680695Y-59968498D01*
X121715347Y-59870840D01*
X121726898Y-59762682D01*
X121718235Y-59660561D01*
X121692246Y-59572617D01*
X121592488Y-59439257D01*
X121521082Y-59393578D01*
X121437076Y-59361551D01*
X121341519Y-59342649D01*
X121235460Y-59336349D01*
X121161955Y-59338449D01*
X121073748Y-59343700D01*
X120982391Y-59354200D01*
X120899435Y-59369952D01*
X120374394Y-59369952D01*
X120374394Y-58446581D01*
X120899435Y-58446581D01*
X129100565Y-58446581D01*
X129625606Y-58446581D01*
X129625606Y-61553419D01*
G37*
G36*
X121328393Y-59573142D02*
G01*
X121401373Y-59609370D01*
X121448627Y-59671325D01*
X121464378Y-59760582D01*
X121405574Y-59906543D01*
X121328393Y-59945133D01*
X121214459Y-59957997D01*
X121157754Y-59957997D01*
X121157754Y-59567367D01*
X121199758Y-59562116D01*
X121235460Y-59561066D01*
X121328393Y-59573142D01*
G37*
G36*
X127672456Y-60115509D02*
G01*
X127504443Y-60115509D01*
X127548546Y-59884491D01*
X127714459Y-59884491D01*
X127672456Y-60115509D01*
G37*
D12*
X195000000Y-65435000D02*
X195000000Y-64610000D01*
X195000000Y-85565000D02*
X193200000Y-85565000D01*
X195000000Y-86390000D02*
X195000000Y-85565000D01*
X198970000Y-62455000D02*
X199510000Y-62455000D01*
X199510000Y-61430000D02*
X200620000Y-61430000D01*
X199510000Y-62455000D02*
X199510000Y-61430000D01*
X199510000Y-88545000D02*
X198970000Y-88545000D01*
X199510000Y-89570000D02*
X199510000Y-88545000D01*
X200620000Y-61430000D02*
X200620000Y-89570000D01*
X200620000Y-89570000D02*
X199510000Y-89570000D01*
X155345000Y-57465331D02*
X155345000Y-46985331D01*
X176120000Y-58359669D02*
X176370000Y-57926656D01*
X176370000Y-57926656D02*
X176620000Y-58359669D01*
X176620000Y-58359669D02*
X176120000Y-58359669D01*
X186315000Y-46985331D02*
X186315000Y-57465331D01*
X186315000Y-57465331D02*
X155345000Y-57465331D01*
X119450000Y-57465331D02*
X119450000Y-46985331D01*
X140225000Y-58359669D02*
X140475000Y-57926656D01*
X140475000Y-57926656D02*
X140725000Y-58359669D01*
X140725000Y-58359669D02*
X140225000Y-58359669D01*
X150420000Y-46985331D02*
X150420000Y-57465331D01*
X150420000Y-57465331D02*
X119450000Y-57465331D01*
%LPC*%
D13*
X194110000Y-85000000D03*
X194110000Y-84000000D03*
X194110000Y-83000000D03*
X194110000Y-82000000D03*
X194110000Y-81000000D03*
X194110000Y-80000000D03*
X194110000Y-79000000D03*
X194110000Y-78000000D03*
X194110000Y-77000000D03*
X194110000Y-76000000D03*
X194110000Y-75000000D03*
X194110000Y-74000000D03*
X194110000Y-73000000D03*
X194110000Y-72000000D03*
X194110000Y-71000000D03*
X194110000Y-70000000D03*
X194110000Y-69000000D03*
X194110000Y-68000000D03*
X194110000Y-67000000D03*
X194110000Y-66000000D03*
D14*
X196910000Y-87990000D03*
X196910000Y-63010000D03*
D15*
X196520000Y-97460000D03*
X115240000Y-49200000D03*
D16*
X183330000Y-54405331D03*
X158330000Y-54405331D03*
D17*
X176370000Y-54705331D03*
D18*
X173600000Y-54705331D03*
X170830000Y-54705331D03*
X168060000Y-54705331D03*
X165290000Y-54705331D03*
X174985000Y-51865331D03*
X172215000Y-51865331D03*
X169445000Y-51865331D03*
X166675000Y-51865331D03*
D16*
X147435000Y-54405331D03*
X122435000Y-54405331D03*
D17*
X140475000Y-54705331D03*
D18*
X137705000Y-54705331D03*
X134935000Y-54705331D03*
X132165000Y-54705331D03*
X129395000Y-54705331D03*
X139090000Y-51865331D03*
X136320000Y-51865331D03*
X133550000Y-51865331D03*
X130780000Y-51865331D03*
D15*
X113970000Y-97460000D03*
X166040000Y-64440000D03*
X166040000Y-92380000D03*
X190170000Y-49200000D03*
%LPD*%
M02*
