G04 #@! TF.GenerationSoftware,KiCad,Pcbnew,8.0.5*
G04 #@! TF.CreationDate,2024-09-14T17:32:50+01:00*
G04 #@! TF.ProjectId,RS232Board,52533233-3242-46f6-9172-642e6b696361,rev?*
G04 #@! TF.SameCoordinates,Original*
G04 #@! TF.FileFunction,Soldermask,Top*
G04 #@! TF.FilePolarity,Negative*
%FSLAX46Y46*%
G04 Gerber Fmt 4.6, Leading zero omitted, Abs format (unit mm)*
G04 Created by KiCad (PCBNEW 8.0.5) date 2024-09-14 17:32:50*
%MOMM*%
%LPD*%
G01*
G04 APERTURE LIST*
%ADD10R,2.000000X0.610000*%
%ADD11R,3.600000X2.680000*%
%ADD12C,3.200000*%
%ADD13C,4.000000*%
%ADD14R,1.600000X1.600000*%
%ADD15C,1.600000*%
G04 APERTURE END LIST*
D10*
X194110000Y-85000000D03*
X194110000Y-84000000D03*
X194110000Y-83000000D03*
X194110000Y-82000000D03*
X194110000Y-81000000D03*
X194110000Y-80000000D03*
X194110000Y-79000000D03*
X194110000Y-78000000D03*
X194110000Y-77000000D03*
X194110000Y-76000000D03*
X194110000Y-75000000D03*
X194110000Y-74000000D03*
X194110000Y-73000000D03*
X194110000Y-72000000D03*
X194110000Y-71000000D03*
X194110000Y-70000000D03*
X194110000Y-69000000D03*
X194110000Y-68000000D03*
X194110000Y-67000000D03*
X194110000Y-66000000D03*
D11*
X196910000Y-87990000D03*
X196910000Y-63010000D03*
D12*
X196520000Y-97460000D03*
X115240000Y-49200000D03*
D13*
X183330000Y-54405331D03*
X158330000Y-54405331D03*
D14*
X176370000Y-54705331D03*
D15*
X173600000Y-54705331D03*
X170830000Y-54705331D03*
X168060000Y-54705331D03*
X165290000Y-54705331D03*
X174985000Y-51865331D03*
X172215000Y-51865331D03*
X169445000Y-51865331D03*
X166675000Y-51865331D03*
D13*
X147435000Y-54405331D03*
X122435000Y-54405331D03*
D14*
X140475000Y-54705331D03*
D15*
X137705000Y-54705331D03*
X134935000Y-54705331D03*
X132165000Y-54705331D03*
X129395000Y-54705331D03*
X139090000Y-51865331D03*
X136320000Y-51865331D03*
X133550000Y-51865331D03*
X130780000Y-51865331D03*
D12*
X113970000Y-97460000D03*
X166040000Y-64440000D03*
X166040000Y-92380000D03*
X190170000Y-49200000D03*
M02*
