M48
; DRILL file {KiCad 8.0.5} date 2024-09-14T17:32:58+0100
; FORMAT={-:-/ absolute / metric / decimal}
; #@! TF.CreationDate,2024-09-14T17:32:58+01:00
; #@! TF.GenerationSoftware,Kicad,Pcbnew,8.0.5
; #@! TF.FileFunction,Plated,1,2,PTH
FMAT,2
METRIC
; #@! TA.AperFunction,Plated,PTH,ViaDrill
T1C0.600
; #@! TA.AperFunction,Plated,PTH,ComponentDrill
T2C1.000
; #@! TA.AperFunction,Plated,PTH,ComponentDrill
T3C3.200
%
G90
G05
T1
X130.78Y-70.0
X132.165Y-72.0
X133.55Y-69.0
X134.935Y-71.0
X136.32Y-73.0
X137.705Y-68.0
X139.09Y-67.0
X140.475Y-66.0
X161.25Y-80.0
X162.75Y-82.0
X169.445Y-79.0
X170.83Y-81.0
X172.215Y-83.0
X173.6Y-78.0
X174.985Y-77.0
X176.37Y-76.0
T2
X129.395Y-54.705
X130.78Y-51.865
X132.165Y-54.705
X133.55Y-51.865
X134.935Y-54.705
X136.32Y-51.865
X137.705Y-54.705
X139.09Y-51.865
X140.475Y-54.705
X165.29Y-54.705
X166.675Y-51.865
X168.06Y-54.705
X169.445Y-51.865
X170.83Y-54.705
X172.215Y-51.865
X173.6Y-54.705
X174.985Y-51.865
X176.37Y-54.705
T3
X122.435Y-54.405
X147.435Y-54.405
X158.33Y-54.405
X183.33Y-54.405
M30
