<?xml version="1.0" encoding="UTF-8" standalone="no"?>
<!DOCTYPE svg PUBLIC "-//W3C//DTD SVG 1.1//EN" "http://www.w3.org/Graphics/SVG/1.1/DTD/svg11.dtd">
<svg xmlns="http://www.w3.org/2000/svg" xmlns:xlink="http://www.w3.org/1999/xlink" version="1.1" width="142.529pt" height="141.213pt" viewBox="0 0 142.529 141.213">
<g enable-background="new">
<path transform="matrix(1,0,0,-1,28.745,113.585)" stroke-width=".79701" stroke-linecap="butt" stroke-miterlimit="10" stroke-linejoin="miter" fill="none" stroke="#000000" d="M -14.17339 0 L 99.21382 0 "/>
<path transform="matrix(1,0,0,-1,28.745,113.585)" d="M 0 0 L 0 42.5202 L 28.3468 42.5202 L 28.3468 0 Z M 28.3468 42.5202 " fill="#00aeef"/>
<path transform="matrix(1,0,0,-1,28.745,113.585)" stroke-width=".3985" stroke-linecap="butt" stroke-miterlimit="10" stroke-linejoin="miter" fill="none" stroke="#000000" d="M 0 0 L 0 42.5202 L 28.3468 42.5202 L 28.3468 0 Z M 28.3468 42.5202 "/>
<path transform="matrix(1,0,0,-1,28.745,113.585)" stroke-width=".3985" stroke-linecap="butt" stroke-dasharray="2.98883,2.98883" stroke-miterlimit="10" stroke-linejoin="miter" fill="none" stroke="#000000" d="M 14.17339 0 L 14.17339 42.5202 "/>
<path transform="matrix(1,0,0,-1,28.745,113.585)" d="M 15.5908 0 C 15.5908 .78282 14.95622 1.4174 14.17339 1.4174 C 13.39056 1.4174 12.75597 .78282 12.75597 0 C 12.75597 -.78282 13.39056 -1.4174 14.17339 -1.4174 C 14.95622 -1.4174 15.5908 -.78282 15.5908 0 Z M 14.17339 0 "/>
<path transform="matrix(1,0,0,-1,28.745,113.585)" stroke-width=".3985" stroke-linecap="butt" stroke-miterlimit="10" stroke-linejoin="miter" fill="none" stroke="#000000" d="M 15.5908 0 C 15.5908 .78282 14.95622 1.4174 14.17339 1.4174 C 13.39056 1.4174 12.75597 .78282 12.75597 0 C 12.75597 -.78282 13.39056 -1.4174 14.17339 -1.4174 C 14.95622 -1.4174 15.5908 -.78282 15.5908 0 Z M 14.17339 0 "/>
<text xml:space="preserve" transform="matrix(1 0 -0 1 0 141.213)" font-size="9.9626" font-family="CMMI10" font-style="italic"><tspan y="-19.818" x="32.261">x</tspan></text>
<text xml:space="preserve" transform="matrix(1 0 -0 1 0 141.213)" font-size="6.9738" font-family="CMMI7" font-style="italic"><tspan y="-18.324002" x="37.955">n</tspan></text>
<text xml:space="preserve" transform="matrix(1 0 -0 1 0 141.213)" font-size="6.9738" font-family="CMSY7" font-style="italic"><tspan y="-18.324002" x="42.88">&#x2212;</tspan></text>
<text xml:space="preserve" transform="matrix(1 0 -0 1 0 141.213)" font-size="6.9738" font-family="CMR7"><tspan y="-18.324002" x="49.106004">1</tspan></text>
<path transform="matrix(1,0,0,-1,28.745,113.585)" d="M 15.5908 42.5202 C 15.5908 43.30302 14.95622 43.93762 14.17339 43.93762 C 13.39056 43.93762 12.75597 43.30302 12.75597 42.5202 C 12.75597 41.73738 13.39056 41.10278 14.17339 41.10278 C 14.95622 41.10278 15.5908 41.73738 15.5908 42.5202 Z M 14.17339 42.5202 "/>
<path transform="matrix(1,0,0,-1,28.745,113.585)" stroke-width=".3985" stroke-linecap="butt" stroke-miterlimit="10" stroke-linejoin="miter" fill="none" stroke="#000000" d="M 15.5908 42.5202 C 15.5908 43.30302 14.95622 43.93762 14.17339 43.93762 C 13.39056 43.93762 12.75597 43.30302 12.75597 42.5202 C 12.75597 41.73738 13.39056 41.10278 14.17339 41.10278 C 14.95622 41.10278 15.5908 41.73738 15.5908 42.5202 Z M 14.17339 42.5202 "/>
<text xml:space="preserve" transform="matrix(1 0 -0 1 .0000038146974 141.213)" font-size="9.9626" font-family="CMMI10" font-style="italic"><tspan y="-75.992" x="32.788">e</tspan></text>
<text xml:space="preserve" transform="matrix(1 0 -0 1 .0000038146974 141.213)" font-size="6.9738" font-family="CMMI7" font-style="italic"><tspan y="-74.496997" x="37.427">n</tspan></text>
<text xml:space="preserve" transform="matrix(1 0 -0 1 .0000038146974 141.213)" font-size="6.9738" font-family="CMSY7" font-style="italic"><tspan y="-74.496997" x="42.351999">&#x2212;</tspan></text>
<text xml:space="preserve" transform="matrix(1 0 -0 1 .0000038146974 141.213)" font-size="6.9738" font-family="CMR7"><tspan y="-74.496997" x="48.579">1</tspan></text>
<path transform="matrix(1,0,0,-1,28.745,113.585)" d="M 28.3468 0 L 28.3468 56.69362 L 56.69362 56.69362 L 56.69362 0 Z M 56.69362 56.69362 " fill="#00ff00"/>
<path transform="matrix(1,0,0,-1,28.745,113.585)" stroke-width=".3985" stroke-linecap="butt" stroke-miterlimit="10" stroke-linejoin="miter" fill="none" stroke="#000000" d="M 28.3468 0 L 28.3468 56.69362 L 56.69362 56.69362 L 56.69362 0 Z M 56.69362 56.69362 "/>
<path transform="matrix(1,0,0,-1,28.745,113.585)" d="M 43.93762 0 C 43.93762 .78282 43.30302 1.4174 42.5202 1.4174 C 41.73738 1.4174 41.10278 .78282 41.10278 0 C 41.10278 -.78282 41.73738 -1.4174 42.5202 -1.4174 C 43.30302 -1.4174 43.93762 -.78282 43.93762 0 Z M 42.5202 0 "/>
<path transform="matrix(1,0,0,-1,28.745,113.585)" stroke-width=".3985" stroke-linecap="butt" stroke-miterlimit="10" stroke-linejoin="miter" fill="none" stroke="#000000" d="M 43.93762 0 C 43.93762 .78282 43.30302 1.4174 42.5202 1.4174 C 41.73738 1.4174 41.10278 .78282 41.10278 0 C 41.10278 -.78282 41.73738 -1.4174 42.5202 -1.4174 C 43.30302 -1.4174 43.93762 -.78282 43.93762 0 Z M 42.5202 0 "/>
<text xml:space="preserve" transform="matrix(1 0 -0 1 0 141.213)" font-size="9.9626" font-family="CMMI10" font-style="italic"><tspan y="-19.818" x="65.706">x</tspan></text>
<text xml:space="preserve" transform="matrix(1 0 -0 1 0 141.213)" font-size="6.9738" font-family="CMMI7" font-style="italic"><tspan y="-18.324002" x="71.4">n</tspan></text>
<path transform="matrix(1,0,0,-1,28.745,113.585)" d="M 43.93762 56.69362 C 43.93762 57.47644 43.30302 58.11102 42.5202 58.11102 C 41.73738 58.11102 41.10278 57.47644 41.10278 56.69362 C 41.10278 55.91078 41.73738 55.2762 42.5202 55.2762 C 43.30302 55.2762 43.93762 55.91078 43.93762 56.69362 Z M 42.5202 56.69362 "/>
<path transform="matrix(1,0,0,-1,28.745,113.585)" stroke-width=".3985" stroke-linecap="butt" stroke-miterlimit="10" stroke-linejoin="miter" fill="none" stroke="#000000" d="M 43.93762 56.69362 C 43.93762 57.47644 43.30302 58.11102 42.5202 58.11102 C 41.73738 58.11102 41.10278 57.47644 41.10278 56.69362 C 41.10278 55.91078 41.73738 55.2762 42.5202 55.2762 C 43.30302 55.2762 43.93762 55.91078 43.93762 56.69362 Z M 42.5202 56.69362 "/>
<text xml:space="preserve" transform="matrix(1 0 -0 1 0 141.213)" font-size="9.9626" font-family="CMMI10" font-style="italic"><tspan y="-89.335" x="66.234">e</tspan></text>
<text xml:space="preserve" transform="matrix(1 0 -0 1 0 141.213)" font-size="6.9738" font-family="CMMI7" font-style="italic"><tspan y="-87.84" x="70.873">n</tspan></text>
<path transform="matrix(1,0,0,-1,28.745,113.585)" stroke-width=".3985" stroke-linecap="butt" stroke-dasharray="2.98883,2.98883" stroke-miterlimit="10" stroke-linejoin="miter" fill="none" stroke="#000000" d="M 42.5202 0 L 42.5202 56.69362 "/>
<path transform="matrix(1,0,0,-1,28.745,113.585)" d="M 56.69362 0 L 56.69362 85.04042 L 85.04042 85.04042 L 85.04042 0 Z M 85.04042 85.04042 " fill="#ff8000"/>
<path transform="matrix(1,0,0,-1,28.745,113.585)" stroke-width=".3985" stroke-linecap="butt" stroke-miterlimit="10" stroke-linejoin="miter" fill="none" stroke="#000000" d="M 56.69362 0 L 56.69362 85.04042 L 85.04042 85.04042 L 85.04042 0 Z M 85.04042 85.04042 "/>
<path transform="matrix(1,0,0,-1,28.745,113.585)" d="M 72.28442 0 C 72.28442 .78282 71.64984 1.4174 70.867 1.4174 C 70.08418 1.4174 69.44958 .78282 69.44958 0 C 69.44958 -.78282 70.08418 -1.4174 70.867 -1.4174 C 71.64984 -1.4174 72.28442 -.78282 72.28442 0 Z M 70.867 0 "/>
<path transform="matrix(1,0,0,-1,28.745,113.585)" stroke-width=".3985" stroke-linecap="butt" stroke-miterlimit="10" stroke-linejoin="miter" fill="none" stroke="#000000" d="M 72.28442 0 C 72.28442 .78282 71.64984 1.4174 70.867 1.4174 C 70.08418 1.4174 69.44958 .78282 69.44958 0 C 69.44958 -.78282 70.08418 -1.4174 70.867 -1.4174 C 71.64984 -1.4174 72.28442 -.78282 72.28442 0 Z M 70.867 0 "/>
<text xml:space="preserve" transform="matrix(1 0 -0 1 0 141.213)" font-size="9.9626" font-family="CMMI10" font-style="italic"><tspan y="-19.818" x="89.009">x</tspan></text>
<text xml:space="preserve" transform="matrix(1 0 -0 1 0 141.213)" font-size="6.9738" font-family="CMMI7" font-style="italic"><tspan y="-18.324002" x="94.703">n</tspan></text>
<text xml:space="preserve" transform="matrix(1 0 -0 1 0 141.213)" font-size="6.9738" font-family="CMR7"><tspan y="-18.324002" x="99.628009 105.744029">+1</tspan></text>
<path transform="matrix(1,0,0,-1,28.745,113.585)" d="M 72.28442 85.04042 C 72.28442 85.82324 71.64984 86.45784 70.867 86.45784 C 70.08418 86.45784 69.44958 85.82324 69.44958 85.04042 C 69.44958 84.2576 70.08418 83.623 70.867 83.623 C 71.64984 83.623 72.28442 84.2576 72.28442 85.04042 Z M 70.867 85.04042 "/>
<path transform="matrix(1,0,0,-1,28.745,113.585)" stroke-width=".3985" stroke-linecap="butt" stroke-miterlimit="10" stroke-linejoin="miter" fill="none" stroke="#000000" d="M 72.28442 85.04042 C 72.28442 85.82324 71.64984 86.45784 70.867 86.45784 C 70.08418 86.45784 69.44958 85.82324 69.44958 85.04042 C 69.44958 84.2576 70.08418 83.623 70.867 83.623 C 71.64984 83.623 72.28442 84.2576 72.28442 85.04042 Z M 70.867 85.04042 "/>
<text xml:space="preserve" transform="matrix(1 0 -0 1 0 141.213)" font-size="9.9626" font-family="CMMI10" font-style="italic"><tspan y="-118.511" x="89.537">e</tspan></text>
<text xml:space="preserve" transform="matrix(1 0 -0 1 0 141.213)" font-size="6.9738" font-family="CMMI7" font-style="italic"><tspan y="-117.017" x="94.175">n</tspan></text>
<text xml:space="preserve" transform="matrix(1 0 -0 1 0 141.213)" font-size="6.9738" font-family="CMR7"><tspan y="-117.017" x="99.100009 105.21603">+1</tspan></text>
<path transform="matrix(1,0,0,-1,28.745,113.585)" stroke-width=".3985" stroke-linecap="butt" stroke-dasharray="2.98883,2.98883" stroke-miterlimit="10" stroke-linejoin="miter" fill="none" stroke="#000000" d="M 70.867 0 L 70.867 85.04042 "/>
<path transform="matrix(1,0,0,-1,28.745,113.585)" stroke-width=".3985" stroke-linecap="butt" stroke-miterlimit="10" stroke-linejoin="miter" fill="none" stroke="#000000" d="M -14.17339 28.3468 L 7.045 38.95613 C 10.98195 40.92453 17.36479 44.11588 21.30165 46.08427 L 35.39194 53.12953 C 39.3288 55.09793 45.0434 59.21681 48.156 62.3294 L 65.23122 79.40462 C 68.34381 82.51723 74.05846 86.6361 77.9954 88.60449 L 99.21382 99.21382 "/>
</g>
</svg>
