G04 #@! TF.GenerationSoftware,KiCad,Pcbnew,8.0.5*
G04 #@! TF.CreationDate,2024-09-14T16:10:14+01:00*
G04 #@! TF.ProjectId,DataShield,44617461-5368-4696-956c-642e6b696361,rev?*
G04 #@! TF.SameCoordinates,Original*
G04 #@! TF.FileFunction,Copper,L2,Inr*
G04 #@! TF.FilePolarity,Positive*
%FSLAX46Y46*%
G04 Gerber Fmt 4.6, Leading zero omitted, Abs format (unit mm)*
G04 Created by KiCad (PCBNEW 8.0.5) date 2024-09-14 16:10:14*
%MOMM*%
%LPD*%
G01*
G04 APERTURE LIST*
G04 Aperture macros list*
%AMRoundRect*
0 Rectangle with rounded corners*
0 $1 Rounding radius*
0 $2 $3 $4 $5 $6 $7 $8 $9 X,Y pos of 4 corners*
0 Add a 4 corners polygon primitive as box body*
4,1,4,$2,$3,$4,$5,$6,$7,$8,$9,$2,$3,0*
0 Add four circle primitives for the rounded corners*
1,1,$1+$1,$2,$3*
1,1,$1+$1,$4,$5*
1,1,$1+$1,$6,$7*
1,1,$1+$1,$8,$9*
0 Add four rect primitives between the rounded corners*
20,1,$1+$1,$2,$3,$4,$5,0*
20,1,$1+$1,$4,$5,$6,$7,0*
20,1,$1+$1,$6,$7,$8,$9,0*
20,1,$1+$1,$8,$9,$2,$3,0*%
G04 Aperture macros list end*
G04 #@! TA.AperFunction,ComponentPad*
%ADD10R,1.700000X1.700000*%
G04 #@! TD*
G04 #@! TA.AperFunction,ComponentPad*
%ADD11O,1.700000X1.700000*%
G04 #@! TD*
G04 #@! TA.AperFunction,ComponentPad*
%ADD12RoundRect,0.250000X-0.600000X0.600000X-0.600000X-0.600000X0.600000X-0.600000X0.600000X0.600000X0*%
G04 #@! TD*
G04 #@! TA.AperFunction,ComponentPad*
%ADD13C,1.700000*%
G04 #@! TD*
G04 #@! TA.AperFunction,ViaPad*
%ADD14C,0.800000*%
G04 #@! TD*
G04 #@! TA.AperFunction,ViaPad*
%ADD15C,1.200000*%
G04 #@! TD*
G04 APERTURE END LIST*
D10*
X173660000Y-97460000D03*
D11*
X176200000Y-97460000D03*
X178740000Y-97460000D03*
X181280000Y-97460000D03*
X183820000Y-97460000D03*
X186360000Y-97460000D03*
X188900000Y-97460000D03*
X191440000Y-97460000D03*
D10*
X168580000Y-49200000D03*
D11*
X171120000Y-49200000D03*
X173660000Y-49200000D03*
X176200000Y-49200000D03*
X178740000Y-49200000D03*
X181280000Y-49200000D03*
X183820000Y-49200000D03*
X186360000Y-49200000D03*
D10*
X193980000Y-92380000D03*
D11*
X196520000Y-92380000D03*
D10*
X193980000Y-56820000D03*
D11*
X196520000Y-56820000D03*
X193980000Y-54280000D03*
X196520000Y-54280000D03*
X193980000Y-51740000D03*
X196520000Y-51740000D03*
X193980000Y-49200000D03*
X196520000Y-49200000D03*
D12*
X184545000Y-61247500D03*
D13*
X184545000Y-63787500D03*
X182005000Y-61247500D03*
X182005000Y-63787500D03*
X179465000Y-61247500D03*
X179465000Y-63787500D03*
D14*
X182000000Y-73500000D03*
D15*
X188500000Y-85000000D03*
X171500000Y-94000000D03*
X186500000Y-68000000D03*
X180500000Y-56500000D03*
X188500000Y-83500000D03*
D14*
X181000000Y-88500000D03*
D15*
X196500000Y-74000000D03*
X175000000Y-61000000D03*
X196500000Y-85500000D03*
X196500000Y-84000000D03*
D14*
X181000000Y-73500000D03*
D15*
X172000000Y-84500000D03*
D14*
X182000000Y-88500000D03*
D15*
X196500000Y-75500000D03*
D14*
X188500000Y-59000000D03*
X179000000Y-54000000D03*
X179000000Y-55000000D03*
X188000000Y-58000000D03*
D15*
X187500000Y-55500000D03*
X185500000Y-88500000D03*
X175000000Y-64000000D03*
D14*
X193500000Y-87000000D03*
D15*
X196500000Y-81000000D03*
D14*
X183000000Y-68000000D03*
X191000000Y-62500000D03*
D15*
X187000000Y-92500000D03*
X171500000Y-92000000D03*
X188500000Y-68000000D03*
X185500000Y-73500000D03*
D14*
X172000000Y-82500000D03*
X179000000Y-83500000D03*
X173500000Y-67000000D03*
X179000000Y-68000000D03*
X189600000Y-53000000D03*
D15*
X180500000Y-52500000D03*
X183500000Y-73500000D03*
X183500000Y-88500000D03*
D14*
X179000000Y-88000000D03*
X177000000Y-89000000D03*
X173000000Y-86500000D03*
X173000000Y-90500000D03*
X178000000Y-87500000D03*
X178500000Y-89000000D03*
X175000000Y-89000000D03*
X173000000Y-87500000D03*
X178500000Y-74000000D03*
X173000000Y-72500000D03*
X179500000Y-73000000D03*
X177000000Y-74000000D03*
X178000000Y-72500000D03*
X175000000Y-74000000D03*
X173000000Y-75500000D03*
X173000000Y-71500000D03*
G04 #@! TA.AperFunction,Conductor*
G36*
X196411206Y-46980185D02*
G01*
X196431848Y-46996819D01*
X197194700Y-47759671D01*
X197228185Y-47820994D01*
X197223201Y-47890686D01*
X197181329Y-47946619D01*
X197115865Y-47971036D01*
X197054615Y-47959734D01*
X196983497Y-47926571D01*
X196983486Y-47926567D01*
X196770000Y-47869364D01*
X196770000Y-48766988D01*
X196712993Y-48734075D01*
X196585826Y-48700000D01*
X196454174Y-48700000D01*
X196327007Y-48734075D01*
X196270000Y-48766988D01*
X196270000Y-47869364D01*
X196269999Y-47869364D01*
X196056513Y-47926567D01*
X196056507Y-47926570D01*
X195842422Y-48026399D01*
X195842420Y-48026400D01*
X195648926Y-48161886D01*
X195648920Y-48161891D01*
X195481891Y-48328920D01*
X195481890Y-48328922D01*
X195351575Y-48515031D01*
X195296998Y-48558655D01*
X195227499Y-48565848D01*
X195165145Y-48534326D01*
X195148425Y-48515031D01*
X195018109Y-48328922D01*
X195018108Y-48328920D01*
X194851082Y-48161894D01*
X194657578Y-48026399D01*
X194443492Y-47926570D01*
X194443486Y-47926567D01*
X194230000Y-47869364D01*
X194230000Y-48766988D01*
X194172993Y-48734075D01*
X194045826Y-48700000D01*
X193914174Y-48700000D01*
X193787007Y-48734075D01*
X193730000Y-48766988D01*
X193730000Y-47869364D01*
X193729999Y-47869364D01*
X193516513Y-47926567D01*
X193516507Y-47926570D01*
X193302422Y-48026399D01*
X193302420Y-48026400D01*
X193108926Y-48161886D01*
X193108920Y-48161891D01*
X192941891Y-48328920D01*
X192941886Y-48328926D01*
X192806400Y-48522420D01*
X192806399Y-48522422D01*
X192706570Y-48736507D01*
X192706567Y-48736513D01*
X192649364Y-48949999D01*
X192649364Y-48950000D01*
X193546988Y-48950000D01*
X193514075Y-49007007D01*
X193480000Y-49134174D01*
X193480000Y-49265826D01*
X193514075Y-49392993D01*
X193546988Y-49450000D01*
X192649364Y-49450000D01*
X192706567Y-49663486D01*
X192706570Y-49663492D01*
X192806399Y-49877578D01*
X192941894Y-50071082D01*
X193108917Y-50238105D01*
X193289802Y-50364763D01*
X193333427Y-50419340D01*
X193340619Y-50488839D01*
X193309097Y-50551193D01*
X193277697Y-50575392D01*
X193234427Y-50598809D01*
X193234422Y-50598812D01*
X193056761Y-50737092D01*
X193056756Y-50737097D01*
X192904284Y-50902723D01*
X192904276Y-50902734D01*
X192781140Y-51091207D01*
X192690703Y-51297385D01*
X192635436Y-51515628D01*
X192635434Y-51515640D01*
X192616844Y-51739994D01*
X192616844Y-51740005D01*
X192635434Y-51964359D01*
X192635436Y-51964371D01*
X192690703Y-52182614D01*
X192781140Y-52388792D01*
X192904276Y-52577265D01*
X192904284Y-52577276D01*
X193056756Y-52742902D01*
X193056760Y-52742906D01*
X193234424Y-52881189D01*
X193234429Y-52881191D01*
X193234431Y-52881193D01*
X193270930Y-52900946D01*
X193320520Y-52950165D01*
X193335628Y-53018382D01*
X193311457Y-53083937D01*
X193270930Y-53119054D01*
X193234431Y-53138806D01*
X193234422Y-53138812D01*
X193056761Y-53277092D01*
X193056756Y-53277097D01*
X192904284Y-53442723D01*
X192904276Y-53442734D01*
X192781140Y-53631207D01*
X192690703Y-53837385D01*
X192635436Y-54055628D01*
X192635434Y-54055640D01*
X192616844Y-54279994D01*
X192616844Y-54280005D01*
X192635434Y-54504359D01*
X192635436Y-54504371D01*
X192690703Y-54722614D01*
X192781140Y-54928792D01*
X192904276Y-55117265D01*
X192904284Y-55117276D01*
X193049489Y-55275008D01*
X193080412Y-55337662D01*
X193072552Y-55407088D01*
X193028405Y-55461244D01*
X193001596Y-55475172D01*
X192883794Y-55519111D01*
X192766739Y-55606739D01*
X192679111Y-55723795D01*
X192628011Y-55860795D01*
X192628011Y-55860797D01*
X192621500Y-55921345D01*
X192621500Y-57718654D01*
X192628011Y-57779202D01*
X192628011Y-57779204D01*
X192679111Y-57916204D01*
X192766739Y-58033261D01*
X192883796Y-58120889D01*
X193020799Y-58171989D01*
X193048050Y-58174918D01*
X193081345Y-58178499D01*
X193081362Y-58178500D01*
X194878638Y-58178500D01*
X194878654Y-58178499D01*
X194905692Y-58175591D01*
X194939201Y-58171989D01*
X195076204Y-58120889D01*
X195193261Y-58033261D01*
X195280889Y-57916204D01*
X195326138Y-57794887D01*
X195368009Y-57738956D01*
X195433474Y-57714539D01*
X195501746Y-57729391D01*
X195533545Y-57754236D01*
X195596760Y-57822906D01*
X195774424Y-57961189D01*
X195774425Y-57961189D01*
X195774427Y-57961191D01*
X195901135Y-58029761D01*
X195972426Y-58068342D01*
X196185365Y-58141444D01*
X196407431Y-58178500D01*
X196632569Y-58178500D01*
X196854635Y-58141444D01*
X197067574Y-58068342D01*
X197265576Y-57961189D01*
X197443240Y-57822906D01*
X197595722Y-57657268D01*
X197718860Y-57468791D01*
X197809296Y-57262616D01*
X197864564Y-57044368D01*
X197883156Y-56820000D01*
X197873590Y-56704560D01*
X197864565Y-56595640D01*
X197864563Y-56595628D01*
X197809296Y-56377385D01*
X197773352Y-56295441D01*
X197718860Y-56171209D01*
X197595722Y-55982732D01*
X197595719Y-55982729D01*
X197595715Y-55982723D01*
X197443243Y-55817097D01*
X197443238Y-55817092D01*
X197323371Y-55723795D01*
X197265576Y-55678811D01*
X197229070Y-55659055D01*
X197179479Y-55609836D01*
X197164371Y-55541619D01*
X197188541Y-55476064D01*
X197229070Y-55440945D01*
X197229084Y-55440936D01*
X197265576Y-55421189D01*
X197443240Y-55282906D01*
X197595722Y-55117268D01*
X197718860Y-54928791D01*
X197809296Y-54722616D01*
X197864564Y-54504368D01*
X197865415Y-54494101D01*
X197883156Y-54280005D01*
X197883156Y-54279994D01*
X197864565Y-54055640D01*
X197864563Y-54055628D01*
X197809296Y-53837385D01*
X197797314Y-53810069D01*
X197718860Y-53631209D01*
X197717057Y-53628450D01*
X197595723Y-53442734D01*
X197595715Y-53442723D01*
X197443243Y-53277097D01*
X197443238Y-53277092D01*
X197265577Y-53138812D01*
X197265578Y-53138812D01*
X197265576Y-53138811D01*
X197229070Y-53119055D01*
X197179479Y-53069836D01*
X197164371Y-53001619D01*
X197188541Y-52936064D01*
X197229070Y-52900945D01*
X197229084Y-52900936D01*
X197265576Y-52881189D01*
X197443240Y-52742906D01*
X197595722Y-52577268D01*
X197718860Y-52388791D01*
X197809296Y-52182616D01*
X197864564Y-51964368D01*
X197864565Y-51964359D01*
X197883156Y-51740005D01*
X197883156Y-51739994D01*
X197864565Y-51515640D01*
X197864563Y-51515628D01*
X197809296Y-51297385D01*
X197718859Y-51091207D01*
X197628632Y-50953105D01*
X197595722Y-50902732D01*
X197595719Y-50902729D01*
X197595715Y-50902723D01*
X197443243Y-50737097D01*
X197443238Y-50737092D01*
X197265577Y-50598812D01*
X197265577Y-50598811D01*
X197222303Y-50575393D01*
X197172713Y-50526173D01*
X197157605Y-50457957D01*
X197181775Y-50392401D01*
X197210198Y-50364763D01*
X197391079Y-50238108D01*
X197558105Y-50071082D01*
X197693600Y-49877578D01*
X197793429Y-49663492D01*
X197793432Y-49663486D01*
X197850636Y-49450000D01*
X196953012Y-49450000D01*
X196985925Y-49392993D01*
X197020000Y-49265826D01*
X197020000Y-49134174D01*
X196985925Y-49007007D01*
X196953012Y-48950000D01*
X197850636Y-48950000D01*
X197850635Y-48949999D01*
X197793432Y-48736513D01*
X197793429Y-48736507D01*
X197760265Y-48665385D01*
X197749773Y-48596307D01*
X197778293Y-48532523D01*
X197836769Y-48494284D01*
X197906637Y-48493729D01*
X197960328Y-48525299D01*
X198723181Y-49288152D01*
X198756666Y-49349475D01*
X198759500Y-49375833D01*
X198759500Y-59399562D01*
X198779979Y-59475989D01*
X198815167Y-59536938D01*
X198819541Y-59544512D01*
X198819541Y-59544513D01*
X201263181Y-61988152D01*
X201296666Y-62049475D01*
X201299500Y-62075833D01*
X201299500Y-96014167D01*
X201279815Y-96081206D01*
X201263181Y-96101848D01*
X198819541Y-98545487D01*
X198819535Y-98545495D01*
X198779982Y-98614004D01*
X198779979Y-98614009D01*
X198759500Y-98690439D01*
X198759500Y-99229874D01*
X198758439Y-99246060D01*
X198745905Y-99341259D01*
X198737527Y-99372526D01*
X198703917Y-99453668D01*
X198687733Y-99481700D01*
X198634269Y-99551377D01*
X198611377Y-99574269D01*
X198541700Y-99627733D01*
X198513668Y-99643917D01*
X198432526Y-99677527D01*
X198401259Y-99685905D01*
X198315914Y-99697141D01*
X198306058Y-99698439D01*
X198289874Y-99699500D01*
X169924500Y-99699500D01*
X169857461Y-99679815D01*
X169811706Y-99627011D01*
X169800500Y-99575500D01*
X169800500Y-96561345D01*
X172301500Y-96561345D01*
X172301500Y-98358654D01*
X172308011Y-98419202D01*
X172308011Y-98419204D01*
X172334246Y-98489540D01*
X172359111Y-98556204D01*
X172446739Y-98673261D01*
X172563796Y-98760889D01*
X172700799Y-98811989D01*
X172728050Y-98814918D01*
X172761345Y-98818499D01*
X172761362Y-98818500D01*
X174558638Y-98818500D01*
X174558654Y-98818499D01*
X174585692Y-98815591D01*
X174619201Y-98811989D01*
X174756204Y-98760889D01*
X174873261Y-98673261D01*
X174960889Y-98556204D01*
X175006138Y-98434887D01*
X175048009Y-98378956D01*
X175113474Y-98354539D01*
X175181746Y-98369391D01*
X175213545Y-98394236D01*
X175276760Y-98462906D01*
X175454424Y-98601189D01*
X175454425Y-98601189D01*
X175454427Y-98601191D01*
X175581135Y-98669761D01*
X175652426Y-98708342D01*
X175865365Y-98781444D01*
X176087431Y-98818500D01*
X176312569Y-98818500D01*
X176534635Y-98781444D01*
X176747574Y-98708342D01*
X176945576Y-98601189D01*
X177123240Y-98462906D01*
X177250621Y-98324535D01*
X177275715Y-98297276D01*
X177275715Y-98297275D01*
X177275722Y-98297268D01*
X177366193Y-98158790D01*
X177419338Y-98113437D01*
X177488569Y-98104013D01*
X177551905Y-98133515D01*
X177573804Y-98158787D01*
X177664278Y-98297268D01*
X177664283Y-98297273D01*
X177664284Y-98297276D01*
X177790968Y-98434889D01*
X177816760Y-98462906D01*
X177994424Y-98601189D01*
X177994425Y-98601189D01*
X177994427Y-98601191D01*
X178121135Y-98669761D01*
X178192426Y-98708342D01*
X178405365Y-98781444D01*
X178627431Y-98818500D01*
X178852569Y-98818500D01*
X179074635Y-98781444D01*
X179287574Y-98708342D01*
X179485576Y-98601189D01*
X179663240Y-98462906D01*
X179790621Y-98324535D01*
X179815715Y-98297276D01*
X179815715Y-98297275D01*
X179815722Y-98297268D01*
X179906193Y-98158790D01*
X179959338Y-98113437D01*
X180028569Y-98104013D01*
X180091905Y-98133515D01*
X180113804Y-98158787D01*
X180204278Y-98297268D01*
X180204283Y-98297273D01*
X180204284Y-98297276D01*
X180330968Y-98434889D01*
X180356760Y-98462906D01*
X180534424Y-98601189D01*
X180534425Y-98601189D01*
X180534427Y-98601191D01*
X180661135Y-98669761D01*
X180732426Y-98708342D01*
X180945365Y-98781444D01*
X181167431Y-98818500D01*
X181392569Y-98818500D01*
X181614635Y-98781444D01*
X181827574Y-98708342D01*
X182025576Y-98601189D01*
X182203240Y-98462906D01*
X182330621Y-98324535D01*
X182355715Y-98297276D01*
X182355715Y-98297275D01*
X182355722Y-98297268D01*
X182446193Y-98158790D01*
X182499338Y-98113437D01*
X182568569Y-98104013D01*
X182631905Y-98133515D01*
X182653804Y-98158787D01*
X182744278Y-98297268D01*
X182744283Y-98297273D01*
X182744284Y-98297276D01*
X182870968Y-98434889D01*
X182896760Y-98462906D01*
X183074424Y-98601189D01*
X183074425Y-98601189D01*
X183074427Y-98601191D01*
X183201135Y-98669761D01*
X183272426Y-98708342D01*
X183485365Y-98781444D01*
X183707431Y-98818500D01*
X183932569Y-98818500D01*
X184154635Y-98781444D01*
X184367574Y-98708342D01*
X184565576Y-98601189D01*
X184743240Y-98462906D01*
X184870621Y-98324535D01*
X184895715Y-98297276D01*
X184895715Y-98297275D01*
X184895722Y-98297268D01*
X184986193Y-98158790D01*
X185039338Y-98113437D01*
X185108569Y-98104013D01*
X185171905Y-98133515D01*
X185193804Y-98158787D01*
X185284278Y-98297268D01*
X185284283Y-98297273D01*
X185284284Y-98297276D01*
X185410968Y-98434889D01*
X185436760Y-98462906D01*
X185614424Y-98601189D01*
X185614425Y-98601189D01*
X185614427Y-98601191D01*
X185741135Y-98669761D01*
X185812426Y-98708342D01*
X186025365Y-98781444D01*
X186247431Y-98818500D01*
X186472569Y-98818500D01*
X186694635Y-98781444D01*
X186907574Y-98708342D01*
X187105576Y-98601189D01*
X187283240Y-98462906D01*
X187410621Y-98324535D01*
X187435715Y-98297276D01*
X187435715Y-98297275D01*
X187435722Y-98297268D01*
X187526193Y-98158790D01*
X187579338Y-98113437D01*
X187648569Y-98104013D01*
X187711905Y-98133515D01*
X187733804Y-98158787D01*
X187824278Y-98297268D01*
X187824283Y-98297273D01*
X187824284Y-98297276D01*
X187950968Y-98434889D01*
X187976760Y-98462906D01*
X188154424Y-98601189D01*
X188154425Y-98601189D01*
X188154427Y-98601191D01*
X188281135Y-98669761D01*
X188352426Y-98708342D01*
X188565365Y-98781444D01*
X188787431Y-98818500D01*
X189012569Y-98818500D01*
X189234635Y-98781444D01*
X189447574Y-98708342D01*
X189645576Y-98601189D01*
X189823240Y-98462906D01*
X189950621Y-98324535D01*
X189975715Y-98297276D01*
X189975715Y-98297275D01*
X189975722Y-98297268D01*
X190066193Y-98158790D01*
X190119338Y-98113437D01*
X190188569Y-98104013D01*
X190251905Y-98133515D01*
X190273804Y-98158787D01*
X190364278Y-98297268D01*
X190364283Y-98297273D01*
X190364284Y-98297276D01*
X190490968Y-98434889D01*
X190516760Y-98462906D01*
X190694424Y-98601189D01*
X190694425Y-98601189D01*
X190694427Y-98601191D01*
X190821135Y-98669761D01*
X190892426Y-98708342D01*
X191105365Y-98781444D01*
X191327431Y-98818500D01*
X191552569Y-98818500D01*
X191774635Y-98781444D01*
X191987574Y-98708342D01*
X192185576Y-98601189D01*
X192363240Y-98462906D01*
X192490621Y-98324535D01*
X192515715Y-98297276D01*
X192515717Y-98297273D01*
X192515722Y-98297268D01*
X192638860Y-98108791D01*
X192729296Y-97902616D01*
X192784564Y-97684368D01*
X192792562Y-97587850D01*
X192803156Y-97460005D01*
X192803156Y-97459994D01*
X192792562Y-97332149D01*
X194569500Y-97332149D01*
X194569500Y-97587850D01*
X194582208Y-97684371D01*
X194602874Y-97841340D01*
X194619293Y-97902616D01*
X194669050Y-98088312D01*
X194669053Y-98088322D01*
X194766894Y-98324531D01*
X194766899Y-98324542D01*
X194894734Y-98545957D01*
X194894745Y-98545973D01*
X195050388Y-98748811D01*
X195050394Y-98748818D01*
X195231181Y-98929605D01*
X195231187Y-98929610D01*
X195434035Y-99085261D01*
X195434042Y-99085265D01*
X195655457Y-99213100D01*
X195655462Y-99213102D01*
X195655465Y-99213104D01*
X195891687Y-99310950D01*
X196138660Y-99377126D01*
X196392157Y-99410500D01*
X196392164Y-99410500D01*
X196647836Y-99410500D01*
X196647843Y-99410500D01*
X196901340Y-99377126D01*
X197148313Y-99310950D01*
X197384535Y-99213104D01*
X197605965Y-99085261D01*
X197808813Y-98929610D01*
X197989610Y-98748813D01*
X198145261Y-98545965D01*
X198273104Y-98324535D01*
X198370950Y-98088313D01*
X198437126Y-97841340D01*
X198470500Y-97587843D01*
X198470500Y-97332157D01*
X198437126Y-97078660D01*
X198370950Y-96831687D01*
X198364446Y-96815986D01*
X198284398Y-96622732D01*
X198273104Y-96595465D01*
X198273102Y-96595462D01*
X198273100Y-96595457D01*
X198145265Y-96374042D01*
X198145261Y-96374035D01*
X197989610Y-96171187D01*
X197989605Y-96171181D01*
X197808818Y-95990394D01*
X197808811Y-95990388D01*
X197605973Y-95834745D01*
X197605971Y-95834743D01*
X197605965Y-95834739D01*
X197605960Y-95834736D01*
X197605957Y-95834734D01*
X197384542Y-95706899D01*
X197384531Y-95706894D01*
X197148322Y-95609053D01*
X197148315Y-95609051D01*
X197148313Y-95609050D01*
X196901340Y-95542874D01*
X196845007Y-95535457D01*
X196647850Y-95509500D01*
X196647843Y-95509500D01*
X196392157Y-95509500D01*
X196392149Y-95509500D01*
X196166826Y-95539165D01*
X196138660Y-95542874D01*
X195891687Y-95609050D01*
X195891677Y-95609053D01*
X195655468Y-95706894D01*
X195655457Y-95706899D01*
X195434042Y-95834734D01*
X195434026Y-95834745D01*
X195231188Y-95990388D01*
X195231181Y-95990394D01*
X195050394Y-96171181D01*
X195050388Y-96171188D01*
X194894745Y-96374026D01*
X194894734Y-96374042D01*
X194766899Y-96595457D01*
X194766894Y-96595468D01*
X194669053Y-96831677D01*
X194669050Y-96831687D01*
X194602874Y-97078661D01*
X194569500Y-97332149D01*
X192792562Y-97332149D01*
X192784565Y-97235640D01*
X192784563Y-97235628D01*
X192729296Y-97017385D01*
X192638859Y-96811207D01*
X192515723Y-96622734D01*
X192515715Y-96622723D01*
X192363243Y-96457097D01*
X192363238Y-96457092D01*
X192185577Y-96318812D01*
X192185572Y-96318808D01*
X191987580Y-96211661D01*
X191987577Y-96211659D01*
X191987574Y-96211658D01*
X191987571Y-96211657D01*
X191987569Y-96211656D01*
X191774637Y-96138556D01*
X191552569Y-96101500D01*
X191327431Y-96101500D01*
X191105362Y-96138556D01*
X190892430Y-96211656D01*
X190892419Y-96211661D01*
X190694427Y-96318808D01*
X190694422Y-96318812D01*
X190516761Y-96457092D01*
X190516756Y-96457097D01*
X190364284Y-96622723D01*
X190364276Y-96622734D01*
X190273808Y-96761206D01*
X190220662Y-96806562D01*
X190151431Y-96815986D01*
X190088095Y-96786484D01*
X190066192Y-96761206D01*
X189975723Y-96622734D01*
X189975715Y-96622723D01*
X189823243Y-96457097D01*
X189823238Y-96457092D01*
X189645577Y-96318812D01*
X189645572Y-96318808D01*
X189447580Y-96211661D01*
X189447577Y-96211659D01*
X189447574Y-96211658D01*
X189447571Y-96211657D01*
X189447569Y-96211656D01*
X189234637Y-96138556D01*
X189012569Y-96101500D01*
X188787431Y-96101500D01*
X188565362Y-96138556D01*
X188352430Y-96211656D01*
X188352419Y-96211661D01*
X188154427Y-96318808D01*
X188154422Y-96318812D01*
X187976761Y-96457092D01*
X187976756Y-96457097D01*
X187824284Y-96622723D01*
X187824276Y-96622734D01*
X187733808Y-96761206D01*
X187680662Y-96806562D01*
X187611431Y-96815986D01*
X187548095Y-96786484D01*
X187526192Y-96761206D01*
X187435723Y-96622734D01*
X187435715Y-96622723D01*
X187283243Y-96457097D01*
X187283238Y-96457092D01*
X187105577Y-96318812D01*
X187105572Y-96318808D01*
X186907580Y-96211661D01*
X186907577Y-96211659D01*
X186907574Y-96211658D01*
X186907571Y-96211657D01*
X186907569Y-96211656D01*
X186694637Y-96138556D01*
X186472569Y-96101500D01*
X186247431Y-96101500D01*
X186025362Y-96138556D01*
X185812430Y-96211656D01*
X185812419Y-96211661D01*
X185614427Y-96318808D01*
X185614422Y-96318812D01*
X185436761Y-96457092D01*
X185436756Y-96457097D01*
X185284284Y-96622723D01*
X185284276Y-96622734D01*
X185193808Y-96761206D01*
X185140662Y-96806562D01*
X185071431Y-96815986D01*
X185008095Y-96786484D01*
X184986192Y-96761206D01*
X184895723Y-96622734D01*
X184895715Y-96622723D01*
X184743243Y-96457097D01*
X184743238Y-96457092D01*
X184565577Y-96318812D01*
X184565572Y-96318808D01*
X184367580Y-96211661D01*
X184367577Y-96211659D01*
X184367574Y-96211658D01*
X184367571Y-96211657D01*
X184367569Y-96211656D01*
X184154637Y-96138556D01*
X183932569Y-96101500D01*
X183707431Y-96101500D01*
X183485362Y-96138556D01*
X183272430Y-96211656D01*
X183272419Y-96211661D01*
X183074427Y-96318808D01*
X183074422Y-96318812D01*
X182896761Y-96457092D01*
X182896756Y-96457097D01*
X182744284Y-96622723D01*
X182744276Y-96622734D01*
X182653808Y-96761206D01*
X182600662Y-96806562D01*
X182531431Y-96815986D01*
X182468095Y-96786484D01*
X182446192Y-96761206D01*
X182355723Y-96622734D01*
X182355715Y-96622723D01*
X182203243Y-96457097D01*
X182203238Y-96457092D01*
X182025577Y-96318812D01*
X182025572Y-96318808D01*
X181827580Y-96211661D01*
X181827577Y-96211659D01*
X181827574Y-96211658D01*
X181827571Y-96211657D01*
X181827569Y-96211656D01*
X181614637Y-96138556D01*
X181392569Y-96101500D01*
X181167431Y-96101500D01*
X180945362Y-96138556D01*
X180732430Y-96211656D01*
X180732419Y-96211661D01*
X180534427Y-96318808D01*
X180534422Y-96318812D01*
X180356761Y-96457092D01*
X180356756Y-96457097D01*
X180204284Y-96622723D01*
X180204276Y-96622734D01*
X180113808Y-96761206D01*
X180060662Y-96806562D01*
X179991431Y-96815986D01*
X179928095Y-96786484D01*
X179906192Y-96761206D01*
X179815723Y-96622734D01*
X179815715Y-96622723D01*
X179663243Y-96457097D01*
X179663238Y-96457092D01*
X179485577Y-96318812D01*
X179485572Y-96318808D01*
X179287580Y-96211661D01*
X179287577Y-96211659D01*
X179287574Y-96211658D01*
X179287571Y-96211657D01*
X179287569Y-96211656D01*
X179074637Y-96138556D01*
X178852569Y-96101500D01*
X178627431Y-96101500D01*
X178405362Y-96138556D01*
X178192430Y-96211656D01*
X178192419Y-96211661D01*
X177994427Y-96318808D01*
X177994422Y-96318812D01*
X177816761Y-96457092D01*
X177816756Y-96457097D01*
X177664284Y-96622723D01*
X177664276Y-96622734D01*
X177573808Y-96761206D01*
X177520662Y-96806562D01*
X177451431Y-96815986D01*
X177388095Y-96786484D01*
X177366192Y-96761206D01*
X177275723Y-96622734D01*
X177275715Y-96622723D01*
X177123243Y-96457097D01*
X177123238Y-96457092D01*
X176945577Y-96318812D01*
X176945572Y-96318808D01*
X176747580Y-96211661D01*
X176747577Y-96211659D01*
X176747574Y-96211658D01*
X176747571Y-96211657D01*
X176747569Y-96211656D01*
X176534637Y-96138556D01*
X176312569Y-96101500D01*
X176087431Y-96101500D01*
X175865362Y-96138556D01*
X175652430Y-96211656D01*
X175652419Y-96211661D01*
X175454427Y-96318808D01*
X175454422Y-96318812D01*
X175276761Y-96457092D01*
X175213548Y-96525760D01*
X175153661Y-96561750D01*
X175083823Y-96559649D01*
X175026207Y-96520124D01*
X175006138Y-96485110D01*
X174960889Y-96363796D01*
X174927214Y-96318812D01*
X174873261Y-96246739D01*
X174756204Y-96159111D01*
X174619203Y-96108011D01*
X174558654Y-96101500D01*
X174558638Y-96101500D01*
X172761362Y-96101500D01*
X172761345Y-96101500D01*
X172700797Y-96108011D01*
X172700795Y-96108011D01*
X172563795Y-96159111D01*
X172446739Y-96246739D01*
X172359111Y-96363795D01*
X172308011Y-96500795D01*
X172308011Y-96500797D01*
X172301500Y-96561345D01*
X169800500Y-96561345D01*
X169800500Y-93999999D01*
X170386751Y-93999999D01*
X170386751Y-94000000D01*
X170405705Y-94204558D01*
X170405706Y-94204560D01*
X170461924Y-94402147D01*
X170461930Y-94402162D01*
X170553493Y-94586044D01*
X170553498Y-94586052D01*
X170677300Y-94749993D01*
X170807904Y-94869053D01*
X170829118Y-94888392D01*
X171003782Y-94996540D01*
X171195345Y-95070751D01*
X171397282Y-95108500D01*
X171397284Y-95108500D01*
X171602716Y-95108500D01*
X171602718Y-95108500D01*
X171804655Y-95070751D01*
X171996218Y-94996540D01*
X172170882Y-94888392D01*
X172322701Y-94749991D01*
X172446503Y-94586050D01*
X172538074Y-94402152D01*
X172594294Y-94204559D01*
X172613249Y-94000000D01*
X172594294Y-93795441D01*
X172538074Y-93597848D01*
X172535790Y-93593261D01*
X172446506Y-93413955D01*
X172446501Y-93413947D01*
X172322699Y-93250006D01*
X172170883Y-93111609D01*
X172170882Y-93111608D01*
X171996218Y-93003460D01*
X171804655Y-92929249D01*
X171602718Y-92891500D01*
X171397282Y-92891500D01*
X171195345Y-92929249D01*
X171195342Y-92929249D01*
X171195342Y-92929250D01*
X171003779Y-93003461D01*
X170829116Y-93111609D01*
X170677300Y-93250006D01*
X170553498Y-93413947D01*
X170553493Y-93413955D01*
X170461930Y-93597837D01*
X170461924Y-93597852D01*
X170405706Y-93795439D01*
X170405705Y-93795441D01*
X170386751Y-93999999D01*
X169800500Y-93999999D01*
X169800500Y-91481345D01*
X192621500Y-91481345D01*
X192621500Y-93278654D01*
X192628011Y-93339202D01*
X192628011Y-93339204D01*
X192655890Y-93413947D01*
X192679111Y-93476204D01*
X192766739Y-93593261D01*
X192883796Y-93680889D01*
X193020799Y-93731989D01*
X193048050Y-93734918D01*
X193081345Y-93738499D01*
X193081362Y-93738500D01*
X194878638Y-93738500D01*
X194878654Y-93738499D01*
X194905692Y-93735591D01*
X194939201Y-93731989D01*
X195076204Y-93680889D01*
X195193261Y-93593261D01*
X195280889Y-93476204D01*
X195326138Y-93354887D01*
X195368009Y-93298956D01*
X195433474Y-93274539D01*
X195501746Y-93289391D01*
X195533545Y-93314236D01*
X195596760Y-93382906D01*
X195774424Y-93521189D01*
X195774425Y-93521189D01*
X195774427Y-93521191D01*
X195901135Y-93589761D01*
X195972426Y-93628342D01*
X196185365Y-93701444D01*
X196407431Y-93738500D01*
X196632569Y-93738500D01*
X196854635Y-93701444D01*
X197067574Y-93628342D01*
X197265576Y-93521189D01*
X197443240Y-93382906D01*
X197543000Y-93274539D01*
X197595715Y-93217276D01*
X197595716Y-93217274D01*
X197595722Y-93217268D01*
X197718860Y-93028791D01*
X197809296Y-92822616D01*
X197864564Y-92604368D01*
X197883156Y-92380000D01*
X197864564Y-92155632D01*
X197809296Y-91937384D01*
X197718860Y-91731209D01*
X197595722Y-91542732D01*
X197595719Y-91542729D01*
X197595715Y-91542723D01*
X197443243Y-91377097D01*
X197443238Y-91377092D01*
X197265577Y-91238812D01*
X197265572Y-91238808D01*
X197067580Y-91131661D01*
X197067577Y-91131659D01*
X197067574Y-91131658D01*
X197067571Y-91131657D01*
X197067569Y-91131656D01*
X196854637Y-91058556D01*
X196632569Y-91021500D01*
X196407431Y-91021500D01*
X196185362Y-91058556D01*
X195972430Y-91131656D01*
X195972419Y-91131661D01*
X195774427Y-91238808D01*
X195774422Y-91238812D01*
X195596761Y-91377092D01*
X195533548Y-91445760D01*
X195473661Y-91481750D01*
X195403823Y-91479649D01*
X195346207Y-91440124D01*
X195326138Y-91405110D01*
X195280889Y-91283796D01*
X195247214Y-91238812D01*
X195193261Y-91166739D01*
X195076204Y-91079111D01*
X194939203Y-91028011D01*
X194878654Y-91021500D01*
X194878638Y-91021500D01*
X193081362Y-91021500D01*
X193081345Y-91021500D01*
X193020797Y-91028011D01*
X193020795Y-91028011D01*
X192883795Y-91079111D01*
X192766739Y-91166739D01*
X192679111Y-91283795D01*
X192628011Y-91420795D01*
X192628011Y-91420797D01*
X192621500Y-91481345D01*
X169800500Y-91481345D01*
X169800500Y-90500000D01*
X172086496Y-90500000D01*
X172106458Y-90689928D01*
X172106459Y-90689931D01*
X172165470Y-90871549D01*
X172165473Y-90871556D01*
X172260960Y-91036944D01*
X172388747Y-91178866D01*
X172543248Y-91291118D01*
X172717712Y-91368794D01*
X172904513Y-91408500D01*
X173095487Y-91408500D01*
X173282288Y-91368794D01*
X173456752Y-91291118D01*
X173611253Y-91178866D01*
X173739040Y-91036944D01*
X173834527Y-90871556D01*
X173893542Y-90689928D01*
X173913504Y-90500000D01*
X173893542Y-90310072D01*
X173834527Y-90128444D01*
X173739040Y-89963056D01*
X173611253Y-89821134D01*
X173456752Y-89708882D01*
X173282288Y-89631206D01*
X173282286Y-89631205D01*
X173095487Y-89591500D01*
X172904513Y-89591500D01*
X172717714Y-89631205D01*
X172543246Y-89708883D01*
X172388745Y-89821135D01*
X172260959Y-89963057D01*
X172165473Y-90128443D01*
X172165470Y-90128450D01*
X172106459Y-90310068D01*
X172106458Y-90310072D01*
X172086496Y-90500000D01*
X169800500Y-90500000D01*
X169800500Y-89000000D01*
X174086496Y-89000000D01*
X174106458Y-89189928D01*
X174106459Y-89189931D01*
X174165470Y-89371549D01*
X174165473Y-89371556D01*
X174260960Y-89536944D01*
X174388747Y-89678866D01*
X174543248Y-89791118D01*
X174717712Y-89868794D01*
X174904513Y-89908500D01*
X175095487Y-89908500D01*
X175282288Y-89868794D01*
X175456752Y-89791118D01*
X175611253Y-89678866D01*
X175739040Y-89536944D01*
X175834527Y-89371556D01*
X175882069Y-89225238D01*
X175921506Y-89167562D01*
X175985865Y-89140364D01*
X176054711Y-89152279D01*
X176106187Y-89199523D01*
X176117931Y-89225238D01*
X176165470Y-89371549D01*
X176165473Y-89371556D01*
X176260960Y-89536944D01*
X176388747Y-89678866D01*
X176543248Y-89791118D01*
X176717712Y-89868794D01*
X176904513Y-89908500D01*
X177095487Y-89908500D01*
X177282288Y-89868794D01*
X177456752Y-89791118D01*
X177611253Y-89678866D01*
X177657852Y-89627111D01*
X177717336Y-89590466D01*
X177787193Y-89591795D01*
X177842147Y-89627111D01*
X177888747Y-89678866D01*
X178043248Y-89791118D01*
X178217712Y-89868794D01*
X178404513Y-89908500D01*
X178595487Y-89908500D01*
X178782288Y-89868794D01*
X178956752Y-89791118D01*
X179111253Y-89678866D01*
X179239040Y-89536944D01*
X179334527Y-89371556D01*
X179393542Y-89189928D01*
X179413504Y-89000000D01*
X179403658Y-88906326D01*
X179416227Y-88837599D01*
X179454094Y-88793049D01*
X179575888Y-88704560D01*
X179611253Y-88678866D01*
X179739040Y-88536944D01*
X179760370Y-88500000D01*
X180086496Y-88500000D01*
X180106458Y-88689928D01*
X180106459Y-88689931D01*
X180165470Y-88871549D01*
X180165473Y-88871556D01*
X180260960Y-89036944D01*
X180388747Y-89178866D01*
X180543248Y-89291118D01*
X180717712Y-89368794D01*
X180904513Y-89408500D01*
X181095487Y-89408500D01*
X181282288Y-89368794D01*
X181449567Y-89294316D01*
X181518815Y-89285033D01*
X181550429Y-89294315D01*
X181717712Y-89368794D01*
X181904513Y-89408500D01*
X182095487Y-89408500D01*
X182282288Y-89368794D01*
X182456752Y-89291118D01*
X182522840Y-89243101D01*
X182588646Y-89219621D01*
X182656700Y-89235446D01*
X182679262Y-89251780D01*
X182829118Y-89388392D01*
X183003782Y-89496540D01*
X183195345Y-89570751D01*
X183397282Y-89608500D01*
X183397284Y-89608500D01*
X183602716Y-89608500D01*
X183602718Y-89608500D01*
X183804655Y-89570751D01*
X183996218Y-89496540D01*
X184170882Y-89388392D01*
X184312055Y-89259696D01*
X184322699Y-89249993D01*
X184333685Y-89235446D01*
X184446503Y-89086050D01*
X184538074Y-88902152D01*
X184594294Y-88704559D01*
X184613249Y-88500000D01*
X184601346Y-88371550D01*
X184594294Y-88295441D01*
X184594293Y-88295439D01*
X184591580Y-88285905D01*
X184538074Y-88097848D01*
X184538069Y-88097837D01*
X184446506Y-87913955D01*
X184446501Y-87913947D01*
X184322699Y-87750006D01*
X184170883Y-87611609D01*
X184170882Y-87611608D01*
X183996218Y-87503460D01*
X183804655Y-87429249D01*
X183602718Y-87391500D01*
X183397282Y-87391500D01*
X183195345Y-87429249D01*
X183195342Y-87429249D01*
X183195342Y-87429250D01*
X183003779Y-87503461D01*
X182829119Y-87611607D01*
X182679263Y-87748218D01*
X182616458Y-87778834D01*
X182547071Y-87770636D01*
X182522843Y-87756900D01*
X182456752Y-87708882D01*
X182282288Y-87631206D01*
X182282286Y-87631205D01*
X182095487Y-87591500D01*
X181904513Y-87591500D01*
X181717713Y-87631205D01*
X181717710Y-87631206D01*
X181550434Y-87705681D01*
X181481184Y-87714965D01*
X181449566Y-87705681D01*
X181282289Y-87631206D01*
X181282286Y-87631205D01*
X181095487Y-87591500D01*
X180904513Y-87591500D01*
X180717714Y-87631205D01*
X180543246Y-87708883D01*
X180388745Y-87821135D01*
X180260959Y-87963057D01*
X180165473Y-88128443D01*
X180165472Y-88128445D01*
X180137642Y-88214096D01*
X180098203Y-88271771D01*
X180090387Y-88275073D01*
X180104237Y-88327764D01*
X180103610Y-88337167D01*
X180086496Y-88500000D01*
X179760370Y-88500000D01*
X179834527Y-88371556D01*
X179854505Y-88310072D01*
X179862357Y-88285905D01*
X179901794Y-88228229D01*
X179909611Y-88224925D01*
X179895762Y-88172233D01*
X179896386Y-88162859D01*
X179913504Y-88000000D01*
X179893542Y-87810072D01*
X179834527Y-87628444D01*
X179739040Y-87463056D01*
X179611253Y-87321134D01*
X179456752Y-87208882D01*
X179282288Y-87131206D01*
X179282286Y-87131205D01*
X179095487Y-87091500D01*
X178904513Y-87091500D01*
X178904512Y-87091500D01*
X178898510Y-87092131D01*
X178829780Y-87079564D01*
X178778755Y-87031833D01*
X178778205Y-87030893D01*
X178739040Y-86963056D01*
X178611253Y-86821134D01*
X178456752Y-86708882D01*
X178282288Y-86631206D01*
X178282286Y-86631205D01*
X178095487Y-86591500D01*
X177904513Y-86591500D01*
X177717714Y-86631205D01*
X177543246Y-86708883D01*
X177388745Y-86821135D01*
X177260959Y-86963057D01*
X177165473Y-87128443D01*
X177165470Y-87128450D01*
X177106459Y-87310068D01*
X177106458Y-87310072D01*
X177086496Y-87500000D01*
X177106458Y-87689928D01*
X177106459Y-87689931D01*
X177165470Y-87871549D01*
X177165473Y-87871556D01*
X177185071Y-87905500D01*
X177201544Y-87973400D01*
X177178692Y-88039427D01*
X177123770Y-88082618D01*
X177077684Y-88091500D01*
X176904513Y-88091500D01*
X176717714Y-88131205D01*
X176543246Y-88208883D01*
X176388745Y-88321135D01*
X176260959Y-88463057D01*
X176165473Y-88628443D01*
X176165470Y-88628450D01*
X176117931Y-88774761D01*
X176078493Y-88832437D01*
X176014135Y-88859635D01*
X175945288Y-88847720D01*
X175893813Y-88800476D01*
X175882069Y-88774761D01*
X175834529Y-88628450D01*
X175834528Y-88628449D01*
X175834527Y-88628444D01*
X175739040Y-88463056D01*
X175611253Y-88321134D01*
X175456752Y-88208882D01*
X175282288Y-88131206D01*
X175282286Y-88131205D01*
X175095487Y-88091500D01*
X174904513Y-88091500D01*
X174717714Y-88131205D01*
X174543246Y-88208883D01*
X174388745Y-88321135D01*
X174260959Y-88463057D01*
X174165473Y-88628443D01*
X174165470Y-88628450D01*
X174111989Y-88793049D01*
X174106458Y-88810072D01*
X174086496Y-89000000D01*
X169800500Y-89000000D01*
X169800500Y-84499999D01*
X170886751Y-84499999D01*
X170886751Y-84500000D01*
X170905705Y-84704558D01*
X170905706Y-84704560D01*
X170961924Y-84902147D01*
X170961930Y-84902162D01*
X171053493Y-85086044D01*
X171053498Y-85086052D01*
X171177300Y-85249993D01*
X171227155Y-85295441D01*
X171329118Y-85388392D01*
X171503782Y-85496540D01*
X171695345Y-85570751D01*
X171897282Y-85608500D01*
X171897284Y-85608500D01*
X172102716Y-85608500D01*
X172102718Y-85608500D01*
X172304655Y-85570751D01*
X172304659Y-85570749D01*
X172304661Y-85570749D01*
X172316866Y-85566020D01*
X172334242Y-85559288D01*
X172403864Y-85553425D01*
X172465605Y-85586133D01*
X172499862Y-85647028D01*
X172495758Y-85716777D01*
X172454596Y-85773235D01*
X172451925Y-85775231D01*
X172388746Y-85821134D01*
X172260959Y-85963057D01*
X172165473Y-86128443D01*
X172165470Y-86128450D01*
X172106459Y-86310068D01*
X172106458Y-86310072D01*
X172086496Y-86500000D01*
X172106458Y-86689928D01*
X172106459Y-86689931D01*
X172165470Y-86871549D01*
X172165472Y-86871553D01*
X172165473Y-86871556D01*
X172203834Y-86937999D01*
X172203835Y-86938001D01*
X172220307Y-87005901D01*
X172203835Y-87061999D01*
X172165472Y-87128446D01*
X172165470Y-87128450D01*
X172106459Y-87310068D01*
X172106458Y-87310072D01*
X172086496Y-87500000D01*
X172106458Y-87689928D01*
X172106459Y-87689931D01*
X172165470Y-87871549D01*
X172165473Y-87871556D01*
X172260960Y-88036944D01*
X172315802Y-88097852D01*
X172388353Y-88178429D01*
X172388747Y-88178866D01*
X172543248Y-88291118D01*
X172717712Y-88368794D01*
X172904513Y-88408500D01*
X173095487Y-88408500D01*
X173282288Y-88368794D01*
X173456752Y-88291118D01*
X173611253Y-88178866D01*
X173739040Y-88036944D01*
X173834527Y-87871556D01*
X173893542Y-87689928D01*
X173913504Y-87500000D01*
X173893542Y-87310072D01*
X173854198Y-87188986D01*
X173834528Y-87128446D01*
X173813197Y-87091500D01*
X173796164Y-87061998D01*
X173779692Y-86994101D01*
X173796164Y-86938001D01*
X173834527Y-86871556D01*
X173893542Y-86689928D01*
X173913504Y-86500000D01*
X173893542Y-86310072D01*
X173834527Y-86128444D01*
X173739040Y-85963056D01*
X173611253Y-85821134D01*
X173456752Y-85708882D01*
X173282288Y-85631206D01*
X173282286Y-85631205D01*
X173095487Y-85591500D01*
X172904513Y-85591500D01*
X172904512Y-85591500D01*
X172745473Y-85625304D01*
X172675806Y-85619988D01*
X172620073Y-85577851D01*
X172595968Y-85512271D01*
X172611145Y-85444069D01*
X172654415Y-85398587D01*
X172670882Y-85388392D01*
X172822701Y-85249991D01*
X172946503Y-85086050D01*
X173038074Y-84902152D01*
X173094294Y-84704559D01*
X173113249Y-84500000D01*
X173094294Y-84295441D01*
X173038074Y-84097848D01*
X173038069Y-84097837D01*
X172946506Y-83913955D01*
X172946501Y-83913947D01*
X172822699Y-83750006D01*
X172670883Y-83611609D01*
X172670882Y-83611608D01*
X172583550Y-83557534D01*
X172496217Y-83503459D01*
X172492032Y-83501838D01*
X172489640Y-83500000D01*
X178086496Y-83500000D01*
X178106458Y-83689928D01*
X178106459Y-83689931D01*
X178165470Y-83871549D01*
X178165473Y-83871556D01*
X178260960Y-84036944D01*
X178388747Y-84178866D01*
X178543248Y-84291118D01*
X178717712Y-84368794D01*
X178904513Y-84408500D01*
X179095487Y-84408500D01*
X179282288Y-84368794D01*
X179456752Y-84291118D01*
X179611253Y-84178866D01*
X179739040Y-84036944D01*
X179834527Y-83871556D01*
X179893542Y-83689928D01*
X179913504Y-83500000D01*
X179913504Y-83499999D01*
X187386751Y-83499999D01*
X187386751Y-83500000D01*
X187405705Y-83704558D01*
X187405706Y-83704560D01*
X187461924Y-83902147D01*
X187461930Y-83902162D01*
X187553493Y-84086044D01*
X187553497Y-84086051D01*
X187620875Y-84175274D01*
X187645566Y-84240635D01*
X187631000Y-84308970D01*
X187620875Y-84324726D01*
X187553497Y-84413948D01*
X187553493Y-84413955D01*
X187461930Y-84597837D01*
X187461924Y-84597852D01*
X187405706Y-84795439D01*
X187405705Y-84795441D01*
X187386751Y-84999999D01*
X187386751Y-85000000D01*
X187405705Y-85204558D01*
X187405706Y-85204560D01*
X187461924Y-85402147D01*
X187461930Y-85402162D01*
X187553493Y-85586044D01*
X187553498Y-85586052D01*
X187677300Y-85749993D01*
X187755339Y-85821134D01*
X187829118Y-85888392D01*
X188003782Y-85996540D01*
X188195345Y-86070751D01*
X188397282Y-86108500D01*
X188397284Y-86108500D01*
X188602716Y-86108500D01*
X188602718Y-86108500D01*
X188804655Y-86070751D01*
X188996218Y-85996540D01*
X189170882Y-85888392D01*
X189322701Y-85749991D01*
X189446503Y-85586050D01*
X189459829Y-85559289D01*
X189538069Y-85402162D01*
X189538068Y-85402162D01*
X189538074Y-85402152D01*
X189594294Y-85204559D01*
X189613249Y-85000000D01*
X189594294Y-84795441D01*
X189538074Y-84597848D01*
X189538069Y-84597837D01*
X189446506Y-84413955D01*
X189446501Y-84413947D01*
X189379125Y-84324727D01*
X189354433Y-84259365D01*
X189368998Y-84191031D01*
X189379125Y-84175273D01*
X189446503Y-84086050D01*
X189489352Y-83999999D01*
X195386751Y-83999999D01*
X195386751Y-84000000D01*
X195405705Y-84204558D01*
X195405706Y-84204560D01*
X195461924Y-84402147D01*
X195461930Y-84402162D01*
X195553493Y-84586044D01*
X195553497Y-84586051D01*
X195620875Y-84675274D01*
X195645566Y-84740635D01*
X195631000Y-84808970D01*
X195620875Y-84824726D01*
X195553497Y-84913948D01*
X195553493Y-84913955D01*
X195461930Y-85097837D01*
X195461924Y-85097852D01*
X195405706Y-85295439D01*
X195405705Y-85295441D01*
X195386751Y-85499999D01*
X195386751Y-85500000D01*
X195405705Y-85704558D01*
X195405706Y-85704560D01*
X195461924Y-85902147D01*
X195461930Y-85902162D01*
X195553493Y-86086044D01*
X195553498Y-86086052D01*
X195677300Y-86249993D01*
X195807904Y-86369053D01*
X195829118Y-86388392D01*
X196003782Y-86496540D01*
X196195345Y-86570751D01*
X196397282Y-86608500D01*
X196397284Y-86608500D01*
X196602716Y-86608500D01*
X196602718Y-86608500D01*
X196804655Y-86570751D01*
X196996218Y-86496540D01*
X197170882Y-86388392D01*
X197322701Y-86249991D01*
X197446503Y-86086050D01*
X197538074Y-85902152D01*
X197594294Y-85704559D01*
X197613249Y-85500000D01*
X197594294Y-85295441D01*
X197538074Y-85097848D01*
X197538069Y-85097837D01*
X197446506Y-84913955D01*
X197446501Y-84913947D01*
X197379125Y-84824727D01*
X197354433Y-84759365D01*
X197368998Y-84691031D01*
X197379125Y-84675273D01*
X197446503Y-84586050D01*
X197538074Y-84402152D01*
X197594294Y-84204559D01*
X197613249Y-84000000D01*
X197594294Y-83795441D01*
X197538074Y-83597848D01*
X197538069Y-83597837D01*
X197446506Y-83413955D01*
X197446501Y-83413947D01*
X197322699Y-83250006D01*
X197170883Y-83111609D01*
X197170882Y-83111608D01*
X196996218Y-83003460D01*
X196804655Y-82929249D01*
X196602718Y-82891500D01*
X196397282Y-82891500D01*
X196195345Y-82929249D01*
X196195342Y-82929249D01*
X196195342Y-82929250D01*
X196003779Y-83003461D01*
X195829116Y-83111609D01*
X195677300Y-83250006D01*
X195553498Y-83413947D01*
X195553493Y-83413955D01*
X195461930Y-83597837D01*
X195461924Y-83597852D01*
X195405706Y-83795439D01*
X195405705Y-83795441D01*
X195386751Y-83999999D01*
X189489352Y-83999999D01*
X189538074Y-83902152D01*
X189594294Y-83704559D01*
X189613249Y-83500000D01*
X189594294Y-83295441D01*
X189538074Y-83097848D01*
X189538069Y-83097837D01*
X189446506Y-82913955D01*
X189446501Y-82913947D01*
X189322699Y-82750006D01*
X189170883Y-82611609D01*
X189170882Y-82611608D01*
X188996218Y-82503460D01*
X188804655Y-82429249D01*
X188602718Y-82391500D01*
X188397282Y-82391500D01*
X188195345Y-82429249D01*
X188195342Y-82429249D01*
X188195342Y-82429250D01*
X188003779Y-82503461D01*
X187829116Y-82611609D01*
X187677300Y-82750006D01*
X187553498Y-82913947D01*
X187553493Y-82913955D01*
X187461930Y-83097837D01*
X187461924Y-83097852D01*
X187405706Y-83295439D01*
X187405705Y-83295441D01*
X187386751Y-83499999D01*
X179913504Y-83499999D01*
X179893542Y-83310072D01*
X179834527Y-83128444D01*
X179739040Y-82963056D01*
X179611253Y-82821134D01*
X179456752Y-82708882D01*
X179282288Y-82631206D01*
X179282286Y-82631205D01*
X179095487Y-82591500D01*
X178904513Y-82591500D01*
X178717714Y-82631205D01*
X178543246Y-82708883D01*
X178388745Y-82821135D01*
X178260959Y-82963057D01*
X178165473Y-83128443D01*
X178165470Y-83128450D01*
X178111212Y-83295441D01*
X178106458Y-83310072D01*
X178086496Y-83500000D01*
X172489640Y-83500000D01*
X172436631Y-83459265D01*
X172413041Y-83393498D01*
X172428753Y-83325418D01*
X172463942Y-83285894D01*
X172513333Y-83250009D01*
X172611253Y-83178866D01*
X172739040Y-83036944D01*
X172834527Y-82871556D01*
X172893542Y-82689928D01*
X172913504Y-82500000D01*
X172893542Y-82310072D01*
X172834527Y-82128444D01*
X172739040Y-81963056D01*
X172611253Y-81821134D01*
X172456752Y-81708882D01*
X172282288Y-81631206D01*
X172282286Y-81631205D01*
X172095487Y-81591500D01*
X171904513Y-81591500D01*
X171717714Y-81631205D01*
X171543246Y-81708883D01*
X171388745Y-81821135D01*
X171260959Y-81963057D01*
X171165473Y-82128443D01*
X171165470Y-82128450D01*
X171106459Y-82310068D01*
X171106458Y-82310072D01*
X171086496Y-82500000D01*
X171106458Y-82689928D01*
X171106459Y-82689931D01*
X171165470Y-82871549D01*
X171165473Y-82871556D01*
X171260960Y-83036944D01*
X171388747Y-83178866D01*
X171486667Y-83250009D01*
X171536058Y-83285894D01*
X171578723Y-83341224D01*
X171584702Y-83410838D01*
X171552096Y-83472633D01*
X171507971Y-83501837D01*
X171503781Y-83503460D01*
X171329116Y-83611609D01*
X171177300Y-83750006D01*
X171053498Y-83913947D01*
X171053493Y-83913955D01*
X170961930Y-84097837D01*
X170961924Y-84097852D01*
X170905706Y-84295439D01*
X170905705Y-84295441D01*
X170886751Y-84499999D01*
X169800500Y-84499999D01*
X169800500Y-75500000D01*
X172086496Y-75500000D01*
X172106458Y-75689928D01*
X172106459Y-75689931D01*
X172165470Y-75871549D01*
X172165473Y-75871556D01*
X172260960Y-76036944D01*
X172388747Y-76178866D01*
X172543248Y-76291118D01*
X172717712Y-76368794D01*
X172904513Y-76408500D01*
X173095487Y-76408500D01*
X173282288Y-76368794D01*
X173456752Y-76291118D01*
X173611253Y-76178866D01*
X173739040Y-76036944D01*
X173834527Y-75871556D01*
X173893542Y-75689928D01*
X173913504Y-75500000D01*
X173893542Y-75310072D01*
X173834527Y-75128444D01*
X173739040Y-74963056D01*
X173611253Y-74821134D01*
X173456752Y-74708882D01*
X173282288Y-74631206D01*
X173282286Y-74631205D01*
X173095487Y-74591500D01*
X172904513Y-74591500D01*
X172717714Y-74631205D01*
X172543246Y-74708883D01*
X172388745Y-74821135D01*
X172260959Y-74963057D01*
X172165473Y-75128443D01*
X172165470Y-75128450D01*
X172111212Y-75295441D01*
X172106458Y-75310072D01*
X172086496Y-75500000D01*
X169800500Y-75500000D01*
X169800500Y-74000000D01*
X174086496Y-74000000D01*
X174106458Y-74189928D01*
X174106459Y-74189931D01*
X174165470Y-74371549D01*
X174165473Y-74371556D01*
X174260960Y-74536944D01*
X174388747Y-74678866D01*
X174543248Y-74791118D01*
X174717712Y-74868794D01*
X174904513Y-74908500D01*
X175095487Y-74908500D01*
X175282288Y-74868794D01*
X175456752Y-74791118D01*
X175611253Y-74678866D01*
X175739040Y-74536944D01*
X175834527Y-74371556D01*
X175882069Y-74225238D01*
X175921506Y-74167562D01*
X175985865Y-74140364D01*
X176054711Y-74152279D01*
X176106187Y-74199523D01*
X176117931Y-74225238D01*
X176165470Y-74371549D01*
X176165473Y-74371556D01*
X176260960Y-74536944D01*
X176388747Y-74678866D01*
X176543248Y-74791118D01*
X176717712Y-74868794D01*
X176904513Y-74908500D01*
X177095487Y-74908500D01*
X177282288Y-74868794D01*
X177456752Y-74791118D01*
X177611253Y-74678866D01*
X177657852Y-74627111D01*
X177717336Y-74590466D01*
X177787193Y-74591795D01*
X177842147Y-74627111D01*
X177888747Y-74678866D01*
X178043248Y-74791118D01*
X178217712Y-74868794D01*
X178404513Y-74908500D01*
X178595487Y-74908500D01*
X178782288Y-74868794D01*
X178956752Y-74791118D01*
X179111253Y-74678866D01*
X179239040Y-74536944D01*
X179334527Y-74371556D01*
X179393542Y-74189928D01*
X179411450Y-74019536D01*
X179438035Y-73954924D01*
X179495332Y-73914939D01*
X179534771Y-73908500D01*
X179595487Y-73908500D01*
X179782288Y-73868794D01*
X179956752Y-73791118D01*
X179966385Y-73784118D01*
X180032190Y-73760636D01*
X180100244Y-73776457D01*
X180148942Y-73826561D01*
X180157206Y-73846114D01*
X180165471Y-73871552D01*
X180165473Y-73871556D01*
X180260960Y-74036944D01*
X180388747Y-74178866D01*
X180543248Y-74291118D01*
X180717712Y-74368794D01*
X180904513Y-74408500D01*
X181095487Y-74408500D01*
X181282288Y-74368794D01*
X181449567Y-74294316D01*
X181518815Y-74285033D01*
X181550429Y-74294315D01*
X181717712Y-74368794D01*
X181904513Y-74408500D01*
X182095487Y-74408500D01*
X182282288Y-74368794D01*
X182456752Y-74291118D01*
X182522840Y-74243101D01*
X182588646Y-74219621D01*
X182656700Y-74235446D01*
X182679262Y-74251780D01*
X182829118Y-74388392D01*
X183003782Y-74496540D01*
X183195345Y-74570751D01*
X183397282Y-74608500D01*
X183397284Y-74608500D01*
X183602716Y-74608500D01*
X183602718Y-74608500D01*
X183804655Y-74570751D01*
X183996218Y-74496540D01*
X184170882Y-74388392D01*
X184312055Y-74259696D01*
X184322699Y-74249993D01*
X184333685Y-74235446D01*
X184446503Y-74086050D01*
X184489352Y-73999999D01*
X195386751Y-73999999D01*
X195386751Y-74000000D01*
X195405705Y-74204558D01*
X195405706Y-74204560D01*
X195461924Y-74402147D01*
X195461930Y-74402162D01*
X195553493Y-74586044D01*
X195553497Y-74586051D01*
X195620875Y-74675274D01*
X195645566Y-74740635D01*
X195631000Y-74808970D01*
X195620875Y-74824726D01*
X195553497Y-74913948D01*
X195553493Y-74913955D01*
X195461930Y-75097837D01*
X195461924Y-75097852D01*
X195405706Y-75295439D01*
X195405705Y-75295441D01*
X195386751Y-75499999D01*
X195386751Y-75500000D01*
X195405705Y-75704558D01*
X195405706Y-75704560D01*
X195461924Y-75902147D01*
X195461930Y-75902162D01*
X195553493Y-76086044D01*
X195553498Y-76086052D01*
X195677300Y-76249993D01*
X195807620Y-76368794D01*
X195829118Y-76388392D01*
X196003782Y-76496540D01*
X196195345Y-76570751D01*
X196397282Y-76608500D01*
X196397284Y-76608500D01*
X196602716Y-76608500D01*
X196602718Y-76608500D01*
X196804655Y-76570751D01*
X196996218Y-76496540D01*
X197170882Y-76388392D01*
X197322701Y-76249991D01*
X197446503Y-76086050D01*
X197538074Y-75902152D01*
X197594294Y-75704559D01*
X197613249Y-75500000D01*
X197594294Y-75295441D01*
X197538074Y-75097848D01*
X197470956Y-74963057D01*
X197446506Y-74913955D01*
X197446501Y-74913947D01*
X197379125Y-74824727D01*
X197354433Y-74759365D01*
X197368998Y-74691031D01*
X197379125Y-74675273D01*
X197412403Y-74631206D01*
X197446503Y-74586050D01*
X197538074Y-74402152D01*
X197594294Y-74204559D01*
X197613249Y-74000000D01*
X197598989Y-73846114D01*
X197594294Y-73795441D01*
X197594293Y-73795439D01*
X197591072Y-73784119D01*
X197538074Y-73597848D01*
X197538069Y-73597837D01*
X197446506Y-73413955D01*
X197446501Y-73413947D01*
X197322699Y-73250006D01*
X197170883Y-73111609D01*
X197170882Y-73111608D01*
X196996218Y-73003460D01*
X196804655Y-72929249D01*
X196602718Y-72891500D01*
X196397282Y-72891500D01*
X196195345Y-72929249D01*
X196195342Y-72929249D01*
X196195342Y-72929250D01*
X196003779Y-73003461D01*
X195829116Y-73111609D01*
X195677300Y-73250006D01*
X195553498Y-73413947D01*
X195553493Y-73413955D01*
X195461930Y-73597837D01*
X195461924Y-73597852D01*
X195405706Y-73795439D01*
X195405705Y-73795441D01*
X195386751Y-73999999D01*
X184489352Y-73999999D01*
X184538074Y-73902152D01*
X184594294Y-73704559D01*
X184613249Y-73500000D01*
X184594294Y-73295441D01*
X184538074Y-73097848D01*
X184538069Y-73097837D01*
X184446506Y-72913955D01*
X184446501Y-72913947D01*
X184322699Y-72750006D01*
X184170883Y-72611609D01*
X184170882Y-72611608D01*
X183996218Y-72503460D01*
X183804655Y-72429249D01*
X183602718Y-72391500D01*
X183397282Y-72391500D01*
X183195345Y-72429249D01*
X183195342Y-72429249D01*
X183195342Y-72429250D01*
X183003779Y-72503461D01*
X182829119Y-72611607D01*
X182679263Y-72748218D01*
X182616458Y-72778834D01*
X182547071Y-72770636D01*
X182522843Y-72756900D01*
X182456752Y-72708882D01*
X182282288Y-72631206D01*
X182282286Y-72631205D01*
X182095487Y-72591500D01*
X181904513Y-72591500D01*
X181717713Y-72631205D01*
X181717710Y-72631206D01*
X181550434Y-72705681D01*
X181481184Y-72714965D01*
X181449566Y-72705681D01*
X181282289Y-72631206D01*
X181282286Y-72631205D01*
X181095487Y-72591500D01*
X180904513Y-72591500D01*
X180717714Y-72631205D01*
X180543248Y-72708881D01*
X180533607Y-72715886D01*
X180467800Y-72739364D01*
X180399746Y-72723537D01*
X180351053Y-72673430D01*
X180342793Y-72653883D01*
X180334530Y-72628452D01*
X180334528Y-72628448D01*
X180334527Y-72628444D01*
X180239040Y-72463056D01*
X180111253Y-72321134D01*
X179956752Y-72208882D01*
X179782288Y-72131206D01*
X179782286Y-72131205D01*
X179595487Y-72091500D01*
X179404513Y-72091500D01*
X179217714Y-72131205D01*
X179043248Y-72208881D01*
X179033607Y-72215886D01*
X178967800Y-72239364D01*
X178899746Y-72223537D01*
X178851053Y-72173430D01*
X178842793Y-72153883D01*
X178834530Y-72128452D01*
X178834528Y-72128448D01*
X178834527Y-72128444D01*
X178739040Y-71963056D01*
X178611253Y-71821134D01*
X178456752Y-71708882D01*
X178282288Y-71631206D01*
X178282286Y-71631205D01*
X178095487Y-71591500D01*
X177904513Y-71591500D01*
X177717714Y-71631205D01*
X177543246Y-71708883D01*
X177388745Y-71821135D01*
X177260959Y-71963057D01*
X177165473Y-72128443D01*
X177165470Y-72128450D01*
X177106459Y-72310068D01*
X177106458Y-72310072D01*
X177086496Y-72500000D01*
X177106458Y-72689928D01*
X177106459Y-72689931D01*
X177165470Y-72871549D01*
X177165473Y-72871556D01*
X177185071Y-72905500D01*
X177201544Y-72973400D01*
X177178692Y-73039427D01*
X177123770Y-73082618D01*
X177077684Y-73091500D01*
X176904513Y-73091500D01*
X176717714Y-73131205D01*
X176543246Y-73208883D01*
X176388745Y-73321135D01*
X176260959Y-73463057D01*
X176165473Y-73628443D01*
X176165470Y-73628450D01*
X176117931Y-73774761D01*
X176078493Y-73832437D01*
X176014135Y-73859635D01*
X175945288Y-73847720D01*
X175893813Y-73800476D01*
X175882069Y-73774761D01*
X175834529Y-73628450D01*
X175834528Y-73628449D01*
X175834527Y-73628444D01*
X175739040Y-73463056D01*
X175611253Y-73321134D01*
X175456752Y-73208882D01*
X175282288Y-73131206D01*
X175282286Y-73131205D01*
X175095487Y-73091500D01*
X174904513Y-73091500D01*
X174717714Y-73131205D01*
X174543246Y-73208883D01*
X174388745Y-73321135D01*
X174260959Y-73463057D01*
X174165473Y-73628443D01*
X174165470Y-73628450D01*
X174111212Y-73795441D01*
X174106458Y-73810072D01*
X174086496Y-74000000D01*
X169800500Y-74000000D01*
X169800500Y-71500000D01*
X172086496Y-71500000D01*
X172106458Y-71689928D01*
X172106459Y-71689931D01*
X172165470Y-71871549D01*
X172165472Y-71871553D01*
X172165473Y-71871556D01*
X172203834Y-71937999D01*
X172203835Y-71938001D01*
X172220307Y-72005901D01*
X172203835Y-72061999D01*
X172165472Y-72128446D01*
X172165470Y-72128450D01*
X172106459Y-72310068D01*
X172106458Y-72310072D01*
X172086496Y-72500000D01*
X172106458Y-72689928D01*
X172106459Y-72689931D01*
X172165470Y-72871549D01*
X172165473Y-72871556D01*
X172260960Y-73036944D01*
X172315802Y-73097852D01*
X172388353Y-73178429D01*
X172388747Y-73178866D01*
X172543248Y-73291118D01*
X172717712Y-73368794D01*
X172904513Y-73408500D01*
X173095487Y-73408500D01*
X173282288Y-73368794D01*
X173456752Y-73291118D01*
X173611253Y-73178866D01*
X173739040Y-73036944D01*
X173834527Y-72871556D01*
X173893542Y-72689928D01*
X173913504Y-72500000D01*
X173893542Y-72310072D01*
X173842793Y-72153883D01*
X173834528Y-72128446D01*
X173813197Y-72091500D01*
X173796164Y-72061998D01*
X173779692Y-71994101D01*
X173796164Y-71938001D01*
X173834527Y-71871556D01*
X173893542Y-71689928D01*
X173913504Y-71500000D01*
X173893542Y-71310072D01*
X173834527Y-71128444D01*
X173739040Y-70963056D01*
X173611253Y-70821134D01*
X173456752Y-70708882D01*
X173282288Y-70631206D01*
X173282286Y-70631205D01*
X173095487Y-70591500D01*
X172904513Y-70591500D01*
X172717714Y-70631205D01*
X172543246Y-70708883D01*
X172388745Y-70821135D01*
X172260959Y-70963057D01*
X172165473Y-71128443D01*
X172165470Y-71128450D01*
X172106459Y-71310068D01*
X172106458Y-71310072D01*
X172086496Y-71500000D01*
X169800500Y-71500000D01*
X169800500Y-68000000D01*
X178086496Y-68000000D01*
X178106458Y-68189928D01*
X178106459Y-68189931D01*
X178165470Y-68371549D01*
X178165473Y-68371556D01*
X178260960Y-68536944D01*
X178388747Y-68678866D01*
X178543248Y-68791118D01*
X178717712Y-68868794D01*
X178904513Y-68908500D01*
X179095487Y-68908500D01*
X179282288Y-68868794D01*
X179456752Y-68791118D01*
X179611253Y-68678866D01*
X179739040Y-68536944D01*
X179834527Y-68371556D01*
X179893542Y-68189928D01*
X179913504Y-68000000D01*
X179913504Y-67999999D01*
X185386751Y-67999999D01*
X185386751Y-68000000D01*
X185405705Y-68204558D01*
X185405706Y-68204560D01*
X185461924Y-68402147D01*
X185461930Y-68402162D01*
X185553493Y-68586044D01*
X185553498Y-68586052D01*
X185677300Y-68749993D01*
X185807620Y-68868794D01*
X185829118Y-68888392D01*
X186003782Y-68996540D01*
X186195345Y-69070751D01*
X186397282Y-69108500D01*
X186397284Y-69108500D01*
X186602716Y-69108500D01*
X186602718Y-69108500D01*
X186804655Y-69070751D01*
X186996218Y-68996540D01*
X187170882Y-68888392D01*
X187322701Y-68749991D01*
X187446503Y-68586050D01*
X187538074Y-68402152D01*
X187594294Y-68204559D01*
X187613249Y-68000000D01*
X187594294Y-67795441D01*
X187538074Y-67597848D01*
X187538069Y-67597837D01*
X187446506Y-67413955D01*
X187446501Y-67413947D01*
X187322699Y-67250006D01*
X187170883Y-67111609D01*
X187170882Y-67111608D01*
X186996218Y-67003460D01*
X186804655Y-66929249D01*
X186602718Y-66891500D01*
X186397282Y-66891500D01*
X186195345Y-66929249D01*
X186195342Y-66929249D01*
X186195342Y-66929250D01*
X186003779Y-67003461D01*
X185829116Y-67111609D01*
X185677300Y-67250006D01*
X185553498Y-67413947D01*
X185553493Y-67413955D01*
X185461930Y-67597837D01*
X185461924Y-67597852D01*
X185405706Y-67795439D01*
X185405705Y-67795441D01*
X185386751Y-67999999D01*
X179913504Y-67999999D01*
X179893542Y-67810072D01*
X179834527Y-67628444D01*
X179739040Y-67463056D01*
X179611253Y-67321134D01*
X179456752Y-67208882D01*
X179282288Y-67131206D01*
X179282286Y-67131205D01*
X179095487Y-67091500D01*
X178904513Y-67091500D01*
X178717714Y-67131205D01*
X178543246Y-67208883D01*
X178388745Y-67321135D01*
X178260959Y-67463057D01*
X178165473Y-67628443D01*
X178165470Y-67628450D01*
X178111212Y-67795441D01*
X178106458Y-67810072D01*
X178086496Y-68000000D01*
X169800500Y-68000000D01*
X169800500Y-67000000D01*
X172586496Y-67000000D01*
X172606458Y-67189928D01*
X172606459Y-67189931D01*
X172665470Y-67371549D01*
X172665473Y-67371556D01*
X172760960Y-67536944D01*
X172888747Y-67678866D01*
X173043248Y-67791118D01*
X173217712Y-67868794D01*
X173404513Y-67908500D01*
X173595487Y-67908500D01*
X173782288Y-67868794D01*
X173956752Y-67791118D01*
X174111253Y-67678866D01*
X174239040Y-67536944D01*
X174334527Y-67371556D01*
X174393542Y-67189928D01*
X174413504Y-67000000D01*
X174393542Y-66810072D01*
X174334527Y-66628444D01*
X174239040Y-66463056D01*
X174111253Y-66321134D01*
X173956752Y-66208882D01*
X173782288Y-66131206D01*
X173782286Y-66131205D01*
X173595487Y-66091500D01*
X173404513Y-66091500D01*
X173217714Y-66131205D01*
X173043246Y-66208883D01*
X172888745Y-66321135D01*
X172760959Y-66463057D01*
X172665473Y-66628443D01*
X172665470Y-66628450D01*
X172606459Y-66810068D01*
X172606458Y-66810072D01*
X172586496Y-67000000D01*
X169800500Y-67000000D01*
X169800500Y-61460439D01*
X169800500Y-61460438D01*
X169780021Y-61384011D01*
X169780017Y-61384004D01*
X169740464Y-61315495D01*
X169740458Y-61315487D01*
X169424970Y-60999999D01*
X173886751Y-60999999D01*
X173886751Y-61000000D01*
X173905705Y-61204558D01*
X173905706Y-61204560D01*
X173961924Y-61402147D01*
X173961930Y-61402162D01*
X174053493Y-61586044D01*
X174053498Y-61586052D01*
X174177300Y-61749993D01*
X174298454Y-61860438D01*
X174329118Y-61888392D01*
X174503782Y-61996540D01*
X174695345Y-62070751D01*
X174897282Y-62108500D01*
X174897284Y-62108500D01*
X175102716Y-62108500D01*
X175102718Y-62108500D01*
X175304655Y-62070751D01*
X175496218Y-61996540D01*
X175670882Y-61888392D01*
X175822701Y-61749991D01*
X175946503Y-61586050D01*
X176038074Y-61402152D01*
X176082078Y-61247494D01*
X178101844Y-61247494D01*
X178101844Y-61247505D01*
X178120434Y-61471859D01*
X178120436Y-61471871D01*
X178175703Y-61690114D01*
X178266140Y-61896292D01*
X178389276Y-62084765D01*
X178389284Y-62084776D01*
X178541756Y-62250402D01*
X178541760Y-62250406D01*
X178719424Y-62388689D01*
X178719429Y-62388691D01*
X178719431Y-62388693D01*
X178755930Y-62408446D01*
X178805520Y-62457665D01*
X178820628Y-62525882D01*
X178796457Y-62591437D01*
X178755930Y-62626554D01*
X178719431Y-62646306D01*
X178719422Y-62646312D01*
X178541761Y-62784592D01*
X178541756Y-62784597D01*
X178389284Y-62950223D01*
X178389276Y-62950234D01*
X178266140Y-63138707D01*
X178175703Y-63344885D01*
X178120436Y-63563128D01*
X178120434Y-63563140D01*
X178101844Y-63787494D01*
X178101844Y-63787505D01*
X178120434Y-64011859D01*
X178120436Y-64011871D01*
X178175703Y-64230114D01*
X178266140Y-64436292D01*
X178389276Y-64624765D01*
X178389284Y-64624776D01*
X178541756Y-64790402D01*
X178541760Y-64790406D01*
X178719424Y-64928689D01*
X178719425Y-64928689D01*
X178719427Y-64928691D01*
X178846135Y-64997261D01*
X178917426Y-65035842D01*
X179130365Y-65108944D01*
X179352431Y-65146000D01*
X179577569Y-65146000D01*
X179799635Y-65108944D01*
X180012574Y-65035842D01*
X180210576Y-64928689D01*
X180388240Y-64790406D01*
X180540722Y-64624768D01*
X180631193Y-64486290D01*
X180684338Y-64440937D01*
X180753569Y-64431513D01*
X180816905Y-64461015D01*
X180838804Y-64486287D01*
X180929278Y-64624768D01*
X180929283Y-64624773D01*
X180929284Y-64624776D01*
X181081756Y-64790402D01*
X181081760Y-64790406D01*
X181259424Y-64928689D01*
X181259425Y-64928689D01*
X181259427Y-64928691D01*
X181386135Y-64997261D01*
X181457426Y-65035842D01*
X181670365Y-65108944D01*
X181892431Y-65146000D01*
X182117569Y-65146000D01*
X182339635Y-65108944D01*
X182552574Y-65035842D01*
X182750576Y-64928689D01*
X182928240Y-64790406D01*
X183080722Y-64624768D01*
X183171193Y-64486290D01*
X183224338Y-64440937D01*
X183293569Y-64431513D01*
X183356905Y-64461015D01*
X183378804Y-64486287D01*
X183469278Y-64624768D01*
X183469283Y-64624773D01*
X183469284Y-64624776D01*
X183621756Y-64790402D01*
X183621760Y-64790406D01*
X183799424Y-64928689D01*
X183799425Y-64928689D01*
X183799427Y-64928691D01*
X183926135Y-64997261D01*
X183997426Y-65035842D01*
X184210365Y-65108944D01*
X184432431Y-65146000D01*
X184657569Y-65146000D01*
X184879635Y-65108944D01*
X185092574Y-65035842D01*
X185290576Y-64928689D01*
X185468240Y-64790406D01*
X185620722Y-64624768D01*
X185743860Y-64436291D01*
X185834296Y-64230116D01*
X185889564Y-64011868D01*
X185908156Y-63787500D01*
X185889564Y-63563132D01*
X185834296Y-63344884D01*
X185743860Y-63138709D01*
X185727706Y-63113984D01*
X185620723Y-62950234D01*
X185620715Y-62950223D01*
X185468243Y-62784597D01*
X185468241Y-62784595D01*
X185468240Y-62784594D01*
X185462697Y-62780280D01*
X185430481Y-62755204D01*
X185389669Y-62698494D01*
X185385996Y-62628720D01*
X185420628Y-62568038D01*
X185461513Y-62543348D01*
X185461195Y-62542665D01*
X185467565Y-62539694D01*
X185467647Y-62539644D01*
X185467738Y-62539615D01*
X185618652Y-62446530D01*
X185744030Y-62321152D01*
X185837115Y-62170238D01*
X185892887Y-62001926D01*
X185903500Y-61898045D01*
X185903499Y-60596956D01*
X185892887Y-60493074D01*
X185837115Y-60324762D01*
X185744030Y-60173848D01*
X185618652Y-60048470D01*
X185467738Y-59955385D01*
X185467735Y-59955384D01*
X185299427Y-59899613D01*
X185195545Y-59889000D01*
X183894462Y-59889000D01*
X183894446Y-59889001D01*
X183790572Y-59899613D01*
X183622264Y-59955384D01*
X183622259Y-59955386D01*
X183471346Y-60048471D01*
X183345971Y-60173846D01*
X183252886Y-60324759D01*
X183252882Y-60324768D01*
X183252749Y-60325172D01*
X183252582Y-60325412D01*
X183249835Y-60331305D01*
X183248827Y-60330835D01*
X183212972Y-60382614D01*
X183148454Y-60409432D01*
X183079680Y-60397112D01*
X183043817Y-60370143D01*
X182928240Y-60244594D01*
X182928237Y-60244592D01*
X182928238Y-60244592D01*
X182757383Y-60111609D01*
X182750576Y-60106311D01*
X182750575Y-60106310D01*
X182750572Y-60106308D01*
X182552580Y-59999161D01*
X182552577Y-59999159D01*
X182552574Y-59999158D01*
X182552571Y-59999157D01*
X182552569Y-59999156D01*
X182339637Y-59926056D01*
X182117569Y-59889000D01*
X181892431Y-59889000D01*
X181670362Y-59926056D01*
X181457430Y-59999156D01*
X181457419Y-59999161D01*
X181259427Y-60106308D01*
X181259422Y-60106312D01*
X181081761Y-60244592D01*
X181081756Y-60244597D01*
X180929284Y-60410223D01*
X180929276Y-60410234D01*
X180838808Y-60548706D01*
X180785662Y-60594062D01*
X180716431Y-60603486D01*
X180653095Y-60573984D01*
X180631192Y-60548706D01*
X180540723Y-60410234D01*
X180540715Y-60410223D01*
X180388243Y-60244597D01*
X180388238Y-60244592D01*
X180217383Y-60111609D01*
X180210576Y-60106311D01*
X180210575Y-60106310D01*
X180210572Y-60106308D01*
X180012580Y-59999161D01*
X180012577Y-59999159D01*
X180012574Y-59999158D01*
X180012571Y-59999157D01*
X180012569Y-59999156D01*
X179799637Y-59926056D01*
X179577569Y-59889000D01*
X179352431Y-59889000D01*
X179130362Y-59926056D01*
X178917430Y-59999156D01*
X178917419Y-59999161D01*
X178719427Y-60106308D01*
X178719422Y-60106312D01*
X178541761Y-60244592D01*
X178541756Y-60244597D01*
X178389284Y-60410223D01*
X178389276Y-60410234D01*
X178266140Y-60598707D01*
X178175703Y-60804885D01*
X178120436Y-61023128D01*
X178120434Y-61023140D01*
X178101844Y-61247494D01*
X176082078Y-61247494D01*
X176094294Y-61204559D01*
X176113249Y-61000000D01*
X176094294Y-60795441D01*
X176038074Y-60597848D01*
X176036189Y-60594062D01*
X175946506Y-60413955D01*
X175946501Y-60413947D01*
X175822699Y-60250006D01*
X175670883Y-60111609D01*
X175670882Y-60111608D01*
X175496218Y-60003460D01*
X175304655Y-59929249D01*
X175102718Y-59891500D01*
X174897282Y-59891500D01*
X174695345Y-59929249D01*
X174695342Y-59929249D01*
X174695342Y-59929250D01*
X174503779Y-60003461D01*
X174329116Y-60111609D01*
X174177300Y-60250006D01*
X174053498Y-60413947D01*
X174053493Y-60413955D01*
X173961930Y-60597837D01*
X173961924Y-60597852D01*
X173905706Y-60795439D01*
X173905705Y-60795441D01*
X173886751Y-60999999D01*
X169424970Y-60999999D01*
X167336819Y-58911848D01*
X167303334Y-58850525D01*
X167300500Y-58824167D01*
X167300500Y-58000000D01*
X187086496Y-58000000D01*
X187106458Y-58189928D01*
X187106459Y-58189931D01*
X187165470Y-58371549D01*
X187165473Y-58371556D01*
X187260960Y-58536944D01*
X187388747Y-58678866D01*
X187543248Y-58791118D01*
X187545906Y-58793049D01*
X187588571Y-58848379D01*
X187596340Y-58906327D01*
X187586496Y-59000000D01*
X187606458Y-59189928D01*
X187606459Y-59189931D01*
X187665470Y-59371549D01*
X187665473Y-59371556D01*
X187760960Y-59536944D01*
X187888747Y-59678866D01*
X188043248Y-59791118D01*
X188217712Y-59868794D01*
X188404513Y-59908500D01*
X188595487Y-59908500D01*
X188782288Y-59868794D01*
X188956752Y-59791118D01*
X189111253Y-59678866D01*
X189239040Y-59536944D01*
X189334527Y-59371556D01*
X189393542Y-59189928D01*
X189413504Y-59000000D01*
X189393542Y-58810072D01*
X189334527Y-58628444D01*
X189239040Y-58463056D01*
X189111253Y-58321134D01*
X188956752Y-58208882D01*
X188954093Y-58206950D01*
X188911428Y-58151620D01*
X188903658Y-58093672D01*
X188913504Y-58000000D01*
X188893542Y-57810072D01*
X188834527Y-57628444D01*
X188739040Y-57463056D01*
X188611253Y-57321134D01*
X188456752Y-57208882D01*
X188282288Y-57131206D01*
X188282286Y-57131205D01*
X188095487Y-57091500D01*
X187904513Y-57091500D01*
X187717714Y-57131205D01*
X187543246Y-57208883D01*
X187388745Y-57321135D01*
X187260959Y-57463057D01*
X187165473Y-57628443D01*
X187165470Y-57628450D01*
X187111391Y-57794889D01*
X187106458Y-57810072D01*
X187086496Y-58000000D01*
X167300500Y-58000000D01*
X167300500Y-54000000D01*
X178086496Y-54000000D01*
X178106458Y-54189928D01*
X178106459Y-54189931D01*
X178165470Y-54371549D01*
X178165472Y-54371553D01*
X178165473Y-54371556D01*
X178203834Y-54437999D01*
X178203835Y-54438001D01*
X178220307Y-54505901D01*
X178203835Y-54561999D01*
X178165472Y-54628446D01*
X178165470Y-54628450D01*
X178134874Y-54722616D01*
X178106458Y-54810072D01*
X178086496Y-55000000D01*
X178106458Y-55189928D01*
X178106459Y-55189930D01*
X178106459Y-55189931D01*
X178165470Y-55371549D01*
X178165473Y-55371556D01*
X178260960Y-55536944D01*
X178272716Y-55550000D01*
X178388695Y-55678809D01*
X178388747Y-55678866D01*
X178543248Y-55791118D01*
X178717712Y-55868794D01*
X178904513Y-55908500D01*
X179095487Y-55908500D01*
X179282288Y-55868794D01*
X179344385Y-55841146D01*
X179413631Y-55831861D01*
X179476908Y-55861489D01*
X179514122Y-55920624D01*
X179513458Y-55990490D01*
X179505819Y-56009697D01*
X179461929Y-56097841D01*
X179461924Y-56097852D01*
X179405706Y-56295439D01*
X179405705Y-56295441D01*
X179386751Y-56499999D01*
X179386751Y-56500000D01*
X179405705Y-56704558D01*
X179405706Y-56704560D01*
X179461924Y-56902147D01*
X179461930Y-56902162D01*
X179553493Y-57086044D01*
X179553498Y-57086052D01*
X179677300Y-57249993D01*
X179755339Y-57321134D01*
X179829118Y-57388392D01*
X180003782Y-57496540D01*
X180195345Y-57570751D01*
X180397282Y-57608500D01*
X180397284Y-57608500D01*
X180602716Y-57608500D01*
X180602718Y-57608500D01*
X180804655Y-57570751D01*
X180996218Y-57496540D01*
X181170882Y-57388392D01*
X181322701Y-57249991D01*
X181446503Y-57086050D01*
X181538074Y-56902152D01*
X181594294Y-56704559D01*
X181613249Y-56500000D01*
X181594294Y-56295441D01*
X181538074Y-56097848D01*
X181480753Y-55982732D01*
X181446506Y-55913955D01*
X181446501Y-55913947D01*
X181322699Y-55750006D01*
X181170883Y-55611609D01*
X181170882Y-55611608D01*
X181021495Y-55519111D01*
X180996220Y-55503461D01*
X180996218Y-55503460D01*
X180804655Y-55429249D01*
X180602718Y-55391500D01*
X180397282Y-55391500D01*
X180195345Y-55429249D01*
X180195340Y-55429250D01*
X180004503Y-55503180D01*
X179934880Y-55509042D01*
X179873140Y-55476332D01*
X179838885Y-55415435D01*
X179841778Y-55349237D01*
X179893542Y-55189928D01*
X179913504Y-55000000D01*
X179893542Y-54810072D01*
X179834527Y-54628444D01*
X179796164Y-54561998D01*
X179779692Y-54494101D01*
X179796164Y-54438001D01*
X179834527Y-54371556D01*
X179893542Y-54189928D01*
X179913504Y-54000000D01*
X179893542Y-53810072D01*
X179841778Y-53650763D01*
X179839784Y-53580923D01*
X179875864Y-53521090D01*
X179938565Y-53490262D01*
X180004501Y-53496818D01*
X180195345Y-53570751D01*
X180397282Y-53608500D01*
X180397284Y-53608500D01*
X180602716Y-53608500D01*
X180602718Y-53608500D01*
X180804655Y-53570751D01*
X180996218Y-53496540D01*
X181170882Y-53388392D01*
X181322701Y-53249991D01*
X181446503Y-53086050D01*
X181489351Y-53000000D01*
X188686496Y-53000000D01*
X188706458Y-53189928D01*
X188706459Y-53189931D01*
X188765470Y-53371549D01*
X188765473Y-53371556D01*
X188860960Y-53536944D01*
X188988747Y-53678866D01*
X189143248Y-53791118D01*
X189317712Y-53868794D01*
X189504513Y-53908500D01*
X189695487Y-53908500D01*
X189882288Y-53868794D01*
X190056752Y-53791118D01*
X190211253Y-53678866D01*
X190339040Y-53536944D01*
X190434527Y-53371556D01*
X190493542Y-53189928D01*
X190513504Y-53000000D01*
X190493542Y-52810072D01*
X190434527Y-52628444D01*
X190339040Y-52463056D01*
X190211253Y-52321134D01*
X190056752Y-52208882D01*
X189882288Y-52131206D01*
X189882286Y-52131205D01*
X189695487Y-52091500D01*
X189504513Y-52091500D01*
X189317714Y-52131205D01*
X189143246Y-52208883D01*
X188988745Y-52321135D01*
X188860959Y-52463057D01*
X188765473Y-52628443D01*
X188765470Y-52628450D01*
X188728281Y-52742907D01*
X188706458Y-52810072D01*
X188686496Y-53000000D01*
X181489351Y-53000000D01*
X181538074Y-52902152D01*
X181594294Y-52704559D01*
X181613249Y-52500000D01*
X181594294Y-52295441D01*
X181538074Y-52097848D01*
X181538069Y-52097837D01*
X181446506Y-51913955D01*
X181446501Y-51913947D01*
X181322699Y-51750006D01*
X181170883Y-51611609D01*
X181170882Y-51611608D01*
X181063457Y-51545093D01*
X180996220Y-51503461D01*
X180996218Y-51503460D01*
X180804655Y-51429249D01*
X180602718Y-51391500D01*
X180397282Y-51391500D01*
X180195345Y-51429249D01*
X180195342Y-51429249D01*
X180195342Y-51429250D01*
X180003779Y-51503461D01*
X179829116Y-51611609D01*
X179677300Y-51750006D01*
X179553498Y-51913947D01*
X179553493Y-51913955D01*
X179461930Y-52097837D01*
X179461924Y-52097852D01*
X179405706Y-52295439D01*
X179405705Y-52295441D01*
X179386751Y-52499999D01*
X179386751Y-52500000D01*
X179405705Y-52704558D01*
X179405706Y-52704560D01*
X179461924Y-52902147D01*
X179461932Y-52902167D01*
X179505818Y-52990302D01*
X179518079Y-53059087D01*
X179491206Y-53123582D01*
X179433730Y-53163310D01*
X179363899Y-53165656D01*
X179344393Y-53158856D01*
X179282288Y-53131206D01*
X179282287Y-53131205D01*
X179282283Y-53131204D01*
X179095487Y-53091500D01*
X178904513Y-53091500D01*
X178717714Y-53131205D01*
X178543246Y-53208883D01*
X178388745Y-53321135D01*
X178260959Y-53463057D01*
X178165473Y-53628443D01*
X178165470Y-53628450D01*
X178111877Y-53793393D01*
X178106458Y-53810072D01*
X178086496Y-54000000D01*
X167300500Y-54000000D01*
X167300500Y-50609792D01*
X167320185Y-50542753D01*
X167372989Y-50496998D01*
X167442147Y-50487054D01*
X167475367Y-50498111D01*
X167475488Y-50497790D01*
X167483795Y-50500888D01*
X167483796Y-50500889D01*
X167538903Y-50521443D01*
X167596036Y-50542753D01*
X167620799Y-50551989D01*
X167648050Y-50554918D01*
X167681345Y-50558499D01*
X167681362Y-50558500D01*
X169478638Y-50558500D01*
X169478654Y-50558499D01*
X169505692Y-50555591D01*
X169539201Y-50551989D01*
X169676204Y-50500889D01*
X169793261Y-50413261D01*
X169880889Y-50296204D01*
X169926138Y-50174887D01*
X169968009Y-50118956D01*
X170033474Y-50094539D01*
X170101746Y-50109391D01*
X170133545Y-50134236D01*
X170196760Y-50202906D01*
X170374424Y-50341189D01*
X170374425Y-50341189D01*
X170374427Y-50341191D01*
X170417985Y-50364763D01*
X170572426Y-50448342D01*
X170785365Y-50521444D01*
X171007431Y-50558500D01*
X171232569Y-50558500D01*
X171454635Y-50521444D01*
X171667574Y-50448342D01*
X171865576Y-50341189D01*
X172043240Y-50202906D01*
X172170621Y-50064535D01*
X172195715Y-50037276D01*
X172195715Y-50037275D01*
X172195722Y-50037268D01*
X172286193Y-49898790D01*
X172339338Y-49853437D01*
X172408569Y-49844013D01*
X172471905Y-49873515D01*
X172493804Y-49898787D01*
X172584278Y-50037268D01*
X172584283Y-50037273D01*
X172584284Y-50037276D01*
X172696526Y-50159201D01*
X172736760Y-50202906D01*
X172914424Y-50341189D01*
X172914425Y-50341189D01*
X172914427Y-50341191D01*
X172957985Y-50364763D01*
X173112426Y-50448342D01*
X173325365Y-50521444D01*
X173547431Y-50558500D01*
X173772569Y-50558500D01*
X173994635Y-50521444D01*
X174207574Y-50448342D01*
X174405576Y-50341189D01*
X174583240Y-50202906D01*
X174710621Y-50064535D01*
X174735715Y-50037276D01*
X174735715Y-50037275D01*
X174735722Y-50037268D01*
X174826193Y-49898790D01*
X174879338Y-49853437D01*
X174948569Y-49844013D01*
X175011905Y-49873515D01*
X175033804Y-49898787D01*
X175124278Y-50037268D01*
X175124283Y-50037273D01*
X175124284Y-50037276D01*
X175236526Y-50159201D01*
X175276760Y-50202906D01*
X175454424Y-50341189D01*
X175454425Y-50341189D01*
X175454427Y-50341191D01*
X175497985Y-50364763D01*
X175652426Y-50448342D01*
X175865365Y-50521444D01*
X176087431Y-50558500D01*
X176312569Y-50558500D01*
X176534635Y-50521444D01*
X176747574Y-50448342D01*
X176945576Y-50341189D01*
X177123240Y-50202906D01*
X177250621Y-50064535D01*
X177275715Y-50037276D01*
X177275715Y-50037275D01*
X177275722Y-50037268D01*
X177366193Y-49898790D01*
X177419338Y-49853437D01*
X177488569Y-49844013D01*
X177551905Y-49873515D01*
X177573804Y-49898787D01*
X177664278Y-50037268D01*
X177664283Y-50037273D01*
X177664284Y-50037276D01*
X177776526Y-50159201D01*
X177816760Y-50202906D01*
X177994424Y-50341189D01*
X177994425Y-50341189D01*
X177994427Y-50341191D01*
X178037985Y-50364763D01*
X178192426Y-50448342D01*
X178405365Y-50521444D01*
X178627431Y-50558500D01*
X178852569Y-50558500D01*
X179074635Y-50521444D01*
X179287574Y-50448342D01*
X179485576Y-50341189D01*
X179663240Y-50202906D01*
X179790621Y-50064535D01*
X179815715Y-50037276D01*
X179815715Y-50037275D01*
X179815722Y-50037268D01*
X179906193Y-49898790D01*
X179959338Y-49853437D01*
X180028569Y-49844013D01*
X180091905Y-49873515D01*
X180113804Y-49898787D01*
X180204278Y-50037268D01*
X180204283Y-50037273D01*
X180204284Y-50037276D01*
X180316526Y-50159201D01*
X180356760Y-50202906D01*
X180534424Y-50341189D01*
X180534425Y-50341189D01*
X180534427Y-50341191D01*
X180577985Y-50364763D01*
X180732426Y-50448342D01*
X180945365Y-50521444D01*
X181167431Y-50558500D01*
X181392569Y-50558500D01*
X181614635Y-50521444D01*
X181827574Y-50448342D01*
X182025576Y-50341189D01*
X182203240Y-50202906D01*
X182330621Y-50064535D01*
X182355715Y-50037276D01*
X182355715Y-50037275D01*
X182355722Y-50037268D01*
X182446193Y-49898790D01*
X182499338Y-49853437D01*
X182568569Y-49844013D01*
X182631905Y-49873515D01*
X182653804Y-49898787D01*
X182744278Y-50037268D01*
X182744283Y-50037273D01*
X182744284Y-50037276D01*
X182856526Y-50159201D01*
X182896760Y-50202906D01*
X183074424Y-50341189D01*
X183074425Y-50341189D01*
X183074427Y-50341191D01*
X183117985Y-50364763D01*
X183272426Y-50448342D01*
X183485365Y-50521444D01*
X183707431Y-50558500D01*
X183932569Y-50558500D01*
X184154635Y-50521444D01*
X184367574Y-50448342D01*
X184565576Y-50341189D01*
X184743240Y-50202906D01*
X184870621Y-50064535D01*
X184895715Y-50037276D01*
X184895715Y-50037275D01*
X184895722Y-50037268D01*
X184986193Y-49898790D01*
X185039338Y-49853437D01*
X185108569Y-49844013D01*
X185171905Y-49873515D01*
X185193804Y-49898787D01*
X185284278Y-50037268D01*
X185284283Y-50037273D01*
X185284284Y-50037276D01*
X185396526Y-50159201D01*
X185436760Y-50202906D01*
X185614424Y-50341189D01*
X185614425Y-50341189D01*
X185614427Y-50341191D01*
X185657985Y-50364763D01*
X185812426Y-50448342D01*
X186025365Y-50521444D01*
X186247431Y-50558500D01*
X186472569Y-50558500D01*
X186694635Y-50521444D01*
X186907574Y-50448342D01*
X187105576Y-50341189D01*
X187283240Y-50202906D01*
X187410621Y-50064535D01*
X187435715Y-50037276D01*
X187435717Y-50037273D01*
X187435722Y-50037268D01*
X187558860Y-49848791D01*
X187649296Y-49642616D01*
X187704564Y-49424368D01*
X187712562Y-49327850D01*
X187723156Y-49200005D01*
X187723156Y-49199994D01*
X187712562Y-49072149D01*
X188219500Y-49072149D01*
X188219500Y-49327850D01*
X188243088Y-49507007D01*
X188252874Y-49581340D01*
X188281080Y-49686606D01*
X188319050Y-49828312D01*
X188319053Y-49828322D01*
X188416894Y-50064531D01*
X188416899Y-50064542D01*
X188544734Y-50285957D01*
X188544745Y-50285973D01*
X188700388Y-50488811D01*
X188700394Y-50488818D01*
X188881181Y-50669605D01*
X188881187Y-50669610D01*
X189084035Y-50825261D01*
X189084042Y-50825265D01*
X189305457Y-50953100D01*
X189305462Y-50953102D01*
X189305465Y-50953104D01*
X189541687Y-51050950D01*
X189788660Y-51117126D01*
X190042157Y-51150500D01*
X190042164Y-51150500D01*
X190297836Y-51150500D01*
X190297843Y-51150500D01*
X190551340Y-51117126D01*
X190798313Y-51050950D01*
X191034535Y-50953104D01*
X191255965Y-50825261D01*
X191458813Y-50669610D01*
X191639610Y-50488813D01*
X191795261Y-50285965D01*
X191923104Y-50064535D01*
X192020950Y-49828313D01*
X192087126Y-49581340D01*
X192120500Y-49327843D01*
X192120500Y-49072157D01*
X192087126Y-48818660D01*
X192020950Y-48571687D01*
X192018531Y-48565848D01*
X191934398Y-48362732D01*
X191923104Y-48335465D01*
X191923102Y-48335462D01*
X191923100Y-48335457D01*
X191795265Y-48114042D01*
X191795261Y-48114035D01*
X191685534Y-47971036D01*
X191639611Y-47911188D01*
X191639605Y-47911181D01*
X191458818Y-47730394D01*
X191458811Y-47730388D01*
X191255973Y-47574745D01*
X191255971Y-47574743D01*
X191255965Y-47574739D01*
X191255960Y-47574736D01*
X191255957Y-47574734D01*
X191034542Y-47446899D01*
X191034531Y-47446894D01*
X190798322Y-47349053D01*
X190798315Y-47349051D01*
X190798313Y-47349050D01*
X190551340Y-47282874D01*
X190495007Y-47275457D01*
X190297850Y-47249500D01*
X190297843Y-47249500D01*
X190042157Y-47249500D01*
X190042149Y-47249500D01*
X189816826Y-47279165D01*
X189788660Y-47282874D01*
X189541687Y-47349050D01*
X189541677Y-47349053D01*
X189305468Y-47446894D01*
X189305457Y-47446899D01*
X189084042Y-47574734D01*
X189084026Y-47574745D01*
X188881188Y-47730388D01*
X188881181Y-47730394D01*
X188700394Y-47911181D01*
X188700388Y-47911188D01*
X188544745Y-48114026D01*
X188544734Y-48114042D01*
X188416899Y-48335457D01*
X188416894Y-48335468D01*
X188319053Y-48571677D01*
X188319050Y-48571687D01*
X188257901Y-48799901D01*
X188252874Y-48818661D01*
X188219500Y-49072149D01*
X187712562Y-49072149D01*
X187704565Y-48975640D01*
X187704563Y-48975628D01*
X187649296Y-48757385D01*
X187640138Y-48736507D01*
X187558860Y-48551209D01*
X187542706Y-48526484D01*
X187435723Y-48362734D01*
X187435715Y-48362723D01*
X187283243Y-48197097D01*
X187283238Y-48197092D01*
X187105577Y-48058812D01*
X187105572Y-48058808D01*
X186907580Y-47951661D01*
X186907577Y-47951659D01*
X186907574Y-47951658D01*
X186907571Y-47951657D01*
X186907569Y-47951656D01*
X186694637Y-47878556D01*
X186472569Y-47841500D01*
X186247431Y-47841500D01*
X186025362Y-47878556D01*
X185812430Y-47951656D01*
X185812419Y-47951661D01*
X185614427Y-48058808D01*
X185614422Y-48058812D01*
X185436761Y-48197092D01*
X185436756Y-48197097D01*
X185284284Y-48362723D01*
X185284276Y-48362734D01*
X185193808Y-48501206D01*
X185140662Y-48546562D01*
X185071431Y-48555986D01*
X185008095Y-48526484D01*
X184986192Y-48501206D01*
X184895723Y-48362734D01*
X184895715Y-48362723D01*
X184743243Y-48197097D01*
X184743238Y-48197092D01*
X184565577Y-48058812D01*
X184565572Y-48058808D01*
X184367580Y-47951661D01*
X184367577Y-47951659D01*
X184367574Y-47951658D01*
X184367571Y-47951657D01*
X184367569Y-47951656D01*
X184154637Y-47878556D01*
X183932569Y-47841500D01*
X183707431Y-47841500D01*
X183485362Y-47878556D01*
X183272430Y-47951656D01*
X183272419Y-47951661D01*
X183074427Y-48058808D01*
X183074422Y-48058812D01*
X182896761Y-48197092D01*
X182896756Y-48197097D01*
X182744284Y-48362723D01*
X182744276Y-48362734D01*
X182653808Y-48501206D01*
X182600662Y-48546562D01*
X182531431Y-48555986D01*
X182468095Y-48526484D01*
X182446192Y-48501206D01*
X182355723Y-48362734D01*
X182355715Y-48362723D01*
X182203243Y-48197097D01*
X182203238Y-48197092D01*
X182025577Y-48058812D01*
X182025572Y-48058808D01*
X181827580Y-47951661D01*
X181827577Y-47951659D01*
X181827574Y-47951658D01*
X181827571Y-47951657D01*
X181827569Y-47951656D01*
X181614637Y-47878556D01*
X181392569Y-47841500D01*
X181167431Y-47841500D01*
X180945362Y-47878556D01*
X180732430Y-47951656D01*
X180732419Y-47951661D01*
X180534427Y-48058808D01*
X180534422Y-48058812D01*
X180356761Y-48197092D01*
X180356756Y-48197097D01*
X180204284Y-48362723D01*
X180204276Y-48362734D01*
X180113808Y-48501206D01*
X180060662Y-48546562D01*
X179991431Y-48555986D01*
X179928095Y-48526484D01*
X179906192Y-48501206D01*
X179815723Y-48362734D01*
X179815715Y-48362723D01*
X179663243Y-48197097D01*
X179663238Y-48197092D01*
X179485577Y-48058812D01*
X179485572Y-48058808D01*
X179287580Y-47951661D01*
X179287577Y-47951659D01*
X179287574Y-47951658D01*
X179287571Y-47951657D01*
X179287569Y-47951656D01*
X179074637Y-47878556D01*
X178852569Y-47841500D01*
X178627431Y-47841500D01*
X178405362Y-47878556D01*
X178192430Y-47951656D01*
X178192419Y-47951661D01*
X177994427Y-48058808D01*
X177994422Y-48058812D01*
X177816761Y-48197092D01*
X177816756Y-48197097D01*
X177664284Y-48362723D01*
X177664276Y-48362734D01*
X177573808Y-48501206D01*
X177520662Y-48546562D01*
X177451431Y-48555986D01*
X177388095Y-48526484D01*
X177366192Y-48501206D01*
X177275723Y-48362734D01*
X177275715Y-48362723D01*
X177123243Y-48197097D01*
X177123238Y-48197092D01*
X176945577Y-48058812D01*
X176945572Y-48058808D01*
X176747580Y-47951661D01*
X176747577Y-47951659D01*
X176747574Y-47951658D01*
X176747571Y-47951657D01*
X176747569Y-47951656D01*
X176534637Y-47878556D01*
X176312569Y-47841500D01*
X176087431Y-47841500D01*
X175865362Y-47878556D01*
X175652430Y-47951656D01*
X175652419Y-47951661D01*
X175454427Y-48058808D01*
X175454422Y-48058812D01*
X175276761Y-48197092D01*
X175276756Y-48197097D01*
X175124284Y-48362723D01*
X175124276Y-48362734D01*
X175033808Y-48501206D01*
X174980662Y-48546562D01*
X174911431Y-48555986D01*
X174848095Y-48526484D01*
X174826192Y-48501206D01*
X174735723Y-48362734D01*
X174735715Y-48362723D01*
X174583243Y-48197097D01*
X174583238Y-48197092D01*
X174405577Y-48058812D01*
X174405572Y-48058808D01*
X174207580Y-47951661D01*
X174207577Y-47951659D01*
X174207574Y-47951658D01*
X174207571Y-47951657D01*
X174207569Y-47951656D01*
X173994637Y-47878556D01*
X173772569Y-47841500D01*
X173547431Y-47841500D01*
X173325362Y-47878556D01*
X173112430Y-47951656D01*
X173112419Y-47951661D01*
X172914427Y-48058808D01*
X172914422Y-48058812D01*
X172736761Y-48197092D01*
X172736756Y-48197097D01*
X172584284Y-48362723D01*
X172584276Y-48362734D01*
X172493808Y-48501206D01*
X172440662Y-48546562D01*
X172371431Y-48555986D01*
X172308095Y-48526484D01*
X172286192Y-48501206D01*
X172195723Y-48362734D01*
X172195715Y-48362723D01*
X172043243Y-48197097D01*
X172043238Y-48197092D01*
X171865577Y-48058812D01*
X171865572Y-48058808D01*
X171667580Y-47951661D01*
X171667577Y-47951659D01*
X171667574Y-47951658D01*
X171667571Y-47951657D01*
X171667569Y-47951656D01*
X171454637Y-47878556D01*
X171232569Y-47841500D01*
X171007431Y-47841500D01*
X170785362Y-47878556D01*
X170572430Y-47951656D01*
X170572419Y-47951661D01*
X170374427Y-48058808D01*
X170374422Y-48058812D01*
X170196761Y-48197092D01*
X170133548Y-48265760D01*
X170073661Y-48301750D01*
X170003823Y-48299649D01*
X169946207Y-48260124D01*
X169926138Y-48225110D01*
X169880889Y-48103796D01*
X169847214Y-48058812D01*
X169793261Y-47986739D01*
X169676204Y-47899111D01*
X169653616Y-47890686D01*
X169539203Y-47848011D01*
X169478654Y-47841500D01*
X169478638Y-47841500D01*
X167681362Y-47841500D01*
X167681345Y-47841500D01*
X167620797Y-47848011D01*
X167620795Y-47848011D01*
X167475488Y-47902210D01*
X167475028Y-47900977D01*
X167415643Y-47913890D01*
X167350181Y-47889468D01*
X167308315Y-47833531D01*
X167300500Y-47790207D01*
X167300500Y-47084500D01*
X167320185Y-47017461D01*
X167372989Y-46971706D01*
X167424500Y-46960500D01*
X196344167Y-46960500D01*
X196411206Y-46980185D01*
G37*
G04 #@! TD.AperFunction*
G04 #@! TA.AperFunction,Conductor*
G36*
X196054075Y-49007007D02*
G01*
X196020000Y-49134174D01*
X196020000Y-49265826D01*
X196054075Y-49392993D01*
X196086988Y-49450000D01*
X194413012Y-49450000D01*
X194445925Y-49392993D01*
X194480000Y-49265826D01*
X194480000Y-49134174D01*
X194445925Y-49007007D01*
X194413012Y-48950000D01*
X196086988Y-48950000D01*
X196054075Y-49007007D01*
G37*
G04 #@! TD.AperFunction*
M02*
