G04 #@! TF.GenerationSoftware,KiCad,Pcbnew,8.0.5*
G04 #@! TF.CreationDate,2024-09-14T16:10:14+01:00*
G04 #@! TF.ProjectId,DataShield,44617461-5368-4696-956c-642e6b696361,rev?*
G04 #@! TF.SameCoordinates,Original*
G04 #@! TF.FileFunction,Legend,Bot*
G04 #@! TF.FilePolarity,Positive*
%FSLAX46Y46*%
G04 Gerber Fmt 4.6, Leading zero omitted, Abs format (unit mm)*
G04 Created by KiCad (PCBNEW 8.0.5) date 2024-09-14 16:10:14*
%MOMM*%
%LPD*%
G01*
G04 APERTURE LIST*
G04 Aperture macros list*
%AMRoundRect*
0 Rectangle with rounded corners*
0 $1 Rounding radius*
0 $2 $3 $4 $5 $6 $7 $8 $9 X,Y pos of 4 corners*
0 Add a 4 corners polygon primitive as box body*
4,1,4,$2,$3,$4,$5,$6,$7,$8,$9,$2,$3,0*
0 Add four circle primitives for the rounded corners*
1,1,$1+$1,$2,$3*
1,1,$1+$1,$4,$5*
1,1,$1+$1,$6,$7*
1,1,$1+$1,$8,$9*
0 Add four rect primitives between the rounded corners*
20,1,$1+$1,$2,$3,$4,$5,0*
20,1,$1+$1,$4,$5,$6,$7,0*
20,1,$1+$1,$6,$7,$8,$9,0*
20,1,$1+$1,$8,$9,$2,$3,0*%
G04 Aperture macros list end*
%ADD10C,0.150000*%
%ADD11C,0.120000*%
%ADD12R,1.700000X1.700000*%
%ADD13O,1.700000X1.700000*%
%ADD14C,3.200000*%
%ADD15RoundRect,0.250000X-0.600000X0.600000X-0.600000X-0.600000X0.600000X-0.600000X0.600000X0.600000X0*%
%ADD16C,1.700000*%
%ADD17RoundRect,0.250000X-0.475000X0.250000X-0.475000X-0.250000X0.475000X-0.250000X0.475000X0.250000X0*%
%ADD18RoundRect,0.250000X0.262500X0.450000X-0.262500X0.450000X-0.262500X-0.450000X0.262500X-0.450000X0*%
%ADD19RoundRect,0.250000X0.250000X0.475000X-0.250000X0.475000X-0.250000X-0.475000X0.250000X-0.475000X0*%
%ADD20RoundRect,0.250000X0.450000X-0.262500X0.450000X0.262500X-0.450000X0.262500X-0.450000X-0.262500X0*%
%ADD21RoundRect,0.218750X0.218750X0.381250X-0.218750X0.381250X-0.218750X-0.381250X0.218750X-0.381250X0*%
%ADD22RoundRect,0.250000X0.650000X-0.325000X0.650000X0.325000X-0.650000X0.325000X-0.650000X-0.325000X0*%
%ADD23RoundRect,0.218750X-0.381250X0.218750X-0.381250X-0.218750X0.381250X-0.218750X0.381250X0.218750X0*%
%ADD24RoundRect,0.250000X-0.250000X-0.475000X0.250000X-0.475000X0.250000X0.475000X-0.250000X0.475000X0*%
%ADD25RoundRect,0.250000X-0.262500X-0.450000X0.262500X-0.450000X0.262500X0.450000X-0.262500X0.450000X0*%
%ADD26RoundRect,0.218750X0.381250X-0.218750X0.381250X0.218750X-0.381250X0.218750X-0.381250X-0.218750X0*%
%ADD27RoundRect,0.100000X0.100000X-0.637500X0.100000X0.637500X-0.100000X0.637500X-0.100000X-0.637500X0*%
G04 APERTURE END LIST*
D10*
X198000000Y-72500000D02*
X194000000Y-72500000D01*
X194000000Y-67000000D02*
X198000000Y-67000000D01*
X198000000Y-67000000D02*
X198000000Y-69000000D01*
X194000000Y-72500000D02*
X194000000Y-67000000D01*
X198000000Y-70500000D02*
X198000000Y-72500000D01*
X194539987Y-74860588D02*
X194539987Y-74289160D01*
X194539987Y-74574874D02*
X193539987Y-74574874D01*
X193539987Y-74574874D02*
X193682844Y-74479636D01*
X193682844Y-74479636D02*
X193778082Y-74384398D01*
X193778082Y-74384398D02*
X193825701Y-74289160D01*
X194159034Y-76051065D02*
X194159034Y-76812970D01*
X194539987Y-78622493D02*
X194063796Y-78289160D01*
X194539987Y-78051065D02*
X193539987Y-78051065D01*
X193539987Y-78051065D02*
X193539987Y-78432017D01*
X193539987Y-78432017D02*
X193587606Y-78527255D01*
X193587606Y-78527255D02*
X193635225Y-78574874D01*
X193635225Y-78574874D02*
X193730463Y-78622493D01*
X193730463Y-78622493D02*
X193873320Y-78622493D01*
X193873320Y-78622493D02*
X193968558Y-78574874D01*
X193968558Y-78574874D02*
X194016177Y-78527255D01*
X194016177Y-78527255D02*
X194063796Y-78432017D01*
X194063796Y-78432017D02*
X194063796Y-78051065D01*
X194492368Y-79003446D02*
X194539987Y-79146303D01*
X194539987Y-79146303D02*
X194539987Y-79384398D01*
X194539987Y-79384398D02*
X194492368Y-79479636D01*
X194492368Y-79479636D02*
X194444748Y-79527255D01*
X194444748Y-79527255D02*
X194349510Y-79574874D01*
X194349510Y-79574874D02*
X194254272Y-79574874D01*
X194254272Y-79574874D02*
X194159034Y-79527255D01*
X194159034Y-79527255D02*
X194111415Y-79479636D01*
X194111415Y-79479636D02*
X194063796Y-79384398D01*
X194063796Y-79384398D02*
X194016177Y-79193922D01*
X194016177Y-79193922D02*
X193968558Y-79098684D01*
X193968558Y-79098684D02*
X193920939Y-79051065D01*
X193920939Y-79051065D02*
X193825701Y-79003446D01*
X193825701Y-79003446D02*
X193730463Y-79003446D01*
X193730463Y-79003446D02*
X193635225Y-79051065D01*
X193635225Y-79051065D02*
X193587606Y-79098684D01*
X193587606Y-79098684D02*
X193539987Y-79193922D01*
X193539987Y-79193922D02*
X193539987Y-79432017D01*
X193539987Y-79432017D02*
X193587606Y-79574874D01*
X193873320Y-80432017D02*
X194539987Y-80432017D01*
X193492368Y-80193922D02*
X194206653Y-79955827D01*
X194206653Y-79955827D02*
X194206653Y-80574874D01*
X193968558Y-81098684D02*
X193920939Y-81003446D01*
X193920939Y-81003446D02*
X193873320Y-80955827D01*
X193873320Y-80955827D02*
X193778082Y-80908208D01*
X193778082Y-80908208D02*
X193730463Y-80908208D01*
X193730463Y-80908208D02*
X193635225Y-80955827D01*
X193635225Y-80955827D02*
X193587606Y-81003446D01*
X193587606Y-81003446D02*
X193539987Y-81098684D01*
X193539987Y-81098684D02*
X193539987Y-81289160D01*
X193539987Y-81289160D02*
X193587606Y-81384398D01*
X193587606Y-81384398D02*
X193635225Y-81432017D01*
X193635225Y-81432017D02*
X193730463Y-81479636D01*
X193730463Y-81479636D02*
X193778082Y-81479636D01*
X193778082Y-81479636D02*
X193873320Y-81432017D01*
X193873320Y-81432017D02*
X193920939Y-81384398D01*
X193920939Y-81384398D02*
X193968558Y-81289160D01*
X193968558Y-81289160D02*
X193968558Y-81098684D01*
X193968558Y-81098684D02*
X194016177Y-81003446D01*
X194016177Y-81003446D02*
X194063796Y-80955827D01*
X194063796Y-80955827D02*
X194159034Y-80908208D01*
X194159034Y-80908208D02*
X194349510Y-80908208D01*
X194349510Y-80908208D02*
X194444748Y-80955827D01*
X194444748Y-80955827D02*
X194492368Y-81003446D01*
X194492368Y-81003446D02*
X194539987Y-81098684D01*
X194539987Y-81098684D02*
X194539987Y-81289160D01*
X194539987Y-81289160D02*
X194492368Y-81384398D01*
X194492368Y-81384398D02*
X194444748Y-81432017D01*
X194444748Y-81432017D02*
X194349510Y-81479636D01*
X194349510Y-81479636D02*
X194159034Y-81479636D01*
X194159034Y-81479636D02*
X194063796Y-81432017D01*
X194063796Y-81432017D02*
X194016177Y-81384398D01*
X194016177Y-81384398D02*
X193968558Y-81289160D01*
X193539987Y-82384398D02*
X193539987Y-81908208D01*
X193539987Y-81908208D02*
X194016177Y-81860589D01*
X194016177Y-81860589D02*
X193968558Y-81908208D01*
X193968558Y-81908208D02*
X193920939Y-82003446D01*
X193920939Y-82003446D02*
X193920939Y-82241541D01*
X193920939Y-82241541D02*
X193968558Y-82336779D01*
X193968558Y-82336779D02*
X194016177Y-82384398D01*
X194016177Y-82384398D02*
X194111415Y-82432017D01*
X194111415Y-82432017D02*
X194349510Y-82432017D01*
X194349510Y-82432017D02*
X194444748Y-82384398D01*
X194444748Y-82384398D02*
X194492368Y-82336779D01*
X194492368Y-82336779D02*
X194539987Y-82241541D01*
X194539987Y-82241541D02*
X194539987Y-82003446D01*
X194539987Y-82003446D02*
X194492368Y-81908208D01*
X194492368Y-81908208D02*
X194444748Y-81860589D01*
X194254272Y-83574875D02*
X194254272Y-84051065D01*
X194539987Y-83479637D02*
X193539987Y-83812970D01*
X193539987Y-83812970D02*
X194539987Y-84146303D01*
X195245169Y-74289160D02*
X195197550Y-74336779D01*
X195197550Y-74336779D02*
X195149931Y-74432017D01*
X195149931Y-74432017D02*
X195149931Y-74670112D01*
X195149931Y-74670112D02*
X195197550Y-74765350D01*
X195197550Y-74765350D02*
X195245169Y-74812969D01*
X195245169Y-74812969D02*
X195340407Y-74860588D01*
X195340407Y-74860588D02*
X195435645Y-74860588D01*
X195435645Y-74860588D02*
X195578502Y-74812969D01*
X195578502Y-74812969D02*
X196149931Y-74241541D01*
X196149931Y-74241541D02*
X196149931Y-74860588D01*
X195768978Y-76051065D02*
X195768978Y-76812970D01*
X196149931Y-78622493D02*
X195673740Y-78289160D01*
X196149931Y-78051065D02*
X195149931Y-78051065D01*
X195149931Y-78051065D02*
X195149931Y-78432017D01*
X195149931Y-78432017D02*
X195197550Y-78527255D01*
X195197550Y-78527255D02*
X195245169Y-78574874D01*
X195245169Y-78574874D02*
X195340407Y-78622493D01*
X195340407Y-78622493D02*
X195483264Y-78622493D01*
X195483264Y-78622493D02*
X195578502Y-78574874D01*
X195578502Y-78574874D02*
X195626121Y-78527255D01*
X195626121Y-78527255D02*
X195673740Y-78432017D01*
X195673740Y-78432017D02*
X195673740Y-78051065D01*
X196102312Y-79003446D02*
X196149931Y-79146303D01*
X196149931Y-79146303D02*
X196149931Y-79384398D01*
X196149931Y-79384398D02*
X196102312Y-79479636D01*
X196102312Y-79479636D02*
X196054692Y-79527255D01*
X196054692Y-79527255D02*
X195959454Y-79574874D01*
X195959454Y-79574874D02*
X195864216Y-79574874D01*
X195864216Y-79574874D02*
X195768978Y-79527255D01*
X195768978Y-79527255D02*
X195721359Y-79479636D01*
X195721359Y-79479636D02*
X195673740Y-79384398D01*
X195673740Y-79384398D02*
X195626121Y-79193922D01*
X195626121Y-79193922D02*
X195578502Y-79098684D01*
X195578502Y-79098684D02*
X195530883Y-79051065D01*
X195530883Y-79051065D02*
X195435645Y-79003446D01*
X195435645Y-79003446D02*
X195340407Y-79003446D01*
X195340407Y-79003446D02*
X195245169Y-79051065D01*
X195245169Y-79051065D02*
X195197550Y-79098684D01*
X195197550Y-79098684D02*
X195149931Y-79193922D01*
X195149931Y-79193922D02*
X195149931Y-79432017D01*
X195149931Y-79432017D02*
X195197550Y-79574874D01*
X195483264Y-80432017D02*
X196149931Y-80432017D01*
X195102312Y-80193922D02*
X195816597Y-79955827D01*
X195816597Y-79955827D02*
X195816597Y-80574874D01*
X195578502Y-81098684D02*
X195530883Y-81003446D01*
X195530883Y-81003446D02*
X195483264Y-80955827D01*
X195483264Y-80955827D02*
X195388026Y-80908208D01*
X195388026Y-80908208D02*
X195340407Y-80908208D01*
X195340407Y-80908208D02*
X195245169Y-80955827D01*
X195245169Y-80955827D02*
X195197550Y-81003446D01*
X195197550Y-81003446D02*
X195149931Y-81098684D01*
X195149931Y-81098684D02*
X195149931Y-81289160D01*
X195149931Y-81289160D02*
X195197550Y-81384398D01*
X195197550Y-81384398D02*
X195245169Y-81432017D01*
X195245169Y-81432017D02*
X195340407Y-81479636D01*
X195340407Y-81479636D02*
X195388026Y-81479636D01*
X195388026Y-81479636D02*
X195483264Y-81432017D01*
X195483264Y-81432017D02*
X195530883Y-81384398D01*
X195530883Y-81384398D02*
X195578502Y-81289160D01*
X195578502Y-81289160D02*
X195578502Y-81098684D01*
X195578502Y-81098684D02*
X195626121Y-81003446D01*
X195626121Y-81003446D02*
X195673740Y-80955827D01*
X195673740Y-80955827D02*
X195768978Y-80908208D01*
X195768978Y-80908208D02*
X195959454Y-80908208D01*
X195959454Y-80908208D02*
X196054692Y-80955827D01*
X196054692Y-80955827D02*
X196102312Y-81003446D01*
X196102312Y-81003446D02*
X196149931Y-81098684D01*
X196149931Y-81098684D02*
X196149931Y-81289160D01*
X196149931Y-81289160D02*
X196102312Y-81384398D01*
X196102312Y-81384398D02*
X196054692Y-81432017D01*
X196054692Y-81432017D02*
X195959454Y-81479636D01*
X195959454Y-81479636D02*
X195768978Y-81479636D01*
X195768978Y-81479636D02*
X195673740Y-81432017D01*
X195673740Y-81432017D02*
X195626121Y-81384398D01*
X195626121Y-81384398D02*
X195578502Y-81289160D01*
X195149931Y-82384398D02*
X195149931Y-81908208D01*
X195149931Y-81908208D02*
X195626121Y-81860589D01*
X195626121Y-81860589D02*
X195578502Y-81908208D01*
X195578502Y-81908208D02*
X195530883Y-82003446D01*
X195530883Y-82003446D02*
X195530883Y-82241541D01*
X195530883Y-82241541D02*
X195578502Y-82336779D01*
X195578502Y-82336779D02*
X195626121Y-82384398D01*
X195626121Y-82384398D02*
X195721359Y-82432017D01*
X195721359Y-82432017D02*
X195959454Y-82432017D01*
X195959454Y-82432017D02*
X196054692Y-82384398D01*
X196054692Y-82384398D02*
X196102312Y-82336779D01*
X196102312Y-82336779D02*
X196149931Y-82241541D01*
X196149931Y-82241541D02*
X196149931Y-82003446D01*
X196149931Y-82003446D02*
X196102312Y-81908208D01*
X196102312Y-81908208D02*
X196054692Y-81860589D01*
X195626121Y-83955827D02*
X195673740Y-84098684D01*
X195673740Y-84098684D02*
X195721359Y-84146303D01*
X195721359Y-84146303D02*
X195816597Y-84193922D01*
X195816597Y-84193922D02*
X195959454Y-84193922D01*
X195959454Y-84193922D02*
X196054692Y-84146303D01*
X196054692Y-84146303D02*
X196102312Y-84098684D01*
X196102312Y-84098684D02*
X196149931Y-84003446D01*
X196149931Y-84003446D02*
X196149931Y-83622494D01*
X196149931Y-83622494D02*
X195149931Y-83622494D01*
X195149931Y-83622494D02*
X195149931Y-83955827D01*
X195149931Y-83955827D02*
X195197550Y-84051065D01*
X195197550Y-84051065D02*
X195245169Y-84098684D01*
X195245169Y-84098684D02*
X195340407Y-84146303D01*
X195340407Y-84146303D02*
X195435645Y-84146303D01*
X195435645Y-84146303D02*
X195530883Y-84098684D01*
X195530883Y-84098684D02*
X195578502Y-84051065D01*
X195578502Y-84051065D02*
X195626121Y-83955827D01*
X195626121Y-83955827D02*
X195626121Y-83622494D01*
X196759875Y-74241541D02*
X196759875Y-74860588D01*
X196759875Y-74860588D02*
X197140827Y-74527255D01*
X197140827Y-74527255D02*
X197140827Y-74670112D01*
X197140827Y-74670112D02*
X197188446Y-74765350D01*
X197188446Y-74765350D02*
X197236065Y-74812969D01*
X197236065Y-74812969D02*
X197331303Y-74860588D01*
X197331303Y-74860588D02*
X197569398Y-74860588D01*
X197569398Y-74860588D02*
X197664636Y-74812969D01*
X197664636Y-74812969D02*
X197712256Y-74765350D01*
X197712256Y-74765350D02*
X197759875Y-74670112D01*
X197759875Y-74670112D02*
X197759875Y-74384398D01*
X197759875Y-74384398D02*
X197712256Y-74289160D01*
X197712256Y-74289160D02*
X197664636Y-74241541D01*
X197712256Y-75336779D02*
X197759875Y-75336779D01*
X197759875Y-75336779D02*
X197855113Y-75289160D01*
X197855113Y-75289160D02*
X197902732Y-75241541D01*
X197093208Y-76955826D02*
X197759875Y-76955826D01*
X196712256Y-76717731D02*
X197426541Y-76479636D01*
X197426541Y-76479636D02*
X197426541Y-77098683D01*
X197378922Y-78241541D02*
X197378922Y-79003446D01*
X196807494Y-80765350D02*
X196759875Y-80670112D01*
X196759875Y-80670112D02*
X196759875Y-80527255D01*
X196759875Y-80527255D02*
X196807494Y-80384398D01*
X196807494Y-80384398D02*
X196902732Y-80289160D01*
X196902732Y-80289160D02*
X196997970Y-80241541D01*
X196997970Y-80241541D02*
X197188446Y-80193922D01*
X197188446Y-80193922D02*
X197331303Y-80193922D01*
X197331303Y-80193922D02*
X197521779Y-80241541D01*
X197521779Y-80241541D02*
X197617017Y-80289160D01*
X197617017Y-80289160D02*
X197712256Y-80384398D01*
X197712256Y-80384398D02*
X197759875Y-80527255D01*
X197759875Y-80527255D02*
X197759875Y-80622493D01*
X197759875Y-80622493D02*
X197712256Y-80765350D01*
X197712256Y-80765350D02*
X197664636Y-80812969D01*
X197664636Y-80812969D02*
X197331303Y-80812969D01*
X197331303Y-80812969D02*
X197331303Y-80622493D01*
X197759875Y-81241541D02*
X196759875Y-81241541D01*
X196759875Y-81241541D02*
X197759875Y-81812969D01*
X197759875Y-81812969D02*
X196759875Y-81812969D01*
X197759875Y-82289160D02*
X196759875Y-82289160D01*
X196759875Y-82289160D02*
X196759875Y-82527255D01*
X196759875Y-82527255D02*
X196807494Y-82670112D01*
X196807494Y-82670112D02*
X196902732Y-82765350D01*
X196902732Y-82765350D02*
X196997970Y-82812969D01*
X196997970Y-82812969D02*
X197188446Y-82860588D01*
X197188446Y-82860588D02*
X197331303Y-82860588D01*
X197331303Y-82860588D02*
X197521779Y-82812969D01*
X197521779Y-82812969D02*
X197617017Y-82765350D01*
X197617017Y-82765350D02*
X197712256Y-82670112D01*
X197712256Y-82670112D02*
X197759875Y-82527255D01*
X197759875Y-82527255D02*
X197759875Y-82289160D01*
X198369819Y-74812969D02*
X198369819Y-74336779D01*
X198369819Y-74336779D02*
X198846009Y-74289160D01*
X198846009Y-74289160D02*
X198798390Y-74336779D01*
X198798390Y-74336779D02*
X198750771Y-74432017D01*
X198750771Y-74432017D02*
X198750771Y-74670112D01*
X198750771Y-74670112D02*
X198798390Y-74765350D01*
X198798390Y-74765350D02*
X198846009Y-74812969D01*
X198846009Y-74812969D02*
X198941247Y-74860588D01*
X198941247Y-74860588D02*
X199179342Y-74860588D01*
X199179342Y-74860588D02*
X199274580Y-74812969D01*
X199274580Y-74812969D02*
X199322200Y-74765350D01*
X199322200Y-74765350D02*
X199369819Y-74670112D01*
X199369819Y-74670112D02*
X199369819Y-74432017D01*
X199369819Y-74432017D02*
X199322200Y-74336779D01*
X199322200Y-74336779D02*
X199274580Y-74289160D01*
X199322200Y-75336779D02*
X199369819Y-75336779D01*
X199369819Y-75336779D02*
X199465057Y-75289160D01*
X199465057Y-75289160D02*
X199512676Y-75241541D01*
X198369819Y-76955826D02*
X198369819Y-76765350D01*
X198369819Y-76765350D02*
X198417438Y-76670112D01*
X198417438Y-76670112D02*
X198465057Y-76622493D01*
X198465057Y-76622493D02*
X198607914Y-76527255D01*
X198607914Y-76527255D02*
X198798390Y-76479636D01*
X198798390Y-76479636D02*
X199179342Y-76479636D01*
X199179342Y-76479636D02*
X199274580Y-76527255D01*
X199274580Y-76527255D02*
X199322200Y-76574874D01*
X199322200Y-76574874D02*
X199369819Y-76670112D01*
X199369819Y-76670112D02*
X199369819Y-76860588D01*
X199369819Y-76860588D02*
X199322200Y-76955826D01*
X199322200Y-76955826D02*
X199274580Y-77003445D01*
X199274580Y-77003445D02*
X199179342Y-77051064D01*
X199179342Y-77051064D02*
X198941247Y-77051064D01*
X198941247Y-77051064D02*
X198846009Y-77003445D01*
X198846009Y-77003445D02*
X198798390Y-76955826D01*
X198798390Y-76955826D02*
X198750771Y-76860588D01*
X198750771Y-76860588D02*
X198750771Y-76670112D01*
X198750771Y-76670112D02*
X198798390Y-76574874D01*
X198798390Y-76574874D02*
X198846009Y-76527255D01*
X198846009Y-76527255D02*
X198941247Y-76479636D01*
X198988866Y-78241541D02*
X198988866Y-79003446D01*
X199369819Y-80765350D02*
X199369819Y-80193922D01*
X199369819Y-80479636D02*
X198369819Y-80479636D01*
X198369819Y-80479636D02*
X198512676Y-80384398D01*
X198512676Y-80384398D02*
X198607914Y-80289160D01*
X198607914Y-80289160D02*
X198655533Y-80193922D01*
X198465057Y-81146303D02*
X198417438Y-81193922D01*
X198417438Y-81193922D02*
X198369819Y-81289160D01*
X198369819Y-81289160D02*
X198369819Y-81527255D01*
X198369819Y-81527255D02*
X198417438Y-81622493D01*
X198417438Y-81622493D02*
X198465057Y-81670112D01*
X198465057Y-81670112D02*
X198560295Y-81717731D01*
X198560295Y-81717731D02*
X198655533Y-81717731D01*
X198655533Y-81717731D02*
X198798390Y-81670112D01*
X198798390Y-81670112D02*
X199369819Y-81098684D01*
X199369819Y-81098684D02*
X199369819Y-81717731D01*
X198369819Y-82765351D02*
X199369819Y-83098684D01*
X199369819Y-83098684D02*
X198369819Y-83432017D01*
X194855113Y-67789160D02*
X194807494Y-67836779D01*
X194807494Y-67836779D02*
X194759875Y-67932017D01*
X194759875Y-67932017D02*
X194759875Y-68170112D01*
X194759875Y-68170112D02*
X194807494Y-68265350D01*
X194807494Y-68265350D02*
X194855113Y-68312969D01*
X194855113Y-68312969D02*
X194950351Y-68360588D01*
X194950351Y-68360588D02*
X195045589Y-68360588D01*
X195045589Y-68360588D02*
X195188446Y-68312969D01*
X195188446Y-68312969D02*
X195759875Y-67741541D01*
X195759875Y-67741541D02*
X195759875Y-68360588D01*
X195093208Y-69979636D02*
X195759875Y-69979636D01*
X194712256Y-69741541D02*
X195426541Y-69503446D01*
X195426541Y-69503446D02*
X195426541Y-70122493D01*
X194759875Y-71693922D02*
X194759875Y-71503446D01*
X194759875Y-71503446D02*
X194807494Y-71408208D01*
X194807494Y-71408208D02*
X194855113Y-71360589D01*
X194855113Y-71360589D02*
X194997970Y-71265351D01*
X194997970Y-71265351D02*
X195188446Y-71217732D01*
X195188446Y-71217732D02*
X195569398Y-71217732D01*
X195569398Y-71217732D02*
X195664636Y-71265351D01*
X195664636Y-71265351D02*
X195712256Y-71312970D01*
X195712256Y-71312970D02*
X195759875Y-71408208D01*
X195759875Y-71408208D02*
X195759875Y-71598684D01*
X195759875Y-71598684D02*
X195712256Y-71693922D01*
X195712256Y-71693922D02*
X195664636Y-71741541D01*
X195664636Y-71741541D02*
X195569398Y-71789160D01*
X195569398Y-71789160D02*
X195331303Y-71789160D01*
X195331303Y-71789160D02*
X195236065Y-71741541D01*
X195236065Y-71741541D02*
X195188446Y-71693922D01*
X195188446Y-71693922D02*
X195140827Y-71598684D01*
X195140827Y-71598684D02*
X195140827Y-71408208D01*
X195140827Y-71408208D02*
X195188446Y-71312970D01*
X195188446Y-71312970D02*
X195236065Y-71265351D01*
X195236065Y-71265351D02*
X195331303Y-71217732D01*
X197369819Y-68360588D02*
X197369819Y-67789160D01*
X197369819Y-68074874D02*
X196369819Y-68074874D01*
X196369819Y-68074874D02*
X196512676Y-67979636D01*
X196512676Y-67979636D02*
X196607914Y-67884398D01*
X196607914Y-67884398D02*
X196655533Y-67789160D01*
X196369819Y-69455827D02*
X196369819Y-70074874D01*
X196369819Y-70074874D02*
X196750771Y-69741541D01*
X196750771Y-69741541D02*
X196750771Y-69884398D01*
X196750771Y-69884398D02*
X196798390Y-69979636D01*
X196798390Y-69979636D02*
X196846009Y-70027255D01*
X196846009Y-70027255D02*
X196941247Y-70074874D01*
X196941247Y-70074874D02*
X197179342Y-70074874D01*
X197179342Y-70074874D02*
X197274580Y-70027255D01*
X197274580Y-70027255D02*
X197322200Y-69979636D01*
X197322200Y-69979636D02*
X197369819Y-69884398D01*
X197369819Y-69884398D02*
X197369819Y-69598684D01*
X197369819Y-69598684D02*
X197322200Y-69503446D01*
X197322200Y-69503446D02*
X197274580Y-69455827D01*
X196369819Y-71741541D02*
X196369819Y-71265351D01*
X196369819Y-71265351D02*
X196846009Y-71217732D01*
X196846009Y-71217732D02*
X196798390Y-71265351D01*
X196798390Y-71265351D02*
X196750771Y-71360589D01*
X196750771Y-71360589D02*
X196750771Y-71598684D01*
X196750771Y-71598684D02*
X196798390Y-71693922D01*
X196798390Y-71693922D02*
X196846009Y-71741541D01*
X196846009Y-71741541D02*
X196941247Y-71789160D01*
X196941247Y-71789160D02*
X197179342Y-71789160D01*
X197179342Y-71789160D02*
X197274580Y-71741541D01*
X197274580Y-71741541D02*
X197322200Y-71693922D01*
X197322200Y-71693922D02*
X197369819Y-71598684D01*
X197369819Y-71598684D02*
X197369819Y-71360589D01*
X197369819Y-71360589D02*
X197322200Y-71265351D01*
X197322200Y-71265351D02*
X197274580Y-71217732D01*
X174859580Y-92833333D02*
X174907200Y-92785714D01*
X174907200Y-92785714D02*
X174954819Y-92642857D01*
X174954819Y-92642857D02*
X174954819Y-92547619D01*
X174954819Y-92547619D02*
X174907200Y-92404762D01*
X174907200Y-92404762D02*
X174811961Y-92309524D01*
X174811961Y-92309524D02*
X174716723Y-92261905D01*
X174716723Y-92261905D02*
X174526247Y-92214286D01*
X174526247Y-92214286D02*
X174383390Y-92214286D01*
X174383390Y-92214286D02*
X174192914Y-92261905D01*
X174192914Y-92261905D02*
X174097676Y-92309524D01*
X174097676Y-92309524D02*
X174002438Y-92404762D01*
X174002438Y-92404762D02*
X173954819Y-92547619D01*
X173954819Y-92547619D02*
X173954819Y-92642857D01*
X173954819Y-92642857D02*
X174002438Y-92785714D01*
X174002438Y-92785714D02*
X174050057Y-92833333D01*
X173954819Y-93690476D02*
X173954819Y-93500000D01*
X173954819Y-93500000D02*
X174002438Y-93404762D01*
X174002438Y-93404762D02*
X174050057Y-93357143D01*
X174050057Y-93357143D02*
X174192914Y-93261905D01*
X174192914Y-93261905D02*
X174383390Y-93214286D01*
X174383390Y-93214286D02*
X174764342Y-93214286D01*
X174764342Y-93214286D02*
X174859580Y-93261905D01*
X174859580Y-93261905D02*
X174907200Y-93309524D01*
X174907200Y-93309524D02*
X174954819Y-93404762D01*
X174954819Y-93404762D02*
X174954819Y-93595238D01*
X174954819Y-93595238D02*
X174907200Y-93690476D01*
X174907200Y-93690476D02*
X174859580Y-93738095D01*
X174859580Y-93738095D02*
X174764342Y-93785714D01*
X174764342Y-93785714D02*
X174526247Y-93785714D01*
X174526247Y-93785714D02*
X174431009Y-93738095D01*
X174431009Y-93738095D02*
X174383390Y-93690476D01*
X174383390Y-93690476D02*
X174335771Y-93595238D01*
X174335771Y-93595238D02*
X174335771Y-93404762D01*
X174335771Y-93404762D02*
X174383390Y-93309524D01*
X174383390Y-93309524D02*
X174431009Y-93261905D01*
X174431009Y-93261905D02*
X174526247Y-93214286D01*
X188166666Y-69554819D02*
X188499999Y-69078628D01*
X188738094Y-69554819D02*
X188738094Y-68554819D01*
X188738094Y-68554819D02*
X188357142Y-68554819D01*
X188357142Y-68554819D02*
X188261904Y-68602438D01*
X188261904Y-68602438D02*
X188214285Y-68650057D01*
X188214285Y-68650057D02*
X188166666Y-68745295D01*
X188166666Y-68745295D02*
X188166666Y-68888152D01*
X188166666Y-68888152D02*
X188214285Y-68983390D01*
X188214285Y-68983390D02*
X188261904Y-69031009D01*
X188261904Y-69031009D02*
X188357142Y-69078628D01*
X188357142Y-69078628D02*
X188738094Y-69078628D01*
X187833332Y-68554819D02*
X187214285Y-68554819D01*
X187214285Y-68554819D02*
X187547618Y-68935771D01*
X187547618Y-68935771D02*
X187404761Y-68935771D01*
X187404761Y-68935771D02*
X187309523Y-68983390D01*
X187309523Y-68983390D02*
X187261904Y-69031009D01*
X187261904Y-69031009D02*
X187214285Y-69126247D01*
X187214285Y-69126247D02*
X187214285Y-69364342D01*
X187214285Y-69364342D02*
X187261904Y-69459580D01*
X187261904Y-69459580D02*
X187309523Y-69507200D01*
X187309523Y-69507200D02*
X187404761Y-69554819D01*
X187404761Y-69554819D02*
X187690475Y-69554819D01*
X187690475Y-69554819D02*
X187785713Y-69507200D01*
X187785713Y-69507200D02*
X187833332Y-69459580D01*
X183142857Y-76859580D02*
X183190476Y-76907200D01*
X183190476Y-76907200D02*
X183333333Y-76954819D01*
X183333333Y-76954819D02*
X183428571Y-76954819D01*
X183428571Y-76954819D02*
X183571428Y-76907200D01*
X183571428Y-76907200D02*
X183666666Y-76811961D01*
X183666666Y-76811961D02*
X183714285Y-76716723D01*
X183714285Y-76716723D02*
X183761904Y-76526247D01*
X183761904Y-76526247D02*
X183761904Y-76383390D01*
X183761904Y-76383390D02*
X183714285Y-76192914D01*
X183714285Y-76192914D02*
X183666666Y-76097676D01*
X183666666Y-76097676D02*
X183571428Y-76002438D01*
X183571428Y-76002438D02*
X183428571Y-75954819D01*
X183428571Y-75954819D02*
X183333333Y-75954819D01*
X183333333Y-75954819D02*
X183190476Y-76002438D01*
X183190476Y-76002438D02*
X183142857Y-76050057D01*
X182190476Y-76954819D02*
X182761904Y-76954819D01*
X182476190Y-76954819D02*
X182476190Y-75954819D01*
X182476190Y-75954819D02*
X182571428Y-76097676D01*
X182571428Y-76097676D02*
X182666666Y-76192914D01*
X182666666Y-76192914D02*
X182761904Y-76240533D01*
X181857142Y-75954819D02*
X181238095Y-75954819D01*
X181238095Y-75954819D02*
X181571428Y-76335771D01*
X181571428Y-76335771D02*
X181428571Y-76335771D01*
X181428571Y-76335771D02*
X181333333Y-76383390D01*
X181333333Y-76383390D02*
X181285714Y-76431009D01*
X181285714Y-76431009D02*
X181238095Y-76526247D01*
X181238095Y-76526247D02*
X181238095Y-76764342D01*
X181238095Y-76764342D02*
X181285714Y-76859580D01*
X181285714Y-76859580D02*
X181333333Y-76907200D01*
X181333333Y-76907200D02*
X181428571Y-76954819D01*
X181428571Y-76954819D02*
X181714285Y-76954819D01*
X181714285Y-76954819D02*
X181809523Y-76907200D01*
X181809523Y-76907200D02*
X181857142Y-76859580D01*
X193104819Y-64333333D02*
X192628628Y-64000000D01*
X193104819Y-63761905D02*
X192104819Y-63761905D01*
X192104819Y-63761905D02*
X192104819Y-64142857D01*
X192104819Y-64142857D02*
X192152438Y-64238095D01*
X192152438Y-64238095D02*
X192200057Y-64285714D01*
X192200057Y-64285714D02*
X192295295Y-64333333D01*
X192295295Y-64333333D02*
X192438152Y-64333333D01*
X192438152Y-64333333D02*
X192533390Y-64285714D01*
X192533390Y-64285714D02*
X192581009Y-64238095D01*
X192581009Y-64238095D02*
X192628628Y-64142857D01*
X192628628Y-64142857D02*
X192628628Y-63761905D01*
X192200057Y-64714286D02*
X192152438Y-64761905D01*
X192152438Y-64761905D02*
X192104819Y-64857143D01*
X192104819Y-64857143D02*
X192104819Y-65095238D01*
X192104819Y-65095238D02*
X192152438Y-65190476D01*
X192152438Y-65190476D02*
X192200057Y-65238095D01*
X192200057Y-65238095D02*
X192295295Y-65285714D01*
X192295295Y-65285714D02*
X192390533Y-65285714D01*
X192390533Y-65285714D02*
X192533390Y-65238095D01*
X192533390Y-65238095D02*
X193104819Y-64666667D01*
X193104819Y-64666667D02*
X193104819Y-65285714D01*
X184166666Y-79904819D02*
X184642856Y-79904819D01*
X184642856Y-79904819D02*
X184642856Y-78904819D01*
X183404761Y-79238152D02*
X183404761Y-79904819D01*
X183642856Y-78857200D02*
X183880951Y-79571485D01*
X183880951Y-79571485D02*
X183261904Y-79571485D01*
X175209580Y-62333333D02*
X175257200Y-62285714D01*
X175257200Y-62285714D02*
X175304819Y-62142857D01*
X175304819Y-62142857D02*
X175304819Y-62047619D01*
X175304819Y-62047619D02*
X175257200Y-61904762D01*
X175257200Y-61904762D02*
X175161961Y-61809524D01*
X175161961Y-61809524D02*
X175066723Y-61761905D01*
X175066723Y-61761905D02*
X174876247Y-61714286D01*
X174876247Y-61714286D02*
X174733390Y-61714286D01*
X174733390Y-61714286D02*
X174542914Y-61761905D01*
X174542914Y-61761905D02*
X174447676Y-61809524D01*
X174447676Y-61809524D02*
X174352438Y-61904762D01*
X174352438Y-61904762D02*
X174304819Y-62047619D01*
X174304819Y-62047619D02*
X174304819Y-62142857D01*
X174304819Y-62142857D02*
X174352438Y-62285714D01*
X174352438Y-62285714D02*
X174400057Y-62333333D01*
X174304819Y-63238095D02*
X174304819Y-62761905D01*
X174304819Y-62761905D02*
X174781009Y-62714286D01*
X174781009Y-62714286D02*
X174733390Y-62761905D01*
X174733390Y-62761905D02*
X174685771Y-62857143D01*
X174685771Y-62857143D02*
X174685771Y-63095238D01*
X174685771Y-63095238D02*
X174733390Y-63190476D01*
X174733390Y-63190476D02*
X174781009Y-63238095D01*
X174781009Y-63238095D02*
X174876247Y-63285714D01*
X174876247Y-63285714D02*
X175114342Y-63285714D01*
X175114342Y-63285714D02*
X175209580Y-63238095D01*
X175209580Y-63238095D02*
X175257200Y-63190476D01*
X175257200Y-63190476D02*
X175304819Y-63095238D01*
X175304819Y-63095238D02*
X175304819Y-62857143D01*
X175304819Y-62857143D02*
X175257200Y-62761905D01*
X175257200Y-62761905D02*
X175209580Y-62714286D01*
X180679580Y-54333333D02*
X180727200Y-54285714D01*
X180727200Y-54285714D02*
X180774819Y-54142857D01*
X180774819Y-54142857D02*
X180774819Y-54047619D01*
X180774819Y-54047619D02*
X180727200Y-53904762D01*
X180727200Y-53904762D02*
X180631961Y-53809524D01*
X180631961Y-53809524D02*
X180536723Y-53761905D01*
X180536723Y-53761905D02*
X180346247Y-53714286D01*
X180346247Y-53714286D02*
X180203390Y-53714286D01*
X180203390Y-53714286D02*
X180012914Y-53761905D01*
X180012914Y-53761905D02*
X179917676Y-53809524D01*
X179917676Y-53809524D02*
X179822438Y-53904762D01*
X179822438Y-53904762D02*
X179774819Y-54047619D01*
X179774819Y-54047619D02*
X179774819Y-54142857D01*
X179774819Y-54142857D02*
X179822438Y-54285714D01*
X179822438Y-54285714D02*
X179870057Y-54333333D01*
X180774819Y-54809524D02*
X180774819Y-55000000D01*
X180774819Y-55000000D02*
X180727200Y-55095238D01*
X180727200Y-55095238D02*
X180679580Y-55142857D01*
X180679580Y-55142857D02*
X180536723Y-55238095D01*
X180536723Y-55238095D02*
X180346247Y-55285714D01*
X180346247Y-55285714D02*
X179965295Y-55285714D01*
X179965295Y-55285714D02*
X179870057Y-55238095D01*
X179870057Y-55238095D02*
X179822438Y-55190476D01*
X179822438Y-55190476D02*
X179774819Y-55095238D01*
X179774819Y-55095238D02*
X179774819Y-54904762D01*
X179774819Y-54904762D02*
X179822438Y-54809524D01*
X179822438Y-54809524D02*
X179870057Y-54761905D01*
X179870057Y-54761905D02*
X179965295Y-54714286D01*
X179965295Y-54714286D02*
X180203390Y-54714286D01*
X180203390Y-54714286D02*
X180298628Y-54761905D01*
X180298628Y-54761905D02*
X180346247Y-54809524D01*
X180346247Y-54809524D02*
X180393866Y-54904762D01*
X180393866Y-54904762D02*
X180393866Y-55095238D01*
X180393866Y-55095238D02*
X180346247Y-55190476D01*
X180346247Y-55190476D02*
X180298628Y-55238095D01*
X180298628Y-55238095D02*
X180203390Y-55285714D01*
X189454819Y-89333333D02*
X189454819Y-88857143D01*
X189454819Y-88857143D02*
X188454819Y-88857143D01*
X189454819Y-90190476D02*
X189454819Y-89619048D01*
X189454819Y-89904762D02*
X188454819Y-89904762D01*
X188454819Y-89904762D02*
X188597676Y-89809524D01*
X188597676Y-89809524D02*
X188692914Y-89714286D01*
X188692914Y-89714286D02*
X188740533Y-89619048D01*
X182666666Y-91859580D02*
X182714285Y-91907200D01*
X182714285Y-91907200D02*
X182857142Y-91954819D01*
X182857142Y-91954819D02*
X182952380Y-91954819D01*
X182952380Y-91954819D02*
X183095237Y-91907200D01*
X183095237Y-91907200D02*
X183190475Y-91811961D01*
X183190475Y-91811961D02*
X183238094Y-91716723D01*
X183238094Y-91716723D02*
X183285713Y-91526247D01*
X183285713Y-91526247D02*
X183285713Y-91383390D01*
X183285713Y-91383390D02*
X183238094Y-91192914D01*
X183238094Y-91192914D02*
X183190475Y-91097676D01*
X183190475Y-91097676D02*
X183095237Y-91002438D01*
X183095237Y-91002438D02*
X182952380Y-90954819D01*
X182952380Y-90954819D02*
X182857142Y-90954819D01*
X182857142Y-90954819D02*
X182714285Y-91002438D01*
X182714285Y-91002438D02*
X182666666Y-91050057D01*
X182333332Y-90954819D02*
X181666666Y-90954819D01*
X181666666Y-90954819D02*
X182095237Y-91954819D01*
X184642857Y-85039580D02*
X184690476Y-85087200D01*
X184690476Y-85087200D02*
X184833333Y-85134819D01*
X184833333Y-85134819D02*
X184928571Y-85134819D01*
X184928571Y-85134819D02*
X185071428Y-85087200D01*
X185071428Y-85087200D02*
X185166666Y-84991961D01*
X185166666Y-84991961D02*
X185214285Y-84896723D01*
X185214285Y-84896723D02*
X185261904Y-84706247D01*
X185261904Y-84706247D02*
X185261904Y-84563390D01*
X185261904Y-84563390D02*
X185214285Y-84372914D01*
X185214285Y-84372914D02*
X185166666Y-84277676D01*
X185166666Y-84277676D02*
X185071428Y-84182438D01*
X185071428Y-84182438D02*
X184928571Y-84134819D01*
X184928571Y-84134819D02*
X184833333Y-84134819D01*
X184833333Y-84134819D02*
X184690476Y-84182438D01*
X184690476Y-84182438D02*
X184642857Y-84230057D01*
X183690476Y-85134819D02*
X184261904Y-85134819D01*
X183976190Y-85134819D02*
X183976190Y-84134819D01*
X183976190Y-84134819D02*
X184071428Y-84277676D01*
X184071428Y-84277676D02*
X184166666Y-84372914D01*
X184166666Y-84372914D02*
X184261904Y-84420533D01*
X182833333Y-84468152D02*
X182833333Y-85134819D01*
X183071428Y-84087200D02*
X183309523Y-84801485D01*
X183309523Y-84801485D02*
X182690476Y-84801485D01*
X190366666Y-85954819D02*
X190699999Y-85478628D01*
X190938094Y-85954819D02*
X190938094Y-84954819D01*
X190938094Y-84954819D02*
X190557142Y-84954819D01*
X190557142Y-84954819D02*
X190461904Y-85002438D01*
X190461904Y-85002438D02*
X190414285Y-85050057D01*
X190414285Y-85050057D02*
X190366666Y-85145295D01*
X190366666Y-85145295D02*
X190366666Y-85288152D01*
X190366666Y-85288152D02*
X190414285Y-85383390D01*
X190414285Y-85383390D02*
X190461904Y-85431009D01*
X190461904Y-85431009D02*
X190557142Y-85478628D01*
X190557142Y-85478628D02*
X190938094Y-85478628D01*
X189414285Y-85954819D02*
X189985713Y-85954819D01*
X189699999Y-85954819D02*
X189699999Y-84954819D01*
X189699999Y-84954819D02*
X189795237Y-85097676D01*
X189795237Y-85097676D02*
X189890475Y-85192914D01*
X189890475Y-85192914D02*
X189985713Y-85240533D01*
X186004819Y-54333333D02*
X186004819Y-53857143D01*
X186004819Y-53857143D02*
X185004819Y-53857143D01*
X185100057Y-54619048D02*
X185052438Y-54666667D01*
X185052438Y-54666667D02*
X185004819Y-54761905D01*
X185004819Y-54761905D02*
X185004819Y-55000000D01*
X185004819Y-55000000D02*
X185052438Y-55095238D01*
X185052438Y-55095238D02*
X185100057Y-55142857D01*
X185100057Y-55142857D02*
X185195295Y-55190476D01*
X185195295Y-55190476D02*
X185290533Y-55190476D01*
X185290533Y-55190476D02*
X185433390Y-55142857D01*
X185433390Y-55142857D02*
X186004819Y-54571429D01*
X186004819Y-54571429D02*
X186004819Y-55190476D01*
X189454819Y-74333333D02*
X189454819Y-73857143D01*
X189454819Y-73857143D02*
X188454819Y-73857143D01*
X188454819Y-74571429D02*
X188454819Y-75190476D01*
X188454819Y-75190476D02*
X188835771Y-74857143D01*
X188835771Y-74857143D02*
X188835771Y-75000000D01*
X188835771Y-75000000D02*
X188883390Y-75095238D01*
X188883390Y-75095238D02*
X188931009Y-75142857D01*
X188931009Y-75142857D02*
X189026247Y-75190476D01*
X189026247Y-75190476D02*
X189264342Y-75190476D01*
X189264342Y-75190476D02*
X189359580Y-75142857D01*
X189359580Y-75142857D02*
X189407200Y-75095238D01*
X189407200Y-75095238D02*
X189454819Y-75000000D01*
X189454819Y-75000000D02*
X189454819Y-74714286D01*
X189454819Y-74714286D02*
X189407200Y-74619048D01*
X189407200Y-74619048D02*
X189359580Y-74571429D01*
X172204819Y-79738095D02*
X173014342Y-79738095D01*
X173014342Y-79738095D02*
X173109580Y-79785714D01*
X173109580Y-79785714D02*
X173157200Y-79833333D01*
X173157200Y-79833333D02*
X173204819Y-79928571D01*
X173204819Y-79928571D02*
X173204819Y-80119047D01*
X173204819Y-80119047D02*
X173157200Y-80214285D01*
X173157200Y-80214285D02*
X173109580Y-80261904D01*
X173109580Y-80261904D02*
X173014342Y-80309523D01*
X173014342Y-80309523D02*
X172204819Y-80309523D01*
X172538152Y-81214285D02*
X173204819Y-81214285D01*
X172157200Y-80976190D02*
X172871485Y-80738095D01*
X172871485Y-80738095D02*
X172871485Y-81357142D01*
D11*
X172265000Y-93261252D02*
X172265000Y-92738748D01*
X173735000Y-93261252D02*
X173735000Y-92738748D01*
X187772936Y-70015000D02*
X188227064Y-70015000D01*
X187772936Y-71485000D02*
X188227064Y-71485000D01*
X182238748Y-74265000D02*
X182761252Y-74265000D01*
X182238748Y-75735000D02*
X182761252Y-75735000D01*
X190265000Y-64272936D02*
X190265000Y-64727064D01*
X191735000Y-64272936D02*
X191735000Y-64727064D01*
X183600378Y-80440000D02*
X184399622Y-80440000D01*
X183600378Y-81560000D02*
X184399622Y-81560000D01*
X172090000Y-61788748D02*
X172090000Y-63211252D01*
X173910000Y-61788748D02*
X173910000Y-63211252D01*
X181265000Y-54761252D02*
X181265000Y-54238748D01*
X182735000Y-54761252D02*
X182735000Y-54238748D01*
X186940000Y-89899622D02*
X186940000Y-89100378D01*
X188060000Y-89899622D02*
X188060000Y-89100378D01*
X182238748Y-89265000D02*
X182761252Y-89265000D01*
X182238748Y-90735000D02*
X182761252Y-90735000D01*
X184261252Y-82265000D02*
X183738748Y-82265000D01*
X184261252Y-83735000D02*
X183738748Y-83735000D01*
X190427064Y-86265000D02*
X189972936Y-86265000D01*
X190427064Y-87735000D02*
X189972936Y-87735000D01*
X183440000Y-54100378D02*
X183440000Y-54899622D01*
X184560000Y-54100378D02*
X184560000Y-54899622D01*
X186940000Y-74899622D02*
X186940000Y-74100378D01*
X188060000Y-74899622D02*
X188060000Y-74100378D01*
X173465000Y-79800000D02*
X173465000Y-82000000D01*
X173465000Y-84200000D02*
X173465000Y-82000000D01*
X181535000Y-79800000D02*
X181535000Y-82000000D01*
X181535000Y-84200000D02*
X181535000Y-82000000D01*
X181315000Y-86190000D02*
X180835000Y-86190000D01*
X181075000Y-85860000D01*
X181315000Y-86190000D01*
G36*
X181315000Y-86190000D02*
G01*
X180835000Y-86190000D01*
X181075000Y-85860000D01*
X181315000Y-86190000D01*
G37*
%LPC*%
D12*
X173660000Y-97460000D03*
D13*
X176200000Y-97460000D03*
X178740000Y-97460000D03*
X181280000Y-97460000D03*
X183820000Y-97460000D03*
X186360000Y-97460000D03*
X188900000Y-97460000D03*
X191440000Y-97460000D03*
D12*
X168580000Y-49200000D03*
D13*
X171120000Y-49200000D03*
X173660000Y-49200000D03*
X176200000Y-49200000D03*
X178740000Y-49200000D03*
X181280000Y-49200000D03*
X183820000Y-49200000D03*
X186360000Y-49200000D03*
D12*
X193980000Y-92380000D03*
D13*
X196520000Y-92380000D03*
D14*
X196520000Y-97460000D03*
D12*
X193980000Y-56820000D03*
D13*
X196520000Y-56820000D03*
X193980000Y-54280000D03*
X196520000Y-54280000D03*
X193980000Y-51740000D03*
X196520000Y-51740000D03*
X193980000Y-49200000D03*
X196520000Y-49200000D03*
D15*
X184545000Y-61247500D03*
D16*
X184545000Y-63787500D03*
X182005000Y-61247500D03*
X182005000Y-63787500D03*
X179465000Y-61247500D03*
X179465000Y-63787500D03*
D14*
X190170000Y-49200000D03*
D17*
X173000000Y-92050000D03*
X173000000Y-93950000D03*
D18*
X188912500Y-70750000D03*
X187087500Y-70750000D03*
D19*
X183450000Y-75000000D03*
X181550000Y-75000000D03*
D20*
X191000000Y-65412500D03*
X191000000Y-63587500D03*
D21*
X185062500Y-81000000D03*
X182937500Y-81000000D03*
D22*
X173000000Y-63975000D03*
X173000000Y-61025000D03*
D17*
X182000000Y-53550000D03*
X182000000Y-55450000D03*
D23*
X187500000Y-88437500D03*
X187500000Y-90562500D03*
D19*
X183450000Y-90000000D03*
X181550000Y-90000000D03*
D24*
X183050000Y-83000000D03*
X184950000Y-83000000D03*
D25*
X189287500Y-87000000D03*
X191112500Y-87000000D03*
D26*
X184000000Y-55562500D03*
X184000000Y-53437500D03*
D23*
X187500000Y-73437500D03*
X187500000Y-75562500D03*
D27*
X181075000Y-84862500D03*
X180425000Y-84862500D03*
X179775000Y-84862500D03*
X179125000Y-84862500D03*
X178475000Y-84862500D03*
X177825000Y-84862500D03*
X177175000Y-84862500D03*
X176525000Y-84862500D03*
X175875000Y-84862500D03*
X175225000Y-84862500D03*
X174575000Y-84862500D03*
X173925000Y-84862500D03*
X173925000Y-79137500D03*
X174575000Y-79137500D03*
X175225000Y-79137500D03*
X175875000Y-79137500D03*
X176525000Y-79137500D03*
X177175000Y-79137500D03*
X177825000Y-79137500D03*
X178475000Y-79137500D03*
X179125000Y-79137500D03*
X179775000Y-79137500D03*
X180425000Y-79137500D03*
X181075000Y-79137500D03*
%LPD*%
M02*
