M48
; DRILL file {KiCad 8.0.5} date 2024-09-14T16:10:25+0100
; FORMAT={-:-/ absolute / metric / decimal}
; #@! TF.CreationDate,2024-09-14T16:10:25+01:00
; #@! TF.GenerationSoftware,Kicad,Pcbnew,8.0.5
; #@! TF.FileFunction,Plated,1,4,PTH
FMAT,2
METRIC
; #@! TA.AperFunction,Plated,PTH,ViaDrill
T1C0.400
; #@! TA.AperFunction,Plated,PTH,ViaDrill
T2C0.600
; #@! TA.AperFunction,Plated,PTH,ComponentDrill
T3C1.000
%
G90
G05
T1
X172.0Y-82.5
X173.0Y-71.5
X173.0Y-72.5
X173.0Y-75.5
X173.0Y-86.5
X173.0Y-87.5
X173.0Y-90.5
X173.5Y-67.0
X175.0Y-74.0
X175.0Y-89.0
X177.0Y-74.0
X177.0Y-89.0
X178.0Y-72.5
X178.0Y-87.5
X178.5Y-74.0
X178.5Y-89.0
X179.0Y-54.0
X179.0Y-55.0
X179.0Y-68.0
X179.0Y-83.5
X179.0Y-88.0
X179.5Y-73.0
X181.0Y-73.5
X181.0Y-88.5
X182.0Y-73.5
X182.0Y-88.5
X183.0Y-68.0
X188.0Y-58.0
X188.5Y-59.0
X189.6Y-53.0
X191.0Y-62.5
X193.5Y-87.0
T2
X171.5Y-92.0
X171.5Y-94.0
X172.0Y-84.5
X175.0Y-61.0
X175.0Y-64.0
X180.5Y-52.5
X180.5Y-56.5
X183.5Y-73.5
X183.5Y-88.5
X185.5Y-73.5
X185.5Y-88.5
X186.5Y-68.0
X187.0Y-92.5
X187.5Y-55.5
X188.5Y-68.0
X188.5Y-83.5
X188.5Y-85.0
X196.5Y-74.0
X196.5Y-75.5
X196.5Y-81.0
X196.5Y-84.0
X196.5Y-85.5
T3
X168.58Y-49.2
X171.12Y-49.2
X173.66Y-49.2
X173.66Y-97.46
X176.2Y-49.2
X176.2Y-97.46
X178.74Y-49.2
X178.74Y-97.46
X179.465Y-61.247
X179.465Y-63.787
X181.28Y-49.2
X181.28Y-97.46
X182.005Y-61.247
X182.005Y-63.787
X183.82Y-49.2
X183.82Y-97.46
X184.545Y-61.247
X184.545Y-63.787
X186.36Y-49.2
X186.36Y-97.46
X188.9Y-97.46
X191.44Y-97.46
X193.98Y-49.2
X193.98Y-51.74
X193.98Y-54.28
X193.98Y-56.82
X193.98Y-92.38
X196.52Y-49.2
X196.52Y-51.74
X196.52Y-54.28
X196.52Y-56.82
X196.52Y-92.38
M30
