G04 #@! TF.GenerationSoftware,KiCad,Pcbnew,8.0.5*
G04 #@! TF.CreationDate,2024-09-14T16:10:14+01:00*
G04 #@! TF.ProjectId,DataShield,44617461-5368-4696-956c-642e6b696361,rev?*
G04 #@! TF.SameCoordinates,Original*
G04 #@! TF.FileFunction,Copper,L1,Top*
G04 #@! TF.FilePolarity,Positive*
%FSLAX46Y46*%
G04 Gerber Fmt 4.6, Leading zero omitted, Abs format (unit mm)*
G04 Created by KiCad (PCBNEW 8.0.5) date 2024-09-14 16:10:14*
%MOMM*%
%LPD*%
G01*
G04 APERTURE LIST*
G04 Aperture macros list*
%AMRoundRect*
0 Rectangle with rounded corners*
0 $1 Rounding radius*
0 $2 $3 $4 $5 $6 $7 $8 $9 X,Y pos of 4 corners*
0 Add a 4 corners polygon primitive as box body*
4,1,4,$2,$3,$4,$5,$6,$7,$8,$9,$2,$3,0*
0 Add four circle primitives for the rounded corners*
1,1,$1+$1,$2,$3*
1,1,$1+$1,$4,$5*
1,1,$1+$1,$6,$7*
1,1,$1+$1,$8,$9*
0 Add four rect primitives between the rounded corners*
20,1,$1+$1,$2,$3,$4,$5,0*
20,1,$1+$1,$4,$5,$6,$7,0*
20,1,$1+$1,$6,$7,$8,$9,0*
20,1,$1+$1,$8,$9,$2,$3,0*%
G04 Aperture macros list end*
G04 #@! TA.AperFunction,ComponentPad*
%ADD10R,1.700000X1.700000*%
G04 #@! TD*
G04 #@! TA.AperFunction,ComponentPad*
%ADD11O,1.700000X1.700000*%
G04 #@! TD*
G04 #@! TA.AperFunction,SMDPad,CuDef*
%ADD12R,2.000000X0.610000*%
G04 #@! TD*
G04 #@! TA.AperFunction,SMDPad,CuDef*
%ADD13R,3.600000X2.680000*%
G04 #@! TD*
G04 #@! TA.AperFunction,SMDPad,CuDef*
%ADD14RoundRect,0.250000X0.475000X-0.250000X0.475000X0.250000X-0.475000X0.250000X-0.475000X-0.250000X0*%
G04 #@! TD*
G04 #@! TA.AperFunction,SMDPad,CuDef*
%ADD15RoundRect,0.250000X-0.475000X0.250000X-0.475000X-0.250000X0.475000X-0.250000X0.475000X0.250000X0*%
G04 #@! TD*
G04 #@! TA.AperFunction,SMDPad,CuDef*
%ADD16RoundRect,0.150000X-0.825000X-0.150000X0.825000X-0.150000X0.825000X0.150000X-0.825000X0.150000X0*%
G04 #@! TD*
G04 #@! TA.AperFunction,ComponentPad*
%ADD17RoundRect,0.250000X-0.600000X0.600000X-0.600000X-0.600000X0.600000X-0.600000X0.600000X0.600000X0*%
G04 #@! TD*
G04 #@! TA.AperFunction,ComponentPad*
%ADD18C,1.700000*%
G04 #@! TD*
G04 #@! TA.AperFunction,SMDPad,CuDef*
%ADD19R,0.450000X1.750000*%
G04 #@! TD*
G04 #@! TA.AperFunction,ViaPad*
%ADD20C,0.800000*%
G04 #@! TD*
G04 #@! TA.AperFunction,ViaPad*
%ADD21C,1.200000*%
G04 #@! TD*
G04 #@! TA.AperFunction,Conductor*
%ADD22C,0.400000*%
G04 #@! TD*
G04 #@! TA.AperFunction,Conductor*
%ADD23C,0.300000*%
G04 #@! TD*
G04 APERTURE END LIST*
D10*
X173660000Y-97460000D03*
D11*
X176200000Y-97460000D03*
X178740000Y-97460000D03*
X181280000Y-97460000D03*
X183820000Y-97460000D03*
X186360000Y-97460000D03*
X188900000Y-97460000D03*
X191440000Y-97460000D03*
D10*
X168580000Y-49200000D03*
D11*
X171120000Y-49200000D03*
X173660000Y-49200000D03*
X176200000Y-49200000D03*
X178740000Y-49200000D03*
X181280000Y-49200000D03*
X183820000Y-49200000D03*
X186360000Y-49200000D03*
D12*
X194110000Y-85000000D03*
X194110000Y-84000000D03*
X194110000Y-83000000D03*
X194110000Y-82000000D03*
X194110000Y-81000000D03*
X194110000Y-80000000D03*
X194110000Y-79000000D03*
X194110000Y-78000000D03*
X194110000Y-77000000D03*
X194110000Y-76000000D03*
X194110000Y-75000000D03*
X194110000Y-74000000D03*
X194110000Y-73000000D03*
X194110000Y-72000000D03*
X194110000Y-71000000D03*
X194110000Y-70000000D03*
X194110000Y-69000000D03*
X194110000Y-68000000D03*
X194110000Y-67000000D03*
X194110000Y-66000000D03*
D13*
X196910000Y-87990000D03*
X196910000Y-63010000D03*
D10*
X193980000Y-92380000D03*
D11*
X196520000Y-92380000D03*
D10*
X193980000Y-56820000D03*
D11*
X196520000Y-56820000D03*
X193980000Y-54280000D03*
X196520000Y-54280000D03*
X193980000Y-51740000D03*
X196520000Y-51740000D03*
X193980000Y-49200000D03*
X196520000Y-49200000D03*
D14*
X186500000Y-71450000D03*
X186500000Y-69550000D03*
D15*
X184250000Y-84550000D03*
X184250000Y-86450000D03*
D16*
X177525000Y-52595000D03*
X177525000Y-53865000D03*
X177525000Y-55135000D03*
X177525000Y-56405000D03*
X182475000Y-56405000D03*
X182475000Y-55135000D03*
X182475000Y-53865000D03*
X182475000Y-52595000D03*
D15*
X184250000Y-75550000D03*
X184250000Y-77450000D03*
D14*
X187000000Y-87200000D03*
X187000000Y-85300000D03*
D15*
X184250000Y-69550000D03*
X184250000Y-71450000D03*
D17*
X184545000Y-61247500D03*
D18*
X184545000Y-63787500D03*
X182005000Y-61247500D03*
X182005000Y-63787500D03*
X179465000Y-61247500D03*
X179465000Y-63787500D03*
D19*
X173275000Y-77100000D03*
X173925000Y-77100000D03*
X174575000Y-77100000D03*
X175225000Y-77100000D03*
X175875000Y-77100000D03*
X176525000Y-77100000D03*
X177175000Y-77100000D03*
X177825000Y-77100000D03*
X178475000Y-77100000D03*
X179125000Y-77100000D03*
X179775000Y-77100000D03*
X180425000Y-77100000D03*
X181075000Y-77100000D03*
X181725000Y-77100000D03*
X181725000Y-69900000D03*
X181075000Y-69900000D03*
X180425000Y-69900000D03*
X179775000Y-69900000D03*
X179125000Y-69900000D03*
X178475000Y-69900000D03*
X177825000Y-69900000D03*
X177175000Y-69900000D03*
X176525000Y-69900000D03*
X175875000Y-69900000D03*
X175225000Y-69900000D03*
X174575000Y-69900000D03*
X173925000Y-69900000D03*
X173275000Y-69900000D03*
D14*
X187000000Y-91200000D03*
X187000000Y-89300000D03*
D15*
X184250000Y-90550000D03*
X184250000Y-92450000D03*
D19*
X173275000Y-92100000D03*
X173925000Y-92100000D03*
X174575000Y-92100000D03*
X175225000Y-92100000D03*
X175875000Y-92100000D03*
X176525000Y-92100000D03*
X177175000Y-92100000D03*
X177825000Y-92100000D03*
X178475000Y-92100000D03*
X179125000Y-92100000D03*
X179775000Y-92100000D03*
X180425000Y-92100000D03*
X181075000Y-92100000D03*
X181725000Y-92100000D03*
X181725000Y-84900000D03*
X181075000Y-84900000D03*
X180425000Y-84900000D03*
X179775000Y-84900000D03*
X179125000Y-84900000D03*
X178475000Y-84900000D03*
X177825000Y-84900000D03*
X177175000Y-84900000D03*
X176525000Y-84900000D03*
X175875000Y-84900000D03*
X175225000Y-84900000D03*
X174575000Y-84900000D03*
X173925000Y-84900000D03*
X173275000Y-84900000D03*
D15*
X188750000Y-69550000D03*
X188750000Y-71450000D03*
D20*
X182000000Y-73500000D03*
D21*
X188500000Y-85000000D03*
X171500000Y-94000000D03*
X186500000Y-68000000D03*
X180500000Y-56500000D03*
X188500000Y-83500000D03*
D20*
X181000000Y-88500000D03*
D21*
X196500000Y-74000000D03*
X175000000Y-61000000D03*
X196500000Y-85500000D03*
X196500000Y-84000000D03*
D20*
X181000000Y-73500000D03*
D21*
X172000000Y-84500000D03*
D20*
X182000000Y-88500000D03*
D21*
X196500000Y-75500000D03*
D20*
X188500000Y-59000000D03*
X179000000Y-54000000D03*
X179000000Y-55000000D03*
X188000000Y-58000000D03*
D21*
X187500000Y-55500000D03*
X185500000Y-88500000D03*
X175000000Y-64000000D03*
D20*
X193500000Y-87000000D03*
D21*
X196500000Y-81000000D03*
D20*
X183000000Y-68000000D03*
X191000000Y-62500000D03*
D21*
X187000000Y-92500000D03*
X171500000Y-92000000D03*
X188500000Y-68000000D03*
X185500000Y-73500000D03*
D20*
X172000000Y-82500000D03*
X179000000Y-83500000D03*
X173500000Y-67000000D03*
X179000000Y-68000000D03*
X189600000Y-53000000D03*
D21*
X180500000Y-52500000D03*
X183500000Y-73500000D03*
X183500000Y-88500000D03*
D20*
X179000000Y-88000000D03*
X177000000Y-89000000D03*
X173000000Y-86500000D03*
X173000000Y-90500000D03*
X178000000Y-87500000D03*
X178500000Y-89000000D03*
X175000000Y-89000000D03*
X173000000Y-87500000D03*
X178500000Y-74000000D03*
X173000000Y-72500000D03*
X179500000Y-73000000D03*
X177000000Y-74000000D03*
X178000000Y-72500000D03*
X175000000Y-74000000D03*
X173000000Y-75500000D03*
X173000000Y-71500000D03*
D22*
X185212500Y-63787500D02*
X184545000Y-63787500D01*
X186400000Y-62600000D02*
X185212500Y-63787500D01*
X183665000Y-53865000D02*
X186400000Y-56600000D01*
X186400000Y-56600000D02*
X186400000Y-62600000D01*
X182475000Y-53865000D02*
X183665000Y-53865000D01*
X184545000Y-59210000D02*
X184545000Y-59400000D01*
X184545000Y-56230001D02*
X184545000Y-56600000D01*
X184893000Y-57818000D02*
X182929232Y-57818000D01*
X185410774Y-57818000D02*
X184893000Y-57818000D01*
X184545000Y-59400000D02*
X184545000Y-61247500D01*
X185758774Y-57296000D02*
X185758774Y-57470000D01*
X184545000Y-59036000D02*
X184545000Y-59210000D01*
X184893000Y-56948000D02*
X185410774Y-56948000D01*
X182581232Y-58166000D02*
X182581232Y-58340000D01*
X182929232Y-58688000D02*
X184197000Y-58688000D01*
X182475000Y-55135000D02*
X183449999Y-55135000D01*
X183449999Y-55135000D02*
X184545000Y-56230001D01*
X185410774Y-56948000D02*
G75*
G02*
X185758800Y-57296000I26J-348000D01*
G01*
X184197000Y-58688000D02*
G75*
G02*
X184545000Y-59036000I0J-348000D01*
G01*
X184545000Y-56600000D02*
G75*
G03*
X184893000Y-56948000I348000J0D01*
G01*
X182929232Y-57818000D02*
G75*
G03*
X182581200Y-58166000I-32J-348000D01*
G01*
X185758774Y-57470000D02*
G75*
G02*
X185410774Y-57817974I-347974J0D01*
G01*
X182581232Y-58340000D02*
G75*
G03*
X182929232Y-58687968I347968J0D01*
G01*
X188200000Y-85300000D02*
X188500000Y-85000000D01*
X180657579Y-73500000D02*
X182000000Y-73500000D01*
X179138579Y-77044000D02*
X179125000Y-77030421D01*
X194110000Y-84000000D02*
X196500000Y-84000000D01*
X179125000Y-90075000D02*
X180700000Y-88500000D01*
X186500000Y-68000000D02*
X186500000Y-69550000D01*
X194110000Y-74000000D02*
X196500000Y-74000000D01*
X179125000Y-77030421D02*
X179125000Y-75032579D01*
X187000000Y-85300000D02*
X188200000Y-85300000D01*
X194110000Y-75000000D02*
X196000000Y-75000000D01*
X179125000Y-92100000D02*
X179125000Y-90075000D01*
X180700000Y-88500000D02*
X182000000Y-88500000D01*
X182475000Y-56405000D02*
X180595000Y-56405000D01*
X196000000Y-85000000D02*
X196500000Y-85500000D01*
X180595000Y-56405000D02*
X180500000Y-56500000D01*
X179125000Y-75032579D02*
X180657579Y-73500000D01*
X194110000Y-85000000D02*
X196000000Y-85000000D01*
X196000000Y-75000000D02*
X196500000Y-75500000D01*
D23*
X193220000Y-54280000D02*
X188500000Y-59000000D01*
D22*
X177525000Y-53865000D02*
X178865000Y-53865000D01*
X178865000Y-53865000D02*
X179000000Y-54000000D01*
D23*
X193980000Y-54280000D02*
X193220000Y-54280000D01*
X192500000Y-52500000D02*
X192500000Y-53500000D01*
X193260000Y-51740000D02*
X192500000Y-52500000D01*
D22*
X178865000Y-55135000D02*
X179000000Y-55000000D01*
X177525000Y-55135000D02*
X178865000Y-55135000D01*
D23*
X192500000Y-53500000D02*
X188000000Y-58000000D01*
X193980000Y-51740000D02*
X193260000Y-51740000D01*
D22*
X187000000Y-92500000D02*
X187000000Y-91200000D01*
X188500000Y-68000000D02*
X188500000Y-69300000D01*
X188500000Y-69300000D02*
X188750000Y-69550000D01*
D23*
X175500000Y-89750000D02*
X176525000Y-90775000D01*
X170400000Y-86400000D02*
X173750000Y-89750000D01*
X168580000Y-49200000D02*
X168580000Y-51080000D01*
X170400000Y-52900000D02*
X170400000Y-86400000D01*
X168580000Y-51080000D02*
X170400000Y-52900000D01*
X173750000Y-89750000D02*
X175500000Y-89750000D01*
X176525000Y-90775000D02*
X176525000Y-92100000D01*
X179125000Y-83625000D02*
X179125000Y-84900000D01*
X179000000Y-83500000D02*
X179125000Y-83625000D01*
X171120000Y-52120000D02*
X171200000Y-52200000D01*
X171120000Y-49200000D02*
X171120000Y-52120000D01*
X171200000Y-52200000D02*
X171200000Y-81700000D01*
X171200000Y-81700000D02*
X172000000Y-82500000D01*
X176538579Y-75719000D02*
X176538579Y-77044000D01*
X173660000Y-49200000D02*
X173660000Y-51340000D01*
X175619579Y-74800000D02*
X176538579Y-75719000D01*
X172000000Y-73200000D02*
X173600000Y-74800000D01*
X173600000Y-74800000D02*
X175619579Y-74800000D01*
X172000000Y-53000000D02*
X172000000Y-73200000D01*
X173660000Y-51340000D02*
X172000000Y-53000000D01*
X176200000Y-50300000D02*
X176200000Y-49200000D01*
X179000000Y-68000000D02*
X179125000Y-68125000D01*
X173500000Y-67000000D02*
X172800000Y-66300000D01*
X172800000Y-53700000D02*
X176200000Y-50300000D01*
X179125000Y-68125000D02*
X179125000Y-69900000D01*
X172800000Y-66300000D02*
X172800000Y-53700000D01*
X178740000Y-49200000D02*
X178740000Y-49260000D01*
X175000000Y-55500000D02*
X175905000Y-56405000D01*
X178740000Y-49260000D02*
X175000000Y-53000000D01*
X175905000Y-56405000D02*
X177525000Y-56405000D01*
X175000000Y-53000000D02*
X175000000Y-55500000D01*
X181280000Y-49200000D02*
X177885000Y-52595000D01*
X177885000Y-52595000D02*
X177525000Y-52595000D01*
D22*
X189600000Y-53000000D02*
X187620000Y-53000000D01*
X187620000Y-53000000D02*
X183820000Y-49200000D01*
X182300000Y-92100000D02*
X181725000Y-92100000D01*
X182650000Y-92450000D02*
X182300000Y-92100000D01*
X184250000Y-92450000D02*
X182650000Y-92450000D01*
X180425000Y-90775000D02*
X180425000Y-92100000D01*
X184250000Y-90550000D02*
X183900000Y-90200000D01*
X181000000Y-90200000D02*
X180425000Y-90775000D01*
X183900000Y-90200000D02*
X181000000Y-90200000D01*
X181300736Y-87500000D02*
X180425000Y-86624264D01*
X180425000Y-86624264D02*
X180425000Y-84900000D01*
X187000000Y-87200000D02*
X185800000Y-87200000D01*
X185800000Y-87200000D02*
X185500000Y-87500000D01*
X185500000Y-87500000D02*
X181300736Y-87500000D01*
X182075000Y-84550000D02*
X181725000Y-84900000D01*
X184250000Y-84550000D02*
X182075000Y-84550000D01*
X181500000Y-86450000D02*
X181075000Y-86025000D01*
X184250000Y-86450000D02*
X181500000Y-86450000D01*
X181075000Y-86025000D02*
X181075000Y-84900000D01*
X187000000Y-89300000D02*
X186100000Y-89300000D01*
X185201166Y-91500000D02*
X183100000Y-91500000D01*
X182400000Y-90800000D02*
X181248528Y-90800000D01*
X181248528Y-90800000D02*
X181075000Y-90973528D01*
X185800000Y-89600000D02*
X185800000Y-90901166D01*
X186100000Y-89300000D02*
X185800000Y-89600000D01*
X183100000Y-91500000D02*
X182400000Y-90800000D01*
X181075000Y-90973528D02*
X181075000Y-92100000D01*
X185800000Y-90901166D02*
X185201166Y-91500000D01*
X184250000Y-77450000D02*
X182650000Y-77450000D01*
X182650000Y-77450000D02*
X182300000Y-77100000D01*
X182300000Y-77100000D02*
X181725000Y-77100000D01*
X181013579Y-75144000D02*
X180425000Y-75732579D01*
X183844000Y-75144000D02*
X184250000Y-75550000D01*
X180425000Y-75732579D02*
X180425000Y-77100000D01*
X181013579Y-75144000D02*
X183844000Y-75144000D01*
X185450000Y-72500000D02*
X181100000Y-72500000D01*
X186500000Y-71450000D02*
X185450000Y-72500000D01*
X180425000Y-71825000D02*
X180425000Y-69900000D01*
X181100000Y-72500000D02*
X180425000Y-71825000D01*
X181375000Y-71450000D02*
X181075000Y-71150000D01*
X181075000Y-71150000D02*
X181075000Y-69900000D01*
X184250000Y-71450000D02*
X181375000Y-71450000D01*
X184250000Y-69550000D02*
X182075000Y-69550000D01*
X182075000Y-69550000D02*
X181725000Y-69900000D01*
X181262107Y-75744000D02*
X182413579Y-75744000D01*
X185300000Y-76500000D02*
X188750000Y-73050000D01*
X181075000Y-77100000D02*
X181075000Y-75931107D01*
X183169579Y-76500000D02*
X185300000Y-76500000D01*
X181075000Y-75931107D02*
X181262107Y-75744000D01*
X182413579Y-75744000D02*
X183169579Y-76500000D01*
X188750000Y-73050000D02*
X188750000Y-71450000D01*
D23*
X185200000Y-79400000D02*
X176200000Y-79400000D01*
X190600000Y-74000000D02*
X185200000Y-79400000D01*
X192792894Y-70000000D02*
X190600000Y-72192894D01*
X176200000Y-79400000D02*
X175225000Y-78425000D01*
X194110000Y-70000000D02*
X192792894Y-70000000D01*
X175225000Y-78425000D02*
X175225000Y-77100000D01*
X190600000Y-72192894D02*
X190600000Y-74000000D01*
X175050000Y-95400000D02*
X190000000Y-95400000D01*
X192800000Y-82000000D02*
X194110000Y-82000000D01*
X173925000Y-94275000D02*
X175050000Y-95400000D01*
X191600000Y-83200000D02*
X192800000Y-82000000D01*
X191600000Y-93800000D02*
X191600000Y-83200000D01*
X190000000Y-95400000D02*
X191600000Y-93800000D01*
X173925000Y-92100000D02*
X173925000Y-94275000D01*
D22*
X180700000Y-89500000D02*
X179775000Y-90425000D01*
X180595000Y-52595000D02*
X180500000Y-52500000D01*
X180713579Y-74444000D02*
X182556000Y-74444000D01*
X179775000Y-90425000D02*
X179775000Y-92100000D01*
X182500000Y-89500000D02*
X180700000Y-89500000D01*
X183500000Y-88500000D02*
X182500000Y-89500000D01*
X179788579Y-77044000D02*
X179788579Y-75369000D01*
X182475000Y-52595000D02*
X180595000Y-52595000D01*
X179788579Y-75369000D02*
X180713579Y-74444000D01*
X182556000Y-74444000D02*
X183500000Y-73500000D01*
D23*
X177675000Y-82500000D02*
X187100000Y-82500000D01*
X187100000Y-82500000D02*
X192600000Y-77000000D01*
X176525000Y-83650000D02*
X177675000Y-82500000D01*
X192600000Y-77000000D02*
X194110000Y-77000000D01*
X176525000Y-84900000D02*
X176525000Y-83650000D01*
X186000000Y-80600000D02*
X175500000Y-80600000D01*
X175500000Y-80600000D02*
X173925000Y-79025000D01*
X173925000Y-79025000D02*
X173925000Y-77100000D01*
X191800000Y-74800000D02*
X186000000Y-80600000D01*
X194110000Y-72000000D02*
X192810000Y-72000000D01*
X192810000Y-72000000D02*
X191800000Y-73010000D01*
X191800000Y-73010000D02*
X191800000Y-74800000D01*
X179775000Y-68225000D02*
X179775000Y-69900000D01*
X190600000Y-66600000D02*
X181400000Y-66600000D01*
X192000000Y-68000000D02*
X190600000Y-66600000D01*
X181400000Y-66600000D02*
X179775000Y-68225000D01*
X194110000Y-68000000D02*
X192000000Y-68000000D01*
X175225000Y-92100000D02*
X175225000Y-93575000D01*
X175850000Y-94200000D02*
X189200000Y-94200000D01*
X192792893Y-80000000D02*
X194110000Y-80000000D01*
X189200000Y-94200000D02*
X190400000Y-93000000D01*
X190400000Y-93000000D02*
X190400000Y-82392893D01*
X175225000Y-93575000D02*
X175850000Y-94200000D01*
X190400000Y-82392893D02*
X192792893Y-80000000D01*
X192200000Y-83600000D02*
X192800000Y-83000000D01*
X173275000Y-94625000D02*
X174650000Y-96000000D01*
X190400000Y-96000000D02*
X192200000Y-94200000D01*
X173275000Y-92100000D02*
X173275000Y-94625000D01*
X192200000Y-94200000D02*
X192200000Y-83600000D01*
X174650000Y-96000000D02*
X190400000Y-96000000D01*
X192800000Y-83000000D02*
X194110000Y-83000000D01*
X192800000Y-79000000D02*
X194110000Y-79000000D01*
X178475000Y-93275000D02*
X178800000Y-93600000D01*
X189800000Y-92600000D02*
X189800000Y-82000000D01*
X178475000Y-92100000D02*
X178475000Y-93275000D01*
X178800000Y-93600000D02*
X188800000Y-93600000D01*
X188800000Y-93600000D02*
X189800000Y-92600000D01*
X189800000Y-82000000D02*
X192800000Y-79000000D01*
X191200000Y-66000000D02*
X178800000Y-66000000D01*
X192200000Y-67000000D02*
X191200000Y-66000000D01*
X194110000Y-67000000D02*
X192200000Y-67000000D01*
X176525000Y-68275000D02*
X176525000Y-69900000D01*
X178800000Y-66000000D02*
X176525000Y-68275000D01*
X185600000Y-80000000D02*
X191200000Y-74400000D01*
X175800000Y-80000000D02*
X185600000Y-80000000D01*
X192800000Y-71000000D02*
X194110000Y-71000000D01*
X191200000Y-74400000D02*
X191200000Y-72600000D01*
X174575000Y-77100000D02*
X174575000Y-78775000D01*
X174575000Y-78775000D02*
X175800000Y-80000000D01*
X191200000Y-72600000D02*
X192800000Y-71000000D01*
X179000000Y-78800000D02*
X178475000Y-78275000D01*
X184800000Y-78800000D02*
X179000000Y-78800000D01*
X178475000Y-78275000D02*
X178475000Y-77100000D01*
X192810000Y-69000000D02*
X190000000Y-71810000D01*
X190000000Y-71810000D02*
X190000000Y-73600000D01*
X194110000Y-69000000D02*
X192810000Y-69000000D01*
X190000000Y-73600000D02*
X184800000Y-78800000D01*
X180250000Y-83400000D02*
X187200000Y-83400000D01*
X187200000Y-83400000D02*
X192600000Y-78000000D01*
X179775000Y-83875000D02*
X180250000Y-83400000D01*
X192600000Y-78000000D02*
X194110000Y-78000000D01*
X179775000Y-84900000D02*
X179775000Y-83875000D01*
X191000000Y-82800000D02*
X192800000Y-81000000D01*
X174575000Y-92100000D02*
X174575000Y-93925000D01*
X175450000Y-94800000D02*
X189600000Y-94800000D01*
X189600000Y-94800000D02*
X191000000Y-93400000D01*
X192800000Y-81000000D02*
X194110000Y-81000000D01*
X191000000Y-93400000D02*
X191000000Y-82800000D01*
X174575000Y-93925000D02*
X175450000Y-94800000D01*
X192400000Y-73410000D02*
X192400000Y-75200000D01*
X194110000Y-73000000D02*
X192810000Y-73000000D01*
X173275000Y-79275000D02*
X173275000Y-77100000D01*
X192400000Y-75200000D02*
X186400000Y-81200000D01*
X186400000Y-81200000D02*
X175200000Y-81200000D01*
X192810000Y-73000000D02*
X192400000Y-73410000D01*
X175200000Y-81200000D02*
X173275000Y-79275000D01*
X173925000Y-83725000D02*
X175850000Y-81800000D01*
X175850000Y-81800000D02*
X186800000Y-81800000D01*
X186800000Y-81800000D02*
X192600000Y-76000000D01*
X173925000Y-84900000D02*
X173925000Y-83725000D01*
X192600000Y-76000000D02*
X194110000Y-76000000D01*
X173925000Y-68275000D02*
X173925000Y-69900000D01*
X176800000Y-65400000D02*
X173925000Y-68275000D01*
X191750000Y-65400000D02*
X176800000Y-65400000D01*
X194110000Y-66000000D02*
X192350000Y-66000000D01*
X192350000Y-66000000D02*
X191750000Y-65400000D01*
X179000000Y-87439339D02*
X178475000Y-86914339D01*
X178475000Y-86914339D02*
X178475000Y-84900000D01*
X179000000Y-88000000D02*
X179000000Y-87439339D01*
X177825000Y-89825000D02*
X177825000Y-92100000D01*
X177000000Y-89000000D02*
X177825000Y-89825000D01*
X174575000Y-86050000D02*
X174575000Y-84900000D01*
X174125000Y-86500000D02*
X174575000Y-86050000D01*
X173000000Y-86500000D02*
X174125000Y-86500000D01*
X173000000Y-90500000D02*
X175425000Y-90500000D01*
X175875000Y-90950000D02*
X175875000Y-92100000D01*
X175425000Y-90500000D02*
X175875000Y-90950000D01*
X178000000Y-87500000D02*
X177175000Y-86675000D01*
X177175000Y-86675000D02*
X177175000Y-84900000D01*
X178500000Y-89000000D02*
X178219669Y-89000000D01*
X178219669Y-89000000D02*
X175875000Y-86655331D01*
X175875000Y-86655331D02*
X175875000Y-84900000D01*
X177175000Y-90446447D02*
X177175000Y-92100000D01*
X175000000Y-89000000D02*
X175728553Y-89000000D01*
X175728553Y-89000000D02*
X177175000Y-90446447D01*
X173000000Y-87500000D02*
X174060661Y-87500000D01*
X175225000Y-86335661D02*
X175225000Y-84900000D01*
X174060661Y-87500000D02*
X175225000Y-86335661D01*
X175875000Y-71585752D02*
X175875000Y-69857579D01*
X178500000Y-74000000D02*
X178289248Y-74000000D01*
X175875000Y-69857579D02*
X175888579Y-69844000D01*
X178289248Y-74000000D02*
X175875000Y-71585752D01*
X173000000Y-72500000D02*
X174018240Y-72500000D01*
X174018240Y-72500000D02*
X175225000Y-71293240D01*
X175225000Y-71293240D02*
X175225000Y-69900000D01*
X179500000Y-72784880D02*
X178475000Y-71759880D01*
X179500000Y-73000000D02*
X179500000Y-72784880D01*
X178475000Y-71759880D02*
X178475000Y-69900000D01*
X177000000Y-74000000D02*
X177825000Y-74825000D01*
X177825000Y-74825000D02*
X177825000Y-77100000D01*
X178000000Y-72500000D02*
X177175000Y-71675000D01*
X177175000Y-71675000D02*
X177175000Y-69900000D01*
X175000000Y-74000000D02*
X175798132Y-74000000D01*
X175798132Y-74000000D02*
X177175000Y-75376868D01*
X177175000Y-75376868D02*
X177175000Y-77100000D01*
X175875000Y-75880421D02*
X175875000Y-77100000D01*
X173000000Y-75500000D02*
X175494579Y-75500000D01*
X175494579Y-75500000D02*
X175875000Y-75880421D01*
X174082579Y-71500000D02*
X174575000Y-71007579D01*
X174575000Y-71007579D02*
X174575000Y-69900000D01*
X173000000Y-71500000D02*
X174082579Y-71500000D01*
G04 #@! TA.AperFunction,Conductor*
G36*
X185831408Y-62899885D02*
G01*
X186099300Y-63167777D01*
X186102727Y-63176050D01*
X186099690Y-63183914D01*
X185849650Y-63459371D01*
X185849643Y-63459380D01*
X185690085Y-63681361D01*
X185690067Y-63681387D01*
X185563338Y-63882519D01*
X185562939Y-63883111D01*
X185403964Y-64104282D01*
X185403127Y-64105317D01*
X185154284Y-64379459D01*
X185146186Y-64383281D01*
X185137757Y-64380258D01*
X185137358Y-64379878D01*
X184547734Y-63791639D01*
X184544297Y-63783370D01*
X184544297Y-63783346D01*
X184544809Y-63167777D01*
X184544989Y-62950618D01*
X184548423Y-62942349D01*
X184556699Y-62938929D01*
X184558018Y-62939006D01*
X184879414Y-62976188D01*
X184881316Y-62976571D01*
X185141487Y-63052117D01*
X185362830Y-63104064D01*
X185510535Y-63081641D01*
X185578935Y-63071259D01*
X185578935Y-63071258D01*
X185578939Y-63071258D01*
X185816257Y-62898694D01*
X185824961Y-62896601D01*
X185831408Y-62899885D01*
G37*
G04 #@! TD.AperFunction*
G04 #@! TA.AperFunction,Conductor*
G36*
X183410309Y-53611303D02*
G01*
X183498298Y-53656122D01*
X183498331Y-53656138D01*
X183523531Y-53667331D01*
X183590375Y-53697022D01*
X183682425Y-53731909D01*
X183774475Y-53760796D01*
X183774483Y-53760798D01*
X183774496Y-53760802D01*
X183822748Y-53772798D01*
X183846441Y-53778689D01*
X183853643Y-53784010D01*
X183854972Y-53792866D01*
X183851891Y-53798316D01*
X183586546Y-54063661D01*
X183579662Y-54067005D01*
X183538433Y-54071934D01*
X183493177Y-54083344D01*
X183493168Y-54083347D01*
X183447915Y-54100759D01*
X183447911Y-54100760D01*
X183402658Y-54124170D01*
X183362099Y-54150529D01*
X183353294Y-54152164D01*
X183352081Y-54151838D01*
X182511304Y-53876417D01*
X182504508Y-53870585D01*
X182503827Y-53861656D01*
X182509659Y-53854860D01*
X182511858Y-53854013D01*
X182715386Y-53798316D01*
X183401912Y-53610443D01*
X183410309Y-53611303D01*
G37*
G04 #@! TD.AperFunction*
G04 #@! TA.AperFunction,Conductor*
G36*
X184745802Y-59550927D02*
G01*
X184748143Y-59554276D01*
X184871196Y-59819537D01*
X184997386Y-60055977D01*
X184997387Y-60055978D01*
X185123582Y-60256844D01*
X185249776Y-60422128D01*
X185347045Y-60522100D01*
X185367183Y-60542798D01*
X185370496Y-60551117D01*
X185366956Y-60559343D01*
X185366314Y-60559923D01*
X184552517Y-61242197D01*
X184543975Y-61244886D01*
X184537483Y-61242197D01*
X183723685Y-60559923D01*
X183719547Y-60551982D01*
X183722236Y-60543440D01*
X183722806Y-60542808D01*
X183840223Y-60422128D01*
X183966417Y-60256844D01*
X184092612Y-60055978D01*
X184218806Y-59819530D01*
X184341857Y-59554276D01*
X184348448Y-59548214D01*
X184352471Y-59547500D01*
X184737529Y-59547500D01*
X184745802Y-59550927D01*
G37*
G04 #@! TD.AperFunction*
G04 #@! TA.AperFunction,Conductor*
G36*
X183453807Y-55007158D02*
G01*
X183520691Y-55056604D01*
X183520705Y-55056613D01*
X183520710Y-55056617D01*
X183591421Y-55102890D01*
X183662131Y-55143164D01*
X183732842Y-55177437D01*
X183787075Y-55199122D01*
X183793484Y-55205376D01*
X183793595Y-55214330D01*
X183791004Y-55218259D01*
X183524662Y-55484601D01*
X183516389Y-55488028D01*
X183515153Y-55487963D01*
X183306852Y-55465839D01*
X183093057Y-55449131D01*
X182879235Y-55438420D01*
X182665414Y-55433709D01*
X182464269Y-55434923D01*
X182455975Y-55431546D01*
X182452498Y-55423294D01*
X182452531Y-55422342D01*
X182467949Y-55218259D01*
X182473578Y-55143754D01*
X182477618Y-55135765D01*
X182483698Y-55133040D01*
X183445309Y-55004968D01*
X183453807Y-55007158D01*
G37*
G04 #@! TD.AperFunction*
G04 #@! TA.AperFunction,Conductor*
G36*
X196274875Y-83456496D02*
G01*
X196275132Y-83457071D01*
X196499130Y-83995506D01*
X196499144Y-84004461D01*
X196499130Y-84004494D01*
X196275132Y-84542928D01*
X196268791Y-84549250D01*
X196259836Y-84549236D01*
X196259269Y-84548982D01*
X196036256Y-84441789D01*
X196035376Y-84441317D01*
X195871418Y-84344212D01*
X195727280Y-84267795D01*
X195683823Y-84255314D01*
X195553458Y-84217874D01*
X195310877Y-84200767D01*
X195302865Y-84196767D01*
X195300000Y-84189096D01*
X195300000Y-83810903D01*
X195303427Y-83802630D01*
X195310874Y-83799233D01*
X195553455Y-83782125D01*
X195553458Y-83782124D01*
X195553459Y-83782124D01*
X195571466Y-83776952D01*
X195727280Y-83732204D01*
X195871418Y-83655787D01*
X196035393Y-83558669D01*
X196036238Y-83558217D01*
X196259263Y-83451019D01*
X196268203Y-83450524D01*
X196274875Y-83456496D01*
G37*
G04 #@! TD.AperFunction*
G04 #@! TA.AperFunction,Conductor*
G36*
X187031632Y-68220168D02*
G01*
X187042927Y-68224867D01*
X187049249Y-68231208D01*
X187049235Y-68240163D01*
X187048978Y-68240738D01*
X186941792Y-68463736D01*
X186941314Y-68464629D01*
X186844221Y-68628565D01*
X186844200Y-68628603D01*
X186767797Y-68772713D01*
X186767795Y-68772718D01*
X186717874Y-68946539D01*
X186717874Y-68946542D01*
X186700767Y-69189123D01*
X186696767Y-69197135D01*
X186689096Y-69200000D01*
X186310904Y-69200000D01*
X186302631Y-69196573D01*
X186299233Y-69189123D01*
X186297431Y-69163578D01*
X186282125Y-68946544D01*
X186232204Y-68772718D01*
X186155787Y-68628581D01*
X186058675Y-68464614D01*
X186058213Y-68463751D01*
X185951019Y-68240736D01*
X185950524Y-68231796D01*
X185956496Y-68225124D01*
X185957044Y-68224878D01*
X186495507Y-68000868D01*
X186504458Y-68000855D01*
X187031632Y-68220168D01*
G37*
G04 #@! TD.AperFunction*
G04 #@! TA.AperFunction,Conductor*
G36*
X196274875Y-73456496D02*
G01*
X196275132Y-73457071D01*
X196499130Y-73995506D01*
X196499144Y-74004461D01*
X196499130Y-74004494D01*
X196275132Y-74542928D01*
X196268791Y-74549250D01*
X196259836Y-74549236D01*
X196259269Y-74548982D01*
X196036256Y-74441789D01*
X196035376Y-74441317D01*
X195871418Y-74344212D01*
X195727280Y-74267795D01*
X195683823Y-74255314D01*
X195553458Y-74217874D01*
X195310877Y-74200767D01*
X195302865Y-74196767D01*
X195300000Y-74189096D01*
X195300000Y-73810903D01*
X195303427Y-73802630D01*
X195310874Y-73799233D01*
X195553455Y-73782125D01*
X195553458Y-73782124D01*
X195553459Y-73782124D01*
X195571466Y-73776952D01*
X195727280Y-73732204D01*
X195871418Y-73655787D01*
X196035393Y-73558669D01*
X196036238Y-73558217D01*
X196259263Y-73451019D01*
X196268203Y-73450524D01*
X196274875Y-73456496D01*
G37*
G04 #@! TD.AperFunction*
G04 #@! TA.AperFunction,Conductor*
G36*
X187578268Y-84826568D02*
G01*
X187671788Y-84919364D01*
X187772905Y-85001719D01*
X187874022Y-85066093D01*
X187922740Y-85088445D01*
X187975131Y-85112484D01*
X187975133Y-85112484D01*
X187975139Y-85112487D01*
X188073313Y-85140073D01*
X188078420Y-85143064D01*
X188344071Y-85408715D01*
X188347498Y-85416988D01*
X188344071Y-85425261D01*
X188338364Y-85428403D01*
X188201420Y-85459186D01*
X188201409Y-85459189D01*
X188043725Y-85512633D01*
X188043722Y-85512635D01*
X187886052Y-85584073D01*
X187728351Y-85673527D01*
X187577998Y-85775977D01*
X187569232Y-85777803D01*
X187563882Y-85775264D01*
X187009932Y-85309649D01*
X187005804Y-85301703D01*
X187008504Y-85293165D01*
X187009911Y-85291755D01*
X187562487Y-84825928D01*
X187571021Y-84823216D01*
X187578268Y-84826568D01*
G37*
G04 #@! TD.AperFunction*
G04 #@! TA.AperFunction,Conductor*
G36*
X188084020Y-84584049D02*
G01*
X188084679Y-84584658D01*
X188497554Y-84996562D01*
X188500991Y-85004831D01*
X188500991Y-85004864D01*
X188500020Y-85587869D01*
X188496579Y-85596137D01*
X188488301Y-85599550D01*
X188487878Y-85599542D01*
X188225255Y-85589619D01*
X188224218Y-85589533D01*
X188030466Y-85564836D01*
X188029911Y-85564752D01*
X187971968Y-85554522D01*
X187862522Y-85535200D01*
X187862513Y-85535198D01*
X187862508Y-85535198D01*
X187667965Y-85510400D01*
X187403963Y-85500425D01*
X187395825Y-85496688D01*
X187392705Y-85488733D01*
X187392705Y-85110358D01*
X187396132Y-85102085D01*
X187402985Y-85098744D01*
X187599834Y-85074701D01*
X187731441Y-85003132D01*
X187827787Y-84891787D01*
X187928815Y-84747608D01*
X187929491Y-84746736D01*
X188067525Y-84585336D01*
X188075506Y-84581276D01*
X188084020Y-84584049D01*
G37*
G04 #@! TD.AperFunction*
G04 #@! TA.AperFunction,Conductor*
G36*
X179322728Y-91003427D02*
G01*
X179326092Y-91010488D01*
X179329997Y-91047980D01*
X179335001Y-91094521D01*
X179339997Y-91139478D01*
X179344997Y-91182977D01*
X179346379Y-91194590D01*
X179346415Y-91197009D01*
X179345441Y-91207956D01*
X179345360Y-91209318D01*
X179345041Y-91220110D01*
X179345000Y-91221493D01*
X179345000Y-91225467D01*
X179345037Y-91226055D01*
X179345843Y-91238876D01*
X179345498Y-91242521D01*
X179136331Y-92056880D01*
X179130954Y-92064040D01*
X179122088Y-92065301D01*
X179114928Y-92059924D01*
X179113669Y-92056885D01*
X178966823Y-91485165D01*
X178900868Y-91228378D01*
X178900500Y-91225467D01*
X178900500Y-91221493D01*
X178900582Y-91220110D01*
X178905002Y-91182976D01*
X178910002Y-91139478D01*
X178914998Y-91094521D01*
X178920002Y-91047981D01*
X178923908Y-91010488D01*
X178928174Y-91002614D01*
X178935545Y-91000000D01*
X179314455Y-91000000D01*
X179322728Y-91003427D01*
G37*
G04 #@! TD.AperFunction*
G04 #@! TA.AperFunction,Conductor*
G36*
X182441953Y-56393878D02*
G01*
X182448753Y-56399705D01*
X182449442Y-56408633D01*
X182443615Y-56415433D01*
X182441953Y-56416122D01*
X181596515Y-56692301D01*
X181588741Y-56692122D01*
X181514067Y-56663861D01*
X181435569Y-56640151D01*
X181435561Y-56640149D01*
X181357048Y-56622433D01*
X181357049Y-56622433D01*
X181312609Y-56615802D01*
X181278519Y-56610716D01*
X181278512Y-56610715D01*
X181278509Y-56610715D01*
X181210850Y-56605789D01*
X181202848Y-56601771D01*
X181200000Y-56594120D01*
X181200000Y-56215879D01*
X181203427Y-56207606D01*
X181210850Y-56204210D01*
X181278519Y-56199283D01*
X181357038Y-56187567D01*
X181357044Y-56187565D01*
X181357048Y-56187565D01*
X181391784Y-56179726D01*
X181435558Y-56169850D01*
X181435562Y-56169848D01*
X181435569Y-56169847D01*
X181514067Y-56146137D01*
X181514066Y-56146137D01*
X181514077Y-56146134D01*
X181588741Y-56117876D01*
X181596515Y-56117698D01*
X182441953Y-56393878D01*
G37*
G04 #@! TD.AperFunction*
G04 #@! TA.AperFunction,Conductor*
G36*
X180740324Y-55950377D02*
G01*
X180740503Y-55950453D01*
X180956164Y-56045102D01*
X181119326Y-56118473D01*
X181264360Y-56168062D01*
X181356191Y-56183040D01*
X181436516Y-56196143D01*
X181436522Y-56196143D01*
X181436531Y-56196145D01*
X181669827Y-56204591D01*
X181677970Y-56208315D01*
X181681103Y-56216283D01*
X181681103Y-56594492D01*
X181677676Y-56602765D01*
X181670656Y-56606125D01*
X181426775Y-56632401D01*
X181258879Y-56705177D01*
X181122996Y-56809185D01*
X181122994Y-56809186D01*
X180965493Y-56929683D01*
X180963844Y-56930739D01*
X180740947Y-57048345D01*
X180732031Y-57049175D01*
X180725139Y-57043457D01*
X180724690Y-57042502D01*
X180500868Y-56504492D01*
X180500855Y-56495541D01*
X180725028Y-55956684D01*
X180731369Y-55950363D01*
X180740324Y-55950377D01*
G37*
G04 #@! TD.AperFunction*
G04 #@! TA.AperFunction,Conductor*
G36*
X195519278Y-84800512D02*
G01*
X195753512Y-84810376D01*
X195754630Y-84810480D01*
X195928152Y-84835157D01*
X195928743Y-84835257D01*
X196078650Y-84864800D01*
X196253038Y-84889600D01*
X196488811Y-84899528D01*
X196496932Y-84903300D01*
X196500018Y-84911199D01*
X196500991Y-85495135D01*
X196497578Y-85503413D01*
X196497554Y-85503437D01*
X196085605Y-85914417D01*
X196077328Y-85917834D01*
X196069059Y-85914397D01*
X196067751Y-85912834D01*
X195936704Y-85725245D01*
X195935254Y-85722413D01*
X195867554Y-85528739D01*
X195867486Y-85528536D01*
X195812399Y-85361181D01*
X195812398Y-85361180D01*
X195711785Y-85244069D01*
X195711784Y-85244068D01*
X195516343Y-85201988D01*
X195508977Y-85196896D01*
X195507106Y-85190550D01*
X195507106Y-84812203D01*
X195510533Y-84803930D01*
X195518806Y-84800503D01*
X195519278Y-84800512D01*
G37*
G04 #@! TD.AperFunction*
G04 #@! TA.AperFunction,Conductor*
G36*
X195519278Y-74800512D02*
G01*
X195753512Y-74810376D01*
X195754630Y-74810480D01*
X195928152Y-74835156D01*
X195928743Y-74835256D01*
X196078650Y-74864800D01*
X196253038Y-74889600D01*
X196488811Y-74899528D01*
X196496932Y-74903300D01*
X196500018Y-74911199D01*
X196500991Y-75495135D01*
X196497578Y-75503413D01*
X196497554Y-75503437D01*
X196085605Y-75914417D01*
X196077328Y-75917834D01*
X196069059Y-75914397D01*
X196067751Y-75912834D01*
X195936704Y-75725245D01*
X195935254Y-75722413D01*
X195867554Y-75528739D01*
X195867486Y-75528536D01*
X195812399Y-75361181D01*
X195812398Y-75361180D01*
X195711785Y-75244069D01*
X195711784Y-75244068D01*
X195516343Y-75201988D01*
X195508977Y-75196896D01*
X195507106Y-75190550D01*
X195507106Y-74812203D01*
X195510533Y-74803930D01*
X195518806Y-74800503D01*
X195519278Y-74800512D01*
G37*
G04 #@! TD.AperFunction*
G04 #@! TA.AperFunction,Conductor*
G36*
X193387243Y-53687238D02*
G01*
X193387600Y-53687580D01*
X193634155Y-53933556D01*
X193977265Y-54275860D01*
X193980702Y-54284129D01*
X193980702Y-54284153D01*
X193980011Y-55116428D01*
X193976577Y-55124698D01*
X193968301Y-55128118D01*
X193966578Y-55127989D01*
X193632501Y-55077942D01*
X193629935Y-55077253D01*
X193359706Y-54970495D01*
X193129765Y-54882639D01*
X192905166Y-54888419D01*
X192905163Y-54888420D01*
X192657965Y-55056721D01*
X192649197Y-55058545D01*
X192643107Y-55055323D01*
X192445731Y-54857947D01*
X192442304Y-54849674D01*
X192445362Y-54841787D01*
X192688681Y-54575270D01*
X192845593Y-54361331D01*
X192971012Y-54167941D01*
X192971377Y-54167412D01*
X193127736Y-53954227D01*
X193128510Y-53953281D01*
X193370714Y-53687989D01*
X193378822Y-53684191D01*
X193387243Y-53687238D01*
G37*
G04 #@! TD.AperFunction*
G04 #@! TA.AperFunction,Conductor*
G36*
X178411258Y-53577877D02*
G01*
X178485922Y-53606134D01*
X178485927Y-53606135D01*
X178485931Y-53606137D01*
X178564429Y-53629847D01*
X178564437Y-53629849D01*
X178642950Y-53647565D01*
X178642949Y-53647565D01*
X178642958Y-53647566D01*
X178642961Y-53647567D01*
X178721480Y-53659283D01*
X178789150Y-53664210D01*
X178797152Y-53668228D01*
X178800000Y-53675879D01*
X178800000Y-54054120D01*
X178796573Y-54062393D01*
X178789150Y-54065789D01*
X178721489Y-54070715D01*
X178721484Y-54070715D01*
X178721480Y-54070716D01*
X178694126Y-54074797D01*
X178642950Y-54082433D01*
X178564437Y-54100149D01*
X178564429Y-54100151D01*
X178485931Y-54123861D01*
X178411258Y-54152122D01*
X178403484Y-54152301D01*
X177705827Y-53924397D01*
X177558045Y-53876121D01*
X177551246Y-53870295D01*
X177550557Y-53861367D01*
X177556384Y-53854567D01*
X177558044Y-53853878D01*
X178403484Y-53577698D01*
X178411258Y-53577877D01*
G37*
G04 #@! TD.AperFunction*
G04 #@! TA.AperFunction,Conductor*
G36*
X193387241Y-51147244D02*
G01*
X193387678Y-51147658D01*
X193977265Y-51735860D01*
X193980702Y-51744129D01*
X193980702Y-51744153D01*
X193980011Y-52576561D01*
X193976577Y-52584831D01*
X193968301Y-52588251D01*
X193966690Y-52588138D01*
X193634341Y-52541653D01*
X193631957Y-52541059D01*
X193363011Y-52443069D01*
X193133997Y-52365469D01*
X193133992Y-52365469D01*
X192910417Y-52379388D01*
X192910414Y-52379389D01*
X192664625Y-52549964D01*
X192655874Y-52551866D01*
X192649681Y-52548625D01*
X192452310Y-52351254D01*
X192448883Y-52342981D01*
X192451885Y-52335157D01*
X192696874Y-52062917D01*
X192851017Y-51841827D01*
X192972208Y-51640857D01*
X192972612Y-51640233D01*
X193126142Y-51420022D01*
X193127017Y-51418920D01*
X193370720Y-51148113D01*
X193378800Y-51144257D01*
X193387241Y-51147244D01*
G37*
G04 #@! TD.AperFunction*
G04 #@! TA.AperFunction,Conductor*
G36*
X178411258Y-54847877D02*
G01*
X178485922Y-54876134D01*
X178485927Y-54876135D01*
X178485931Y-54876137D01*
X178564429Y-54899847D01*
X178564437Y-54899849D01*
X178642950Y-54917565D01*
X178642949Y-54917565D01*
X178642958Y-54917566D01*
X178642961Y-54917567D01*
X178721480Y-54929283D01*
X178789150Y-54934210D01*
X178797152Y-54938228D01*
X178800000Y-54945879D01*
X178800000Y-55324120D01*
X178796573Y-55332393D01*
X178789150Y-55335789D01*
X178721489Y-55340715D01*
X178721484Y-55340715D01*
X178721480Y-55340716D01*
X178694126Y-55344797D01*
X178642950Y-55352433D01*
X178564437Y-55370149D01*
X178564429Y-55370151D01*
X178485931Y-55393861D01*
X178411258Y-55422122D01*
X178403484Y-55422301D01*
X177705827Y-55194397D01*
X177558045Y-55146121D01*
X177551246Y-55140295D01*
X177550557Y-55131367D01*
X177556384Y-55124567D01*
X177558044Y-55123878D01*
X178403484Y-54847698D01*
X178411258Y-54847877D01*
G37*
G04 #@! TD.AperFunction*
G04 #@! TA.AperFunction,Conductor*
G36*
X187008239Y-91207173D02*
G01*
X187492033Y-91687123D01*
X187495493Y-91695382D01*
X187492436Y-91703315D01*
X187440010Y-91760768D01*
X187439999Y-91760780D01*
X187379998Y-91844156D01*
X187319996Y-91945155D01*
X187319990Y-91945166D01*
X187260004Y-92063752D01*
X187203076Y-92193016D01*
X187196605Y-92199206D01*
X187192368Y-92200000D01*
X186807632Y-92200000D01*
X186799359Y-92196573D01*
X186796924Y-92193016D01*
X186739995Y-92063752D01*
X186680009Y-91945166D01*
X186680000Y-91945148D01*
X186620000Y-91844153D01*
X186560000Y-91760779D01*
X186507563Y-91703315D01*
X186504518Y-91694894D01*
X186507964Y-91687125D01*
X186991760Y-91207173D01*
X187000047Y-91203780D01*
X187008239Y-91207173D01*
G37*
G04 #@! TD.AperFunction*
G04 #@! TA.AperFunction,Conductor*
G36*
X187197369Y-91303427D02*
G01*
X187200767Y-91310877D01*
X187217874Y-91553456D01*
X187217874Y-91553459D01*
X187257810Y-91692515D01*
X187267795Y-91727280D01*
X187344212Y-91871418D01*
X187344221Y-91871433D01*
X187441314Y-92035369D01*
X187441792Y-92036262D01*
X187548979Y-92259261D01*
X187549475Y-92268202D01*
X187543503Y-92274875D01*
X187542928Y-92275132D01*
X187004494Y-92499130D01*
X186995539Y-92499144D01*
X186995506Y-92499130D01*
X186457071Y-92275132D01*
X186450749Y-92268791D01*
X186450763Y-92259836D01*
X186451004Y-92259296D01*
X186558217Y-92036238D01*
X186558669Y-92035393D01*
X186655787Y-91871418D01*
X186732204Y-91727280D01*
X186782125Y-91553455D01*
X186799233Y-91310877D01*
X186803233Y-91302865D01*
X186810904Y-91300000D01*
X187189096Y-91300000D01*
X187197369Y-91303427D01*
G37*
G04 #@! TD.AperFunction*
G04 #@! TA.AperFunction,Conductor*
G36*
X189031632Y-68220168D02*
G01*
X189042927Y-68224867D01*
X189049249Y-68231208D01*
X189049235Y-68240163D01*
X189048978Y-68240738D01*
X188941792Y-68463736D01*
X188941314Y-68464629D01*
X188844221Y-68628565D01*
X188844200Y-68628603D01*
X188767797Y-68772713D01*
X188767795Y-68772718D01*
X188717874Y-68946539D01*
X188717874Y-68946542D01*
X188700767Y-69189123D01*
X188696767Y-69197135D01*
X188689096Y-69200000D01*
X188310904Y-69200000D01*
X188302631Y-69196573D01*
X188299233Y-69189123D01*
X188297431Y-69163578D01*
X188282125Y-68946544D01*
X188232204Y-68772718D01*
X188155787Y-68628581D01*
X188058675Y-68464614D01*
X188058213Y-68463751D01*
X187951019Y-68240736D01*
X187950524Y-68231796D01*
X187956496Y-68225124D01*
X187957044Y-68224878D01*
X188495507Y-68000868D01*
X188504458Y-68000855D01*
X189031632Y-68220168D01*
G37*
G04 #@! TD.AperFunction*
G04 #@! TA.AperFunction,Conductor*
G36*
X168588266Y-49207276D02*
G01*
X169200925Y-49820655D01*
X169420425Y-50040414D01*
X169423847Y-50048689D01*
X169420415Y-50056960D01*
X169419121Y-50058076D01*
X169289998Y-50153933D01*
X169150004Y-50290893D01*
X169009991Y-50460907D01*
X168870009Y-50663915D01*
X168869990Y-50663945D01*
X168733399Y-50894268D01*
X168726232Y-50899636D01*
X168723336Y-50900000D01*
X168436664Y-50900000D01*
X168428391Y-50896573D01*
X168426601Y-50894268D01*
X168290008Y-50663945D01*
X168289989Y-50663915D01*
X168150007Y-50460907D01*
X168150000Y-50460898D01*
X168009999Y-50290898D01*
X167869999Y-50153932D01*
X167740877Y-50058075D01*
X167736278Y-50050393D01*
X167738458Y-50041708D01*
X167739569Y-50040419D01*
X168571723Y-49207286D01*
X168579993Y-49203855D01*
X168588266Y-49207276D01*
G37*
G04 #@! TD.AperFunction*
G04 #@! TA.AperFunction,Conductor*
G36*
X176674380Y-91003427D02*
G01*
X176677380Y-91008569D01*
X176689998Y-91053997D01*
X176704992Y-91103478D01*
X176719999Y-91148498D01*
X176720000Y-91148500D01*
X176735000Y-91189000D01*
X176735002Y-91189006D01*
X176735004Y-91189010D01*
X176745457Y-91214097D01*
X176746310Y-91217546D01*
X176747585Y-91231686D01*
X176747264Y-91235648D01*
X176536331Y-92056880D01*
X176530954Y-92064040D01*
X176522088Y-92065301D01*
X176514928Y-92059924D01*
X176513669Y-92056885D01*
X176302730Y-91235629D01*
X176302411Y-91231686D01*
X176303686Y-91217546D01*
X176304533Y-91214120D01*
X176315000Y-91189000D01*
X176330000Y-91148500D01*
X176345000Y-91103500D01*
X176360000Y-91054000D01*
X176372620Y-91008569D01*
X176378136Y-91001514D01*
X176383893Y-91000000D01*
X176666107Y-91000000D01*
X176674380Y-91003427D01*
G37*
G04 #@! TD.AperFunction*
G04 #@! TA.AperFunction,Conductor*
G36*
X179274380Y-83803427D02*
G01*
X179277380Y-83808569D01*
X179289998Y-83853997D01*
X179304992Y-83903478D01*
X179319999Y-83948498D01*
X179335004Y-83989011D01*
X179348493Y-84021383D01*
X179349025Y-84028794D01*
X179136332Y-84856880D01*
X179130955Y-84864040D01*
X179122089Y-84865301D01*
X179114929Y-84859924D01*
X179113668Y-84856880D01*
X178900974Y-84028794D01*
X178901505Y-84021386D01*
X178915000Y-83989000D01*
X178930000Y-83948500D01*
X178945000Y-83903500D01*
X178960000Y-83854000D01*
X178972620Y-83808569D01*
X178978136Y-83801514D01*
X178983893Y-83800000D01*
X179266107Y-83800000D01*
X179274380Y-83803427D01*
G37*
G04 #@! TD.AperFunction*
G04 #@! TA.AperFunction,Conductor*
G36*
X171124489Y-49200865D02*
G01*
X171893493Y-49520376D01*
X171899818Y-49526715D01*
X171899809Y-49535670D01*
X171899371Y-49536606D01*
X171728386Y-49863367D01*
X171727386Y-49864952D01*
X171556504Y-50093299D01*
X171556505Y-50093300D01*
X171410171Y-50290458D01*
X171410167Y-50290464D01*
X171308252Y-50533416D01*
X171308251Y-50533417D01*
X171271094Y-50889514D01*
X171266827Y-50897387D01*
X171259457Y-50900000D01*
X170980543Y-50900000D01*
X170972270Y-50896573D01*
X170968906Y-50889514D01*
X170931747Y-50533417D01*
X170931746Y-50533416D01*
X170829831Y-50290464D01*
X170829830Y-50290462D01*
X170829829Y-50290460D01*
X170683507Y-50093319D01*
X170683493Y-50093300D01*
X170683493Y-50093299D01*
X170512610Y-49864949D01*
X170511612Y-49863367D01*
X170340626Y-49536603D01*
X170339828Y-49527686D01*
X170345569Y-49520814D01*
X170346485Y-49520384D01*
X171115511Y-49200864D01*
X171124466Y-49200856D01*
X171124489Y-49200865D01*
G37*
G04 #@! TD.AperFunction*
G04 #@! TA.AperFunction,Conductor*
G36*
X173664489Y-49200865D02*
G01*
X174433493Y-49520376D01*
X174439818Y-49526715D01*
X174439809Y-49535670D01*
X174439371Y-49536606D01*
X174268386Y-49863367D01*
X174267386Y-49864952D01*
X174096504Y-50093299D01*
X174096505Y-50093300D01*
X173950171Y-50290458D01*
X173950167Y-50290464D01*
X173848252Y-50533416D01*
X173848251Y-50533417D01*
X173811094Y-50889514D01*
X173806827Y-50897387D01*
X173799457Y-50900000D01*
X173520543Y-50900000D01*
X173512270Y-50896573D01*
X173508906Y-50889514D01*
X173471747Y-50533417D01*
X173471746Y-50533416D01*
X173369831Y-50290464D01*
X173369830Y-50290462D01*
X173369829Y-50290460D01*
X173223507Y-50093319D01*
X173223493Y-50093300D01*
X173223493Y-50093299D01*
X173052610Y-49864949D01*
X173051612Y-49863367D01*
X172880626Y-49536603D01*
X172879828Y-49527686D01*
X172885569Y-49520814D01*
X172886485Y-49520384D01*
X173655511Y-49200864D01*
X173664466Y-49200856D01*
X173664489Y-49200865D01*
G37*
G04 #@! TD.AperFunction*
G04 #@! TA.AperFunction,Conductor*
G36*
X176206238Y-49204837D02*
G01*
X176792980Y-49792961D01*
X176796397Y-49801238D01*
X176793164Y-49809299D01*
X176564913Y-50048613D01*
X176564911Y-50048616D01*
X176407210Y-50233605D01*
X176275740Y-50397626D01*
X176275515Y-50397898D01*
X176118135Y-50582513D01*
X176117698Y-50582998D01*
X175890070Y-50821660D01*
X175881880Y-50825282D01*
X175873528Y-50822052D01*
X175873330Y-50821858D01*
X175676502Y-50625030D01*
X175673075Y-50616757D01*
X175675086Y-50610199D01*
X175816131Y-50401939D01*
X175813173Y-50211386D01*
X175758247Y-50107829D01*
X175711491Y-50019676D01*
X175711489Y-50019673D01*
X175562116Y-49800438D01*
X175561471Y-49799373D01*
X175420797Y-49536664D01*
X175419912Y-49527753D01*
X175425588Y-49520827D01*
X175426622Y-49520337D01*
X176193473Y-49202292D01*
X176202428Y-49202289D01*
X176206238Y-49204837D01*
G37*
G04 #@! TD.AperFunction*
G04 #@! TA.AperFunction,Conductor*
G36*
X177966646Y-48879651D02*
G01*
X178736215Y-49197438D01*
X178742552Y-49203761D01*
X178742562Y-49203785D01*
X179060449Y-49973597D01*
X179060440Y-49982552D01*
X179054101Y-49988877D01*
X179053237Y-49989195D01*
X178708343Y-50100802D01*
X178706758Y-50101195D01*
X178432052Y-50149263D01*
X178196924Y-50194271D01*
X178196915Y-50194274D01*
X177960185Y-50300455D01*
X177960181Y-50300457D01*
X177960181Y-50300458D01*
X177937581Y-50319146D01*
X177688154Y-50525397D01*
X177679594Y-50528028D01*
X177672425Y-50524653D01*
X177475191Y-50327419D01*
X177471764Y-50319146D01*
X177474293Y-50311881D01*
X177697499Y-50030308D01*
X177788098Y-49781252D01*
X177812546Y-49532532D01*
X177843655Y-49244872D01*
X177844079Y-49242776D01*
X177950981Y-48887096D01*
X177956643Y-48880163D01*
X177965553Y-48879262D01*
X177966646Y-48879651D01*
G37*
G04 #@! TD.AperFunction*
G04 #@! TA.AperFunction,Conductor*
G36*
X176647559Y-56118038D02*
G01*
X177346802Y-56346461D01*
X177491953Y-56393878D01*
X177498753Y-56399705D01*
X177499442Y-56408633D01*
X177493615Y-56415433D01*
X177491953Y-56416122D01*
X176647583Y-56691953D01*
X176638655Y-56691264D01*
X176638063Y-56690942D01*
X176564081Y-56647867D01*
X176564077Y-56647865D01*
X176485558Y-56611149D01*
X176407038Y-56583432D01*
X176407031Y-56583430D01*
X176407020Y-56583427D01*
X176328508Y-56564713D01*
X176328509Y-56564713D01*
X176260263Y-56556269D01*
X176252473Y-56551853D01*
X176250000Y-56544658D01*
X176250000Y-56265341D01*
X176253427Y-56257068D01*
X176260263Y-56253730D01*
X176328508Y-56245285D01*
X176328513Y-56245283D01*
X176328519Y-56245283D01*
X176407038Y-56226567D01*
X176485558Y-56198850D01*
X176564077Y-56162134D01*
X176638064Y-56119056D01*
X176646937Y-56117856D01*
X176647559Y-56118038D01*
G37*
G04 #@! TD.AperFunction*
G04 #@! TA.AperFunction,Conductor*
G36*
X178296937Y-51982673D02*
G01*
X178499038Y-52184774D01*
X178502465Y-52193047D01*
X178502340Y-52194751D01*
X178499266Y-52215622D01*
X178495337Y-52248057D01*
X178491401Y-52286311D01*
X178487468Y-52330308D01*
X178484217Y-52371448D01*
X178480149Y-52379425D01*
X178475119Y-52381941D01*
X177535258Y-52593241D01*
X177526435Y-52591712D01*
X177521389Y-52584848D01*
X177446901Y-52306279D01*
X177448075Y-52297404D01*
X177455159Y-52291962D01*
X177613321Y-52249360D01*
X177754310Y-52203893D01*
X177782736Y-52194727D01*
X177782745Y-52194723D01*
X177782757Y-52194720D01*
X177952193Y-52131081D01*
X178121629Y-52058441D01*
X178283586Y-51980405D01*
X178292526Y-51979902D01*
X178296937Y-51982673D01*
G37*
G04 #@! TD.AperFunction*
G04 #@! TA.AperFunction,Conductor*
G36*
X180506506Y-48879593D02*
G01*
X181276215Y-49197438D01*
X181282552Y-49203761D01*
X181282562Y-49203785D01*
X181600402Y-49973483D01*
X181600393Y-49982438D01*
X181594054Y-49988763D01*
X181593082Y-49989115D01*
X181241129Y-50099262D01*
X181239302Y-50099677D01*
X181081777Y-50122352D01*
X180956973Y-50140318D01*
X180956949Y-50140321D01*
X180714111Y-50176252D01*
X180714107Y-50176253D01*
X180470245Y-50275983D01*
X180470243Y-50275984D01*
X180192173Y-50501506D01*
X180183589Y-50504056D01*
X180176530Y-50500692D01*
X179979307Y-50303469D01*
X179975880Y-50295196D01*
X179978491Y-50287829D01*
X180204014Y-50009754D01*
X180303745Y-49765889D01*
X180339680Y-49523025D01*
X180380320Y-49240691D01*
X180380735Y-49238867D01*
X180391722Y-49203762D01*
X180490885Y-48886914D01*
X180496626Y-48880044D01*
X180505545Y-48879245D01*
X180506506Y-48879593D01*
G37*
G04 #@! TD.AperFunction*
G04 #@! TA.AperFunction,Conductor*
G36*
X184602586Y-48879545D02*
G01*
X184608911Y-48885884D01*
X184609216Y-48886712D01*
X184711348Y-49199293D01*
X184722177Y-49232436D01*
X184722562Y-49233951D01*
X184773146Y-49508573D01*
X184821143Y-49743375D01*
X184821144Y-49743378D01*
X184930043Y-49979928D01*
X184930044Y-49979929D01*
X184930045Y-49979931D01*
X185032027Y-50102562D01*
X185156678Y-50252453D01*
X185159333Y-50261005D01*
X185155955Y-50268207D01*
X184888207Y-50535955D01*
X184879934Y-50539382D01*
X184872453Y-50536678D01*
X184871584Y-50535955D01*
X184599931Y-50310045D01*
X184599929Y-50310044D01*
X184599928Y-50310043D01*
X184464280Y-50247595D01*
X184363379Y-50201144D01*
X184363376Y-50201143D01*
X184363375Y-50201143D01*
X184128573Y-50153146D01*
X183853951Y-50102562D01*
X183852436Y-50102177D01*
X183506716Y-49989218D01*
X183499917Y-49983392D01*
X183499229Y-49974463D01*
X183499529Y-49973648D01*
X183817438Y-49203783D01*
X183823759Y-49197448D01*
X184593632Y-48879536D01*
X184602586Y-48879545D01*
G37*
G04 #@! TD.AperFunction*
G04 #@! TA.AperFunction,Conductor*
G36*
X181955990Y-91876065D02*
G01*
X181994986Y-91882997D01*
X181995000Y-91882999D01*
X182040000Y-91889499D01*
X182073726Y-91893247D01*
X182084980Y-91894498D01*
X182084986Y-91894498D01*
X182085000Y-91894500D01*
X182130000Y-91898000D01*
X182130016Y-91898000D01*
X182130020Y-91898001D01*
X182151144Y-91898939D01*
X182163819Y-91899503D01*
X182171932Y-91903293D01*
X182175000Y-91911191D01*
X182175000Y-92288808D01*
X182171573Y-92297081D01*
X182163819Y-92300496D01*
X182130021Y-92301997D01*
X182084980Y-92305500D01*
X182040015Y-92310498D01*
X182040004Y-92310499D01*
X182040000Y-92310500D01*
X182033702Y-92311409D01*
X181994986Y-92317001D01*
X181955990Y-92323934D01*
X181947245Y-92322008D01*
X181945687Y-92320706D01*
X181913647Y-92288808D01*
X181732326Y-92108289D01*
X181728882Y-92100026D01*
X181732290Y-92091746D01*
X181945688Y-91879292D01*
X181953968Y-91875884D01*
X181955990Y-91876065D01*
G37*
G04 #@! TD.AperFunction*
G04 #@! TA.AperFunction,Conductor*
G36*
X183686228Y-91974834D02*
G01*
X184240358Y-92441047D01*
X184244483Y-92448996D01*
X184241779Y-92457532D01*
X184240358Y-92458953D01*
X183686228Y-92925165D01*
X183677692Y-92927869D01*
X183671958Y-92925777D01*
X183548460Y-92838773D01*
X183548456Y-92838770D01*
X183417603Y-92764584D01*
X183417585Y-92764575D01*
X183286729Y-92708387D01*
X183286714Y-92708382D01*
X183155864Y-92670193D01*
X183155867Y-92670193D01*
X183034916Y-92651530D01*
X183027262Y-92646882D01*
X183025000Y-92639967D01*
X183025000Y-92260032D01*
X183028427Y-92251759D01*
X183034913Y-92248470D01*
X183155865Y-92229805D01*
X183286731Y-92191611D01*
X183417597Y-92135418D01*
X183548463Y-92061224D01*
X183671959Y-91974221D01*
X183680695Y-91972259D01*
X183686228Y-91974834D01*
G37*
G04 #@! TD.AperFunction*
G04 #@! TA.AperFunction,Conductor*
G36*
X180622728Y-91003427D02*
G01*
X180626092Y-91010488D01*
X180629997Y-91047980D01*
X180635001Y-91094521D01*
X180639997Y-91139478D01*
X180644997Y-91182977D01*
X180649418Y-91220111D01*
X180649500Y-91221494D01*
X180649500Y-91225467D01*
X180649132Y-91228378D01*
X180436332Y-92056880D01*
X180430955Y-92064040D01*
X180422089Y-92065301D01*
X180414929Y-92059924D01*
X180413668Y-92056880D01*
X180200868Y-91228378D01*
X180200500Y-91225467D01*
X180200500Y-91221493D01*
X180200582Y-91220110D01*
X180205002Y-91182976D01*
X180210002Y-91139478D01*
X180214998Y-91094521D01*
X180220002Y-91047981D01*
X180223908Y-91010488D01*
X180228174Y-91002614D01*
X180235545Y-91000000D01*
X180614455Y-91000000D01*
X180622728Y-91003427D01*
G37*
G04 #@! TD.AperFunction*
G04 #@! TA.AperFunction,Conductor*
G36*
X183060691Y-90002483D02*
G01*
X183301977Y-90046000D01*
X183557032Y-90074000D01*
X183812086Y-90083999D01*
X183812096Y-90083998D01*
X183812102Y-90083999D01*
X183957831Y-90079427D01*
X184067141Y-90075999D01*
X184307318Y-90051516D01*
X184315895Y-90054087D01*
X184320144Y-90061969D01*
X184320087Y-90064805D01*
X184251917Y-90543554D01*
X184247358Y-90551262D01*
X184245039Y-90552617D01*
X183546021Y-90859622D01*
X183537068Y-90859812D01*
X183532013Y-90856005D01*
X183439465Y-90734664D01*
X183439460Y-90734658D01*
X183341326Y-90623993D01*
X183243191Y-90531329D01*
X183243186Y-90531325D01*
X183243172Y-90531313D01*
X183145054Y-90456661D01*
X183052773Y-90403377D01*
X183047322Y-90396273D01*
X183046923Y-90393245D01*
X183046923Y-90013998D01*
X183050350Y-90005725D01*
X183058623Y-90002298D01*
X183060691Y-90002483D01*
G37*
G04 #@! TD.AperFunction*
G04 #@! TA.AperFunction,Conductor*
G36*
X180435071Y-84940075D02*
G01*
X180436332Y-84943119D01*
X180649132Y-85771620D01*
X180649500Y-85774531D01*
X180649500Y-85778505D01*
X180649418Y-85779888D01*
X180644997Y-85817023D01*
X180639997Y-85860522D01*
X180635000Y-85905478D01*
X180635001Y-85905479D01*
X180629997Y-85952020D01*
X180626092Y-85989512D01*
X180621827Y-85997386D01*
X180614455Y-86000000D01*
X180235545Y-86000000D01*
X180227272Y-85996573D01*
X180223908Y-85989512D01*
X180220002Y-85952019D01*
X180214998Y-85905479D01*
X180214998Y-85905478D01*
X180210002Y-85860522D01*
X180205002Y-85817024D01*
X180200582Y-85779888D01*
X180200500Y-85778505D01*
X180200500Y-85774531D01*
X180200868Y-85771620D01*
X180413668Y-84943119D01*
X180419045Y-84935959D01*
X180427911Y-84934698D01*
X180435071Y-84940075D01*
G37*
G04 #@! TD.AperFunction*
G04 #@! TA.AperFunction,Conductor*
G36*
X186436115Y-86724734D02*
G01*
X186799252Y-87029963D01*
X186990067Y-87190350D01*
X186994195Y-87198296D01*
X186991495Y-87206834D01*
X186990080Y-87208251D01*
X186437512Y-87674070D01*
X186428978Y-87676783D01*
X186421730Y-87673430D01*
X186328211Y-87580635D01*
X186227094Y-87498280D01*
X186125977Y-87433906D01*
X186119543Y-87430954D01*
X186024867Y-87387514D01*
X186024862Y-87387513D01*
X186024860Y-87387512D01*
X185961294Y-87369650D01*
X185926687Y-87359926D01*
X185921579Y-87356935D01*
X185655928Y-87091284D01*
X185652501Y-87083011D01*
X185655928Y-87074738D01*
X185661634Y-87071596D01*
X185798586Y-87040811D01*
X185956272Y-86987366D01*
X186113957Y-86915920D01*
X186271643Y-86826475D01*
X186422003Y-86724021D01*
X186430767Y-86722196D01*
X186436115Y-86724734D01*
G37*
G04 #@! TD.AperFunction*
G04 #@! TA.AperFunction,Conductor*
G36*
X182116221Y-84356413D02*
G01*
X182122423Y-84362873D01*
X182123224Y-84367129D01*
X182123224Y-84746168D01*
X182120957Y-84753089D01*
X182088606Y-84797179D01*
X182053886Y-84846004D01*
X182019334Y-84896087D01*
X182019316Y-84896113D01*
X182019289Y-84896153D01*
X181984644Y-84947871D01*
X181984613Y-84947917D01*
X181984602Y-84947935D01*
X181955454Y-84992710D01*
X181948069Y-84997774D01*
X181940872Y-84997007D01*
X181734743Y-84904805D01*
X181728590Y-84898299D01*
X181728840Y-84889348D01*
X181947571Y-84407985D01*
X181954113Y-84401872D01*
X181955734Y-84401394D01*
X181984644Y-84395112D01*
X182019289Y-84386084D01*
X182053934Y-84375556D01*
X182079730Y-84366600D01*
X182088568Y-84363532D01*
X182088572Y-84363530D01*
X182088579Y-84363528D01*
X182107269Y-84356230D01*
X182116221Y-84356413D01*
G37*
G04 #@! TD.AperFunction*
G04 #@! TA.AperFunction,Conductor*
G36*
X183686228Y-84074834D02*
G01*
X184240358Y-84541047D01*
X184244483Y-84548996D01*
X184241779Y-84557532D01*
X184240358Y-84558953D01*
X183686228Y-85025165D01*
X183677692Y-85027869D01*
X183671958Y-85025777D01*
X183548460Y-84938773D01*
X183548456Y-84938770D01*
X183417603Y-84864584D01*
X183417585Y-84864575D01*
X183286729Y-84808387D01*
X183286714Y-84808382D01*
X183155864Y-84770193D01*
X183155867Y-84770193D01*
X183034916Y-84751530D01*
X183027262Y-84746882D01*
X183025000Y-84739967D01*
X183025000Y-84360032D01*
X183028427Y-84351759D01*
X183034913Y-84348470D01*
X183155865Y-84329805D01*
X183286731Y-84291611D01*
X183417597Y-84235418D01*
X183548463Y-84161224D01*
X183671959Y-84074221D01*
X183680695Y-84072259D01*
X183686228Y-84074834D01*
G37*
G04 #@! TD.AperFunction*
G04 #@! TA.AperFunction,Conductor*
G36*
X183686228Y-85974834D02*
G01*
X184240358Y-86441047D01*
X184244483Y-86448996D01*
X184241779Y-86457532D01*
X184240358Y-86458953D01*
X183686228Y-86925165D01*
X183677692Y-86927869D01*
X183671958Y-86925777D01*
X183548460Y-86838773D01*
X183548456Y-86838770D01*
X183417603Y-86764584D01*
X183417585Y-86764575D01*
X183286729Y-86708387D01*
X183286714Y-86708382D01*
X183155864Y-86670193D01*
X183155867Y-86670193D01*
X183034916Y-86651530D01*
X183027262Y-86646882D01*
X183025000Y-86639967D01*
X183025000Y-86260032D01*
X183028427Y-86251759D01*
X183034913Y-86248470D01*
X183155865Y-86229805D01*
X183286731Y-86191611D01*
X183417597Y-86135418D01*
X183548463Y-86061224D01*
X183671959Y-85974221D01*
X183680695Y-85972259D01*
X183686228Y-85974834D01*
G37*
G04 #@! TD.AperFunction*
G04 #@! TA.AperFunction,Conductor*
G36*
X181085070Y-84940075D02*
G01*
X181086331Y-84943119D01*
X181269594Y-85656623D01*
X181296435Y-85761122D01*
X181299132Y-85771620D01*
X181299500Y-85774531D01*
X181299500Y-85778505D01*
X181299418Y-85779888D01*
X181294997Y-85817023D01*
X181289997Y-85860522D01*
X181285000Y-85905478D01*
X181285001Y-85905479D01*
X181279997Y-85952020D01*
X181276092Y-85989512D01*
X181271827Y-85997386D01*
X181264455Y-86000000D01*
X180885545Y-86000000D01*
X180877272Y-85996573D01*
X180873908Y-85989512D01*
X180870002Y-85952019D01*
X180864998Y-85905479D01*
X180864998Y-85905478D01*
X180860002Y-85860522D01*
X180855002Y-85817024D01*
X180853619Y-85805408D01*
X180853583Y-85802991D01*
X180854558Y-85792051D01*
X180854640Y-85790668D01*
X180855000Y-85778505D01*
X180855000Y-85774531D01*
X180854155Y-85761118D01*
X180854499Y-85757482D01*
X181063668Y-84943116D01*
X181069044Y-84935959D01*
X181077910Y-84934698D01*
X181085070Y-84940075D01*
G37*
G04 #@! TD.AperFunction*
G04 #@! TA.AperFunction,Conductor*
G36*
X186318485Y-88934050D02*
G01*
X186549034Y-89057480D01*
X186985499Y-89291151D01*
X186991175Y-89298077D01*
X186990292Y-89306988D01*
X186987518Y-89310411D01*
X186435585Y-89775695D01*
X186427051Y-89778408D01*
X186422228Y-89776902D01*
X186345787Y-89733109D01*
X186345784Y-89733107D01*
X186262241Y-89698203D01*
X186262236Y-89698202D01*
X186224941Y-89688404D01*
X186178698Y-89676256D01*
X186095155Y-89667265D01*
X186095154Y-89667265D01*
X186016780Y-89670985D01*
X186008353Y-89667954D01*
X186007952Y-89667571D01*
X185740454Y-89400073D01*
X185737027Y-89391800D01*
X185740454Y-89383527D01*
X185743667Y-89381251D01*
X185845105Y-89332660D01*
X185961442Y-89258932D01*
X186077778Y-89167205D01*
X186194115Y-89057477D01*
X186304315Y-88936487D01*
X186312419Y-88932679D01*
X186318485Y-88934050D01*
G37*
G04 #@! TD.AperFunction*
G04 #@! TA.AperFunction,Conductor*
G36*
X181272728Y-91003427D02*
G01*
X181276092Y-91010488D01*
X181279997Y-91047980D01*
X181285001Y-91094521D01*
X181289997Y-91139478D01*
X181294997Y-91182977D01*
X181299418Y-91220111D01*
X181299500Y-91221494D01*
X181299500Y-91225467D01*
X181299132Y-91228378D01*
X181086331Y-92056880D01*
X181080954Y-92064040D01*
X181072088Y-92065301D01*
X181064928Y-92059924D01*
X181063669Y-92056885D01*
X180854499Y-91242519D01*
X180854155Y-91238879D01*
X180855000Y-91225467D01*
X180855000Y-91221494D01*
X180854640Y-91209331D01*
X180854558Y-91207948D01*
X180853583Y-91197007D01*
X180853618Y-91194595D01*
X180854999Y-91183000D01*
X180859999Y-91139500D01*
X180860002Y-91139478D01*
X180864998Y-91094521D01*
X180870002Y-91047981D01*
X180873908Y-91010488D01*
X180878174Y-91002614D01*
X180885545Y-91000000D01*
X181264455Y-91000000D01*
X181272728Y-91003427D01*
G37*
G04 #@! TD.AperFunction*
G04 #@! TA.AperFunction,Conductor*
G36*
X173935070Y-92140075D02*
G01*
X173936331Y-92143119D01*
X174147263Y-92964351D01*
X174147584Y-92968312D01*
X174146310Y-92982450D01*
X174145457Y-92985899D01*
X174135008Y-93010980D01*
X174135000Y-93011000D01*
X174127730Y-93030626D01*
X174119999Y-93051501D01*
X174104992Y-93096521D01*
X174089998Y-93146002D01*
X174077380Y-93191431D01*
X174071864Y-93198486D01*
X174066107Y-93200000D01*
X173783893Y-93200000D01*
X173775620Y-93196573D01*
X173772620Y-93191431D01*
X173760001Y-93146002D01*
X173745007Y-93096521D01*
X173730000Y-93051501D01*
X173730000Y-93051500D01*
X173715000Y-93011000D01*
X173701505Y-92978614D01*
X173700974Y-92971207D01*
X173913668Y-92143116D01*
X173919044Y-92135959D01*
X173927910Y-92134698D01*
X173935070Y-92140075D01*
G37*
G04 #@! TD.AperFunction*
G04 #@! TA.AperFunction,Conductor*
G36*
X179972728Y-91003427D02*
G01*
X179976092Y-91010488D01*
X179979997Y-91047980D01*
X179985001Y-91094521D01*
X179989997Y-91139478D01*
X179994997Y-91182977D01*
X179996379Y-91194590D01*
X179996415Y-91197009D01*
X179995441Y-91207956D01*
X179995360Y-91209318D01*
X179995000Y-91221493D01*
X179995000Y-91225466D01*
X179995843Y-91238876D01*
X179995498Y-91242521D01*
X179786331Y-92056880D01*
X179780954Y-92064040D01*
X179772088Y-92065301D01*
X179764928Y-92059924D01*
X179763669Y-92056885D01*
X179616823Y-91485165D01*
X179550868Y-91228378D01*
X179550500Y-91225467D01*
X179550500Y-91221493D01*
X179550582Y-91220110D01*
X179555002Y-91182976D01*
X179560002Y-91139478D01*
X179564998Y-91094521D01*
X179570002Y-91047981D01*
X179573908Y-91010488D01*
X179578174Y-91002614D01*
X179585545Y-91000000D01*
X179964455Y-91000000D01*
X179972728Y-91003427D01*
G37*
G04 #@! TD.AperFunction*
G04 #@! TA.AperFunction,Conductor*
G36*
X182957064Y-88275088D02*
G01*
X183496207Y-88497437D01*
X183502548Y-88503759D01*
X183502562Y-88503792D01*
X183724902Y-89042912D01*
X183724888Y-89051867D01*
X183718547Y-89058189D01*
X183717958Y-89058414D01*
X183484477Y-89140307D01*
X183483507Y-89140600D01*
X183298939Y-89187863D01*
X183298933Y-89187865D01*
X183142962Y-89235755D01*
X183142961Y-89235755D01*
X182984757Y-89323363D01*
X182801127Y-89482800D01*
X182792633Y-89485636D01*
X182785183Y-89482238D01*
X182517761Y-89214816D01*
X182514334Y-89206543D01*
X182517198Y-89198874D01*
X182676631Y-89015247D01*
X182676633Y-89015243D01*
X182676635Y-89015241D01*
X182764242Y-88857037D01*
X182764244Y-88857034D01*
X182812130Y-88701078D01*
X182859399Y-88516485D01*
X182859690Y-88515525D01*
X182941585Y-88282040D01*
X182947557Y-88275368D01*
X182956498Y-88274872D01*
X182957064Y-88275088D01*
G37*
G04 #@! TD.AperFunction*
G04 #@! TA.AperFunction,Conductor*
G36*
X182441953Y-52583878D02*
G01*
X182448753Y-52589705D01*
X182449442Y-52598633D01*
X182443615Y-52605433D01*
X182441953Y-52606122D01*
X181596515Y-52882301D01*
X181588741Y-52882122D01*
X181514067Y-52853861D01*
X181435569Y-52830151D01*
X181435561Y-52830149D01*
X181357048Y-52812433D01*
X181357049Y-52812433D01*
X181312609Y-52805802D01*
X181278519Y-52800716D01*
X181278512Y-52800715D01*
X181278509Y-52800715D01*
X181210850Y-52795789D01*
X181202848Y-52791771D01*
X181200000Y-52784120D01*
X181200000Y-52405879D01*
X181203427Y-52397606D01*
X181210850Y-52394210D01*
X181278519Y-52389283D01*
X181357038Y-52377567D01*
X181357044Y-52377565D01*
X181357048Y-52377565D01*
X181391784Y-52369726D01*
X181435558Y-52359850D01*
X181435562Y-52359848D01*
X181435569Y-52359847D01*
X181514067Y-52336137D01*
X181514066Y-52336137D01*
X181514077Y-52336134D01*
X181588741Y-52307876D01*
X181596515Y-52307698D01*
X182441953Y-52583878D01*
G37*
G04 #@! TD.AperFunction*
G04 #@! TA.AperFunction,Conductor*
G36*
X180739981Y-51951200D02*
G01*
X180740947Y-51951654D01*
X180963844Y-52069259D01*
X180965492Y-52070314D01*
X181122994Y-52190811D01*
X181122995Y-52190813D01*
X181122996Y-52190813D01*
X181258879Y-52294821D01*
X181426775Y-52367597D01*
X181426778Y-52367598D01*
X181670656Y-52393874D01*
X181678515Y-52398168D01*
X181681103Y-52405507D01*
X181681103Y-52783716D01*
X181677676Y-52791989D01*
X181669826Y-52795408D01*
X181436538Y-52803853D01*
X181436516Y-52803855D01*
X181264357Y-52831937D01*
X181119323Y-52881525D01*
X180956260Y-52954853D01*
X180956164Y-52954896D01*
X180740532Y-53049534D01*
X180731579Y-53049720D01*
X180725116Y-53043522D01*
X180725028Y-53043314D01*
X180719834Y-53030831D01*
X180500868Y-52504492D01*
X180500855Y-52495541D01*
X180724686Y-51957506D01*
X180731026Y-51951186D01*
X180739981Y-51951200D01*
G37*
G04 #@! TD.AperFunction*
G04 #@! TA.AperFunction,Conductor*
G36*
X182957064Y-73275088D02*
G01*
X183496207Y-73497437D01*
X183502548Y-73503759D01*
X183502562Y-73503792D01*
X183724902Y-74042912D01*
X183724888Y-74051867D01*
X183718547Y-74058189D01*
X183717958Y-74058414D01*
X183484477Y-74140307D01*
X183483507Y-74140600D01*
X183298939Y-74187863D01*
X183298933Y-74187865D01*
X183142962Y-74235755D01*
X183142961Y-74235755D01*
X182984757Y-74323363D01*
X182801127Y-74482800D01*
X182792633Y-74485636D01*
X182785183Y-74482238D01*
X182517761Y-74214816D01*
X182514334Y-74206543D01*
X182517198Y-74198874D01*
X182676631Y-74015247D01*
X182676633Y-74015243D01*
X182676635Y-74015241D01*
X182764242Y-73857037D01*
X182764244Y-73857034D01*
X182812130Y-73701078D01*
X182859399Y-73516485D01*
X182859690Y-73515525D01*
X182941585Y-73282040D01*
X182947557Y-73275368D01*
X182956498Y-73274872D01*
X182957064Y-73275088D01*
G37*
G04 #@! TD.AperFunction*
G04 #@! TA.AperFunction,Conductor*
G36*
X176674380Y-83803427D02*
G01*
X176677380Y-83808569D01*
X176689998Y-83853997D01*
X176704992Y-83903478D01*
X176719999Y-83948498D01*
X176735004Y-83989011D01*
X176748493Y-84021383D01*
X176749025Y-84028794D01*
X176536332Y-84856880D01*
X176530955Y-84864040D01*
X176522089Y-84865301D01*
X176514929Y-84859924D01*
X176513668Y-84856880D01*
X176300974Y-84028794D01*
X176301505Y-84021386D01*
X176315000Y-83989000D01*
X176330000Y-83948500D01*
X176345000Y-83903500D01*
X176360000Y-83854000D01*
X176372620Y-83808569D01*
X176378136Y-83801514D01*
X176383893Y-83800000D01*
X176666107Y-83800000D01*
X176674380Y-83803427D01*
G37*
G04 #@! TD.AperFunction*
G04 #@! TA.AperFunction,Conductor*
G36*
X175235070Y-92140075D02*
G01*
X175236331Y-92143119D01*
X175449025Y-92971204D01*
X175448493Y-92978615D01*
X175435004Y-93010988D01*
X175419999Y-93051501D01*
X175404992Y-93096521D01*
X175389998Y-93146002D01*
X175377380Y-93191431D01*
X175371864Y-93198486D01*
X175366107Y-93200000D01*
X175083893Y-93200000D01*
X175075620Y-93196573D01*
X175072620Y-93191431D01*
X175060001Y-93146002D01*
X175045007Y-93096521D01*
X175030000Y-93051501D01*
X175030000Y-93051500D01*
X175015000Y-93011000D01*
X175004533Y-92985879D01*
X175003685Y-92982449D01*
X175002411Y-92968314D01*
X175002731Y-92964365D01*
X175213668Y-92143116D01*
X175219044Y-92135959D01*
X175227910Y-92134698D01*
X175235070Y-92140075D01*
G37*
G04 #@! TD.AperFunction*
G04 #@! TA.AperFunction,Conductor*
G36*
X173285070Y-92140075D02*
G01*
X173286331Y-92143119D01*
X173497263Y-92964351D01*
X173497584Y-92968312D01*
X173496310Y-92982450D01*
X173495457Y-92985899D01*
X173485008Y-93010980D01*
X173485000Y-93011000D01*
X173477730Y-93030626D01*
X173469999Y-93051501D01*
X173454992Y-93096521D01*
X173439998Y-93146002D01*
X173427380Y-93191431D01*
X173421864Y-93198486D01*
X173416107Y-93200000D01*
X173133893Y-93200000D01*
X173125620Y-93196573D01*
X173122620Y-93191431D01*
X173110001Y-93146002D01*
X173095007Y-93096521D01*
X173080000Y-93051501D01*
X173080000Y-93051500D01*
X173065000Y-93011000D01*
X173051505Y-92978614D01*
X173050974Y-92971207D01*
X173263668Y-92143116D01*
X173269044Y-92135959D01*
X173277910Y-92134698D01*
X173285070Y-92140075D01*
G37*
G04 #@! TD.AperFunction*
G04 #@! TA.AperFunction,Conductor*
G36*
X178485071Y-92140075D02*
G01*
X178486332Y-92143119D01*
X178699025Y-92971204D01*
X178698493Y-92978615D01*
X178685004Y-93010988D01*
X178669999Y-93051501D01*
X178654992Y-93096521D01*
X178639998Y-93146002D01*
X178627380Y-93191431D01*
X178621864Y-93198486D01*
X178616107Y-93200000D01*
X178333893Y-93200000D01*
X178325620Y-93196573D01*
X178322620Y-93191431D01*
X178310001Y-93146002D01*
X178295007Y-93096521D01*
X178280000Y-93051501D01*
X178280000Y-93051500D01*
X178265000Y-93011000D01*
X178251505Y-92978614D01*
X178250974Y-92971207D01*
X178463668Y-92143118D01*
X178469045Y-92135959D01*
X178477911Y-92134698D01*
X178485071Y-92140075D01*
G37*
G04 #@! TD.AperFunction*
G04 #@! TA.AperFunction,Conductor*
G36*
X179734937Y-83728871D02*
G01*
X179932751Y-83926685D01*
X179934948Y-83929736D01*
X179947273Y-83954450D01*
X179947275Y-83954454D01*
X179953869Y-83965915D01*
X179960459Y-83977371D01*
X179960462Y-83977376D01*
X179960463Y-83977377D01*
X179973640Y-83996766D01*
X179986813Y-84012634D01*
X179986817Y-84012639D01*
X179994942Y-84020257D01*
X179998633Y-84028416D01*
X179998269Y-84031712D01*
X179786855Y-84851966D01*
X179781471Y-84859122D01*
X179772605Y-84860376D01*
X179765449Y-84854992D01*
X179764070Y-84851424D01*
X179593453Y-84028920D01*
X179594400Y-84021404D01*
X179618505Y-83972180D01*
X179644370Y-83914860D01*
X179670236Y-83853040D01*
X179696101Y-83786720D01*
X179715674Y-83733129D01*
X179721731Y-83726535D01*
X179730678Y-83726154D01*
X179734937Y-83728871D01*
G37*
G04 #@! TD.AperFunction*
G04 #@! TA.AperFunction,Conductor*
G36*
X174585071Y-92140075D02*
G01*
X174586332Y-92143119D01*
X174799025Y-92971204D01*
X174798493Y-92978615D01*
X174785004Y-93010988D01*
X174769999Y-93051501D01*
X174754992Y-93096521D01*
X174739998Y-93146002D01*
X174727380Y-93191431D01*
X174721864Y-93198486D01*
X174716107Y-93200000D01*
X174433893Y-93200000D01*
X174425620Y-93196573D01*
X174422620Y-93191431D01*
X174410001Y-93146002D01*
X174395007Y-93096521D01*
X174380000Y-93051501D01*
X174380000Y-93051500D01*
X174365000Y-93011000D01*
X174351505Y-92978614D01*
X174350974Y-92971207D01*
X174563668Y-92143118D01*
X174569045Y-92135959D01*
X174577911Y-92134698D01*
X174585071Y-92140075D01*
G37*
G04 #@! TD.AperFunction*
G04 #@! TA.AperFunction,Conductor*
G36*
X174074380Y-83803427D02*
G01*
X174077380Y-83808569D01*
X174089998Y-83853997D01*
X174104992Y-83903478D01*
X174119999Y-83948498D01*
X174135004Y-83989011D01*
X174148493Y-84021383D01*
X174149025Y-84028794D01*
X173936332Y-84856880D01*
X173930955Y-84864040D01*
X173922089Y-84865301D01*
X173914929Y-84859924D01*
X173913668Y-84856880D01*
X173700974Y-84028794D01*
X173701505Y-84021386D01*
X173715000Y-83989000D01*
X173730000Y-83948500D01*
X173745000Y-83903500D01*
X173760000Y-83854000D01*
X173772620Y-83808569D01*
X173778136Y-83801514D01*
X173783893Y-83800000D01*
X174066107Y-83800000D01*
X174074380Y-83803427D01*
G37*
G04 #@! TD.AperFunction*
G04 #@! TA.AperFunction,Conductor*
G36*
X178485071Y-84940075D02*
G01*
X178486332Y-84943119D01*
X178699025Y-85771204D01*
X178698493Y-85778615D01*
X178685004Y-85810988D01*
X178669999Y-85851501D01*
X178654992Y-85896521D01*
X178639998Y-85946002D01*
X178627380Y-85991431D01*
X178621864Y-85998486D01*
X178616107Y-86000000D01*
X178333893Y-86000000D01*
X178325620Y-85996573D01*
X178322620Y-85991431D01*
X178310001Y-85946002D01*
X178295007Y-85896521D01*
X178280000Y-85851501D01*
X178280000Y-85851500D01*
X178265000Y-85811000D01*
X178251505Y-85778614D01*
X178250974Y-85771207D01*
X178463668Y-84943118D01*
X178469045Y-84935959D01*
X178477911Y-84934698D01*
X178485071Y-84940075D01*
G37*
G04 #@! TD.AperFunction*
G04 #@! TA.AperFunction,Conductor*
G36*
X177974380Y-91003427D02*
G01*
X177977380Y-91008569D01*
X177989998Y-91053997D01*
X178004992Y-91103478D01*
X178019999Y-91148498D01*
X178035004Y-91189011D01*
X178048493Y-91221383D01*
X178049025Y-91228794D01*
X177836331Y-92056880D01*
X177830954Y-92064040D01*
X177822088Y-92065301D01*
X177814928Y-92059924D01*
X177813669Y-92056885D01*
X177602730Y-91235629D01*
X177602410Y-91231688D01*
X177603685Y-91217549D01*
X177604533Y-91214120D01*
X177615000Y-91189000D01*
X177630000Y-91148500D01*
X177645000Y-91103500D01*
X177660000Y-91054000D01*
X177672620Y-91008569D01*
X177678136Y-91001514D01*
X177683893Y-91000000D01*
X177966107Y-91000000D01*
X177974380Y-91003427D01*
G37*
G04 #@! TD.AperFunction*
G04 #@! TA.AperFunction,Conductor*
G36*
X174585071Y-84940075D02*
G01*
X174586332Y-84943119D01*
X174799025Y-85771204D01*
X174798493Y-85778615D01*
X174785004Y-85810988D01*
X174769999Y-85851501D01*
X174754992Y-85896521D01*
X174739998Y-85946002D01*
X174727380Y-85991431D01*
X174721864Y-85998486D01*
X174716107Y-86000000D01*
X174433893Y-86000000D01*
X174425620Y-85996573D01*
X174422620Y-85991431D01*
X174410001Y-85946002D01*
X174395007Y-85896521D01*
X174380000Y-85851501D01*
X174380000Y-85851500D01*
X174365000Y-85811000D01*
X174351505Y-85778614D01*
X174350974Y-85771207D01*
X174563668Y-84943118D01*
X174569045Y-84935959D01*
X174577911Y-84934698D01*
X174585071Y-84940075D01*
G37*
G04 #@! TD.AperFunction*
G04 #@! TA.AperFunction,Conductor*
G36*
X176024380Y-91003427D02*
G01*
X176027380Y-91008569D01*
X176039998Y-91053997D01*
X176054992Y-91103478D01*
X176069999Y-91148498D01*
X176085004Y-91189011D01*
X176098493Y-91221383D01*
X176099025Y-91228794D01*
X175886332Y-92056880D01*
X175880955Y-92064040D01*
X175872089Y-92065301D01*
X175864929Y-92059924D01*
X175863668Y-92056880D01*
X175650974Y-91228794D01*
X175651505Y-91221386D01*
X175665000Y-91189000D01*
X175680000Y-91148500D01*
X175695000Y-91103500D01*
X175710000Y-91054000D01*
X175722620Y-91008569D01*
X175728136Y-91001514D01*
X175733893Y-91000000D01*
X176016107Y-91000000D01*
X176024380Y-91003427D01*
G37*
G04 #@! TD.AperFunction*
G04 #@! TA.AperFunction,Conductor*
G36*
X177185071Y-84940075D02*
G01*
X177186332Y-84943119D01*
X177399025Y-85771204D01*
X177398493Y-85778615D01*
X177385004Y-85810988D01*
X177369999Y-85851501D01*
X177354992Y-85896521D01*
X177339998Y-85946002D01*
X177327380Y-85991431D01*
X177321864Y-85998486D01*
X177316107Y-86000000D01*
X177033893Y-86000000D01*
X177025620Y-85996573D01*
X177022620Y-85991431D01*
X177010001Y-85946002D01*
X176995007Y-85896521D01*
X176980000Y-85851501D01*
X176980000Y-85851500D01*
X176965000Y-85811000D01*
X176951505Y-85778614D01*
X176950974Y-85771207D01*
X177163668Y-84943118D01*
X177169045Y-84935959D01*
X177177911Y-84934698D01*
X177185071Y-84940075D01*
G37*
G04 #@! TD.AperFunction*
G04 #@! TA.AperFunction,Conductor*
G36*
X175885071Y-84940075D02*
G01*
X175886332Y-84943119D01*
X176099025Y-85771204D01*
X176098493Y-85778615D01*
X176085004Y-85810988D01*
X176069999Y-85851501D01*
X176054992Y-85896521D01*
X176039998Y-85946002D01*
X176027380Y-85991431D01*
X176021864Y-85998486D01*
X176016107Y-86000000D01*
X175733893Y-86000000D01*
X175725620Y-85996573D01*
X175722620Y-85991431D01*
X175710001Y-85946002D01*
X175695007Y-85896521D01*
X175680000Y-85851501D01*
X175680000Y-85851500D01*
X175665000Y-85811000D01*
X175651505Y-85778614D01*
X175650974Y-85771207D01*
X175863668Y-84943118D01*
X175869045Y-84935959D01*
X175877911Y-84934698D01*
X175885071Y-84940075D01*
G37*
G04 #@! TD.AperFunction*
G04 #@! TA.AperFunction,Conductor*
G36*
X177324380Y-91003427D02*
G01*
X177327380Y-91008569D01*
X177339998Y-91053997D01*
X177354992Y-91103478D01*
X177369999Y-91148498D01*
X177385004Y-91189011D01*
X177398493Y-91221383D01*
X177399025Y-91228794D01*
X177186332Y-92056880D01*
X177180955Y-92064040D01*
X177172089Y-92065301D01*
X177164929Y-92059924D01*
X177163668Y-92056880D01*
X176950974Y-91228794D01*
X176951505Y-91221386D01*
X176965000Y-91189000D01*
X176980000Y-91148500D01*
X176995000Y-91103500D01*
X177010000Y-91054000D01*
X177022620Y-91008569D01*
X177028136Y-91001514D01*
X177033893Y-91000000D01*
X177316107Y-91000000D01*
X177324380Y-91003427D01*
G37*
G04 #@! TD.AperFunction*
G04 #@! TA.AperFunction,Conductor*
G36*
X175235070Y-84940075D02*
G01*
X175236331Y-84943119D01*
X175447263Y-85764351D01*
X175447584Y-85768312D01*
X175446310Y-85782450D01*
X175445457Y-85785899D01*
X175435008Y-85810980D01*
X175435000Y-85811000D01*
X175427730Y-85830626D01*
X175419999Y-85851501D01*
X175404992Y-85896521D01*
X175389998Y-85946002D01*
X175377380Y-85991431D01*
X175371864Y-85998486D01*
X175366107Y-86000000D01*
X175083893Y-86000000D01*
X175075620Y-85996573D01*
X175072620Y-85991431D01*
X175060001Y-85946002D01*
X175045007Y-85896521D01*
X175030000Y-85851501D01*
X175030000Y-85851500D01*
X175015000Y-85811000D01*
X175004533Y-85785879D01*
X175003685Y-85782449D01*
X175002411Y-85768314D01*
X175002731Y-85764365D01*
X175213668Y-84943116D01*
X175219044Y-84935959D01*
X175227910Y-84934698D01*
X175235070Y-84940075D01*
G37*
G04 #@! TD.AperFunction*
M02*
