%TF.GenerationSoftware,KiCad,Pcbnew,8.0.5*%
%TF.CreationDate,2024-09-14T16:10:26+01:00*%
%TF.ProjectId,DataShield,44617461-5368-4696-956c-642e6b696361,rev?*%
%TF.SameCoordinates,Original*%
%TF.FileFunction,Drillmap*%
%TF.FilePolarity,Positive*%
%FSLAX45Y45*%
G04 Gerber Fmt 4.5, Leading zero omitted, Abs format (unit mm)*
G04 Created by KiCad (PCBNEW 8.0.5) date 2024-09-14 16:10:26*
%MOMM*%
%LPD*%
G01*
G04 APERTURE LIST*
%ADD10C,0.150000*%
%ADD11C,0.200000*%
%ADD12C,0.320000*%
G04 APERTURE END LIST*
D10*
X16950000Y-6150000D02*
X16950000Y-10000000D01*
X19906000Y-5936000D02*
X20160000Y-6190000D01*
X20160000Y-6190000D02*
X20160000Y-9619000D01*
X16700000Y-4666000D02*
X16700000Y-5900000D01*
X19829800Y-10000000D02*
X16950000Y-10000000D01*
X16700000Y-4666000D02*
X19652000Y-4666000D01*
X20160000Y-9619000D02*
X19906000Y-9873000D01*
X19652000Y-4666000D02*
X19906000Y-4920000D01*
X19906000Y-9923800D02*
G75*
G02*
X19829800Y-10000000I-76200J0D01*
G01*
X16700000Y-5900000D02*
X16950000Y-6150000D01*
X19906000Y-4920000D02*
X19906000Y-5936000D01*
X19906000Y-9873000D02*
X19906000Y-9923800D01*
D11*
D12*
X18857000Y-4760000D02*
X19177000Y-5080000D01*
X19177000Y-4760000D02*
X18857000Y-5080000D01*
X19492000Y-9586000D02*
X19812000Y-9906000D01*
X19812000Y-9586000D02*
X19492000Y-9906000D01*
D11*
X16953277Y-10318984D02*
X16953277Y-10118984D01*
X16953277Y-10118984D02*
X17000896Y-10118984D01*
X17000896Y-10118984D02*
X17029467Y-10128508D01*
X17029467Y-10128508D02*
X17048515Y-10147555D01*
X17048515Y-10147555D02*
X17058039Y-10166603D01*
X17058039Y-10166603D02*
X17067563Y-10204698D01*
X17067563Y-10204698D02*
X17067563Y-10233270D01*
X17067563Y-10233270D02*
X17058039Y-10271365D01*
X17058039Y-10271365D02*
X17048515Y-10290412D01*
X17048515Y-10290412D02*
X17029467Y-10309460D01*
X17029467Y-10309460D02*
X17000896Y-10318984D01*
X17000896Y-10318984D02*
X16953277Y-10318984D01*
X17153277Y-10318984D02*
X17153277Y-10185650D01*
X17153277Y-10223746D02*
X17162801Y-10204698D01*
X17162801Y-10204698D02*
X17172324Y-10195174D01*
X17172324Y-10195174D02*
X17191372Y-10185650D01*
X17191372Y-10185650D02*
X17210420Y-10185650D01*
X17277086Y-10318984D02*
X17277086Y-10185650D01*
X17277086Y-10118984D02*
X17267563Y-10128508D01*
X17267563Y-10128508D02*
X17277086Y-10138031D01*
X17277086Y-10138031D02*
X17286610Y-10128508D01*
X17286610Y-10128508D02*
X17277086Y-10118984D01*
X17277086Y-10118984D02*
X17277086Y-10138031D01*
X17400896Y-10318984D02*
X17381848Y-10309460D01*
X17381848Y-10309460D02*
X17372324Y-10290412D01*
X17372324Y-10290412D02*
X17372324Y-10118984D01*
X17505658Y-10318984D02*
X17486610Y-10309460D01*
X17486610Y-10309460D02*
X17477086Y-10290412D01*
X17477086Y-10290412D02*
X17477086Y-10118984D01*
X17734229Y-10318984D02*
X17734229Y-10118984D01*
X17734229Y-10118984D02*
X17800896Y-10261841D01*
X17800896Y-10261841D02*
X17867563Y-10118984D01*
X17867563Y-10118984D02*
X17867563Y-10318984D01*
X18048515Y-10318984D02*
X18048515Y-10214222D01*
X18048515Y-10214222D02*
X18038991Y-10195174D01*
X18038991Y-10195174D02*
X18019944Y-10185650D01*
X18019944Y-10185650D02*
X17981848Y-10185650D01*
X17981848Y-10185650D02*
X17962801Y-10195174D01*
X18048515Y-10309460D02*
X18029467Y-10318984D01*
X18029467Y-10318984D02*
X17981848Y-10318984D01*
X17981848Y-10318984D02*
X17962801Y-10309460D01*
X17962801Y-10309460D02*
X17953277Y-10290412D01*
X17953277Y-10290412D02*
X17953277Y-10271365D01*
X17953277Y-10271365D02*
X17962801Y-10252317D01*
X17962801Y-10252317D02*
X17981848Y-10242793D01*
X17981848Y-10242793D02*
X18029467Y-10242793D01*
X18029467Y-10242793D02*
X18048515Y-10233270D01*
X18143753Y-10185650D02*
X18143753Y-10385650D01*
X18143753Y-10195174D02*
X18162801Y-10185650D01*
X18162801Y-10185650D02*
X18200896Y-10185650D01*
X18200896Y-10185650D02*
X18219944Y-10195174D01*
X18219944Y-10195174D02*
X18229467Y-10204698D01*
X18229467Y-10204698D02*
X18238991Y-10223746D01*
X18238991Y-10223746D02*
X18238991Y-10280889D01*
X18238991Y-10280889D02*
X18229467Y-10299936D01*
X18229467Y-10299936D02*
X18219944Y-10309460D01*
X18219944Y-10309460D02*
X18200896Y-10318984D01*
X18200896Y-10318984D02*
X18162801Y-10318984D01*
X18162801Y-10318984D02*
X18143753Y-10309460D01*
X18324705Y-10299936D02*
X18334229Y-10309460D01*
X18334229Y-10309460D02*
X18324705Y-10318984D01*
X18324705Y-10318984D02*
X18315182Y-10309460D01*
X18315182Y-10309460D02*
X18324705Y-10299936D01*
X18324705Y-10299936D02*
X18324705Y-10318984D01*
X18324705Y-10195174D02*
X18334229Y-10204698D01*
X18334229Y-10204698D02*
X18324705Y-10214222D01*
X18324705Y-10214222D02*
X18315182Y-10204698D01*
X18315182Y-10204698D02*
X18324705Y-10195174D01*
X18324705Y-10195174D02*
X18324705Y-10214222D01*
X16492500Y-10547500D02*
X16692500Y-10747500D01*
X16692500Y-10547500D02*
X16492500Y-10747500D01*
X16934229Y-10538984D02*
X17058039Y-10538984D01*
X17058039Y-10538984D02*
X16991372Y-10615174D01*
X16991372Y-10615174D02*
X17019944Y-10615174D01*
X17019944Y-10615174D02*
X17038991Y-10624698D01*
X17038991Y-10624698D02*
X17048515Y-10634222D01*
X17048515Y-10634222D02*
X17058039Y-10653270D01*
X17058039Y-10653270D02*
X17058039Y-10700889D01*
X17058039Y-10700889D02*
X17048515Y-10719936D01*
X17048515Y-10719936D02*
X17038991Y-10729460D01*
X17038991Y-10729460D02*
X17019944Y-10738984D01*
X17019944Y-10738984D02*
X16962801Y-10738984D01*
X16962801Y-10738984D02*
X16943753Y-10729460D01*
X16943753Y-10729460D02*
X16934229Y-10719936D01*
X17143753Y-10719936D02*
X17153277Y-10729460D01*
X17153277Y-10729460D02*
X17143753Y-10738984D01*
X17143753Y-10738984D02*
X17134229Y-10729460D01*
X17134229Y-10729460D02*
X17143753Y-10719936D01*
X17143753Y-10719936D02*
X17143753Y-10738984D01*
X17229467Y-10558031D02*
X17238991Y-10548508D01*
X17238991Y-10548508D02*
X17258039Y-10538984D01*
X17258039Y-10538984D02*
X17305658Y-10538984D01*
X17305658Y-10538984D02*
X17324705Y-10548508D01*
X17324705Y-10548508D02*
X17334229Y-10558031D01*
X17334229Y-10558031D02*
X17343753Y-10577079D01*
X17343753Y-10577079D02*
X17343753Y-10596127D01*
X17343753Y-10596127D02*
X17334229Y-10624698D01*
X17334229Y-10624698D02*
X17219944Y-10738984D01*
X17219944Y-10738984D02*
X17343753Y-10738984D01*
X17467563Y-10538984D02*
X17486610Y-10538984D01*
X17486610Y-10538984D02*
X17505658Y-10548508D01*
X17505658Y-10548508D02*
X17515182Y-10558031D01*
X17515182Y-10558031D02*
X17524705Y-10577079D01*
X17524705Y-10577079D02*
X17534229Y-10615174D01*
X17534229Y-10615174D02*
X17534229Y-10662793D01*
X17534229Y-10662793D02*
X17524705Y-10700889D01*
X17524705Y-10700889D02*
X17515182Y-10719936D01*
X17515182Y-10719936D02*
X17505658Y-10729460D01*
X17505658Y-10729460D02*
X17486610Y-10738984D01*
X17486610Y-10738984D02*
X17467563Y-10738984D01*
X17467563Y-10738984D02*
X17448515Y-10729460D01*
X17448515Y-10729460D02*
X17438991Y-10719936D01*
X17438991Y-10719936D02*
X17429467Y-10700889D01*
X17429467Y-10700889D02*
X17419944Y-10662793D01*
X17419944Y-10662793D02*
X17419944Y-10615174D01*
X17419944Y-10615174D02*
X17429467Y-10577079D01*
X17429467Y-10577079D02*
X17438991Y-10558031D01*
X17438991Y-10558031D02*
X17448515Y-10548508D01*
X17448515Y-10548508D02*
X17467563Y-10538984D01*
X17658039Y-10538984D02*
X17677086Y-10538984D01*
X17677086Y-10538984D02*
X17696134Y-10548508D01*
X17696134Y-10548508D02*
X17705658Y-10558031D01*
X17705658Y-10558031D02*
X17715182Y-10577079D01*
X17715182Y-10577079D02*
X17724705Y-10615174D01*
X17724705Y-10615174D02*
X17724705Y-10662793D01*
X17724705Y-10662793D02*
X17715182Y-10700889D01*
X17715182Y-10700889D02*
X17705658Y-10719936D01*
X17705658Y-10719936D02*
X17696134Y-10729460D01*
X17696134Y-10729460D02*
X17677086Y-10738984D01*
X17677086Y-10738984D02*
X17658039Y-10738984D01*
X17658039Y-10738984D02*
X17638991Y-10729460D01*
X17638991Y-10729460D02*
X17629467Y-10719936D01*
X17629467Y-10719936D02*
X17619944Y-10700889D01*
X17619944Y-10700889D02*
X17610420Y-10662793D01*
X17610420Y-10662793D02*
X17610420Y-10615174D01*
X17610420Y-10615174D02*
X17619944Y-10577079D01*
X17619944Y-10577079D02*
X17629467Y-10558031D01*
X17629467Y-10558031D02*
X17638991Y-10548508D01*
X17638991Y-10548508D02*
X17658039Y-10538984D01*
X17810420Y-10738984D02*
X17810420Y-10605650D01*
X17810420Y-10624698D02*
X17819944Y-10615174D01*
X17819944Y-10615174D02*
X17838991Y-10605650D01*
X17838991Y-10605650D02*
X17867563Y-10605650D01*
X17867563Y-10605650D02*
X17886610Y-10615174D01*
X17886610Y-10615174D02*
X17896134Y-10634222D01*
X17896134Y-10634222D02*
X17896134Y-10738984D01*
X17896134Y-10634222D02*
X17905658Y-10615174D01*
X17905658Y-10615174D02*
X17924705Y-10605650D01*
X17924705Y-10605650D02*
X17953277Y-10605650D01*
X17953277Y-10605650D02*
X17972325Y-10615174D01*
X17972325Y-10615174D02*
X17981848Y-10634222D01*
X17981848Y-10634222D02*
X17981848Y-10738984D01*
X18077086Y-10738984D02*
X18077086Y-10605650D01*
X18077086Y-10624698D02*
X18086610Y-10615174D01*
X18086610Y-10615174D02*
X18105658Y-10605650D01*
X18105658Y-10605650D02*
X18134229Y-10605650D01*
X18134229Y-10605650D02*
X18153277Y-10615174D01*
X18153277Y-10615174D02*
X18162801Y-10634222D01*
X18162801Y-10634222D02*
X18162801Y-10738984D01*
X18162801Y-10634222D02*
X18172325Y-10615174D01*
X18172325Y-10615174D02*
X18191372Y-10605650D01*
X18191372Y-10605650D02*
X18219944Y-10605650D01*
X18219944Y-10605650D02*
X18238991Y-10615174D01*
X18238991Y-10615174D02*
X18248515Y-10634222D01*
X18248515Y-10634222D02*
X18248515Y-10738984D01*
X18638991Y-10529460D02*
X18467563Y-10786603D01*
X18896134Y-10538984D02*
X18915182Y-10538984D01*
X18915182Y-10538984D02*
X18934229Y-10548508D01*
X18934229Y-10548508D02*
X18943753Y-10558031D01*
X18943753Y-10558031D02*
X18953277Y-10577079D01*
X18953277Y-10577079D02*
X18962801Y-10615174D01*
X18962801Y-10615174D02*
X18962801Y-10662793D01*
X18962801Y-10662793D02*
X18953277Y-10700889D01*
X18953277Y-10700889D02*
X18943753Y-10719936D01*
X18943753Y-10719936D02*
X18934229Y-10729460D01*
X18934229Y-10729460D02*
X18915182Y-10738984D01*
X18915182Y-10738984D02*
X18896134Y-10738984D01*
X18896134Y-10738984D02*
X18877087Y-10729460D01*
X18877087Y-10729460D02*
X18867563Y-10719936D01*
X18867563Y-10719936D02*
X18858039Y-10700889D01*
X18858039Y-10700889D02*
X18848515Y-10662793D01*
X18848515Y-10662793D02*
X18848515Y-10615174D01*
X18848515Y-10615174D02*
X18858039Y-10577079D01*
X18858039Y-10577079D02*
X18867563Y-10558031D01*
X18867563Y-10558031D02*
X18877087Y-10548508D01*
X18877087Y-10548508D02*
X18896134Y-10538984D01*
X19048515Y-10719936D02*
X19058039Y-10729460D01*
X19058039Y-10729460D02*
X19048515Y-10738984D01*
X19048515Y-10738984D02*
X19038991Y-10729460D01*
X19038991Y-10729460D02*
X19048515Y-10719936D01*
X19048515Y-10719936D02*
X19048515Y-10738984D01*
X19248515Y-10738984D02*
X19134229Y-10738984D01*
X19191372Y-10738984D02*
X19191372Y-10538984D01*
X19191372Y-10538984D02*
X19172325Y-10567555D01*
X19172325Y-10567555D02*
X19153277Y-10586603D01*
X19153277Y-10586603D02*
X19134229Y-10596127D01*
X19324706Y-10558031D02*
X19334229Y-10548508D01*
X19334229Y-10548508D02*
X19353277Y-10538984D01*
X19353277Y-10538984D02*
X19400896Y-10538984D01*
X19400896Y-10538984D02*
X19419944Y-10548508D01*
X19419944Y-10548508D02*
X19429468Y-10558031D01*
X19429468Y-10558031D02*
X19438991Y-10577079D01*
X19438991Y-10577079D02*
X19438991Y-10596127D01*
X19438991Y-10596127D02*
X19429468Y-10624698D01*
X19429468Y-10624698D02*
X19315182Y-10738984D01*
X19315182Y-10738984D02*
X19438991Y-10738984D01*
X19610420Y-10538984D02*
X19572325Y-10538984D01*
X19572325Y-10538984D02*
X19553277Y-10548508D01*
X19553277Y-10548508D02*
X19543753Y-10558031D01*
X19543753Y-10558031D02*
X19524706Y-10586603D01*
X19524706Y-10586603D02*
X19515182Y-10624698D01*
X19515182Y-10624698D02*
X19515182Y-10700889D01*
X19515182Y-10700889D02*
X19524706Y-10719936D01*
X19524706Y-10719936D02*
X19534229Y-10729460D01*
X19534229Y-10729460D02*
X19553277Y-10738984D01*
X19553277Y-10738984D02*
X19591372Y-10738984D01*
X19591372Y-10738984D02*
X19610420Y-10729460D01*
X19610420Y-10729460D02*
X19619944Y-10719936D01*
X19619944Y-10719936D02*
X19629468Y-10700889D01*
X19629468Y-10700889D02*
X19629468Y-10653270D01*
X19629468Y-10653270D02*
X19619944Y-10634222D01*
X19619944Y-10634222D02*
X19610420Y-10624698D01*
X19610420Y-10624698D02*
X19591372Y-10615174D01*
X19591372Y-10615174D02*
X19553277Y-10615174D01*
X19553277Y-10615174D02*
X19534229Y-10624698D01*
X19534229Y-10624698D02*
X19524706Y-10634222D01*
X19524706Y-10634222D02*
X19515182Y-10653270D01*
X19753277Y-10538984D02*
X19772325Y-10538984D01*
X19772325Y-10538984D02*
X19791372Y-10548508D01*
X19791372Y-10548508D02*
X19800896Y-10558031D01*
X19800896Y-10558031D02*
X19810420Y-10577079D01*
X19810420Y-10577079D02*
X19819944Y-10615174D01*
X19819944Y-10615174D02*
X19819944Y-10662793D01*
X19819944Y-10662793D02*
X19810420Y-10700889D01*
X19810420Y-10700889D02*
X19800896Y-10719936D01*
X19800896Y-10719936D02*
X19791372Y-10729460D01*
X19791372Y-10729460D02*
X19772325Y-10738984D01*
X19772325Y-10738984D02*
X19753277Y-10738984D01*
X19753277Y-10738984D02*
X19734229Y-10729460D01*
X19734229Y-10729460D02*
X19724706Y-10719936D01*
X19724706Y-10719936D02*
X19715182Y-10700889D01*
X19715182Y-10700889D02*
X19705658Y-10662793D01*
X19705658Y-10662793D02*
X19705658Y-10615174D01*
X19705658Y-10615174D02*
X19715182Y-10577079D01*
X19715182Y-10577079D02*
X19724706Y-10558031D01*
X19724706Y-10558031D02*
X19734229Y-10548508D01*
X19734229Y-10548508D02*
X19753277Y-10538984D01*
X19896134Y-10538984D02*
X19896134Y-10577079D01*
X19972325Y-10538984D02*
X19972325Y-10577079D01*
X20267563Y-10815174D02*
X20258039Y-10805650D01*
X20258039Y-10805650D02*
X20238991Y-10777079D01*
X20238991Y-10777079D02*
X20229468Y-10758031D01*
X20229468Y-10758031D02*
X20219944Y-10729460D01*
X20219944Y-10729460D02*
X20210420Y-10681841D01*
X20210420Y-10681841D02*
X20210420Y-10643746D01*
X20210420Y-10643746D02*
X20219944Y-10596127D01*
X20219944Y-10596127D02*
X20229468Y-10567555D01*
X20229468Y-10567555D02*
X20238991Y-10548508D01*
X20238991Y-10548508D02*
X20258039Y-10519936D01*
X20258039Y-10519936D02*
X20267563Y-10510412D01*
X20334230Y-10558031D02*
X20343753Y-10548508D01*
X20343753Y-10548508D02*
X20362801Y-10538984D01*
X20362801Y-10538984D02*
X20410420Y-10538984D01*
X20410420Y-10538984D02*
X20429468Y-10548508D01*
X20429468Y-10548508D02*
X20438991Y-10558031D01*
X20438991Y-10558031D02*
X20448515Y-10577079D01*
X20448515Y-10577079D02*
X20448515Y-10596127D01*
X20448515Y-10596127D02*
X20438991Y-10624698D01*
X20438991Y-10624698D02*
X20324706Y-10738984D01*
X20324706Y-10738984D02*
X20448515Y-10738984D01*
X20686611Y-10738984D02*
X20686611Y-10538984D01*
X20772325Y-10738984D02*
X20772325Y-10634222D01*
X20772325Y-10634222D02*
X20762801Y-10615174D01*
X20762801Y-10615174D02*
X20743753Y-10605650D01*
X20743753Y-10605650D02*
X20715182Y-10605650D01*
X20715182Y-10605650D02*
X20696134Y-10615174D01*
X20696134Y-10615174D02*
X20686611Y-10624698D01*
X20896134Y-10738984D02*
X20877087Y-10729460D01*
X20877087Y-10729460D02*
X20867563Y-10719936D01*
X20867563Y-10719936D02*
X20858039Y-10700889D01*
X20858039Y-10700889D02*
X20858039Y-10643746D01*
X20858039Y-10643746D02*
X20867563Y-10624698D01*
X20867563Y-10624698D02*
X20877087Y-10615174D01*
X20877087Y-10615174D02*
X20896134Y-10605650D01*
X20896134Y-10605650D02*
X20924706Y-10605650D01*
X20924706Y-10605650D02*
X20943753Y-10615174D01*
X20943753Y-10615174D02*
X20953277Y-10624698D01*
X20953277Y-10624698D02*
X20962801Y-10643746D01*
X20962801Y-10643746D02*
X20962801Y-10700889D01*
X20962801Y-10700889D02*
X20953277Y-10719936D01*
X20953277Y-10719936D02*
X20943753Y-10729460D01*
X20943753Y-10729460D02*
X20924706Y-10738984D01*
X20924706Y-10738984D02*
X20896134Y-10738984D01*
X21077087Y-10738984D02*
X21058039Y-10729460D01*
X21058039Y-10729460D02*
X21048515Y-10710412D01*
X21048515Y-10710412D02*
X21048515Y-10538984D01*
X21229468Y-10729460D02*
X21210420Y-10738984D01*
X21210420Y-10738984D02*
X21172325Y-10738984D01*
X21172325Y-10738984D02*
X21153277Y-10729460D01*
X21153277Y-10729460D02*
X21143753Y-10710412D01*
X21143753Y-10710412D02*
X21143753Y-10634222D01*
X21143753Y-10634222D02*
X21153277Y-10615174D01*
X21153277Y-10615174D02*
X21172325Y-10605650D01*
X21172325Y-10605650D02*
X21210420Y-10605650D01*
X21210420Y-10605650D02*
X21229468Y-10615174D01*
X21229468Y-10615174D02*
X21238992Y-10634222D01*
X21238992Y-10634222D02*
X21238992Y-10653270D01*
X21238992Y-10653270D02*
X21143753Y-10672317D01*
X21315182Y-10729460D02*
X21334230Y-10738984D01*
X21334230Y-10738984D02*
X21372325Y-10738984D01*
X21372325Y-10738984D02*
X21391373Y-10729460D01*
X21391373Y-10729460D02*
X21400896Y-10710412D01*
X21400896Y-10710412D02*
X21400896Y-10700889D01*
X21400896Y-10700889D02*
X21391373Y-10681841D01*
X21391373Y-10681841D02*
X21372325Y-10672317D01*
X21372325Y-10672317D02*
X21343753Y-10672317D01*
X21343753Y-10672317D02*
X21324706Y-10662793D01*
X21324706Y-10662793D02*
X21315182Y-10643746D01*
X21315182Y-10643746D02*
X21315182Y-10634222D01*
X21315182Y-10634222D02*
X21324706Y-10615174D01*
X21324706Y-10615174D02*
X21343753Y-10605650D01*
X21343753Y-10605650D02*
X21372325Y-10605650D01*
X21372325Y-10605650D02*
X21391373Y-10615174D01*
X21467563Y-10815174D02*
X21477087Y-10805650D01*
X21477087Y-10805650D02*
X21496134Y-10777079D01*
X21496134Y-10777079D02*
X21505658Y-10758031D01*
X21505658Y-10758031D02*
X21515182Y-10729460D01*
X21515182Y-10729460D02*
X21524706Y-10681841D01*
X21524706Y-10681841D02*
X21524706Y-10643746D01*
X21524706Y-10643746D02*
X21515182Y-10596127D01*
X21515182Y-10596127D02*
X21505658Y-10567555D01*
X21505658Y-10567555D02*
X21496134Y-10548508D01*
X21496134Y-10548508D02*
X21477087Y-10519936D01*
X21477087Y-10519936D02*
X21467563Y-10510412D01*
X21829468Y-10815174D02*
X21819944Y-10805650D01*
X21819944Y-10805650D02*
X21800896Y-10777079D01*
X21800896Y-10777079D02*
X21791373Y-10758031D01*
X21791373Y-10758031D02*
X21781849Y-10729460D01*
X21781849Y-10729460D02*
X21772325Y-10681841D01*
X21772325Y-10681841D02*
X21772325Y-10643746D01*
X21772325Y-10643746D02*
X21781849Y-10596127D01*
X21781849Y-10596127D02*
X21791373Y-10567555D01*
X21791373Y-10567555D02*
X21800896Y-10548508D01*
X21800896Y-10548508D02*
X21819944Y-10519936D01*
X21819944Y-10519936D02*
X21829468Y-10510412D01*
X21905658Y-10605650D02*
X21905658Y-10738984D01*
X21905658Y-10624698D02*
X21915182Y-10615174D01*
X21915182Y-10615174D02*
X21934230Y-10605650D01*
X21934230Y-10605650D02*
X21962801Y-10605650D01*
X21962801Y-10605650D02*
X21981849Y-10615174D01*
X21981849Y-10615174D02*
X21991373Y-10634222D01*
X21991373Y-10634222D02*
X21991373Y-10738984D01*
X22115182Y-10738984D02*
X22096134Y-10729460D01*
X22096134Y-10729460D02*
X22086611Y-10719936D01*
X22086611Y-10719936D02*
X22077087Y-10700889D01*
X22077087Y-10700889D02*
X22077087Y-10643746D01*
X22077087Y-10643746D02*
X22086611Y-10624698D01*
X22086611Y-10624698D02*
X22096134Y-10615174D01*
X22096134Y-10615174D02*
X22115182Y-10605650D01*
X22115182Y-10605650D02*
X22143754Y-10605650D01*
X22143754Y-10605650D02*
X22162801Y-10615174D01*
X22162801Y-10615174D02*
X22172325Y-10624698D01*
X22172325Y-10624698D02*
X22181849Y-10643746D01*
X22181849Y-10643746D02*
X22181849Y-10700889D01*
X22181849Y-10700889D02*
X22172325Y-10719936D01*
X22172325Y-10719936D02*
X22162801Y-10729460D01*
X22162801Y-10729460D02*
X22143754Y-10738984D01*
X22143754Y-10738984D02*
X22115182Y-10738984D01*
X22238992Y-10605650D02*
X22315182Y-10605650D01*
X22267563Y-10538984D02*
X22267563Y-10710412D01*
X22267563Y-10710412D02*
X22277087Y-10729460D01*
X22277087Y-10729460D02*
X22296134Y-10738984D01*
X22296134Y-10738984D02*
X22315182Y-10738984D01*
X22534230Y-10605650D02*
X22534230Y-10805650D01*
X22534230Y-10615174D02*
X22553277Y-10605650D01*
X22553277Y-10605650D02*
X22591373Y-10605650D01*
X22591373Y-10605650D02*
X22610420Y-10615174D01*
X22610420Y-10615174D02*
X22619944Y-10624698D01*
X22619944Y-10624698D02*
X22629468Y-10643746D01*
X22629468Y-10643746D02*
X22629468Y-10700889D01*
X22629468Y-10700889D02*
X22619944Y-10719936D01*
X22619944Y-10719936D02*
X22610420Y-10729460D01*
X22610420Y-10729460D02*
X22591373Y-10738984D01*
X22591373Y-10738984D02*
X22553277Y-10738984D01*
X22553277Y-10738984D02*
X22534230Y-10729460D01*
X22743753Y-10738984D02*
X22724706Y-10729460D01*
X22724706Y-10729460D02*
X22715182Y-10710412D01*
X22715182Y-10710412D02*
X22715182Y-10538984D01*
X22905658Y-10738984D02*
X22905658Y-10634222D01*
X22905658Y-10634222D02*
X22896134Y-10615174D01*
X22896134Y-10615174D02*
X22877087Y-10605650D01*
X22877087Y-10605650D02*
X22838992Y-10605650D01*
X22838992Y-10605650D02*
X22819944Y-10615174D01*
X22905658Y-10729460D02*
X22886611Y-10738984D01*
X22886611Y-10738984D02*
X22838992Y-10738984D01*
X22838992Y-10738984D02*
X22819944Y-10729460D01*
X22819944Y-10729460D02*
X22810420Y-10710412D01*
X22810420Y-10710412D02*
X22810420Y-10691365D01*
X22810420Y-10691365D02*
X22819944Y-10672317D01*
X22819944Y-10672317D02*
X22838992Y-10662793D01*
X22838992Y-10662793D02*
X22886611Y-10662793D01*
X22886611Y-10662793D02*
X22905658Y-10653270D01*
X22972325Y-10605650D02*
X23048515Y-10605650D01*
X23000896Y-10538984D02*
X23000896Y-10710412D01*
X23000896Y-10710412D02*
X23010420Y-10729460D01*
X23010420Y-10729460D02*
X23029468Y-10738984D01*
X23029468Y-10738984D02*
X23048515Y-10738984D01*
X23191373Y-10729460D02*
X23172325Y-10738984D01*
X23172325Y-10738984D02*
X23134230Y-10738984D01*
X23134230Y-10738984D02*
X23115182Y-10729460D01*
X23115182Y-10729460D02*
X23105658Y-10710412D01*
X23105658Y-10710412D02*
X23105658Y-10634222D01*
X23105658Y-10634222D02*
X23115182Y-10615174D01*
X23115182Y-10615174D02*
X23134230Y-10605650D01*
X23134230Y-10605650D02*
X23172325Y-10605650D01*
X23172325Y-10605650D02*
X23191373Y-10615174D01*
X23191373Y-10615174D02*
X23200896Y-10634222D01*
X23200896Y-10634222D02*
X23200896Y-10653270D01*
X23200896Y-10653270D02*
X23105658Y-10672317D01*
X23372325Y-10738984D02*
X23372325Y-10538984D01*
X23372325Y-10729460D02*
X23353277Y-10738984D01*
X23353277Y-10738984D02*
X23315182Y-10738984D01*
X23315182Y-10738984D02*
X23296134Y-10729460D01*
X23296134Y-10729460D02*
X23286611Y-10719936D01*
X23286611Y-10719936D02*
X23277087Y-10700889D01*
X23277087Y-10700889D02*
X23277087Y-10643746D01*
X23277087Y-10643746D02*
X23286611Y-10624698D01*
X23286611Y-10624698D02*
X23296134Y-10615174D01*
X23296134Y-10615174D02*
X23315182Y-10605650D01*
X23315182Y-10605650D02*
X23353277Y-10605650D01*
X23353277Y-10605650D02*
X23372325Y-10615174D01*
X23448515Y-10815174D02*
X23458039Y-10805650D01*
X23458039Y-10805650D02*
X23477087Y-10777079D01*
X23477087Y-10777079D02*
X23486611Y-10758031D01*
X23486611Y-10758031D02*
X23496134Y-10729460D01*
X23496134Y-10729460D02*
X23505658Y-10681841D01*
X23505658Y-10681841D02*
X23505658Y-10643746D01*
X23505658Y-10643746D02*
X23496134Y-10596127D01*
X23496134Y-10596127D02*
X23486611Y-10567555D01*
X23486611Y-10567555D02*
X23477087Y-10548508D01*
X23477087Y-10548508D02*
X23458039Y-10519936D01*
X23458039Y-10519936D02*
X23448515Y-10510412D01*
M02*
