%TF.GenerationSoftware,KiCad,Pcbnew,8.0.5*%
%TF.CreationDate,2024-09-14T16:18:57+01:00*%
%TF.ProjectId,RotationEncoder,526f7461-7469-46f6-9e45-6e636f646572,rev?*%
%TF.SameCoordinates,Original*%
%TF.FileFunction,Drillmap*%
%TF.FilePolarity,Positive*%
%FSLAX45Y45*%
G04 Gerber Fmt 4.5, Leading zero omitted, Abs format (unit mm)*
G04 Created by KiCad (PCBNEW 8.0.5) date 2024-09-14 16:18:57*
%MOMM*%
%LPD*%
G01*
G04 APERTURE LIST*
%ADD10C,0.050000*%
%ADD11C,0.200000*%
%ADD12C,0.320000*%
G04 APERTURE END LIST*
D10*
X12000000Y-8000000D02*
X17000000Y-8000000D01*
X17000000Y-10500000D01*
X12000000Y-10500000D01*
X12000000Y-8000000D01*
D11*
D12*
X12190000Y-8840000D02*
X12510000Y-9160000D01*
X12510000Y-8840000D02*
X12190000Y-9160000D01*
X16490000Y-8840000D02*
X16810000Y-9160000D01*
X16810000Y-8840000D02*
X16490000Y-9160000D01*
D11*
X12258277Y-10813984D02*
X12258277Y-10613984D01*
X12258277Y-10613984D02*
X12305896Y-10613984D01*
X12305896Y-10613984D02*
X12334467Y-10623508D01*
X12334467Y-10623508D02*
X12353515Y-10642555D01*
X12353515Y-10642555D02*
X12363039Y-10661603D01*
X12363039Y-10661603D02*
X12372562Y-10699698D01*
X12372562Y-10699698D02*
X12372562Y-10728270D01*
X12372562Y-10728270D02*
X12363039Y-10766365D01*
X12363039Y-10766365D02*
X12353515Y-10785412D01*
X12353515Y-10785412D02*
X12334467Y-10804460D01*
X12334467Y-10804460D02*
X12305896Y-10813984D01*
X12305896Y-10813984D02*
X12258277Y-10813984D01*
X12458277Y-10813984D02*
X12458277Y-10680650D01*
X12458277Y-10718746D02*
X12467801Y-10699698D01*
X12467801Y-10699698D02*
X12477324Y-10690174D01*
X12477324Y-10690174D02*
X12496372Y-10680650D01*
X12496372Y-10680650D02*
X12515420Y-10680650D01*
X12582086Y-10813984D02*
X12582086Y-10680650D01*
X12582086Y-10613984D02*
X12572562Y-10623508D01*
X12572562Y-10623508D02*
X12582086Y-10633031D01*
X12582086Y-10633031D02*
X12591610Y-10623508D01*
X12591610Y-10623508D02*
X12582086Y-10613984D01*
X12582086Y-10613984D02*
X12582086Y-10633031D01*
X12705896Y-10813984D02*
X12686848Y-10804460D01*
X12686848Y-10804460D02*
X12677324Y-10785412D01*
X12677324Y-10785412D02*
X12677324Y-10613984D01*
X12810658Y-10813984D02*
X12791610Y-10804460D01*
X12791610Y-10804460D02*
X12782086Y-10785412D01*
X12782086Y-10785412D02*
X12782086Y-10613984D01*
X13039229Y-10813984D02*
X13039229Y-10613984D01*
X13039229Y-10613984D02*
X13105896Y-10756841D01*
X13105896Y-10756841D02*
X13172562Y-10613984D01*
X13172562Y-10613984D02*
X13172562Y-10813984D01*
X13353515Y-10813984D02*
X13353515Y-10709222D01*
X13353515Y-10709222D02*
X13343991Y-10690174D01*
X13343991Y-10690174D02*
X13324943Y-10680650D01*
X13324943Y-10680650D02*
X13286848Y-10680650D01*
X13286848Y-10680650D02*
X13267801Y-10690174D01*
X13353515Y-10804460D02*
X13334467Y-10813984D01*
X13334467Y-10813984D02*
X13286848Y-10813984D01*
X13286848Y-10813984D02*
X13267801Y-10804460D01*
X13267801Y-10804460D02*
X13258277Y-10785412D01*
X13258277Y-10785412D02*
X13258277Y-10766365D01*
X13258277Y-10766365D02*
X13267801Y-10747317D01*
X13267801Y-10747317D02*
X13286848Y-10737793D01*
X13286848Y-10737793D02*
X13334467Y-10737793D01*
X13334467Y-10737793D02*
X13353515Y-10728270D01*
X13448753Y-10680650D02*
X13448753Y-10880650D01*
X13448753Y-10690174D02*
X13467801Y-10680650D01*
X13467801Y-10680650D02*
X13505896Y-10680650D01*
X13505896Y-10680650D02*
X13524943Y-10690174D01*
X13524943Y-10690174D02*
X13534467Y-10699698D01*
X13534467Y-10699698D02*
X13543991Y-10718746D01*
X13543991Y-10718746D02*
X13543991Y-10775889D01*
X13543991Y-10775889D02*
X13534467Y-10794936D01*
X13534467Y-10794936D02*
X13524943Y-10804460D01*
X13524943Y-10804460D02*
X13505896Y-10813984D01*
X13505896Y-10813984D02*
X13467801Y-10813984D01*
X13467801Y-10813984D02*
X13448753Y-10804460D01*
X13629705Y-10794936D02*
X13639229Y-10804460D01*
X13639229Y-10804460D02*
X13629705Y-10813984D01*
X13629705Y-10813984D02*
X13620182Y-10804460D01*
X13620182Y-10804460D02*
X13629705Y-10794936D01*
X13629705Y-10794936D02*
X13629705Y-10813984D01*
X13629705Y-10690174D02*
X13639229Y-10699698D01*
X13639229Y-10699698D02*
X13629705Y-10709222D01*
X13629705Y-10709222D02*
X13620182Y-10699698D01*
X13620182Y-10699698D02*
X13629705Y-10690174D01*
X13629705Y-10690174D02*
X13629705Y-10709222D01*
X11797500Y-11042500D02*
X11997500Y-11242500D01*
X11997500Y-11042500D02*
X11797500Y-11242500D01*
X12239229Y-11033984D02*
X12363039Y-11033984D01*
X12363039Y-11033984D02*
X12296372Y-11110174D01*
X12296372Y-11110174D02*
X12324943Y-11110174D01*
X12324943Y-11110174D02*
X12343991Y-11119698D01*
X12343991Y-11119698D02*
X12353515Y-11129222D01*
X12353515Y-11129222D02*
X12363039Y-11148270D01*
X12363039Y-11148270D02*
X12363039Y-11195888D01*
X12363039Y-11195888D02*
X12353515Y-11214936D01*
X12353515Y-11214936D02*
X12343991Y-11224460D01*
X12343991Y-11224460D02*
X12324943Y-11233984D01*
X12324943Y-11233984D02*
X12267801Y-11233984D01*
X12267801Y-11233984D02*
X12248753Y-11224460D01*
X12248753Y-11224460D02*
X12239229Y-11214936D01*
X12448753Y-11214936D02*
X12458277Y-11224460D01*
X12458277Y-11224460D02*
X12448753Y-11233984D01*
X12448753Y-11233984D02*
X12439229Y-11224460D01*
X12439229Y-11224460D02*
X12448753Y-11214936D01*
X12448753Y-11214936D02*
X12448753Y-11233984D01*
X12534467Y-11053031D02*
X12543991Y-11043508D01*
X12543991Y-11043508D02*
X12563039Y-11033984D01*
X12563039Y-11033984D02*
X12610658Y-11033984D01*
X12610658Y-11033984D02*
X12629705Y-11043508D01*
X12629705Y-11043508D02*
X12639229Y-11053031D01*
X12639229Y-11053031D02*
X12648753Y-11072079D01*
X12648753Y-11072079D02*
X12648753Y-11091127D01*
X12648753Y-11091127D02*
X12639229Y-11119698D01*
X12639229Y-11119698D02*
X12524943Y-11233984D01*
X12524943Y-11233984D02*
X12648753Y-11233984D01*
X12772562Y-11033984D02*
X12791610Y-11033984D01*
X12791610Y-11033984D02*
X12810658Y-11043508D01*
X12810658Y-11043508D02*
X12820182Y-11053031D01*
X12820182Y-11053031D02*
X12829705Y-11072079D01*
X12829705Y-11072079D02*
X12839229Y-11110174D01*
X12839229Y-11110174D02*
X12839229Y-11157793D01*
X12839229Y-11157793D02*
X12829705Y-11195888D01*
X12829705Y-11195888D02*
X12820182Y-11214936D01*
X12820182Y-11214936D02*
X12810658Y-11224460D01*
X12810658Y-11224460D02*
X12791610Y-11233984D01*
X12791610Y-11233984D02*
X12772562Y-11233984D01*
X12772562Y-11233984D02*
X12753515Y-11224460D01*
X12753515Y-11224460D02*
X12743991Y-11214936D01*
X12743991Y-11214936D02*
X12734467Y-11195888D01*
X12734467Y-11195888D02*
X12724943Y-11157793D01*
X12724943Y-11157793D02*
X12724943Y-11110174D01*
X12724943Y-11110174D02*
X12734467Y-11072079D01*
X12734467Y-11072079D02*
X12743991Y-11053031D01*
X12743991Y-11053031D02*
X12753515Y-11043508D01*
X12753515Y-11043508D02*
X12772562Y-11033984D01*
X12963039Y-11033984D02*
X12982086Y-11033984D01*
X12982086Y-11033984D02*
X13001134Y-11043508D01*
X13001134Y-11043508D02*
X13010658Y-11053031D01*
X13010658Y-11053031D02*
X13020182Y-11072079D01*
X13020182Y-11072079D02*
X13029705Y-11110174D01*
X13029705Y-11110174D02*
X13029705Y-11157793D01*
X13029705Y-11157793D02*
X13020182Y-11195888D01*
X13020182Y-11195888D02*
X13010658Y-11214936D01*
X13010658Y-11214936D02*
X13001134Y-11224460D01*
X13001134Y-11224460D02*
X12982086Y-11233984D01*
X12982086Y-11233984D02*
X12963039Y-11233984D01*
X12963039Y-11233984D02*
X12943991Y-11224460D01*
X12943991Y-11224460D02*
X12934467Y-11214936D01*
X12934467Y-11214936D02*
X12924943Y-11195888D01*
X12924943Y-11195888D02*
X12915420Y-11157793D01*
X12915420Y-11157793D02*
X12915420Y-11110174D01*
X12915420Y-11110174D02*
X12924943Y-11072079D01*
X12924943Y-11072079D02*
X12934467Y-11053031D01*
X12934467Y-11053031D02*
X12943991Y-11043508D01*
X12943991Y-11043508D02*
X12963039Y-11033984D01*
X13115420Y-11233984D02*
X13115420Y-11100650D01*
X13115420Y-11119698D02*
X13124943Y-11110174D01*
X13124943Y-11110174D02*
X13143991Y-11100650D01*
X13143991Y-11100650D02*
X13172563Y-11100650D01*
X13172563Y-11100650D02*
X13191610Y-11110174D01*
X13191610Y-11110174D02*
X13201134Y-11129222D01*
X13201134Y-11129222D02*
X13201134Y-11233984D01*
X13201134Y-11129222D02*
X13210658Y-11110174D01*
X13210658Y-11110174D02*
X13229705Y-11100650D01*
X13229705Y-11100650D02*
X13258277Y-11100650D01*
X13258277Y-11100650D02*
X13277324Y-11110174D01*
X13277324Y-11110174D02*
X13286848Y-11129222D01*
X13286848Y-11129222D02*
X13286848Y-11233984D01*
X13382086Y-11233984D02*
X13382086Y-11100650D01*
X13382086Y-11119698D02*
X13391610Y-11110174D01*
X13391610Y-11110174D02*
X13410658Y-11100650D01*
X13410658Y-11100650D02*
X13439229Y-11100650D01*
X13439229Y-11100650D02*
X13458277Y-11110174D01*
X13458277Y-11110174D02*
X13467801Y-11129222D01*
X13467801Y-11129222D02*
X13467801Y-11233984D01*
X13467801Y-11129222D02*
X13477324Y-11110174D01*
X13477324Y-11110174D02*
X13496372Y-11100650D01*
X13496372Y-11100650D02*
X13524943Y-11100650D01*
X13524943Y-11100650D02*
X13543991Y-11110174D01*
X13543991Y-11110174D02*
X13553515Y-11129222D01*
X13553515Y-11129222D02*
X13553515Y-11233984D01*
X13943991Y-11024460D02*
X13772563Y-11281603D01*
X14201134Y-11033984D02*
X14220182Y-11033984D01*
X14220182Y-11033984D02*
X14239229Y-11043508D01*
X14239229Y-11043508D02*
X14248753Y-11053031D01*
X14248753Y-11053031D02*
X14258277Y-11072079D01*
X14258277Y-11072079D02*
X14267801Y-11110174D01*
X14267801Y-11110174D02*
X14267801Y-11157793D01*
X14267801Y-11157793D02*
X14258277Y-11195888D01*
X14258277Y-11195888D02*
X14248753Y-11214936D01*
X14248753Y-11214936D02*
X14239229Y-11224460D01*
X14239229Y-11224460D02*
X14220182Y-11233984D01*
X14220182Y-11233984D02*
X14201134Y-11233984D01*
X14201134Y-11233984D02*
X14182086Y-11224460D01*
X14182086Y-11224460D02*
X14172563Y-11214936D01*
X14172563Y-11214936D02*
X14163039Y-11195888D01*
X14163039Y-11195888D02*
X14153515Y-11157793D01*
X14153515Y-11157793D02*
X14153515Y-11110174D01*
X14153515Y-11110174D02*
X14163039Y-11072079D01*
X14163039Y-11072079D02*
X14172563Y-11053031D01*
X14172563Y-11053031D02*
X14182086Y-11043508D01*
X14182086Y-11043508D02*
X14201134Y-11033984D01*
X14353515Y-11214936D02*
X14363039Y-11224460D01*
X14363039Y-11224460D02*
X14353515Y-11233984D01*
X14353515Y-11233984D02*
X14343991Y-11224460D01*
X14343991Y-11224460D02*
X14353515Y-11214936D01*
X14353515Y-11214936D02*
X14353515Y-11233984D01*
X14553515Y-11233984D02*
X14439229Y-11233984D01*
X14496372Y-11233984D02*
X14496372Y-11033984D01*
X14496372Y-11033984D02*
X14477325Y-11062555D01*
X14477325Y-11062555D02*
X14458277Y-11081603D01*
X14458277Y-11081603D02*
X14439229Y-11091127D01*
X14629706Y-11053031D02*
X14639229Y-11043508D01*
X14639229Y-11043508D02*
X14658277Y-11033984D01*
X14658277Y-11033984D02*
X14705896Y-11033984D01*
X14705896Y-11033984D02*
X14724944Y-11043508D01*
X14724944Y-11043508D02*
X14734467Y-11053031D01*
X14734467Y-11053031D02*
X14743991Y-11072079D01*
X14743991Y-11072079D02*
X14743991Y-11091127D01*
X14743991Y-11091127D02*
X14734467Y-11119698D01*
X14734467Y-11119698D02*
X14620182Y-11233984D01*
X14620182Y-11233984D02*
X14743991Y-11233984D01*
X14915420Y-11033984D02*
X14877325Y-11033984D01*
X14877325Y-11033984D02*
X14858277Y-11043508D01*
X14858277Y-11043508D02*
X14848753Y-11053031D01*
X14848753Y-11053031D02*
X14829706Y-11081603D01*
X14829706Y-11081603D02*
X14820182Y-11119698D01*
X14820182Y-11119698D02*
X14820182Y-11195888D01*
X14820182Y-11195888D02*
X14829706Y-11214936D01*
X14829706Y-11214936D02*
X14839229Y-11224460D01*
X14839229Y-11224460D02*
X14858277Y-11233984D01*
X14858277Y-11233984D02*
X14896372Y-11233984D01*
X14896372Y-11233984D02*
X14915420Y-11224460D01*
X14915420Y-11224460D02*
X14924944Y-11214936D01*
X14924944Y-11214936D02*
X14934467Y-11195888D01*
X14934467Y-11195888D02*
X14934467Y-11148270D01*
X14934467Y-11148270D02*
X14924944Y-11129222D01*
X14924944Y-11129222D02*
X14915420Y-11119698D01*
X14915420Y-11119698D02*
X14896372Y-11110174D01*
X14896372Y-11110174D02*
X14858277Y-11110174D01*
X14858277Y-11110174D02*
X14839229Y-11119698D01*
X14839229Y-11119698D02*
X14829706Y-11129222D01*
X14829706Y-11129222D02*
X14820182Y-11148270D01*
X15058277Y-11033984D02*
X15077325Y-11033984D01*
X15077325Y-11033984D02*
X15096372Y-11043508D01*
X15096372Y-11043508D02*
X15105896Y-11053031D01*
X15105896Y-11053031D02*
X15115420Y-11072079D01*
X15115420Y-11072079D02*
X15124944Y-11110174D01*
X15124944Y-11110174D02*
X15124944Y-11157793D01*
X15124944Y-11157793D02*
X15115420Y-11195888D01*
X15115420Y-11195888D02*
X15105896Y-11214936D01*
X15105896Y-11214936D02*
X15096372Y-11224460D01*
X15096372Y-11224460D02*
X15077325Y-11233984D01*
X15077325Y-11233984D02*
X15058277Y-11233984D01*
X15058277Y-11233984D02*
X15039229Y-11224460D01*
X15039229Y-11224460D02*
X15029706Y-11214936D01*
X15029706Y-11214936D02*
X15020182Y-11195888D01*
X15020182Y-11195888D02*
X15010658Y-11157793D01*
X15010658Y-11157793D02*
X15010658Y-11110174D01*
X15010658Y-11110174D02*
X15020182Y-11072079D01*
X15020182Y-11072079D02*
X15029706Y-11053031D01*
X15029706Y-11053031D02*
X15039229Y-11043508D01*
X15039229Y-11043508D02*
X15058277Y-11033984D01*
X15201134Y-11033984D02*
X15201134Y-11072079D01*
X15277325Y-11033984D02*
X15277325Y-11072079D01*
X15572563Y-11310174D02*
X15563039Y-11300650D01*
X15563039Y-11300650D02*
X15543991Y-11272079D01*
X15543991Y-11272079D02*
X15534468Y-11253031D01*
X15534468Y-11253031D02*
X15524944Y-11224460D01*
X15524944Y-11224460D02*
X15515420Y-11176841D01*
X15515420Y-11176841D02*
X15515420Y-11138746D01*
X15515420Y-11138746D02*
X15524944Y-11091127D01*
X15524944Y-11091127D02*
X15534468Y-11062555D01*
X15534468Y-11062555D02*
X15543991Y-11043508D01*
X15543991Y-11043508D02*
X15563039Y-11014936D01*
X15563039Y-11014936D02*
X15572563Y-11005412D01*
X15639229Y-11053031D02*
X15648753Y-11043508D01*
X15648753Y-11043508D02*
X15667801Y-11033984D01*
X15667801Y-11033984D02*
X15715420Y-11033984D01*
X15715420Y-11033984D02*
X15734468Y-11043508D01*
X15734468Y-11043508D02*
X15743991Y-11053031D01*
X15743991Y-11053031D02*
X15753515Y-11072079D01*
X15753515Y-11072079D02*
X15753515Y-11091127D01*
X15753515Y-11091127D02*
X15743991Y-11119698D01*
X15743991Y-11119698D02*
X15629706Y-11233984D01*
X15629706Y-11233984D02*
X15753515Y-11233984D01*
X15991610Y-11233984D02*
X15991610Y-11033984D01*
X16077325Y-11233984D02*
X16077325Y-11129222D01*
X16077325Y-11129222D02*
X16067801Y-11110174D01*
X16067801Y-11110174D02*
X16048753Y-11100650D01*
X16048753Y-11100650D02*
X16020182Y-11100650D01*
X16020182Y-11100650D02*
X16001134Y-11110174D01*
X16001134Y-11110174D02*
X15991610Y-11119698D01*
X16201134Y-11233984D02*
X16182087Y-11224460D01*
X16182087Y-11224460D02*
X16172563Y-11214936D01*
X16172563Y-11214936D02*
X16163039Y-11195888D01*
X16163039Y-11195888D02*
X16163039Y-11138746D01*
X16163039Y-11138746D02*
X16172563Y-11119698D01*
X16172563Y-11119698D02*
X16182087Y-11110174D01*
X16182087Y-11110174D02*
X16201134Y-11100650D01*
X16201134Y-11100650D02*
X16229706Y-11100650D01*
X16229706Y-11100650D02*
X16248753Y-11110174D01*
X16248753Y-11110174D02*
X16258277Y-11119698D01*
X16258277Y-11119698D02*
X16267801Y-11138746D01*
X16267801Y-11138746D02*
X16267801Y-11195888D01*
X16267801Y-11195888D02*
X16258277Y-11214936D01*
X16258277Y-11214936D02*
X16248753Y-11224460D01*
X16248753Y-11224460D02*
X16229706Y-11233984D01*
X16229706Y-11233984D02*
X16201134Y-11233984D01*
X16382087Y-11233984D02*
X16363039Y-11224460D01*
X16363039Y-11224460D02*
X16353515Y-11205412D01*
X16353515Y-11205412D02*
X16353515Y-11033984D01*
X16534468Y-11224460D02*
X16515420Y-11233984D01*
X16515420Y-11233984D02*
X16477325Y-11233984D01*
X16477325Y-11233984D02*
X16458277Y-11224460D01*
X16458277Y-11224460D02*
X16448753Y-11205412D01*
X16448753Y-11205412D02*
X16448753Y-11129222D01*
X16448753Y-11129222D02*
X16458277Y-11110174D01*
X16458277Y-11110174D02*
X16477325Y-11100650D01*
X16477325Y-11100650D02*
X16515420Y-11100650D01*
X16515420Y-11100650D02*
X16534468Y-11110174D01*
X16534468Y-11110174D02*
X16543991Y-11129222D01*
X16543991Y-11129222D02*
X16543991Y-11148270D01*
X16543991Y-11148270D02*
X16448753Y-11167317D01*
X16620182Y-11224460D02*
X16639230Y-11233984D01*
X16639230Y-11233984D02*
X16677325Y-11233984D01*
X16677325Y-11233984D02*
X16696372Y-11224460D01*
X16696372Y-11224460D02*
X16705896Y-11205412D01*
X16705896Y-11205412D02*
X16705896Y-11195888D01*
X16705896Y-11195888D02*
X16696372Y-11176841D01*
X16696372Y-11176841D02*
X16677325Y-11167317D01*
X16677325Y-11167317D02*
X16648753Y-11167317D01*
X16648753Y-11167317D02*
X16629706Y-11157793D01*
X16629706Y-11157793D02*
X16620182Y-11138746D01*
X16620182Y-11138746D02*
X16620182Y-11129222D01*
X16620182Y-11129222D02*
X16629706Y-11110174D01*
X16629706Y-11110174D02*
X16648753Y-11100650D01*
X16648753Y-11100650D02*
X16677325Y-11100650D01*
X16677325Y-11100650D02*
X16696372Y-11110174D01*
X16772563Y-11310174D02*
X16782087Y-11300650D01*
X16782087Y-11300650D02*
X16801134Y-11272079D01*
X16801134Y-11272079D02*
X16810658Y-11253031D01*
X16810658Y-11253031D02*
X16820182Y-11224460D01*
X16820182Y-11224460D02*
X16829706Y-11176841D01*
X16829706Y-11176841D02*
X16829706Y-11138746D01*
X16829706Y-11138746D02*
X16820182Y-11091127D01*
X16820182Y-11091127D02*
X16810658Y-11062555D01*
X16810658Y-11062555D02*
X16801134Y-11043508D01*
X16801134Y-11043508D02*
X16782087Y-11014936D01*
X16782087Y-11014936D02*
X16772563Y-11005412D01*
X17134468Y-11310174D02*
X17124944Y-11300650D01*
X17124944Y-11300650D02*
X17105896Y-11272079D01*
X17105896Y-11272079D02*
X17096373Y-11253031D01*
X17096373Y-11253031D02*
X17086849Y-11224460D01*
X17086849Y-11224460D02*
X17077325Y-11176841D01*
X17077325Y-11176841D02*
X17077325Y-11138746D01*
X17077325Y-11138746D02*
X17086849Y-11091127D01*
X17086849Y-11091127D02*
X17096373Y-11062555D01*
X17096373Y-11062555D02*
X17105896Y-11043508D01*
X17105896Y-11043508D02*
X17124944Y-11014936D01*
X17124944Y-11014936D02*
X17134468Y-11005412D01*
X17210658Y-11100650D02*
X17210658Y-11233984D01*
X17210658Y-11119698D02*
X17220182Y-11110174D01*
X17220182Y-11110174D02*
X17239230Y-11100650D01*
X17239230Y-11100650D02*
X17267801Y-11100650D01*
X17267801Y-11100650D02*
X17286849Y-11110174D01*
X17286849Y-11110174D02*
X17296373Y-11129222D01*
X17296373Y-11129222D02*
X17296373Y-11233984D01*
X17420182Y-11233984D02*
X17401134Y-11224460D01*
X17401134Y-11224460D02*
X17391611Y-11214936D01*
X17391611Y-11214936D02*
X17382087Y-11195888D01*
X17382087Y-11195888D02*
X17382087Y-11138746D01*
X17382087Y-11138746D02*
X17391611Y-11119698D01*
X17391611Y-11119698D02*
X17401134Y-11110174D01*
X17401134Y-11110174D02*
X17420182Y-11100650D01*
X17420182Y-11100650D02*
X17448754Y-11100650D01*
X17448754Y-11100650D02*
X17467801Y-11110174D01*
X17467801Y-11110174D02*
X17477325Y-11119698D01*
X17477325Y-11119698D02*
X17486849Y-11138746D01*
X17486849Y-11138746D02*
X17486849Y-11195888D01*
X17486849Y-11195888D02*
X17477325Y-11214936D01*
X17477325Y-11214936D02*
X17467801Y-11224460D01*
X17467801Y-11224460D02*
X17448754Y-11233984D01*
X17448754Y-11233984D02*
X17420182Y-11233984D01*
X17543992Y-11100650D02*
X17620182Y-11100650D01*
X17572563Y-11033984D02*
X17572563Y-11205412D01*
X17572563Y-11205412D02*
X17582087Y-11224460D01*
X17582087Y-11224460D02*
X17601134Y-11233984D01*
X17601134Y-11233984D02*
X17620182Y-11233984D01*
X17839230Y-11100650D02*
X17839230Y-11300650D01*
X17839230Y-11110174D02*
X17858277Y-11100650D01*
X17858277Y-11100650D02*
X17896373Y-11100650D01*
X17896373Y-11100650D02*
X17915420Y-11110174D01*
X17915420Y-11110174D02*
X17924944Y-11119698D01*
X17924944Y-11119698D02*
X17934468Y-11138746D01*
X17934468Y-11138746D02*
X17934468Y-11195888D01*
X17934468Y-11195888D02*
X17924944Y-11214936D01*
X17924944Y-11214936D02*
X17915420Y-11224460D01*
X17915420Y-11224460D02*
X17896373Y-11233984D01*
X17896373Y-11233984D02*
X17858277Y-11233984D01*
X17858277Y-11233984D02*
X17839230Y-11224460D01*
X18048754Y-11233984D02*
X18029706Y-11224460D01*
X18029706Y-11224460D02*
X18020182Y-11205412D01*
X18020182Y-11205412D02*
X18020182Y-11033984D01*
X18210658Y-11233984D02*
X18210658Y-11129222D01*
X18210658Y-11129222D02*
X18201135Y-11110174D01*
X18201135Y-11110174D02*
X18182087Y-11100650D01*
X18182087Y-11100650D02*
X18143992Y-11100650D01*
X18143992Y-11100650D02*
X18124944Y-11110174D01*
X18210658Y-11224460D02*
X18191611Y-11233984D01*
X18191611Y-11233984D02*
X18143992Y-11233984D01*
X18143992Y-11233984D02*
X18124944Y-11224460D01*
X18124944Y-11224460D02*
X18115420Y-11205412D01*
X18115420Y-11205412D02*
X18115420Y-11186365D01*
X18115420Y-11186365D02*
X18124944Y-11167317D01*
X18124944Y-11167317D02*
X18143992Y-11157793D01*
X18143992Y-11157793D02*
X18191611Y-11157793D01*
X18191611Y-11157793D02*
X18210658Y-11148270D01*
X18277325Y-11100650D02*
X18353515Y-11100650D01*
X18305896Y-11033984D02*
X18305896Y-11205412D01*
X18305896Y-11205412D02*
X18315420Y-11224460D01*
X18315420Y-11224460D02*
X18334468Y-11233984D01*
X18334468Y-11233984D02*
X18353515Y-11233984D01*
X18496373Y-11224460D02*
X18477325Y-11233984D01*
X18477325Y-11233984D02*
X18439230Y-11233984D01*
X18439230Y-11233984D02*
X18420182Y-11224460D01*
X18420182Y-11224460D02*
X18410658Y-11205412D01*
X18410658Y-11205412D02*
X18410658Y-11129222D01*
X18410658Y-11129222D02*
X18420182Y-11110174D01*
X18420182Y-11110174D02*
X18439230Y-11100650D01*
X18439230Y-11100650D02*
X18477325Y-11100650D01*
X18477325Y-11100650D02*
X18496373Y-11110174D01*
X18496373Y-11110174D02*
X18505896Y-11129222D01*
X18505896Y-11129222D02*
X18505896Y-11148270D01*
X18505896Y-11148270D02*
X18410658Y-11167317D01*
X18677325Y-11233984D02*
X18677325Y-11033984D01*
X18677325Y-11224460D02*
X18658277Y-11233984D01*
X18658277Y-11233984D02*
X18620182Y-11233984D01*
X18620182Y-11233984D02*
X18601135Y-11224460D01*
X18601135Y-11224460D02*
X18591611Y-11214936D01*
X18591611Y-11214936D02*
X18582087Y-11195888D01*
X18582087Y-11195888D02*
X18582087Y-11138746D01*
X18582087Y-11138746D02*
X18591611Y-11119698D01*
X18591611Y-11119698D02*
X18601135Y-11110174D01*
X18601135Y-11110174D02*
X18620182Y-11100650D01*
X18620182Y-11100650D02*
X18658277Y-11100650D01*
X18658277Y-11100650D02*
X18677325Y-11110174D01*
X18753516Y-11310174D02*
X18763039Y-11300650D01*
X18763039Y-11300650D02*
X18782087Y-11272079D01*
X18782087Y-11272079D02*
X18791611Y-11253031D01*
X18791611Y-11253031D02*
X18801135Y-11224460D01*
X18801135Y-11224460D02*
X18810658Y-11176841D01*
X18810658Y-11176841D02*
X18810658Y-11138746D01*
X18810658Y-11138746D02*
X18801135Y-11091127D01*
X18801135Y-11091127D02*
X18791611Y-11062555D01*
X18791611Y-11062555D02*
X18782087Y-11043508D01*
X18782087Y-11043508D02*
X18763039Y-11014936D01*
X18763039Y-11014936D02*
X18753516Y-11005412D01*
M02*
