G04 #@! TF.GenerationSoftware,KiCad,Pcbnew,8.0.5*
G04 #@! TF.CreationDate,2024-09-14T16:18:36+01:00*
G04 #@! TF.ProjectId,RotationEncoder,526f7461-7469-46f6-9e45-6e636f646572,rev?*
G04 #@! TF.SameCoordinates,Original*
G04 #@! TF.FileFunction,Legend,Top*
G04 #@! TF.FilePolarity,Positive*
%FSLAX46Y46*%
G04 Gerber Fmt 4.6, Leading zero omitted, Abs format (unit mm)*
G04 Created by KiCad (PCBNEW 8.0.5) date 2024-09-14 16:18:36*
%MOMM*%
%LPD*%
G01*
G04 APERTURE LIST*
G04 Aperture macros list*
%AMRoundRect*
0 Rectangle with rounded corners*
0 $1 Rounding radius*
0 $2 $3 $4 $5 $6 $7 $8 $9 X,Y pos of 4 corners*
0 Add a 4 corners polygon primitive as box body*
4,1,4,$2,$3,$4,$5,$6,$7,$8,$9,$2,$3,0*
0 Add four circle primitives for the rounded corners*
1,1,$1+$1,$2,$3*
1,1,$1+$1,$4,$5*
1,1,$1+$1,$6,$7*
1,1,$1+$1,$8,$9*
0 Add four rect primitives between the rounded corners*
20,1,$1+$1,$2,$3,$4,$5,0*
20,1,$1+$1,$4,$5,$6,$7,0*
20,1,$1+$1,$6,$7,$8,$9,0*
20,1,$1+$1,$8,$9,$2,$3,0*%
%AMRotRect*
0 Rectangle, with rotation*
0 The origin of the aperture is its center*
0 $1 length*
0 $2 width*
0 $3 Rotation angle, in degrees counterclockwise*
0 Add horizontal line*
21,1,$1,$2,0,0,$3*%
G04 Aperture macros list end*
%ADD10C,0.150000*%
%ADD11C,0.120000*%
%ADD12RoundRect,0.250000X-0.250000X-0.475000X0.250000X-0.475000X0.250000X0.475000X-0.250000X0.475000X0*%
%ADD13RoundRect,0.250000X-0.475000X0.250000X-0.475000X-0.250000X0.475000X-0.250000X0.475000X0.250000X0*%
%ADD14RoundRect,0.243750X-0.456250X0.243750X-0.456250X-0.243750X0.456250X-0.243750X0.456250X0.243750X0*%
%ADD15C,3.200000*%
%ADD16RoundRect,0.150000X-0.512500X-0.150000X0.512500X-0.150000X0.512500X0.150000X-0.512500X0.150000X0*%
%ADD17RoundRect,0.250000X0.850000X-0.375000X0.850000X0.375000X-0.850000X0.375000X-0.850000X-0.375000X0*%
%ADD18RoundRect,0.150000X-0.825000X-0.150000X0.825000X-0.150000X0.825000X0.150000X-0.825000X0.150000X0*%
%ADD19RoundRect,0.250000X0.600000X-0.600000X0.600000X0.600000X-0.600000X0.600000X-0.600000X-0.600000X0*%
%ADD20C,1.700000*%
%ADD21RoundRect,0.150000X0.150000X-0.512500X0.150000X0.512500X-0.150000X0.512500X-0.150000X-0.512500X0*%
%ADD22RoundRect,0.250000X-0.159099X0.512652X-0.512652X0.159099X0.159099X-0.512652X0.512652X-0.159099X0*%
%ADD23RoundRect,0.250000X0.250000X0.475000X-0.250000X0.475000X-0.250000X-0.475000X0.250000X-0.475000X0*%
%ADD24RoundRect,0.250000X0.475000X-0.250000X0.475000X0.250000X-0.475000X0.250000X-0.475000X-0.250000X0*%
%ADD25RoundRect,0.250000X-0.450000X0.262500X-0.450000X-0.262500X0.450000X-0.262500X0.450000X0.262500X0*%
%ADD26RoundRect,0.250000X0.512652X0.159099X0.159099X0.512652X-0.512652X-0.159099X-0.159099X-0.512652X0*%
%ADD27R,1.600000X0.550000*%
%ADD28R,0.550000X1.600000*%
%ADD29RoundRect,0.250000X0.800000X-0.450000X0.800000X0.450000X-0.800000X0.450000X-0.800000X-0.450000X0*%
%ADD30RoundRect,0.250000X0.450000X-0.262500X0.450000X0.262500X-0.450000X0.262500X-0.450000X-0.262500X0*%
%ADD31RotRect,1.400000X1.200000X45.000000*%
%ADD32R,1.000000X0.750000*%
%ADD33R,1.700000X1.700000*%
%ADD34O,1.700000X1.700000*%
%ADD35RoundRect,0.250000X-1.100000X0.325000X-1.100000X-0.325000X1.100000X-0.325000X1.100000X0.325000X0*%
G04 APERTURE END LIST*
D10*
X157900000Y-99500000D02*
X158500000Y-100200000D01*
X156200000Y-99500000D02*
X157900000Y-99500000D01*
X128330180Y-81908207D02*
X128806371Y-81574874D01*
X128330180Y-81336779D02*
X129330180Y-81336779D01*
X129330180Y-81336779D02*
X129330180Y-81717731D01*
X129330180Y-81717731D02*
X129282561Y-81812969D01*
X129282561Y-81812969D02*
X129234942Y-81860588D01*
X129234942Y-81860588D02*
X129139704Y-81908207D01*
X129139704Y-81908207D02*
X128996847Y-81908207D01*
X128996847Y-81908207D02*
X128901609Y-81860588D01*
X128901609Y-81860588D02*
X128853990Y-81812969D01*
X128853990Y-81812969D02*
X128806371Y-81717731D01*
X128806371Y-81717731D02*
X128806371Y-81336779D01*
X128853990Y-82336779D02*
X128853990Y-82670112D01*
X128330180Y-82812969D02*
X128330180Y-82336779D01*
X128330180Y-82336779D02*
X129330180Y-82336779D01*
X129330180Y-82336779D02*
X129330180Y-82812969D01*
X128377800Y-83193922D02*
X128330180Y-83336779D01*
X128330180Y-83336779D02*
X128330180Y-83574874D01*
X128330180Y-83574874D02*
X128377800Y-83670112D01*
X128377800Y-83670112D02*
X128425419Y-83717731D01*
X128425419Y-83717731D02*
X128520657Y-83765350D01*
X128520657Y-83765350D02*
X128615895Y-83765350D01*
X128615895Y-83765350D02*
X128711133Y-83717731D01*
X128711133Y-83717731D02*
X128758752Y-83670112D01*
X128758752Y-83670112D02*
X128806371Y-83574874D01*
X128806371Y-83574874D02*
X128853990Y-83384398D01*
X128853990Y-83384398D02*
X128901609Y-83289160D01*
X128901609Y-83289160D02*
X128949228Y-83241541D01*
X128949228Y-83241541D02*
X129044466Y-83193922D01*
X129044466Y-83193922D02*
X129139704Y-83193922D01*
X129139704Y-83193922D02*
X129234942Y-83241541D01*
X129234942Y-83241541D02*
X129282561Y-83289160D01*
X129282561Y-83289160D02*
X129330180Y-83384398D01*
X129330180Y-83384398D02*
X129330180Y-83622493D01*
X129330180Y-83622493D02*
X129282561Y-83765350D01*
X128853990Y-84193922D02*
X128853990Y-84527255D01*
X128330180Y-84670112D02*
X128330180Y-84193922D01*
X128330180Y-84193922D02*
X129330180Y-84193922D01*
X129330180Y-84193922D02*
X129330180Y-84670112D01*
X129330180Y-84955827D02*
X129330180Y-85527255D01*
X128330180Y-85241541D02*
X129330180Y-85241541D01*
X148658207Y-104369819D02*
X148324874Y-103893628D01*
X148086779Y-104369819D02*
X148086779Y-103369819D01*
X148086779Y-103369819D02*
X148467731Y-103369819D01*
X148467731Y-103369819D02*
X148562969Y-103417438D01*
X148562969Y-103417438D02*
X148610588Y-103465057D01*
X148610588Y-103465057D02*
X148658207Y-103560295D01*
X148658207Y-103560295D02*
X148658207Y-103703152D01*
X148658207Y-103703152D02*
X148610588Y-103798390D01*
X148610588Y-103798390D02*
X148562969Y-103846009D01*
X148562969Y-103846009D02*
X148467731Y-103893628D01*
X148467731Y-103893628D02*
X148086779Y-103893628D01*
X149039160Y-104322200D02*
X149182017Y-104369819D01*
X149182017Y-104369819D02*
X149420112Y-104369819D01*
X149420112Y-104369819D02*
X149515350Y-104322200D01*
X149515350Y-104322200D02*
X149562969Y-104274580D01*
X149562969Y-104274580D02*
X149610588Y-104179342D01*
X149610588Y-104179342D02*
X149610588Y-104084104D01*
X149610588Y-104084104D02*
X149562969Y-103988866D01*
X149562969Y-103988866D02*
X149515350Y-103941247D01*
X149515350Y-103941247D02*
X149420112Y-103893628D01*
X149420112Y-103893628D02*
X149229636Y-103846009D01*
X149229636Y-103846009D02*
X149134398Y-103798390D01*
X149134398Y-103798390D02*
X149086779Y-103750771D01*
X149086779Y-103750771D02*
X149039160Y-103655533D01*
X149039160Y-103655533D02*
X149039160Y-103560295D01*
X149039160Y-103560295D02*
X149086779Y-103465057D01*
X149086779Y-103465057D02*
X149134398Y-103417438D01*
X149134398Y-103417438D02*
X149229636Y-103369819D01*
X149229636Y-103369819D02*
X149467731Y-103369819D01*
X149467731Y-103369819D02*
X149610588Y-103417438D01*
X150467731Y-103703152D02*
X150467731Y-104369819D01*
X150229636Y-103322200D02*
X149991541Y-104036485D01*
X149991541Y-104036485D02*
X150610588Y-104036485D01*
X151134398Y-103798390D02*
X151039160Y-103750771D01*
X151039160Y-103750771D02*
X150991541Y-103703152D01*
X150991541Y-103703152D02*
X150943922Y-103607914D01*
X150943922Y-103607914D02*
X150943922Y-103560295D01*
X150943922Y-103560295D02*
X150991541Y-103465057D01*
X150991541Y-103465057D02*
X151039160Y-103417438D01*
X151039160Y-103417438D02*
X151134398Y-103369819D01*
X151134398Y-103369819D02*
X151324874Y-103369819D01*
X151324874Y-103369819D02*
X151420112Y-103417438D01*
X151420112Y-103417438D02*
X151467731Y-103465057D01*
X151467731Y-103465057D02*
X151515350Y-103560295D01*
X151515350Y-103560295D02*
X151515350Y-103607914D01*
X151515350Y-103607914D02*
X151467731Y-103703152D01*
X151467731Y-103703152D02*
X151420112Y-103750771D01*
X151420112Y-103750771D02*
X151324874Y-103798390D01*
X151324874Y-103798390D02*
X151134398Y-103798390D01*
X151134398Y-103798390D02*
X151039160Y-103846009D01*
X151039160Y-103846009D02*
X150991541Y-103893628D01*
X150991541Y-103893628D02*
X150943922Y-103988866D01*
X150943922Y-103988866D02*
X150943922Y-104179342D01*
X150943922Y-104179342D02*
X150991541Y-104274580D01*
X150991541Y-104274580D02*
X151039160Y-104322200D01*
X151039160Y-104322200D02*
X151134398Y-104369819D01*
X151134398Y-104369819D02*
X151324874Y-104369819D01*
X151324874Y-104369819D02*
X151420112Y-104322200D01*
X151420112Y-104322200D02*
X151467731Y-104274580D01*
X151467731Y-104274580D02*
X151515350Y-104179342D01*
X151515350Y-104179342D02*
X151515350Y-103988866D01*
X151515350Y-103988866D02*
X151467731Y-103893628D01*
X151467731Y-103893628D02*
X151420112Y-103846009D01*
X151420112Y-103846009D02*
X151324874Y-103798390D01*
X152420112Y-103369819D02*
X151943922Y-103369819D01*
X151943922Y-103369819D02*
X151896303Y-103846009D01*
X151896303Y-103846009D02*
X151943922Y-103798390D01*
X151943922Y-103798390D02*
X152039160Y-103750771D01*
X152039160Y-103750771D02*
X152277255Y-103750771D01*
X152277255Y-103750771D02*
X152372493Y-103798390D01*
X152372493Y-103798390D02*
X152420112Y-103846009D01*
X152420112Y-103846009D02*
X152467731Y-103941247D01*
X152467731Y-103941247D02*
X152467731Y-104179342D01*
X152467731Y-104179342D02*
X152420112Y-104274580D01*
X152420112Y-104274580D02*
X152372493Y-104322200D01*
X152372493Y-104322200D02*
X152277255Y-104369819D01*
X152277255Y-104369819D02*
X152039160Y-104369819D01*
X152039160Y-104369819D02*
X151943922Y-104322200D01*
X151943922Y-104322200D02*
X151896303Y-104274580D01*
X122336779Y-95869819D02*
X122336779Y-94869819D01*
X123384397Y-95774580D02*
X123336778Y-95822200D01*
X123336778Y-95822200D02*
X123193921Y-95869819D01*
X123193921Y-95869819D02*
X123098683Y-95869819D01*
X123098683Y-95869819D02*
X122955826Y-95822200D01*
X122955826Y-95822200D02*
X122860588Y-95726961D01*
X122860588Y-95726961D02*
X122812969Y-95631723D01*
X122812969Y-95631723D02*
X122765350Y-95441247D01*
X122765350Y-95441247D02*
X122765350Y-95298390D01*
X122765350Y-95298390D02*
X122812969Y-95107914D01*
X122812969Y-95107914D02*
X122860588Y-95012676D01*
X122860588Y-95012676D02*
X122955826Y-94917438D01*
X122955826Y-94917438D02*
X123098683Y-94869819D01*
X123098683Y-94869819D02*
X123193921Y-94869819D01*
X123193921Y-94869819D02*
X123336778Y-94917438D01*
X123336778Y-94917438D02*
X123384397Y-94965057D01*
X123765350Y-95822200D02*
X123908207Y-95869819D01*
X123908207Y-95869819D02*
X124146302Y-95869819D01*
X124146302Y-95869819D02*
X124241540Y-95822200D01*
X124241540Y-95822200D02*
X124289159Y-95774580D01*
X124289159Y-95774580D02*
X124336778Y-95679342D01*
X124336778Y-95679342D02*
X124336778Y-95584104D01*
X124336778Y-95584104D02*
X124289159Y-95488866D01*
X124289159Y-95488866D02*
X124241540Y-95441247D01*
X124241540Y-95441247D02*
X124146302Y-95393628D01*
X124146302Y-95393628D02*
X123955826Y-95346009D01*
X123955826Y-95346009D02*
X123860588Y-95298390D01*
X123860588Y-95298390D02*
X123812969Y-95250771D01*
X123812969Y-95250771D02*
X123765350Y-95155533D01*
X123765350Y-95155533D02*
X123765350Y-95060295D01*
X123765350Y-95060295D02*
X123812969Y-94965057D01*
X123812969Y-94965057D02*
X123860588Y-94917438D01*
X123860588Y-94917438D02*
X123955826Y-94869819D01*
X123955826Y-94869819D02*
X124193921Y-94869819D01*
X124193921Y-94869819D02*
X124336778Y-94917438D01*
X124765350Y-95869819D02*
X124765350Y-94869819D01*
X124765350Y-94869819D02*
X125146302Y-94869819D01*
X125146302Y-94869819D02*
X125241540Y-94917438D01*
X125241540Y-94917438D02*
X125289159Y-94965057D01*
X125289159Y-94965057D02*
X125336778Y-95060295D01*
X125336778Y-95060295D02*
X125336778Y-95203152D01*
X125336778Y-95203152D02*
X125289159Y-95298390D01*
X125289159Y-95298390D02*
X125241540Y-95346009D01*
X125241540Y-95346009D02*
X125146302Y-95393628D01*
X125146302Y-95393628D02*
X124765350Y-95393628D01*
X152083333Y-92109580D02*
X152035714Y-92157200D01*
X152035714Y-92157200D02*
X151892857Y-92204819D01*
X151892857Y-92204819D02*
X151797619Y-92204819D01*
X151797619Y-92204819D02*
X151654762Y-92157200D01*
X151654762Y-92157200D02*
X151559524Y-92061961D01*
X151559524Y-92061961D02*
X151511905Y-91966723D01*
X151511905Y-91966723D02*
X151464286Y-91776247D01*
X151464286Y-91776247D02*
X151464286Y-91633390D01*
X151464286Y-91633390D02*
X151511905Y-91442914D01*
X151511905Y-91442914D02*
X151559524Y-91347676D01*
X151559524Y-91347676D02*
X151654762Y-91252438D01*
X151654762Y-91252438D02*
X151797619Y-91204819D01*
X151797619Y-91204819D02*
X151892857Y-91204819D01*
X151892857Y-91204819D02*
X152035714Y-91252438D01*
X152035714Y-91252438D02*
X152083333Y-91300057D01*
X152988095Y-91204819D02*
X152511905Y-91204819D01*
X152511905Y-91204819D02*
X152464286Y-91681009D01*
X152464286Y-91681009D02*
X152511905Y-91633390D01*
X152511905Y-91633390D02*
X152607143Y-91585771D01*
X152607143Y-91585771D02*
X152845238Y-91585771D01*
X152845238Y-91585771D02*
X152940476Y-91633390D01*
X152940476Y-91633390D02*
X152988095Y-91681009D01*
X152988095Y-91681009D02*
X153035714Y-91776247D01*
X153035714Y-91776247D02*
X153035714Y-92014342D01*
X153035714Y-92014342D02*
X152988095Y-92109580D01*
X152988095Y-92109580D02*
X152940476Y-92157200D01*
X152940476Y-92157200D02*
X152845238Y-92204819D01*
X152845238Y-92204819D02*
X152607143Y-92204819D01*
X152607143Y-92204819D02*
X152511905Y-92157200D01*
X152511905Y-92157200D02*
X152464286Y-92109580D01*
X162357142Y-81159580D02*
X162309523Y-81207200D01*
X162309523Y-81207200D02*
X162166666Y-81254819D01*
X162166666Y-81254819D02*
X162071428Y-81254819D01*
X162071428Y-81254819D02*
X161928571Y-81207200D01*
X161928571Y-81207200D02*
X161833333Y-81111961D01*
X161833333Y-81111961D02*
X161785714Y-81016723D01*
X161785714Y-81016723D02*
X161738095Y-80826247D01*
X161738095Y-80826247D02*
X161738095Y-80683390D01*
X161738095Y-80683390D02*
X161785714Y-80492914D01*
X161785714Y-80492914D02*
X161833333Y-80397676D01*
X161833333Y-80397676D02*
X161928571Y-80302438D01*
X161928571Y-80302438D02*
X162071428Y-80254819D01*
X162071428Y-80254819D02*
X162166666Y-80254819D01*
X162166666Y-80254819D02*
X162309523Y-80302438D01*
X162309523Y-80302438D02*
X162357142Y-80350057D01*
X163309523Y-81254819D02*
X162738095Y-81254819D01*
X163023809Y-81254819D02*
X163023809Y-80254819D01*
X163023809Y-80254819D02*
X162928571Y-80397676D01*
X162928571Y-80397676D02*
X162833333Y-80492914D01*
X162833333Y-80492914D02*
X162738095Y-80540533D01*
X164166666Y-80588152D02*
X164166666Y-81254819D01*
X163928571Y-80207200D02*
X163690476Y-80921485D01*
X163690476Y-80921485D02*
X164309523Y-80921485D01*
X153254819Y-82538094D02*
X152254819Y-82538094D01*
X152254819Y-82538094D02*
X152254819Y-82299999D01*
X152254819Y-82299999D02*
X152302438Y-82157142D01*
X152302438Y-82157142D02*
X152397676Y-82061904D01*
X152397676Y-82061904D02*
X152492914Y-82014285D01*
X152492914Y-82014285D02*
X152683390Y-81966666D01*
X152683390Y-81966666D02*
X152826247Y-81966666D01*
X152826247Y-81966666D02*
X153016723Y-82014285D01*
X153016723Y-82014285D02*
X153111961Y-82061904D01*
X153111961Y-82061904D02*
X153207200Y-82157142D01*
X153207200Y-82157142D02*
X153254819Y-82299999D01*
X153254819Y-82299999D02*
X153254819Y-82538094D01*
X153254819Y-81014285D02*
X153254819Y-81585713D01*
X153254819Y-81299999D02*
X152254819Y-81299999D01*
X152254819Y-81299999D02*
X152397676Y-81395237D01*
X152397676Y-81395237D02*
X152492914Y-81490475D01*
X152492914Y-81490475D02*
X152540533Y-81585713D01*
X165338095Y-99254819D02*
X165338095Y-100064342D01*
X165338095Y-100064342D02*
X165385714Y-100159580D01*
X165385714Y-100159580D02*
X165433333Y-100207200D01*
X165433333Y-100207200D02*
X165528571Y-100254819D01*
X165528571Y-100254819D02*
X165719047Y-100254819D01*
X165719047Y-100254819D02*
X165814285Y-100207200D01*
X165814285Y-100207200D02*
X165861904Y-100159580D01*
X165861904Y-100159580D02*
X165909523Y-100064342D01*
X165909523Y-100064342D02*
X165909523Y-99254819D01*
X166814285Y-99588152D02*
X166814285Y-100254819D01*
X166576190Y-99207200D02*
X166338095Y-99921485D01*
X166338095Y-99921485D02*
X166957142Y-99921485D01*
X163954819Y-95666666D02*
X163954819Y-96142856D01*
X163954819Y-96142856D02*
X162954819Y-96142856D01*
X162954819Y-95428570D02*
X162954819Y-94809523D01*
X162954819Y-94809523D02*
X163335771Y-95142856D01*
X163335771Y-95142856D02*
X163335771Y-94999999D01*
X163335771Y-94999999D02*
X163383390Y-94904761D01*
X163383390Y-94904761D02*
X163431009Y-94857142D01*
X163431009Y-94857142D02*
X163526247Y-94809523D01*
X163526247Y-94809523D02*
X163764342Y-94809523D01*
X163764342Y-94809523D02*
X163859580Y-94857142D01*
X163859580Y-94857142D02*
X163907200Y-94904761D01*
X163907200Y-94904761D02*
X163954819Y-94999999D01*
X163954819Y-94999999D02*
X163954819Y-95285713D01*
X163954819Y-95285713D02*
X163907200Y-95380951D01*
X163907200Y-95380951D02*
X163859580Y-95428570D01*
X131238095Y-96554819D02*
X131238095Y-97364342D01*
X131238095Y-97364342D02*
X131285714Y-97459580D01*
X131285714Y-97459580D02*
X131333333Y-97507200D01*
X131333333Y-97507200D02*
X131428571Y-97554819D01*
X131428571Y-97554819D02*
X131619047Y-97554819D01*
X131619047Y-97554819D02*
X131714285Y-97507200D01*
X131714285Y-97507200D02*
X131761904Y-97459580D01*
X131761904Y-97459580D02*
X131809523Y-97364342D01*
X131809523Y-97364342D02*
X131809523Y-96554819D01*
X132809523Y-97554819D02*
X132238095Y-97554819D01*
X132523809Y-97554819D02*
X132523809Y-96554819D01*
X132523809Y-96554819D02*
X132428571Y-96697676D01*
X132428571Y-96697676D02*
X132333333Y-96792914D01*
X132333333Y-96792914D02*
X132238095Y-96840533D01*
X160854819Y-88261904D02*
X161664342Y-88261904D01*
X161664342Y-88261904D02*
X161759580Y-88214285D01*
X161759580Y-88214285D02*
X161807200Y-88166666D01*
X161807200Y-88166666D02*
X161854819Y-88071428D01*
X161854819Y-88071428D02*
X161854819Y-87880952D01*
X161854819Y-87880952D02*
X161807200Y-87785714D01*
X161807200Y-87785714D02*
X161759580Y-87738095D01*
X161759580Y-87738095D02*
X161664342Y-87690476D01*
X161664342Y-87690476D02*
X160854819Y-87690476D01*
X160854819Y-86738095D02*
X160854819Y-87214285D01*
X160854819Y-87214285D02*
X161331009Y-87261904D01*
X161331009Y-87261904D02*
X161283390Y-87214285D01*
X161283390Y-87214285D02*
X161235771Y-87119047D01*
X161235771Y-87119047D02*
X161235771Y-86880952D01*
X161235771Y-86880952D02*
X161283390Y-86785714D01*
X161283390Y-86785714D02*
X161331009Y-86738095D01*
X161331009Y-86738095D02*
X161426247Y-86690476D01*
X161426247Y-86690476D02*
X161664342Y-86690476D01*
X161664342Y-86690476D02*
X161759580Y-86738095D01*
X161759580Y-86738095D02*
X161807200Y-86785714D01*
X161807200Y-86785714D02*
X161854819Y-86880952D01*
X161854819Y-86880952D02*
X161854819Y-87119047D01*
X161854819Y-87119047D02*
X161807200Y-87214285D01*
X161807200Y-87214285D02*
X161759580Y-87261904D01*
X131886411Y-87622112D02*
X131886411Y-87689456D01*
X131886411Y-87689456D02*
X131819067Y-87824143D01*
X131819067Y-87824143D02*
X131751724Y-87891486D01*
X131751724Y-87891486D02*
X131617037Y-87958830D01*
X131617037Y-87958830D02*
X131482350Y-87958830D01*
X131482350Y-87958830D02*
X131381335Y-87925158D01*
X131381335Y-87925158D02*
X131212976Y-87824143D01*
X131212976Y-87824143D02*
X131111961Y-87723128D01*
X131111961Y-87723128D02*
X131010945Y-87554769D01*
X131010945Y-87554769D02*
X130977274Y-87453754D01*
X130977274Y-87453754D02*
X130977274Y-87319067D01*
X130977274Y-87319067D02*
X131044617Y-87184380D01*
X131044617Y-87184380D02*
X131111961Y-87117036D01*
X131111961Y-87117036D02*
X131246648Y-87049693D01*
X131246648Y-87049693D02*
X131313991Y-87049693D01*
X132290472Y-87352738D02*
X132425159Y-87218051D01*
X132425159Y-87218051D02*
X132458831Y-87117036D01*
X132458831Y-87117036D02*
X132458831Y-87049693D01*
X132458831Y-87049693D02*
X132425159Y-86881334D01*
X132425159Y-86881334D02*
X132324144Y-86712975D01*
X132324144Y-86712975D02*
X132054770Y-86443601D01*
X132054770Y-86443601D02*
X131953754Y-86409929D01*
X131953754Y-86409929D02*
X131886411Y-86409929D01*
X131886411Y-86409929D02*
X131785396Y-86443601D01*
X131785396Y-86443601D02*
X131650709Y-86578288D01*
X131650709Y-86578288D02*
X131617037Y-86679303D01*
X131617037Y-86679303D02*
X131617037Y-86746647D01*
X131617037Y-86746647D02*
X131650709Y-86847662D01*
X131650709Y-86847662D02*
X131819067Y-87016021D01*
X131819067Y-87016021D02*
X131920083Y-87049693D01*
X131920083Y-87049693D02*
X131987426Y-87049693D01*
X131987426Y-87049693D02*
X132088441Y-87016021D01*
X132088441Y-87016021D02*
X132223128Y-86881334D01*
X132223128Y-86881334D02*
X132256800Y-86780319D01*
X132256800Y-86780319D02*
X132256800Y-86712975D01*
X132256800Y-86712975D02*
X132223128Y-86611960D01*
X164957142Y-96359580D02*
X164909523Y-96407200D01*
X164909523Y-96407200D02*
X164766666Y-96454819D01*
X164766666Y-96454819D02*
X164671428Y-96454819D01*
X164671428Y-96454819D02*
X164528571Y-96407200D01*
X164528571Y-96407200D02*
X164433333Y-96311961D01*
X164433333Y-96311961D02*
X164385714Y-96216723D01*
X164385714Y-96216723D02*
X164338095Y-96026247D01*
X164338095Y-96026247D02*
X164338095Y-95883390D01*
X164338095Y-95883390D02*
X164385714Y-95692914D01*
X164385714Y-95692914D02*
X164433333Y-95597676D01*
X164433333Y-95597676D02*
X164528571Y-95502438D01*
X164528571Y-95502438D02*
X164671428Y-95454819D01*
X164671428Y-95454819D02*
X164766666Y-95454819D01*
X164766666Y-95454819D02*
X164909523Y-95502438D01*
X164909523Y-95502438D02*
X164957142Y-95550057D01*
X165909523Y-96454819D02*
X165338095Y-96454819D01*
X165623809Y-96454819D02*
X165623809Y-95454819D01*
X165623809Y-95454819D02*
X165528571Y-95597676D01*
X165528571Y-95597676D02*
X165433333Y-95692914D01*
X165433333Y-95692914D02*
X165338095Y-95740533D01*
X166242857Y-95454819D02*
X166861904Y-95454819D01*
X166861904Y-95454819D02*
X166528571Y-95835771D01*
X166528571Y-95835771D02*
X166671428Y-95835771D01*
X166671428Y-95835771D02*
X166766666Y-95883390D01*
X166766666Y-95883390D02*
X166814285Y-95931009D01*
X166814285Y-95931009D02*
X166861904Y-96026247D01*
X166861904Y-96026247D02*
X166861904Y-96264342D01*
X166861904Y-96264342D02*
X166814285Y-96359580D01*
X166814285Y-96359580D02*
X166766666Y-96407200D01*
X166766666Y-96407200D02*
X166671428Y-96454819D01*
X166671428Y-96454819D02*
X166385714Y-96454819D01*
X166385714Y-96454819D02*
X166290476Y-96407200D01*
X166290476Y-96407200D02*
X166242857Y-96359580D01*
X155359580Y-102642857D02*
X155407200Y-102690476D01*
X155407200Y-102690476D02*
X155454819Y-102833333D01*
X155454819Y-102833333D02*
X155454819Y-102928571D01*
X155454819Y-102928571D02*
X155407200Y-103071428D01*
X155407200Y-103071428D02*
X155311961Y-103166666D01*
X155311961Y-103166666D02*
X155216723Y-103214285D01*
X155216723Y-103214285D02*
X155026247Y-103261904D01*
X155026247Y-103261904D02*
X154883390Y-103261904D01*
X154883390Y-103261904D02*
X154692914Y-103214285D01*
X154692914Y-103214285D02*
X154597676Y-103166666D01*
X154597676Y-103166666D02*
X154502438Y-103071428D01*
X154502438Y-103071428D02*
X154454819Y-102928571D01*
X154454819Y-102928571D02*
X154454819Y-102833333D01*
X154454819Y-102833333D02*
X154502438Y-102690476D01*
X154502438Y-102690476D02*
X154550057Y-102642857D01*
X155454819Y-101690476D02*
X155454819Y-102261904D01*
X155454819Y-101976190D02*
X154454819Y-101976190D01*
X154454819Y-101976190D02*
X154597676Y-102071428D01*
X154597676Y-102071428D02*
X154692914Y-102166666D01*
X154692914Y-102166666D02*
X154740533Y-102261904D01*
X154550057Y-101309523D02*
X154502438Y-101261904D01*
X154502438Y-101261904D02*
X154454819Y-101166666D01*
X154454819Y-101166666D02*
X154454819Y-100928571D01*
X154454819Y-100928571D02*
X154502438Y-100833333D01*
X154502438Y-100833333D02*
X154550057Y-100785714D01*
X154550057Y-100785714D02*
X154645295Y-100738095D01*
X154645295Y-100738095D02*
X154740533Y-100738095D01*
X154740533Y-100738095D02*
X154883390Y-100785714D01*
X154883390Y-100785714D02*
X155454819Y-101357142D01*
X155454819Y-101357142D02*
X155454819Y-100738095D01*
X157357142Y-81859580D02*
X157309523Y-81907200D01*
X157309523Y-81907200D02*
X157166666Y-81954819D01*
X157166666Y-81954819D02*
X157071428Y-81954819D01*
X157071428Y-81954819D02*
X156928571Y-81907200D01*
X156928571Y-81907200D02*
X156833333Y-81811961D01*
X156833333Y-81811961D02*
X156785714Y-81716723D01*
X156785714Y-81716723D02*
X156738095Y-81526247D01*
X156738095Y-81526247D02*
X156738095Y-81383390D01*
X156738095Y-81383390D02*
X156785714Y-81192914D01*
X156785714Y-81192914D02*
X156833333Y-81097676D01*
X156833333Y-81097676D02*
X156928571Y-81002438D01*
X156928571Y-81002438D02*
X157071428Y-80954819D01*
X157071428Y-80954819D02*
X157166666Y-80954819D01*
X157166666Y-80954819D02*
X157309523Y-81002438D01*
X157309523Y-81002438D02*
X157357142Y-81050057D01*
X158309523Y-81954819D02*
X157738095Y-81954819D01*
X158023809Y-81954819D02*
X158023809Y-80954819D01*
X158023809Y-80954819D02*
X157928571Y-81097676D01*
X157928571Y-81097676D02*
X157833333Y-81192914D01*
X157833333Y-81192914D02*
X157738095Y-81240533D01*
X159166666Y-80954819D02*
X158976190Y-80954819D01*
X158976190Y-80954819D02*
X158880952Y-81002438D01*
X158880952Y-81002438D02*
X158833333Y-81050057D01*
X158833333Y-81050057D02*
X158738095Y-81192914D01*
X158738095Y-81192914D02*
X158690476Y-81383390D01*
X158690476Y-81383390D02*
X158690476Y-81764342D01*
X158690476Y-81764342D02*
X158738095Y-81859580D01*
X158738095Y-81859580D02*
X158785714Y-81907200D01*
X158785714Y-81907200D02*
X158880952Y-81954819D01*
X158880952Y-81954819D02*
X159071428Y-81954819D01*
X159071428Y-81954819D02*
X159166666Y-81907200D01*
X159166666Y-81907200D02*
X159214285Y-81859580D01*
X159214285Y-81859580D02*
X159261904Y-81764342D01*
X159261904Y-81764342D02*
X159261904Y-81526247D01*
X159261904Y-81526247D02*
X159214285Y-81431009D01*
X159214285Y-81431009D02*
X159166666Y-81383390D01*
X159166666Y-81383390D02*
X159071428Y-81335771D01*
X159071428Y-81335771D02*
X158880952Y-81335771D01*
X158880952Y-81335771D02*
X158785714Y-81383390D01*
X158785714Y-81383390D02*
X158738095Y-81431009D01*
X158738095Y-81431009D02*
X158690476Y-81526247D01*
X164833333Y-85654819D02*
X164500000Y-85178628D01*
X164261905Y-85654819D02*
X164261905Y-84654819D01*
X164261905Y-84654819D02*
X164642857Y-84654819D01*
X164642857Y-84654819D02*
X164738095Y-84702438D01*
X164738095Y-84702438D02*
X164785714Y-84750057D01*
X164785714Y-84750057D02*
X164833333Y-84845295D01*
X164833333Y-84845295D02*
X164833333Y-84988152D01*
X164833333Y-84988152D02*
X164785714Y-85083390D01*
X164785714Y-85083390D02*
X164738095Y-85131009D01*
X164738095Y-85131009D02*
X164642857Y-85178628D01*
X164642857Y-85178628D02*
X164261905Y-85178628D01*
X165785714Y-85654819D02*
X165214286Y-85654819D01*
X165500000Y-85654819D02*
X165500000Y-84654819D01*
X165500000Y-84654819D02*
X165404762Y-84797676D01*
X165404762Y-84797676D02*
X165309524Y-84892914D01*
X165309524Y-84892914D02*
X165214286Y-84940533D01*
X130939948Y-93824350D02*
X130872604Y-93824350D01*
X130872604Y-93824350D02*
X130737917Y-93757006D01*
X130737917Y-93757006D02*
X130670574Y-93689663D01*
X130670574Y-93689663D02*
X130603230Y-93554976D01*
X130603230Y-93554976D02*
X130603230Y-93420289D01*
X130603230Y-93420289D02*
X130636902Y-93319274D01*
X130636902Y-93319274D02*
X130737917Y-93150915D01*
X130737917Y-93150915D02*
X130838932Y-93049900D01*
X130838932Y-93049900D02*
X131007291Y-92948884D01*
X131007291Y-92948884D02*
X131108306Y-92915213D01*
X131108306Y-92915213D02*
X131242993Y-92915213D01*
X131242993Y-92915213D02*
X131377680Y-92982556D01*
X131377680Y-92982556D02*
X131445024Y-93049900D01*
X131445024Y-93049900D02*
X131512367Y-93184587D01*
X131512367Y-93184587D02*
X131512367Y-93251930D01*
X132185802Y-93790678D02*
X132051115Y-93655991D01*
X132051115Y-93655991D02*
X131950100Y-93622319D01*
X131950100Y-93622319D02*
X131882757Y-93622319D01*
X131882757Y-93622319D02*
X131714398Y-93655991D01*
X131714398Y-93655991D02*
X131546039Y-93757006D01*
X131546039Y-93757006D02*
X131276665Y-94026380D01*
X131276665Y-94026380D02*
X131242993Y-94127396D01*
X131242993Y-94127396D02*
X131242993Y-94194739D01*
X131242993Y-94194739D02*
X131276665Y-94295754D01*
X131276665Y-94295754D02*
X131411352Y-94430441D01*
X131411352Y-94430441D02*
X131512367Y-94464113D01*
X131512367Y-94464113D02*
X131579711Y-94464113D01*
X131579711Y-94464113D02*
X131680726Y-94430441D01*
X131680726Y-94430441D02*
X131849085Y-94262083D01*
X131849085Y-94262083D02*
X131882757Y-94161067D01*
X131882757Y-94161067D02*
X131882757Y-94093724D01*
X131882757Y-94093724D02*
X131849085Y-93992709D01*
X131849085Y-93992709D02*
X131714398Y-93858022D01*
X131714398Y-93858022D02*
X131613383Y-93824350D01*
X131613383Y-93824350D02*
X131546039Y-93824350D01*
X131546039Y-93824350D02*
X131445024Y-93858022D01*
X145438095Y-80904819D02*
X145438095Y-81714342D01*
X145438095Y-81714342D02*
X145485714Y-81809580D01*
X145485714Y-81809580D02*
X145533333Y-81857200D01*
X145533333Y-81857200D02*
X145628571Y-81904819D01*
X145628571Y-81904819D02*
X145819047Y-81904819D01*
X145819047Y-81904819D02*
X145914285Y-81857200D01*
X145914285Y-81857200D02*
X145961904Y-81809580D01*
X145961904Y-81809580D02*
X146009523Y-81714342D01*
X146009523Y-81714342D02*
X146009523Y-80904819D01*
X146390476Y-80904819D02*
X147009523Y-80904819D01*
X147009523Y-80904819D02*
X146676190Y-81285771D01*
X146676190Y-81285771D02*
X146819047Y-81285771D01*
X146819047Y-81285771D02*
X146914285Y-81333390D01*
X146914285Y-81333390D02*
X146961904Y-81381009D01*
X146961904Y-81381009D02*
X147009523Y-81476247D01*
X147009523Y-81476247D02*
X147009523Y-81714342D01*
X147009523Y-81714342D02*
X146961904Y-81809580D01*
X146961904Y-81809580D02*
X146914285Y-81857200D01*
X146914285Y-81857200D02*
X146819047Y-81904819D01*
X146819047Y-81904819D02*
X146533333Y-81904819D01*
X146533333Y-81904819D02*
X146438095Y-81857200D01*
X146438095Y-81857200D02*
X146390476Y-81809580D01*
X154761905Y-91854819D02*
X154761905Y-90854819D01*
X154761905Y-90854819D02*
X155000000Y-90854819D01*
X155000000Y-90854819D02*
X155142857Y-90902438D01*
X155142857Y-90902438D02*
X155238095Y-90997676D01*
X155238095Y-90997676D02*
X155285714Y-91092914D01*
X155285714Y-91092914D02*
X155333333Y-91283390D01*
X155333333Y-91283390D02*
X155333333Y-91426247D01*
X155333333Y-91426247D02*
X155285714Y-91616723D01*
X155285714Y-91616723D02*
X155238095Y-91711961D01*
X155238095Y-91711961D02*
X155142857Y-91807200D01*
X155142857Y-91807200D02*
X155000000Y-91854819D01*
X155000000Y-91854819D02*
X154761905Y-91854819D01*
X155666667Y-90854819D02*
X156285714Y-90854819D01*
X156285714Y-90854819D02*
X155952381Y-91235771D01*
X155952381Y-91235771D02*
X156095238Y-91235771D01*
X156095238Y-91235771D02*
X156190476Y-91283390D01*
X156190476Y-91283390D02*
X156238095Y-91331009D01*
X156238095Y-91331009D02*
X156285714Y-91426247D01*
X156285714Y-91426247D02*
X156285714Y-91664342D01*
X156285714Y-91664342D02*
X156238095Y-91759580D01*
X156238095Y-91759580D02*
X156190476Y-91807200D01*
X156190476Y-91807200D02*
X156095238Y-91854819D01*
X156095238Y-91854819D02*
X155809524Y-91854819D01*
X155809524Y-91854819D02*
X155714286Y-91807200D01*
X155714286Y-91807200D02*
X155666667Y-91759580D01*
X154057142Y-99859580D02*
X154009523Y-99907200D01*
X154009523Y-99907200D02*
X153866666Y-99954819D01*
X153866666Y-99954819D02*
X153771428Y-99954819D01*
X153771428Y-99954819D02*
X153628571Y-99907200D01*
X153628571Y-99907200D02*
X153533333Y-99811961D01*
X153533333Y-99811961D02*
X153485714Y-99716723D01*
X153485714Y-99716723D02*
X153438095Y-99526247D01*
X153438095Y-99526247D02*
X153438095Y-99383390D01*
X153438095Y-99383390D02*
X153485714Y-99192914D01*
X153485714Y-99192914D02*
X153533333Y-99097676D01*
X153533333Y-99097676D02*
X153628571Y-99002438D01*
X153628571Y-99002438D02*
X153771428Y-98954819D01*
X153771428Y-98954819D02*
X153866666Y-98954819D01*
X153866666Y-98954819D02*
X154009523Y-99002438D01*
X154009523Y-99002438D02*
X154057142Y-99050057D01*
X155009523Y-99954819D02*
X154438095Y-99954819D01*
X154723809Y-99954819D02*
X154723809Y-98954819D01*
X154723809Y-98954819D02*
X154628571Y-99097676D01*
X154628571Y-99097676D02*
X154533333Y-99192914D01*
X154533333Y-99192914D02*
X154438095Y-99240533D01*
X155961904Y-99954819D02*
X155390476Y-99954819D01*
X155676190Y-99954819D02*
X155676190Y-98954819D01*
X155676190Y-98954819D02*
X155580952Y-99097676D01*
X155580952Y-99097676D02*
X155485714Y-99192914D01*
X155485714Y-99192914D02*
X155390476Y-99240533D01*
X138954819Y-87666666D02*
X138478628Y-87999999D01*
X138954819Y-88238094D02*
X137954819Y-88238094D01*
X137954819Y-88238094D02*
X137954819Y-87857142D01*
X137954819Y-87857142D02*
X138002438Y-87761904D01*
X138002438Y-87761904D02*
X138050057Y-87714285D01*
X138050057Y-87714285D02*
X138145295Y-87666666D01*
X138145295Y-87666666D02*
X138288152Y-87666666D01*
X138288152Y-87666666D02*
X138383390Y-87714285D01*
X138383390Y-87714285D02*
X138431009Y-87761904D01*
X138431009Y-87761904D02*
X138478628Y-87857142D01*
X138478628Y-87857142D02*
X138478628Y-88238094D01*
X137954819Y-86809523D02*
X137954819Y-86999999D01*
X137954819Y-86999999D02*
X138002438Y-87095237D01*
X138002438Y-87095237D02*
X138050057Y-87142856D01*
X138050057Y-87142856D02*
X138192914Y-87238094D01*
X138192914Y-87238094D02*
X138383390Y-87285713D01*
X138383390Y-87285713D02*
X138764342Y-87285713D01*
X138764342Y-87285713D02*
X138859580Y-87238094D01*
X138859580Y-87238094D02*
X138907200Y-87190475D01*
X138907200Y-87190475D02*
X138954819Y-87095237D01*
X138954819Y-87095237D02*
X138954819Y-86904761D01*
X138954819Y-86904761D02*
X138907200Y-86809523D01*
X138907200Y-86809523D02*
X138859580Y-86761904D01*
X138859580Y-86761904D02*
X138764342Y-86714285D01*
X138764342Y-86714285D02*
X138526247Y-86714285D01*
X138526247Y-86714285D02*
X138431009Y-86761904D01*
X138431009Y-86761904D02*
X138383390Y-86809523D01*
X138383390Y-86809523D02*
X138335771Y-86904761D01*
X138335771Y-86904761D02*
X138335771Y-87095237D01*
X138335771Y-87095237D02*
X138383390Y-87190475D01*
X138383390Y-87190475D02*
X138431009Y-87238094D01*
X138431009Y-87238094D02*
X138526247Y-87285713D01*
X136178393Y-87898170D02*
X135841675Y-88234888D01*
X136313080Y-87292079D02*
X136178393Y-87898170D01*
X136178393Y-87898170D02*
X136784484Y-87763483D01*
X136683469Y-89076681D02*
X136279408Y-88672620D01*
X136481439Y-88874651D02*
X137188545Y-88167544D01*
X137188545Y-88167544D02*
X137020187Y-88201216D01*
X137020187Y-88201216D02*
X136885500Y-88201216D01*
X136885500Y-88201216D02*
X136784484Y-88167544D01*
X155759580Y-97167857D02*
X155807200Y-97215476D01*
X155807200Y-97215476D02*
X155854819Y-97358333D01*
X155854819Y-97358333D02*
X155854819Y-97453571D01*
X155854819Y-97453571D02*
X155807200Y-97596428D01*
X155807200Y-97596428D02*
X155711961Y-97691666D01*
X155711961Y-97691666D02*
X155616723Y-97739285D01*
X155616723Y-97739285D02*
X155426247Y-97786904D01*
X155426247Y-97786904D02*
X155283390Y-97786904D01*
X155283390Y-97786904D02*
X155092914Y-97739285D01*
X155092914Y-97739285D02*
X154997676Y-97691666D01*
X154997676Y-97691666D02*
X154902438Y-97596428D01*
X154902438Y-97596428D02*
X154854819Y-97453571D01*
X154854819Y-97453571D02*
X154854819Y-97358333D01*
X154854819Y-97358333D02*
X154902438Y-97215476D01*
X154902438Y-97215476D02*
X154950057Y-97167857D01*
X155854819Y-96215476D02*
X155854819Y-96786904D01*
X155854819Y-96501190D02*
X154854819Y-96501190D01*
X154854819Y-96501190D02*
X154997676Y-96596428D01*
X154997676Y-96596428D02*
X155092914Y-96691666D01*
X155092914Y-96691666D02*
X155140533Y-96786904D01*
X154854819Y-95882142D02*
X154854819Y-95215476D01*
X154854819Y-95215476D02*
X155854819Y-95644047D01*
X160833333Y-85654819D02*
X160500000Y-85178628D01*
X160261905Y-85654819D02*
X160261905Y-84654819D01*
X160261905Y-84654819D02*
X160642857Y-84654819D01*
X160642857Y-84654819D02*
X160738095Y-84702438D01*
X160738095Y-84702438D02*
X160785714Y-84750057D01*
X160785714Y-84750057D02*
X160833333Y-84845295D01*
X160833333Y-84845295D02*
X160833333Y-84988152D01*
X160833333Y-84988152D02*
X160785714Y-85083390D01*
X160785714Y-85083390D02*
X160738095Y-85131009D01*
X160738095Y-85131009D02*
X160642857Y-85178628D01*
X160642857Y-85178628D02*
X160261905Y-85178628D01*
X161404762Y-85083390D02*
X161309524Y-85035771D01*
X161309524Y-85035771D02*
X161261905Y-84988152D01*
X161261905Y-84988152D02*
X161214286Y-84892914D01*
X161214286Y-84892914D02*
X161214286Y-84845295D01*
X161214286Y-84845295D02*
X161261905Y-84750057D01*
X161261905Y-84750057D02*
X161309524Y-84702438D01*
X161309524Y-84702438D02*
X161404762Y-84654819D01*
X161404762Y-84654819D02*
X161595238Y-84654819D01*
X161595238Y-84654819D02*
X161690476Y-84702438D01*
X161690476Y-84702438D02*
X161738095Y-84750057D01*
X161738095Y-84750057D02*
X161785714Y-84845295D01*
X161785714Y-84845295D02*
X161785714Y-84892914D01*
X161785714Y-84892914D02*
X161738095Y-84988152D01*
X161738095Y-84988152D02*
X161690476Y-85035771D01*
X161690476Y-85035771D02*
X161595238Y-85083390D01*
X161595238Y-85083390D02*
X161404762Y-85083390D01*
X161404762Y-85083390D02*
X161309524Y-85131009D01*
X161309524Y-85131009D02*
X161261905Y-85178628D01*
X161261905Y-85178628D02*
X161214286Y-85273866D01*
X161214286Y-85273866D02*
X161214286Y-85464342D01*
X161214286Y-85464342D02*
X161261905Y-85559580D01*
X161261905Y-85559580D02*
X161309524Y-85607200D01*
X161309524Y-85607200D02*
X161404762Y-85654819D01*
X161404762Y-85654819D02*
X161595238Y-85654819D01*
X161595238Y-85654819D02*
X161690476Y-85607200D01*
X161690476Y-85607200D02*
X161738095Y-85559580D01*
X161738095Y-85559580D02*
X161785714Y-85464342D01*
X161785714Y-85464342D02*
X161785714Y-85273866D01*
X161785714Y-85273866D02*
X161738095Y-85178628D01*
X161738095Y-85178628D02*
X161690476Y-85131009D01*
X161690476Y-85131009D02*
X161595238Y-85083390D01*
X159857142Y-100059580D02*
X159809523Y-100107200D01*
X159809523Y-100107200D02*
X159666666Y-100154819D01*
X159666666Y-100154819D02*
X159571428Y-100154819D01*
X159571428Y-100154819D02*
X159428571Y-100107200D01*
X159428571Y-100107200D02*
X159333333Y-100011961D01*
X159333333Y-100011961D02*
X159285714Y-99916723D01*
X159285714Y-99916723D02*
X159238095Y-99726247D01*
X159238095Y-99726247D02*
X159238095Y-99583390D01*
X159238095Y-99583390D02*
X159285714Y-99392914D01*
X159285714Y-99392914D02*
X159333333Y-99297676D01*
X159333333Y-99297676D02*
X159428571Y-99202438D01*
X159428571Y-99202438D02*
X159571428Y-99154819D01*
X159571428Y-99154819D02*
X159666666Y-99154819D01*
X159666666Y-99154819D02*
X159809523Y-99202438D01*
X159809523Y-99202438D02*
X159857142Y-99250057D01*
X160809523Y-100154819D02*
X160238095Y-100154819D01*
X160523809Y-100154819D02*
X160523809Y-99154819D01*
X160523809Y-99154819D02*
X160428571Y-99297676D01*
X160428571Y-99297676D02*
X160333333Y-99392914D01*
X160333333Y-99392914D02*
X160238095Y-99440533D01*
X161428571Y-99154819D02*
X161523809Y-99154819D01*
X161523809Y-99154819D02*
X161619047Y-99202438D01*
X161619047Y-99202438D02*
X161666666Y-99250057D01*
X161666666Y-99250057D02*
X161714285Y-99345295D01*
X161714285Y-99345295D02*
X161761904Y-99535771D01*
X161761904Y-99535771D02*
X161761904Y-99773866D01*
X161761904Y-99773866D02*
X161714285Y-99964342D01*
X161714285Y-99964342D02*
X161666666Y-100059580D01*
X161666666Y-100059580D02*
X161619047Y-100107200D01*
X161619047Y-100107200D02*
X161523809Y-100154819D01*
X161523809Y-100154819D02*
X161428571Y-100154819D01*
X161428571Y-100154819D02*
X161333333Y-100107200D01*
X161333333Y-100107200D02*
X161285714Y-100059580D01*
X161285714Y-100059580D02*
X161238095Y-99964342D01*
X161238095Y-99964342D02*
X161190476Y-99773866D01*
X161190476Y-99773866D02*
X161190476Y-99535771D01*
X161190476Y-99535771D02*
X161238095Y-99345295D01*
X161238095Y-99345295D02*
X161285714Y-99250057D01*
X161285714Y-99250057D02*
X161333333Y-99202438D01*
X161333333Y-99202438D02*
X161428571Y-99154819D01*
X151033333Y-87109580D02*
X150985714Y-87157200D01*
X150985714Y-87157200D02*
X150842857Y-87204819D01*
X150842857Y-87204819D02*
X150747619Y-87204819D01*
X150747619Y-87204819D02*
X150604762Y-87157200D01*
X150604762Y-87157200D02*
X150509524Y-87061961D01*
X150509524Y-87061961D02*
X150461905Y-86966723D01*
X150461905Y-86966723D02*
X150414286Y-86776247D01*
X150414286Y-86776247D02*
X150414286Y-86633390D01*
X150414286Y-86633390D02*
X150461905Y-86442914D01*
X150461905Y-86442914D02*
X150509524Y-86347676D01*
X150509524Y-86347676D02*
X150604762Y-86252438D01*
X150604762Y-86252438D02*
X150747619Y-86204819D01*
X150747619Y-86204819D02*
X150842857Y-86204819D01*
X150842857Y-86204819D02*
X150985714Y-86252438D01*
X150985714Y-86252438D02*
X151033333Y-86300057D01*
X151604762Y-86633390D02*
X151509524Y-86585771D01*
X151509524Y-86585771D02*
X151461905Y-86538152D01*
X151461905Y-86538152D02*
X151414286Y-86442914D01*
X151414286Y-86442914D02*
X151414286Y-86395295D01*
X151414286Y-86395295D02*
X151461905Y-86300057D01*
X151461905Y-86300057D02*
X151509524Y-86252438D01*
X151509524Y-86252438D02*
X151604762Y-86204819D01*
X151604762Y-86204819D02*
X151795238Y-86204819D01*
X151795238Y-86204819D02*
X151890476Y-86252438D01*
X151890476Y-86252438D02*
X151938095Y-86300057D01*
X151938095Y-86300057D02*
X151985714Y-86395295D01*
X151985714Y-86395295D02*
X151985714Y-86442914D01*
X151985714Y-86442914D02*
X151938095Y-86538152D01*
X151938095Y-86538152D02*
X151890476Y-86585771D01*
X151890476Y-86585771D02*
X151795238Y-86633390D01*
X151795238Y-86633390D02*
X151604762Y-86633390D01*
X151604762Y-86633390D02*
X151509524Y-86681009D01*
X151509524Y-86681009D02*
X151461905Y-86728628D01*
X151461905Y-86728628D02*
X151414286Y-86823866D01*
X151414286Y-86823866D02*
X151414286Y-87014342D01*
X151414286Y-87014342D02*
X151461905Y-87109580D01*
X151461905Y-87109580D02*
X151509524Y-87157200D01*
X151509524Y-87157200D02*
X151604762Y-87204819D01*
X151604762Y-87204819D02*
X151795238Y-87204819D01*
X151795238Y-87204819D02*
X151890476Y-87157200D01*
X151890476Y-87157200D02*
X151938095Y-87109580D01*
X151938095Y-87109580D02*
X151985714Y-87014342D01*
X151985714Y-87014342D02*
X151985714Y-86823866D01*
X151985714Y-86823866D02*
X151938095Y-86728628D01*
X151938095Y-86728628D02*
X151890476Y-86681009D01*
X151890476Y-86681009D02*
X151795238Y-86633390D01*
X136833333Y-86859580D02*
X136785714Y-86907200D01*
X136785714Y-86907200D02*
X136642857Y-86954819D01*
X136642857Y-86954819D02*
X136547619Y-86954819D01*
X136547619Y-86954819D02*
X136404762Y-86907200D01*
X136404762Y-86907200D02*
X136309524Y-86811961D01*
X136309524Y-86811961D02*
X136261905Y-86716723D01*
X136261905Y-86716723D02*
X136214286Y-86526247D01*
X136214286Y-86526247D02*
X136214286Y-86383390D01*
X136214286Y-86383390D02*
X136261905Y-86192914D01*
X136261905Y-86192914D02*
X136309524Y-86097676D01*
X136309524Y-86097676D02*
X136404762Y-86002438D01*
X136404762Y-86002438D02*
X136547619Y-85954819D01*
X136547619Y-85954819D02*
X136642857Y-85954819D01*
X136642857Y-85954819D02*
X136785714Y-86002438D01*
X136785714Y-86002438D02*
X136833333Y-86050057D01*
X137690476Y-86288152D02*
X137690476Y-86954819D01*
X137452381Y-85907200D02*
X137214286Y-86621485D01*
X137214286Y-86621485D02*
X137833333Y-86621485D01*
D11*
X151988748Y-89515000D02*
X152511252Y-89515000D01*
X151988748Y-90985000D02*
X152511252Y-90985000D01*
X162265000Y-82738748D02*
X162265000Y-83261252D01*
X163735000Y-82738748D02*
X163735000Y-83261252D01*
X153540000Y-80815000D02*
X153540000Y-83500000D01*
X155460000Y-80815000D02*
X153540000Y-80815000D01*
X155460000Y-83500000D02*
X155460000Y-80815000D01*
X165500000Y-100440000D02*
X164700000Y-100440000D01*
X165500000Y-100440000D02*
X166300000Y-100440000D01*
X165500000Y-103560000D02*
X164700000Y-103560000D01*
X165500000Y-103560000D02*
X166300000Y-103560000D01*
X164200000Y-100490000D02*
X163960000Y-100160000D01*
X164440000Y-100160000D01*
X164200000Y-100490000D01*
G36*
X164200000Y-100490000D02*
G01*
X163960000Y-100160000D01*
X164440000Y-100160000D01*
X164200000Y-100490000D01*
G37*
X160390000Y-95761252D02*
X160390000Y-95238748D01*
X162610000Y-95761252D02*
X162610000Y-95238748D01*
X132000000Y-97940000D02*
X130050000Y-97940000D01*
X132000000Y-97940000D02*
X133950000Y-97940000D01*
X132000000Y-103060000D02*
X130050000Y-103060000D01*
X132000000Y-103060000D02*
X133950000Y-103060000D01*
X129300000Y-98035000D02*
X129060000Y-97705000D01*
X129540000Y-97705000D01*
X129300000Y-98035000D01*
G36*
X129300000Y-98035000D02*
G01*
X129060000Y-97705000D01*
X129540000Y-97705000D01*
X129300000Y-98035000D01*
G37*
X137245000Y-93922500D02*
X152745000Y-93922500D01*
X137245000Y-103042500D02*
X137245000Y-93922500D01*
X138545000Y-95232500D02*
X151445000Y-95232500D01*
X138545000Y-101732500D02*
X138545000Y-95232500D01*
X141955000Y-104432500D02*
X142955000Y-104432500D01*
X142455000Y-103432500D02*
X141955000Y-104432500D01*
X142945000Y-101732500D02*
X138545000Y-101732500D01*
X142945000Y-103042500D02*
X142945000Y-101732500D01*
X142955000Y-104432500D02*
X142455000Y-103432500D01*
X147045000Y-101732500D02*
X147045000Y-101732500D01*
X147045000Y-101732500D02*
X147045000Y-103042500D01*
X151445000Y-95232500D02*
X151445000Y-101732500D01*
X151445000Y-101732500D02*
X147045000Y-101732500D01*
X152745000Y-93922500D02*
X152745000Y-103042500D01*
X152745000Y-103042500D02*
X137245000Y-103042500D01*
X157440000Y-87500000D02*
X157440000Y-86700000D01*
X157440000Y-87500000D02*
X157440000Y-88300000D01*
X160560000Y-87500000D02*
X160560000Y-86700000D01*
X160560000Y-87500000D02*
X160560000Y-88300000D01*
X157490000Y-88800000D02*
X157160000Y-89040000D01*
X157160000Y-88560000D01*
X157490000Y-88800000D01*
G36*
X157490000Y-88800000D02*
G01*
X157160000Y-89040000D01*
X157160000Y-88560000D01*
X157490000Y-88800000D01*
G37*
X132415010Y-87545543D02*
X132045543Y-87915010D01*
X133454457Y-88584990D02*
X133084990Y-88954457D01*
X165861252Y-96765000D02*
X165338748Y-96765000D01*
X165861252Y-98235000D02*
X165338748Y-98235000D01*
X155765000Y-102261252D02*
X155765000Y-101738748D01*
X157235000Y-102261252D02*
X157235000Y-101738748D01*
X157738748Y-82265000D02*
X158261252Y-82265000D01*
X157738748Y-83735000D02*
X158261252Y-83735000D01*
X164265000Y-82772936D02*
X164265000Y-83227064D01*
X165735000Y-82772936D02*
X165735000Y-83227064D01*
X132165010Y-93204457D02*
X131795543Y-92834990D01*
X133204457Y-92165010D02*
X132834990Y-91795543D01*
D10*
X141375000Y-83875000D02*
X141375000Y-84100000D01*
X141375000Y-83875000D02*
X141700000Y-83875000D01*
X141375000Y-91125000D02*
X141375000Y-90800000D01*
X141375000Y-91125000D02*
X141700000Y-91125000D01*
X148625000Y-83875000D02*
X148300000Y-83875000D01*
X148625000Y-83875000D02*
X148625000Y-84200000D01*
X148625000Y-91125000D02*
X148300000Y-91125000D01*
X148625000Y-91125000D02*
X148625000Y-90800000D01*
D11*
X140610000Y-84160000D02*
X140270000Y-83690000D01*
X140950000Y-83690000D01*
X140610000Y-84160000D01*
G36*
X140610000Y-84160000D02*
G01*
X140270000Y-83690000D01*
X140950000Y-83690000D01*
X140610000Y-84160000D01*
G37*
X154140000Y-90660000D02*
X154140000Y-85600000D01*
X154140000Y-90660000D02*
X156860000Y-90660000D01*
X156860000Y-90660000D02*
X156860000Y-85600000D01*
X157765000Y-101738748D02*
X157765000Y-102261252D01*
X159235000Y-101738748D02*
X159235000Y-102261252D01*
X137765000Y-90227064D02*
X137765000Y-89772936D01*
X139235000Y-90227064D02*
X139235000Y-89772936D01*
X132169060Y-90497487D02*
X134502513Y-92830940D01*
X134502513Y-92830940D02*
X137330940Y-90002513D01*
X121750000Y-82250000D02*
X121750000Y-84250000D01*
X122750000Y-80950000D02*
X123200000Y-80500000D01*
X122750000Y-85550000D02*
X123200000Y-86000000D01*
X123200000Y-80500000D02*
X125800000Y-80500000D01*
X123200000Y-86000000D02*
X125800000Y-86000000D01*
X126250000Y-80950000D02*
X125800000Y-80500000D01*
X126250000Y-85550000D02*
X125800000Y-86000000D01*
X127250000Y-82250000D02*
X127250000Y-84250000D01*
X120905000Y-103855000D02*
X120905000Y-96115000D01*
X123505000Y-101255000D02*
X123505000Y-103855000D01*
X123505000Y-103855000D02*
X120905000Y-103855000D01*
X126105000Y-96115000D02*
X120905000Y-96115000D01*
X126105000Y-101255000D02*
X123505000Y-101255000D01*
X126105000Y-101255000D02*
X126105000Y-96115000D01*
X126105000Y-102525000D02*
X126105000Y-103855000D01*
X126105000Y-103855000D02*
X124775000Y-103855000D01*
X156140000Y-95813748D02*
X156140000Y-97236252D01*
X158860000Y-95813748D02*
X158860000Y-97236252D01*
X160265000Y-83227064D02*
X160265000Y-82772936D01*
X161735000Y-83227064D02*
X161735000Y-82772936D01*
X159765000Y-102261252D02*
X159765000Y-101738748D01*
X161235000Y-102261252D02*
X161235000Y-101738748D01*
X151988748Y-87515000D02*
X152511252Y-87515000D01*
X151988748Y-88985000D02*
X152511252Y-88985000D01*
X137261252Y-84265000D02*
X136738748Y-84265000D01*
X137261252Y-85735000D02*
X136738748Y-85735000D01*
%LPC*%
D12*
X151300000Y-90250000D03*
X153200000Y-90250000D03*
D13*
X163000000Y-82050000D03*
X163000000Y-83950000D03*
D14*
X154500000Y-81562500D03*
X154500000Y-83437500D03*
D15*
X123500000Y-90000000D03*
D16*
X164362500Y-101050000D03*
X164362500Y-102000000D03*
X164362500Y-102950000D03*
X166637500Y-102950000D03*
X166637500Y-102000000D03*
X166637500Y-101050000D03*
D15*
X166500000Y-90000000D03*
D17*
X161500000Y-96575000D03*
X161500000Y-94425000D03*
D18*
X129525000Y-98595000D03*
X129525000Y-99865000D03*
X129525000Y-101135000D03*
X129525000Y-102405000D03*
X134475000Y-102405000D03*
X134475000Y-101135000D03*
X134475000Y-99865000D03*
X134475000Y-98595000D03*
D19*
X142455000Y-99752500D03*
D20*
X142455000Y-97212500D03*
X144995000Y-99752500D03*
X144995000Y-97212500D03*
X147535000Y-99752500D03*
X147535000Y-97212500D03*
D21*
X158050000Y-88637500D03*
X159000000Y-88637500D03*
X159950000Y-88637500D03*
X159950000Y-86362500D03*
X158050000Y-86362500D03*
D22*
X133421751Y-87578249D03*
X132078249Y-88921751D03*
D23*
X166550000Y-97500000D03*
X164650000Y-97500000D03*
D24*
X156500000Y-102950000D03*
X156500000Y-101050000D03*
D12*
X157050000Y-83000000D03*
X158950000Y-83000000D03*
D25*
X165000000Y-82087500D03*
X165000000Y-83912500D03*
D26*
X133171751Y-93171751D03*
X131828249Y-91828249D03*
D27*
X140750000Y-84700000D03*
X140750000Y-85500000D03*
X140750000Y-86300000D03*
X140750000Y-87100000D03*
X140750000Y-87900000D03*
X140750000Y-88700000D03*
X140750000Y-89500000D03*
X140750000Y-90300000D03*
D28*
X142200000Y-91750000D03*
X143000000Y-91750000D03*
X143800000Y-91750000D03*
X144600000Y-91750000D03*
X145400000Y-91750000D03*
X146200000Y-91750000D03*
X147000000Y-91750000D03*
X147800000Y-91750000D03*
D27*
X149250000Y-90300000D03*
X149250000Y-89500000D03*
X149250000Y-88700000D03*
X149250000Y-87900000D03*
X149250000Y-87100000D03*
X149250000Y-86300000D03*
X149250000Y-85500000D03*
X149250000Y-84700000D03*
D28*
X147800000Y-83250000D03*
X147000000Y-83250000D03*
X146200000Y-83250000D03*
X145400000Y-83250000D03*
X144600000Y-83250000D03*
X143800000Y-83250000D03*
X143000000Y-83250000D03*
X142200000Y-83250000D03*
D29*
X155500000Y-89700000D03*
X155500000Y-85300000D03*
D13*
X158500000Y-101050000D03*
X158500000Y-102950000D03*
D30*
X138500000Y-90912500D03*
X138500000Y-89087500D03*
D31*
X134573223Y-91628858D03*
X136128858Y-90073223D03*
X134926777Y-88871142D03*
X133371142Y-90426777D03*
D32*
X121500000Y-81375000D03*
X127500000Y-81375000D03*
X121500000Y-85125000D03*
X127500000Y-85125000D03*
D33*
X124775000Y-102525000D03*
D34*
X122235000Y-102525000D03*
X124775000Y-99985000D03*
X122235000Y-99985000D03*
X124775000Y-97445000D03*
X122235000Y-97445000D03*
D35*
X157500000Y-95050000D03*
X157500000Y-98000000D03*
D30*
X161000000Y-83912500D03*
X161000000Y-82087500D03*
D24*
X160500000Y-102950000D03*
X160500000Y-101050000D03*
D12*
X151300000Y-88250000D03*
X153200000Y-88250000D03*
D23*
X137950000Y-85000000D03*
X136050000Y-85000000D03*
%LPD*%
M02*
