%TF.GenerationSoftware,KiCad,Pcbnew,8.0.5*%
%TF.CreationDate,2024-09-14T16:18:57+01:00*%
%TF.ProjectId,RotationEncoder,526f7461-7469-46f6-9e45-6e636f646572,rev?*%
%TF.SameCoordinates,Original*%
%TF.FileFunction,Drillmap*%
%TF.FilePolarity,Positive*%
%FSLAX45Y45*%
G04 Gerber Fmt 4.5, Leading zero omitted, Abs format (unit mm)*
G04 Created by KiCad (PCBNEW 8.0.5) date 2024-09-14 16:18:57*
%MOMM*%
%LPD*%
G01*
G04 APERTURE LIST*
%ADD10C,0.050000*%
%ADD11C,0.200000*%
%ADD12C,0.100000*%
G04 APERTURE END LIST*
D10*
X12000000Y-8000000D02*
X17000000Y-8000000D01*
X17000000Y-10500000D01*
X12000000Y-10500000D01*
X12000000Y-8000000D01*
D11*
D12*
X12130000Y-8230000D02*
X12170000Y-8270000D01*
X12170000Y-8230000D02*
X12130000Y-8270000D01*
X12130000Y-8380000D02*
X12170000Y-8420000D01*
X12170000Y-8380000D02*
X12130000Y-8420000D01*
X12280000Y-8230000D02*
X12320000Y-8270000D01*
X12320000Y-8230000D02*
X12280000Y-8270000D01*
X12730000Y-8230000D02*
X12770000Y-8270000D01*
X12770000Y-8230000D02*
X12730000Y-8270000D01*
X12730000Y-9930000D02*
X12770000Y-9970000D01*
X12770000Y-9930000D02*
X12730000Y-9970000D01*
X12880000Y-8080000D02*
X12920000Y-8120000D01*
X12920000Y-8080000D02*
X12880000Y-8120000D01*
X13080000Y-8980000D02*
X13120000Y-9020000D01*
X13120000Y-8980000D02*
X13080000Y-9020000D01*
X13080000Y-9080000D02*
X13120000Y-9120000D01*
X13120000Y-9080000D02*
X13080000Y-9120000D01*
X13330000Y-8580000D02*
X13370000Y-8620000D01*
X13370000Y-8580000D02*
X13330000Y-8620000D01*
X13330000Y-9430000D02*
X13370000Y-9470000D01*
X13370000Y-9430000D02*
X13330000Y-9470000D01*
X13430000Y-8680000D02*
X13470000Y-8720000D01*
X13470000Y-8680000D02*
X13430000Y-8720000D01*
X13430000Y-9330000D02*
X13470000Y-9370000D01*
X13470000Y-9330000D02*
X13430000Y-9370000D01*
X13680000Y-8880000D02*
X13720000Y-8920000D01*
X13720000Y-8880000D02*
X13680000Y-8920000D01*
X13680000Y-9080000D02*
X13720000Y-9120000D01*
X13720000Y-9080000D02*
X13680000Y-9120000D01*
X13830000Y-8730000D02*
X13870000Y-8770000D01*
X13870000Y-8730000D02*
X13830000Y-8770000D01*
X13830000Y-9230000D02*
X13870000Y-9270000D01*
X13870000Y-9230000D02*
X13830000Y-9270000D01*
X13880000Y-9630000D02*
X13920000Y-9670000D01*
X13920000Y-9630000D02*
X13880000Y-9670000D01*
X13980000Y-9380000D02*
X14020000Y-9420000D01*
X14020000Y-9380000D02*
X13980000Y-9420000D01*
X14080000Y-8330000D02*
X14120000Y-8370000D01*
X14120000Y-8330000D02*
X14080000Y-8370000D01*
X14180000Y-9330000D02*
X14220000Y-9370000D01*
X14220000Y-9330000D02*
X14180000Y-9370000D01*
X14380000Y-8730000D02*
X14420000Y-8770000D01*
X14420000Y-8730000D02*
X14380000Y-8770000D01*
X14480000Y-8130000D02*
X14520000Y-8170000D01*
X14520000Y-8130000D02*
X14480000Y-8170000D01*
X14530000Y-8480000D02*
X14570000Y-8520000D01*
X14570000Y-8480000D02*
X14530000Y-8520000D01*
X14530000Y-8980000D02*
X14570000Y-9020000D01*
X14570000Y-8980000D02*
X14530000Y-9020000D01*
X14680000Y-8480000D02*
X14720000Y-8520000D01*
X14720000Y-8480000D02*
X14680000Y-8520000D01*
X14680000Y-9420000D02*
X14720000Y-9460000D01*
X14720000Y-9420000D02*
X14680000Y-9460000D01*
X14980000Y-9630000D02*
X15020000Y-9670000D01*
X15020000Y-9630000D02*
X14980000Y-9670000D01*
X15080000Y-9430000D02*
X15120000Y-9470000D01*
X15120000Y-9430000D02*
X15080000Y-9470000D01*
X15230000Y-8080000D02*
X15270000Y-8120000D01*
X15270000Y-8080000D02*
X15230000Y-8120000D01*
X15330000Y-9380000D02*
X15370000Y-9420000D01*
X15370000Y-9380000D02*
X15330000Y-9420000D01*
X15330000Y-9530000D02*
X15370000Y-9570000D01*
X15370000Y-9530000D02*
X15330000Y-9570000D01*
X15330000Y-9680000D02*
X15370000Y-9720000D01*
X15370000Y-9680000D02*
X15330000Y-9720000D01*
X15580000Y-8080000D02*
X15620000Y-8120000D01*
X15620000Y-8080000D02*
X15580000Y-8120000D01*
X15580000Y-9930000D02*
X15620000Y-9970000D01*
X15620000Y-9930000D02*
X15580000Y-9970000D01*
X15730000Y-8130000D02*
X15770000Y-8170000D01*
X15770000Y-8130000D02*
X15730000Y-8170000D01*
X15730000Y-9230000D02*
X15770000Y-9270000D01*
X15770000Y-9230000D02*
X15730000Y-9270000D01*
X15730000Y-9930000D02*
X15770000Y-9970000D01*
X15770000Y-9930000D02*
X15730000Y-9970000D01*
X15830000Y-8130000D02*
X15870000Y-8170000D01*
X15870000Y-8130000D02*
X15830000Y-8170000D01*
X15880000Y-8530000D02*
X15920000Y-8570000D01*
X15920000Y-8530000D02*
X15880000Y-8570000D01*
X15880000Y-8730000D02*
X15920000Y-8770000D01*
X15920000Y-8730000D02*
X15880000Y-8770000D01*
X15880000Y-8980000D02*
X15920000Y-9020000D01*
X15920000Y-8980000D02*
X15880000Y-9020000D01*
X15880000Y-9930000D02*
X15920000Y-9970000D01*
X15920000Y-9930000D02*
X15880000Y-9970000D01*
X15930000Y-8130000D02*
X15970000Y-8170000D01*
X15970000Y-8130000D02*
X15930000Y-8170000D01*
X16080000Y-8077500D02*
X16120000Y-8117500D01*
X16120000Y-8077500D02*
X16080000Y-8117500D01*
X16080000Y-9780000D02*
X16120000Y-9820000D01*
X16120000Y-9780000D02*
X16080000Y-9820000D01*
X16130000Y-8530000D02*
X16170000Y-8570000D01*
X16170000Y-8530000D02*
X16130000Y-8570000D01*
X16180000Y-9780000D02*
X16220000Y-9820000D01*
X16220000Y-9780000D02*
X16180000Y-9820000D01*
X16180000Y-10180000D02*
X16220000Y-10220000D01*
X16220000Y-10180000D02*
X16180000Y-10220000D01*
X16230000Y-10030000D02*
X16270000Y-10070000D01*
X16270000Y-10030000D02*
X16230000Y-10070000D01*
X16230000Y-10330000D02*
X16270000Y-10370000D01*
X16270000Y-10330000D02*
X16230000Y-10370000D01*
X16280000Y-10180000D02*
X16320000Y-10220000D01*
X16320000Y-10180000D02*
X16280000Y-10220000D01*
X16330000Y-9730000D02*
X16370000Y-9770000D01*
X16370000Y-9730000D02*
X16330000Y-9770000D01*
X16380000Y-9930000D02*
X16420000Y-9970000D01*
X16420000Y-9930000D02*
X16380000Y-9970000D01*
X16480000Y-9930000D02*
X16520000Y-9970000D01*
X16520000Y-9930000D02*
X16480000Y-9970000D01*
X16630000Y-8180000D02*
X16670000Y-8220000D01*
X16670000Y-8180000D02*
X16630000Y-8220000D01*
X16630000Y-8280000D02*
X16670000Y-8320000D01*
X16670000Y-8280000D02*
X16630000Y-8320000D01*
X16780000Y-10180000D02*
X16820000Y-10220000D01*
X16820000Y-10180000D02*
X16780000Y-10220000D01*
X16780000Y-10280000D02*
X16820000Y-10320000D01*
X16820000Y-10280000D02*
X16780000Y-10320000D01*
X13480000Y-8500000D02*
G75*
G02*
X13420000Y-8500000I-30000J0D01*
G01*
X13420000Y-8500000D02*
G75*
G02*
X13480000Y-8500000I30000J0D01*
G01*
X13630000Y-8300000D02*
G75*
G02*
X13570000Y-8300000I-30000J0D01*
G01*
X13570000Y-8300000D02*
G75*
G02*
X13630000Y-8300000I30000J0D01*
G01*
X13630000Y-9800000D02*
G75*
G02*
X13570000Y-9800000I-30000J0D01*
G01*
X13570000Y-9800000D02*
G75*
G02*
X13630000Y-9800000I30000J0D01*
G01*
X13630000Y-10300000D02*
G75*
G02*
X13570000Y-10300000I-30000J0D01*
G01*
X13570000Y-10300000D02*
G75*
G02*
X13630000Y-10300000I30000J0D01*
G01*
X13830000Y-8300000D02*
G75*
G02*
X13770000Y-8300000I-30000J0D01*
G01*
X13770000Y-8300000D02*
G75*
G02*
X13830000Y-8300000I30000J0D01*
G01*
X13830000Y-10300000D02*
G75*
G02*
X13770000Y-10300000I-30000J0D01*
G01*
X13770000Y-10300000D02*
G75*
G02*
X13830000Y-10300000I30000J0D01*
G01*
X14280000Y-8600000D02*
G75*
G02*
X14220000Y-8600000I-30000J0D01*
G01*
X14220000Y-8600000D02*
G75*
G02*
X14280000Y-8600000I30000J0D01*
G01*
X14280000Y-10250000D02*
G75*
G02*
X14220000Y-10250000I-30000J0D01*
G01*
X14220000Y-10250000D02*
G75*
G02*
X14280000Y-10250000I30000J0D01*
G01*
X14430000Y-8600000D02*
G75*
G02*
X14370000Y-8600000I-30000J0D01*
G01*
X14370000Y-8600000D02*
G75*
G02*
X14430000Y-8600000I30000J0D01*
G01*
X14780000Y-10250000D02*
G75*
G02*
X14720000Y-10250000I-30000J0D01*
G01*
X14720000Y-10250000D02*
G75*
G02*
X14780000Y-10250000I30000J0D01*
G01*
X14930000Y-8200000D02*
G75*
G02*
X14870000Y-8200000I-30000J0D01*
G01*
X14870000Y-8200000D02*
G75*
G02*
X14930000Y-8200000I30000J0D01*
G01*
X14930000Y-9450000D02*
G75*
G02*
X14870000Y-9450000I-30000J0D01*
G01*
X14870000Y-9450000D02*
G75*
G02*
X14930000Y-9450000I30000J0D01*
G01*
X15080000Y-9300000D02*
G75*
G02*
X15020000Y-9300000I-30000J0D01*
G01*
X15020000Y-9300000D02*
G75*
G02*
X15080000Y-9300000I30000J0D01*
G01*
X15130000Y-8200000D02*
G75*
G02*
X15070000Y-8200000I-30000J0D01*
G01*
X15070000Y-8200000D02*
G75*
G02*
X15130000Y-8200000I30000J0D01*
G01*
X15280000Y-8300000D02*
G75*
G02*
X15220000Y-8300000I-30000J0D01*
G01*
X15220000Y-8300000D02*
G75*
G02*
X15280000Y-8300000I30000J0D01*
G01*
X15280000Y-8450000D02*
G75*
G02*
X15220000Y-8450000I-30000J0D01*
G01*
X15220000Y-8450000D02*
G75*
G02*
X15280000Y-8450000I30000J0D01*
G01*
X15280000Y-8650000D02*
G75*
G02*
X15220000Y-8650000I-30000J0D01*
G01*
X15220000Y-8650000D02*
G75*
G02*
X15280000Y-8650000I30000J0D01*
G01*
X15280000Y-9300000D02*
G75*
G02*
X15220000Y-9300000I-30000J0D01*
G01*
X15220000Y-9300000D02*
G75*
G02*
X15280000Y-9300000I30000J0D01*
G01*
X15430000Y-9150000D02*
G75*
G02*
X15370000Y-9150000I-30000J0D01*
G01*
X15370000Y-9150000D02*
G75*
G02*
X15430000Y-9150000I30000J0D01*
G01*
X15530000Y-8700000D02*
G75*
G02*
X15470000Y-8700000I-30000J0D01*
G01*
X15470000Y-8700000D02*
G75*
G02*
X15530000Y-8700000I30000J0D01*
G01*
X12223500Y-9694500D02*
X12223500Y-9794500D01*
X12173500Y-9744500D02*
X12273500Y-9744500D01*
X12223500Y-9948500D02*
X12223500Y-10048500D01*
X12173500Y-9998500D02*
X12273500Y-9998500D01*
X12223500Y-10202500D02*
X12223500Y-10302500D01*
X12173500Y-10252500D02*
X12273500Y-10252500D01*
X12477500Y-9694500D02*
X12477500Y-9794500D01*
X12427500Y-9744500D02*
X12527500Y-9744500D01*
X12477500Y-9948500D02*
X12477500Y-10048500D01*
X12427500Y-9998500D02*
X12527500Y-9998500D01*
X12477500Y-10202500D02*
X12477500Y-10302500D01*
X12427500Y-10252500D02*
X12527500Y-10252500D01*
X14245500Y-9671250D02*
X14245500Y-9771250D01*
X14195500Y-9721250D02*
X14295500Y-9721250D01*
X14245500Y-9925250D02*
X14245500Y-10025250D01*
X14195500Y-9975250D02*
X14295500Y-9975250D01*
X14499500Y-9671250D02*
X14499500Y-9771250D01*
X14449500Y-9721250D02*
X14549500Y-9721250D01*
X14499500Y-9925250D02*
X14499500Y-10025250D01*
X14449500Y-9975250D02*
X14549500Y-9975250D01*
X14753500Y-9671250D02*
X14753500Y-9771250D01*
X14703500Y-9721250D02*
X14803500Y-9721250D01*
X14753500Y-9925250D02*
X14753500Y-10025250D01*
X14703500Y-9975250D02*
X14803500Y-9975250D01*
D11*
X12258277Y-10813984D02*
X12258277Y-10613984D01*
X12258277Y-10613984D02*
X12305896Y-10613984D01*
X12305896Y-10613984D02*
X12334467Y-10623508D01*
X12334467Y-10623508D02*
X12353515Y-10642555D01*
X12353515Y-10642555D02*
X12363039Y-10661603D01*
X12363039Y-10661603D02*
X12372562Y-10699698D01*
X12372562Y-10699698D02*
X12372562Y-10728270D01*
X12372562Y-10728270D02*
X12363039Y-10766365D01*
X12363039Y-10766365D02*
X12353515Y-10785412D01*
X12353515Y-10785412D02*
X12334467Y-10804460D01*
X12334467Y-10804460D02*
X12305896Y-10813984D01*
X12305896Y-10813984D02*
X12258277Y-10813984D01*
X12458277Y-10813984D02*
X12458277Y-10680650D01*
X12458277Y-10718746D02*
X12467801Y-10699698D01*
X12467801Y-10699698D02*
X12477324Y-10690174D01*
X12477324Y-10690174D02*
X12496372Y-10680650D01*
X12496372Y-10680650D02*
X12515420Y-10680650D01*
X12582086Y-10813984D02*
X12582086Y-10680650D01*
X12582086Y-10613984D02*
X12572562Y-10623508D01*
X12572562Y-10623508D02*
X12582086Y-10633031D01*
X12582086Y-10633031D02*
X12591610Y-10623508D01*
X12591610Y-10623508D02*
X12582086Y-10613984D01*
X12582086Y-10613984D02*
X12582086Y-10633031D01*
X12705896Y-10813984D02*
X12686848Y-10804460D01*
X12686848Y-10804460D02*
X12677324Y-10785412D01*
X12677324Y-10785412D02*
X12677324Y-10613984D01*
X12810658Y-10813984D02*
X12791610Y-10804460D01*
X12791610Y-10804460D02*
X12782086Y-10785412D01*
X12782086Y-10785412D02*
X12782086Y-10613984D01*
X13039229Y-10813984D02*
X13039229Y-10613984D01*
X13039229Y-10613984D02*
X13105896Y-10756841D01*
X13105896Y-10756841D02*
X13172562Y-10613984D01*
X13172562Y-10613984D02*
X13172562Y-10813984D01*
X13353515Y-10813984D02*
X13353515Y-10709222D01*
X13353515Y-10709222D02*
X13343991Y-10690174D01*
X13343991Y-10690174D02*
X13324943Y-10680650D01*
X13324943Y-10680650D02*
X13286848Y-10680650D01*
X13286848Y-10680650D02*
X13267801Y-10690174D01*
X13353515Y-10804460D02*
X13334467Y-10813984D01*
X13334467Y-10813984D02*
X13286848Y-10813984D01*
X13286848Y-10813984D02*
X13267801Y-10804460D01*
X13267801Y-10804460D02*
X13258277Y-10785412D01*
X13258277Y-10785412D02*
X13258277Y-10766365D01*
X13258277Y-10766365D02*
X13267801Y-10747317D01*
X13267801Y-10747317D02*
X13286848Y-10737793D01*
X13286848Y-10737793D02*
X13334467Y-10737793D01*
X13334467Y-10737793D02*
X13353515Y-10728270D01*
X13448753Y-10680650D02*
X13448753Y-10880650D01*
X13448753Y-10690174D02*
X13467801Y-10680650D01*
X13467801Y-10680650D02*
X13505896Y-10680650D01*
X13505896Y-10680650D02*
X13524943Y-10690174D01*
X13524943Y-10690174D02*
X13534467Y-10699698D01*
X13534467Y-10699698D02*
X13543991Y-10718746D01*
X13543991Y-10718746D02*
X13543991Y-10775889D01*
X13543991Y-10775889D02*
X13534467Y-10794936D01*
X13534467Y-10794936D02*
X13524943Y-10804460D01*
X13524943Y-10804460D02*
X13505896Y-10813984D01*
X13505896Y-10813984D02*
X13467801Y-10813984D01*
X13467801Y-10813984D02*
X13448753Y-10804460D01*
X13629705Y-10794936D02*
X13639229Y-10804460D01*
X13639229Y-10804460D02*
X13629705Y-10813984D01*
X13629705Y-10813984D02*
X13620182Y-10804460D01*
X13620182Y-10804460D02*
X13629705Y-10794936D01*
X13629705Y-10794936D02*
X13629705Y-10813984D01*
X13629705Y-10690174D02*
X13639229Y-10699698D01*
X13639229Y-10699698D02*
X13629705Y-10709222D01*
X13629705Y-10709222D02*
X13620182Y-10699698D01*
X13620182Y-10699698D02*
X13629705Y-10690174D01*
X13629705Y-10690174D02*
X13629705Y-10709222D01*
D12*
X11957500Y-11122500D02*
X11997500Y-11162500D01*
X11997500Y-11122500D02*
X11957500Y-11162500D01*
D11*
X12296372Y-11033984D02*
X12315420Y-11033984D01*
X12315420Y-11033984D02*
X12334467Y-11043508D01*
X12334467Y-11043508D02*
X12343991Y-11053031D01*
X12343991Y-11053031D02*
X12353515Y-11072079D01*
X12353515Y-11072079D02*
X12363039Y-11110174D01*
X12363039Y-11110174D02*
X12363039Y-11157793D01*
X12363039Y-11157793D02*
X12353515Y-11195888D01*
X12353515Y-11195888D02*
X12343991Y-11214936D01*
X12343991Y-11214936D02*
X12334467Y-11224460D01*
X12334467Y-11224460D02*
X12315420Y-11233984D01*
X12315420Y-11233984D02*
X12296372Y-11233984D01*
X12296372Y-11233984D02*
X12277324Y-11224460D01*
X12277324Y-11224460D02*
X12267801Y-11214936D01*
X12267801Y-11214936D02*
X12258277Y-11195888D01*
X12258277Y-11195888D02*
X12248753Y-11157793D01*
X12248753Y-11157793D02*
X12248753Y-11110174D01*
X12248753Y-11110174D02*
X12258277Y-11072079D01*
X12258277Y-11072079D02*
X12267801Y-11053031D01*
X12267801Y-11053031D02*
X12277324Y-11043508D01*
X12277324Y-11043508D02*
X12296372Y-11033984D01*
X12448753Y-11214936D02*
X12458277Y-11224460D01*
X12458277Y-11224460D02*
X12448753Y-11233984D01*
X12448753Y-11233984D02*
X12439229Y-11224460D01*
X12439229Y-11224460D02*
X12448753Y-11214936D01*
X12448753Y-11214936D02*
X12448753Y-11233984D01*
X12629705Y-11100650D02*
X12629705Y-11233984D01*
X12582086Y-11024460D02*
X12534467Y-11167317D01*
X12534467Y-11167317D02*
X12658277Y-11167317D01*
X12772562Y-11033984D02*
X12791610Y-11033984D01*
X12791610Y-11033984D02*
X12810658Y-11043508D01*
X12810658Y-11043508D02*
X12820182Y-11053031D01*
X12820182Y-11053031D02*
X12829705Y-11072079D01*
X12829705Y-11072079D02*
X12839229Y-11110174D01*
X12839229Y-11110174D02*
X12839229Y-11157793D01*
X12839229Y-11157793D02*
X12829705Y-11195888D01*
X12829705Y-11195888D02*
X12820182Y-11214936D01*
X12820182Y-11214936D02*
X12810658Y-11224460D01*
X12810658Y-11224460D02*
X12791610Y-11233984D01*
X12791610Y-11233984D02*
X12772562Y-11233984D01*
X12772562Y-11233984D02*
X12753515Y-11224460D01*
X12753515Y-11224460D02*
X12743991Y-11214936D01*
X12743991Y-11214936D02*
X12734467Y-11195888D01*
X12734467Y-11195888D02*
X12724943Y-11157793D01*
X12724943Y-11157793D02*
X12724943Y-11110174D01*
X12724943Y-11110174D02*
X12734467Y-11072079D01*
X12734467Y-11072079D02*
X12743991Y-11053031D01*
X12743991Y-11053031D02*
X12753515Y-11043508D01*
X12753515Y-11043508D02*
X12772562Y-11033984D01*
X12963039Y-11033984D02*
X12982086Y-11033984D01*
X12982086Y-11033984D02*
X13001134Y-11043508D01*
X13001134Y-11043508D02*
X13010658Y-11053031D01*
X13010658Y-11053031D02*
X13020182Y-11072079D01*
X13020182Y-11072079D02*
X13029705Y-11110174D01*
X13029705Y-11110174D02*
X13029705Y-11157793D01*
X13029705Y-11157793D02*
X13020182Y-11195888D01*
X13020182Y-11195888D02*
X13010658Y-11214936D01*
X13010658Y-11214936D02*
X13001134Y-11224460D01*
X13001134Y-11224460D02*
X12982086Y-11233984D01*
X12982086Y-11233984D02*
X12963039Y-11233984D01*
X12963039Y-11233984D02*
X12943991Y-11224460D01*
X12943991Y-11224460D02*
X12934467Y-11214936D01*
X12934467Y-11214936D02*
X12924943Y-11195888D01*
X12924943Y-11195888D02*
X12915420Y-11157793D01*
X12915420Y-11157793D02*
X12915420Y-11110174D01*
X12915420Y-11110174D02*
X12924943Y-11072079D01*
X12924943Y-11072079D02*
X12934467Y-11053031D01*
X12934467Y-11053031D02*
X12943991Y-11043508D01*
X12943991Y-11043508D02*
X12963039Y-11033984D01*
X13115420Y-11233984D02*
X13115420Y-11100650D01*
X13115420Y-11119698D02*
X13124943Y-11110174D01*
X13124943Y-11110174D02*
X13143991Y-11100650D01*
X13143991Y-11100650D02*
X13172563Y-11100650D01*
X13172563Y-11100650D02*
X13191610Y-11110174D01*
X13191610Y-11110174D02*
X13201134Y-11129222D01*
X13201134Y-11129222D02*
X13201134Y-11233984D01*
X13201134Y-11129222D02*
X13210658Y-11110174D01*
X13210658Y-11110174D02*
X13229705Y-11100650D01*
X13229705Y-11100650D02*
X13258277Y-11100650D01*
X13258277Y-11100650D02*
X13277324Y-11110174D01*
X13277324Y-11110174D02*
X13286848Y-11129222D01*
X13286848Y-11129222D02*
X13286848Y-11233984D01*
X13382086Y-11233984D02*
X13382086Y-11100650D01*
X13382086Y-11119698D02*
X13391610Y-11110174D01*
X13391610Y-11110174D02*
X13410658Y-11100650D01*
X13410658Y-11100650D02*
X13439229Y-11100650D01*
X13439229Y-11100650D02*
X13458277Y-11110174D01*
X13458277Y-11110174D02*
X13467801Y-11129222D01*
X13467801Y-11129222D02*
X13467801Y-11233984D01*
X13467801Y-11129222D02*
X13477324Y-11110174D01*
X13477324Y-11110174D02*
X13496372Y-11100650D01*
X13496372Y-11100650D02*
X13524943Y-11100650D01*
X13524943Y-11100650D02*
X13543991Y-11110174D01*
X13543991Y-11110174D02*
X13553515Y-11129222D01*
X13553515Y-11129222D02*
X13553515Y-11233984D01*
X13943991Y-11024460D02*
X13772563Y-11281603D01*
X14201134Y-11033984D02*
X14220182Y-11033984D01*
X14220182Y-11033984D02*
X14239229Y-11043508D01*
X14239229Y-11043508D02*
X14248753Y-11053031D01*
X14248753Y-11053031D02*
X14258277Y-11072079D01*
X14258277Y-11072079D02*
X14267801Y-11110174D01*
X14267801Y-11110174D02*
X14267801Y-11157793D01*
X14267801Y-11157793D02*
X14258277Y-11195888D01*
X14258277Y-11195888D02*
X14248753Y-11214936D01*
X14248753Y-11214936D02*
X14239229Y-11224460D01*
X14239229Y-11224460D02*
X14220182Y-11233984D01*
X14220182Y-11233984D02*
X14201134Y-11233984D01*
X14201134Y-11233984D02*
X14182086Y-11224460D01*
X14182086Y-11224460D02*
X14172563Y-11214936D01*
X14172563Y-11214936D02*
X14163039Y-11195888D01*
X14163039Y-11195888D02*
X14153515Y-11157793D01*
X14153515Y-11157793D02*
X14153515Y-11110174D01*
X14153515Y-11110174D02*
X14163039Y-11072079D01*
X14163039Y-11072079D02*
X14172563Y-11053031D01*
X14172563Y-11053031D02*
X14182086Y-11043508D01*
X14182086Y-11043508D02*
X14201134Y-11033984D01*
X14353515Y-11214936D02*
X14363039Y-11224460D01*
X14363039Y-11224460D02*
X14353515Y-11233984D01*
X14353515Y-11233984D02*
X14343991Y-11224460D01*
X14343991Y-11224460D02*
X14353515Y-11214936D01*
X14353515Y-11214936D02*
X14353515Y-11233984D01*
X14486848Y-11033984D02*
X14505896Y-11033984D01*
X14505896Y-11033984D02*
X14524944Y-11043508D01*
X14524944Y-11043508D02*
X14534467Y-11053031D01*
X14534467Y-11053031D02*
X14543991Y-11072079D01*
X14543991Y-11072079D02*
X14553515Y-11110174D01*
X14553515Y-11110174D02*
X14553515Y-11157793D01*
X14553515Y-11157793D02*
X14543991Y-11195888D01*
X14543991Y-11195888D02*
X14534467Y-11214936D01*
X14534467Y-11214936D02*
X14524944Y-11224460D01*
X14524944Y-11224460D02*
X14505896Y-11233984D01*
X14505896Y-11233984D02*
X14486848Y-11233984D01*
X14486848Y-11233984D02*
X14467801Y-11224460D01*
X14467801Y-11224460D02*
X14458277Y-11214936D01*
X14458277Y-11214936D02*
X14448753Y-11195888D01*
X14448753Y-11195888D02*
X14439229Y-11157793D01*
X14439229Y-11157793D02*
X14439229Y-11110174D01*
X14439229Y-11110174D02*
X14448753Y-11072079D01*
X14448753Y-11072079D02*
X14458277Y-11053031D01*
X14458277Y-11053031D02*
X14467801Y-11043508D01*
X14467801Y-11043508D02*
X14486848Y-11033984D01*
X14743991Y-11233984D02*
X14629706Y-11233984D01*
X14686848Y-11233984D02*
X14686848Y-11033984D01*
X14686848Y-11033984D02*
X14667801Y-11062555D01*
X14667801Y-11062555D02*
X14648753Y-11081603D01*
X14648753Y-11081603D02*
X14629706Y-11091127D01*
X14924944Y-11033984D02*
X14829706Y-11033984D01*
X14829706Y-11033984D02*
X14820182Y-11129222D01*
X14820182Y-11129222D02*
X14829706Y-11119698D01*
X14829706Y-11119698D02*
X14848753Y-11110174D01*
X14848753Y-11110174D02*
X14896372Y-11110174D01*
X14896372Y-11110174D02*
X14915420Y-11119698D01*
X14915420Y-11119698D02*
X14924944Y-11129222D01*
X14924944Y-11129222D02*
X14934467Y-11148270D01*
X14934467Y-11148270D02*
X14934467Y-11195888D01*
X14934467Y-11195888D02*
X14924944Y-11214936D01*
X14924944Y-11214936D02*
X14915420Y-11224460D01*
X14915420Y-11224460D02*
X14896372Y-11233984D01*
X14896372Y-11233984D02*
X14848753Y-11233984D01*
X14848753Y-11233984D02*
X14829706Y-11224460D01*
X14829706Y-11224460D02*
X14820182Y-11214936D01*
X15001134Y-11033984D02*
X15134467Y-11033984D01*
X15134467Y-11033984D02*
X15048753Y-11233984D01*
X15201134Y-11033984D02*
X15201134Y-11072079D01*
X15277325Y-11033984D02*
X15277325Y-11072079D01*
X15572563Y-11310174D02*
X15563039Y-11300650D01*
X15563039Y-11300650D02*
X15543991Y-11272079D01*
X15543991Y-11272079D02*
X15534468Y-11253031D01*
X15534468Y-11253031D02*
X15524944Y-11224460D01*
X15524944Y-11224460D02*
X15515420Y-11176841D01*
X15515420Y-11176841D02*
X15515420Y-11138746D01*
X15515420Y-11138746D02*
X15524944Y-11091127D01*
X15524944Y-11091127D02*
X15534468Y-11062555D01*
X15534468Y-11062555D02*
X15543991Y-11043508D01*
X15543991Y-11043508D02*
X15563039Y-11014936D01*
X15563039Y-11014936D02*
X15572563Y-11005412D01*
X15743991Y-11033984D02*
X15648753Y-11033984D01*
X15648753Y-11033984D02*
X15639229Y-11129222D01*
X15639229Y-11129222D02*
X15648753Y-11119698D01*
X15648753Y-11119698D02*
X15667801Y-11110174D01*
X15667801Y-11110174D02*
X15715420Y-11110174D01*
X15715420Y-11110174D02*
X15734468Y-11119698D01*
X15734468Y-11119698D02*
X15743991Y-11129222D01*
X15743991Y-11129222D02*
X15753515Y-11148270D01*
X15753515Y-11148270D02*
X15753515Y-11195888D01*
X15753515Y-11195888D02*
X15743991Y-11214936D01*
X15743991Y-11214936D02*
X15734468Y-11224460D01*
X15734468Y-11224460D02*
X15715420Y-11233984D01*
X15715420Y-11233984D02*
X15667801Y-11233984D01*
X15667801Y-11233984D02*
X15648753Y-11224460D01*
X15648753Y-11224460D02*
X15639229Y-11214936D01*
X15867801Y-11119698D02*
X15848753Y-11110174D01*
X15848753Y-11110174D02*
X15839229Y-11100650D01*
X15839229Y-11100650D02*
X15829706Y-11081603D01*
X15829706Y-11081603D02*
X15829706Y-11072079D01*
X15829706Y-11072079D02*
X15839229Y-11053031D01*
X15839229Y-11053031D02*
X15848753Y-11043508D01*
X15848753Y-11043508D02*
X15867801Y-11033984D01*
X15867801Y-11033984D02*
X15905896Y-11033984D01*
X15905896Y-11033984D02*
X15924944Y-11043508D01*
X15924944Y-11043508D02*
X15934468Y-11053031D01*
X15934468Y-11053031D02*
X15943991Y-11072079D01*
X15943991Y-11072079D02*
X15943991Y-11081603D01*
X15943991Y-11081603D02*
X15934468Y-11100650D01*
X15934468Y-11100650D02*
X15924944Y-11110174D01*
X15924944Y-11110174D02*
X15905896Y-11119698D01*
X15905896Y-11119698D02*
X15867801Y-11119698D01*
X15867801Y-11119698D02*
X15848753Y-11129222D01*
X15848753Y-11129222D02*
X15839229Y-11138746D01*
X15839229Y-11138746D02*
X15829706Y-11157793D01*
X15829706Y-11157793D02*
X15829706Y-11195888D01*
X15829706Y-11195888D02*
X15839229Y-11214936D01*
X15839229Y-11214936D02*
X15848753Y-11224460D01*
X15848753Y-11224460D02*
X15867801Y-11233984D01*
X15867801Y-11233984D02*
X15905896Y-11233984D01*
X15905896Y-11233984D02*
X15924944Y-11224460D01*
X15924944Y-11224460D02*
X15934468Y-11214936D01*
X15934468Y-11214936D02*
X15943991Y-11195888D01*
X15943991Y-11195888D02*
X15943991Y-11157793D01*
X15943991Y-11157793D02*
X15934468Y-11138746D01*
X15934468Y-11138746D02*
X15924944Y-11129222D01*
X15924944Y-11129222D02*
X15905896Y-11119698D01*
X16182087Y-11233984D02*
X16182087Y-11033984D01*
X16267801Y-11233984D02*
X16267801Y-11129222D01*
X16267801Y-11129222D02*
X16258277Y-11110174D01*
X16258277Y-11110174D02*
X16239230Y-11100650D01*
X16239230Y-11100650D02*
X16210658Y-11100650D01*
X16210658Y-11100650D02*
X16191610Y-11110174D01*
X16191610Y-11110174D02*
X16182087Y-11119698D01*
X16391610Y-11233984D02*
X16372563Y-11224460D01*
X16372563Y-11224460D02*
X16363039Y-11214936D01*
X16363039Y-11214936D02*
X16353515Y-11195888D01*
X16353515Y-11195888D02*
X16353515Y-11138746D01*
X16353515Y-11138746D02*
X16363039Y-11119698D01*
X16363039Y-11119698D02*
X16372563Y-11110174D01*
X16372563Y-11110174D02*
X16391610Y-11100650D01*
X16391610Y-11100650D02*
X16420182Y-11100650D01*
X16420182Y-11100650D02*
X16439230Y-11110174D01*
X16439230Y-11110174D02*
X16448753Y-11119698D01*
X16448753Y-11119698D02*
X16458277Y-11138746D01*
X16458277Y-11138746D02*
X16458277Y-11195888D01*
X16458277Y-11195888D02*
X16448753Y-11214936D01*
X16448753Y-11214936D02*
X16439230Y-11224460D01*
X16439230Y-11224460D02*
X16420182Y-11233984D01*
X16420182Y-11233984D02*
X16391610Y-11233984D01*
X16572563Y-11233984D02*
X16553515Y-11224460D01*
X16553515Y-11224460D02*
X16543991Y-11205412D01*
X16543991Y-11205412D02*
X16543991Y-11033984D01*
X16724944Y-11224460D02*
X16705896Y-11233984D01*
X16705896Y-11233984D02*
X16667801Y-11233984D01*
X16667801Y-11233984D02*
X16648753Y-11224460D01*
X16648753Y-11224460D02*
X16639230Y-11205412D01*
X16639230Y-11205412D02*
X16639230Y-11129222D01*
X16639230Y-11129222D02*
X16648753Y-11110174D01*
X16648753Y-11110174D02*
X16667801Y-11100650D01*
X16667801Y-11100650D02*
X16705896Y-11100650D01*
X16705896Y-11100650D02*
X16724944Y-11110174D01*
X16724944Y-11110174D02*
X16734468Y-11129222D01*
X16734468Y-11129222D02*
X16734468Y-11148270D01*
X16734468Y-11148270D02*
X16639230Y-11167317D01*
X16810658Y-11224460D02*
X16829706Y-11233984D01*
X16829706Y-11233984D02*
X16867801Y-11233984D01*
X16867801Y-11233984D02*
X16886849Y-11224460D01*
X16886849Y-11224460D02*
X16896373Y-11205412D01*
X16896373Y-11205412D02*
X16896373Y-11195888D01*
X16896373Y-11195888D02*
X16886849Y-11176841D01*
X16886849Y-11176841D02*
X16867801Y-11167317D01*
X16867801Y-11167317D02*
X16839230Y-11167317D01*
X16839230Y-11167317D02*
X16820182Y-11157793D01*
X16820182Y-11157793D02*
X16810658Y-11138746D01*
X16810658Y-11138746D02*
X16810658Y-11129222D01*
X16810658Y-11129222D02*
X16820182Y-11110174D01*
X16820182Y-11110174D02*
X16839230Y-11100650D01*
X16839230Y-11100650D02*
X16867801Y-11100650D01*
X16867801Y-11100650D02*
X16886849Y-11110174D01*
X16963039Y-11310174D02*
X16972563Y-11300650D01*
X16972563Y-11300650D02*
X16991611Y-11272079D01*
X16991611Y-11272079D02*
X17001134Y-11253031D01*
X17001134Y-11253031D02*
X17010658Y-11224460D01*
X17010658Y-11224460D02*
X17020182Y-11176841D01*
X17020182Y-11176841D02*
X17020182Y-11138746D01*
X17020182Y-11138746D02*
X17010658Y-11091127D01*
X17010658Y-11091127D02*
X17001134Y-11062555D01*
X17001134Y-11062555D02*
X16991611Y-11043508D01*
X16991611Y-11043508D02*
X16972563Y-11014936D01*
X16972563Y-11014936D02*
X16963039Y-11005412D01*
D12*
X11997500Y-11406500D02*
G75*
G02*
X11937500Y-11406500I-30000J0D01*
G01*
X11937500Y-11406500D02*
G75*
G02*
X11997500Y-11406500I30000J0D01*
G01*
D11*
X12296372Y-11297984D02*
X12315420Y-11297984D01*
X12315420Y-11297984D02*
X12334467Y-11307508D01*
X12334467Y-11307508D02*
X12343991Y-11317031D01*
X12343991Y-11317031D02*
X12353515Y-11336079D01*
X12353515Y-11336079D02*
X12363039Y-11374174D01*
X12363039Y-11374174D02*
X12363039Y-11421793D01*
X12363039Y-11421793D02*
X12353515Y-11459888D01*
X12353515Y-11459888D02*
X12343991Y-11478936D01*
X12343991Y-11478936D02*
X12334467Y-11488460D01*
X12334467Y-11488460D02*
X12315420Y-11497984D01*
X12315420Y-11497984D02*
X12296372Y-11497984D01*
X12296372Y-11497984D02*
X12277324Y-11488460D01*
X12277324Y-11488460D02*
X12267801Y-11478936D01*
X12267801Y-11478936D02*
X12258277Y-11459888D01*
X12258277Y-11459888D02*
X12248753Y-11421793D01*
X12248753Y-11421793D02*
X12248753Y-11374174D01*
X12248753Y-11374174D02*
X12258277Y-11336079D01*
X12258277Y-11336079D02*
X12267801Y-11317031D01*
X12267801Y-11317031D02*
X12277324Y-11307508D01*
X12277324Y-11307508D02*
X12296372Y-11297984D01*
X12448753Y-11478936D02*
X12458277Y-11488460D01*
X12458277Y-11488460D02*
X12448753Y-11497984D01*
X12448753Y-11497984D02*
X12439229Y-11488460D01*
X12439229Y-11488460D02*
X12448753Y-11478936D01*
X12448753Y-11478936D02*
X12448753Y-11497984D01*
X12629705Y-11297984D02*
X12591610Y-11297984D01*
X12591610Y-11297984D02*
X12572562Y-11307508D01*
X12572562Y-11307508D02*
X12563039Y-11317031D01*
X12563039Y-11317031D02*
X12543991Y-11345603D01*
X12543991Y-11345603D02*
X12534467Y-11383698D01*
X12534467Y-11383698D02*
X12534467Y-11459888D01*
X12534467Y-11459888D02*
X12543991Y-11478936D01*
X12543991Y-11478936D02*
X12553515Y-11488460D01*
X12553515Y-11488460D02*
X12572562Y-11497984D01*
X12572562Y-11497984D02*
X12610658Y-11497984D01*
X12610658Y-11497984D02*
X12629705Y-11488460D01*
X12629705Y-11488460D02*
X12639229Y-11478936D01*
X12639229Y-11478936D02*
X12648753Y-11459888D01*
X12648753Y-11459888D02*
X12648753Y-11412269D01*
X12648753Y-11412269D02*
X12639229Y-11393222D01*
X12639229Y-11393222D02*
X12629705Y-11383698D01*
X12629705Y-11383698D02*
X12610658Y-11374174D01*
X12610658Y-11374174D02*
X12572562Y-11374174D01*
X12572562Y-11374174D02*
X12553515Y-11383698D01*
X12553515Y-11383698D02*
X12543991Y-11393222D01*
X12543991Y-11393222D02*
X12534467Y-11412269D01*
X12772562Y-11297984D02*
X12791610Y-11297984D01*
X12791610Y-11297984D02*
X12810658Y-11307508D01*
X12810658Y-11307508D02*
X12820182Y-11317031D01*
X12820182Y-11317031D02*
X12829705Y-11336079D01*
X12829705Y-11336079D02*
X12839229Y-11374174D01*
X12839229Y-11374174D02*
X12839229Y-11421793D01*
X12839229Y-11421793D02*
X12829705Y-11459888D01*
X12829705Y-11459888D02*
X12820182Y-11478936D01*
X12820182Y-11478936D02*
X12810658Y-11488460D01*
X12810658Y-11488460D02*
X12791610Y-11497984D01*
X12791610Y-11497984D02*
X12772562Y-11497984D01*
X12772562Y-11497984D02*
X12753515Y-11488460D01*
X12753515Y-11488460D02*
X12743991Y-11478936D01*
X12743991Y-11478936D02*
X12734467Y-11459888D01*
X12734467Y-11459888D02*
X12724943Y-11421793D01*
X12724943Y-11421793D02*
X12724943Y-11374174D01*
X12724943Y-11374174D02*
X12734467Y-11336079D01*
X12734467Y-11336079D02*
X12743991Y-11317031D01*
X12743991Y-11317031D02*
X12753515Y-11307508D01*
X12753515Y-11307508D02*
X12772562Y-11297984D01*
X12963039Y-11297984D02*
X12982086Y-11297984D01*
X12982086Y-11297984D02*
X13001134Y-11307508D01*
X13001134Y-11307508D02*
X13010658Y-11317031D01*
X13010658Y-11317031D02*
X13020182Y-11336079D01*
X13020182Y-11336079D02*
X13029705Y-11374174D01*
X13029705Y-11374174D02*
X13029705Y-11421793D01*
X13029705Y-11421793D02*
X13020182Y-11459888D01*
X13020182Y-11459888D02*
X13010658Y-11478936D01*
X13010658Y-11478936D02*
X13001134Y-11488460D01*
X13001134Y-11488460D02*
X12982086Y-11497984D01*
X12982086Y-11497984D02*
X12963039Y-11497984D01*
X12963039Y-11497984D02*
X12943991Y-11488460D01*
X12943991Y-11488460D02*
X12934467Y-11478936D01*
X12934467Y-11478936D02*
X12924943Y-11459888D01*
X12924943Y-11459888D02*
X12915420Y-11421793D01*
X12915420Y-11421793D02*
X12915420Y-11374174D01*
X12915420Y-11374174D02*
X12924943Y-11336079D01*
X12924943Y-11336079D02*
X12934467Y-11317031D01*
X12934467Y-11317031D02*
X12943991Y-11307508D01*
X12943991Y-11307508D02*
X12963039Y-11297984D01*
X13115420Y-11497984D02*
X13115420Y-11364650D01*
X13115420Y-11383698D02*
X13124943Y-11374174D01*
X13124943Y-11374174D02*
X13143991Y-11364650D01*
X13143991Y-11364650D02*
X13172563Y-11364650D01*
X13172563Y-11364650D02*
X13191610Y-11374174D01*
X13191610Y-11374174D02*
X13201134Y-11393222D01*
X13201134Y-11393222D02*
X13201134Y-11497984D01*
X13201134Y-11393222D02*
X13210658Y-11374174D01*
X13210658Y-11374174D02*
X13229705Y-11364650D01*
X13229705Y-11364650D02*
X13258277Y-11364650D01*
X13258277Y-11364650D02*
X13277324Y-11374174D01*
X13277324Y-11374174D02*
X13286848Y-11393222D01*
X13286848Y-11393222D02*
X13286848Y-11497984D01*
X13382086Y-11497984D02*
X13382086Y-11364650D01*
X13382086Y-11383698D02*
X13391610Y-11374174D01*
X13391610Y-11374174D02*
X13410658Y-11364650D01*
X13410658Y-11364650D02*
X13439229Y-11364650D01*
X13439229Y-11364650D02*
X13458277Y-11374174D01*
X13458277Y-11374174D02*
X13467801Y-11393222D01*
X13467801Y-11393222D02*
X13467801Y-11497984D01*
X13467801Y-11393222D02*
X13477324Y-11374174D01*
X13477324Y-11374174D02*
X13496372Y-11364650D01*
X13496372Y-11364650D02*
X13524943Y-11364650D01*
X13524943Y-11364650D02*
X13543991Y-11374174D01*
X13543991Y-11374174D02*
X13553515Y-11393222D01*
X13553515Y-11393222D02*
X13553515Y-11497984D01*
X13943991Y-11288460D02*
X13772563Y-11545603D01*
X14201134Y-11297984D02*
X14220182Y-11297984D01*
X14220182Y-11297984D02*
X14239229Y-11307508D01*
X14239229Y-11307508D02*
X14248753Y-11317031D01*
X14248753Y-11317031D02*
X14258277Y-11336079D01*
X14258277Y-11336079D02*
X14267801Y-11374174D01*
X14267801Y-11374174D02*
X14267801Y-11421793D01*
X14267801Y-11421793D02*
X14258277Y-11459888D01*
X14258277Y-11459888D02*
X14248753Y-11478936D01*
X14248753Y-11478936D02*
X14239229Y-11488460D01*
X14239229Y-11488460D02*
X14220182Y-11497984D01*
X14220182Y-11497984D02*
X14201134Y-11497984D01*
X14201134Y-11497984D02*
X14182086Y-11488460D01*
X14182086Y-11488460D02*
X14172563Y-11478936D01*
X14172563Y-11478936D02*
X14163039Y-11459888D01*
X14163039Y-11459888D02*
X14153515Y-11421793D01*
X14153515Y-11421793D02*
X14153515Y-11374174D01*
X14153515Y-11374174D02*
X14163039Y-11336079D01*
X14163039Y-11336079D02*
X14172563Y-11317031D01*
X14172563Y-11317031D02*
X14182086Y-11307508D01*
X14182086Y-11307508D02*
X14201134Y-11297984D01*
X14353515Y-11478936D02*
X14363039Y-11488460D01*
X14363039Y-11488460D02*
X14353515Y-11497984D01*
X14353515Y-11497984D02*
X14343991Y-11488460D01*
X14343991Y-11488460D02*
X14353515Y-11478936D01*
X14353515Y-11478936D02*
X14353515Y-11497984D01*
X14486848Y-11297984D02*
X14505896Y-11297984D01*
X14505896Y-11297984D02*
X14524944Y-11307508D01*
X14524944Y-11307508D02*
X14534467Y-11317031D01*
X14534467Y-11317031D02*
X14543991Y-11336079D01*
X14543991Y-11336079D02*
X14553515Y-11374174D01*
X14553515Y-11374174D02*
X14553515Y-11421793D01*
X14553515Y-11421793D02*
X14543991Y-11459888D01*
X14543991Y-11459888D02*
X14534467Y-11478936D01*
X14534467Y-11478936D02*
X14524944Y-11488460D01*
X14524944Y-11488460D02*
X14505896Y-11497984D01*
X14505896Y-11497984D02*
X14486848Y-11497984D01*
X14486848Y-11497984D02*
X14467801Y-11488460D01*
X14467801Y-11488460D02*
X14458277Y-11478936D01*
X14458277Y-11478936D02*
X14448753Y-11459888D01*
X14448753Y-11459888D02*
X14439229Y-11421793D01*
X14439229Y-11421793D02*
X14439229Y-11374174D01*
X14439229Y-11374174D02*
X14448753Y-11336079D01*
X14448753Y-11336079D02*
X14458277Y-11317031D01*
X14458277Y-11317031D02*
X14467801Y-11307508D01*
X14467801Y-11307508D02*
X14486848Y-11297984D01*
X14629706Y-11317031D02*
X14639229Y-11307508D01*
X14639229Y-11307508D02*
X14658277Y-11297984D01*
X14658277Y-11297984D02*
X14705896Y-11297984D01*
X14705896Y-11297984D02*
X14724944Y-11307508D01*
X14724944Y-11307508D02*
X14734467Y-11317031D01*
X14734467Y-11317031D02*
X14743991Y-11336079D01*
X14743991Y-11336079D02*
X14743991Y-11355127D01*
X14743991Y-11355127D02*
X14734467Y-11383698D01*
X14734467Y-11383698D02*
X14620182Y-11497984D01*
X14620182Y-11497984D02*
X14743991Y-11497984D01*
X14810658Y-11297984D02*
X14934467Y-11297984D01*
X14934467Y-11297984D02*
X14867801Y-11374174D01*
X14867801Y-11374174D02*
X14896372Y-11374174D01*
X14896372Y-11374174D02*
X14915420Y-11383698D01*
X14915420Y-11383698D02*
X14924944Y-11393222D01*
X14924944Y-11393222D02*
X14934467Y-11412269D01*
X14934467Y-11412269D02*
X14934467Y-11459888D01*
X14934467Y-11459888D02*
X14924944Y-11478936D01*
X14924944Y-11478936D02*
X14915420Y-11488460D01*
X14915420Y-11488460D02*
X14896372Y-11497984D01*
X14896372Y-11497984D02*
X14839229Y-11497984D01*
X14839229Y-11497984D02*
X14820182Y-11488460D01*
X14820182Y-11488460D02*
X14810658Y-11478936D01*
X15105896Y-11297984D02*
X15067801Y-11297984D01*
X15067801Y-11297984D02*
X15048753Y-11307508D01*
X15048753Y-11307508D02*
X15039229Y-11317031D01*
X15039229Y-11317031D02*
X15020182Y-11345603D01*
X15020182Y-11345603D02*
X15010658Y-11383698D01*
X15010658Y-11383698D02*
X15010658Y-11459888D01*
X15010658Y-11459888D02*
X15020182Y-11478936D01*
X15020182Y-11478936D02*
X15029706Y-11488460D01*
X15029706Y-11488460D02*
X15048753Y-11497984D01*
X15048753Y-11497984D02*
X15086848Y-11497984D01*
X15086848Y-11497984D02*
X15105896Y-11488460D01*
X15105896Y-11488460D02*
X15115420Y-11478936D01*
X15115420Y-11478936D02*
X15124944Y-11459888D01*
X15124944Y-11459888D02*
X15124944Y-11412269D01*
X15124944Y-11412269D02*
X15115420Y-11393222D01*
X15115420Y-11393222D02*
X15105896Y-11383698D01*
X15105896Y-11383698D02*
X15086848Y-11374174D01*
X15086848Y-11374174D02*
X15048753Y-11374174D01*
X15048753Y-11374174D02*
X15029706Y-11383698D01*
X15029706Y-11383698D02*
X15020182Y-11393222D01*
X15020182Y-11393222D02*
X15010658Y-11412269D01*
X15201134Y-11297984D02*
X15201134Y-11336079D01*
X15277325Y-11297984D02*
X15277325Y-11336079D01*
X15572563Y-11574174D02*
X15563039Y-11564650D01*
X15563039Y-11564650D02*
X15543991Y-11536079D01*
X15543991Y-11536079D02*
X15534468Y-11517031D01*
X15534468Y-11517031D02*
X15524944Y-11488460D01*
X15524944Y-11488460D02*
X15515420Y-11440841D01*
X15515420Y-11440841D02*
X15515420Y-11402746D01*
X15515420Y-11402746D02*
X15524944Y-11355127D01*
X15524944Y-11355127D02*
X15534468Y-11326555D01*
X15534468Y-11326555D02*
X15543991Y-11307508D01*
X15543991Y-11307508D02*
X15563039Y-11278936D01*
X15563039Y-11278936D02*
X15572563Y-11269412D01*
X15639229Y-11317031D02*
X15648753Y-11307508D01*
X15648753Y-11307508D02*
X15667801Y-11297984D01*
X15667801Y-11297984D02*
X15715420Y-11297984D01*
X15715420Y-11297984D02*
X15734468Y-11307508D01*
X15734468Y-11307508D02*
X15743991Y-11317031D01*
X15743991Y-11317031D02*
X15753515Y-11336079D01*
X15753515Y-11336079D02*
X15753515Y-11355127D01*
X15753515Y-11355127D02*
X15743991Y-11383698D01*
X15743991Y-11383698D02*
X15629706Y-11497984D01*
X15629706Y-11497984D02*
X15753515Y-11497984D01*
X15877325Y-11297984D02*
X15896372Y-11297984D01*
X15896372Y-11297984D02*
X15915420Y-11307508D01*
X15915420Y-11307508D02*
X15924944Y-11317031D01*
X15924944Y-11317031D02*
X15934468Y-11336079D01*
X15934468Y-11336079D02*
X15943991Y-11374174D01*
X15943991Y-11374174D02*
X15943991Y-11421793D01*
X15943991Y-11421793D02*
X15934468Y-11459888D01*
X15934468Y-11459888D02*
X15924944Y-11478936D01*
X15924944Y-11478936D02*
X15915420Y-11488460D01*
X15915420Y-11488460D02*
X15896372Y-11497984D01*
X15896372Y-11497984D02*
X15877325Y-11497984D01*
X15877325Y-11497984D02*
X15858277Y-11488460D01*
X15858277Y-11488460D02*
X15848753Y-11478936D01*
X15848753Y-11478936D02*
X15839229Y-11459888D01*
X15839229Y-11459888D02*
X15829706Y-11421793D01*
X15829706Y-11421793D02*
X15829706Y-11374174D01*
X15829706Y-11374174D02*
X15839229Y-11336079D01*
X15839229Y-11336079D02*
X15848753Y-11317031D01*
X15848753Y-11317031D02*
X15858277Y-11307508D01*
X15858277Y-11307508D02*
X15877325Y-11297984D01*
X16182087Y-11497984D02*
X16182087Y-11297984D01*
X16267801Y-11497984D02*
X16267801Y-11393222D01*
X16267801Y-11393222D02*
X16258277Y-11374174D01*
X16258277Y-11374174D02*
X16239230Y-11364650D01*
X16239230Y-11364650D02*
X16210658Y-11364650D01*
X16210658Y-11364650D02*
X16191610Y-11374174D01*
X16191610Y-11374174D02*
X16182087Y-11383698D01*
X16391610Y-11497984D02*
X16372563Y-11488460D01*
X16372563Y-11488460D02*
X16363039Y-11478936D01*
X16363039Y-11478936D02*
X16353515Y-11459888D01*
X16353515Y-11459888D02*
X16353515Y-11402746D01*
X16353515Y-11402746D02*
X16363039Y-11383698D01*
X16363039Y-11383698D02*
X16372563Y-11374174D01*
X16372563Y-11374174D02*
X16391610Y-11364650D01*
X16391610Y-11364650D02*
X16420182Y-11364650D01*
X16420182Y-11364650D02*
X16439230Y-11374174D01*
X16439230Y-11374174D02*
X16448753Y-11383698D01*
X16448753Y-11383698D02*
X16458277Y-11402746D01*
X16458277Y-11402746D02*
X16458277Y-11459888D01*
X16458277Y-11459888D02*
X16448753Y-11478936D01*
X16448753Y-11478936D02*
X16439230Y-11488460D01*
X16439230Y-11488460D02*
X16420182Y-11497984D01*
X16420182Y-11497984D02*
X16391610Y-11497984D01*
X16572563Y-11497984D02*
X16553515Y-11488460D01*
X16553515Y-11488460D02*
X16543991Y-11469412D01*
X16543991Y-11469412D02*
X16543991Y-11297984D01*
X16724944Y-11488460D02*
X16705896Y-11497984D01*
X16705896Y-11497984D02*
X16667801Y-11497984D01*
X16667801Y-11497984D02*
X16648753Y-11488460D01*
X16648753Y-11488460D02*
X16639230Y-11469412D01*
X16639230Y-11469412D02*
X16639230Y-11393222D01*
X16639230Y-11393222D02*
X16648753Y-11374174D01*
X16648753Y-11374174D02*
X16667801Y-11364650D01*
X16667801Y-11364650D02*
X16705896Y-11364650D01*
X16705896Y-11364650D02*
X16724944Y-11374174D01*
X16724944Y-11374174D02*
X16734468Y-11393222D01*
X16734468Y-11393222D02*
X16734468Y-11412269D01*
X16734468Y-11412269D02*
X16639230Y-11431317D01*
X16810658Y-11488460D02*
X16829706Y-11497984D01*
X16829706Y-11497984D02*
X16867801Y-11497984D01*
X16867801Y-11497984D02*
X16886849Y-11488460D01*
X16886849Y-11488460D02*
X16896373Y-11469412D01*
X16896373Y-11469412D02*
X16896373Y-11459888D01*
X16896373Y-11459888D02*
X16886849Y-11440841D01*
X16886849Y-11440841D02*
X16867801Y-11431317D01*
X16867801Y-11431317D02*
X16839230Y-11431317D01*
X16839230Y-11431317D02*
X16820182Y-11421793D01*
X16820182Y-11421793D02*
X16810658Y-11402746D01*
X16810658Y-11402746D02*
X16810658Y-11393222D01*
X16810658Y-11393222D02*
X16820182Y-11374174D01*
X16820182Y-11374174D02*
X16839230Y-11364650D01*
X16839230Y-11364650D02*
X16867801Y-11364650D01*
X16867801Y-11364650D02*
X16886849Y-11374174D01*
X16963039Y-11574174D02*
X16972563Y-11564650D01*
X16972563Y-11564650D02*
X16991611Y-11536079D01*
X16991611Y-11536079D02*
X17001134Y-11517031D01*
X17001134Y-11517031D02*
X17010658Y-11488460D01*
X17010658Y-11488460D02*
X17020182Y-11440841D01*
X17020182Y-11440841D02*
X17020182Y-11402746D01*
X17020182Y-11402746D02*
X17010658Y-11355127D01*
X17010658Y-11355127D02*
X17001134Y-11326555D01*
X17001134Y-11326555D02*
X16991611Y-11307508D01*
X16991611Y-11307508D02*
X16972563Y-11278936D01*
X16972563Y-11278936D02*
X16963039Y-11269412D01*
D12*
X11947500Y-11620500D02*
X11947500Y-11720500D01*
X11897500Y-11670500D02*
X11997500Y-11670500D01*
D11*
X12363039Y-11761984D02*
X12248753Y-11761984D01*
X12305896Y-11761984D02*
X12305896Y-11561984D01*
X12305896Y-11561984D02*
X12286848Y-11590555D01*
X12286848Y-11590555D02*
X12267801Y-11609603D01*
X12267801Y-11609603D02*
X12248753Y-11619127D01*
X12448753Y-11742936D02*
X12458277Y-11752460D01*
X12458277Y-11752460D02*
X12448753Y-11761984D01*
X12448753Y-11761984D02*
X12439229Y-11752460D01*
X12439229Y-11752460D02*
X12448753Y-11742936D01*
X12448753Y-11742936D02*
X12448753Y-11761984D01*
X12582086Y-11561984D02*
X12601134Y-11561984D01*
X12601134Y-11561984D02*
X12620182Y-11571508D01*
X12620182Y-11571508D02*
X12629705Y-11581031D01*
X12629705Y-11581031D02*
X12639229Y-11600079D01*
X12639229Y-11600079D02*
X12648753Y-11638174D01*
X12648753Y-11638174D02*
X12648753Y-11685793D01*
X12648753Y-11685793D02*
X12639229Y-11723888D01*
X12639229Y-11723888D02*
X12629705Y-11742936D01*
X12629705Y-11742936D02*
X12620182Y-11752460D01*
X12620182Y-11752460D02*
X12601134Y-11761984D01*
X12601134Y-11761984D02*
X12582086Y-11761984D01*
X12582086Y-11761984D02*
X12563039Y-11752460D01*
X12563039Y-11752460D02*
X12553515Y-11742936D01*
X12553515Y-11742936D02*
X12543991Y-11723888D01*
X12543991Y-11723888D02*
X12534467Y-11685793D01*
X12534467Y-11685793D02*
X12534467Y-11638174D01*
X12534467Y-11638174D02*
X12543991Y-11600079D01*
X12543991Y-11600079D02*
X12553515Y-11581031D01*
X12553515Y-11581031D02*
X12563039Y-11571508D01*
X12563039Y-11571508D02*
X12582086Y-11561984D01*
X12772562Y-11561984D02*
X12791610Y-11561984D01*
X12791610Y-11561984D02*
X12810658Y-11571508D01*
X12810658Y-11571508D02*
X12820182Y-11581031D01*
X12820182Y-11581031D02*
X12829705Y-11600079D01*
X12829705Y-11600079D02*
X12839229Y-11638174D01*
X12839229Y-11638174D02*
X12839229Y-11685793D01*
X12839229Y-11685793D02*
X12829705Y-11723888D01*
X12829705Y-11723888D02*
X12820182Y-11742936D01*
X12820182Y-11742936D02*
X12810658Y-11752460D01*
X12810658Y-11752460D02*
X12791610Y-11761984D01*
X12791610Y-11761984D02*
X12772562Y-11761984D01*
X12772562Y-11761984D02*
X12753515Y-11752460D01*
X12753515Y-11752460D02*
X12743991Y-11742936D01*
X12743991Y-11742936D02*
X12734467Y-11723888D01*
X12734467Y-11723888D02*
X12724943Y-11685793D01*
X12724943Y-11685793D02*
X12724943Y-11638174D01*
X12724943Y-11638174D02*
X12734467Y-11600079D01*
X12734467Y-11600079D02*
X12743991Y-11581031D01*
X12743991Y-11581031D02*
X12753515Y-11571508D01*
X12753515Y-11571508D02*
X12772562Y-11561984D01*
X12963039Y-11561984D02*
X12982086Y-11561984D01*
X12982086Y-11561984D02*
X13001134Y-11571508D01*
X13001134Y-11571508D02*
X13010658Y-11581031D01*
X13010658Y-11581031D02*
X13020182Y-11600079D01*
X13020182Y-11600079D02*
X13029705Y-11638174D01*
X13029705Y-11638174D02*
X13029705Y-11685793D01*
X13029705Y-11685793D02*
X13020182Y-11723888D01*
X13020182Y-11723888D02*
X13010658Y-11742936D01*
X13010658Y-11742936D02*
X13001134Y-11752460D01*
X13001134Y-11752460D02*
X12982086Y-11761984D01*
X12982086Y-11761984D02*
X12963039Y-11761984D01*
X12963039Y-11761984D02*
X12943991Y-11752460D01*
X12943991Y-11752460D02*
X12934467Y-11742936D01*
X12934467Y-11742936D02*
X12924943Y-11723888D01*
X12924943Y-11723888D02*
X12915420Y-11685793D01*
X12915420Y-11685793D02*
X12915420Y-11638174D01*
X12915420Y-11638174D02*
X12924943Y-11600079D01*
X12924943Y-11600079D02*
X12934467Y-11581031D01*
X12934467Y-11581031D02*
X12943991Y-11571508D01*
X12943991Y-11571508D02*
X12963039Y-11561984D01*
X13115420Y-11761984D02*
X13115420Y-11628650D01*
X13115420Y-11647698D02*
X13124943Y-11638174D01*
X13124943Y-11638174D02*
X13143991Y-11628650D01*
X13143991Y-11628650D02*
X13172563Y-11628650D01*
X13172563Y-11628650D02*
X13191610Y-11638174D01*
X13191610Y-11638174D02*
X13201134Y-11657222D01*
X13201134Y-11657222D02*
X13201134Y-11761984D01*
X13201134Y-11657222D02*
X13210658Y-11638174D01*
X13210658Y-11638174D02*
X13229705Y-11628650D01*
X13229705Y-11628650D02*
X13258277Y-11628650D01*
X13258277Y-11628650D02*
X13277324Y-11638174D01*
X13277324Y-11638174D02*
X13286848Y-11657222D01*
X13286848Y-11657222D02*
X13286848Y-11761984D01*
X13382086Y-11761984D02*
X13382086Y-11628650D01*
X13382086Y-11647698D02*
X13391610Y-11638174D01*
X13391610Y-11638174D02*
X13410658Y-11628650D01*
X13410658Y-11628650D02*
X13439229Y-11628650D01*
X13439229Y-11628650D02*
X13458277Y-11638174D01*
X13458277Y-11638174D02*
X13467801Y-11657222D01*
X13467801Y-11657222D02*
X13467801Y-11761984D01*
X13467801Y-11657222D02*
X13477324Y-11638174D01*
X13477324Y-11638174D02*
X13496372Y-11628650D01*
X13496372Y-11628650D02*
X13524943Y-11628650D01*
X13524943Y-11628650D02*
X13543991Y-11638174D01*
X13543991Y-11638174D02*
X13553515Y-11657222D01*
X13553515Y-11657222D02*
X13553515Y-11761984D01*
X13943991Y-11552460D02*
X13772563Y-11809603D01*
X14201134Y-11561984D02*
X14220182Y-11561984D01*
X14220182Y-11561984D02*
X14239229Y-11571508D01*
X14239229Y-11571508D02*
X14248753Y-11581031D01*
X14248753Y-11581031D02*
X14258277Y-11600079D01*
X14258277Y-11600079D02*
X14267801Y-11638174D01*
X14267801Y-11638174D02*
X14267801Y-11685793D01*
X14267801Y-11685793D02*
X14258277Y-11723888D01*
X14258277Y-11723888D02*
X14248753Y-11742936D01*
X14248753Y-11742936D02*
X14239229Y-11752460D01*
X14239229Y-11752460D02*
X14220182Y-11761984D01*
X14220182Y-11761984D02*
X14201134Y-11761984D01*
X14201134Y-11761984D02*
X14182086Y-11752460D01*
X14182086Y-11752460D02*
X14172563Y-11742936D01*
X14172563Y-11742936D02*
X14163039Y-11723888D01*
X14163039Y-11723888D02*
X14153515Y-11685793D01*
X14153515Y-11685793D02*
X14153515Y-11638174D01*
X14153515Y-11638174D02*
X14163039Y-11600079D01*
X14163039Y-11600079D02*
X14172563Y-11581031D01*
X14172563Y-11581031D02*
X14182086Y-11571508D01*
X14182086Y-11571508D02*
X14201134Y-11561984D01*
X14353515Y-11742936D02*
X14363039Y-11752460D01*
X14363039Y-11752460D02*
X14353515Y-11761984D01*
X14353515Y-11761984D02*
X14343991Y-11752460D01*
X14343991Y-11752460D02*
X14353515Y-11742936D01*
X14353515Y-11742936D02*
X14353515Y-11761984D01*
X14486848Y-11561984D02*
X14505896Y-11561984D01*
X14505896Y-11561984D02*
X14524944Y-11571508D01*
X14524944Y-11571508D02*
X14534467Y-11581031D01*
X14534467Y-11581031D02*
X14543991Y-11600079D01*
X14543991Y-11600079D02*
X14553515Y-11638174D01*
X14553515Y-11638174D02*
X14553515Y-11685793D01*
X14553515Y-11685793D02*
X14543991Y-11723888D01*
X14543991Y-11723888D02*
X14534467Y-11742936D01*
X14534467Y-11742936D02*
X14524944Y-11752460D01*
X14524944Y-11752460D02*
X14505896Y-11761984D01*
X14505896Y-11761984D02*
X14486848Y-11761984D01*
X14486848Y-11761984D02*
X14467801Y-11752460D01*
X14467801Y-11752460D02*
X14458277Y-11742936D01*
X14458277Y-11742936D02*
X14448753Y-11723888D01*
X14448753Y-11723888D02*
X14439229Y-11685793D01*
X14439229Y-11685793D02*
X14439229Y-11638174D01*
X14439229Y-11638174D02*
X14448753Y-11600079D01*
X14448753Y-11600079D02*
X14458277Y-11581031D01*
X14458277Y-11581031D02*
X14467801Y-11571508D01*
X14467801Y-11571508D02*
X14486848Y-11561984D01*
X14620182Y-11561984D02*
X14743991Y-11561984D01*
X14743991Y-11561984D02*
X14677325Y-11638174D01*
X14677325Y-11638174D02*
X14705896Y-11638174D01*
X14705896Y-11638174D02*
X14724944Y-11647698D01*
X14724944Y-11647698D02*
X14734467Y-11657222D01*
X14734467Y-11657222D02*
X14743991Y-11676269D01*
X14743991Y-11676269D02*
X14743991Y-11723888D01*
X14743991Y-11723888D02*
X14734467Y-11742936D01*
X14734467Y-11742936D02*
X14724944Y-11752460D01*
X14724944Y-11752460D02*
X14705896Y-11761984D01*
X14705896Y-11761984D02*
X14648753Y-11761984D01*
X14648753Y-11761984D02*
X14629706Y-11752460D01*
X14629706Y-11752460D02*
X14620182Y-11742936D01*
X14839229Y-11761984D02*
X14877325Y-11761984D01*
X14877325Y-11761984D02*
X14896372Y-11752460D01*
X14896372Y-11752460D02*
X14905896Y-11742936D01*
X14905896Y-11742936D02*
X14924944Y-11714365D01*
X14924944Y-11714365D02*
X14934467Y-11676269D01*
X14934467Y-11676269D02*
X14934467Y-11600079D01*
X14934467Y-11600079D02*
X14924944Y-11581031D01*
X14924944Y-11581031D02*
X14915420Y-11571508D01*
X14915420Y-11571508D02*
X14896372Y-11561984D01*
X14896372Y-11561984D02*
X14858277Y-11561984D01*
X14858277Y-11561984D02*
X14839229Y-11571508D01*
X14839229Y-11571508D02*
X14829706Y-11581031D01*
X14829706Y-11581031D02*
X14820182Y-11600079D01*
X14820182Y-11600079D02*
X14820182Y-11647698D01*
X14820182Y-11647698D02*
X14829706Y-11666746D01*
X14829706Y-11666746D02*
X14839229Y-11676269D01*
X14839229Y-11676269D02*
X14858277Y-11685793D01*
X14858277Y-11685793D02*
X14896372Y-11685793D01*
X14896372Y-11685793D02*
X14915420Y-11676269D01*
X14915420Y-11676269D02*
X14924944Y-11666746D01*
X14924944Y-11666746D02*
X14934467Y-11647698D01*
X15105896Y-11628650D02*
X15105896Y-11761984D01*
X15058277Y-11552460D02*
X15010658Y-11695317D01*
X15010658Y-11695317D02*
X15134467Y-11695317D01*
X15201134Y-11561984D02*
X15201134Y-11600079D01*
X15277325Y-11561984D02*
X15277325Y-11600079D01*
X15572563Y-11838174D02*
X15563039Y-11828650D01*
X15563039Y-11828650D02*
X15543991Y-11800079D01*
X15543991Y-11800079D02*
X15534468Y-11781031D01*
X15534468Y-11781031D02*
X15524944Y-11752460D01*
X15524944Y-11752460D02*
X15515420Y-11704841D01*
X15515420Y-11704841D02*
X15515420Y-11666746D01*
X15515420Y-11666746D02*
X15524944Y-11619127D01*
X15524944Y-11619127D02*
X15534468Y-11590555D01*
X15534468Y-11590555D02*
X15543991Y-11571508D01*
X15543991Y-11571508D02*
X15563039Y-11542936D01*
X15563039Y-11542936D02*
X15572563Y-11533412D01*
X15753515Y-11761984D02*
X15639229Y-11761984D01*
X15696372Y-11761984D02*
X15696372Y-11561984D01*
X15696372Y-11561984D02*
X15677325Y-11590555D01*
X15677325Y-11590555D02*
X15658277Y-11609603D01*
X15658277Y-11609603D02*
X15639229Y-11619127D01*
X15829706Y-11581031D02*
X15839229Y-11571508D01*
X15839229Y-11571508D02*
X15858277Y-11561984D01*
X15858277Y-11561984D02*
X15905896Y-11561984D01*
X15905896Y-11561984D02*
X15924944Y-11571508D01*
X15924944Y-11571508D02*
X15934468Y-11581031D01*
X15934468Y-11581031D02*
X15943991Y-11600079D01*
X15943991Y-11600079D02*
X15943991Y-11619127D01*
X15943991Y-11619127D02*
X15934468Y-11647698D01*
X15934468Y-11647698D02*
X15820182Y-11761984D01*
X15820182Y-11761984D02*
X15943991Y-11761984D01*
X16182087Y-11761984D02*
X16182087Y-11561984D01*
X16267801Y-11761984D02*
X16267801Y-11657222D01*
X16267801Y-11657222D02*
X16258277Y-11638174D01*
X16258277Y-11638174D02*
X16239230Y-11628650D01*
X16239230Y-11628650D02*
X16210658Y-11628650D01*
X16210658Y-11628650D02*
X16191610Y-11638174D01*
X16191610Y-11638174D02*
X16182087Y-11647698D01*
X16391610Y-11761984D02*
X16372563Y-11752460D01*
X16372563Y-11752460D02*
X16363039Y-11742936D01*
X16363039Y-11742936D02*
X16353515Y-11723888D01*
X16353515Y-11723888D02*
X16353515Y-11666746D01*
X16353515Y-11666746D02*
X16363039Y-11647698D01*
X16363039Y-11647698D02*
X16372563Y-11638174D01*
X16372563Y-11638174D02*
X16391610Y-11628650D01*
X16391610Y-11628650D02*
X16420182Y-11628650D01*
X16420182Y-11628650D02*
X16439230Y-11638174D01*
X16439230Y-11638174D02*
X16448753Y-11647698D01*
X16448753Y-11647698D02*
X16458277Y-11666746D01*
X16458277Y-11666746D02*
X16458277Y-11723888D01*
X16458277Y-11723888D02*
X16448753Y-11742936D01*
X16448753Y-11742936D02*
X16439230Y-11752460D01*
X16439230Y-11752460D02*
X16420182Y-11761984D01*
X16420182Y-11761984D02*
X16391610Y-11761984D01*
X16572563Y-11761984D02*
X16553515Y-11752460D01*
X16553515Y-11752460D02*
X16543991Y-11733412D01*
X16543991Y-11733412D02*
X16543991Y-11561984D01*
X16724944Y-11752460D02*
X16705896Y-11761984D01*
X16705896Y-11761984D02*
X16667801Y-11761984D01*
X16667801Y-11761984D02*
X16648753Y-11752460D01*
X16648753Y-11752460D02*
X16639230Y-11733412D01*
X16639230Y-11733412D02*
X16639230Y-11657222D01*
X16639230Y-11657222D02*
X16648753Y-11638174D01*
X16648753Y-11638174D02*
X16667801Y-11628650D01*
X16667801Y-11628650D02*
X16705896Y-11628650D01*
X16705896Y-11628650D02*
X16724944Y-11638174D01*
X16724944Y-11638174D02*
X16734468Y-11657222D01*
X16734468Y-11657222D02*
X16734468Y-11676269D01*
X16734468Y-11676269D02*
X16639230Y-11695317D01*
X16810658Y-11752460D02*
X16829706Y-11761984D01*
X16829706Y-11761984D02*
X16867801Y-11761984D01*
X16867801Y-11761984D02*
X16886849Y-11752460D01*
X16886849Y-11752460D02*
X16896373Y-11733412D01*
X16896373Y-11733412D02*
X16896373Y-11723888D01*
X16896373Y-11723888D02*
X16886849Y-11704841D01*
X16886849Y-11704841D02*
X16867801Y-11695317D01*
X16867801Y-11695317D02*
X16839230Y-11695317D01*
X16839230Y-11695317D02*
X16820182Y-11685793D01*
X16820182Y-11685793D02*
X16810658Y-11666746D01*
X16810658Y-11666746D02*
X16810658Y-11657222D01*
X16810658Y-11657222D02*
X16820182Y-11638174D01*
X16820182Y-11638174D02*
X16839230Y-11628650D01*
X16839230Y-11628650D02*
X16867801Y-11628650D01*
X16867801Y-11628650D02*
X16886849Y-11638174D01*
X16963039Y-11838174D02*
X16972563Y-11828650D01*
X16972563Y-11828650D02*
X16991611Y-11800079D01*
X16991611Y-11800079D02*
X17001134Y-11781031D01*
X17001134Y-11781031D02*
X17010658Y-11752460D01*
X17010658Y-11752460D02*
X17020182Y-11704841D01*
X17020182Y-11704841D02*
X17020182Y-11666746D01*
X17020182Y-11666746D02*
X17010658Y-11619127D01*
X17010658Y-11619127D02*
X17001134Y-11590555D01*
X17001134Y-11590555D02*
X16991611Y-11571508D01*
X16991611Y-11571508D02*
X16972563Y-11542936D01*
X16972563Y-11542936D02*
X16963039Y-11533412D01*
M02*
