G04 #@! TF.GenerationSoftware,KiCad,Pcbnew,8.0.5*
G04 #@! TF.CreationDate,2024-09-14T16:18:36+01:00*
G04 #@! TF.ProjectId,RotationEncoder,526f7461-7469-46f6-9e45-6e636f646572,rev?*
G04 #@! TF.SameCoordinates,Original*
G04 #@! TF.FileFunction,Soldermask,Bot*
G04 #@! TF.FilePolarity,Negative*
%FSLAX46Y46*%
G04 Gerber Fmt 4.6, Leading zero omitted, Abs format (unit mm)*
G04 Created by KiCad (PCBNEW 8.0.5) date 2024-09-14 16:18:36*
%MOMM*%
%LPD*%
G01*
G04 APERTURE LIST*
G04 Aperture macros list*
%AMRoundRect*
0 Rectangle with rounded corners*
0 $1 Rounding radius*
0 $2 $3 $4 $5 $6 $7 $8 $9 X,Y pos of 4 corners*
0 Add a 4 corners polygon primitive as box body*
4,1,4,$2,$3,$4,$5,$6,$7,$8,$9,$2,$3,0*
0 Add four circle primitives for the rounded corners*
1,1,$1+$1,$2,$3*
1,1,$1+$1,$4,$5*
1,1,$1+$1,$6,$7*
1,1,$1+$1,$8,$9*
0 Add four rect primitives between the rounded corners*
20,1,$1+$1,$2,$3,$4,$5,0*
20,1,$1+$1,$4,$5,$6,$7,0*
20,1,$1+$1,$6,$7,$8,$9,0*
20,1,$1+$1,$8,$9,$2,$3,0*%
G04 Aperture macros list end*
%ADD10C,3.200000*%
%ADD11RoundRect,0.250000X0.600000X-0.600000X0.600000X0.600000X-0.600000X0.600000X-0.600000X-0.600000X0*%
%ADD12C,1.700000*%
%ADD13R,1.700000X1.700000*%
%ADD14O,1.700000X1.700000*%
%ADD15RoundRect,0.250000X0.450000X-0.262500X0.450000X0.262500X-0.450000X0.262500X-0.450000X-0.262500X0*%
%ADD16RoundRect,0.218750X0.381250X-0.218750X0.381250X0.218750X-0.381250X0.218750X-0.381250X-0.218750X0*%
%ADD17RoundRect,0.250000X0.475000X-0.250000X0.475000X0.250000X-0.475000X0.250000X-0.475000X-0.250000X0*%
%ADD18RoundRect,0.150000X0.587500X0.150000X-0.587500X0.150000X-0.587500X-0.150000X0.587500X-0.150000X0*%
%ADD19RoundRect,0.250000X0.262500X0.450000X-0.262500X0.450000X-0.262500X-0.450000X0.262500X-0.450000X0*%
%ADD20RoundRect,0.250000X-0.475000X0.250000X-0.475000X-0.250000X0.475000X-0.250000X0.475000X0.250000X0*%
%ADD21RoundRect,0.150000X0.825000X0.150000X-0.825000X0.150000X-0.825000X-0.150000X0.825000X-0.150000X0*%
%ADD22RoundRect,0.225000X-0.375000X0.225000X-0.375000X-0.225000X0.375000X-0.225000X0.375000X0.225000X0*%
%ADD23RoundRect,0.250000X-0.450000X0.262500X-0.450000X-0.262500X0.450000X-0.262500X0.450000X0.262500X0*%
%ADD24RoundRect,0.218750X-0.381250X0.218750X-0.381250X-0.218750X0.381250X-0.218750X0.381250X0.218750X0*%
%ADD25RoundRect,0.250000X-0.262500X-0.450000X0.262500X-0.450000X0.262500X0.450000X-0.262500X0.450000X0*%
%ADD26RoundRect,0.218750X-0.218750X-0.381250X0.218750X-0.381250X0.218750X0.381250X-0.218750X0.381250X0*%
%ADD27RoundRect,0.250000X0.250000X0.475000X-0.250000X0.475000X-0.250000X-0.475000X0.250000X-0.475000X0*%
G04 APERTURE END LIST*
D10*
X123500000Y-90000000D03*
X166500000Y-90000000D03*
D11*
X142455000Y-99752500D03*
D12*
X142455000Y-97212500D03*
X144995000Y-99752500D03*
X144995000Y-97212500D03*
X147535000Y-99752500D03*
X147535000Y-97212500D03*
D13*
X124775000Y-102525000D03*
D14*
X122235000Y-102525000D03*
X124775000Y-99985000D03*
X122235000Y-99985000D03*
X124775000Y-97445000D03*
X122235000Y-97445000D03*
D15*
X140000000Y-92912500D03*
X140000000Y-91087500D03*
D16*
X138000000Y-101562500D03*
X138000000Y-99437500D03*
D17*
X125500000Y-83950000D03*
X125500000Y-82050000D03*
D18*
X164937500Y-82050000D03*
X164937500Y-83950000D03*
X163062500Y-83000000D03*
D19*
X160712500Y-83000000D03*
X158887500Y-83000000D03*
D20*
X136000000Y-99550000D03*
X136000000Y-101450000D03*
D21*
X147475000Y-88095000D03*
X147475000Y-89365000D03*
X147475000Y-90635000D03*
X147475000Y-91905000D03*
X142525000Y-91905000D03*
X142525000Y-90635000D03*
X142525000Y-89365000D03*
X142525000Y-88095000D03*
D22*
X123000000Y-81350000D03*
X123000000Y-84650000D03*
D15*
X154500000Y-83412500D03*
X154500000Y-81587500D03*
D20*
X150500000Y-89550000D03*
X150500000Y-91450000D03*
D23*
X140000000Y-87087500D03*
X140000000Y-88912500D03*
D19*
X157912500Y-102500000D03*
X156087500Y-102500000D03*
D23*
X157500000Y-93587500D03*
X157500000Y-95412500D03*
D24*
X152500000Y-89437500D03*
X152500000Y-91562500D03*
D17*
X149000000Y-85450000D03*
X149000000Y-83550000D03*
D23*
X129000000Y-82087500D03*
X129000000Y-83912500D03*
D20*
X155500000Y-93550000D03*
X155500000Y-95450000D03*
D24*
X151000000Y-83437500D03*
X151000000Y-85562500D03*
D25*
X165087500Y-102000000D03*
X166912500Y-102000000D03*
D26*
X135937500Y-85000000D03*
X138062500Y-85000000D03*
D27*
X145950000Y-103000000D03*
X144050000Y-103000000D03*
M02*
