G04 #@! TF.GenerationSoftware,KiCad,Pcbnew,8.0.5*
G04 #@! TF.CreationDate,2024-09-14T16:18:35+01:00*
G04 #@! TF.ProjectId,RotationEncoder,526f7461-7469-46f6-9e45-6e636f646572,rev?*
G04 #@! TF.SameCoordinates,Original*
G04 #@! TF.FileFunction,Copper,L2,Inr*
G04 #@! TF.FilePolarity,Positive*
%FSLAX46Y46*%
G04 Gerber Fmt 4.6, Leading zero omitted, Abs format (unit mm)*
G04 Created by KiCad (PCBNEW 8.0.5) date 2024-09-14 16:18:35*
%MOMM*%
%LPD*%
G01*
G04 APERTURE LIST*
G04 Aperture macros list*
%AMRoundRect*
0 Rectangle with rounded corners*
0 $1 Rounding radius*
0 $2 $3 $4 $5 $6 $7 $8 $9 X,Y pos of 4 corners*
0 Add a 4 corners polygon primitive as box body*
4,1,4,$2,$3,$4,$5,$6,$7,$8,$9,$2,$3,0*
0 Add four circle primitives for the rounded corners*
1,1,$1+$1,$2,$3*
1,1,$1+$1,$4,$5*
1,1,$1+$1,$6,$7*
1,1,$1+$1,$8,$9*
0 Add four rect primitives between the rounded corners*
20,1,$1+$1,$2,$3,$4,$5,0*
20,1,$1+$1,$4,$5,$6,$7,0*
20,1,$1+$1,$6,$7,$8,$9,0*
20,1,$1+$1,$8,$9,$2,$3,0*%
G04 Aperture macros list end*
G04 #@! TA.AperFunction,ComponentPad*
%ADD10RoundRect,0.250000X0.600000X-0.600000X0.600000X0.600000X-0.600000X0.600000X-0.600000X-0.600000X0*%
G04 #@! TD*
G04 #@! TA.AperFunction,ComponentPad*
%ADD11C,1.700000*%
G04 #@! TD*
G04 #@! TA.AperFunction,ComponentPad*
%ADD12R,1.700000X1.700000*%
G04 #@! TD*
G04 #@! TA.AperFunction,ComponentPad*
%ADD13O,1.700000X1.700000*%
G04 #@! TD*
G04 #@! TA.AperFunction,ViaPad*
%ADD14C,0.800000*%
G04 #@! TD*
G04 #@! TA.AperFunction,ViaPad*
%ADD15C,1.200000*%
G04 #@! TD*
G04 APERTURE END LIST*
D10*
X142455000Y-99752500D03*
D11*
X142455000Y-97212500D03*
X144995000Y-99752500D03*
X144995000Y-97212500D03*
X147535000Y-99752500D03*
X147535000Y-97212500D03*
D12*
X124775000Y-102525000D03*
D13*
X122235000Y-102525000D03*
X124775000Y-99985000D03*
X122235000Y-99985000D03*
X124775000Y-97445000D03*
X122235000Y-97445000D03*
D14*
X123000000Y-82500000D03*
X157500000Y-81500000D03*
D15*
X147500000Y-102500000D03*
X136000000Y-83000000D03*
D14*
X129000000Y-81000000D03*
X141000000Y-83500000D03*
D15*
X152500000Y-84500000D03*
D14*
X158500000Y-81500000D03*
X166500000Y-83000000D03*
X166500000Y-82000000D03*
D15*
X138000000Y-103000000D03*
X151000000Y-82000000D03*
D14*
X159500000Y-81500000D03*
D15*
X152500000Y-83000000D03*
D14*
X140000000Y-94000000D03*
X133500000Y-94500000D03*
D15*
X152500000Y-86500000D03*
D14*
X131000000Y-90000000D03*
D15*
X142500000Y-102500000D03*
X155000000Y-87000000D03*
X144000000Y-86000000D03*
X149000000Y-82000000D03*
D14*
X159000000Y-99500000D03*
X153500000Y-95500000D03*
X161500000Y-85500000D03*
D15*
X154000000Y-91500000D03*
D14*
X153500000Y-97000000D03*
X134500000Y-93500000D03*
X127500000Y-82500000D03*
D15*
X136000000Y-103000000D03*
D14*
X153500000Y-94000000D03*
X137000000Y-91000000D03*
D15*
X142500000Y-86000000D03*
D14*
X157500000Y-99500000D03*
X121500000Y-82500000D03*
D15*
X149000000Y-94500000D03*
D14*
X156000000Y-99500000D03*
X138500000Y-92500000D03*
X159000000Y-87500000D03*
X162500000Y-100500000D03*
D15*
X134500000Y-85000000D03*
D14*
X133500000Y-86000000D03*
X161000000Y-80975000D03*
X134500000Y-87000000D03*
D15*
X150500000Y-93000000D03*
D14*
X165000000Y-99500000D03*
X164000000Y-99500000D03*
X159000000Y-85500000D03*
X131000000Y-91000000D03*
X159000000Y-90000000D03*
X137000000Y-89000000D03*
X138500000Y-87500000D03*
X145500000Y-85000000D03*
X147000000Y-85000000D03*
X145500000Y-90000000D03*
X144000000Y-87500000D03*
X142000000Y-93500000D03*
D15*
X152500000Y-93000000D03*
X138000000Y-83000000D03*
X136000000Y-98000000D03*
D14*
X145000000Y-81500000D03*
X121500000Y-84000000D03*
X156000000Y-81000000D03*
X152500000Y-81000000D03*
X139000000Y-96500000D03*
X127500000Y-99500000D03*
X162500000Y-103500000D03*
X157500000Y-92500000D03*
X163500000Y-97500000D03*
X163000000Y-102000000D03*
X162000000Y-98000000D03*
X162000000Y-102000000D03*
X161000000Y-98000000D03*
X168000000Y-103000000D03*
X150000000Y-96500000D03*
X147000000Y-94400000D03*
X151000000Y-94500000D03*
X168000000Y-102000000D03*
G04 #@! TA.AperFunction,Conductor*
G36*
X128626923Y-80320185D02*
G01*
X128672678Y-80372989D01*
X128682622Y-80442147D01*
X128653597Y-80505703D01*
X128635374Y-80522873D01*
X128571718Y-80571718D01*
X128475463Y-80697160D01*
X128414956Y-80843237D01*
X128414955Y-80843239D01*
X128394318Y-80999998D01*
X128394318Y-81000001D01*
X128414955Y-81156760D01*
X128414956Y-81156762D01*
X128475464Y-81302841D01*
X128571718Y-81428282D01*
X128697159Y-81524536D01*
X128843238Y-81585044D01*
X128921619Y-81595363D01*
X128999999Y-81605682D01*
X129000000Y-81605682D01*
X129000001Y-81605682D01*
X129052254Y-81598802D01*
X129156762Y-81585044D01*
X129302841Y-81524536D01*
X129334820Y-81499998D01*
X144394318Y-81499998D01*
X144394318Y-81500001D01*
X144414955Y-81656760D01*
X144414956Y-81656762D01*
X144475464Y-81802841D01*
X144571718Y-81928282D01*
X144697159Y-82024536D01*
X144843238Y-82085044D01*
X144921619Y-82095363D01*
X144999999Y-82105682D01*
X145000000Y-82105682D01*
X145000001Y-82105682D01*
X145052254Y-82098802D01*
X145156762Y-82085044D01*
X145302841Y-82024536D01*
X145334822Y-81999996D01*
X150194435Y-81999996D01*
X150194435Y-82000003D01*
X150214630Y-82179249D01*
X150214631Y-82179254D01*
X150274211Y-82349523D01*
X150323699Y-82428282D01*
X150370184Y-82502262D01*
X150497738Y-82629816D01*
X150650478Y-82725789D01*
X150820745Y-82785368D01*
X150820750Y-82785369D01*
X150999996Y-82805565D01*
X151000000Y-82805565D01*
X151000004Y-82805565D01*
X151179249Y-82785369D01*
X151179252Y-82785368D01*
X151179255Y-82785368D01*
X151349522Y-82725789D01*
X151502262Y-82629816D01*
X151547555Y-82584522D01*
X151608876Y-82551038D01*
X151678567Y-82556022D01*
X151734501Y-82597893D01*
X151758919Y-82663357D01*
X151752277Y-82713158D01*
X151714632Y-82820742D01*
X151714630Y-82820750D01*
X151694435Y-82999996D01*
X151694435Y-83000003D01*
X151714630Y-83179249D01*
X151714631Y-83179254D01*
X151774211Y-83349523D01*
X151823699Y-83428282D01*
X151870184Y-83502262D01*
X151997738Y-83629816D01*
X152021911Y-83645005D01*
X152021913Y-83645006D01*
X152068204Y-83697341D01*
X152078852Y-83766395D01*
X152050477Y-83830243D01*
X152021913Y-83854994D01*
X151997737Y-83870184D01*
X151870184Y-83997737D01*
X151774211Y-84150476D01*
X151714631Y-84320745D01*
X151714630Y-84320750D01*
X151694435Y-84499996D01*
X151694435Y-84500003D01*
X151714630Y-84679249D01*
X151714631Y-84679254D01*
X151774211Y-84849523D01*
X151868761Y-84999998D01*
X151870184Y-85002262D01*
X151997738Y-85129816D01*
X152150478Y-85225789D01*
X152320745Y-85285368D01*
X152320750Y-85285369D01*
X152499996Y-85305565D01*
X152500000Y-85305565D01*
X152500004Y-85305565D01*
X152679249Y-85285369D01*
X152679252Y-85285368D01*
X152679255Y-85285368D01*
X152849522Y-85225789D01*
X153002262Y-85129816D01*
X153129816Y-85002262D01*
X153225789Y-84849522D01*
X153285368Y-84679255D01*
X153295983Y-84585043D01*
X153305565Y-84500003D01*
X153305565Y-84499996D01*
X153285369Y-84320750D01*
X153285368Y-84320745D01*
X153225788Y-84150476D01*
X153129815Y-83997737D01*
X153002264Y-83870186D01*
X153002262Y-83870184D01*
X152978084Y-83854992D01*
X152931796Y-83802661D01*
X152921146Y-83733607D01*
X152949521Y-83669758D01*
X152978082Y-83645009D01*
X153002262Y-83629816D01*
X153129816Y-83502262D01*
X153225789Y-83349522D01*
X153285368Y-83179255D01*
X153285369Y-83179249D01*
X153305565Y-83000003D01*
X153305565Y-82999996D01*
X153285369Y-82820750D01*
X153285368Y-82820745D01*
X153252141Y-82725788D01*
X153225789Y-82650478D01*
X153129816Y-82497738D01*
X153002262Y-82370184D01*
X152969379Y-82349522D01*
X152849523Y-82274211D01*
X152679254Y-82214631D01*
X152679249Y-82214630D01*
X152500004Y-82194435D01*
X152499996Y-82194435D01*
X152320750Y-82214630D01*
X152320745Y-82214631D01*
X152150476Y-82274211D01*
X151997737Y-82370184D01*
X151952444Y-82415477D01*
X151891121Y-82448961D01*
X151821429Y-82443976D01*
X151765496Y-82402104D01*
X151741080Y-82336640D01*
X151747723Y-82286840D01*
X151785366Y-82179262D01*
X151785369Y-82179249D01*
X151805565Y-82000003D01*
X151805565Y-81999996D01*
X151785369Y-81820750D01*
X151785368Y-81820745D01*
X151725788Y-81650476D01*
X151629815Y-81497737D01*
X151502262Y-81370184D01*
X151349523Y-81274211D01*
X151179254Y-81214631D01*
X151179249Y-81214630D01*
X151000004Y-81194435D01*
X150999996Y-81194435D01*
X150820750Y-81214630D01*
X150820745Y-81214631D01*
X150650476Y-81274211D01*
X150497737Y-81370184D01*
X150370184Y-81497737D01*
X150274211Y-81650476D01*
X150214631Y-81820745D01*
X150214630Y-81820750D01*
X150194435Y-81999996D01*
X145334822Y-81999996D01*
X145428282Y-81928282D01*
X145524536Y-81802841D01*
X145585044Y-81656762D01*
X145605682Y-81500000D01*
X145585044Y-81343238D01*
X145524536Y-81197159D01*
X145428282Y-81071718D01*
X145302841Y-80975464D01*
X145156762Y-80914956D01*
X145156760Y-80914955D01*
X145000001Y-80894318D01*
X144999999Y-80894318D01*
X144843239Y-80914955D01*
X144843237Y-80914956D01*
X144697160Y-80975463D01*
X144571718Y-81071718D01*
X144475463Y-81197160D01*
X144414956Y-81343237D01*
X144414955Y-81343239D01*
X144394318Y-81499998D01*
X129334820Y-81499998D01*
X129428282Y-81428282D01*
X129524536Y-81302841D01*
X129585044Y-81156762D01*
X129605682Y-81000000D01*
X129585044Y-80843238D01*
X129524536Y-80697159D01*
X129428282Y-80571718D01*
X129364628Y-80522874D01*
X129323427Y-80466448D01*
X129319272Y-80396702D01*
X129353485Y-80335781D01*
X129415202Y-80303029D01*
X129440116Y-80300500D01*
X152059884Y-80300500D01*
X152126923Y-80320185D01*
X152172678Y-80372989D01*
X152182622Y-80442147D01*
X152153597Y-80505703D01*
X152135374Y-80522873D01*
X152071718Y-80571718D01*
X151975463Y-80697160D01*
X151914956Y-80843237D01*
X151914955Y-80843239D01*
X151894318Y-80999998D01*
X151894318Y-81000001D01*
X151914955Y-81156760D01*
X151914956Y-81156762D01*
X151975464Y-81302841D01*
X152071718Y-81428282D01*
X152197159Y-81524536D01*
X152343238Y-81585044D01*
X152421619Y-81595363D01*
X152499999Y-81605682D01*
X152500000Y-81605682D01*
X152500001Y-81605682D01*
X152552254Y-81598802D01*
X152656762Y-81585044D01*
X152802841Y-81524536D01*
X152928282Y-81428282D01*
X153024536Y-81302841D01*
X153085044Y-81156762D01*
X153105682Y-81000000D01*
X153085044Y-80843238D01*
X153024536Y-80697159D01*
X152928282Y-80571718D01*
X152864628Y-80522874D01*
X152823427Y-80466448D01*
X152819272Y-80396702D01*
X152853485Y-80335781D01*
X152915202Y-80303029D01*
X152940116Y-80300500D01*
X155559884Y-80300500D01*
X155626923Y-80320185D01*
X155672678Y-80372989D01*
X155682622Y-80442147D01*
X155653597Y-80505703D01*
X155635374Y-80522873D01*
X155571718Y-80571718D01*
X155475463Y-80697160D01*
X155414956Y-80843237D01*
X155414955Y-80843239D01*
X155394318Y-80999998D01*
X155394318Y-81000001D01*
X155414955Y-81156760D01*
X155414956Y-81156762D01*
X155475464Y-81302841D01*
X155571718Y-81428282D01*
X155697159Y-81524536D01*
X155843238Y-81585044D01*
X155921619Y-81595363D01*
X155999999Y-81605682D01*
X156000000Y-81605682D01*
X156000001Y-81605682D01*
X156052254Y-81598802D01*
X156156762Y-81585044D01*
X156302841Y-81524536D01*
X156334820Y-81499998D01*
X156894318Y-81499998D01*
X156894318Y-81500001D01*
X156914955Y-81656760D01*
X156914956Y-81656762D01*
X156975464Y-81802841D01*
X157071718Y-81928282D01*
X157197159Y-82024536D01*
X157343238Y-82085044D01*
X157421619Y-82095363D01*
X157499999Y-82105682D01*
X157500000Y-82105682D01*
X157500001Y-82105682D01*
X157552254Y-82098802D01*
X157656762Y-82085044D01*
X157802841Y-82024536D01*
X157924515Y-81931171D01*
X157989683Y-81905979D01*
X158058127Y-81920017D01*
X158075478Y-81931167D01*
X158197159Y-82024536D01*
X158343238Y-82085044D01*
X158421619Y-82095363D01*
X158499999Y-82105682D01*
X158500000Y-82105682D01*
X158500001Y-82105682D01*
X158552254Y-82098802D01*
X158656762Y-82085044D01*
X158802841Y-82024536D01*
X158924515Y-81931171D01*
X158989683Y-81905979D01*
X159058127Y-81920017D01*
X159075478Y-81931167D01*
X159197159Y-82024536D01*
X159343238Y-82085044D01*
X159421619Y-82095363D01*
X159499999Y-82105682D01*
X159500000Y-82105682D01*
X159500001Y-82105682D01*
X159552254Y-82098802D01*
X159656762Y-82085044D01*
X159802841Y-82024536D01*
X159834820Y-81999998D01*
X165894318Y-81999998D01*
X165894318Y-82000001D01*
X165914955Y-82156760D01*
X165914956Y-82156762D01*
X165975464Y-82302842D01*
X166068826Y-82424514D01*
X166094020Y-82489683D01*
X166079981Y-82558128D01*
X166068826Y-82575486D01*
X165975464Y-82697157D01*
X165914956Y-82843237D01*
X165914955Y-82843239D01*
X165894318Y-82999998D01*
X165894318Y-83000001D01*
X165914955Y-83156760D01*
X165914956Y-83156762D01*
X165924272Y-83179254D01*
X165975464Y-83302841D01*
X166071718Y-83428282D01*
X166197159Y-83524536D01*
X166343238Y-83585044D01*
X166421619Y-83595363D01*
X166499999Y-83605682D01*
X166500000Y-83605682D01*
X166500001Y-83605682D01*
X166552254Y-83598802D01*
X166656762Y-83585044D01*
X166802841Y-83524536D01*
X166928282Y-83428282D01*
X167024536Y-83302841D01*
X167085044Y-83156762D01*
X167105682Y-83000000D01*
X167105681Y-82999996D01*
X167085044Y-82843239D01*
X167085044Y-82843238D01*
X167024536Y-82697159D01*
X166931171Y-82575484D01*
X166905979Y-82510317D01*
X166920017Y-82441873D01*
X166931167Y-82424521D01*
X167024536Y-82302841D01*
X167085044Y-82156762D01*
X167105682Y-82000000D01*
X167105681Y-81999996D01*
X167085044Y-81843239D01*
X167085044Y-81843238D01*
X167024536Y-81697159D01*
X166928282Y-81571718D01*
X166802841Y-81475464D01*
X166656762Y-81414956D01*
X166656760Y-81414955D01*
X166500001Y-81394318D01*
X166499999Y-81394318D01*
X166343239Y-81414955D01*
X166343237Y-81414956D01*
X166197160Y-81475463D01*
X166071718Y-81571718D01*
X165975463Y-81697160D01*
X165914956Y-81843237D01*
X165914955Y-81843239D01*
X165894318Y-81999998D01*
X159834820Y-81999998D01*
X159928282Y-81928282D01*
X160024536Y-81802841D01*
X160085044Y-81656762D01*
X160105682Y-81500000D01*
X160085044Y-81343238D01*
X160024536Y-81197159D01*
X159928282Y-81071718D01*
X159802841Y-80975464D01*
X159656762Y-80914956D01*
X159656760Y-80914955D01*
X159500001Y-80894318D01*
X159499999Y-80894318D01*
X159343239Y-80914955D01*
X159343237Y-80914956D01*
X159197157Y-80975464D01*
X159075486Y-81068826D01*
X159010317Y-81094020D01*
X158941872Y-81079981D01*
X158924514Y-81068826D01*
X158802842Y-80975464D01*
X158656762Y-80914956D01*
X158656760Y-80914955D01*
X158500001Y-80894318D01*
X158499999Y-80894318D01*
X158343239Y-80914955D01*
X158343237Y-80914956D01*
X158197157Y-80975464D01*
X158075486Y-81068826D01*
X158010317Y-81094020D01*
X157941872Y-81079981D01*
X157924514Y-81068826D01*
X157802842Y-80975464D01*
X157656762Y-80914956D01*
X157656760Y-80914955D01*
X157500001Y-80894318D01*
X157499999Y-80894318D01*
X157343239Y-80914955D01*
X157343237Y-80914956D01*
X157197160Y-80975463D01*
X157071718Y-81071718D01*
X156975463Y-81197160D01*
X156914956Y-81343237D01*
X156914955Y-81343239D01*
X156894318Y-81499998D01*
X156334820Y-81499998D01*
X156428282Y-81428282D01*
X156524536Y-81302841D01*
X156585044Y-81156762D01*
X156605682Y-81000000D01*
X156585044Y-80843238D01*
X156524536Y-80697159D01*
X156428282Y-80571718D01*
X156364628Y-80522874D01*
X156323427Y-80466448D01*
X156319272Y-80396702D01*
X156353485Y-80335781D01*
X156415202Y-80303029D01*
X156440116Y-80300500D01*
X169575500Y-80300500D01*
X169642539Y-80320185D01*
X169688294Y-80372989D01*
X169699500Y-80424500D01*
X169699500Y-104575500D01*
X169679815Y-104642539D01*
X169627011Y-104688294D01*
X169575500Y-104699500D01*
X120424500Y-104699500D01*
X120357461Y-104679815D01*
X120311706Y-104627011D01*
X120300500Y-104575500D01*
X120300500Y-102525000D01*
X121179417Y-102525000D01*
X121199699Y-102730932D01*
X121199700Y-102730934D01*
X121259768Y-102928954D01*
X121357315Y-103111450D01*
X121391969Y-103153677D01*
X121488589Y-103271410D01*
X121530208Y-103305565D01*
X121648550Y-103402685D01*
X121831046Y-103500232D01*
X122029066Y-103560300D01*
X122029065Y-103560300D01*
X122047529Y-103562118D01*
X122235000Y-103580583D01*
X122440934Y-103560300D01*
X122638954Y-103500232D01*
X122821450Y-103402685D01*
X122981410Y-103271410D01*
X123112685Y-103111450D01*
X123210232Y-102928954D01*
X123270300Y-102730934D01*
X123290583Y-102525000D01*
X123270300Y-102319066D01*
X123210232Y-102121046D01*
X123112685Y-101938550D01*
X123034464Y-101843237D01*
X122981410Y-101778589D01*
X122831121Y-101655252D01*
X122831115Y-101655247D01*
X123724500Y-101655247D01*
X123724500Y-103394752D01*
X123736131Y-103453229D01*
X123736132Y-103453230D01*
X123780447Y-103519552D01*
X123846769Y-103563867D01*
X123846770Y-103563868D01*
X123905247Y-103575499D01*
X123905250Y-103575500D01*
X123905252Y-103575500D01*
X125644750Y-103575500D01*
X125644751Y-103575499D01*
X125659568Y-103572552D01*
X125703229Y-103563868D01*
X125703229Y-103563867D01*
X125703231Y-103563867D01*
X125769552Y-103519552D01*
X125813867Y-103453231D01*
X125813867Y-103453229D01*
X125813868Y-103453229D01*
X125825499Y-103394752D01*
X125825500Y-103394750D01*
X125825500Y-102999996D01*
X137194435Y-102999996D01*
X137194435Y-103000003D01*
X137214630Y-103179249D01*
X137214631Y-103179254D01*
X137274211Y-103349523D01*
X137323699Y-103428282D01*
X137370184Y-103502262D01*
X137497738Y-103629816D01*
X137650478Y-103725789D01*
X137820745Y-103785368D01*
X137820750Y-103785369D01*
X137999996Y-103805565D01*
X138000000Y-103805565D01*
X138000004Y-103805565D01*
X138179249Y-103785369D01*
X138179252Y-103785368D01*
X138179255Y-103785368D01*
X138349522Y-103725789D01*
X138502262Y-103629816D01*
X138629816Y-103502262D01*
X138631239Y-103499998D01*
X161894318Y-103499998D01*
X161894318Y-103500001D01*
X161914955Y-103656760D01*
X161914956Y-103656762D01*
X161943547Y-103725788D01*
X161975464Y-103802841D01*
X162071718Y-103928282D01*
X162197159Y-104024536D01*
X162343238Y-104085044D01*
X162421619Y-104095363D01*
X162499999Y-104105682D01*
X162500000Y-104105682D01*
X162500001Y-104105682D01*
X162552254Y-104098802D01*
X162656762Y-104085044D01*
X162802841Y-104024536D01*
X162928282Y-103928282D01*
X163024536Y-103802841D01*
X163085044Y-103656762D01*
X163105384Y-103502262D01*
X163105682Y-103500001D01*
X163105682Y-103499998D01*
X163085044Y-103343239D01*
X163085044Y-103343238D01*
X163024536Y-103197159D01*
X162928282Y-103071718D01*
X162802841Y-102975464D01*
X162656762Y-102914956D01*
X162656760Y-102914955D01*
X162500001Y-102894318D01*
X162499999Y-102894318D01*
X162343239Y-102914955D01*
X162343237Y-102914956D01*
X162197160Y-102975463D01*
X162071718Y-103071718D01*
X161975463Y-103197160D01*
X161914956Y-103343237D01*
X161914955Y-103343239D01*
X161894318Y-103499998D01*
X138631239Y-103499998D01*
X138725789Y-103349522D01*
X138785368Y-103179255D01*
X138785369Y-103179249D01*
X138805565Y-103000003D01*
X138805565Y-102999996D01*
X138785369Y-102820750D01*
X138785368Y-102820745D01*
X138742123Y-102697159D01*
X138725789Y-102650478D01*
X138631235Y-102499996D01*
X146694435Y-102499996D01*
X146694435Y-102500003D01*
X146714630Y-102679249D01*
X146714631Y-102679254D01*
X146774211Y-102849523D01*
X146853345Y-102975463D01*
X146870184Y-103002262D01*
X146997738Y-103129816D01*
X147150478Y-103225789D01*
X147320745Y-103285368D01*
X147320750Y-103285369D01*
X147499996Y-103305565D01*
X147500000Y-103305565D01*
X147500004Y-103305565D01*
X147679249Y-103285369D01*
X147679252Y-103285368D01*
X147679255Y-103285368D01*
X147849522Y-103225789D01*
X148002262Y-103129816D01*
X148129816Y-103002262D01*
X148225789Y-102849522D01*
X148285368Y-102679255D01*
X148285369Y-102679249D01*
X148305565Y-102500003D01*
X148305565Y-102499996D01*
X148285369Y-102320750D01*
X148285368Y-102320745D01*
X148225788Y-102150476D01*
X148131236Y-101999998D01*
X161394318Y-101999998D01*
X161394318Y-102000001D01*
X161414955Y-102156760D01*
X161414956Y-102156762D01*
X161475464Y-102302841D01*
X161571718Y-102428282D01*
X161697159Y-102524536D01*
X161843238Y-102585044D01*
X161921619Y-102595363D01*
X161999999Y-102605682D01*
X162000000Y-102605682D01*
X162000001Y-102605682D01*
X162052254Y-102598802D01*
X162156762Y-102585044D01*
X162302841Y-102524536D01*
X162424515Y-102431171D01*
X162489683Y-102405979D01*
X162558127Y-102420017D01*
X162575478Y-102431167D01*
X162697159Y-102524536D01*
X162843238Y-102585044D01*
X162921619Y-102595363D01*
X162999999Y-102605682D01*
X163000000Y-102605682D01*
X163000001Y-102605682D01*
X163052254Y-102598802D01*
X163156762Y-102585044D01*
X163302841Y-102524536D01*
X163428282Y-102428282D01*
X163524536Y-102302841D01*
X163585044Y-102156762D01*
X163605682Y-102000000D01*
X163605682Y-101999998D01*
X167394318Y-101999998D01*
X167394318Y-102000001D01*
X167414955Y-102156760D01*
X167414956Y-102156762D01*
X167475464Y-102302842D01*
X167568826Y-102424514D01*
X167594020Y-102489683D01*
X167579981Y-102558128D01*
X167568826Y-102575486D01*
X167475464Y-102697157D01*
X167414956Y-102843237D01*
X167414955Y-102843239D01*
X167394318Y-102999998D01*
X167394318Y-103000001D01*
X167414955Y-103156760D01*
X167414956Y-103156762D01*
X167443547Y-103225788D01*
X167475464Y-103302841D01*
X167571718Y-103428282D01*
X167697159Y-103524536D01*
X167843238Y-103585044D01*
X167921619Y-103595363D01*
X167999999Y-103605682D01*
X168000000Y-103605682D01*
X168000001Y-103605682D01*
X168052254Y-103598802D01*
X168156762Y-103585044D01*
X168302841Y-103524536D01*
X168428282Y-103428282D01*
X168524536Y-103302841D01*
X168585044Y-103156762D01*
X168605682Y-103000000D01*
X168605681Y-102999996D01*
X168585044Y-102843239D01*
X168585044Y-102843238D01*
X168524536Y-102697159D01*
X168431171Y-102575484D01*
X168405979Y-102510317D01*
X168420017Y-102441873D01*
X168431167Y-102424521D01*
X168524536Y-102302841D01*
X168585044Y-102156762D01*
X168605682Y-102000000D01*
X168585044Y-101843238D01*
X168524536Y-101697159D01*
X168428282Y-101571718D01*
X168302841Y-101475464D01*
X168288242Y-101469417D01*
X168156762Y-101414956D01*
X168156760Y-101414955D01*
X168000001Y-101394318D01*
X167999999Y-101394318D01*
X167843239Y-101414955D01*
X167843237Y-101414956D01*
X167697160Y-101475463D01*
X167571718Y-101571718D01*
X167475463Y-101697160D01*
X167414956Y-101843237D01*
X167414955Y-101843239D01*
X167394318Y-101999998D01*
X163605682Y-101999998D01*
X163585044Y-101843238D01*
X163524536Y-101697159D01*
X163428282Y-101571718D01*
X163302841Y-101475464D01*
X163288242Y-101469417D01*
X163156762Y-101414956D01*
X163156760Y-101414955D01*
X163000001Y-101394318D01*
X162999999Y-101394318D01*
X162843239Y-101414955D01*
X162843237Y-101414956D01*
X162697157Y-101475464D01*
X162575486Y-101568826D01*
X162510317Y-101594020D01*
X162441872Y-101579981D01*
X162424514Y-101568826D01*
X162302842Y-101475464D01*
X162156762Y-101414956D01*
X162156760Y-101414955D01*
X162000001Y-101394318D01*
X161999999Y-101394318D01*
X161843239Y-101414955D01*
X161843237Y-101414956D01*
X161697160Y-101475463D01*
X161571718Y-101571718D01*
X161475463Y-101697160D01*
X161414956Y-101843237D01*
X161414955Y-101843239D01*
X161394318Y-101999998D01*
X148131236Y-101999998D01*
X148129815Y-101997737D01*
X148002262Y-101870184D01*
X147849523Y-101774211D01*
X147679254Y-101714631D01*
X147679249Y-101714630D01*
X147500004Y-101694435D01*
X147499996Y-101694435D01*
X147320750Y-101714630D01*
X147320745Y-101714631D01*
X147150476Y-101774211D01*
X146997737Y-101870184D01*
X146870184Y-101997737D01*
X146774211Y-102150476D01*
X146714631Y-102320745D01*
X146714630Y-102320750D01*
X146694435Y-102499996D01*
X138631235Y-102499996D01*
X138629816Y-102497738D01*
X138502262Y-102370184D01*
X138445976Y-102334817D01*
X138349523Y-102274211D01*
X138179254Y-102214631D01*
X138179249Y-102214630D01*
X138000004Y-102194435D01*
X137999996Y-102194435D01*
X137820750Y-102214630D01*
X137820745Y-102214631D01*
X137650476Y-102274211D01*
X137497737Y-102370184D01*
X137370184Y-102497737D01*
X137274211Y-102650476D01*
X137214631Y-102820745D01*
X137214630Y-102820750D01*
X137194435Y-102999996D01*
X125825500Y-102999996D01*
X125825500Y-101655249D01*
X125825499Y-101655247D01*
X125813868Y-101596770D01*
X125813867Y-101596769D01*
X125769552Y-101530447D01*
X125703230Y-101486132D01*
X125703229Y-101486131D01*
X125644752Y-101474500D01*
X125644748Y-101474500D01*
X123905252Y-101474500D01*
X123905247Y-101474500D01*
X123846770Y-101486131D01*
X123846769Y-101486132D01*
X123780447Y-101530447D01*
X123736132Y-101596769D01*
X123736131Y-101596770D01*
X123724500Y-101655247D01*
X122831115Y-101655247D01*
X122821450Y-101647315D01*
X122638954Y-101549768D01*
X122440934Y-101489700D01*
X122440932Y-101489699D01*
X122440934Y-101489699D01*
X122235000Y-101469417D01*
X122029067Y-101489699D01*
X121831043Y-101549769D01*
X121748257Y-101594020D01*
X121648550Y-101647315D01*
X121648548Y-101647316D01*
X121648547Y-101647317D01*
X121488589Y-101778589D01*
X121357317Y-101938547D01*
X121357315Y-101938550D01*
X121318643Y-102010898D01*
X121259769Y-102121043D01*
X121199699Y-102319067D01*
X121179417Y-102525000D01*
X120300500Y-102525000D01*
X120300500Y-97194999D01*
X120904364Y-97194999D01*
X120904364Y-97195000D01*
X121801988Y-97195000D01*
X121769075Y-97252007D01*
X121735000Y-97379174D01*
X121735000Y-97510826D01*
X121769075Y-97637993D01*
X121801988Y-97695000D01*
X120904364Y-97695000D01*
X120961567Y-97908486D01*
X120961570Y-97908492D01*
X121061399Y-98122578D01*
X121196894Y-98316082D01*
X121363917Y-98483105D01*
X121557421Y-98618600D01*
X121771507Y-98718429D01*
X121771516Y-98718433D01*
X121893649Y-98751158D01*
X121953310Y-98787523D01*
X121983839Y-98850369D01*
X121975545Y-98919745D01*
X121931059Y-98973623D01*
X121897552Y-98989593D01*
X121831046Y-99009767D01*
X121722475Y-99067801D01*
X121648550Y-99107315D01*
X121648548Y-99107316D01*
X121648547Y-99107317D01*
X121488589Y-99238589D01*
X121357317Y-99398547D01*
X121357315Y-99398550D01*
X121332401Y-99445161D01*
X121259769Y-99581043D01*
X121199699Y-99779067D01*
X121179417Y-99985000D01*
X121199699Y-100190932D01*
X121220514Y-100259551D01*
X121259768Y-100388954D01*
X121357315Y-100571450D01*
X121357317Y-100571452D01*
X121488589Y-100731410D01*
X121575823Y-100803000D01*
X121648550Y-100862685D01*
X121831046Y-100960232D01*
X122029066Y-101020300D01*
X122029065Y-101020300D01*
X122047529Y-101022118D01*
X122235000Y-101040583D01*
X122440934Y-101020300D01*
X122638954Y-100960232D01*
X122821450Y-100862685D01*
X122981410Y-100731410D01*
X123112685Y-100571450D01*
X123210232Y-100388954D01*
X123270300Y-100190934D01*
X123290583Y-99985000D01*
X123719417Y-99985000D01*
X123739699Y-100190932D01*
X123760514Y-100259551D01*
X123799768Y-100388954D01*
X123897315Y-100571450D01*
X123897317Y-100571452D01*
X124028589Y-100731410D01*
X124115823Y-100803000D01*
X124188550Y-100862685D01*
X124371046Y-100960232D01*
X124569066Y-101020300D01*
X124569065Y-101020300D01*
X124587529Y-101022118D01*
X124775000Y-101040583D01*
X124980934Y-101020300D01*
X125178954Y-100960232D01*
X125361450Y-100862685D01*
X125521410Y-100731410D01*
X125652685Y-100571450D01*
X125750232Y-100388954D01*
X125810300Y-100190934D01*
X125830583Y-99985000D01*
X125810300Y-99779066D01*
X125750232Y-99581046D01*
X125706911Y-99499998D01*
X126894318Y-99499998D01*
X126894318Y-99500001D01*
X126914955Y-99656760D01*
X126914956Y-99656762D01*
X126975464Y-99802841D01*
X127071718Y-99928282D01*
X127197159Y-100024536D01*
X127343238Y-100085044D01*
X127380488Y-100089948D01*
X127499999Y-100105682D01*
X127500000Y-100105682D01*
X127500001Y-100105682D01*
X127589873Y-100093850D01*
X127656762Y-100085044D01*
X127802841Y-100024536D01*
X127928282Y-99928282D01*
X128024536Y-99802841D01*
X128085044Y-99656762D01*
X128105682Y-99500000D01*
X128085044Y-99343238D01*
X128024536Y-99197159D01*
X127928282Y-99071718D01*
X127802841Y-98975464D01*
X127798396Y-98973623D01*
X127656762Y-98914956D01*
X127656760Y-98914955D01*
X127500001Y-98894318D01*
X127499999Y-98894318D01*
X127343239Y-98914955D01*
X127343237Y-98914956D01*
X127197160Y-98975463D01*
X127071718Y-99071718D01*
X126975463Y-99197160D01*
X126914956Y-99343237D01*
X126914955Y-99343239D01*
X126894318Y-99499998D01*
X125706911Y-99499998D01*
X125652685Y-99398550D01*
X125570074Y-99297887D01*
X125521410Y-99238589D01*
X125361452Y-99107317D01*
X125361453Y-99107317D01*
X125361450Y-99107315D01*
X125178954Y-99009768D01*
X124980934Y-98949700D01*
X124980932Y-98949699D01*
X124980934Y-98949699D01*
X124775000Y-98929417D01*
X124569067Y-98949699D01*
X124432504Y-98991125D01*
X124371050Y-99009767D01*
X124371043Y-99009769D01*
X124262480Y-99067798D01*
X124188550Y-99107315D01*
X124188548Y-99107316D01*
X124188547Y-99107317D01*
X124028589Y-99238589D01*
X123897317Y-99398547D01*
X123897315Y-99398550D01*
X123872401Y-99445161D01*
X123799769Y-99581043D01*
X123739699Y-99779067D01*
X123719417Y-99985000D01*
X123290583Y-99985000D01*
X123270300Y-99779066D01*
X123210232Y-99581046D01*
X123112685Y-99398550D01*
X123030074Y-99297887D01*
X122981410Y-99238589D01*
X122821452Y-99107317D01*
X122821453Y-99107317D01*
X122821450Y-99107315D01*
X122638954Y-99009768D01*
X122572447Y-98989593D01*
X122514009Y-98951296D01*
X122485553Y-98887484D01*
X122496113Y-98818417D01*
X122542337Y-98766023D01*
X122576350Y-98751158D01*
X122698483Y-98718433D01*
X122698492Y-98718429D01*
X122912578Y-98618600D01*
X123106082Y-98483105D01*
X123273105Y-98316082D01*
X123408600Y-98122578D01*
X123508429Y-97908492D01*
X123508433Y-97908483D01*
X123541158Y-97786350D01*
X123577522Y-97726690D01*
X123640369Y-97696160D01*
X123709745Y-97704454D01*
X123763623Y-97748939D01*
X123779593Y-97782447D01*
X123799768Y-97848954D01*
X123897315Y-98031450D01*
X123897317Y-98031452D01*
X124028589Y-98191410D01*
X124097302Y-98247800D01*
X124188550Y-98322685D01*
X124371046Y-98420232D01*
X124569066Y-98480300D01*
X124569065Y-98480300D01*
X124587529Y-98482118D01*
X124775000Y-98500583D01*
X124980934Y-98480300D01*
X125178954Y-98420232D01*
X125361450Y-98322685D01*
X125521410Y-98191410D01*
X125652685Y-98031450D01*
X125669498Y-97999996D01*
X135194435Y-97999996D01*
X135194435Y-98000003D01*
X135214630Y-98179249D01*
X135214631Y-98179254D01*
X135274211Y-98349523D01*
X135356384Y-98480300D01*
X135370184Y-98502262D01*
X135497738Y-98629816D01*
X135588080Y-98686582D01*
X135638764Y-98718429D01*
X135650478Y-98725789D01*
X135820745Y-98785368D01*
X135820750Y-98785369D01*
X135999996Y-98805565D01*
X136000000Y-98805565D01*
X136000004Y-98805565D01*
X136179249Y-98785369D01*
X136179252Y-98785368D01*
X136179255Y-98785368D01*
X136349522Y-98725789D01*
X136502262Y-98629816D01*
X136629816Y-98502262D01*
X136725789Y-98349522D01*
X136785368Y-98179255D01*
X136785369Y-98179249D01*
X136805565Y-98000003D01*
X136805565Y-97999996D01*
X136785369Y-97820750D01*
X136785368Y-97820745D01*
X136771967Y-97782448D01*
X136725789Y-97650478D01*
X136629816Y-97497738D01*
X136502262Y-97370184D01*
X136349523Y-97274211D01*
X136179254Y-97214631D01*
X136179249Y-97214630D01*
X136160344Y-97212500D01*
X141399417Y-97212500D01*
X141419699Y-97418432D01*
X141441867Y-97491510D01*
X141479768Y-97616454D01*
X141577315Y-97798950D01*
X141595202Y-97820745D01*
X141708589Y-97958910D01*
X141758662Y-98000003D01*
X141868550Y-98090185D01*
X142051046Y-98187732D01*
X142249066Y-98247800D01*
X142249065Y-98247800D01*
X142267529Y-98249618D01*
X142455000Y-98268083D01*
X142660934Y-98247800D01*
X142858954Y-98187732D01*
X143041450Y-98090185D01*
X143201410Y-97958910D01*
X143332685Y-97798950D01*
X143430232Y-97616454D01*
X143450406Y-97549946D01*
X143488702Y-97491510D01*
X143552514Y-97463053D01*
X143621581Y-97473612D01*
X143673975Y-97519836D01*
X143688841Y-97553849D01*
X143721567Y-97675986D01*
X143721570Y-97675992D01*
X143821400Y-97890079D01*
X143821402Y-97890083D01*
X143880072Y-97973873D01*
X143880073Y-97973873D01*
X144512037Y-97341909D01*
X144529075Y-97405493D01*
X144594901Y-97519507D01*
X144687993Y-97612599D01*
X144802007Y-97678425D01*
X144865590Y-97695462D01*
X144233625Y-98327425D01*
X144310031Y-98380925D01*
X144353655Y-98435502D01*
X144360848Y-98505001D01*
X144329326Y-98567355D01*
X144310029Y-98584076D01*
X144233625Y-98637572D01*
X144865590Y-99269537D01*
X144802007Y-99286575D01*
X144687993Y-99352401D01*
X144594901Y-99445493D01*
X144529075Y-99559507D01*
X144512037Y-99623090D01*
X143880072Y-98991125D01*
X143821401Y-99074919D01*
X143741882Y-99245448D01*
X143695709Y-99297887D01*
X143628516Y-99317039D01*
X143561635Y-99296823D01*
X143516300Y-99243658D01*
X143505500Y-99193043D01*
X143505500Y-99098230D01*
X143502646Y-99067800D01*
X143502646Y-99067798D01*
X143457793Y-98939619D01*
X143457792Y-98939617D01*
X143443126Y-98919745D01*
X143377150Y-98830350D01*
X143267882Y-98749707D01*
X143267880Y-98749706D01*
X143139700Y-98704853D01*
X143109270Y-98702000D01*
X143109266Y-98702000D01*
X141800734Y-98702000D01*
X141800730Y-98702000D01*
X141770300Y-98704853D01*
X141770298Y-98704853D01*
X141642119Y-98749706D01*
X141642117Y-98749707D01*
X141532850Y-98830350D01*
X141452207Y-98939617D01*
X141452206Y-98939619D01*
X141407353Y-99067798D01*
X141407353Y-99067800D01*
X141404500Y-99098230D01*
X141404500Y-100406769D01*
X141407353Y-100437199D01*
X141407353Y-100437201D01*
X141452206Y-100565380D01*
X141452207Y-100565382D01*
X141532850Y-100674650D01*
X141642118Y-100755293D01*
X141684845Y-100770244D01*
X141770299Y-100800146D01*
X141800730Y-100803000D01*
X141800734Y-100803000D01*
X143109270Y-100803000D01*
X143139699Y-100800146D01*
X143139701Y-100800146D01*
X143203790Y-100777719D01*
X143267882Y-100755293D01*
X143377150Y-100674650D01*
X143457793Y-100565382D01*
X143481052Y-100498910D01*
X143502646Y-100437201D01*
X143502646Y-100437199D01*
X143505500Y-100406769D01*
X143505500Y-100311956D01*
X143525185Y-100244917D01*
X143577989Y-100199162D01*
X143647147Y-100189218D01*
X143710703Y-100218243D01*
X143741882Y-100259551D01*
X143821399Y-100430077D01*
X143821402Y-100430083D01*
X143880072Y-100513873D01*
X143880073Y-100513873D01*
X144512037Y-99881909D01*
X144529075Y-99945493D01*
X144594901Y-100059507D01*
X144687993Y-100152599D01*
X144802007Y-100218425D01*
X144865590Y-100235462D01*
X144233625Y-100867425D01*
X144317421Y-100926099D01*
X144531507Y-101025929D01*
X144531516Y-101025933D01*
X144759673Y-101087067D01*
X144759684Y-101087069D01*
X144994998Y-101107657D01*
X144995002Y-101107657D01*
X145230315Y-101087069D01*
X145230326Y-101087067D01*
X145458483Y-101025933D01*
X145458492Y-101025929D01*
X145672578Y-100926100D01*
X145672582Y-100926098D01*
X145756373Y-100867426D01*
X145756373Y-100867425D01*
X145124409Y-100235462D01*
X145187993Y-100218425D01*
X145302007Y-100152599D01*
X145395099Y-100059507D01*
X145460925Y-99945493D01*
X145477962Y-99881910D01*
X146109925Y-100513873D01*
X146109926Y-100513873D01*
X146168598Y-100430082D01*
X146168601Y-100430077D01*
X146268429Y-100215992D01*
X146268433Y-100215983D01*
X146301158Y-100093850D01*
X146337522Y-100034190D01*
X146400369Y-100003660D01*
X146469745Y-100011954D01*
X146523623Y-100056439D01*
X146539593Y-100089947D01*
X146559768Y-100156454D01*
X146657315Y-100338950D01*
X146657317Y-100338952D01*
X146788589Y-100498910D01*
X146869584Y-100565380D01*
X146948550Y-100630185D01*
X147131046Y-100727732D01*
X147329066Y-100787800D01*
X147329065Y-100787800D01*
X147347529Y-100789618D01*
X147535000Y-100808083D01*
X147740934Y-100787800D01*
X147938954Y-100727732D01*
X148121450Y-100630185D01*
X148281410Y-100498910D01*
X148412685Y-100338950D01*
X148510232Y-100156454D01*
X148570300Y-99958434D01*
X148590583Y-99752500D01*
X148570300Y-99546566D01*
X148510232Y-99348546D01*
X148412685Y-99166050D01*
X148357027Y-99098230D01*
X148281410Y-99006089D01*
X148163677Y-98909469D01*
X148121450Y-98874815D01*
X147938954Y-98777268D01*
X147740934Y-98717200D01*
X147740932Y-98717199D01*
X147740934Y-98717199D01*
X147535000Y-98696917D01*
X147329067Y-98717199D01*
X147131043Y-98777269D01*
X147054062Y-98818417D01*
X146948550Y-98874815D01*
X146948548Y-98874816D01*
X146948547Y-98874817D01*
X146788589Y-99006089D01*
X146657317Y-99166047D01*
X146559767Y-99348546D01*
X146539593Y-99415052D01*
X146501296Y-99473490D01*
X146437483Y-99501947D01*
X146368416Y-99491386D01*
X146316023Y-99445161D01*
X146301158Y-99411149D01*
X146268433Y-99289016D01*
X146268429Y-99289007D01*
X146168600Y-99074923D01*
X146168599Y-99074921D01*
X146109925Y-98991126D01*
X146109925Y-98991125D01*
X145477962Y-99623089D01*
X145460925Y-99559507D01*
X145395099Y-99445493D01*
X145302007Y-99352401D01*
X145187993Y-99286575D01*
X145124410Y-99269537D01*
X145756373Y-98637573D01*
X145679969Y-98584076D01*
X145636344Y-98529499D01*
X145629150Y-98460001D01*
X145660672Y-98397646D01*
X145679968Y-98380925D01*
X145756373Y-98327425D01*
X145124409Y-97695462D01*
X145187993Y-97678425D01*
X145302007Y-97612599D01*
X145395099Y-97519507D01*
X145460925Y-97405493D01*
X145477962Y-97341910D01*
X146109925Y-97973873D01*
X146109926Y-97973873D01*
X146168598Y-97890082D01*
X146168600Y-97890078D01*
X146268429Y-97675992D01*
X146268433Y-97675983D01*
X146301158Y-97553850D01*
X146337522Y-97494190D01*
X146400369Y-97463660D01*
X146469745Y-97471954D01*
X146523623Y-97516439D01*
X146539593Y-97549947D01*
X146559768Y-97616454D01*
X146657315Y-97798950D01*
X146675202Y-97820745D01*
X146788589Y-97958910D01*
X146838662Y-98000003D01*
X146948550Y-98090185D01*
X147131046Y-98187732D01*
X147329066Y-98247800D01*
X147329065Y-98247800D01*
X147347529Y-98249618D01*
X147535000Y-98268083D01*
X147740934Y-98247800D01*
X147938954Y-98187732D01*
X148121450Y-98090185D01*
X148231344Y-97999998D01*
X160394318Y-97999998D01*
X160394318Y-98000001D01*
X160414955Y-98156760D01*
X160414956Y-98156762D01*
X160424272Y-98179254D01*
X160475464Y-98302841D01*
X160571718Y-98428282D01*
X160697159Y-98524536D01*
X160843238Y-98585044D01*
X160921619Y-98595363D01*
X160999999Y-98605682D01*
X161000000Y-98605682D01*
X161000001Y-98605682D01*
X161052254Y-98598802D01*
X161156762Y-98585044D01*
X161302841Y-98524536D01*
X161424515Y-98431171D01*
X161489683Y-98405979D01*
X161558127Y-98420017D01*
X161575478Y-98431167D01*
X161697159Y-98524536D01*
X161843238Y-98585044D01*
X161921619Y-98595363D01*
X161999999Y-98605682D01*
X162000000Y-98605682D01*
X162000001Y-98605682D01*
X162052254Y-98598802D01*
X162156762Y-98585044D01*
X162302841Y-98524536D01*
X162428282Y-98428282D01*
X162524536Y-98302841D01*
X162585044Y-98156762D01*
X162605682Y-98000000D01*
X162605681Y-97999996D01*
X162585797Y-97848956D01*
X162585044Y-97843238D01*
X162524536Y-97697159D01*
X162428282Y-97571718D01*
X162334814Y-97499998D01*
X162894318Y-97499998D01*
X162894318Y-97500001D01*
X162914955Y-97656760D01*
X162914956Y-97656762D01*
X162975464Y-97802841D01*
X163071718Y-97928282D01*
X163197159Y-98024536D01*
X163343238Y-98085044D01*
X163382288Y-98090185D01*
X163499999Y-98105682D01*
X163500000Y-98105682D01*
X163500001Y-98105682D01*
X163552254Y-98098802D01*
X163656762Y-98085044D01*
X163802841Y-98024536D01*
X163928282Y-97928282D01*
X164024536Y-97802841D01*
X164085044Y-97656762D01*
X164105682Y-97500000D01*
X164104564Y-97491510D01*
X164085044Y-97343239D01*
X164085044Y-97343238D01*
X164024536Y-97197159D01*
X163928282Y-97071718D01*
X163802841Y-96975464D01*
X163768740Y-96961339D01*
X163656762Y-96914956D01*
X163656760Y-96914955D01*
X163500001Y-96894318D01*
X163499999Y-96894318D01*
X163343239Y-96914955D01*
X163343237Y-96914956D01*
X163197160Y-96975463D01*
X163071718Y-97071718D01*
X162975463Y-97197160D01*
X162914956Y-97343237D01*
X162914955Y-97343239D01*
X162894318Y-97499998D01*
X162334814Y-97499998D01*
X162302841Y-97475464D01*
X162294367Y-97471954D01*
X162156762Y-97414956D01*
X162156760Y-97414955D01*
X162000001Y-97394318D01*
X161999999Y-97394318D01*
X161843239Y-97414955D01*
X161843237Y-97414956D01*
X161697157Y-97475464D01*
X161575486Y-97568826D01*
X161510317Y-97594020D01*
X161441872Y-97579981D01*
X161424514Y-97568826D01*
X161302842Y-97475464D01*
X161156762Y-97414956D01*
X161156760Y-97414955D01*
X161000001Y-97394318D01*
X160999999Y-97394318D01*
X160843239Y-97414955D01*
X160843237Y-97414956D01*
X160697160Y-97475463D01*
X160571718Y-97571718D01*
X160475463Y-97697160D01*
X160414956Y-97843237D01*
X160414955Y-97843239D01*
X160394318Y-97999998D01*
X148231344Y-97999998D01*
X148281410Y-97958910D01*
X148412685Y-97798950D01*
X148510232Y-97616454D01*
X148570300Y-97418434D01*
X148590583Y-97212500D01*
X148570300Y-97006566D01*
X148510232Y-96808546D01*
X148412685Y-96626050D01*
X148360702Y-96562709D01*
X148309238Y-96499998D01*
X149394318Y-96499998D01*
X149394318Y-96500001D01*
X149414955Y-96656760D01*
X149414956Y-96656762D01*
X149475464Y-96802841D01*
X149571718Y-96928282D01*
X149697159Y-97024536D01*
X149843238Y-97085044D01*
X149921619Y-97095363D01*
X149999999Y-97105682D01*
X150000000Y-97105682D01*
X150000001Y-97105682D01*
X150052254Y-97098802D01*
X150156762Y-97085044D01*
X150302841Y-97024536D01*
X150428282Y-96928282D01*
X150524536Y-96802841D01*
X150585044Y-96656762D01*
X150605682Y-96500000D01*
X150585044Y-96343238D01*
X150524536Y-96197159D01*
X150428282Y-96071718D01*
X150302841Y-95975464D01*
X150156762Y-95914956D01*
X150156760Y-95914955D01*
X150000001Y-95894318D01*
X149999999Y-95894318D01*
X149843239Y-95914955D01*
X149843237Y-95914956D01*
X149697160Y-95975463D01*
X149571718Y-96071718D01*
X149475463Y-96197160D01*
X149414956Y-96343237D01*
X149414955Y-96343239D01*
X149394318Y-96499998D01*
X148309238Y-96499998D01*
X148281410Y-96466089D01*
X148163677Y-96369469D01*
X148121450Y-96334815D01*
X147938954Y-96237268D01*
X147740934Y-96177200D01*
X147740932Y-96177199D01*
X147740934Y-96177199D01*
X147535000Y-96156917D01*
X147329067Y-96177199D01*
X147131043Y-96237269D01*
X147067190Y-96271400D01*
X146948550Y-96334815D01*
X146948548Y-96334816D01*
X146948547Y-96334817D01*
X146788589Y-96466089D01*
X146657317Y-96626047D01*
X146559767Y-96808546D01*
X146539593Y-96875052D01*
X146501296Y-96933490D01*
X146437483Y-96961947D01*
X146368416Y-96951386D01*
X146316023Y-96905161D01*
X146301158Y-96871149D01*
X146268433Y-96749016D01*
X146268429Y-96749007D01*
X146168600Y-96534923D01*
X146168599Y-96534921D01*
X146109925Y-96451126D01*
X146109925Y-96451125D01*
X145477962Y-97083089D01*
X145460925Y-97019507D01*
X145395099Y-96905493D01*
X145302007Y-96812401D01*
X145187993Y-96746575D01*
X145124410Y-96729537D01*
X145756373Y-96097573D01*
X145756373Y-96097572D01*
X145672583Y-96038902D01*
X145672579Y-96038900D01*
X145458492Y-95939070D01*
X145458483Y-95939066D01*
X145230326Y-95877932D01*
X145230315Y-95877930D01*
X144995002Y-95857343D01*
X144994998Y-95857343D01*
X144759684Y-95877930D01*
X144759673Y-95877932D01*
X144531516Y-95939066D01*
X144531507Y-95939070D01*
X144317419Y-96038901D01*
X144233625Y-96097572D01*
X144865590Y-96729537D01*
X144802007Y-96746575D01*
X144687993Y-96812401D01*
X144594901Y-96905493D01*
X144529075Y-97019507D01*
X144512037Y-97083090D01*
X143880072Y-96451125D01*
X143821401Y-96534919D01*
X143721570Y-96749007D01*
X143721567Y-96749014D01*
X143688841Y-96871150D01*
X143652476Y-96930810D01*
X143589629Y-96961339D01*
X143520253Y-96953044D01*
X143466375Y-96908559D01*
X143450406Y-96875052D01*
X143430232Y-96808546D01*
X143332685Y-96626050D01*
X143280702Y-96562709D01*
X143201410Y-96466089D01*
X143083677Y-96369469D01*
X143041450Y-96334815D01*
X142858954Y-96237268D01*
X142660934Y-96177200D01*
X142660932Y-96177199D01*
X142660934Y-96177199D01*
X142455000Y-96156917D01*
X142249067Y-96177199D01*
X142051043Y-96237269D01*
X141987190Y-96271400D01*
X141868550Y-96334815D01*
X141868548Y-96334816D01*
X141868547Y-96334817D01*
X141708589Y-96466089D01*
X141577317Y-96626047D01*
X141479769Y-96808543D01*
X141419699Y-97006567D01*
X141399417Y-97212500D01*
X136160344Y-97212500D01*
X136000004Y-97194435D01*
X135999996Y-97194435D01*
X135820750Y-97214630D01*
X135820745Y-97214631D01*
X135650476Y-97274211D01*
X135497737Y-97370184D01*
X135370184Y-97497737D01*
X135274211Y-97650476D01*
X135214631Y-97820745D01*
X135214630Y-97820750D01*
X135194435Y-97999996D01*
X125669498Y-97999996D01*
X125750232Y-97848954D01*
X125810300Y-97650934D01*
X125830583Y-97445000D01*
X125810300Y-97239066D01*
X125750232Y-97041046D01*
X125652685Y-96858550D01*
X125577897Y-96767420D01*
X125521410Y-96698589D01*
X125403677Y-96601969D01*
X125361450Y-96567315D01*
X125235510Y-96499998D01*
X138394318Y-96499998D01*
X138394318Y-96500001D01*
X138414955Y-96656760D01*
X138414956Y-96656762D01*
X138475464Y-96802841D01*
X138571718Y-96928282D01*
X138697159Y-97024536D01*
X138843238Y-97085044D01*
X138921619Y-97095363D01*
X138999999Y-97105682D01*
X139000000Y-97105682D01*
X139000001Y-97105682D01*
X139052254Y-97098802D01*
X139156762Y-97085044D01*
X139302841Y-97024536D01*
X139428282Y-96928282D01*
X139524536Y-96802841D01*
X139585044Y-96656762D01*
X139605682Y-96500000D01*
X139585044Y-96343238D01*
X139524536Y-96197159D01*
X139428282Y-96071718D01*
X139302841Y-95975464D01*
X139156762Y-95914956D01*
X139156760Y-95914955D01*
X139000001Y-95894318D01*
X138999999Y-95894318D01*
X138843239Y-95914955D01*
X138843237Y-95914956D01*
X138697160Y-95975463D01*
X138571718Y-96071718D01*
X138475463Y-96197160D01*
X138414956Y-96343237D01*
X138414955Y-96343239D01*
X138394318Y-96499998D01*
X125235510Y-96499998D01*
X125178954Y-96469768D01*
X124980934Y-96409700D01*
X124980932Y-96409699D01*
X124980934Y-96409699D01*
X124775000Y-96389417D01*
X124569067Y-96409699D01*
X124371043Y-96469769D01*
X124260898Y-96528643D01*
X124188550Y-96567315D01*
X124188548Y-96567316D01*
X124188547Y-96567317D01*
X124028589Y-96698589D01*
X123897317Y-96858547D01*
X123897315Y-96858550D01*
X123872401Y-96905161D01*
X123799767Y-97041046D01*
X123779593Y-97107552D01*
X123741296Y-97165990D01*
X123677483Y-97194447D01*
X123608416Y-97183886D01*
X123556023Y-97137661D01*
X123541158Y-97103649D01*
X123508433Y-96981516D01*
X123508429Y-96981507D01*
X123408600Y-96767422D01*
X123408599Y-96767420D01*
X123273113Y-96573926D01*
X123273108Y-96573920D01*
X123106082Y-96406894D01*
X122912578Y-96271399D01*
X122698492Y-96171570D01*
X122698486Y-96171567D01*
X122485000Y-96114364D01*
X122485000Y-97011988D01*
X122427993Y-96979075D01*
X122300826Y-96945000D01*
X122169174Y-96945000D01*
X122042007Y-96979075D01*
X121985000Y-97011988D01*
X121985000Y-96114364D01*
X121984999Y-96114364D01*
X121771513Y-96171567D01*
X121771507Y-96171570D01*
X121557422Y-96271399D01*
X121557420Y-96271400D01*
X121363926Y-96406886D01*
X121363920Y-96406891D01*
X121196891Y-96573920D01*
X121196886Y-96573926D01*
X121061400Y-96767420D01*
X121061399Y-96767422D01*
X120961570Y-96981507D01*
X120961567Y-96981513D01*
X120904364Y-97194999D01*
X120300500Y-97194999D01*
X120300500Y-93999998D01*
X139394318Y-93999998D01*
X139394318Y-94000001D01*
X139414955Y-94156760D01*
X139414956Y-94156762D01*
X139450775Y-94243238D01*
X139475464Y-94302841D01*
X139571718Y-94428282D01*
X139697159Y-94524536D01*
X139843238Y-94585044D01*
X139921619Y-94595363D01*
X139999999Y-94605682D01*
X140000000Y-94605682D01*
X140000001Y-94605682D01*
X140052254Y-94598802D01*
X140156762Y-94585044D01*
X140302841Y-94524536D01*
X140428282Y-94428282D01*
X140449985Y-94399998D01*
X146394318Y-94399998D01*
X146394318Y-94400001D01*
X146414955Y-94556760D01*
X146414956Y-94556762D01*
X146456376Y-94656760D01*
X146475464Y-94702841D01*
X146571718Y-94828282D01*
X146697159Y-94924536D01*
X146843238Y-94985044D01*
X146921619Y-94995363D01*
X146999999Y-95005682D01*
X147000000Y-95005682D01*
X147000001Y-95005682D01*
X147052254Y-94998802D01*
X147156762Y-94985044D01*
X147302841Y-94924536D01*
X147428282Y-94828282D01*
X147524536Y-94702841D01*
X147585044Y-94556762D01*
X147592517Y-94499998D01*
X150394318Y-94499998D01*
X150394318Y-94500001D01*
X150414955Y-94656760D01*
X150414956Y-94656762D01*
X150475464Y-94802841D01*
X150571718Y-94928282D01*
X150697159Y-95024536D01*
X150843238Y-95085044D01*
X150921619Y-95095363D01*
X150999999Y-95105682D01*
X151000000Y-95105682D01*
X151000001Y-95105682D01*
X151052254Y-95098802D01*
X151156762Y-95085044D01*
X151302841Y-95024536D01*
X151428282Y-94928282D01*
X151524536Y-94802841D01*
X151585044Y-94656762D01*
X151605682Y-94500000D01*
X151585044Y-94343238D01*
X151524536Y-94197159D01*
X151428282Y-94071718D01*
X151302841Y-93975464D01*
X151293797Y-93971718D01*
X151156762Y-93914956D01*
X151156760Y-93914955D01*
X151000001Y-93894318D01*
X150999999Y-93894318D01*
X150843239Y-93914955D01*
X150843237Y-93914956D01*
X150697160Y-93975463D01*
X150571718Y-94071718D01*
X150475463Y-94197160D01*
X150414956Y-94343237D01*
X150414955Y-94343239D01*
X150394318Y-94499998D01*
X147592517Y-94499998D01*
X147605682Y-94400000D01*
X147585044Y-94243238D01*
X147524536Y-94097159D01*
X147428282Y-93971718D01*
X147302841Y-93875464D01*
X147156762Y-93814956D01*
X147156760Y-93814955D01*
X147000001Y-93794318D01*
X146999999Y-93794318D01*
X146843239Y-93814955D01*
X146843237Y-93814956D01*
X146697160Y-93875463D01*
X146571718Y-93971718D01*
X146475463Y-94097160D01*
X146414956Y-94243237D01*
X146414955Y-94243239D01*
X146394318Y-94399998D01*
X140449985Y-94399998D01*
X140524536Y-94302841D01*
X140585044Y-94156762D01*
X140605682Y-94000000D01*
X140585044Y-93843238D01*
X140524536Y-93697159D01*
X140428282Y-93571718D01*
X140334814Y-93499998D01*
X141394318Y-93499998D01*
X141394318Y-93500001D01*
X141414955Y-93656760D01*
X141414956Y-93656762D01*
X141471933Y-93794318D01*
X141475464Y-93802841D01*
X141571718Y-93928282D01*
X141697159Y-94024536D01*
X141843238Y-94085044D01*
X141921619Y-94095363D01*
X141999999Y-94105682D01*
X142000000Y-94105682D01*
X142000001Y-94105682D01*
X142064739Y-94097159D01*
X142156762Y-94085044D01*
X142302841Y-94024536D01*
X142428282Y-93928282D01*
X142524536Y-93802841D01*
X142585044Y-93656762D01*
X142605682Y-93500000D01*
X142585044Y-93343238D01*
X142524536Y-93197159D01*
X142428282Y-93071718D01*
X142334812Y-92999996D01*
X151694435Y-92999996D01*
X151694435Y-93000003D01*
X151714630Y-93179249D01*
X151714631Y-93179254D01*
X151774211Y-93349523D01*
X151802358Y-93394318D01*
X151870184Y-93502262D01*
X151997738Y-93629816D01*
X152150478Y-93725789D01*
X152320745Y-93785368D01*
X152320750Y-93785369D01*
X152499996Y-93805565D01*
X152500000Y-93805565D01*
X152500004Y-93805565D01*
X152679249Y-93785369D01*
X152679252Y-93785368D01*
X152679255Y-93785368D01*
X152849522Y-93725789D01*
X153002262Y-93629816D01*
X153129816Y-93502262D01*
X153225789Y-93349522D01*
X153285368Y-93179255D01*
X153295983Y-93085043D01*
X153305565Y-93000003D01*
X153305565Y-92999996D01*
X153285369Y-92820750D01*
X153285368Y-92820745D01*
X153225788Y-92650476D01*
X153131236Y-92499998D01*
X156894318Y-92499998D01*
X156894318Y-92500001D01*
X156914955Y-92656760D01*
X156914956Y-92656762D01*
X156975464Y-92802841D01*
X157071718Y-92928282D01*
X157197159Y-93024536D01*
X157343238Y-93085044D01*
X157421619Y-93095363D01*
X157499999Y-93105682D01*
X157500000Y-93105682D01*
X157500001Y-93105682D01*
X157552254Y-93098802D01*
X157656762Y-93085044D01*
X157802841Y-93024536D01*
X157928282Y-92928282D01*
X158024536Y-92802841D01*
X158085044Y-92656762D01*
X158105682Y-92500000D01*
X158085044Y-92343238D01*
X158024536Y-92197159D01*
X157928282Y-92071718D01*
X157802841Y-91975464D01*
X157656762Y-91914956D01*
X157656760Y-91914955D01*
X157500001Y-91894318D01*
X157499999Y-91894318D01*
X157343239Y-91914955D01*
X157343237Y-91914956D01*
X157197160Y-91975463D01*
X157071718Y-92071718D01*
X156975463Y-92197160D01*
X156914956Y-92343237D01*
X156914955Y-92343239D01*
X156894318Y-92499998D01*
X153131236Y-92499998D01*
X153129815Y-92497737D01*
X153002262Y-92370184D01*
X152849523Y-92274211D01*
X152679254Y-92214631D01*
X152679249Y-92214630D01*
X152500004Y-92194435D01*
X152499996Y-92194435D01*
X152320750Y-92214630D01*
X152320745Y-92214631D01*
X152150476Y-92274211D01*
X151997737Y-92370184D01*
X151870184Y-92497737D01*
X151774211Y-92650476D01*
X151714631Y-92820745D01*
X151714630Y-92820750D01*
X151694435Y-92999996D01*
X142334812Y-92999996D01*
X142302841Y-92975464D01*
X142156762Y-92914956D01*
X142156760Y-92914955D01*
X142000001Y-92894318D01*
X141999999Y-92894318D01*
X141843239Y-92914955D01*
X141843237Y-92914956D01*
X141697160Y-92975463D01*
X141571718Y-93071718D01*
X141475463Y-93197160D01*
X141414956Y-93343237D01*
X141414955Y-93343239D01*
X141394318Y-93499998D01*
X140334814Y-93499998D01*
X140302841Y-93475464D01*
X140156762Y-93414956D01*
X140156760Y-93414955D01*
X140000001Y-93394318D01*
X139999999Y-93394318D01*
X139843239Y-93414955D01*
X139843237Y-93414956D01*
X139697160Y-93475463D01*
X139571718Y-93571718D01*
X139475463Y-93697160D01*
X139414956Y-93843237D01*
X139414955Y-93843239D01*
X139394318Y-93999998D01*
X120300500Y-93999998D01*
X120300500Y-89872149D01*
X121549500Y-89872149D01*
X121549500Y-90127850D01*
X121553307Y-90156762D01*
X121582874Y-90381340D01*
X121637456Y-90585043D01*
X121649050Y-90628312D01*
X121649053Y-90628322D01*
X121746894Y-90864531D01*
X121746899Y-90864542D01*
X121874734Y-91085957D01*
X121874745Y-91085973D01*
X122030388Y-91288811D01*
X122030394Y-91288818D01*
X122211181Y-91469605D01*
X122211187Y-91469610D01*
X122414035Y-91625261D01*
X122414042Y-91625265D01*
X122635457Y-91753100D01*
X122635462Y-91753102D01*
X122635465Y-91753104D01*
X122871687Y-91850950D01*
X123118660Y-91917126D01*
X123372157Y-91950500D01*
X123372164Y-91950500D01*
X123627836Y-91950500D01*
X123627843Y-91950500D01*
X123881340Y-91917126D01*
X124128313Y-91850950D01*
X124364535Y-91753104D01*
X124585965Y-91625261D01*
X124788813Y-91469610D01*
X124969610Y-91288813D01*
X125125261Y-91085965D01*
X125253104Y-90864535D01*
X125350950Y-90628313D01*
X125417126Y-90381340D01*
X125450500Y-90127843D01*
X125450500Y-89999998D01*
X144894318Y-89999998D01*
X144894318Y-90000001D01*
X144914955Y-90156760D01*
X144914956Y-90156762D01*
X144975464Y-90302841D01*
X145071718Y-90428282D01*
X145197159Y-90524536D01*
X145343238Y-90585044D01*
X145421619Y-90595363D01*
X145499999Y-90605682D01*
X145500000Y-90605682D01*
X145500001Y-90605682D01*
X145552254Y-90598802D01*
X145656762Y-90585044D01*
X145802841Y-90524536D01*
X145928282Y-90428282D01*
X146024536Y-90302841D01*
X146085044Y-90156762D01*
X146105682Y-90000000D01*
X146088850Y-89872149D01*
X164549500Y-89872149D01*
X164549500Y-90127850D01*
X164553307Y-90156762D01*
X164582874Y-90381340D01*
X164637456Y-90585043D01*
X164649050Y-90628312D01*
X164649053Y-90628322D01*
X164746894Y-90864531D01*
X164746899Y-90864542D01*
X164874734Y-91085957D01*
X164874745Y-91085973D01*
X165030388Y-91288811D01*
X165030394Y-91288818D01*
X165211181Y-91469605D01*
X165211187Y-91469610D01*
X165414035Y-91625261D01*
X165414042Y-91625265D01*
X165635457Y-91753100D01*
X165635462Y-91753102D01*
X165635465Y-91753104D01*
X165871687Y-91850950D01*
X166118660Y-91917126D01*
X166372157Y-91950500D01*
X166372164Y-91950500D01*
X166627836Y-91950500D01*
X166627843Y-91950500D01*
X166881340Y-91917126D01*
X167128313Y-91850950D01*
X167364535Y-91753104D01*
X167585965Y-91625261D01*
X167788813Y-91469610D01*
X167969610Y-91288813D01*
X168125261Y-91085965D01*
X168253104Y-90864535D01*
X168350950Y-90628313D01*
X168417126Y-90381340D01*
X168450500Y-90127843D01*
X168450500Y-89872157D01*
X168417126Y-89618660D01*
X168350950Y-89371687D01*
X168253104Y-89135465D01*
X168253102Y-89135462D01*
X168253100Y-89135457D01*
X168125265Y-88914042D01*
X168125261Y-88914035D01*
X167969610Y-88711187D01*
X167969605Y-88711181D01*
X167788818Y-88530394D01*
X167788811Y-88530388D01*
X167585973Y-88374745D01*
X167585971Y-88374743D01*
X167585965Y-88374739D01*
X167585960Y-88374736D01*
X167585957Y-88374734D01*
X167364542Y-88246899D01*
X167364531Y-88246894D01*
X167128322Y-88149053D01*
X167128315Y-88149051D01*
X167128313Y-88149050D01*
X166881340Y-88082874D01*
X166825007Y-88075457D01*
X166627850Y-88049500D01*
X166627843Y-88049500D01*
X166372157Y-88049500D01*
X166372149Y-88049500D01*
X166146826Y-88079165D01*
X166118660Y-88082874D01*
X165871687Y-88149050D01*
X165871677Y-88149053D01*
X165635468Y-88246894D01*
X165635457Y-88246899D01*
X165414042Y-88374734D01*
X165414026Y-88374745D01*
X165211188Y-88530388D01*
X165211181Y-88530394D01*
X165030394Y-88711181D01*
X165030388Y-88711188D01*
X164874745Y-88914026D01*
X164874734Y-88914042D01*
X164746899Y-89135457D01*
X164746894Y-89135468D01*
X164649053Y-89371677D01*
X164649050Y-89371687D01*
X164621244Y-89475463D01*
X164582874Y-89618661D01*
X164549500Y-89872149D01*
X146088850Y-89872149D01*
X146085044Y-89843238D01*
X146024536Y-89697159D01*
X145928282Y-89571718D01*
X145802841Y-89475464D01*
X145656762Y-89414956D01*
X145656760Y-89414955D01*
X145500001Y-89394318D01*
X145499999Y-89394318D01*
X145343239Y-89414955D01*
X145343237Y-89414956D01*
X145197160Y-89475463D01*
X145071718Y-89571718D01*
X144975463Y-89697160D01*
X144914956Y-89843237D01*
X144914955Y-89843239D01*
X144894318Y-89999998D01*
X125450500Y-89999998D01*
X125450500Y-89872157D01*
X125417126Y-89618660D01*
X125350950Y-89371687D01*
X125253104Y-89135465D01*
X125253102Y-89135462D01*
X125253100Y-89135457D01*
X125125265Y-88914042D01*
X125125261Y-88914035D01*
X124969610Y-88711187D01*
X124969605Y-88711181D01*
X124788818Y-88530394D01*
X124788811Y-88530388D01*
X124585973Y-88374745D01*
X124585971Y-88374743D01*
X124585965Y-88374739D01*
X124585960Y-88374736D01*
X124585957Y-88374734D01*
X124364542Y-88246899D01*
X124364531Y-88246894D01*
X124128322Y-88149053D01*
X124128315Y-88149051D01*
X124128313Y-88149050D01*
X123881340Y-88082874D01*
X123825007Y-88075457D01*
X123627850Y-88049500D01*
X123627843Y-88049500D01*
X123372157Y-88049500D01*
X123372149Y-88049500D01*
X123146826Y-88079165D01*
X123118660Y-88082874D01*
X122871687Y-88149050D01*
X122871677Y-88149053D01*
X122635468Y-88246894D01*
X122635457Y-88246899D01*
X122414042Y-88374734D01*
X122414026Y-88374745D01*
X122211188Y-88530388D01*
X122211181Y-88530394D01*
X122030394Y-88711181D01*
X122030388Y-88711188D01*
X121874745Y-88914026D01*
X121874734Y-88914042D01*
X121746899Y-89135457D01*
X121746894Y-89135468D01*
X121649053Y-89371677D01*
X121649050Y-89371687D01*
X121621244Y-89475463D01*
X121582874Y-89618661D01*
X121549500Y-89872149D01*
X120300500Y-89872149D01*
X120300500Y-87499998D01*
X143394318Y-87499998D01*
X143394318Y-87500001D01*
X143414955Y-87656760D01*
X143414956Y-87656762D01*
X143475464Y-87802841D01*
X143571718Y-87928282D01*
X143697159Y-88024536D01*
X143843238Y-88085044D01*
X143921619Y-88095363D01*
X143999999Y-88105682D01*
X144000000Y-88105682D01*
X144000001Y-88105682D01*
X144052254Y-88098802D01*
X144156762Y-88085044D01*
X144302841Y-88024536D01*
X144428282Y-87928282D01*
X144524536Y-87802841D01*
X144585044Y-87656762D01*
X144605682Y-87500000D01*
X144585044Y-87343238D01*
X144524536Y-87197159D01*
X144428282Y-87071718D01*
X144302841Y-86975464D01*
X144156762Y-86914956D01*
X144156760Y-86914955D01*
X144000001Y-86894318D01*
X143999999Y-86894318D01*
X143843239Y-86914955D01*
X143843237Y-86914956D01*
X143697160Y-86975463D01*
X143571718Y-87071718D01*
X143475463Y-87197160D01*
X143414956Y-87343237D01*
X143414955Y-87343239D01*
X143394318Y-87499998D01*
X120300500Y-87499998D01*
X120300500Y-84999998D01*
X144894318Y-84999998D01*
X144894318Y-85000001D01*
X144914955Y-85156760D01*
X144914956Y-85156762D01*
X144943547Y-85225788D01*
X144975464Y-85302841D01*
X145071718Y-85428282D01*
X145197159Y-85524536D01*
X145343238Y-85585044D01*
X145421619Y-85595363D01*
X145499999Y-85605682D01*
X145500000Y-85605682D01*
X145500001Y-85605682D01*
X145552254Y-85598802D01*
X145656762Y-85585044D01*
X145802841Y-85524536D01*
X145928282Y-85428282D01*
X146024536Y-85302841D01*
X146085044Y-85156762D01*
X146105682Y-85000000D01*
X146105682Y-84999998D01*
X146394318Y-84999998D01*
X146394318Y-85000001D01*
X146414955Y-85156760D01*
X146414956Y-85156762D01*
X146443547Y-85225788D01*
X146475464Y-85302841D01*
X146571718Y-85428282D01*
X146697159Y-85524536D01*
X146843238Y-85585044D01*
X146921619Y-85595363D01*
X146999999Y-85605682D01*
X147000000Y-85605682D01*
X147000001Y-85605682D01*
X147052254Y-85598802D01*
X147156762Y-85585044D01*
X147302841Y-85524536D01*
X147428282Y-85428282D01*
X147524536Y-85302841D01*
X147585044Y-85156762D01*
X147605682Y-85000000D01*
X147585044Y-84843238D01*
X147524536Y-84697159D01*
X147428282Y-84571718D01*
X147302841Y-84475464D01*
X147156762Y-84414956D01*
X147156760Y-84414955D01*
X147000001Y-84394318D01*
X146999999Y-84394318D01*
X146843239Y-84414955D01*
X146843237Y-84414956D01*
X146697160Y-84475463D01*
X146571718Y-84571718D01*
X146475463Y-84697160D01*
X146414956Y-84843237D01*
X146414955Y-84843239D01*
X146394318Y-84999998D01*
X146105682Y-84999998D01*
X146085044Y-84843238D01*
X146024536Y-84697159D01*
X145928282Y-84571718D01*
X145802841Y-84475464D01*
X145656762Y-84414956D01*
X145656760Y-84414955D01*
X145500001Y-84394318D01*
X145499999Y-84394318D01*
X145343239Y-84414955D01*
X145343237Y-84414956D01*
X145197160Y-84475463D01*
X145071718Y-84571718D01*
X144975463Y-84697160D01*
X144914956Y-84843237D01*
X144914955Y-84843239D01*
X144894318Y-84999998D01*
X120300500Y-84999998D01*
X120300500Y-83999998D01*
X120894318Y-83999998D01*
X120894318Y-84000001D01*
X120914955Y-84156760D01*
X120914956Y-84156762D01*
X120975464Y-84302841D01*
X121071718Y-84428282D01*
X121197159Y-84524536D01*
X121343238Y-84585044D01*
X121421619Y-84595363D01*
X121499999Y-84605682D01*
X121500000Y-84605682D01*
X121500001Y-84605682D01*
X121552254Y-84598802D01*
X121656762Y-84585044D01*
X121802841Y-84524536D01*
X121928282Y-84428282D01*
X122024536Y-84302841D01*
X122085044Y-84156762D01*
X122105682Y-84000000D01*
X122085044Y-83843238D01*
X122024536Y-83697159D01*
X121928282Y-83571718D01*
X121802841Y-83475464D01*
X121656762Y-83414956D01*
X121656760Y-83414955D01*
X121500001Y-83394318D01*
X121499999Y-83394318D01*
X121343239Y-83414955D01*
X121343237Y-83414956D01*
X121197160Y-83475463D01*
X121071718Y-83571718D01*
X120975463Y-83697160D01*
X120914956Y-83843237D01*
X120914955Y-83843239D01*
X120894318Y-83999998D01*
X120300500Y-83999998D01*
X120300500Y-82499998D01*
X122394318Y-82499998D01*
X122394318Y-82500001D01*
X122414955Y-82656760D01*
X122414956Y-82656762D01*
X122443547Y-82725788D01*
X122475464Y-82802841D01*
X122571718Y-82928282D01*
X122697159Y-83024536D01*
X122843238Y-83085044D01*
X122921619Y-83095363D01*
X122999999Y-83105682D01*
X123000000Y-83105682D01*
X123000001Y-83105682D01*
X123052254Y-83098802D01*
X123156762Y-83085044D01*
X123302841Y-83024536D01*
X123334822Y-82999996D01*
X135194435Y-82999996D01*
X135194435Y-83000003D01*
X135214630Y-83179249D01*
X135214631Y-83179254D01*
X135274211Y-83349523D01*
X135323699Y-83428282D01*
X135370184Y-83502262D01*
X135497738Y-83629816D01*
X135650478Y-83725789D01*
X135788860Y-83774211D01*
X135820745Y-83785368D01*
X135820750Y-83785369D01*
X135999996Y-83805565D01*
X136000000Y-83805565D01*
X136000004Y-83805565D01*
X136179249Y-83785369D01*
X136179252Y-83785368D01*
X136179255Y-83785368D01*
X136349522Y-83725789D01*
X136502262Y-83629816D01*
X136629816Y-83502262D01*
X136725789Y-83349522D01*
X136785368Y-83179255D01*
X136785369Y-83179249D01*
X136805565Y-83000003D01*
X136805565Y-82999996D01*
X137194435Y-82999996D01*
X137194435Y-83000003D01*
X137214630Y-83179249D01*
X137214631Y-83179254D01*
X137274211Y-83349523D01*
X137323699Y-83428282D01*
X137370184Y-83502262D01*
X137497738Y-83629816D01*
X137650478Y-83725789D01*
X137788860Y-83774211D01*
X137820745Y-83785368D01*
X137820750Y-83785369D01*
X137999996Y-83805565D01*
X138000000Y-83805565D01*
X138000004Y-83805565D01*
X138179249Y-83785369D01*
X138179252Y-83785368D01*
X138179255Y-83785368D01*
X138349522Y-83725789D01*
X138502262Y-83629816D01*
X138629816Y-83502262D01*
X138631239Y-83499998D01*
X140394318Y-83499998D01*
X140394318Y-83500001D01*
X140414955Y-83656760D01*
X140414956Y-83656762D01*
X140460367Y-83766395D01*
X140475464Y-83802841D01*
X140571718Y-83928282D01*
X140697159Y-84024536D01*
X140843238Y-84085044D01*
X140921619Y-84095363D01*
X140999999Y-84105682D01*
X141000000Y-84105682D01*
X141000001Y-84105682D01*
X141052254Y-84098802D01*
X141156762Y-84085044D01*
X141302841Y-84024536D01*
X141428282Y-83928282D01*
X141524536Y-83802841D01*
X141585044Y-83656762D01*
X141605682Y-83500000D01*
X141585044Y-83343238D01*
X141524536Y-83197159D01*
X141428282Y-83071718D01*
X141302841Y-82975464D01*
X141156762Y-82914956D01*
X141156760Y-82914955D01*
X141000001Y-82894318D01*
X140999999Y-82894318D01*
X140843239Y-82914955D01*
X140843237Y-82914956D01*
X140697160Y-82975463D01*
X140571718Y-83071718D01*
X140475463Y-83197160D01*
X140414956Y-83343237D01*
X140414955Y-83343239D01*
X140394318Y-83499998D01*
X138631239Y-83499998D01*
X138725789Y-83349522D01*
X138785368Y-83179255D01*
X138785369Y-83179249D01*
X138805565Y-83000003D01*
X138805565Y-82999996D01*
X138785369Y-82820750D01*
X138785368Y-82820745D01*
X138752141Y-82725788D01*
X138725789Y-82650478D01*
X138629816Y-82497738D01*
X138502262Y-82370184D01*
X138469379Y-82349522D01*
X138349523Y-82274211D01*
X138179254Y-82214631D01*
X138179249Y-82214630D01*
X138000004Y-82194435D01*
X137999996Y-82194435D01*
X137820750Y-82214630D01*
X137820745Y-82214631D01*
X137650476Y-82274211D01*
X137497737Y-82370184D01*
X137370184Y-82497737D01*
X137274211Y-82650476D01*
X137214631Y-82820745D01*
X137214630Y-82820750D01*
X137194435Y-82999996D01*
X136805565Y-82999996D01*
X136785369Y-82820750D01*
X136785368Y-82820745D01*
X136752141Y-82725788D01*
X136725789Y-82650478D01*
X136629816Y-82497738D01*
X136502262Y-82370184D01*
X136469379Y-82349522D01*
X136349523Y-82274211D01*
X136179254Y-82214631D01*
X136179249Y-82214630D01*
X136000004Y-82194435D01*
X135999996Y-82194435D01*
X135820750Y-82214630D01*
X135820745Y-82214631D01*
X135650476Y-82274211D01*
X135497737Y-82370184D01*
X135370184Y-82497737D01*
X135274211Y-82650476D01*
X135214631Y-82820745D01*
X135214630Y-82820750D01*
X135194435Y-82999996D01*
X123334822Y-82999996D01*
X123428282Y-82928282D01*
X123524536Y-82802841D01*
X123585044Y-82656762D01*
X123605682Y-82500000D01*
X123598029Y-82441873D01*
X123585044Y-82343239D01*
X123585044Y-82343238D01*
X123524536Y-82197159D01*
X123428282Y-82071718D01*
X123302841Y-81975464D01*
X123156762Y-81914956D01*
X123156760Y-81914955D01*
X123000001Y-81894318D01*
X122999999Y-81894318D01*
X122843239Y-81914955D01*
X122843237Y-81914956D01*
X122697160Y-81975463D01*
X122571718Y-82071718D01*
X122475463Y-82197160D01*
X122414956Y-82343237D01*
X122414955Y-82343239D01*
X122394318Y-82499998D01*
X120300500Y-82499998D01*
X120300500Y-80424500D01*
X120320185Y-80357461D01*
X120372989Y-80311706D01*
X120424500Y-80300500D01*
X128559884Y-80300500D01*
X128626923Y-80320185D01*
G37*
G04 #@! TD.AperFunction*
M02*
