M48
; DRILL file {KiCad 8.0.5} date 2024-09-14T16:18:57+0100
; FORMAT={-:-/ absolute / metric / decimal}
; #@! TF.CreationDate,2024-09-14T16:18:57+01:00
; #@! TF.GenerationSoftware,Kicad,Pcbnew,8.0.5
; #@! TF.FileFunction,Plated,1,4,PTH
FMAT,2
METRIC
; #@! TA.AperFunction,Plated,PTH,ViaDrill
T1C0.400
; #@! TA.AperFunction,Plated,PTH,ViaDrill
T2C0.600
; #@! TA.AperFunction,Plated,PTH,ComponentDrill
T3C1.000
%
G90
G05
T1
X121.5Y-82.5
X121.5Y-84.0
X123.0Y-82.5
X127.5Y-82.5
X127.5Y-99.5
X129.0Y-81.0
X131.0Y-90.0
X131.0Y-91.0
X133.5Y-86.0
X133.5Y-94.5
X134.5Y-87.0
X134.5Y-93.5
X137.0Y-89.0
X137.0Y-91.0
X138.5Y-87.5
X138.5Y-92.5
X139.0Y-96.5
X140.0Y-94.0
X141.0Y-83.5
X142.0Y-93.5
X144.0Y-87.5
X145.0Y-81.5
X145.5Y-85.0
X145.5Y-90.0
X147.0Y-85.0
X147.0Y-94.4
X150.0Y-96.5
X151.0Y-94.5
X152.5Y-81.0
X153.5Y-94.0
X153.5Y-95.5
X153.5Y-97.0
X156.0Y-81.0
X156.0Y-99.5
X157.5Y-81.5
X157.5Y-92.5
X157.5Y-99.5
X158.5Y-81.5
X159.0Y-85.5
X159.0Y-87.5
X159.0Y-90.0
X159.0Y-99.5
X159.5Y-81.5
X161.0Y-80.975
X161.0Y-98.0
X161.5Y-85.5
X162.0Y-98.0
X162.0Y-102.0
X162.5Y-100.5
X162.5Y-103.5
X163.0Y-102.0
X163.5Y-97.5
X164.0Y-99.5
X165.0Y-99.5
X166.5Y-82.0
X166.5Y-83.0
X168.0Y-102.0
X168.0Y-103.0
T2
X134.5Y-85.0
X136.0Y-83.0
X136.0Y-98.0
X136.0Y-103.0
X138.0Y-83.0
X138.0Y-103.0
X142.5Y-86.0
X142.5Y-102.5
X144.0Y-86.0
X147.5Y-102.5
X149.0Y-82.0
X149.0Y-94.5
X150.5Y-93.0
X151.0Y-82.0
X152.5Y-83.0
X152.5Y-84.5
X152.5Y-86.5
X152.5Y-93.0
X154.0Y-91.5
X155.0Y-87.0
T3
X122.235Y-97.445
X122.235Y-99.985
X122.235Y-102.525
X124.775Y-97.445
X124.775Y-99.985
X124.775Y-102.525
X142.455Y-97.212
X142.455Y-99.752
X144.995Y-97.212
X144.995Y-99.752
X147.535Y-97.212
X147.535Y-99.752
M30
